<?xml version="1.0" standalone="no"?>
<!DOCTYPE svg PUBLIC "-//W3C//DTD SVG 1.1//EN" "http://www.w3.org/Graphics/SVG/1.1/DTD/svg11.dtd" >
<svg xmlns="http://www.w3.org/2000/svg">
<metadata>
Created by FontPrep 20130207 at Mon Jan  4 13:39:44 2016
 By Sergey Khabaroff
(c) 2005 Adobe Systems Incorporated. All Rights Reserved.
</metadata>
<defs>
<font id="b88cf393746e77c15b1aa1973adbcbf7" horiz-adv-x='1024' >
  <font-face 
    font-family="GaramondPremrPro-SmbdCapt"
    font-weight="600"
    font-variant="small-caps"
    font-stretch="normal"
    units-per-em="2048"
    panose-1="2 2 6 2 6 5 6 2 4 3"
    ascent="1485"
    descent="-563"
    x-height="846"
    cap-height="1241"
    bbox="-535.02 -672 2823 1841.12"
    underline-thickness="102"
    underline-position="-102"
    unicode-range="U+0020-FB04"
  />
<missing-glyph horiz-adv-x="1024" 
d="M102 1239v-1044l349 522zM164 102h696l-348 523zM573 717l349 -522v1044zM512 809l348 522h-696zM0 0v1434h1024v-1434h-1024z" />
    <glyph glyph-name="T_h" unicode="Th" horiz-adv-x="2287" 
d="M580 1063q0 29 -6 39t-25 10h-156q-113 -2 -155 -31t-78 -123q-23 -61 -60 -61q-51 0 -49 88q1 15 15 115t10 160q0 12 24 34t36 21q13 0 34 -21q47 -55 130 -58t175 -3h721q104 0 154 14t92 55t66 41q51 -1 52 -99t-6 -441q0 -17 6 -23t15 -2q113 84 248 84t213 -90
q72 -78 75 -262l11 -350q0 -33 12 -45t62 -35t51 -47q-1 -15 -21 -27t-39 -12l-190 6l-172 -6q-66 0 -66 37q0 27 44 43t59 38q14 22 14 54v371q-2 74 -47 131q-18 23 -57 38t-68 15q-88 0 -119 -29t-31 -45q0 -434 5 -481q2 -66 67 -86q16 -4 30 -18t13 -27q0 -13 -18 -27
t-41 -14l-144 6l-239 -6q-31 0 -51 13t-21 28q1 31 53 47t72 36t23 56q12 118 12 436t-4 386q-3 68 -19 85q-16 15 -71 23t-326 8q-16 0 -21 -35q-12 -172 -12 -248l2 -542q0 -102 31 -136q31 -33 105 -53t73 -55q0 -51 -76 -51l-295 8l-280 -6q-78 0 -78 51q0 33 83 55
t116 58q33 35 32 118l5 517v270z" />
    <glyph glyph-name="Tcaron_h" unicode="&#x164;h" horiz-adv-x="2287" 
d="M725 1307q-29 -1 -101 65t-178 170q-35 33 -29 59q10 53 115 1q105 -53 187 -103q20 -10 35 0q47 31 174 100q44 23 68 23t31 -13t-1 -35t-26 -39t-72 -69q-53 -52 -114 -105q-60 -54 -89 -54zM580 1063q0 29 -6 39t-25 10h-156q-113 -2 -155 -31t-78 -123
q-23 -61 -60 -61q-51 0 -49 88q1 15 15 115t10 160q0 12 24 34t36 21q13 0 34 -21q47 -55 130 -58t175 -3h721q104 0 154 14t92 55t66 41q51 -1 52 -99t-6 -441q0 -17 6 -23t15 -2q113 84 248 84t213 -90q72 -78 75 -262l11 -350q0 -33 12 -45t62 -35t51 -47q-1 -15 -21 -27
t-39 -12l-190 6l-172 -6q-66 0 -66 37q0 27 44 43t59 38q14 22 14 54v371q-2 74 -47 131q-18 23 -57 38t-68 15q-88 0 -119 -29t-31 -45q0 -434 5 -481q2 -66 67 -86q16 -4 30 -18t13 -27q0 -13 -18 -27t-41 -14l-144 6l-239 -6q-31 0 -51 13t-21 28q1 31 53 47t72 36t23 56
q12 118 12 436t-4 386q-3 68 -19 85q-16 15 -71 23t-326 8q-16 0 -21 -35q-12 -172 -12 -248l2 -542q0 -102 31 -136q31 -33 105 -53t73 -55q0 -51 -76 -51l-295 8l-280 -6q-78 0 -78 51q0 33 83 55t116 58q33 35 32 118l5 517v270z" />
    <glyph glyph-name="Tcommaaccent_h" unicode="&#x162;h" horiz-adv-x="2287" 
d="M636 -518q-28 0 -48 9q-18 9 -19 22q0 33 47 53q109 37 109 102q0 41 -72 60q-25 6 -51 28t-24 56q0 34 36 65t94 31t112 -52t54 -136t-51 -141t-105 -77t-82 -20zM580 1063q0 29 -6 39t-25 10h-156q-113 -2 -155 -31t-78 -123q-23 -61 -60 -61q-51 0 -49 88q1 15 15 115
t10 160q0 12 24 34t36 21q13 0 34 -21q47 -55 130 -58t175 -3h721q104 0 154 14t92 55t66 41q51 -1 52 -99t-6 -441q0 -17 6 -23t15 -2q113 84 248 84t213 -90q72 -78 75 -262l11 -350q0 -33 12 -45t62 -35t51 -47q-1 -15 -21 -27t-39 -12l-190 6l-172 -6q-66 0 -66 37
q0 27 44 43t59 38q14 22 14 54v371q-2 74 -47 131q-18 23 -57 38t-68 15q-88 0 -119 -29t-31 -45q0 -434 5 -481q2 -66 67 -86q16 -4 30 -18t13 -27q0 -13 -18 -27t-41 -14l-144 6l-239 -6q-31 0 -51 13t-21 28q1 31 53 47t72 36t23 56q12 118 12 436t-4 386q-3 68 -19 85
q-16 15 -71 23t-326 8q-16 0 -21 -35q-12 -172 -12 -248l2 -542q0 -102 31 -136q31 -33 105 -53t73 -55q0 -51 -76 -51l-295 8l-280 -6q-78 0 -78 51q0 33 83 55t116 58q33 35 32 118l5 517v270z" />
    <glyph glyph-name="f_f_b" unicode="ffb" horiz-adv-x="2363" 
d="M2017 397q0 139 -73 237q-74 97 -177 97q-51 0 -84 -20q-6 -3 -14 -19t-14 -48t-6 -210t24 -237q11 -33 57 -73t107 -40t99 37t59 121q22 83 22 155zM788 709h-331q-20 0 -21 -25q0 -233 6 -475q2 -63 22 -85t71 -39q52 -17 53 -44q0 -19 -16 -33t-50 -14l-217 6l-190 -6
q-29 0 -49 11t-21 30q0 35 57 49q42 14 60 34t23 108q5 89 5 440q0 31 -18 30l-80 11q-10 2 -21 15t-12 21q0 27 88 82q15 9 29 17t14 28q14 217 218 363q53 39 133 67t143 27q178 0 279 -86q12 -10 28 0q139 125 330 125q115 0 180 -37q18 -8 37 6q57 51 84 51
q39 0 39 -108q-10 -287 -10 -453q0 -10 7 -17t13 -5q115 59 207 59q154 0 268 -100q135 -117 135 -318q0 -102 -53 -203t-137 -161q-143 -104 -327 -104t-285 42q-16 6 -40 6q-44 1 -44 37l2 156q12 468 12 660l-4 237q-4 37 -21 60q-57 78 -157 77q-35 1 -71 -29t-55 -77
t-33 -129q-30 -180 11 -178q39 0 109 2l72 2q29 0 28 -107q0 -10 -15 -24t-24 -15l-178 4q-16 0 -16 -45q0 -449 11 -492t59 -61q13 -4 67 -17t53 -48q0 -43 -65 -43l-256 6l-172 -6q-29 0 -54 11t-24 30q0 33 65 49q35 12 47 30t18 106q6 87 5 454q-1 35 -21 35zM620 1221
q-57 0 -101 -45t-60 -144q-18 -76 -17 -162q0 -28 23 -28l326 -2q16 8 20 28q8 104 41 191q6 12 -6 31q-33 53 -101 92t-125 39z" />
    <glyph glyph-name="f_f_h" unicode="ffh" horiz-adv-x="2373" 
d="M788 709h-331q-20 0 -21 -25q0 -233 6 -475q2 -63 22 -85t71 -39q52 -17 53 -44q0 -19 -16 -33t-50 -14l-217 6l-190 -6q-29 0 -49 11t-21 30q0 35 57 49q42 14 60 34t23 108q5 89 5 440q0 31 -18 30l-80 11q-10 2 -21 15t-12 21q0 27 88 82q15 9 29 17t14 28
q14 215 220 365q51 37 131 65t143 27q178 0 279 -86q14 -10 26 0q61 55 151 90t196 35t171 -37q16 -8 37 6q57 51 82 51q41 0 41 -94l-2 -499q0 -7 5 -13t9 -4q76 45 124 66t126 20q284 0 295 -356l8 -334q0 -37 12 -54q12 -16 63 -34q50 -18 50 -51q0 -19 -20 -29t-41 -10
l-189 6l-174 -6q-27 0 -44 15t-17 28q0 23 43 38t57 37t14 54t1 109v262q-2 76 -48 133q-16 23 -55 37t-69 14q-88 0 -134 -41q-4 -4 -10 -26t-6 -27q0 -393 4 -451q3 -58 55 -87q52 -28 52 -45q0 -18 -18 -34t-46 -16l-166 6l-198 -6q-31 0 -50 13q-18 13 -18 28
q0 31 49 47t65 32t19 44q14 134 14 496t-14 454q-4 43 -22 68q-61 76 -164 75q-35 -1 -71 -29q-99 -78 -99 -345q0 -37 22 -37h109l72 2q29 0 28 -107q0 -8 -15 -23t-24 -16l-178 4q-16 0 -16 -41q0 -127 8 -450q2 -68 19 -86q17 -19 83 -35t66 -51q0 -43 -66 -43l-241 6
l-172 -6q-29 0 -54 11t-24 30q0 33 65 49q35 12 47 30t18 106q6 87 5 454q-1 35 -21 35zM465 840h326q16 8 20 28q8 104 41 191q6 12 -6 31q-33 53 -101 92t-125 39t-102 -45t-61 -142q-16 -70 -15 -166q0 -28 23 -28z" />
    <glyph glyph-name="f_f_j" unicode="ffj" horiz-adv-x="1798" 
d="M467 840h324q20 10 20 30q4 98 43 189q6 12 -6 31q-32 53 -100 94t-126 41t-102 -47t-61 -146q-16 -68 -17 -164q0 -12 8 -20t17 -8zM49 35q0 35 53 49q40 14 60 34t25 108q5 89 6 440q1 12 -7 22t-16 10l-74 7q-35 4 -35 38q1 16 9 23q8 8 13 14t25 18q19 11 36 22
q18 10 32 20t17 30q25 219 210 361q53 39 137 67t146 29q180 0 277 -86q12 -10 28 0q63 53 163 90t187 37q168 0 246 -84q29 -31 29 -68q0 -38 -45 -80t-82 -42t-57 20q-141 135 -210 135t-115 -84t-46 -299q0 -29 22 -28h140q309 0 350 22q33 14 47 14q29 0 29 -110
l-2 -682q0 -51 -9 -121q-23 -186 -176 -323q-47 -41 -127 -80t-116 -39q-21 1 -21 35t23 55q41 31 79 65q87 86 96 286q9 187 6 384q-3 196 -3 264q1 68 -17 86q-18 20 -69 21h-230q-29 0 -28 -31q0 -152 8 -475q2 -68 18 -88q15 -21 67 -35t52 -45q0 -19 -16 -33t-49 -14
l-213 6l-174 -6q-70 0 -70 41q0 35 57 49q37 12 50 32t19 105q6 86 5 455q0 33 -21 33h-331q-20 0 -21 -23q0 -154 8 -477q2 -66 20 -86q18 -19 70 -37q51 -18 52 -45q0 -19 -16 -33t-50 -14l-213 6l-192 -6q-66 0 -66 41z" />
    <glyph glyph-name="f_f_k" unicode="ffk" horiz-adv-x="2316" 
d="M788 709h-331q-20 0 -21 -25q0 -233 6 -475q2 -63 22 -85t71 -39q52 -17 53 -44q0 -19 -16 -33t-50 -14l-217 6l-190 -6q-29 0 -49 11t-21 30q0 35 57 49q42 14 60 34t23 108q5 89 5 440q0 31 -18 30l-80 11q-10 2 -21 15t-12 21q0 27 88 82q15 9 29 17t14 28
q14 215 220 365q51 37 131 65t143 27q178 0 279 -86q14 -10 26 0q61 55 151 90t196 35t171 -37q16 -8 37 6q57 51 82 51q41 0 41 -90q-8 -123 -8 -520l2 -203q-2 -92 22 -92q10 0 62 35q88 70 172 168q25 31 23 44q-2 14 -50 28t-49 35q0 20 22 35t40 16h90l239 14
q33 0 49 -14t17 -29q0 -27 -57 -45q-106 -35 -164 -75t-176 -138q-8 -8 0 -27q203 -301 235 -338q76 -88 126 -106t64 -26t15 -25q0 -41 -78 -41l-283 8h-90q-53 0 -53 37q0 27 45 47q22 12 8 44t-65 104t-64 92q-51 80 -67 79q-33 0 -33 -32v-178q0 -45 10 -68
q11 -23 19 -27t48 -20t40 -32t-20 -34t-48 -18l-168 6l-196 -6q-23 0 -42 12t-20 27q0 27 56 50t65 55q18 58 18 472t-6 476t-26 90q-61 76 -164 75q-35 -1 -71 -29q-99 -78 -99 -345q0 -37 22 -37h109l72 2q29 0 28 -107q0 -8 -15 -23t-24 -16l-178 4q-16 0 -16 -41
q0 -127 8 -450q2 -68 19 -86q17 -19 83 -35t66 -51q0 -43 -66 -43l-241 6l-172 -6q-29 0 -54 11t-24 30q0 33 65 49q35 12 47 30t18 106q6 87 5 454q-1 35 -21 35zM465 840h326q16 8 20 28q8 104 41 191q6 12 -6 31q-33 53 -101 92t-125 39t-102 -45t-61 -142
q-16 -70 -15 -166q0 -28 23 -28z" />
    <glyph glyph-name="f_f_t" unicode="fft" horiz-adv-x="1933" 
d="M465 842h326q16 8 20 28q0 94 41 189q6 12 -6 31q-33 53 -101 92t-125 39t-102 -46t-61 -143q-16 -70 -15 -162q0 -28 23 -28zM788 709h-331q-20 0 -21 -23q0 -236 6 -477q2 -63 22 -85t71 -39q52 -17 53 -44q0 -19 -16 -33t-50 -14l-217 6l-190 -6q-29 0 -49 11t-21 30
q0 35 57 49q42 14 60 34t23 108q5 89 5 442q0 31 -18 30l-80 11q-10 2 -21 14t-12 20q0 27 88 82q15 9 29 17t14 28q14 217 218 363q53 39 133 67t143 27q178 0 279 -86q12 -10 28 0q141 127 279 127t192 -57q27 -27 27 -67t-35 -78t-71 -38q-37 0 -63 27t-71 57t-71 29
q-70 0 -105 -125q-12 -66 -12 -231q0 -45 20 -45l281 -2q34 0 58 34t83 89q47 55 96 55q7 0 19 -16t12 -25l-2 -111q0 -8 6 -17t17 -9l221 10q6 0 16 -9t14 -21t3 -68q-1 -14 -15 -30t-35 -15h-210q-3 1 -9 -9t-6 -20l-4 -350q-2 -100 33 -142q37 -39 88 -39q51 -1 94 13
t47 14t12 -10t9 -23q0 -47 -76 -105q-77 -58 -217 -58t-209 102q-29 43 -29 145l6 453q0 27 -24 26h-287q-18 0 -18 -28q0 -468 11 -511t59 -61q13 -4 67 -17t53 -48q0 -43 -65 -43l-256 6l-172 -6q-29 0 -54 11t-24 30q0 33 65 49q35 12 47 30t18 106q6 87 5 456
q-1 33 -21 33z" />
    <glyph glyph-name="f_h" unicode="fh" horiz-adv-x="1787" 
d="M63 741q-1 17 19 31l33 23q31 21 59 36q18 18 21 37q8 240 223 404q49 38 131 66q81 28 181 28t165 -37q18 -8 37 6q57 51 91 51t34 -106q-4 -147 -4 -487q0 -7 5 -13t9 -4q59 35 119 61t131 25q282 0 293 -356q10 -328 10 -350q0 -47 62 -69t63 -54q0 -19 -22 -29
t-42 -10l-186 6l-174 -6q-27 0 -44 15t-17 28q0 23 42 38t56 37t14 54v371q-2 78 -45 133q-18 23 -57 37t-70 14q-88 0 -133 -41q-14 -20 -14 -53q0 -393 6 -465q0 -45 52 -73t52 -45q0 -18 -18 -34t-47 -16l-166 6l-201 -6q-31 0 -48 12t-17 26q0 32 51 49t64 29t18 48
q14 137 14 472t-10 482q-16 51 -23 64q-61 76 -164 75q-38 -1 -76 -29q-107 -79 -100 -348q0 -37 23 -36q39 0 115 2l75 2q31 0 31 -107q0 -10 -14 -24t-25 -15l-190 4q-14 0 -15 -47q0 -289 3 -401t19 -132t52 -28q72 -18 74 -51q0 -21 -20 -35t-52 -14l-215 8l-186 -6
q-25 0 -45 12t-21 29q0 33 51 46q52 13 66 33t18 64q10 164 11 490q1 12 -9 20t-18 8l-74 9q-31 4 -31 36z" />
    <glyph glyph-name="f_j" unicode="fj" horiz-adv-x="1179" 
d="M600 -481q-20 1 -20 35t22 55q41 31 80 65q86 86 98 322t-4 666q-4 49 -82 49h-229q-25 0 -25 -29q0 -312 3 -424t19 -134t67 -36q50 -14 51 -49q0 -17 -18 -31t-50 -14l-209 6l-176 -6q-74 0 -74 41q1 13 15 29t48 25t52 31q16 22 21 92t6 445q1 13 -9 23t-18 12l-70 10
q-16 2 -25 16t-10 27q0 31 113 93q18 8 21 36q10 152 90 265q57 84 182 157q43 27 120 50t142 22q160 0 238 -84q61 -66 -15 -140q-41 -40 -77 -40t-58 22l-23 23q-110 100 -188 100t-120 -77t-42 -308q0 -29 23 -28h149q293 0 336 24q33 14 47 14q29 0 29 -110l-2 -682
q0 -51 -8 -121q-23 -186 -176 -323q-47 -41 -127 -80t-117 -39z" />
    <glyph glyph-name="f_k" unicode="fk" horiz-adv-x="1708" 
d="M63 741q-1 17 19 31l33 23q31 21 59 36q18 18 21 37q15 245 223 404q49 38 131 66q81 28 181 28t165 -37q18 -8 37 6q57 51 91 51t34 -90q-12 -184 -13 -520v-203q0 -92 25 -92q10 0 61 35q84 70 173 168q29 41 18 50q-10 8 -52 22t-42 34t21 36q22 15 40 16h88l242 14
q31 0 48 -14t17 -29q0 -25 -57 -45q-106 -35 -164 -75t-176 -138q-8 -8 0 -27q203 -301 236 -338q76 -88 126 -106t64 -26t14 -25q0 -41 -77 -41l-283 8h-90q-55 0 -55 37q0 25 47 47q22 12 8 44t-66 104t-63 92q-51 80 -68 79q-12 0 -23 -9t-12 -23q0 -123 2 -173t11 -73
q10 -23 17 -27t48 -20t41 -32t-20 -34t-47 -18l-170 6l-195 -6q-23 0 -42 12t-19 27q0 27 55 50t65 54q3 12 7 45q10 174 10 524t-4 406q-16 51 -23 64q-61 76 -164 75q-38 -1 -76 -29q-107 -79 -100 -348q0 -37 23 -36q39 0 115 2l75 2q31 0 31 -107q0 -10 -14 -24t-25 -15
l-190 4q-14 0 -15 -47q0 -289 4 -450q2 -61 20 -81t58 -30q74 -20 74 -51q0 -21 -20 -35t-54 -14l-221 8l-186 -6q-25 0 -45 12t-21 29q0 33 51 46q52 13 66 33t18 64q10 164 11 490q1 12 -9 20t-18 8l-74 9q-31 4 -31 36z" />
    <glyph glyph-name="f_t" unicode="ft" horiz-adv-x="1316" 
d="M741 702h-286q-19 0 -19 -84t8 -407q2 -68 25 -87q23 -20 90 -32t68 -55q1 -19 -19 -31t-53 -12l-250 6l-184 -6q-74 0 -74 51q0 17 52 39q51 22 67 38t20 86t4 266t-5 207t-9 11l-80 17q-10 2 -23 13q-32 27 7 58q20 16 90 58q4 2 12 14t8 14q15 260 226 414
q129 94 256 94t184 -61q23 -35 23 -60q0 -56 -62 -100q-31 -23 -59 -23t-56 29q-92 92 -145 92q-74 0 -102 -135q-12 -63 -13 -233q0 -45 21 -45h282q31 0 52 26q19 28 79 90t105 62q8 0 19 -16t12 -25l-2 -111q0 -8 6 -17t16 -9l221 10q5 0 17 -9t14 -19t2 -70
q-2 -14 -15 -30t-34 -15h-209q-4 -1 -10 -11t-6 -20l-4 -348q-4 -181 127 -181q45 -1 88 13t47 14t12 -10t8 -23q0 -47 -67 -100q-85 -63 -225 -63t-210 102q-29 43 -28 145l6 451q0 28 -25 28z" />
    <glyph glyph-name="gamma_gamma" unicode="&#x3b3;&#x3b3;" horiz-adv-x="1740" 
d="M1346 297q10 0 16 8q16 31 76 156q59 125 92 186q47 98 76 236q2 6 24 8t36 -8q13 -10 39 -44t33 -64t0 -75t-36 -89q-29 -43 -108 -159q-80 -116 -110 -165q-91 -146 -106 -225q-16 -79 -8 -138q16 -289 11 -312t-31 -41q-26 -17 -56 -14t-88 35q-103 55 -95 138
q9 84 128 336q27 53 12 170q-39 393 -259 393t-374 -578q-14 -57 -1 -245t1 -242q-4 -16 -30 -34q-26 -17 -56 -14q-30 2 -90 34t-83 73q-24 41 -19 76q10 88 141 367q31 61 13 170q-72 391 -277 391q-51 0 -105 -26t-67 -44q-11 -8 -27 8q-48 49 15 154q33 59 101 108
q69 49 157 49q89 0 157 -62t100 -208t32 -301q0 -10 11 -10t13 10q82 266 188 418t263 154q87 -1 155 -61t105 -230q23 -121 22 -281q-1 -8 9 -8z" />
    <glyph glyph-name="lambda_lambda" unicode="&#x3bb;&#x3bb;" horiz-adv-x="1773" 
d="M1745 211q22 0 22 -42t-14 -75q-53 -123 -170 -123t-164 176q-84 305 -110 439q-1 6 -9 2t-12 -10q-12 -31 -102 -237t-107 -237q-72 -129 -194 -133q-180 0 -242 224q-16 57 -52 216t-38 175q-6 16 -23 -8q-4 -8 -96 -250t-96 -250q-45 -115 -90 -115q-20 1 -76 19
t-82 36q-10 8 -20 30t-6 30t160 292q158 284 184 341t61 92q20 29 14 49q-79 258 -267 258q-99 0 -155 -23q-4 -1 -17 11t-11 20q12 70 71 129q78 82 187 82q184 0 270 -311q14 -49 78 -309t117 -404q41 -109 100 -108q29 -1 69 75t93 172t89 161q37 65 65 118t55 80
q20 29 14 49q-45 143 -111 224t-176 81t-194 -47q-4 -2 -18 9t-13 22q0 49 57 125q32 42 92 74t126 32q201 0 290 -307q190 -668 228 -748q66 -117 157 -116q14 0 66 10z" />
    <glyph glyph-name="longs_b" unicode="&#x17f;b" horiz-adv-x="1740" 
d="M1397 403q0 137 -73 233t-159 97q-86 0 -113 -37q-12 -14 -18 -44t-6 -214q0 -182 18 -229t66 -86q49 -39 102 -39t99 37q84 73 84 282zM1255 862q156 0 271 -100q135 -117 135 -318q0 -100 -53 -203t-140 -161q-152 -104 -321 -105q-55 -1 -151 13t-127 26q-29 12 -51 8
t-30 2q-8 5 -8 37l2 172q6 521 6 705t-22 224t-66 64t-86 23q-96 0 -136 -122q-40 -123 -40 -447t4 -473q0 -43 18 -68t34 -29t70 -20q54 -15 57 -43q0 -19 -23 -37t-57 -18l-242 8l-195 -6q-25 0 -44 15t-19 32q0 27 50 41q49 14 67 34t22 64q10 164 10 484q0 23 -26 28
l-72 17q-31 4 -31 32t40 52t69 43q20 10 20 36q12 219 213 383q51 43 135 77t174 34q92 0 162 -37q16 -8 41 6q68 41 96 41t27 -84l-10 -454q0 -20 7 -30t16 -5q113 59 204 59z" />
    <glyph glyph-name="longs_h" unicode="&#x17f;h" horiz-adv-x="1779" 
d="M168 668q0 20 -27 26l-71 15q-31 4 -31 39q0 24 80 70q18 11 28 18q18 8 21 36q12 219 211 381q51 43 139 78t186 35t162 -37q14 -6 39 6q74 41 96 41q29 0 25 -76l-2 -503q0 -9 6 -15t10 -4q139 84 248 84q284 0 295 -352q0 -53 4 -195l4 -143q-1 -37 13 -54
q14 -18 63 -36t49 -49q0 -19 -20 -29t-41 -10l-189 6l-174 -6q-27 0 -44 15t-17 28q0 23 43 38t57 37q15 22 15 54v109v264q-2 70 -50 131q-16 23 -55 37t-70 14q-84 0 -133 -43q-14 -14 -14 -47q0 -393 4 -445t14 -67q10 -16 50 -37t41 -39q1 -17 -17 -33t-47 -16l-164 6
l-205 -6q-31 0 -48 12t-17 26q0 32 45 48q76 27 87 52q17 51 17 489t-5 488t-38 83q-55 63 -141 63q-106 0 -145 -122q-39 -123 -39 -487t2 -433t18 -87t72 -34q56 -14 57 -47q0 -20 -21 -37q-22 -16 -55 -16l-213 8l-194 -6q-25 0 -44 15t-20 32q0 27 50 41t68 34
q17 20 22 64q10 164 10 488z" />
    <glyph glyph-name="longs_i" unicode="&#x17f;i" horiz-adv-x="1204" 
d="M649 33q0 33 49 45t62 34q26 48 26 267t-5 252t-62 65q-39 23 -39 58q0 16 41 28t144 47t139 35q27 0 26 -90v-323q2 -256 6 -293q8 -55 78 -76q55 -20 55 -47q0 -17 -16 -29t-47 -12l-197 6l-192 -6q-68 0 -68 39zM45 35q0 35 57 49q42 14 60 34t23 108q5 89 5 438
q0 12 -7 22t-15 10l-74 6q-35 4 -35 39q0 20 36 51t66 45q29 15 29 35q16 247 254 408q125 88 291 88q61 0 123 -25t91 -53q30 -28 30 -68t-37 -78t-73 -38t-83 39q-114 96 -182 96t-102 -57q-34 -56 -49 -156q-28 -175 -11 -819q2 -68 18 -87q16 -20 69 -36q54 -16 55 -49
q0 -15 -22 -29t-54 -14l-203 6l-190 -6q-70 0 -70 41z" />
    <glyph glyph-name="longs_k" unicode="&#x17f;k" horiz-adv-x="1708" 
d="M41 34q0 31 52 46q53 16 69 36t20 62q8 131 8 490q0 20 -26 26l-74 15q-27 2 -27 43q-1 20 47 46q48 25 64 36t16 34q20 227 211 381q53 43 141 79t188 36q102 0 161 -37q16 -10 41 2q68 45 83 45t22 -4q18 -10 18 -78q-8 -193 -8 -487v-297q0 -35 18 -35q11 1 77 51
t156 154q49 56 -14 74t-63 47q0 20 24 30q25 10 45 11h88l244 14q31 0 47 -13q36 -29 -1 -58q-17 -13 -38 -17q-104 -18 -196 -88q-29 -20 -146 -121q-14 -12 -4 -33q188 -276 238 -336q76 -84 140 -108t64 -51q0 -35 -73 -35l-285 6h-94q-25 0 -39 14t-14 25q0 29 49 43
q29 10 6 49q-12 29 -64 99t-82 120q-32 52 -49 51q-12 0 -23 -9q-11 -10 -11 -28v-167q0 -81 30 -102q10 -7 31 -11q53 -16 53 -49q0 -14 -23 -28q-24 -13 -51 -13l-159 6l-203 -6q-23 0 -43 14t-19 32t7 23t48 23t60 38t24 74t5 400v470q0 24 -2 35t-4 28t-20 47
q-17 32 -65 54t-91 21q-111 0 -152 -127q-31 -98 -33 -436t2 -487q2 -57 20 -79t70 -37q54 -15 54 -37t-23 -40t-55 -18l-209 8l-193 -6q-25 0 -45 12t-20 28z" />
    <glyph glyph-name="longs_l" unicode="&#x17f;l" horiz-adv-x="1224" 
d="M813 872q0 246 -17 287q-16 41 -68 69t-97 27q-106 0 -152 -125q-33 -106 -33 -442t2 -432t16 -120q13 -24 26 -31q14 -7 62 -21t48 -39q0 -21 -20 -37t-54 -16l-221 8l-192 -6q-25 0 -44 12t-20 29q0 33 51 47q50 14 68 34t22 62q8 131 9 488q0 20 -27 26l-74 13
q-31 4 -30 38q0 24 82 71q18 11 32 20t17 34q12 223 213 387q51 41 140 76q88 35 186 35t161 -37q16 -8 39 6q68 41 87 41t27 -17t7 -73l-6 -602q0 -238 6 -481q1 -53 23 -78t76 -40t54 -48q0 -43 -65 -43l-207 6l-201 -6q-29 0 -51 11t-22 30q0 37 57 51t74 56q4 14 10 60
t6 670z" />
    <glyph glyph-name="longs_longs" unicode="&#x17f;s" horiz-adv-x="1230" 
d="M190 664q0 12 -7 22t-15 10l-72 6q-14 2 -25 14q-26 27 -4 50q22 24 41 33q79 40 82 69q35 242 224 367q138 92 294 92t259 -80q12 -8 28 2q135 119 285 119t215 -65q29 -29 29 -68t-38 -79t-70 -40t-56 25q-109 109 -171 109t-88 -72q-5 -14 -9 -24t-8 -26t-6 -23
q-1 -7 -5 -21t-12 -82t-8 -206t6 -587q2 -68 17 -88q16 -21 68 -37t52 -43q0 -19 -18 -33t-52 -14l-198 6l-183 -6q-31 0 -53 11t-22 30q0 33 63 49q37 12 53 32t22 109q6 90 5 439q0 12 -7 22t-15 10l-74 6q-35 4 -35 39q0 20 38 54t73 47q23 14 22 28q2 106 47 189
q6 12 -4 28q-36 55 -100 95t-129 39q-65 1 -111 -49t-63 -150q-29 -136 -11 -813q0 -45 12 -71t25 -33q12 -7 43 -17q66 -20 66 -47q0 -15 -22 -31t-54 -16l-209 6l-190 -6q-29 0 -53 11t-23 30q0 33 63 49q42 14 60 34t23 108q5 89 5 438z" />
    <glyph glyph-name="longs_longs_i" unicode="&#x17f;si" horiz-adv-x="1824" 
d="M1415 399q0 207 -4 232q0 25 -63 69q-31 28 -31 43t11 27t20 14q233 84 284 84q8 0 16 -22t9 -41v-354q2 -238 8 -291t76 -78q57 -16 57 -52t-69 -36l-193 6l-205 -8q-72 0 -71 37q0 33 62 52t75 53q18 58 18 265zM190 664q0 12 -7 22t-15 10l-72 6q-14 2 -25 14
q-26 27 -4 50q22 24 41 33q79 40 82 69q35 227 224 363q53 39 134 67t146 29q174 0 277 -86q12 -10 26 0q66 55 159 91t177 36q174 0 252 -82q31 -26 31 -68t-44 -84t-80 -42t-58 22l-27 27q-110 110 -182 110q-119 0 -152 -204q-18 -147 -18 -380t6 -458q2 -61 17 -86
t68 -39t52 -43q0 -18 -21 -33q-22 -14 -55 -14l-194 6l-180 -6q-31 0 -57 11t-25 30q0 31 67 49q37 12 53 32t22 109q6 90 5 439q0 12 -7 22t-15 10l-72 6q-13 2 -25 14t-12 28q0 17 21 36q24 20 98 66q15 10 14 24q12 106 45 185q6 18 -2 32q-32 53 -98 93t-133 41
q-140 0 -172 -203q-29 -135 -11 -809q0 -45 12 -71t25 -33q12 -7 43 -17q66 -20 66 -47q0 -15 -22 -31t-54 -16l-209 6l-190 -6q-29 0 -53 11t-23 30q0 33 63 49q42 14 60 34t23 108q5 89 5 438z" />
    <glyph glyph-name="longs_longs_l" unicode="&#x17f;sl" horiz-adv-x="1839" 
d="M190 664q0 12 -7 22t-15 10l-72 6q-14 2 -25 14q-26 27 -4 50q22 24 41 33q79 40 82 69q35 227 224 363q53 39 134 67t146 29q174 0 277 -86q12 -10 24 0q61 55 155 91t169 36l8 -2q113 0 178 -37q18 -8 41 6q64 41 84 41t28 -17t9 -73l-6 -602q0 -238 6 -481
q2 -55 24 -79q21 -24 75 -39t55 -48q0 -43 -66 -43l-207 6l-200 -6q-29 0 -52 11q-22 11 -22 29q1 40 65 52q50 14 66 56q4 14 10 60t6 670q0 246 -22 291q-13 37 -65 66t-95 28q-109 -1 -147 -117t-38 -411t7 -520q2 -61 17 -86t68 -39t52 -43q0 -18 -21 -33
q-22 -14 -55 -14l-194 6l-180 -6q-31 0 -57 11t-25 30q0 31 67 49q37 12 53 32t22 109q6 90 5 439q0 12 -7 22t-15 10l-72 6q-13 2 -25 14t-12 28q0 17 21 36q24 20 98 66q15 10 14 24q12 106 45 185q6 18 -2 32q-32 53 -98 93t-133 41q-140 0 -172 -203q-29 -135 -11 -809
q0 -45 12 -71t25 -33q12 -7 43 -17q66 -20 66 -47q0 -15 -22 -31t-54 -16l-209 6l-190 -6q-29 0 -53 11t-23 30q0 33 63 49q42 14 60 34t23 108q5 89 5 438z" />
    <glyph glyph-name="longs_t" unicode="&#x17f;t" horiz-adv-x="1339" 
d="M190 659q0 27 -12 30t-38 8t-41 7t-26 15q-29 32 8 59q11 8 21 16t30 19q20 12 34 23q23 12 27 41q18 248 217 405q124 98 280 98t249 -87t93 -226q-2 -63 -2 -205q0 -6 7 -14t16 -8l231 10q16 0 21 -27q2 -10 2 -73q-4 -43 -39 -43h-215q-18 0 -19 -33v-350
q0 -100 34 -140t83 -39q49 -1 83 13t50 14q27 0 27 -33q0 -55 -74 -100q-96 -63 -205 -64q-150 0 -217 101q-31 47 -31 135t7 473q0 14 -76 33q-37 3 -37 29t27 47q39 25 65 46t29 46q8 119 8 191t-27 110q-57 90 -170 90q-172 0 -172 -420q0 -217 6 -653q0 -41 18 -66
t34 -32q18 -7 55 -17q68 -14 67 -49q0 -16 -22 -31q-23 -14 -51 -14l-238 6l-192 -6q-31 0 -50 12t-20 29q0 35 61 53q72 20 78 95t6 476z" />
    <glyph glyph-name="f_f" unicode="ff" horiz-adv-x="1292" 
d="M620 1221q-57 0 -101 -45t-60 -144q-18 -76 -17 -162q0 -28 23 -28l326 -2q16 8 20 28q0 96 41 191q6 12 -6 31q-33 53 -101 92t-125 39zM1061 870q-1 -28 31 -28t114 2l82 2q31 0 31 -111q0 -8 -11 -20t-24 -13l-211 7q-18 0 -18 -25q0 -478 11 -521t59 -61
q13 -4 67 -17t53 -48q0 -43 -65 -43l-256 6l-172 -6q-29 0 -54 11t-24 30q0 33 65 49q35 12 47 30t18 106q6 87 5 454q-1 35 -21 35h-331q-20 0 -21 -25q0 -233 6 -475q2 -63 22 -85t71 -39q52 -17 53 -44q0 -19 -16 -33t-50 -14l-217 6l-190 -6q-29 0 -49 11t-21 30
q0 35 57 49q42 14 60 34t23 108q5 89 5 440q0 31 -18 30l-80 11q-10 2 -21 15t-12 21q0 27 88 82q15 9 29 17t14 28q14 217 218 363q53 39 133 67t143 27q178 0 279 -86q12 -10 28 0q141 127 279 127t192 -57q27 -27 27 -67t-35 -78t-71 -38q-37 0 -63 27t-71 57t-71 29
q-70 0 -105 -125q-12 -66 -12 -246z" />
    <glyph glyph-name="f_i" unicode="fi" horiz-adv-x="1200" 
d="M55 35q-1 13 13 29t48 25t52 31q16 22 21 92t6 445q0 27 -27 33l-70 15q-35 4 -35 40q0 29 113 95q18 8 21 37q24 267 272 417q125 74 275 74t225 -82q27 -29 27 -70q0 -42 -42 -84q-41 -42 -75 -42q-10 0 -34 9t-32 17q-133 127 -210 127t-117 -73t-40 -308
q1 -28 17 -28l127 2q328 0 371 24q33 14 47 14q29 0 28 -110q0 -440 8 -602q2 -35 16 -48q14 -14 63 -32q50 -18 51 -49q0 -11 -16 -25t-34 -14l-196 6l-207 -6q-29 0 -44 13t-15 29t17 27q17 13 48 21t44 30t19 96t6 246t-1 216q-1 14 -21 26t-45 13l-268 -4q-14 0 -21 -29
q-8 -133 6 -469q2 -63 18 -86t70 -39q53 -16 54 -45q0 -17 -22 -31t-54 -14l-209 6l-176 -6q-72 0 -72 41z" />
    <glyph glyph-name="f_l" unicode="fl" horiz-adv-x="1212" 
d="M608 1251q-80 0 -129 -129q-35 -98 -33 -256q0 -10 8 -20t19 -10q217 0 307 2q18 4 19 26q0 219 -4 254t-23 58q-55 75 -164 75zM63 739q0 25 82 74q20 12 29 18q18 18 21 37q4 129 73 244q66 102 162 164q134 90 261 90t200 -37q18 -8 37 6q49 51 84 51t35 -106l-7 -600
q0 -362 3 -451t21 -111t70 -38q53 -16 54 -45q0 -19 -20 -31t-42 -12l-198 8l-195 -8q-31 0 -55 11t-23 30q0 35 70 53q57 18 63 90q10 164 11 504q-1 8 -11 18t-18 11h-117l-192 2q-5 1 -13 -9t-8 -16q0 -322 3 -434t19 -132t52 -28q74 -19 76 -51q0 -21 -20 -35t-54 -14
l-215 8l-186 -6q-25 0 -45 12t-21 29q0 33 51 46q52 13 66 33t18 64q10 164 11 488q1 12 -9 20t-18 8l-74 13q-31 2 -31 32z" />
    <glyph glyph-name="f_f_i" unicode="ffi" horiz-adv-x="1818" 
d="M622 1221q-58 0 -102 -46t-61 -143q-16 -68 -17 -164q0 -29 23 -28h326q16 8 20 30q0 96 43 187q6 16 -6 30q-32 53 -100 93t-126 41zM190 666q0 12 -7 22t-15 10l-74 7q-35 4 -35 38q1 16 9 23l16 16t40 28l48 30t18 30q23 219 216 361q51 39 134 67t146 29
q178 0 279 -86q12 -12 28 0q141 127 359 127q160 0 235 -82q29 -31 29 -70q0 -38 -45 -80t-82 -42t-57 20q-121 135 -215 135q-63 0 -111 -84q-47 -88 -47 -299q0 -29 22 -28h121q336 0 372 18t52 18q31 0 31 -110q0 -440 8 -602q2 -35 14 -48t66 -32q45 -18 45 -49
q0 -11 -14 -25t-33 -14l-197 6l-209 -6q-53 0 -53 43q0 30 45 43q45 12 60 34q26 41 26 274q0 234 -2 280t-84 47h-252q-23 0 -22 -29q0 -236 6 -477q2 -68 16 -87q15 -18 67 -34t52 -47q0 -19 -16 -33t-50 -14l-215 6l-174 -6q-66 0 -65 41q0 35 53 49q39 12 54 32t21 105
q6 86 5 455q0 33 -18 33h-334q-20 0 -21 -23q0 -236 6 -477q2 -66 20 -86t73 -39q91 -32 34 -75q-20 -15 -53 -15l-211 6l-190 -6q-29 0 -49 11t-21 30q0 35 57 49q42 14 60 34t23 108q5 89 5 440z" />
    <glyph glyph-name="f_f_l" unicode="ffl" horiz-adv-x="1839" 
d="M1225 1249q-166 0 -166 -383q0 -29 26 -28q225 0 316 2q23 6 22 30q0 201 -3 237t-21 58q-63 84 -174 84zM620 1221q-57 0 -101 -46t-60 -143q-16 -68 -17 -162q0 -12 8 -20t17 -8h326q20 12 20 28q6 74 45 187q6 16 -4 33q-33 51 -105 91t-129 40zM190 666q0 29 -22 32
l-74 9q-35 4 -35 36q1 16 9 23l16 16t40 28l48 30t18 30q23 219 211 359q53 39 137 69t148 29q170 0 283 -82q2 -4 12 -4t16 4q59 49 149 85t196 36q104 0 169 -37q25 -10 39 8q47 49 82 49q41 0 41 -106l-6 -600q0 -362 4 -451q5 -89 19 -111t65 -37t51 -46q0 -19 -17 -31
t-40 -12l-195 8l-200 -8q-78 0 -78 41q0 35 70 53q66 23 71 90q8 150 6 508q0 8 -7 17t-19 10l-318 -4q-25 0 -24 -25q0 -231 6 -473q0 -86 42 -104q15 -7 64 -21t50 -45q1 -17 -19 -31t-53 -14l-225 6l-177 -6q-31 0 -53 11t-20 30q0 33 63 49q37 12 51 32t20 105
q6 86 5 455q0 29 -21 29l-333 6q-18 0 -19 -23v-172l6 -307q0 -45 14 -71t27 -34q14 -8 61 -23t48 -44q0 -15 -18 -29t-52 -14l-217 6l-190 -6q-29 0 -49 11t-21 30q0 33 59 49q40 14 58 34t23 108q5 89 5 440z" />
    <glyph glyph-name=".notdef" horiz-adv-x="1024" 
d="M102 1239v-1044l349 522zM164 102h696l-348 523zM573 717l349 -522v1044zM512 809l348 522h-696zM0 0v1434h1024v-1434h-1024z" />
    <glyph glyph-name=".null" horiz-adv-x="0" 
 />
    <glyph glyph-name="nonmarkingreturn" horiz-adv-x="681" 
 />
    <glyph glyph-name="space" unicode=" " horiz-adv-x="421" 
 />
    <glyph glyph-name="exclam" unicode="!" horiz-adv-x="735" 
d="M408 303q64 0 110 -51q45 -51 45 -116q0 -64 -45 -112t-114 -48q-68 0 -116 48t-48 120t52 115q52 44 116 44zM408 1214q64 0 105 -40q62 -62 64 -161q1 -99 -104 -499q-10 -34 -32 -58t-42 -24q-43 0 -61 68q-96 358 -96 516q0 76 51 137t115 61z" />
    <glyph glyph-name="quotedbl" unicode="&#x22;" horiz-adv-x="751" 
d="M627 1391q51 0 51 -103q0 -68 -29 -198t-53 -181q-24 -53 -60 -53q-38 0 -47 79t-27 191t-24 143q-4 32 24 52t83 45t82 25zM276 1380q45 0 46 -94q0 -51 -26 -196t-46 -181q-37 -61 -68 -61q-37 0 -49 72q-6 66 -28 190q-21 124 -25 149q-4 26 20 50q110 71 176 71z" />
    <glyph glyph-name="numbersign" unicode="#" horiz-adv-x="1083" 
d="M686 739q4 12 -8 13l-211 -7q-16 0 -21 -20l-45 -182q0 -14 11 -15l213 4q12 6 14 13zM473 1227q0 30 54 30t51 -20l-78 -289q-4 -14 12 -14l195 6q16 0 20 10l74 283q9 24 55 24t45 -20l-76 -283q-2 -4 1 -9t5 -5l154 4q14 0 20 -20q7 -20 -2 -62t-27 -74t-26 -32
l-151 -4q-10 -6 -13 -15l-47 -190q-4 -14 13 -15l157 3q9 1 15 -15t4 -28t-18 -66t-19 -62q-4 -9 -27 -20l-159 -4q-10 0 -15 -14l-74 -318q-16 -24 -64 -24t-42 18l78 322q4 16 -10 16l-209 -4q-3 0 -9 -4t-6 -6l-75 -316q-2 -12 -38 -26t-51 -4q-16 10 -14 20l78 322
q4 10 -10 10l-154 -2q-3 0 -10 11q-6 11 -6 24t20 84t47 71l146 4q12 0 16 13l47 192q4 14 -10 14l-150 -4q-8 0 -18 7q-10 6 -12 16t4 67q29 98 45 99l168 4q4 0 12 6t10 12z" />
    <glyph glyph-name="dollar" unicode="$" horiz-adv-x="1071" 
d="M683 143q52 45 53 111t-30 103q-32 38 -116 81q-2 2 -9 -1t-8 -7l-30 -326q0 -18 10 -18q78 12 130 57zM352 944q0 -96 150 -172q4 -2 7 1t3 9l35 324q0 14 -15 14q-88 -8 -134 -54t-46 -122zM125 870q0 154 129 241t293 93q10 0 14 17l14 139q0 14 24 14t60 -12
q20 -10 21 -16l-14 -127q0 -14 14 -17q88 -10 197 -43q18 -2 41 -57q58 -227 -19 -225q-39 0 -65 57q-53 131 -172 172q-10 0 -11 -8l-41 -350q0 -20 15 -27q80 -33 130 -59q149 -76 197 -176q29 -60 29 -154t-71 -174q-127 -142 -365 -156q-12 0 -17 -14l-18 -172
q-30 -30 -66 -21q-20 0 -36 17l16 178q2 6 -3 10t-42 6t-117 20t-112 27q-33 8 -48 51q-34 186 -34 202t11 38q11 20 25 21q37 0 68 -48q59 -90 96 -133q59 -68 158 -92q8 -4 12 14l39 365q0 16 -14 25q-86 40 -133 66q-141 79 -180 174q-25 58 -25 134z" />
    <glyph glyph-name="percent" unicode="%" horiz-adv-x="1658" 
d="M1223 588q-102 0 -103 -250q0 -100 34 -188t106 -87q98 0 98 242q0 95 -34 189t-101 94zM1247 678q147 0 235 -104t89 -246q0 -144 -89 -247t-243 -103t-241 98t-87 246q1 148 95 252t241 104zM1307 1178q-729 -1044 -861 -1229q-10 -14 -38 -3t-43 27q-11 9 -13 27t6 27
q528 750 828 1190q16 29 34 29t44 -14q25 -13 34 -28q15 -14 9 -26zM414 1130q-60 0 -89 -74q-28 -74 -28 -156q0 -167 55 -248q33 -48 84 -48q98 2 99 244q-1 114 -31 198t-90 84zM88 866q0 152 94 254t244 101q150 1 236 -103t86 -246t-90 -247q-90 -107 -242 -107
t-240 98t-88 250z" />
    <glyph glyph-name="ampersand" unicode="&#x26;" horiz-adv-x="1755" 
d="M651 160q137 0 211 104q4 4 3 18t-7 23q-74 98 -191 201q-118 102 -171 129q-29 12 -39 2q-35 -29 -66 -90t-31 -111t27 -110q27 -59 70 -95q90 -71 194 -71zM590 1171q-45 0 -79 -41t-34 -101q0 -61 55 -121t123 -91q18 -8 37 0q55 35 56 154q0 68 -41 134t-117 66z
M942 1006q0 -92 -41 -136q-41 -45 -141 -104q-14 -10 4 -25q59 -37 152 -115t145 -137q4 -2 13 -2t11 2q29 31 84 113l56 84q29 41 28 70q0 33 -73 49q-56 14 -58 54q0 20 22 31t46 11q188 -1 283 13t118 14q72 0 72 -42t-71 -59t-109 -50t-72 -68q-33 -34 -57 -56
t-104 -117q-81 -95 -105 -122q-2 -4 -2 -14t9 -22q9 -11 40 -45t51 -59q104 -117 221 -116q63 0 129 37q19 10 37 2t19 -25q0 -45 -41 -90q-127 -123 -314 -123q-82 0 -155 25q-57 25 -86 67q-68 106 -97 135q-17 9 -22 4q-102 -111 -198 -170t-222 -59q-182 0 -295 108
t-113 257q0 114 68 198t213 166q10 10 0 21q-53 43 -84 109t-31 128q0 147 131 246q91 72 225 69t224 -84t90 -173z" />
    <glyph glyph-name="quotesingle" unicode="'" horiz-adv-x="399" 
d="M188 850q-20 0 -36 22t-26 102t-26 168t-19 104t4 34t25 32t75 40q56 26 89 28q48 0 48 -82t-24 -208t-42 -168q-39 -72 -68 -72z" />
    <glyph glyph-name="parenleft" unicode="(" horiz-adv-x="782" 
d="M350 500q0 -348 205 -688q86 -135 86 -155q0 -21 -32 -43q-31 -22 -69 -22t-111 92t-132 228q-123 276 -123 564t89 507t204 358q80 96 127 97q18 0 43 -22t25 -38t-23 -47q-289 -346 -289 -831z" />
    <glyph glyph-name="parenright" unicode=")" horiz-adv-x="782" 
d="M434 530q0 344 -207 689q-84 139 -84 157t32 40t69 22q38 0 110 -92t133 -228q123 -283 123 -567q0 -283 -89 -503t-204 -359q-84 -96 -135 -97q-20 0 -40 20t-21 38q0 20 22 49q291 348 291 831z" />
    <glyph glyph-name="asterisk" unicode="*" horiz-adv-x="778" 
d="M39 1092q7 50 97 27q44 -11 161 -60q4 -2 10 5t6 13q-10 131 -6 191q10 75 47 75q46 0 64 -98t25 -130q6 -31 14 -33t14 1q100 70 170 100t70 -24q0 -31 -33 -67t-150 -119q-4 -2 -3 -10t5 -11q119 -59 169 -97q51 -38 51 -78q0 -39 -78 -19t-178 69q-8 4 -16 -2t-9 -12
q4 -77 5 -139q2 -105 -48 -115q-37 0 -57 64q-27 109 -37 190q-2 6 -11 10t-14 0q-104 -67 -180 -91t-76 22q-2 27 31 59q8 8 156 111q6 4 4 13t-6 13q-111 55 -154 86t-43 56z" />
    <glyph glyph-name="plus" unicode="+" horiz-adv-x="1323" 
d="M624 -57q-40 0 -40 45v440q0 10 -12 17t-21 8l-399 2q-53 0 -54 45q0 30 16 62t33 32l420 4q4 0 11 7q6 7 6 11v424q0 18 43 32t67 15q24 0 38 -13t16 -34l-5 -426q-1 -8 7 -13t12 -5h422q41 0 41 -40q-1 -40 -15 -70t-32 -31l-420 -4q-14 0 -15 -17l-2 -436
q0 -29 -39 -42q-38 -13 -78 -13z" />
    <glyph glyph-name="comma" unicode="," horiz-adv-x="555" 
d="M242 332q102 0 161 -78t59 -167t-39 -156q-63 -105 -197 -160q-80 -33 -118 -9q-20 12 -20 38t58 64t88 70t30 70q0 57 -94 94q-76 23 -76 105q0 53 47 91q48 38 101 38z" />
    <glyph glyph-name="hyphen" unicode="-" horiz-adv-x="714" 
d="M94 404q0 36 25 77q24 25 28 25q287 31 433 41q14 1 27 -17t14 -28q-1 -68 -25 -104t-43 -36q-78 -4 -224 -15t-178 -13t-45 16q-12 18 -12 54z" />
    <glyph glyph-name="period" unicode="." horiz-adv-x="555" 
d="M277 -31q-71 1 -117 53t-47 126q0 74 53 124q54 50 118 50t113 -54t49 -127q0 -72 -49 -122t-120 -50z" />
    <glyph glyph-name="slash" unicode="/" horiz-adv-x="886" 
d="M686 1362q27 0 88 -21q8 -2 16 -16t3 -27q-227 -584 -560 -1413q-12 -39 -48 -41t-69 12t-28 40q53 138 249 636t304 779q27 51 45 51z" />
    <glyph glyph-name="zero" unicode="0" horiz-adv-x="1071" 
d="M354 650q0 -272 58 -425q58 -152 149 -151q68 0 113 86q51 113 51 430q0 86 -10 173q-42 363 -194 363q-58 0 -99 -77q-68 -127 -68 -399zM554 1221q122 -1 215 -59q156 -98 214 -347q23 -99 23 -235t-45 -275t-155 -234t-252 -95q-358 -1 -457 410q-51 212 9 448
t232 334q94 54 216 53z" />
    <glyph glyph-name="one" unicode="1" horiz-adv-x="1071" 
d="M236 29q0 39 70 57t89 40q18 22 25 95q12 225 12 445t-4 299q-2 12 -13 26q-11 15 -23 17t-37 5q-91 10 -91 38q0 43 47 59q259 72 283 83t49 20t31 11t18 -10t12 -20t-2 -71q-4 -63 -4 -255l2 -596q2 -106 20 -134t84 -44t66 -55q0 -15 -18 -29t-51 -14l-195 4l-293 -12
q-33 0 -55 12t-22 29z" />
    <glyph glyph-name="two" unicode="2" horiz-adv-x="1071" 
d="M141 0q-29 0 -48 13t-20 25t7 32t22 30q217 174 363 344q150 166 149 349q0 105 -61 167t-155 62t-214 -102q-33 -33 -49 -33t-30 13q-13 13 -13 33t31 68q170 225 387 226q162 -1 267 -103t105 -262t-163 -330q-193 -193 -303 -286q-8 -8 6 -23q29 -16 194 -16
q166 0 200 10q34 9 90 67t73 58t31 -28t2 -48q-33 -63 -64 -145t-35 -107q-4 -20 -32 -20l-555 6h-185z" />
    <glyph glyph-name="three" unicode="3" horiz-adv-x="1071" 
d="M542 1227q134 0 226 -85t92 -190q0 -76 -50 -135t-146 -121q-4 -2 0 -8t10 -8q150 -35 226 -109t75 -206q0 -133 -96 -253t-250 -188q-153 -68 -263 -67q-110 0 -191 37t-81 90q0 20 40 65t56 49q6 4 24 2t28 -8q150 -115 242 -115t155 75t63 202t-77 199q-78 72 -189 71
q-8 0 -123 -16q-8 0 -19 11t-11 29q1 18 31 50t53 37q153 55 205 115t52 126t-47 120q-48 54 -128 55q-111 0 -220 -105q-41 -41 -61 -41t-32 25q-11 25 1 51q55 111 163 179t242 67z" />
    <glyph glyph-name="four" unicode="4" horiz-adv-x="1071" 
d="M571 340q-213 0 -499 -8q-14 0 -31 15q-16 15 -16 26q0 37 47 94l637 827q20 33 68 33t73 -4q10 -3 14 -23t-8 -30l-620 -774q-4 -6 1 -16t11 -11q102 -8 323 -4q16 0 17 20l6 297q0 29 22 43t100 40t96 26q17 0 33 -13q15 -14 15 -22l-2 -360q0 -8 9 -18t14 -11l172 2
q8 0 16 -12t8 -31q0 -20 -11 -54t-30 -34l-159 2q-5 0 -11 -7t-6 -11q-11 -164 24 -205q15 -17 73 -35t59 -49q0 -43 -68 -43l-260 10l-209 -6q-72 0 -71 41q0 31 57 47q80 18 97 40q18 22 24 94t4 98t-19 26z" />
    <glyph glyph-name="five" unicode="5" horiz-adv-x="1071" 
d="M965 350q0 -184 -185 -323q-102 -78 -253 -124t-277 -46q-29 0 -59 13q-29 12 -29 34t18 36t35 17q207 27 344 113t137 212t-133 183q-117 55 -389 102q-14 2 -31 34q-16 31 -16 69t47 191t78 222q6 14 31 38t55 34t224 41q192 31 302 31q8 -1 18 -17t9 -24
q0 -61 -50 -132t-91 -79q-68 -6 -218 -11t-182 -10q-35 -10 -51 -56t-17 -55t7 -25t24 -19q313 -66 426 -121q113 -54 169 -142t57 -186z" />
    <glyph glyph-name="six" unicode="6" horiz-adv-x="1071" 
d="M700 762q156 0 236 -106t80 -234q0 -215 -205 -359q-133 -88 -281 -88q-227 -1 -346 135q-118 136 -118 346t153 418q154 207 377 330t360 123q28 0 48 -15q20 -14 20 -36t-55 -45q-253 -97 -439 -323t-186 -457q0 -165 76 -261t186 -96q72 0 121 58t49 166t-55 186
t-162 78q-27 0 -108 -33q-12 -4 -23 6q-10 10 -10 23q0 55 26 75q30 27 110 68t146 41z" />
    <glyph glyph-name="seven" unicode="7" horiz-adv-x="1071" 
d="M68 797q-27 -1 -27 27t25 87q41 113 65 240q3 15 21 31t28 14q66 -8 363 -8h286q55 2 144 2q10 0 34 -24t9 -42q-68 -98 -346 -659t-292 -585q-26 -48 -98 -4q-32 20 -32 42t39 96q334 600 485 908q10 20 -19 29q-27 9 -213 9t-266 -8q-57 -8 -122 -110q-33 -45 -84 -45z
" />
    <glyph glyph-name="eight" unicode="8" horiz-adv-x="1071" 
d="M547 74q76 0 123 45t47 123t-73 146t-179 116q-18 8 -50 -10t-56 -67q-24 -50 -23 -101q0 -100 68 -176t143 -76zM529 1135q-81 -1 -115 -51t-35 -113q0 -150 215 -244q12 -4 30 -5t23 3q74 43 74 168q0 88 -55 165q-56 77 -137 77zM503 -23q-179 -1 -287 95t-108 208
t85 177q91 68 141 96q14 6 -6 27q-88 70 -133 138t-45 167q0 149 122 245t282 96q161 0 262 -89q102 -90 102 -221t-183 -242q-16 -12 0 -25q229 -143 230 -325q0 -76 -42 -143t-102 -109q-139 -95 -318 -95z" />
    <glyph glyph-name="nine" unicode="9" horiz-adv-x="1071" 
d="M551 1227q205 0 328 -153q123 -152 123 -362t-142 -426q-141 -216 -383 -343q-195 -106 -301 -107q-22 0 -44 10t-21 33q0 23 49 49q287 146 425 358t138 435q0 132 -48 254q-26 67 -77 107t-123 40t-118 -72t-46 -155q0 -133 74 -215t162 -82q43 0 90 27q6 2 14 -5
t8 -25t-12 -50q0 -12 -45 -47q-45 -29 -105 -52t-98 -22q-145 0 -240 98t-96 258q1 102 63 212t179 172t246 63z" />
    <glyph glyph-name="colon" unicode=":" horiz-adv-x="624" 
d="M154 706q0 68 50 116t114 48t109 -51q44 -51 44 -115t-48 -112q-49 -49 -113 -49t-110 47t-46 116zM322 299q64 0 105 -49q40 -49 40 -114q0 -64 -44 -112t-113 -48q-68 0 -112 46q-44 48 -44 118t52 115q52 44 116 44z" />
    <glyph glyph-name="semicolon" unicode=";" horiz-adv-x="624" 
d="M291 315q92 -1 147 -75q56 -74 56 -168t-62 -171t-129 -109q-66 -32 -95 -32q-30 0 -50 14t-21 25q0 39 53 66q115 66 115 139q0 37 -19 53t-69 35q-70 20 -70 96q1 51 47 89t97 38zM152 709q0 73 51 117t115 44t109 -51q44 -51 44 -115t-45 -113q-44 -50 -112 -50
t-115 47t-47 121z" />
    <glyph glyph-name="less" unicode="&#x3c;" horiz-adv-x="1323" 
d="M207 496q0 20 30 49t60 47l719 393q4 4 20 3t27 -7q33 -33 38 -72t-11 -47l-654 -348q-14 -4 -2 -12l672 -352q6 0 8 -12t0 -19q-12 -57 -49 -90q-16 -16 -45 -9q-156 79 -394 212q-237 133 -328 183t-91 81z" />
    <glyph glyph-name="equal" unicode="=" horiz-adv-x="1323" 
d="M98 281q0 23 12 53t21 31l1067 4q10 0 20 -25q10 -26 9 -46q1 -20 -13 -44t-24 -25l-1049 -4q-43 0 -43 56zM1182 649h-1035q-25 0 -44 22t1 69q19 47 33 46l1055 7q31 0 31 -36q-1 -36 -15 -72t-26 -36z" />
    <glyph glyph-name="greater" unicode="&#x3e;" horiz-adv-x="1323" 
d="M1116 512q0 -20 -29 -49t-61 -47l-719 -396q-2 -2 -19 -1t-26 8q-33 31 -38 72t12 46l655 349q8 4 0 12l-674 352q-5 0 -7 18q-1 7 1 15q12 53 49 88q4 6 20 9q16 2 44 -12t696 -378q96 -53 96 -86z" />
    <glyph glyph-name="question" unicode="?" horiz-adv-x="884" 
d="M454 301q62 0 110 -52q46 -52 46 -116q0 -65 -46 -111t-114 -46t-115 46q-48 46 -48 118t52 117q53 44 115 44zM373 1221q154 0 284 -150q109 -115 109 -262q0 -68 -30 -123t-64 -74q-59 -33 -160 -73q-33 -16 -47 -97q-5 -18 -23 -30t-32 -13q-37 0 -72 81t-35 126t9 71
q10 27 62 69t149 84t98 100q0 34 -33 58t-69 24q-37 0 -103 -22t-94 -22t-63 30q-36 30 -36 80t44 97q45 46 106 46z" />
    <glyph glyph-name="at" unicode="@" horiz-adv-x="1806" 
d="M1206 850q70 0 117 -39q18 -13 11 -35q-127 -391 -160 -536q-8 -37 11 -64t52 -24q129 4 221 131t92 292q0 231 -155 367q-156 135 -391 135q-305 0 -503 -218t-198 -521q0 -252 167 -428t470 -176q184 0 387 110q11 8 31 2t20 -22q0 -39 -43 -76q-186 -145 -477 -145
t-509 175q-105 85 -170 224q-65 138 -65 324t84 357q152 313 497 445q153 59 300 60q322 0 510 -173t189 -433q0 -224 -171 -394t-401 -170q-158 0 -161 82q0 43 4 58l32 114q2 8 -5 10q-7 1 -13 -3q-84 -103 -201 -183t-182 -80q-35 0 -68 39q-34 39 -32 93t46 158t132 215
q88 110 188 189q100 78 160 78t90 -22q15 -6 25 4l24 55q20 25 45 25zM970 649q-67 0 -128 -69q-47 -48 -83 -136t-36 -158t35 -69q53 -1 147 101t168 270q8 18 -6 26q-30 35 -97 35z" />
    <glyph glyph-name="A" unicode="A" horiz-adv-x="1427" 
d="M632 524q108 0 124 1t21 11t-5 46q-10 37 -62 173t-69 167q-12 18 -27 0q-63 -141 -135 -371q-2 -8 4 -16q6 -7 23 -9t126 -2zM-6 31q0 35 66 59t101 50q34 26 68 102q94 197 338 848q8 16 8 38t19 35q104 70 127 88q23 23 41 23t27 -8q11 -9 89 -225t207 -529t147 -344
t49 -45t87 -36t55 -67q0 -31 -65 -30l-311 10l-199 -8q-70 0 -70 35q0 41 58 62q100 37 69 114q-25 84 -61 166q-2 8 -18 18t-42 13t-162 3t-165 -5t-41 -31q-49 -133 -49 -191t96 -88q53 -20 53 -47q6 -19 -24 -33t-54 -14l-145 6l-225 -10q-74 0 -74 41z" />
    <glyph glyph-name="B" unicode="B" horiz-adv-x="1302" 
d="M897 350q0 131 -81 198t-189 66q-61 0 -82 -12q-19 -18 -25 -51t-1 -168t13 -179t58 -82t100 -38q51 0 108 43q56 43 68 76q31 77 31 147zM846 912q0 108 -68 172t-178 65q-41 0 -57 -8t-19 -33q-14 -324 0 -371q13 -54 174 -18q63 14 82 29q66 56 66 164zM1112 948
q0 -100 -59 -166q-7 -8 -51 -34t-66 -37q-4 -3 -3 -15t9 -14q110 -37 184 -117q74 -81 74 -203t-78 -206t-190 -127t-289 -43l-328 12q-41 2 -124 -1t-91 -3q-72 0 -71 39q1 45 93 64q54 11 82 34t36 105t8 404t-5 384q-5 63 -28 85t-71 29t-72 23q-23 17 -23 33t26 28
t52 13h164l385 14q224 0 330 -83t106 -218z" />
    <glyph glyph-name="C" unicode="C" horiz-adv-x="1437" 
d="M1254 852q-22 0 -44 61q-23 74 -47 114q-25 40 -78 75q-109 74 -229 74q-72 0 -150 -36q-171 -78 -237 -278q-37 -109 -37 -214q0 -104 33 -210t88 -181t153 -127t191 -52q92 0 199 55q41 23 100 121t86 98q41 0 41 -78q0 -8 -19 -90q-20 -82 -22 -95t-13 -29t-16 -19
q-57 -27 -176 -53t-213 -25q-180 0 -338 55t-258 168q-158 172 -157 422q0 340 280 535q78 53 207 92q130 39 262 39t264 -37t138 -37q8 0 21 -13t13 -24l17 -223q-1 -40 -19 -64t-40 -24z" />
    <glyph glyph-name="D" unicode="D" horiz-adv-x="1550" 
d="M680 1147q-78 0 -111 -19q-6 -2 -18 -20t-12 -27q-10 -160 -11 -329v-144q0 -252 12 -342t58 -133q23 -15 71 -33q49 -18 79 -18t111 33q277 113 278 493q0 260 -146 404q-65 66 -149 100t-162 35zM1446 623q0 -217 -118 -367q-92 -117 -198 -174q-184 -98 -456 -98
l-361 16q-141 0 -200 -5t-70 4q-10 9 -10 23t22 39q23 25 43 31t35 9q13 3 19 5l18 6t16 7q4 4 19 12t21 34q8 27 16 83t8 412q0 354 -6 386t-12 42t-32 25t-88 27t-61 54q0 41 90 41l150 -2l399 14q348 0 547 -170q209 -174 209 -454z" />
    <glyph glyph-name="E" unicode="E" horiz-adv-x="1224" 
d="M690 1233q213 0 273 10q31 2 42 -15q11 -18 21 -100t10 -116q0 -66 -41 -66q-38 -1 -77 90q-43 88 -80 88l-275 -6q-22 0 -27 -62t-6 -317q0 -51 18 -54q55 -9 131 -4q77 5 109 25t52 72q20 51 51 51q47 0 41 -86q-4 -49 -4 -115t3 -114t-11 -68t-31 -20q-33 0 -58 59
q-16 41 -29 55t-44 17q-113 8 -203 8q-8 1 -16 -21q-9 -22 -9 -69t9 -227q6 -80 21 -97q14 -17 76 -33t146 -18q84 0 140 26t116 114q8 10 30 43t34 40t24 7t27 -22q36 -52 -63 -279q-4 -15 -28 -27t-34 -12t-130 5t-363 5l-435 -8q-74 0 -73 28q0 45 61 64q66 16 100 38
t43 38q19 38 19 428t-8 463q-8 45 -34 65t-87 36t-62 52q1 18 21 28t43 11l356 -10h211z" />
    <glyph glyph-name="F" unicode="F" horiz-adv-x="1187" 
d="M551 549q-23 1 -23 -147t3 -194t30 -73t99 -45t71 -57q0 -15 -19 -29t-48 -14l-299 10l-242 -8q-61 0 -62 39q0 39 66 55q107 27 115 120q8 92 8 424t-4 394t-28 85q-24 22 -88 39t-62 54q0 16 24 27q25 10 49 10l295 -6h295q249 0 309 12h11q14 0 25 -13t11 -28v-196
q0 -39 -16 -62t-35 -22q-33 0 -51 67q-33 127 -117 131q-57 4 -297 4q-31 0 -35 -50t-8 -189q-2 -139 0 -183t27 -42q215 0 251 23q17 11 24 23q6 12 18 42q27 67 61 67q39 0 39 -67l-8 -146l8 -139q0 -27 -13 -47t-34 -21q-25 -1 -57 63t-56 77l-24 6q-35 6 -213 6z" />
    <glyph glyph-name="G" unicode="G" horiz-adv-x="1568" 
d="M1479 571q1 -31 -49 -49t-66 -34t-17 -26q-8 -72 -8 -166q1 -94 7 -139q6 -43 6 -51t-12 -22t-17 -16q-96 -49 -164 -66q-145 -41 -276 -41q-438 0 -645 262q-127 158 -127 398q0 307 256 497q90 70 230 113t265 43t305 -47q43 -12 107 -17q31 -4 43 -45q45 -188 45 -226
q0 -37 -13 -61t-34 -24q-31 0 -62 57q-57 109 -100 148q-123 111 -293 110q-106 0 -190 -45q-147 -79 -208 -289q-26 -91 -26 -192q0 -248 134 -413t335 -164q78 0 119 32q39 28 39 151t-4 167q-5 44 -23 61q-18 18 -69 31q-92 20 -93 63q0 15 22 29t58 14l183 -10l272 10
q70 0 70 -43z" />
    <glyph glyph-name="H" unicode="H" horiz-adv-x="1648" 
d="M664 1196q0 -31 -68 -53q-66 -23 -66 -109v-289q0 -16 10 -30t21 -15h529q6 0 15 14t9 23q0 277 -6 315t-28 54t-92 36t-70 56q0 16 21 29q22 12 52 12l228 -6l286 6q63 0 64 -41q-1 -37 -63 -50t-80 -35t-25 -86q-6 -64 -6 -355t8 -447q6 -71 29 -93q22 -22 90 -38
t67 -57q0 -43 -71 -43l-201 6l-311 -8q-76 0 -76 43q0 31 68 53t85 49t25 74t10 146q4 218 -28 218q-436 0 -535 -6q-10 -2 -17 -18t-8 -27q0 -252 6 -311t28 -84t100 -43q20 -6 39 -22t20 -33q0 -39 -76 -39l-266 8l-246 -10q-33 0 -53 12t-21 29q0 31 70 57t90 50
q21 26 25 104t4 415t-8 389t-35 71t-98 38q-45 12 -46 47q0 14 25 26t53 13l281 -8l172 4q70 0 70 -41z" />
    <glyph glyph-name="I" unicode="I" horiz-adv-x="780" 
d="M250 522v410q0 131 -20 166t-105 55q-53 12 -53 49q0 18 22 29q23 10 45 10l240 -8l268 6q23 0 41 -11t19 -28q0 -31 -63 -46t-82 -42q-19 -28 -25 -128t-7 -402l5 -340q3 -76 27 -108t94 -49t69 -54q0 -17 -24 -27t-46 -10l-272 6l-248 -10q-66 0 -65 37q0 33 79 61
q43 15 64 36q21 22 29 79t8 319z" />
    <glyph glyph-name="J" unicode="J" horiz-adv-x="759" 
d="M702 1204q0 -35 -59 -59q-61 -20 -83 -44t-21 -89q0 -221 -5 -517t-6 -298q0 -168 -78 -297q-121 -199 -321 -278q-77 -30 -135 -30t-106 30t-48 69t84 123q24 24 48 24t67 -24q102 -66 127 -66q56 0 72 74t19 286t-5 893q-2 70 -27 100t-98 44t-76 51q0 45 80 45l279 -8
l231 6q61 0 61 -35z" />
    <glyph glyph-name="K" unicode="K" horiz-adv-x="1511" 
d="M55 35q0 33 68 51q69 18 91 42t28 104t6 434q0 356 -4 383t-11 41q-15 34 -90 55q-75 20 -75 61q0 14 18 26t49 11l221 -10l267 6q29 0 46 -12t17 -27q0 -33 -59 -52q-59 -18 -79 -38t-22 -49l-4 -377q0 -16 23 -16t76 44t185 178t183 197q29 35 -49 52q-63 16 -63 57
q0 14 17 26t44 11h104l299 12q78 0 78 -41q0 -12 -19 -29t-50 -24q-129 -20 -252 -123q-143 -115 -307 -272q-10 -12 0 -33q170 -225 434 -510q66 -70 106 -88t102 -43t62 -55q0 -15 -18 -29t-54 -14l-428 16h-98q-25 0 -47 14t-23 41q0 27 68 49q53 14 23 56
q-82 109 -334 399q-27 31 -44 31t-18 -39q0 -349 8 -379q13 -46 56 -60q14 -5 47 -16q76 -23 76 -57q1 -17 -19 -31t-51 -14l-215 6l-289 -10q-80 0 -80 45z" />
    <glyph glyph-name="L" unicode="L" horiz-adv-x="1189" 
d="M14 35q0 39 64 51q118 22 142 72q9 18 14 82q6 64 6 418t-3 392t-23 56t-80 42q-58 24 -58 52q0 39 63 39l254 -6l262 6q66 0 66 -40t-70 -54q-69 -14 -93 -39t-28 -70q-10 -119 -10 -425t10 -423q2 -22 34 -48q93 -74 286 -34q49 12 106 72t97 133q25 53 47 54
q23 0 37 -25t10 -51q-27 -131 -68 -246q-20 -51 -90 -51l-553 8l-346 -10q-32 0 -54 13t-22 32z" />
    <glyph glyph-name="M" unicode="M" horiz-adv-x="1851" 
d="M129 1190q0 18 22 34t48 17l354 -8q6 0 21 -14q16 -15 18 -23t62 -146t171 -373q112 -235 127 -240q16 -4 29 24q12 27 120 249q109 222 139 292t73 192q4 10 17 24t22 13l352 12q20 0 44 -13t24 -32q0 -32 -77 -52t-101 -38t-23 -57q0 -137 20 -766q4 -111 31 -145
q26 -34 98 -52t72 -55q0 -17 -23 -31t-53 -14l-325 12l-179 -8q-31 0 -48 17t-17 34q1 23 61 43t79 50t22 114q0 421 4 643q0 14 -17 4q-25 -31 -171 -370t-193 -464q-29 -78 -92 -77q-29 0 -58 69q-16 47 -52 143t-64 176q-28 78 -115 274q-88 196 -98 220q-13 20 -19 14
t-6 -12q-29 -381 -29 -612q-1 -88 19 -114t92 -52t74 -57q0 -15 -20 -29t-52 -14l-162 8l-235 -12q-31 0 -53 12t-21 33q0 31 71 51q72 20 104 57t45 120t42 370t31 363t-24 104q-26 27 -104 46t-77 46z" />
    <glyph glyph-name="N" unicode="N" horiz-adv-x="1568" 
d="M47 31q-1 33 71 57t99 52q27 30 34 119t17 374t10 338t-49 102q-51 59 -127 73t-77 68q0 31 49 31l352 -14q10 0 28 -9t21 -16q37 -55 349 -390t358 -370q4 -4 12 0t13 27t7 173q5 363 -26 423q-27 47 -131 70q-33 8 -49 25q-31 33 2 58q18 13 51 13l129 -2l264 10
q70 0 70 -43q0 -26 -68 -54t-90 -48q-20 -20 -23 -47q-20 -430 -20 -668l8 -291q0 -133 -51 -133q-68 0 -131 74q-160 195 -225 266q-100 117 -512 565q-6 6 -14 0t-7 -16q-6 -136 -6 -240t5 -250t27 -190q23 -45 97 -72q74 -28 74 -66t-68 -38l-198 8l-199 -10
q-76 0 -76 41z" />
    <glyph glyph-name="O" unicode="O" horiz-adv-x="1624" 
d="M774 1174q-64 0 -124 -34t-89 -63q-131 -143 -131 -430q0 -231 116 -408t318 -178q54 0 110 26t83 52q131 123 131 467q0 296 -184 474q-98 94 -230 94zM811 1274q305 0 503 -188t197 -468q0 -180 -93 -332t-248 -237q-155 -86 -357 -86q-307 -1 -505 189t-198 455
t187 454q97 97 235 155t279 58z" />
    <glyph glyph-name="P" unicode="P" horiz-adv-x="1243" 
d="M606 512q0 39 58 39q65 8 109 49q85 79 85 228t-59 229q-23 29 -79 59t-106 29q-50 1 -64 -15q-15 -16 -15 -30q-8 -135 -9 -438l2 -334v-62q0 -92 26 -125t102 -52t75 -56q0 -15 -20 -27t-52 -12l-221 6l-317 -12q-33 0 -55 11t-23 30q0 35 71 56t90 46t27 84
q19 203 19 487t-6 334t-31 72t-68 33q-43 10 -65 27t-21 32q0 41 62 41l231 -8l312 10q254 0 376 -127q43 -45 75 -121t32 -149q0 -180 -129 -297q-119 -104 -273 -105q-61 0 -100 26t-39 42z" />
    <glyph glyph-name="Q" unicode="Q" horiz-adv-x="1624" 
d="M764 1167q-113 0 -207 -106q-127 -137 -127 -395t125 -428t319 -170q106 0 175 69q139 139 139 449q0 258 -118 420t-306 161zM811 1274q305 0 503 -185t198 -455q-1 -349 -282 -541q-69 -46 -116 -66q-10 -1 -11 -15t7 -22q350 -342 594 -342q82 0 120 10t42 -20
q0 -43 -54 -82q-88 -68 -258 -68q-225 0 -485 180q-78 53 -225 167t-228 149q-506 170 -505 626q0 162 70 297q71 135 200 228q194 139 430 139z" />
    <glyph glyph-name="R" unicode="R" horiz-adv-x="1388" 
d="M637 639q39 0 90 23t72 38q18 16 40 69q21 53 21 114q0 106 -67 184q-68 78 -187 78q-78 0 -80 -53l4 -402q0 -25 17 -33q51 -18 90 -18zM1137 926q0 -142 -95 -226q-23 -18 -110 -65q-12 -8 2 -49q98 -190 235 -359q92 -113 211 -153q41 -12 41 -42t-38 -45t-80 -16
q-131 0 -233 38t-200 167q-47 61 -200 301q-43 66 -119 66q-20 0 -21 -31q0 -208 6 -282t27 -92q20 -18 90 -46q59 -27 60 -53q0 -19 -25 -33t-51 -14l-262 8l-217 -8q-35 0 -56 12q-20 12 -20 29q0 35 66 55t85 44q21 24 23 98t2 392q0 320 -10 427q-8 72 -105 90
q-27 6 -44 21t-17 30q0 47 86 47l172 -2l348 10q217 0 318 -76q131 -101 131 -243z" />
    <glyph glyph-name="S" unicode="S" horiz-adv-x="1073" 
d="M866 911q-25 0 -43 50q-33 98 -103 159q-71 62 -151 62t-132 -54t-52 -124t46 -124t153 -112q199 -104 292 -198t93 -230q0 -184 -178 -297q-57 -35 -143 -57t-156 -23q-197 0 -316 62q-35 18 -47 43q-39 80 -39 215q0 31 14 57t33 25q31 0 70 -70q55 -113 139 -174
t163 -61t135 43q56 44 56 122q0 45 -11 76t-63 80t-153 106q-176 95 -258 191t-82 233q0 94 52 170t130 121q119 70 281 70q81 0 157 -20t130 -33q8 -1 17 -21t9 -37l13 -162q0 -88 -56 -88z" />
    <glyph glyph-name="T" unicode="T" horiz-adv-x="1441" 
d="M555 1071q0 15 -8 29t-15 14q-237 0 -263 -8q-25 -8 -56 -44t-55 -100t-56 -65q-24 0 -38 24t-14 52q0 29 11 119q9 90 9 130t18 60q18 18 34 18t40 -22q50 -39 128 -42t150 -3h650q147 0 172 24q39 43 53 43t38 -18q23 -18 23 -28t-12 -95q-12 -84 -12 -192
q0 -29 -18 -53t-44 -23q-31 1 -48 77t-46 103q-28 27 -96 35t-230 8q-16 0 -20 -35q-14 -129 -14 -431t5 -370t23 -106q18 -37 36 -47t82 -35q65 -25 65 -51q0 -49 -82 -49l-344 10l-226 -6q-33 0 -55 13t-23 36q0 35 66 53q102 27 134 58t32 118l6 492v307z" />
    <glyph glyph-name="U" unicode="U" horiz-adv-x="1548" 
d="M1530 1200q0 -32 -72 -56t-91 -48t-25 -66q-6 -41 -25 -414q-12 -226 -55 -338t-127 -194q-123 -121 -361 -121q-129 0 -245 43t-175 125q-78 102 -99 221q-22 120 -22 328t-8 348q-4 60 -23 78t-85 38t-66 56q0 43 99 43l268 -10l203 6q37 0 59 -14q46 -29 -1 -64
q-24 -16 -72 -27t-67 -38q-47 -67 -24 -566q12 -229 96 -313q102 -92 242 -92q285 0 324 317q14 98 14 346t-22 289t-126 64q-70 18 -69 57q0 14 21 28q22 13 57 13l174 -6l231 10q72 0 72 -43z" />
    <glyph glyph-name="V" unicode="V" horiz-adv-x="1411" 
d="M676 -43q-45 0 -64 57q-75 222 -220 567q-146 345 -199 459q-19 40 -45 60t-91 44t-65 56q0 16 23 31q24 14 53 14l260 -12l211 2q35 0 57 -14t20 -37q0 -27 -50 -45q-50 -19 -59 -37t2 -66t124 -322t132 -298t30 -6q279 619 253 681q-11 24 -75 44q-66 25 -66 59
q0 41 80 41l154 -2l198 10q33 0 55 -12t21 -31q0 -37 -72 -57t-106 -60q-35 -40 -70 -106q-147 -281 -311 -701q-16 -43 -39 -103t-35 -95t-19 -50t-38 -43t-49 -28z" />
    <glyph glyph-name="W" unicode="W" horiz-adv-x="1992" 
d="M2036 1200q0 -16 -20 -32t-40 -23q-80 -25 -116 -65q-85 -96 -326 -758q-10 -29 -45 -122t-46 -125t-47 -73t-57 -41q-57 0 -96 119q-135 375 -250 651q-4 6 -12 6t-12 -6q-23 -61 -111 -276t-113 -289q-26 -74 -67 -140t-57 -67q-53 0 -76 70q-41 147 -183 506
q-144 359 -172 433t-61 117t-99 65t-67 60q0 14 24 26t46 11l295 -14l198 4q34 0 54 -14t20 -27q0 -43 -59 -54t-75 -37t-3 -71q12 -45 112 -300t132 -322q14 -20 26 -4q8 23 66 168t119 319q18 49 -25 166q-10 27 -42 49t-60 31q-68 18 -68 57q0 16 20 28t48 13l239 -6
l217 6q29 0 49 -12q40 -24 4 -60q-16 -16 -40 -24q-84 -23 -84 -66q0 -66 108 -340t141 -338q10 -23 23 -2q61 135 188 504q39 119 39 165t-96 75q-61 18 -61 55q0 12 17 28t48 15l164 -6l215 10q74 0 74 -43z" />
    <glyph glyph-name="X" unicode="X" horiz-adv-x="1443" 
d="M20 1204q0 19 24 30t52 11l291 -12l217 4q29 0 47 -12t19 -31q0 -31 -49 -47q-33 -13 -39 -29t18 -59t86 -140q64 -97 82 -115t29 -7q215 266 195 307q-9 20 -68 40t-60 42q0 12 23 32t39 19q135 -6 153 -6l264 10q61 0 62 -29q0 -51 -76 -69q-135 -33 -254 -168
q-197 -229 -213 -251t-6 -51q10 -28 128 -201t165 -232q94 -117 215 -146q74 -17 76 -55q0 -23 -25 -36t-53 -13l-309 10l-226 -6q-25 0 -45 13t-20 37t45 46t54 38t-7 49q-16 34 -91 150t-99 146q-6 6 -20 7t-15 -3q-129 -162 -203 -287q-14 -35 -3 -53t62 -43t52 -51
q-1 -17 -19 -33t-47 -16l-156 6l-254 -10q-29 0 -55 12t-24 32q1 37 65 54q152 41 234 133q150 166 290 359q28 34 -264 426q-67 93 -143 119q-28 9 -86 25t-58 54z" />
    <glyph glyph-name="Y" unicode="Y" horiz-adv-x="1333" 
d="M311 39q-1 35 71 54t92 45t24 102t4 235q0 51 -41 123q-57 111 -136 246t-124 194q-55 78 -143 104t-87 60q0 18 24 30t46 11l295 -10l199 6q25 0 43 -12t18 -29q0 -31 -68 -55q-41 -14 -34 -48q8 -34 105 -205q96 -171 124 -212q13 -16 29 -3t92 150t104 197t19 82
q-7 23 -67 41t-60 51q0 41 75 41l146 -4l223 8q25 0 42 -11q17 -10 17 -26t-18 -32t-47 -25q-117 -37 -189 -134q-73 -97 -165 -243t-112 -190t-24 -99t-4 -297q2 -32 35 -54t111 -44q51 -14 51 -51q0 -17 -20 -31t-50 -14l-254 10l-264 -6q-82 0 -82 45z" />
    <glyph glyph-name="Z" unicode="Z" horiz-adv-x="1312" 
d="M135 -10q-55 0 -55 43q0 23 37 73q147 188 379 562t245 422q6 20 -16 24q-147 10 -367 10q-68 0 -184 -168q-41 -57 -96 -57q-27 0 -15 70q0 4 30 85t48 167q1 6 17 24t24 17q131 -16 215 -22t294 -7q210 0 409 10q14 0 29 -18t16 -35q-2 -12 -146 -219
q-76 -113 -263 -423t-234 -394q-4 -8 1 -18t13 -11q129 -16 393 -12q111 2 221 155q48 66 68 83t47 18q64 0 -20 -201q-41 -98 -68 -139t-88 -41l-696 12z" />
    <glyph glyph-name="bracketleft" unicode="[" horiz-adv-x="782" 
d="M676 1337q0 -23 -31 -39t-71 -17t-171 -19q-23 -4 -26 -31q-12 -57 -12 -619t4 -788q2 -51 45 -60q7 0 151 -16q72 -4 72 -53q0 -19 -26 -33q-25 -14 -59 -19t-160 -5t-177 6q-4 0 -15 17t-12 28l13 983l10 639q1 25 11 51t28 27l352 2q26 1 50 -15t24 -39z" />
    <glyph glyph-name="backslash" unicode="\" horiz-adv-x="839" 
d="M88 1328q10 13 51 28t65 0q23 -16 27 -25q494 -1284 549 -1437q2 -6 -9 -20q-23 -29 -87 -30q-33 0 -55 54q-55 141 -264 671t-283 738q-4 8 6 21z" />
    <glyph glyph-name="bracketright" unicode="]" horiz-adv-x="782" 
d="M532 -362h-354q-28 0 -50 14t-22 37t31 40t61 17t175 18q10 2 19 12t11 21q13 57 13 617t-4 786q-4 53 -43 62q-12 0 -97 9q-86 9 -108 23t-23 34q0 20 27 36q28 16 60 20t159 4t176 -4q5 0 17 -18t12 -29l-23 -1622q-1 -21 -11 -49t-26 -28z" />
    <glyph glyph-name="asciicircum" unicode="^" horiz-adv-x="993" 
d="M503 1315q36 0 79 -86l327 -602q23 -41 2 -58q-41 -41 -86 -45q-25 0 -39 23l-284 530q-10 14 -17 6l-282 -544q-10 -18 -33 -19q-41 4 -86 41q-16 27 -4 43q317 584 341 628q46 83 82 83z" />
    <glyph glyph-name="underscore" unicode="_" horiz-adv-x="1024" 
d="M0 -256h1024v-102h-1024v102z" />
    <glyph glyph-name="grave" unicode="`" 
d="M347 1360q36 0 69 -76q63 -135 102 -254q6 -24 -2 -50t-27 -26q-43 0 -75 39q-137 152 -172 205q-20 35 -20 63q0 27 44 63q45 36 81 36z" />
    <glyph glyph-name="a" unicode="a" horiz-adv-x="954" 
d="M426 145q54 0 102 48q14 25 15 59l6 123q0 14 -17 14q-96 -20 -167 -45q-63 -20 -64 -90q0 -45 35 -77q36 -32 90 -32zM850 139q31 0 63 15q5 2 11 -8t6 -25q0 -14 -10 -42t-17 -34q-68 -74 -172 -74q-131 0 -176 125q0 2 -10 5t-13 1q-66 -47 -131 -90q-59 -32 -121 -32
t-136 64q-73 64 -72 185q0 57 32 101t86 57q281 68 340 98q8 3 16 17t9 18v86q0 74 -65 116q-42 28 -90 28t-68 -33q-8 -20 -21 -117q-4 -27 -24 -43q-23 -23 -54 -22q-94 0 -131 18q-6 4 -15 19t-9 24q0 63 170 176q140 90 258 90t215 -100q27 -29 46 -86t19 -86l-8 -363
q0 -43 20 -65t52 -23z" />
    <glyph glyph-name="b" unicode="b" horiz-adv-x="1105" 
d="M760 397q0 139 -74 237t-176 97q-76 1 -99 -39q-9 -16 -15 -44t-5 -210q0 -182 25 -241q10 -33 56 -73t108 -40t100 38t59 121q21 82 21 154zM1024 444q0 -102 -53 -203t-137 -161q-146 -104 -328 -104t-285 42q-17 6 -41 6q-44 1 -43 37l2 156q21 832 4 901
q-4 33 -75 74q-31 20 -31 33q0 5 16 27t31 26q194 54 232 70t65 16q8 0 18 -24t9 -40q-14 -201 -15 -475q0 -10 7 -17t14 -5q115 59 207 59q154 0 268 -100q135 -117 135 -318z" />
    <glyph glyph-name="c" unicode="c" horiz-adv-x="894" 
d="M573 862q91 0 153 -20t85 -44t23 -70t-27 -84t-55 -38t-82 53q-98 94 -187 95q-59 0 -114 -58t-55 -206t84 -238q85 -90 199 -90t208 78q8 6 22 -2q41 -23 -26 -123q-49 -66 -133 -103t-179 -37q-166 0 -284 105q-47 41 -87 125t-40 182q0 258 217 391q137 84 278 84z
" />
    <glyph glyph-name="d" unicode="d" horiz-adv-x="1138" 
d="M537 760q-53 0 -105 -47q-78 -78 -78 -262q0 -121 67 -223t185 -103q20 0 53 13q33 14 47 28t15 45v377q0 57 -19 82q-61 90 -165 90zM1024 125q41 0 96 10q6 2 14 -11q8 -12 9 -30t-17 -40t-34 -25q-130 -25 -219 -45q-87 -21 -109 -21q-22 -1 -26 15t-6 47q-1 31 -2 38
t-8 9t-11 0q-145 -96 -248 -97q-162 0 -273 116t-110 292q0 246 225 393q61 38 147 62t150 24q66 0 103 -6q4 0 10 8t6 15l-4 233q-3 52 -19 70t-68 33t-55 40q-1 9 15 27t53 30t153 31q116 20 152 21q29 0 29 -121l-8 -547q0 -488 16 -529q16 -42 39 -42z" />
    <glyph glyph-name="e" unicode="e" horiz-adv-x="927" 
d="M625 660q-1 38 -31 76t-86 38t-106 -50q-48 -50 -54 -110q-6 -25 10 -28q42 -4 106 -4t90 3t48 20t23 55zM330 434q0 -121 80 -201t211 -79q94 0 200 69q7 6 19 -3t12 -21q0 -51 -37 -88q-127 -135 -317 -135t-303 119q-113 120 -113 315q0 125 60 226q60 102 158 164
t208 62q213 0 301 -139q41 -66 41 -154q0 -18 -20 -43t-39 -24l-416 -6q-45 0 -45 -62z" />
    <glyph glyph-name="f" unicode="f" horiz-adv-x="679" 
d="M47 45q0 17 52 39q51 22 67 38t20 86t4 265t-5 206t-9 11l-80 17q-10 2 -23 12q-33 25 8 61q22 18 89 58q4 2 12 14t8 14q7 254 226 414q129 94 256 94t184 -61q23 -35 23 -60q0 -56 -62 -100q-31 -23 -59 -23t-56 29q-92 92 -145 92q-76 0 -102 -127q-12 -63 -13 -241
q0 -45 21 -45q39 0 123 2l86 2q29 0 28 -107q0 -8 -14 -23t-22 -16l-209 4q-19 0 -19 -82t8 -407q2 -68 25 -87q23 -20 90 -32t68 -55q1 -19 -19 -31t-53 -12l-250 6l-184 -6q-74 0 -74 51z" />
    <glyph glyph-name="g" unicode="g" horiz-adv-x="972" 
d="M532 -371q29 -1 82 11t76 26q80 59 78 133q0 94 -131 117q-57 14 -168 14t-162 -20q-57 -39 -57 -94q0 -86 80 -136t202 -51zM447 774q-62 0 -95 -55t-33 -151q-1 -96 47 -154q48 -60 106 -60t87 41q11 17 23 69t12 124t-42 129q-43 57 -105 57zM967 727q1 -13 -9 -27
t-26 -14t-76 6q-61 6 -78 6q35 -59 35 -135q0 -127 -103 -212t-264 -85q-49 0 -63 2t-35 -11q-20 -13 -20 -42t34 -45t52 -16q223 -6 327 -13q66 0 116 -41q104 -85 104 -186q1 -100 -59 -181t-132 -126q-162 -96 -328 -96q-166 1 -284 67q-119 66 -119 186q0 27 21 64
q22 37 44 55q23 18 103 58q6 4 5 12t-5 10q-27 6 -55 27q-72 47 -72 153q0 20 24 29q24 10 76 46q51 36 68 54q16 12 0 25q-158 92 -158 256q0 137 119 231q37 30 111 54t152 24t148 -22q68 -22 109 -21l203 4q35 0 35 -96z" />
    <glyph glyph-name="h" unicode="h" horiz-adv-x="1144" 
d="M668 862q143 0 219 -88q74 -80 80 -268l8 -334q0 -37 12 -54q11 -16 63 -34t52 -51q0 -19 -22 -29t-42 -10l-188 6l-172 -6q-29 0 -46 15t-18 28q0 23 44 38t57 37q14 22 14 78v347q-2 76 -47 133q-16 23 -55 37t-70 14q-88 0 -133 -41q-4 -4 -10 -26t-6 -27
q0 -393 4 -451t55 -87q51 -28 51 -45q0 -18 -17 -34t-46 -16l-166 6l-213 -6q-31 0 -48 12q-36 25 -2 55q15 15 53 27q71 23 77 70q14 137 14 486t-7 422t-30 87q-74 55 -74 80t45 47q222 84 279 84q27 0 27 -84l-2 -487q0 -7 5 -13t9 -4q72 42 122 64t124 22z" />
    <glyph glyph-name="i" unicode="i" horiz-adv-x="598" 
d="M296 1286q60 0 99 -40t39 -106t-47 -104q-47 -37 -109 -37t-102 64q-22 33 -22 87t42 94q40 42 100 42zM188 510q0 96 -4 121q0 25 -63 69q-31 26 -31 42t11 28t20 14q233 84 285 84q8 0 16 -22t8 -41v-354q2 -238 8 -291t76 -78q57 -16 57 -52t-69 -36l-193 6l-211 -8
q-72 0 -71 37q1 33 59 51t72 36q30 40 30 394z" />
    <glyph glyph-name="j" unicode="j" horiz-adv-x="577" 
d="M-2 -481q-35 0 -35 24q0 41 34 67t83 71q98 98 98 321q0 309 -6 563q-2 61 -12 81t-52 44q-42 22 -42 47q0 11 16 27t31 22q109 29 183 57t105 27q29 0 29 -178l-4 -610q0 -51 -8 -121q-23 -184 -174 -323q-45 -41 -128 -80t-118 -39zM289 1282q57 0 94 -33
q43 -43 43 -109t-48 -105q-48 -38 -99 -38t-93 39q-41 38 -41 100t43 104q44 42 101 42z" />
    <glyph glyph-name="k" unicode="k" horiz-adv-x="1081" 
d="M440 481q14 0 62 35q88 70 144 134t52 78t-51 28t-47 34t21 36t41 16h88l239 14q33 0 50 -14t18 -29q0 -25 -83 -53q-82 -28 -140 -67q-58 -40 -177 -138q-8 -8 0 -27q195 -291 236 -338q80 -88 128 -106t62 -26t15 -25q0 -41 -78 -41l-281 8h-92q-53 0 -53 37
q0 27 45 47q25 12 11 44t-68 106q-53 74 -64 90q-51 80 -67 79q-33 0 -33 -32v-178q0 -45 10 -68t18 -27t48 -20t41 -33q-1 -15 -21 -33t-47 -18l-168 6l-197 -6q-23 0 -41 12t-18 27q0 29 51 49q50 20 60 38t18 92t8 603l-4 289q-4 31 -15 47t-57 51q-32 18 -32 34t15 34
q15 20 30 22q14 6 102 24t132 34q43 14 53 14t17 -17t7 -32q-12 -184 -12 -539l2 -203q-2 -92 22 -92z" />
    <glyph glyph-name="l" unicode="l" horiz-adv-x="575" 
d="M170 631q0 389 -8 491q-4 37 -58 63t-55 46q0 31 49 51q172 54 212 68t73 14q13 0 23 -27t10 -61l-4 -799q0 -237 3 -281t19 -68t70 -45t55 -58q0 -31 -59 -31l-201 6l-223 -10q-27 0 -44 10t-18 23q0 35 54 56t71 41q16 20 23 56q8 66 8 455z" />
    <glyph glyph-name="m" unicode="m" horiz-adv-x="1695" 
d="M43 31q0 29 53 49t69 42q15 22 19 104t4 378q0 33 -44 68t-44 43q0 37 37 55q4 2 86 32t118 54q37 24 49 24t26 -10q12 -10 12 -14v-80q0 -10 6 -13t15 3q135 96 275 96t210 -110q10 -14 29 -7q103 69 155 93t123 24q133 0 201 -89t76 -228q14 -229 14 -385q0 -50 60 -72
t61 -51q-1 -17 -21 -29t-43 -12l-178 4l-172 -4q-33 0 -49 13t-16 28q0 27 42 45t54 38t12 60l-2 320q-2 116 -41 158t-123 42q-30 0 -70 -11t-55 -21q-16 -16 -16 -47q0 -345 6 -429t61 -103t56 -50q0 -19 -18 -31t-42 -12l-200 4l-150 -4q-30 0 -52 13t-22 30q0 29 50 44
t60 33q9 18 11 83l8 362q2 51 -28 94q-43 55 -127 55t-131 -34q-3 -4 -13 -22t-10 -27q0 -395 3 -443t13 -63q10 -17 43 -33q32 -16 43 -26t11 -27q-1 -17 -17 -29t-38 -12l-207 6l-172 -8q-31 0 -51 12q-19 12 -19 27z" />
    <glyph glyph-name="n" unicode="n" horiz-adv-x="1150" 
d="M186 608q0 25 -12 42t-48 47t-36 43q0 12 12 32t28 26t91 30q76 22 111 40t48 17q14 1 28 -11t14 -22l-6 -84q-2 -20 14 -8q150 102 277 102t206 -100q66 -94 69 -320t4 -260t11 -52t45 -38q57 -25 58 -57q0 -41 -68 -41l-184 6l-154 -6q-66 0 -65 39q0 31 43 45
q59 23 61 92q2 100 2 273t-35 219q-36 46 -114 45q-78 0 -135 -29q-7 -2 -15 -18t-8 -31v-453q0 -23 3 -35q7 -30 59 -52t53 -52q0 -43 -68 -43l-180 6l-203 -6q-66 0 -65 33q0 37 45 51q68 27 84 44q16 16 23 94t7 392z" />
    <glyph glyph-name="o" unicode="o" horiz-adv-x="1099" 
d="M524 762q-68 0 -104 -49q-68 -91 -68 -235t33 -233t74 -122q55 -49 117 -49t112 66t49 238t-59 278t-154 106zM555 862q211 0 338 -132t127 -298q0 -207 -137 -332t-343 -125q-206 1 -333 127t-127 324t166 330q55 46 147 76t162 30z" />
    <glyph glyph-name="p" unicode="p" horiz-adv-x="1122" 
d="M545 713q-57 0 -99 -29q-4 -2 -12 -15t-10 -24q-6 -100 -6 -267t20 -198q31 -44 78 -72t76 -28q117 0 169 165q24 73 23 140q0 125 -61 227t-178 101zM68 -467q-74 0 -74 43q0 33 62 51t82 44q19 26 24 85q23 330 10 850q0 31 -76 86q-33 25 -33 38q1 14 15 32t30 25
t59 25q44 18 81 34q36 16 66 34t46 17q16 0 31 -11q16 -11 17 -25t-2 -39q-4 -26 -2 -38t11 -16t15 0q98 54 141 74t109 20q131 0 227 -86q61 -55 97 -143t36 -170q0 -131 -74 -254q-102 -171 -344 -219q-138 -25 -184 -10q-6 0 -13 -14t-7 -19q0 -211 6 -229q12 -34 87 -62
q76 -29 77 -55q0 -17 -18 -33t-52 -17h-182q-66 0 -153 -9t-115 -9z" />
    <glyph glyph-name="q" unicode="q" horiz-adv-x="1107" 
d="M496 756q-29 0 -66 -37q-36 -37 -60 -111t-24 -148t28 -153q28 -78 72 -123q74 -74 142 -74t106 23q6 3 14 23t9 30q0 256 -15 396q-6 53 -32 92q-59 82 -174 82zM1108 -397q0 -51 -82 -52q-129 0 -269 -11t-159 -11q-18 0 -42 11t-24 26q0 34 60 58t79 44q49 51 44 355
q0 6 -6 10t-13 2q-84 -59 -186 -59t-184 34q-82 35 -127 80q-119 127 -119 297q0 129 63 235q98 166 319 220q82 20 158 20t134 -18t61 -19q29 0 55 35q31 37 68 37q27 0 27 -76q-1 -18 -5 -234t-4 -556l2 -256q2 -71 22 -93t74 -36t54 -43z" />
    <glyph glyph-name="r" unicode="r" horiz-adv-x="790" 
d="M184 604q0 25 -49 66t-49 59q0 17 14 35t27 24q170 60 205 76t53 17q4 1 15 -15q12 -16 14 -33t2 -90q0 -6 7 -10t11 4q113 125 215 125q49 0 93 -28t44 -57q0 -30 -30 -75t-64 -71q-29 -29 -49 -29t-49 21q-12 12 -41 28q-69 38 -107 -4q-20 -20 -20 -39q0 -318 2 -386
t22 -93t86 -45q68 -20 68 -51q0 -18 -22 -31q-23 -12 -45 -12l-246 10l-174 -6q-29 0 -49 11t-21 28q0 33 53 53t66 43q12 23 15 116t3 359z" />
    <glyph glyph-name="s" unicode="s" horiz-adv-x="774" 
d="M408 772q-37 0 -65 -27t-28 -71t38 -78q38 -33 151 -90q207 -104 207 -256q-1 -86 -51 -146q-110 -129 -320 -129q-164 0 -225 52q-14 14 -30 82q-15 68 -15 98q0 57 43 57q27 0 65 -51q98 -141 203 -141q49 0 72 28q47 56 2 119q-19 29 -51 45t-72 42t-70 44
q-164 90 -164 234t127 227q79 51 217 51q64 0 94 -9t57 -16l36 -9t22 -21q14 -18 17 -25l4 -120q0 -23 -12 -42t-27 -20q-35 0 -68 55q-76 117 -157 117z" />
    <glyph glyph-name="t" unicode="t" horiz-adv-x="718" 
d="M414 864q0 -26 20 -26l223 10q7 0 17 -9t13 -21t3 -70q-2 -14 -15 -30t-34 -16l-209 -2q-4 0 -10 -9t-6 -19l-4 -346q-2 -100 32 -142q36 -39 88 -39q52 -1 95 13t47 14t12 -10t8 -23q0 -45 -55 -87q-97 -74 -239 -76q-142 -1 -207 102q-29 43 -29 145l8 447q0 14 -10 22
t-41 14t-47 28t-17 36q0 16 43 43q135 96 168 133t68 52q35 16 46 16t21 -14t11 -25v-111z" />
    <glyph glyph-name="u" unicode="u" horiz-adv-x="1124" 
d="M554 143q62 0 116 35q31 14 38 82t7 402q0 14 -10 36q-9 22 -19 27q-10 4 -39 13q-80 25 -80 55q1 14 21 29t49 16h115l174 6q8 0 18 -16t10 -33q0 -555 2 -617t35 -63q2 0 105 10q6 2 13 -10t7 -21q0 -68 -47 -76q-190 -23 -197 -24q-82 -20 -102 -20t-32 14
q-12 16 -13 32l-6 74q0 4 -7 9t-12 3q-166 -131 -313 -131q-47 0 -97 23t-72 46q-52 53 -52 128v477q0 35 -13 52t-59 41t-45 57q0 16 24 27t46 12l274 8q20 0 21 -68t-2 -233q-2 -166 1 -259t44 -122q35 -21 97 -21z" />
    <glyph glyph-name="v" unicode="v" horiz-adv-x="942" 
d="M979 811q0 -39 -60 -52t-104 -93q-72 -125 -172 -368q-99 -242 -109 -272t-32 -44t-35 -14t-31 12t-22 22t-31 84q-84 231 -161 405q-77 173 -91 195q-27 47 -61 64q-12 6 -27 12q-53 18 -53 47q0 17 19 29t46 12l221 -12l162 2q25 0 39 -12t15 -29q0 -31 -68 -56
q-37 -12 -23 -49q6 -23 144 -354q4 -6 11 -8t9 6q80 182 133 328q12 32 2 54t-63 35t-53 48q0 16 19 27t44 12l101 -4l172 10q25 0 42 -11t17 -26z" />
    <glyph glyph-name="w" unicode="w" horiz-adv-x="1388" 
d="M469 807q0 -29 -55 -49q-27 -10 -32 -26t7 -50q102 -279 135 -356q12 -29 21 -4q114 254 114 286q0 31 -21 82q-22 51 -74 70t-52 47q0 39 70 39l180 -8l156 6q55 0 55 -36t-58 -54q-39 -12 -39 -39t58 -173q58 -148 70 -184q22 -63 36 -26q2 6 67 171t64 191
q0 35 -64 61t-65 50q0 16 20 26t40 11l119 -4l151 10q62 0 62 -35t-59 -55t-89 -74q-66 -124 -144 -320t-94 -245q-18 -49 -28 -80t-14 -39q-16 -33 -51 -33t-68 49q-18 22 -49 126t-117 304q-2 8 -10 8t-13 -5q-6 -17 -74 -165t-92 -214q-37 -100 -83 -101q-13 -1 -33 15
t-28 42t-44 117q-30 85 -104 269t-101 241q-35 85 -97 105t-62 51q0 39 69 39l197 -10l162 4q27 0 44 -10t17 -25z" />
    <glyph glyph-name="x" unicode="x" horiz-adv-x="956" 
d="M-2 811q0 16 21 27q22 10 44 10l230 -8l151 -2q55 0 56 -45q0 -16 -49 -41q-25 -6 -13 -37q61 -117 78 -146q12 -14 23 -4q66 104 75 127q20 41 -28 62q-41 23 -41 42t17 30t38 12h80l205 10q55 0 59 -39q0 -29 -52 -46t-68 -23q-54 -21 -111 -86t-131 -167q-4 -6 5 -24
q9 -17 82 -145t85 -146q44 -64 120 -84t76 -53q0 -20 -21 -32q-22 -11 -44 -11l-211 8l-180 -4q-25 0 -43 12t-19 27q-4 29 60 53q16 6 21 20t-1 19q-51 98 -96 172q-12 12 -21 -2q-72 -103 -91 -147t30 -65t49 -46q0 -17 -16 -29t-39 -12l-119 2l-168 -10q-27 0 -46 12
t-20 27q0 31 72 55t141 92q63 68 156 201q4 6 4 26q-16 33 -82 144t-88 141t-44 40t-79 30t-57 53z" />
    <glyph glyph-name="y" unicode="y" horiz-adv-x="931" 
d="M256 -471q-53 0 -86 40t-33 89t34 86t83 37h63q25 0 45 45q56 128 50 163q-5 35 -20 68q-16 33 -36 89t-104 252t-125 282q-25 47 -100 82q-52 20 -52 51q-1 11 15 23t41 12l262 -10l123 4q53 0 53 -37q0 -29 -53 -49q-23 -8 -27 -22t8 -50q90 -240 150 -367q4 -8 11 -7
t9 7q63 145 135 355q12 33 1 52t-52 34q-53 14 -53 47q0 14 18 25t39 12l107 -4l160 8q24 0 38 -11t15 -26q0 -33 -53 -51q-37 -10 -62 -32q-26 -22 -70 -110t-196 -471t-207 -538q-4 -18 -41 -48t-90 -30z" />
    <glyph glyph-name="z" unicode="z" horiz-adv-x="892" 
d="M70 40q0 18 77 128q77 108 318 553q8 12 -8 20q-51 12 -166 7q-47 -4 -144 -113q-35 -43 -51 -43t-27 15t-11 29t30 112q23 59 29 106q4 16 19 26t28 3q58 -35 124 -40t244 -5l234 10q12 0 28 -15t-6 -59q-31 -41 -102 -158q-215 -365 -268 -479q-2 -18 6 -22
q39 -27 139 -27q29 0 84 32t105 92t70 60q19 0 31 -21q11 -22 5 -39t-55 -181q-5 -13 -21 -25t-22 -12l-371 6l-278 -10q-16 0 -29 16q-12 16 -12 34z" />
    <glyph glyph-name="braceleft" unicode="{" horiz-adv-x="782" 
d="M291 758q0 37 -27 174t-26 158q0 143 133 243q49 39 144 74t138 4q29 -22 9 -51q-8 -12 -32 -22t-33 -15q-9 -4 -40 -14q-127 -47 -127 -211q0 -33 26 -143t26 -172t-66 -127t-156 -97q-17 -13 -2 -20q221 -106 221 -271q-1 -58 -31 -196t-30 -154q0 -123 184 -203
q47 -23 47 -51q1 -28 -23 -36q-24 -9 -46 -7q-160 6 -253 97t-94 233q0 20 25 155t25 179q0 86 -44 128q-43 42 -97 60q-54 19 -66 35t-12 38t30 32q197 37 197 180z" />
    <glyph glyph-name="bar" unicode="|" horiz-adv-x="624" 
d="M219 1536h187v-2048h-187v2048z" />
    <glyph glyph-name="braceright" unicode="}" horiz-adv-x="782" 
d="M467 309q0 -37 28 -185t27 -169q0 -145 -133 -246q-51 -39 -122 -63t-107 -25q-36 0 -54 11q-16 11 -16 24q0 39 111 78q129 47 129 211q0 33 -26 155t-26 182q0 62 66 128t154 98q20 10 2 18q-219 104 -219 273q-1 63 29 174t30 153q0 125 -182 199q-47 23 -47 48t20 39
t49 11q158 -8 252 -100t94 -231q0 -20 -24 -144t-25 -166q0 -86 45 -129t137 -75q37 -14 37 -48t-34 -45q-195 -37 -195 -176z" />
    <glyph glyph-name="asciitilde" unicode="~" horiz-adv-x="1323" 
d="M874 319q-48 1 -85 17q-38 16 -55 24t-50 30t-43 28t-47 33q-125 91 -170 92q-66 -1 -113 -57t-92 -150q-4 -18 -37 -18t-65 36q-18 18 -13 33q44 123 134 214t213 91q37 0 85 -19q91 -36 226 -141q88 -63 133 -63q106 0 205 193q12 24 42 24t57 -30t18 -44
q-51 -133 -139 -213t-204 -80z" />
    <glyph glyph-name="uni00A0" unicode="&#xa0;" horiz-adv-x="421" 
 />
    <glyph glyph-name="exclamdown" unicode="&#xa1;" horiz-adv-x="673" 
d="M455 804q-1 -73 -53 -116t-118 -43t-108 50q-43 50 -43 116t45 113t114 47t116 -47t47 -120zM288 -268q-66 0 -106 41q-64 65 -65 172q0 106 106 487q8 34 31 58t41 24q45 0 63 -68q94 -350 95 -514q0 -76 -50 -138q-49 -62 -115 -62z" />
    <glyph glyph-name="cent" unicode="&#xa2;" horiz-adv-x="1071" 
d="M614 936q-108 0 -164 -89t-54 -199t47 -184q46 -74 116 -99q4 -2 9 3t5 9l54 545q4 14 -13 14zM958 853q-31 -36 -53 -36t-76 41q-87 66 -102 41l-55 -549q0 -16 20 -16q123 0 219 60q9 4 25 14t21 13t17 -9t13 -21q0 -47 -31 -84q-100 -123 -286 -145q-14 0 -15 -15
l-18 -178q0 -20 -51 -20t-49 22l14 164q2 20 -10 21q-184 16 -288 137q-103 121 -103 289t135 298q135 128 340 158q4 0 10 8t6 13l12 125q1 16 11 23t18 7l40 5q9 0 19 -2q15 -9 15 -17l-11 -137q0 -14 19 -19q156 -8 199 -55q27 -27 27 -63t-32 -73z" />
    <glyph glyph-name="sterling" unicode="&#xa3;" horiz-adv-x="1085" 
d="M737 1253q94 0 160 -43t69 -101t-37 -105t-87 -52q-14 0 -26 10t-13 21l2 61q-2 53 -27 85q-26 32 -64 32q-38 -1 -69 -29t-63 -137t-47 -297q0 -4 5 -10t9 -4l233 10q4 0 13 -19t-6 -51q-15 -33 -29 -34l-219 -17q-18 -4 -23 -20q-41 -168 -145 -270q-4 -5 -4 -11t8 -6
q82 -6 221 -65q150 -68 207 -68q88 0 88 94q0 61 -16 144q-2 8 15 19t28 11q42 -1 74 -35t32 -106q2 -98 -128 -210t-263 -111q-79 0 -182 65q-35 23 -101 68t-86 46q-20 2 -36 -10t-52 -52q-78 -89 -125 -89q-23 1 -45 21t-22 43q-2 53 47 110t125 92q25 6 32 25
q35 47 48 287q0 6 -8 11t-11 3l-139 -10q-18 1 -20 25q-1 24 11 55q11 31 17 33l143 6q14 0 15 22q53 356 237 481q117 82 254 82z" />
    <glyph glyph-name="currency" unicode="&#xa4;" horiz-adv-x="1071" 
d="M534 848q-99 0 -168 -71t-69 -181t71 -178t171 -68t172 69q71 69 71 175t-74 180q-75 74 -174 74zM938 601q0 -120 -72 -216q-9 -9 -4 -14l123 -133q23 -31 -29 -80q-14 -16 -34 -22t-31 1l-139 125q-6 6 -21 -2q-101 -63 -203 -63t-186 55q-8 4 -27 -2l-122 -121
q-18 -18 -70 23q-33 29 -30 64q1 11 3 15l111 115q8 14 0 25q-66 101 -66 215t66 221q10 10 0 27l-117 133q-10 10 5 39t28 38q49 45 76 25l114 -121q3 -4 15 -5t16 1q88 51 199 51t202 -55q14 -6 23 2l113 119q25 25 77 -23q20 -16 28 -38t-1 -27l-113 -125q-8 -14 -2 -25
q68 -102 68 -222z" />
    <glyph glyph-name="yen" unicode="&#xa5;" horiz-adv-x="1085" 
d="M215 35q1 39 63 54t79 40t20 121v76q0 18 -17 18l-206 2q-8 0 -10 22t6 44t20 20l197 2q12 0 12 15v102q0 18 -14 18l-207 2q-8 1 -10 21t4 40t14 21l182 4q4 0 7 10t-47 94q-50 85 -93 151t-61 96q-47 74 -113 93t-66 50q0 39 60 39l184 -6l248 6q17 0 33 -11t16 -22
q0 -45 -47 -51q-37 -12 -41 -24t41 -106q45 -92 119 -218q10 -18 24 1t125 210q41 82 41 96q0 23 -55 38t-55 52q0 11 15 23t49 12t151 -6l143 6q18 0 34 -11t15 -25q0 -32 -65 -56q-65 -23 -138 -119q-43 -53 -198 -299q-8 -4 2 -14q4 -2 6 -2l197 2q10 0 12 -23t-5 -45
t-18 -23l-204 -6q-2 0 -8 -6t-7 -10v-100q0 -18 13 -19l212 -2q10 0 10 -22t-7 -41q-8 -20 -19 -21l-196 -4q-12 0 -13 -18v-43q-1 -119 15 -150t98 -49q55 -14 53 -53q0 -14 -21 -26q-22 -11 -44 -11l-230 6l-227 -6q-35 0 -57 12t-21 29z" />
    <glyph glyph-name="brokenbar" unicode="&#xa6;" horiz-adv-x="624" 
d="M219 1382h187v-716h-187v716zM219 -358v716h187v-716h-187z" />
    <glyph glyph-name="section" unicode="&#xa7;" horiz-adv-x="1003" 
d="M748 166q0 182 -232 409q-217 206 -256 302q-6 14 -14 0q-35 -70 -35 -152q0 -162 205 -363q125 -118 188 -200t84 -162q2 -6 8 -9t13 5q39 82 39 170zM633 1290q66 0 118 -38t3 -111q-22 -33 -44 -50t-67 7q-125 59 -163 59t-60 -34t-23 -72q1 -38 23 -71q22 -32 36 -49
t41 -42q26 -25 41 -38t44 -39t39 -34q131 -120 203 -232t71 -242q0 -130 -60 -263t-141 -215q-141 -147 -278 -195q-39 -16 -111 -17q-73 -1 -109 29t-36 50t28 63q29 43 66 66q6 8 28 10t27 -2q117 -63 156 -63q92 0 92 77q-2 80 -205 279q-125 111 -205 237
q-78 115 -77 254q0 213 155 390q76 123 133 170q142 116 275 116z" />
    <glyph glyph-name="dieresis" unicode="&#xa8;" 
d="M602 1266q59 0 86 -44t27 -93t-42 -81t-85 -32t-81 33t-38 89t37 92t96 36zM236 1266q57 0 85 -44t27 -79q0 -63 -42 -95t-85 -32t-80 33t-37 89t37 92q38 36 95 36z" />
    <glyph glyph-name="copyright" unicode="&#xa9;" horiz-adv-x="1607" 
d="M850 989q112 0 229 -35q19 -6 23 -38t4 -82t-13 -66q-13 -18 -26 -18q-21 0 -41 50t-64 83t-96 32q-98 0 -157 -84t-60 -182q0 -161 72 -231t158 -70t153 88q29 44 40 53t22 9q37 0 26 -62q0 -8 -7 -26t-16 -42l-12 -32q-4 -23 -49 -49q-90 -33 -190 -33t-192 37t-142 88
q-96 104 -96 255t123 253t311 102zM797 1208q-240 0 -404 -171t-164 -420t167 -421t407 -173q241 0 401 172q160 171 160 421t-164 421t-403 171zM799 1305q295 0 493 -205q198 -204 199 -480q0 -276 -199 -485q-200 -209 -498 -209t-495 198t-197 488t201 492
q201 201 496 201z" />
    <glyph glyph-name="ordfeminine" unicode="&#xaa;" horiz-adv-x="700" 
d="M242 697q0 -35 22 -57t54 -22q34 0 59 25q16 11 16 77q0 85 -10 75q-80 -23 -111 -42q-30 -20 -30 -56zM374 1114q85 0 142 -58t57 -141q0 -31 -4 -210q-4 -74 52 -74q4 0 45 8q6 2 12 -7t6 -25t-18 -46q-46 -63 -138 -63t-125 71q-10 10 -16 4q-113 -75 -166 -75
t-106 49t-54 121q0 104 117 137q182 49 209 63q6 4 12 35v23q-1 44 -29 68t-66 24t-50 -9t-21 -81q-5 -29 -39 -37t-83 -8t-50 26q0 61 138 148q90 57 175 57z" />
    <glyph glyph-name="guillemotleft" unicode="&#xab;" horiz-adv-x="1386" 
d="M1232 805q22 1 23 -29q0 -30 -12 -55q-31 -57 -287 -281q-18 -16 2 -37q213 -178 287 -286q18 -27 8 -59q-19 -60 -82 -9q-215 172 -483 328q-12 8 -16 35t14 43q260 154 473 311q51 39 73 39zM687 801q29 0 31 -39q1 -18 -18 -55t-135 -137q-115 -101 -147 -132
q-14 -18 2 -37q29 -27 131 -115t154 -165q23 -37 13 -64t-37 -27q-26 0 -52 23q-188 154 -477 324q-25 23 -21 45t19 33q240 139 471 307q53 39 66 39z" />
    <glyph glyph-name="logicalnot" unicode="&#xac;" horiz-adv-x="1323" 
d="M1085 35q-38 0 -38 31l-9 473q0 16 -9 26t-17 10l-862 5q-33 0 -33 47q0 25 11 59t19 35l1022 2q15 0 25 -24t10 -35l-4 -586q0 -20 -38 -32t-77 -11z" />
    <glyph glyph-name="uni00AD" unicode="&#xad;" horiz-adv-x="714" 
d="M94 404q0 36 25 77q24 25 28 25q287 31 433 41q14 1 27 -17t14 -28q-1 -68 -25 -104t-43 -36q-78 -4 -224 -15t-178 -13t-45 16q-12 18 -12 54z" />
    <glyph glyph-name="registered" unicode="&#xae;" horiz-adv-x="602" 
d="M302 817q90 -1 150 63t60 158t-61 157q-62 63 -151 64t-149 -61q-61 -62 -61 -158q0 -94 60 -158t152 -65zM301 1303q113 0 189 -76q76 -77 77 -183q-1 -106 -75 -190t-190 -84t-192 78t-75 187t77 189t189 79zM279 1133v-68q0 -12 14 -12t29 11q14 10 14 30t-12 33
t-28 13t-17 -7zM184 924q-16 0 -16 9t20 17t19 33v113q0 29 -7 33q-8 4 -22 7t-14 9q0 14 18 18q72 6 129 6q102 0 103 -67q0 -37 -37 -49q-4 -2 -4 -11q45 -82 64 -91t20 -17q0 -18 -44 -18t-71 40q-4 4 -22 37t-30 33q-11 0 -11 -6v-29q0 -23 5 -29t21 -10q16 -6 17 -12
q0 -16 -21 -16l-45 2z" />
    <glyph glyph-name="macron" unicode="&#xaf;" 
d="M659 1140q0 -28 -19 -62t-34 -34l-426 -8q-4 0 -12 12t-8 44t18 65t31 33l430 6q6 0 13 -14t7 -42z" />
    <glyph glyph-name="degree" unicode="&#xb0;" horiz-adv-x="675" 
d="M333 1192q-56 0 -92 -44t-36 -102t41 -98t96 -39q55 0 91 39q36 38 36 102t-40 103t-96 39zM594 1050q0 -112 -79 -180t-180 -69t-178 67t-77 176t79 183q79 73 182 73t178 -70q75 -68 75 -180z" />
    <glyph glyph-name="plusminus" unicode="&#xb1;" horiz-adv-x="1323" 
d="M1184 -154h-1055q-15 0 -23 16t-8 52q0 35 12 55t19 21l1071 2q25 0 25 -41q1 -41 -13 -73t-28 -32zM1184 721q38 0 40 -41q0 -40 -14 -70t-32 -30l-418 -2q-16 0 -17 -23v-416q0 -25 -41 -39t-75 -14q-41 0 -41 41l-2 422q0 27 -35 26l-406 3q-42 0 -45 47q0 27 14 61
t31 35h422q6 0 13 8q6 8 6 14l-2 410q0 15 43 29t67 14q53 0 53 -45l-2 -408q0 -23 19 -22h422z" />
    <glyph glyph-name="two.superior" unicode="&#xb2;" horiz-adv-x="698" 
d="M102 811q-16 0 -31 14q-15 15 -15 29t26 37q127 104 199 182q86 88 86 180q0 53 -32 87t-82 34t-134 -67q-10 -11 -36 -7t-26 29t29 64q115 131 250 131q102 0 168 -60t66 -158q0 -96 -94 -180q-93 -84 -167 -141q-6 -4 -3 -11q4 -9 222 1q27 4 61 42t49 38t22 -23
t-1 -41q-45 -86 -59 -162q-2 -8 -14 -15t-19 -7l-334 4h-131z" />
    <glyph glyph-name="three.superior" unicode="&#xb3;" horiz-adv-x="698" 
d="M270 1405q-46 0 -86 -40t-60 -40q-20 -1 -26 19t0 34q32 54 98 100t157 46t147 -46t55 -104q0 -30 -19 -58q-20 -28 -34 -37q-60 -37 -58 -43q2 -5 7 -7q168 -39 167 -170q0 -145 -231 -244q-91 -37 -157 -37t-110 22t-44 46t20 56q32 51 76 38q8 -4 55 -32t90 -29
q43 0 73 31q30 32 30 88t-44 92t-104 36l-61 -10q-29 0 -29 14q-2 14 12 41t64 47q48 20 76 45q28 23 28 59t-22 60q-24 24 -70 23z" />
    <glyph glyph-name="acute" unicode="&#xb4;" 
d="M534 1358q24 0 67 -27q44 -27 46 -57q0 -51 -196 -270q-39 -49 -82 -50q-19 0 -25 30t6 60q66 180 90 232t48 67q22 15 46 15z" />
    <glyph glyph-name="mu" unicode="&#xb5;" horiz-adv-x="1101" 
d="M143 547q0 207 3 256t29 61q27 12 85 13q58 0 127 -43q13 -8 25 -37t12 -47t-26 -108q-26 -89 -44 -133t-38 -120q-20 -75 -26 -99q-15 -51 38 -85q27 -16 43 -17q63 0 150 82q130 122 145 252q20 266 23 288t17 46t29 23q51 -1 107 -21t76 -39q53 -62 -44 -303
q-51 -129 -92 -201q-12 -23 -8 -45q14 -82 115 -82q74 0 147 60q14 12 28 0t16 -26q3 -14 -4 -63q-7 -48 -19 -69q-68 -133 -185 -133q-145 0 -165 211q-6 20 -19 6q-141 -209 -262 -209q-82 0 -160 115q-2 6 -8 8t-10 -10q-10 -158 6 -223q12 -66 145 -170q7 -6 7 -28
t-6 -32t-81 -71q-43 -31 -81 -31q-57 0 -88 74q-20 33 -21 167l16 431v104q-2 41 -2 248z" />
    <glyph glyph-name="paragraph" unicode="&#xb6;" horiz-adv-x="1337" 
d="M936 1012v-1080q0 -295 -93 -417q-83 -109 -259 -109q-94 0 -176 68t-82 174t56 171t148 64q58 0 96 -41t38 -91t-30 -79q-53 -51 -120 -14q-33 14 -39 14t-13 -9t-7 -19q0 -60 47 -98t102 -38q199 0 203 359q2 195 2 238t-18 42q-207 0 -384 79t-245 242q-39 89 -39 200
q0 203 145 354q72 74 183 114t200 48q229 16 379 16h109q27 0 42 -22t15 -42q0 -18 -12 -35t-21 -18l-192 -2q-11 1 -23 -23t-12 -46z" />
    <glyph glyph-name="periodcentered" unicode="&#xb7;" horiz-adv-x="667" 
d="M348 557q66 0 111 -53t45 -118t-49 -116t-120 -51t-121 49t-50 122t58 120q60 47 126 47z" />
    <glyph glyph-name="cedilla" unicode="&#xb8;" 
d="M545 -266q1 -92 -101 -160t-170 -68q-12 0 -32 10t-30 25q-10 14 -9 40q0 26 12 38q25 27 64 14l26 -10q27 -10 47 -10t37 18t17 48q0 31 -30 51t-73 20h-33q-8 0 -22 16t-14 28q0 13 18 34l156 182h86l-80 -110q-2 -4 1 -12t7 -9q123 -53 123 -145z" />
    <glyph glyph-name="one.superior" unicode="&#xb9;" horiz-adv-x="698" 
d="M256 1351q-8 25 -65 35q-56 10 -56 44q1 10 15 23t32 15q184 29 250 56q16 6 29 -6q12 -13 12 -25l-4 -152q-4 -123 0 -360q2 -49 12 -60q11 -11 65 -27t54 -48q0 -39 -59 -39l-185 4l-174 -4q-68 0 -67 39q0 37 60 48t73 41q16 43 16 217t-8 199z" />
    <glyph glyph-name="ordmasculine" unicode="&#xba;" horiz-adv-x="796" 
d="M387 1032q-115 0 -115 -213q0 -100 38 -171q38 -70 100 -70t88 70q24 70 24 159t-38 157t-97 68zM408 1114q146 0 237 -91q90 -91 90 -217t-92 -217q-91 -91 -243 -91t-245 87t-93 220t100 221t246 88z" />
    <glyph glyph-name="guillemotright" unicode="&#xbb;" horiz-adv-x="1386" 
d="M154 25q-22 1 -23 31q0 30 12 55q31 57 287 280q18 16 -2 37q-213 178 -287 287q-18 27 -8 59t33 31q23 0 49 -23q198 -163 483 -327q12 -8 16 -36t-14 -42q-260 -154 -392 -253t-154 -99zM698 31q-27 0 -29 39q-1 18 11 45q25 42 138 143q114 101 151 135q15 20 -8 42
t-123 108t-156 168q-22 35 -12 63t34 27q24 0 54 -23q188 -153 477 -323q25 -20 21 -46t-19 -32q-260 -150 -471 -309q-56 -37 -68 -37z" />
    <glyph glyph-name="onequarter" unicode="&#xbc;" horiz-adv-x="1515" 
d="M1012 308q0 -12 145 -17q10 0 10 14q4 100 9 199q0 6 -6 8t-11 -2q-147 -190 -147 -202zM1360 174v-158q0 -33 -25 -41q-55 -12 -147 -12q-25 0 -25 43q0 96 4 168q0 14 -12 14q-223 0 -270 -4q-13 0 -27 16t-14 28q0 11 22 37t156 185q133 158 157 182q23 24 69 52
t66 27q20 1 30 -13q12 -14 12 -24q0 -256 2 -365q0 -14 14 -14l92 2q14 0 15 -25q0 -78 -29 -86l-78 2q-12 0 -12 -14zM1200 1260q18 0 41 -8t29 -15q4 -12 2 -20l-817 -1248q-23 -33 -37 -33t-46 18q-32 17 -20 40l809 1237q21 29 39 29zM256 1053q-8 24 -65 36
q-56 11 -56 44q1 10 15 23t32 15q184 29 250 56q16 6 29 -6q12 -13 12 -25l-4 -152q-4 -123 0 -360q2 -49 12 -60q11 -12 65 -28t54 -47q0 -39 -59 -39l-185 4l-174 -4q-68 0 -67 39q0 37 60 48t73 41q16 44 16 218t-8 197z" />
    <glyph glyph-name="onehalf" unicode="&#xbd;" horiz-adv-x="1579" 
d="M983 -2q-16 0 -32 14q-15 14 -15 28t27 38q127 104 198 182q86 88 86 180q0 53 -32 87q-31 34 -81 34t-135 -67q-9 -12 -35 -8t-26 30q0 25 29 64q115 131 250 131q101 -1 167 -61t66 -157t-93 -181t-167 -140q-6 -4 -3 -11q4 -9 222 1q27 4 61 42t49 38t22 -23t-1 -41
q-45 -86 -59 -162q-3 -8 -15 -15t-18 -7l-334 4h-131zM1192 1260q18 0 41 -8t29 -15q4 -12 2 -20l-818 -1248q-22 -33 -36 -33t-46 18q-32 17 -20 40l809 1237q21 29 39 29zM256 1053q-8 24 -65 36q-56 11 -56 44q1 10 15 23t32 15q184 29 250 56q16 6 29 -6q12 -13 12 -25
l-4 -152q-4 -123 0 -360q2 -49 12 -60q11 -12 65 -28t54 -47q0 -39 -59 -39l-185 4l-174 -4q-68 0 -67 39q0 37 60 48t73 41q16 44 16 218t-8 197z" />
    <glyph glyph-name="threequarters" unicode="&#xbe;" horiz-adv-x="1443" 
d="M942 307q0 -12 145 -16q11 0 11 14q4 100 8 199q0 6 -6 8t-10 -2q-148 -191 -148 -203zM1409 272q0 -78 -29 -86l-77 2q-12 0 -13 -14v-158q0 -33 -24 -41q-55 -12 -148 -12q-25 0 -24 43q0 96 4 168q0 14 -13 14q-223 0 -270 -4q-13 0 -27 16t-14 28q0 11 22 37t156 185
q133 158 157 182q23 24 69 52t66 27q20 1 30 -13q12 -14 12 -24q0 -256 2 -365q0 -14 15 -14l92 2q14 0 14 -25zM1152 1260q18 0 42 -8q23 -8 29 -15q4 -12 2 -20l-817 -1248q-23 -33 -37 -33t-46 18q-32 17 -20 40l809 1237q20 29 38 29zM270 1108q-46 0 -86 -40t-60 -40
t-26 18t0 35q32 55 98 101t157 45q91 0 147 -46t55 -104q0 -31 -19 -59q-20 -28 -34 -36q-60 -37 -58 -43q2 -5 7 -7q168 -39 167 -170q0 -145 -231 -244q-91 -37 -157 -37t-110 22t-44 46t20 56q32 51 76 38q8 -5 55 -33t90 -28t73 32t30 87q0 57 -44 93t-104 35l-61 -10
q-29 0 -29 15q-2 14 12 40t64 48q48 20 76 44t28 60t-22 58q-24 24 -70 24z" />
    <glyph glyph-name="questiondown" unicode="&#xbf;" horiz-adv-x="827" 
d="M590 810q0 -73 -52 -117t-116 -44q-62 0 -108 51t-46 116t46 112t116 47t115 -46t45 -119zM504 -270q-147 0 -281 147q-109 117 -108 262q0 66 30 122q31 56 75 82t149 69q33 16 47 96q2 18 21 30t32 11q35 0 72 -74q37 -90 37 -128t-6 -57q-18 -61 -92 -108
q-48 -32 -133 -68t-85 -94q0 -38 31 -60t66 -22t101 22t94 22t64 -31t35 -81q0 -50 -44 -95t-105 -45z" />
    <glyph glyph-name="Agrave" unicode="&#xc0;" horiz-adv-x="1427" 
d="M381 1544q-1 38 39 80q40 43 79 43t85 -43q127 -113 190 -188q74 -74 3 -100q-32 -11 -56 -1q-125 53 -299 148q-41 23 -41 61zM632 524q108 0 124 1t21 11t-5 46q-10 37 -62 173t-69 167q-12 18 -27 0q-63 -141 -135 -371q-2 -8 4 -16q6 -7 23 -9t126 -2zM-6 31
q0 35 66 59t101 50q34 26 68 102q94 197 338 848q8 16 8 38t19 35q104 70 127 88q23 23 41 23t27 -8q11 -9 89 -225t207 -529t147 -344t49 -45t87 -36t55 -67q0 -31 -65 -30l-311 10l-199 -8q-70 0 -70 35q0 41 58 62q100 37 69 114q-25 84 -61 166q-2 8 -18 18t-42 13
t-162 3t-165 -5t-41 -31q-49 -133 -49 -191t96 -88q53 -20 53 -47q6 -19 -24 -33t-54 -14l-145 6l-225 -10q-74 0 -74 41z" />
    <glyph glyph-name="Aacute" unicode="&#xc1;" horiz-adv-x="1427" 
d="M1032 1510q0 -30 -51 -56q-135 -70 -303 -129q-78 -29 -103 16q-12 25 35 68q119 111 250 209q18 14 46 18t38 0q28 -10 58 -53t30 -73zM632 524q108 0 124 1t21 11t-5 46q-10 37 -62 173t-69 167q-12 18 -27 0q-63 -141 -135 -371q-2 -8 4 -16q6 -7 23 -9t126 -2zM-6 31
q0 35 66 59t101 50q34 26 68 102q94 197 338 848q8 16 8 38t19 35q104 70 127 88q23 23 41 23t27 -8q11 -9 89 -225t207 -529t147 -344t49 -45t87 -36t55 -67q0 -31 -65 -30l-311 10l-199 -8q-70 0 -70 35q0 41 58 62q100 37 69 114q-25 84 -61 166q-2 8 -18 18t-42 13
t-162 3t-165 -5t-41 -31q-49 -133 -49 -191t96 -88q53 -20 53 -47q6 -19 -24 -33t-54 -14l-145 6l-225 -10q-74 0 -74 41z" />
    <glyph glyph-name="Acircumflex" unicode="&#xc2;" horiz-adv-x="1427" 
d="M713 1595q29 0 92 -59q37 -31 186 -178q33 -33 29 -58q-4 -24 -36 -24q-59 1 -263 127q-19 10 -37 0q-39 -22 -125 -73q-86 -50 -121 -50q-39 6 -30 35q8 29 34 55q12 10 79 77t100 97q63 51 92 51zM632 524q108 0 124 1t21 11t-5 46q-10 37 -62 173t-69 167
q-12 18 -27 0q-63 -141 -135 -371q-2 -8 4 -16q6 -7 23 -9t126 -2zM-6 31q0 35 66 59t101 50q34 26 68 102q94 197 338 848q8 16 8 38t19 35q104 70 127 88q23 23 41 23t27 -8q11 -9 89 -225t207 -529t147 -344t49 -45t87 -36t55 -67q0 -31 -65 -30l-311 10l-199 -8
q-70 0 -70 35q0 41 58 62q100 37 69 114q-25 84 -61 166q-2 8 -18 18t-42 13t-162 3t-165 -5t-41 -31q-49 -133 -49 -191t96 -88q53 -20 53 -47q6 -19 -24 -33t-54 -14l-145 6l-225 -10q-74 0 -74 41z" />
    <glyph glyph-name="Atilde" unicode="&#xc3;" horiz-adv-x="1427" 
d="M468 1284q-14 0 -32 16t-18 30t42 83q71 117 136 117q23 0 118 -11t158 -10q25 3 58 36q32 32 40 39t18 7q11 0 29 -26q17 -27 9 -37q-84 -104 -121 -148q-29 -31 -84 -30q-14 0 -123 13q-110 13 -134 6t-53 -46t-43 -39zM632 524q108 0 124 1t21 11t-5 46
q-10 37 -62 173t-69 167q-12 18 -27 0q-63 -141 -135 -371q-2 -8 4 -16q6 -7 23 -9t126 -2zM-6 31q0 35 66 59t101 50q34 26 68 102q94 197 338 848q8 16 8 38t19 35q104 70 127 88q23 23 41 23t27 -8q11 -9 89 -225t207 -529t147 -344t49 -45t87 -36t55 -67q0 -31 -65 -30
l-311 10l-199 -8q-70 0 -70 35q0 41 58 62q100 37 69 114q-25 84 -61 166q-2 8 -18 18t-42 13t-162 3t-165 -5t-41 -31q-49 -133 -49 -191t96 -88q53 -20 53 -47q6 -19 -24 -33t-54 -14l-145 6l-225 -10q-74 0 -74 41z" />
    <glyph glyph-name="Adieresis" unicode="&#xc4;" horiz-adv-x="1427" 
d="M795 1425q1 59 39 97t102 39t92 -47q29 -48 29 -84q0 -68 -45 -102t-91 -34t-86 36t-40 95zM369 1425q0 59 39 97t101 39t91 -47t29 -100t-44 -86t-90 -34t-86 36t-40 95zM632 524q108 0 124 1t21 11t-5 46q-10 37 -62 173t-69 167q-12 18 -27 0q-63 -141 -135 -371
q-2 -8 4 -16q6 -7 23 -9t126 -2zM-6 31q0 35 66 59t101 50q34 26 68 102q94 197 338 848q8 16 8 38t19 35q104 70 127 88q23 23 41 23t27 -8q11 -9 89 -225t207 -529t147 -344t49 -45t87 -36t55 -67q0 -31 -65 -30l-311 10l-199 -8q-70 0 -70 35q0 41 58 62q100 37 69 114
q-25 84 -61 166q-2 8 -18 18t-42 13t-162 3t-165 -5t-41 -31q-49 -133 -49 -191t96 -88q53 -20 53 -47q6 -19 -24 -33t-54 -14l-145 6l-225 -10q-74 0 -74 41z" />
    <glyph glyph-name="Aring" unicode="&#xc5;" horiz-adv-x="1427" 
d="M696 1581q-36 0 -62 -29q-26 -30 -26 -70t28 -67t66 -27t62 28q24 26 24 66t-28 70t-64 29zM698 1669q84 0 138 -54t53 -131q0 -77 -53 -132q-54 -56 -138 -56t-137 56t-53 132q0 77 53 131t137 54zM632 524q108 0 124 1t21 11t-5 46q-10 37 -62 173t-69 167
q-12 18 -27 0q-63 -141 -135 -371q-2 -8 4 -16q6 -7 23 -9t126 -2zM-6 31q0 35 66 59t101 50q34 26 68 102q94 197 338 848q8 16 8 38t19 35q104 70 127 88q23 23 41 23t27 -8q11 -9 89 -225t207 -529t147 -344t49 -45t87 -36t55 -67q0 -31 -65 -30l-311 10l-199 -8
q-70 0 -70 35q0 41 58 62q100 37 69 114q-25 84 -61 166q-2 8 -18 18t-42 13t-162 3t-165 -5t-41 -31q-49 -133 -49 -191t96 -88q53 -20 53 -47q6 -19 -24 -33t-54 -14l-145 6l-225 -10q-74 0 -74 41z" />
    <glyph glyph-name="AE" unicode="&#xc6;" horiz-adv-x="1986" 
d="M670 635h262q16 0 16 33l10 426q0 31 -24 16q-14 -12 -27 -31q-188 -285 -258 -420q-2 -4 5 -14t16 -10zM1761 1008q0 -14 -14 -34t-33 -22q-19 0 -35 18q-15 18 -37 55q-22 38 -64 68t-87 29l-227 -2q-35 0 -35 -41v-389q0 -37 20 -37l133 2q88 -1 118 15t60 80t64 65
q47 0 39 -108q-2 -25 -2 -85t6 -159q2 -35 -14 -57t-31 -21q-35 0 -61 66q-17 41 -33 59t-42 20t-233 2q-10 0 -17 -11t-7 -19q0 -164 4 -244t22 -98q47 -51 189 -51t194 18q37 18 74 59t52 63t32 44t43 22q25 1 33 -29t1 -64t-65 -187q-18 -41 -69 -41l-506 6l-410 -6
q-86 0 -86 47q0 41 74 57q75 16 99 44t31 108t7 229q0 7 -7 21t-11 14l-336 -6q-31 0 -51 -35q-160 -262 -160 -308q-1 -45 67 -69t68 -59q0 -43 -67 -43l-232 6l-164 -8q-68 0 -67 43q0 33 72 57t108 54q35 30 92 118q387 598 498 795q10 13 6 33t-23 22q-8 2 -127 31
q-61 14 -61 51q0 45 74 45l374 -8h375l295 8q35 0 46 -16q11 -15 27 -109t17 -108z" />
    <glyph glyph-name="Ccedilla" unicode="&#xc7;" horiz-adv-x="1437" 
d="M1254 852q-22 0 -44 61q-23 74 -47 114q-25 40 -78 75q-109 74 -229 74q-72 0 -150 -36q-171 -78 -237 -278q-37 -109 -37 -214q0 -104 33 -210t88 -181t153 -127t191 -52q92 0 199 55q41 23 100 121t86 98q41 0 41 -78q0 -8 -19 -90q-20 -82 -22 -95t-13 -29t-16 -19
q-51 -25 -153 -49t-195 -27q-10 -16 -49 -69q-2 -4 1 -12t7 -11q129 -57 129 -153t-119 -175q-90 -61 -163 -61q-14 0 -36 10t-32 26t-9 42q1 27 11 41q31 27 70 14q47 -20 73 -20t42 18q18 18 18 50q0 33 -32 55t-77 22h-32q-10 0 -26 14q-15 14 -15 26t20 40
q95 111 123 143q-360 18 -541 221q-158 172 -157 422q0 340 280 535q78 53 207 92q130 39 262 39t264 -37t138 -37q8 0 21 -13t13 -24l17 -223q-1 -40 -19 -64t-40 -24z" />
    <glyph glyph-name="Egrave" unicode="&#xc8;" horiz-adv-x="1224" 
d="M430 1651q39 0 84 -43q127 -113 191 -189q72 -72 3 -99q-32 -11 -57 -1q-125 53 -299 147q-41 23 -41 61t40 81t79 43zM690 1233q213 0 273 10q31 2 42 -15q11 -18 21 -100t10 -116q0 -66 -41 -66q-38 -1 -77 90q-43 88 -80 88l-275 -6q-22 0 -27 -62t-6 -317
q0 -51 18 -54q55 -9 131 -4q77 5 109 25t52 72q20 51 51 51q47 0 41 -86q-4 -49 -4 -115t3 -114t-11 -68t-31 -20q-33 0 -58 59q-16 41 -29 55t-44 17q-113 8 -203 8q-8 1 -16 -21q-9 -22 -9 -69t9 -227q6 -80 21 -97q14 -17 76 -33t146 -18q84 0 140 26t116 114q8 10 30 43
t34 40t24 7t27 -22q36 -52 -63 -279q-4 -15 -28 -27t-34 -12t-130 5t-363 5l-435 -8q-74 0 -73 28q0 45 61 64q66 16 100 38t43 38q19 38 19 428t-8 463q-8 45 -34 65t-87 36t-62 52q1 18 21 28t43 11l356 -10h211z" />
    <glyph glyph-name="Eacute" unicode="&#xc9;" horiz-adv-x="1224" 
d="M743 1626q19 14 47 18t37 1q29 -9 59 -53t29 -66q0 -39 -51 -64q-135 -70 -303 -129q-78 -29 -102 17q-12 25 35 67q118 111 249 209zM690 1233q213 0 273 10q31 2 42 -15q11 -18 21 -100t10 -116q0 -66 -41 -66q-38 -1 -77 90q-43 88 -80 88l-275 -6q-22 0 -27 -62
t-6 -317q0 -51 18 -54q55 -9 131 -4q77 5 109 25t52 72q20 51 51 51q47 0 41 -86q-4 -49 -4 -115t3 -114t-11 -68t-31 -20q-33 0 -58 59q-16 41 -29 55t-44 17q-113 8 -203 8q-8 1 -16 -21q-9 -22 -9 -69t9 -227q6 -80 21 -97q14 -17 76 -33t146 -18q84 0 140 26t116 114
q8 10 30 43t34 40t24 7t27 -22q36 -52 -63 -279q-4 -15 -28 -27t-34 -12t-130 5t-363 5l-435 -8q-74 0 -73 28q0 45 61 64q66 16 100 38t43 38q19 38 19 428t-8 463q-8 45 -34 65t-87 36t-62 52q1 18 21 28t43 11l356 -10h211z" />
    <glyph glyph-name="Ecircumflex" unicode="&#xca;" horiz-adv-x="1224" 
d="M600 1645q29 0 92 -60q37 -31 187 -178q33 -33 29 -57t-47 -25q-42 0 -253 127q-20 10 -38 0q-56 -32 -130 -77q-75 -45 -114 -46q-39 6 -31 35q9 29 27 47t86 85t100 97q63 52 92 52zM690 1233q213 0 273 10q31 2 42 -15q11 -18 21 -100t10 -116q0 -66 -41 -66
q-38 -1 -77 90q-43 88 -80 88l-275 -6q-22 0 -27 -62t-6 -317q0 -51 18 -54q55 -9 131 -4q77 5 109 25t52 72q20 51 51 51q47 0 41 -86q-4 -49 -4 -115t3 -114t-11 -68t-31 -20q-33 0 -58 59q-16 41 -29 55t-44 17q-113 8 -203 8q-8 1 -16 -21q-9 -22 -9 -69t9 -227
q6 -80 21 -97q14 -17 76 -33t146 -18q84 0 140 26t116 114q8 10 30 43t34 40t24 7t27 -22q36 -52 -63 -279q-4 -15 -28 -27t-34 -12t-130 5t-363 5l-435 -8q-74 0 -73 28q0 45 61 64q66 16 100 38t43 38q19 38 19 428t-8 463q-8 45 -34 65t-87 36t-62 52q1 18 21 28t43 11
l356 -10h211z" />
    <glyph glyph-name="Edieresis" unicode="&#xcb;" horiz-adv-x="1224" 
d="M680 1472q0 60 38 98t102 38t93 -47t29 -99t-45 -87q-45 -34 -91 -34t-86 36t-40 95zM254 1472q0 60 39 98t101 38t91 -47t29 -99t-44 -87q-44 -34 -90 -34t-86 36t-40 95zM690 1233q213 0 273 10q31 2 42 -15q11 -18 21 -100t10 -116q0 -66 -41 -66q-38 -1 -77 90
q-43 88 -80 88l-275 -6q-22 0 -27 -62t-6 -317q0 -51 18 -54q55 -9 131 -4q77 5 109 25t52 72q20 51 51 51q47 0 41 -86q-4 -49 -4 -115t3 -114t-11 -68t-31 -20q-33 0 -58 59q-16 41 -29 55t-44 17q-113 8 -203 8q-8 1 -16 -21q-9 -22 -9 -69t9 -227q6 -80 21 -97
q14 -17 76 -33t146 -18q84 0 140 26t116 114q8 10 30 43t34 40t24 7t27 -22q36 -52 -63 -279q-4 -15 -28 -27t-34 -12t-130 5t-363 5l-435 -8q-74 0 -73 28q0 45 61 64q66 16 100 38t43 38q19 38 19 428t-8 463q-8 45 -34 65t-87 36t-62 52q1 18 21 28t43 11l356 -10h211z
" />
    <glyph glyph-name="Igrave" unicode="&#xcc;" horiz-adv-x="780" 
d="M215 1663q39 0 84 -43q127 -113 190 -188q73 -73 4 -100q-32 -11 -57 -1q-125 53 -299 148q-41 23 -41 61t40 80q40 43 79 43zM250 522v410q0 131 -20 166t-105 55q-53 12 -53 49q0 18 22 29q23 10 45 10l240 -8l268 6q23 0 41 -11t19 -28q0 -31 -63 -46t-82 -42
q-19 -28 -25 -128t-7 -402l5 -340q3 -76 27 -108t94 -49t69 -54q0 -17 -24 -27t-46 -10l-272 6l-248 -10q-66 0 -65 37q0 33 79 61q43 15 64 36q21 22 29 79t8 319z" />
    <glyph glyph-name="Iacute" unicode="&#xcd;" horiz-adv-x="780" 
d="M725 1518q0 -30 -51 -56q-135 -70 -303 -129q-78 -29 -103 17q-12 25 35 67q119 111 250 209q18 14 46 18t38 1q29 -9 59 -53t29 -74zM250 522v410q0 131 -20 166t-105 55q-53 12 -53 49q0 18 22 29q23 10 45 10l240 -8l268 6q23 0 41 -11t19 -28q0 -31 -63 -46t-82 -42
q-19 -28 -25 -128t-7 -402l5 -340q3 -76 27 -108t94 -49t69 -54q0 -17 -24 -27t-46 -10l-272 6l-248 -10q-66 0 -65 37q0 33 79 61q43 15 64 36q21 22 29 79t8 319z" />
    <glyph glyph-name="Icircumflex" unicode="&#xce;" horiz-adv-x="780" 
d="M389 1647q29 0 92 -60q37 -31 187 -178q32 -33 28 -57t-46 -25q-42 0 -253 127q-19 10 -37 0q-56 -32 -131 -77t-114 -46q-39 6 -31 35t26 47t87 85q68 67 100 97q63 52 92 52zM250 522v410q0 131 -20 166t-105 55q-53 12 -53 49q0 18 22 29q23 10 45 10l240 -8l268 6
q23 0 41 -11t19 -28q0 -31 -63 -46t-82 -42q-19 -28 -25 -128t-7 -402l5 -340q3 -76 27 -108t94 -49t69 -54q0 -17 -24 -27t-46 -10l-272 6l-248 -10q-66 0 -65 37q0 33 79 61q43 15 64 36q21 22 29 79t8 319z" />
    <glyph glyph-name="Idieresis" unicode="&#xcf;" horiz-adv-x="780" 
d="M618 1610q64 0 93 -47t28 -84q0 -68 -45 -102t-91 -34t-86 36q-40 35 -40 95t39 98q38 38 102 38zM192 1610q62 0 91 -47t28 -84q0 -68 -44 -102t-90 -34t-86 36q-40 35 -40 95t39 98q40 38 102 38zM250 522v410q0 131 -20 166t-105 55q-53 12 -53 49q0 18 22 29
q23 10 45 10l240 -8l268 6q23 0 41 -11t19 -28q0 -31 -63 -46t-82 -42q-19 -28 -25 -128t-7 -402l5 -340q3 -76 27 -108t94 -49t69 -54q0 -17 -24 -27t-46 -10l-272 6l-248 -10q-66 0 -65 37q0 33 79 61q43 15 64 36q21 22 29 79t8 319z" />
    <glyph glyph-name="Eth" unicode="&#xd0;" horiz-adv-x="1550" 
d="M526 563q0 -195 13 -313q10 -78 63 -122t135 -44q133 0 265 128t132 392t-140 404t-318 139q-55 0 -103 -14q-6 -1 -20 -17t-16 -26q-10 -98 -11 -379q0 -16 17 -17h278q7 0 15 -13t8 -29t-10 -40q-10 -25 -27 -24l-262 -6q-7 0 -13 -6t-6 -13zM33 33q0 45 98 66
q41 9 49 17t25 18q17 11 22 35q5 25 13 77t8 317q0 4 -7 10t-14 7h-147q-27 0 -27 41q0 16 8 45t19 28h153q14 0 15 19q0 307 -8 355t-119 71q-74 16 -74 55t92 39h148l411 14q336 0 542 -173t206 -455t-216 -471q-185 -162 -562 -162l-344 14l-228 -6q-63 0 -63 39z" />
    <glyph glyph-name="Ntilde" unicode="&#xd1;" horiz-adv-x="1568" 
d="M879 1374q-14 0 -123 14q-110 14 -134 6q-24 -6 -54 -46t-42 -40q-14 0 -32 17q-18 15 -18 29t42 84q72 118 135 116q23 0 118 -11t159 -9q28 3 58 35q30 31 38 39t20 8t28 -27q17 -27 9 -37q-85 -106 -117 -142t-87 -36zM47 31q-1 33 71 57t99 52q27 30 34 119t17 374
t10 338t-49 102q-51 59 -127 73t-77 68q0 31 49 31l352 -14q10 0 28 -9t21 -16q37 -55 349 -390t358 -370q4 -4 12 0t13 27t7 173q5 363 -26 423q-27 47 -131 70q-33 8 -49 25q-31 33 2 58q18 13 51 13l129 -2l264 10q70 0 70 -43q0 -26 -68 -54t-90 -48q-20 -20 -23 -47
q-20 -430 -20 -668l8 -291q0 -133 -51 -133q-68 0 -131 74q-160 195 -225 266q-100 117 -512 565q-6 6 -14 0t-7 -16q-6 -136 -6 -240t5 -250t27 -190q23 -45 97 -72q74 -28 74 -66t-68 -38l-198 8l-199 -10q-76 0 -76 41z" />
    <glyph glyph-name="Ograve" unicode="&#xd2;" horiz-adv-x="1624" 
d="M502 1558q0 38 40 80t78 43q39 0 85 -43q127 -113 190 -188q74 -74 3 -99q-32 -11 -56 -1q-125 53 -299 147q-41 23 -41 61zM774 1174q-64 0 -124 -34t-89 -63q-131 -143 -131 -430q0 -231 116 -408t318 -178q54 0 110 26t83 52q131 123 131 467q0 296 -184 474
q-98 94 -230 94zM811 1274q305 0 503 -188t197 -468q0 -180 -93 -332t-248 -237q-155 -86 -357 -86q-307 -1 -505 189t-198 455t187 454q97 97 235 155t279 58z" />
    <glyph glyph-name="Oacute" unicode="&#xd3;" horiz-adv-x="1624" 
d="M1106 1546q0 -31 -51 -55q-135 -70 -303 -129q-78 -29 -103 16q-12 25 35 68q119 111 250 209q18 14 46 18t38 0q28 -10 58 -53t30 -74zM774 1174q-64 0 -124 -34t-89 -63q-131 -143 -131 -430q0 -231 116 -408t318 -178q54 0 110 26t83 52q131 123 131 467
q0 296 -184 474q-98 94 -230 94zM811 1274q305 0 503 -188t197 -468q0 -180 -93 -332t-248 -237q-155 -86 -357 -86q-307 -1 -505 189t-198 455t187 454q97 97 235 155t279 58z" />
    <glyph glyph-name="Ocircumflex" unicode="&#xd4;" horiz-adv-x="1624" 
d="M807 1657q29 0 92 -60q37 -31 186 -178q33 -33 29 -57t-36 -25q-54 0 -263 127q-19 10 -37 0t-48 -27t-95 -56t-103 -40q-39 6 -30 35q8 30 26 48q120 120 187 182q63 51 92 51zM774 1174q-64 0 -124 -34t-89 -63q-131 -143 -131 -430q0 -231 116 -408t318 -178
q54 0 110 26t83 52q131 123 131 467q0 296 -184 474q-98 94 -230 94zM811 1274q305 0 503 -188t197 -468q0 -180 -93 -332t-248 -237q-155 -86 -357 -86q-307 -1 -505 189t-198 455t187 454q97 97 235 155t279 58z" />
    <glyph glyph-name="Otilde" unicode="&#xd5;" horiz-adv-x="1624" 
d="M901 1405q-14 0 -123 13q-110 13 -134 6t-53 -46t-43 -39q-14 1 -32 17t-18 29t42 84q71 118 136 116q23 0 118 -11t158 -9q26 3 58 35t40 39q21 20 47 -19q17 -27 9 -37q-84 -106 -117 -142t-88 -36zM774 1174q-64 0 -124 -34t-89 -63q-131 -143 -131 -430
q0 -231 116 -408t318 -178q54 0 110 26t83 52q131 123 131 467q0 296 -184 474q-98 94 -230 94zM811 1274q305 0 503 -188t197 -468q0 -180 -93 -332t-248 -237q-155 -86 -357 -86q-307 -1 -505 189t-198 455t187 454q97 97 235 155t279 58z" />
    <glyph glyph-name="Odieresis" unicode="&#xd6;" horiz-adv-x="1624" 
d="M891 1487q1 59 39 97t102 38t92 -47q29 -47 29 -99t-45 -86t-91 -34t-86 36t-40 95zM605 1622q62 0 91 -47t29 -99t-44 -86t-90 -34t-86 36t-40 95t39 97t101 38zM774 1174q-64 0 -124 -34t-89 -63q-131 -143 -131 -430q0 -231 116 -408t318 -178q54 0 110 26t83 52
q131 123 131 467q0 296 -184 474q-98 94 -230 94zM811 1274q305 0 503 -188t197 -468q0 -180 -93 -332t-248 -237q-155 -86 -357 -86q-307 -1 -505 189t-198 455t187 454q97 97 235 155t279 58z" />
    <glyph glyph-name="multiply" unicode="&#xd7;" horiz-adv-x="1323" 
d="M1138 87q-25 -60 -64 -68q-19 -3 -30 4l-382 366q-12 12 -25 2l-356 -346q-8 -8 -30 -7q-41 2 -66 58q-13 31 -5 41l359 352q7 14 -2 23l-355 342q-10 10 13 49t45 62q33 21 63 -9l348 -340q12 -14 25 -2l350 351q12 12 30 15t25 -3q31 -29 46 -63t-1 -48l-356 -352
q-2 -2 0 -10t4 -10l371 -363q8 -8 -7 -44z" />
    <glyph glyph-name="Oslash" unicode="&#xd8;" horiz-adv-x="1656" 
d="M874 61q123 0 213 91q141 135 142 454q0 154 -74 305q-13 23 -27 7l-538 -703q-10 -16 2 -29q121 -125 282 -125zM418 653q0 -182 86 -342q8 -18 18 -2l543 701q14 16 -2 32q-123 132 -267 132t-237 -101q-141 -156 -141 -420zM848 -37q-196 0 -361 74q-16 6 -32 -10
l-78 -99q-5 -8 -21 -11t-26 5q-23 12 -39 38t-8 38l75 94q7 7 -4 23q-244 207 -243 499q0 264 190 451q101 101 241 155t294 54t338 -84q14 -8 24 6q55 63 75 83t38 7q17 -8 37 -32t14 -31l-64 -86q-8 -12 5 -25q244 -203 243 -494q0 -176 -96 -322t-251 -240t-351 -93z" />
    <glyph glyph-name="Ugrave" unicode="&#xd9;" horiz-adv-x="1548" 
d="M641 1651q39 0 84 -43q127 -113 190 -189q72 -72 4 -99q-32 -11 -57 -1q-125 53 -299 147q-41 23 -41 61t40 81t79 43zM1530 1200q0 -32 -72 -56t-91 -48t-25 -66q-6 -41 -25 -414q-12 -226 -55 -338t-127 -194q-123 -121 -361 -121q-129 0 -245 43t-175 125
q-78 102 -99 221q-22 120 -22 328t-8 348q-4 60 -23 78t-85 38t-66 56q0 43 99 43l268 -10l203 6q37 0 59 -14q46 -29 -1 -64q-24 -16 -72 -27t-67 -38q-47 -67 -24 -566q12 -229 96 -313q102 -92 242 -92q285 0 324 317q14 98 14 346t-22 289t-126 64q-70 18 -69 57
q0 14 21 28q22 13 57 13l174 -6l231 10q72 0 72 -43z" />
    <glyph glyph-name="Uacute" unicode="&#xda;" horiz-adv-x="1548" 
d="M1143 1522q0 -30 -51 -56q-135 -70 -304 -129q-78 -29 -102 17q-12 25 35 67q119 111 250 209q18 14 46 18t38 1q29 -9 59 -53t29 -74zM1530 1200q0 -32 -72 -56t-91 -48t-25 -66q-6 -41 -25 -414q-12 -226 -55 -338t-127 -194q-123 -121 -361 -121q-129 0 -245 43
t-175 125q-78 102 -99 221q-22 120 -22 328t-8 348q-4 60 -23 78t-85 38t-66 56q0 43 99 43l268 -10l203 6q37 0 59 -14q46 -29 -1 -64q-24 -16 -72 -27t-67 -38q-47 -67 -24 -566q12 -229 96 -313q102 -92 242 -92q285 0 324 317q14 98 14 346t-22 289t-126 64
q-70 18 -69 57q0 14 21 28q22 13 57 13l174 -6l231 10q72 0 72 -43z" />
    <glyph glyph-name="Ucircumflex" unicode="&#xdb;" horiz-adv-x="1548" 
d="M840 1651q29 0 92 -60q37 -31 186 -178q33 -33 29 -57t-36 -25q-54 0 -263 127q-20 10 -38 0t-47 -27q-30 -17 -96 -56t-102 -40q-39 6 -30 35q8 29 34 55q12 10 79 77t115 108t77 41zM1530 1200q0 -32 -72 -56t-91 -48t-25 -66q-6 -41 -25 -414q-12 -226 -55 -338
t-127 -194q-123 -121 -361 -121q-129 0 -245 43t-175 125q-78 102 -99 221q-22 120 -22 328t-8 348q-4 60 -23 78t-85 38t-66 56q0 43 99 43l268 -10l203 6q37 0 59 -14q46 -29 -1 -64q-24 -16 -72 -27t-67 -38q-47 -67 -24 -566q12 -229 96 -313q102 -92 242 -92
q285 0 324 317q14 98 14 346t-22 289t-126 64q-70 18 -69 57q0 14 21 28q22 13 57 13l174 -6l231 10q72 0 72 -43z" />
    <glyph glyph-name="Udieresis" unicode="&#xdc;" horiz-adv-x="1548" 
d="M915 1472q0 60 39 98q38 38 102 38t93 -47t29 -99t-45 -87q-45 -34 -91 -34t-87 36q-40 36 -40 95zM630 1608q62 0 91 -47t29 -99t-44 -87q-44 -34 -90 -34t-87 36q-40 36 -40 95t39 98q40 38 102 38zM1530 1200q0 -32 -72 -56t-91 -48t-25 -66q-6 -41 -25 -414
q-12 -226 -55 -338t-127 -194q-123 -121 -361 -121q-129 0 -245 43t-175 125q-78 102 -99 221q-22 120 -22 328t-8 348q-4 60 -23 78t-85 38t-66 56q0 43 99 43l268 -10l203 6q37 0 59 -14q46 -29 -1 -64q-24 -16 -72 -27t-67 -38q-47 -67 -24 -566q12 -229 96 -313
q102 -92 242 -92q285 0 324 317q14 98 14 346t-22 289t-126 64q-70 18 -69 57q0 14 21 28q22 13 57 13l174 -6l231 10q72 0 72 -43z" />
    <glyph glyph-name="Yacute" unicode="&#xdd;" horiz-adv-x="1333" 
d="M1055 1522q0 -30 -51 -56q-135 -70 -304 -129q-78 -29 -102 17q-12 25 35 67q119 111 250 209q18 14 46 18t38 1q29 -9 59 -53t29 -74zM311 39q-1 35 71 54t92 45t24 102t4 235q0 51 -41 123q-57 111 -136 246t-124 194q-55 78 -143 104t-87 60q0 18 24 30t46 11l295 -10
l199 6q25 0 43 -12t18 -29q0 -31 -68 -55q-41 -14 -34 -48q8 -34 105 -205q96 -171 124 -212q13 -16 29 -3t92 150t104 197t19 82q-7 23 -67 41t-60 51q0 41 75 41l146 -4l223 8q25 0 42 -11q17 -10 17 -26t-18 -32t-47 -25q-117 -37 -189 -134q-73 -97 -165 -243t-112 -190
t-24 -99t-4 -297q2 -32 35 -54t111 -44q51 -14 51 -51q0 -17 -20 -31t-50 -14l-254 10l-264 -6q-82 0 -82 45z" />
    <glyph glyph-name="Thorn" unicode="&#xde;" horiz-adv-x="1275" 
d="M874 616q0 121 -71 194q-72 73 -199 73q-55 0 -90 -21q-6 -4 -13 -23t-7 -36v-375q0 -37 28 -51q43 -21 127 -21q85 0 155 70t70 190zM43 1202q0 37 84 37l244 -6l229 6q29 0 46 -13q18 -12 18 -30t-18 -32t-66 -23q-48 -10 -66 -37t-18 -105q0 -4 6 -11t28 -4t148 3
q209 0 345 -88t136 -270q0 -181 -146 -285t-335 -104q-6 0 -162 16q-18 -9 -18 -16q0 -82 22 -105t98 -45q77 -22 76 -53q0 -15 -16 -29t-37 -14l-266 6l-287 -12q-28 0 -50 14t-22 27q0 33 52 50t67 24q16 7 42 30t34 59t8 97l8 706q0 82 -26 107q-27 25 -111 47
q-47 16 -47 53z" />
    <glyph glyph-name="germandbls" unicode="&#xdf;" horiz-adv-x="1153" 
d="M190 414q0 206 -1 242t-23 36q-6 2 -38 8t-43 9q-11 4 -19 18t-7 25q8 25 107 86q23 12 24 34q20 213 142 345q146 157 332 157t279 -98t93 -203q0 -49 -15 -88t-31 -56t-34 -33q-20 -16 -55 -46q-35 -29 -51 -43q-45 -43 -45 -84t43 -77t138 -121t95 -216
q1 -90 -65 -166t-154 -122t-154 -46q-66 -1 -104 19q-39 20 -39 44t20 58q42 73 79 54q74 -50 121 -50t71 24t23 64q0 40 -29 76q-30 36 -100 92t-97 80t-53 71q-27 48 -27 108t56 116q16 16 127 111q82 74 82 205q0 87 -58 157t-137 70q-193 0 -205 -360q-4 -124 -3 -212
t1 -265t13 -279q4 -50 49 -68t45 -51q-1 -17 -17 -31t-34 -14l-185 6l-194 -6q-27 0 -46 13t-20 30q0 29 66 51t71 82q6 37 6 244z" />
    <glyph glyph-name="agrave" unicode="&#xe0;" horiz-adv-x="954" 
d="M426 145q54 0 102 48q14 25 15 59l6 123q0 14 -17 14q-96 -20 -167 -45q-63 -20 -64 -90q0 -45 35 -77q36 -32 90 -32zM850 139q31 0 63 15q5 2 11 -8t6 -25q0 -14 -10 -42t-17 -34q-68 -74 -172 -74q-131 0 -176 125q0 2 -10 5t-13 1q-66 -47 -131 -90q-59 -32 -121 -32
t-136 64q-73 64 -72 185q0 57 32 101t86 57q281 68 340 98q8 3 16 17t9 18v86q0 74 -65 116q-42 28 -90 28t-68 -33q-8 -20 -21 -117q-4 -27 -24 -43q-23 -23 -54 -22q-94 0 -131 18q-6 4 -15 19t-9 24q0 63 170 176q140 90 258 90t215 -100q27 -29 46 -86t19 -86l-8 -363
q0 -43 20 -65t52 -23zM380 1348q36 0 69 -76q63 -135 102 -254q6 -24 -2 -50t-27 -26q-43 0 -76 39q-137 152 -172 205q-20 34 -20 62t45 64t81 36z" />
    <glyph glyph-name="aacute" unicode="&#xe1;" horiz-adv-x="954" 
d="M426 145q54 0 102 48q14 25 15 59l6 123q0 14 -17 14q-96 -20 -167 -45q-63 -20 -64 -90q0 -45 35 -77q36 -32 90 -32zM850 139q31 0 63 15q5 2 11 -8t6 -25q0 -14 -10 -42t-17 -34q-68 -74 -172 -74q-131 0 -176 125q0 2 -10 5t-13 1q-66 -47 -131 -90q-59 -32 -121 -32
t-136 64q-73 64 -72 185q0 57 32 101t86 57q281 68 340 98q8 3 16 17t9 18v86q0 74 -65 116q-42 28 -90 28t-68 -33q-8 -20 -21 -117q-4 -27 -24 -43q-23 -23 -54 -22q-94 0 -131 18q-6 4 -15 19t-9 24q0 63 170 176q140 90 258 90t215 -100q27 -29 46 -86t19 -86l-8 -363
q0 -43 20 -65t52 -23zM574 1358q24 0 68 -27t46 -57q0 -51 -196 -270q-39 -49 -82 -50q-18 0 -24 30t5 60q67 180 91 232t46 67t46 15z" />
    <glyph glyph-name="acircumflex" unicode="&#xe2;" horiz-adv-x="954" 
d="M426 145q54 0 102 48q14 25 15 59l6 123q0 14 -17 14q-96 -20 -167 -45q-63 -20 -64 -90q0 -45 35 -77q36 -32 90 -32zM850 139q31 0 63 15q5 2 11 -8t6 -25q0 -14 -10 -42t-17 -34q-68 -74 -172 -74q-131 0 -176 125q0 2 -10 5t-13 1q-66 -47 -131 -90q-59 -32 -121 -32
t-136 64q-73 64 -72 185q0 57 32 101t86 57q281 68 340 98q8 3 16 17t9 18v86q0 74 -65 116q-42 28 -90 28t-68 -33q-8 -20 -21 -117q-4 -27 -24 -43q-23 -23 -54 -22q-94 0 -131 18q-6 4 -15 19t-9 24q0 63 170 176q140 90 258 90t215 -100q27 -29 46 -86t19 -86l-8 -363
q0 -43 20 -65t52 -23zM459 1335q31 0 76 -78q6 -12 56 -98t81 -145q12 -14 11 -48t-29 -34t-72 45q-41 52 -115 135q-17 18 -31 -4t-57 -70q-43 -49 -55 -65q-38 -37 -60 -37t-27 26t5 44q51 113 143 262q43 67 74 67z" />
    <glyph glyph-name="atilde" unicode="&#xe3;" horiz-adv-x="954" 
d="M426 145q54 0 102 48q14 25 15 59l6 123q0 14 -17 14q-96 -20 -167 -45q-63 -20 -64 -90q0 -45 35 -77q36 -32 90 -32zM850 139q31 0 63 15q5 2 11 -8t6 -25q0 -14 -10 -42t-17 -34q-68 -74 -172 -74q-131 0 -176 125q0 2 -10 5t-13 1q-66 -47 -131 -90q-59 -32 -121 -32
t-136 64q-73 64 -72 185q0 57 32 101t86 57q281 68 340 98q8 3 16 17t9 18v86q0 74 -65 116q-42 28 -90 28t-68 -33q-8 -20 -21 -117q-4 -27 -24 -43q-23 -23 -54 -22q-94 0 -131 18q-6 4 -15 19t-9 24q0 63 170 176q140 90 258 90t215 -100q27 -29 46 -86t19 -86l-8 -363
q0 -43 20 -65t52 -23zM338 1061q-20 1 -58 -37t-52 -38t-27 18q-14 20 -15 35t64 83t108 95q16 16 37 10q67 -31 141 -31t105 18q39 29 72 68q8 10 36 -8q27 -18 27 -32t-12 -24q-12 -12 -81 -86t-79 -85q-25 -19 -37 -19t-92 16t-137 17z" />
    <glyph glyph-name="adieresis" unicode="&#xe4;" horiz-adv-x="954" 
d="M426 145q54 0 102 48q14 25 15 59l6 123q0 14 -17 14q-96 -20 -167 -45q-63 -20 -64 -90q0 -45 35 -77q36 -32 90 -32zM850 139q31 0 63 15q5 2 11 -8t6 -25q0 -14 -10 -42t-17 -34q-68 -74 -172 -74q-131 0 -176 125q0 2 -10 5t-13 1q-66 -47 -131 -90q-59 -32 -121 -32
t-136 64q-73 64 -72 185q0 57 32 101t86 57q281 68 340 98q8 3 16 17t9 18v86q0 74 -65 116q-42 28 -90 28t-68 -33q-8 -20 -21 -117q-4 -27 -24 -43q-23 -23 -54 -22q-94 0 -131 18q-6 4 -15 19t-9 24q0 63 170 176q140 90 258 90t215 -100q27 -29 46 -86t19 -86l-8 -363
q0 -43 20 -65t52 -23zM641 1264q59 0 86 -44t27 -93t-42 -81t-85 -32t-81 33t-38 89t37 92t96 36zM274 1264q57 0 85 -44t28 -93t-42 -81t-85 -32t-80 33t-37 89t37 92t94 36z" />
    <glyph glyph-name="aring" unicode="&#xe5;" horiz-adv-x="954" 
d="M426 145q54 0 102 48q14 25 15 59l6 123q0 14 -17 14q-96 -20 -167 -45q-63 -20 -64 -90q0 -45 35 -77q36 -32 90 -32zM850 139q31 0 63 15q5 2 11 -8t6 -25q0 -14 -10 -42t-17 -34q-68 -74 -172 -74q-131 0 -176 125q0 2 -10 5t-13 1q-66 -47 -131 -90q-59 -32 -121 -32
t-136 64q-73 64 -72 185q0 57 32 101t86 57q281 68 340 98q8 3 16 17t9 18v86q0 74 -65 116q-42 28 -90 28t-68 -33q-8 -20 -21 -117q-4 -27 -24 -43q-23 -23 -54 -22q-94 0 -131 18q-6 4 -15 19t-9 24q0 63 170 176q140 90 258 90t215 -100q27 -29 46 -86t19 -86l-8 -363
q0 -43 20 -65t52 -23zM457 1221q-37 0 -64 -27t-27 -69q0 -41 28 -67q26 -26 64 -26t64 25t25 67t-27 70q-26 27 -63 27zM457 1313q82 1 135 -55t53 -132t-53 -131t-135 -55t-135 55t-54 131q0 76 54 132t135 55z" />
    <glyph glyph-name="ae" unicode="&#xe6;" horiz-adv-x="1359" 
d="M303 263q0 -56 36 -92q35 -36 99 -36t99 53q14 18 14 108l-2 66q0 10 -10 20t-21 7q-88 -18 -152 -44t-63 -82zM930 760q-66 0 -115 -62q-27 -33 -29 -75v-95q0 -6 6 -11t13 -3q137 39 207 64q53 20 49 57q0 41 -32 83q-33 42 -99 42zM414 752q-34 0 -57 -14
q-24 -14 -29 -29q-10 -41 -12 -89t-23 -61q-41 -31 -81 -32t-112 22q-6 2 -13 16t-7 21q0 57 92 131q80 72 188 110q86 37 147 37t120 -30t84 -62q12 -8 24 2q127 90 243 90t185 -48q119 -82 119 -218q0 -12 -14 -34t-39 -28t-432 -122q-14 -4 -15 -31q0 -113 39 -154
q74 -74 189 -73q81 0 145 30t90 50q9 4 23 -8t14 -36t-16 -47q-48 -69 -150 -119t-217 -51q-188 0 -281 129q-12 12 -32 2q-209 -131 -288 -131t-152 65t-72 171q0 135 114 174q59 20 189 57l127 35q18 5 34 19t17 22l-2 103q-2 35 -14 49q-19 38 -55 60t-70 22z" />
    <glyph glyph-name="ccedilla" unicode="&#xe7;" horiz-adv-x="894" 
d="M573 862q91 0 153 -20t85 -44t23 -71t-27 -84t-55 -37t-82 53q-98 94 -187 95q-59 0 -114 -58t-55 -206q0 -150 84 -239q85 -89 199 -89t208 78q8 6 22 -2q15 -8 15 -38t-41 -85q-74 -92 -195 -125l-74 -90q-6 -18 11 -23q121 -55 121 -145t-102 -158q-177 -118 -230 -33
q-10 16 -9 41t11 37q28 27 70 11t65 -17q23 0 39 18t16 48t-29 52q-30 22 -71 21h-33q-10 0 -24 14q-15 14 -15 28q0 13 19 34l137 147h-19q-166 0 -284 105q-47 41 -87 125t-40 182q0 258 217 391q137 84 278 84z" />
    <glyph glyph-name="egrave" unicode="&#xe8;" horiz-adv-x="927" 
d="M625 660q-1 38 -31 76t-86 38t-106 -50q-48 -50 -54 -110q-6 -25 10 -28q42 -4 106 -4t90 3t48 20t23 55zM330 434q0 -121 80 -201t211 -79q94 0 200 69q7 6 19 -3t12 -21q0 -51 -37 -88q-127 -135 -317 -135t-303 119q-113 120 -113 315q0 125 60 226q60 102 158 164
t208 62q213 0 301 -139q41 -66 41 -154q0 -18 -20 -43t-39 -24l-416 -6q-45 0 -45 -62zM429 1354q36 0 69 -76q63 -135 102 -254q6 -24 -2 -50t-27 -26q-43 0 -75 39q-136 152 -164 196q-28 43 -28 71t44 64q45 36 81 36z" />
    <glyph glyph-name="eacute" unicode="&#xe9;" horiz-adv-x="927" 
d="M625 660q-1 38 -31 76t-86 38t-106 -50q-48 -50 -54 -110q-6 -25 10 -28q42 -4 106 -4t90 3t48 20t23 55zM330 434q0 -121 80 -201t211 -79q94 0 200 69q7 6 19 -3t12 -21q0 -51 -37 -88q-127 -135 -317 -135t-303 119q-113 120 -113 315q0 125 60 226q60 102 158 164
t208 62q213 0 301 -139q41 -66 41 -154q0 -18 -20 -43t-39 -24l-416 -6q-45 0 -45 -62zM604 1329q24 -1 67 -27q44 -26 46 -57q0 -51 -197 -270q-39 -49 -82 -49q-18 0 -24 30t6 60q66 180 90 232t47 66q23 15 47 15z" />
    <glyph glyph-name="ecircumflex" unicode="&#xea;" horiz-adv-x="927" 
d="M625 660q-1 38 -31 76t-86 38t-106 -50q-48 -50 -54 -110q-6 -25 10 -28q42 -4 106 -4t90 3t48 20t23 55zM330 434q0 -121 80 -201t211 -79q94 0 200 69q7 6 19 -3t12 -21q0 -51 -37 -88q-127 -135 -317 -135t-303 119q-113 120 -113 315q0 125 60 226q60 102 158 164
t208 62q213 0 301 -139q41 -66 41 -154q0 -18 -20 -43t-39 -24l-416 -6q-45 0 -45 -62zM500 1317q31 0 75 -78q7 -12 57 -98t81 -146q12 -16 11 -49t-29 -33t-72 45q-23 29 -61 73t-54 65q-16 14 -30 -6t-58 -70q-43 -49 -55 -66q-37 -36 -59 -36t-28 26q-5 26 5 43
q51 113 143 262q43 68 74 68z" />
    <glyph glyph-name="edieresis" unicode="&#xeb;" horiz-adv-x="927" 
d="M625 660q-1 38 -31 76t-86 38t-106 -50q-48 -50 -54 -110q-6 -25 10 -28q42 -4 106 -4t90 3t48 20t23 55zM330 434q0 -121 80 -201t211 -79q94 0 200 69q7 6 19 -3t12 -21q0 -51 -37 -88q-127 -135 -317 -135t-303 119q-113 120 -113 315q0 125 60 226q60 102 158 164
t208 62q213 0 301 -139q41 -66 41 -154q0 -18 -20 -43t-39 -24l-416 -6q-45 0 -45 -62zM703 1262q59 0 85 -44t27 -93q0 -49 -42 -81q-86 -67 -166 0q-38 34 -38 90t37 92q38 36 97 36zM336 1262q57 0 85 -44t28 -93t-42 -81q-87 -67 -165 0q-37 34 -37 90t37 92t94 36z" />
    <glyph glyph-name="igrave" unicode="&#xec;" horiz-adv-x="600" 
d="M188 510q0 96 -4 121q0 25 -63 69q-31 26 -31 42t11 28t20 14q233 84 285 84q8 0 16 -22t8 -41v-354q2 -238 8 -291t76 -78q57 -16 57 -52t-69 -36l-193 6l-211 -8q-72 0 -71 37q1 33 59 51t72 36q30 40 30 394zM216 1360q36 0 69 -76q63 -135 102 -254q6 -24 -2 -50
t-27 -26q-43 0 -75 39q-137 152 -172 205q-21 35 -21 63q0 27 45 63t81 36z" />
    <glyph glyph-name="iacute" unicode="&#xed;" horiz-adv-x="600" 
d="M188 510q0 96 -4 121q0 25 -63 69q-31 26 -31 42t11 28t20 14q233 84 285 84q8 0 16 -22t8 -41v-354q2 -238 8 -291t76 -78q57 -16 57 -52t-69 -36l-193 6l-211 -8q-72 0 -71 37q1 33 59 51t72 36q30 40 30 394zM404 1333q24 -1 68 -27t46 -57q0 -51 -196 -270
q-39 -49 -82 -49q-18 0 -24 30t5 60q67 180 91 232t46 66q22 15 46 15z" />
    <glyph glyph-name="icircumflex" unicode="&#xee;" horiz-adv-x="600" 
d="M188 510q0 96 -4 121q0 25 -63 69q-31 26 -31 42t11 28t20 14q233 84 285 84q8 0 16 -22t8 -41v-354q2 -238 8 -291t76 -78q57 -16 57 -52t-69 -36l-193 6l-211 -8q-72 0 -71 37q1 33 59 51t72 36q30 40 30 394zM287 1323q31 0 75 -78q6 -12 56 -98t82 -146
q12 -14 11 -48t-30 -33q-27 0 -71 45q-23 29 -61 73t-54 64q-17 14 -31 -6t-57 -70q-43 -49 -55 -65q-38 -37 -60 -37t-27 26t5 43q51 113 143 262q43 68 74 68z" />
    <glyph glyph-name="idieresis" unicode="&#xef;" horiz-adv-x="600" 
d="M188 510q0 96 -4 121q0 25 -63 69q-31 26 -31 42t11 28t20 14q233 84 285 84q8 0 16 -22t8 -41v-354q2 -238 8 -291t76 -78q57 -16 57 -52t-69 -36l-193 6l-211 -8q-72 0 -71 37q1 33 59 51t72 36q30 40 30 394zM485 1266q59 0 86 -44t27 -93t-42 -81t-85 -32t-81 33
t-38 89t37 92t96 36zM119 1266q57 0 85 -44t27 -79q0 -63 -42 -95t-85 -32q-44 0 -80 33t-36 89t37 92t94 36z" />
    <glyph glyph-name="eth" unicode="&#xf0;" horiz-adv-x="1071" 
d="M559 864q55 0 87 -9t26 15q-18 82 -103 183q-2 4 -11 8t-17 0l-213 -98q-20 -12 -33 0q-29 29 -26 50t12 25l196 101q12 4 -4 14q-109 86 -266 129q-12 4 -24 18q-11 14 -11 25q0 41 70 41q176 0 383 -137q14 -10 22 -6l201 102q4 2 15 0t14 -4q25 -41 25 -56t-38 -38
l-129 -70q-4 -2 -3 -8t5 -8q254 -269 254 -607t-207 -481q-113 -78 -264 -78q-192 0 -316 124q-124 125 -124 287t64 262t180 158t235 58zM557 768q-84 0 -140 -79q-57 -79 -57 -239t52 -272q52 -113 149 -112q78 0 133 110q39 78 39 266t-41 246q-51 80 -135 80z" />
    <glyph glyph-name="ntilde" unicode="&#xf1;" horiz-adv-x="1150" 
d="M186 608q0 25 -12 42t-48 47t-36 43q0 12 12 32t28 26t91 30q76 22 111 40t48 17q14 1 28 -11t14 -22l-6 -84q-2 -20 14 -8q150 102 277 102t206 -100q66 -94 69 -320t4 -260t11 -52t45 -38q57 -25 58 -57q0 -41 -68 -41l-184 6l-154 -6q-66 0 -65 39q0 31 43 45
q59 23 61 92q2 100 2 273t-35 219q-36 46 -114 45q-78 0 -135 -29q-7 -2 -15 -18t-8 -31v-453q0 -23 3 -35q7 -30 59 -52t53 -52q0 -43 -68 -43l-180 6l-203 -6q-66 0 -65 33q0 37 45 51q68 27 84 44q16 16 23 94t7 392zM438 1063q-20 1 -58 -37t-51 -38t-27 18
q-14 20 -15 29q1 25 65 91t107 93q16 16 37 10q68 -31 142 -31t103 19q39 29 72 67q8 10 36 -8t28 -32q-1 -14 -13 -24q-12 -12 -81 -86t-78 -85q-25 -19 -37 -19t-92 16t-138 17z" />
    <glyph glyph-name="ograve" unicode="&#xf2;" horiz-adv-x="1099" 
d="M524 762q-68 0 -104 -49q-68 -91 -68 -235t33 -233t74 -122q55 -49 117 -49t112 66t49 238t-59 278t-154 106zM555 862q211 0 338 -132t127 -298q0 -207 -137 -332t-343 -125q-206 1 -333 127t-127 324t166 330q55 46 147 76t162 30zM336 1238q0 28 45 64t81 35
q36 0 68 -75q63 -135 103 -254q6 -23 -2 -50t-27 -26q-43 0 -76 39q-137 152 -172 205q-20 34 -20 62z" />
    <glyph glyph-name="oacute" unicode="&#xf3;" horiz-adv-x="1099" 
d="M524 762q-68 0 -104 -49q-68 -91 -68 -235t33 -233t74 -122q55 -49 117 -49t112 66t49 238t-59 278t-154 106zM555 862q211 0 338 -132t127 -298q0 -207 -137 -332t-343 -125q-206 1 -333 127t-127 324t166 330q55 46 147 76t162 30zM642 1329q24 -1 68 -27t46 -57
q0 -51 -197 -270q-39 -49 -82 -49q-18 0 -24 30t6 60q66 180 90 232t47 66q22 15 46 15z" />
    <glyph glyph-name="ocircumflex" unicode="&#xf4;" horiz-adv-x="1099" 
d="M524 762q-68 0 -104 -49q-68 -91 -68 -235t33 -233t74 -122q55 -49 117 -49t112 66t49 238t-59 278t-154 106zM555 862q211 0 338 -132t127 -298q0 -207 -137 -332t-343 -125q-206 1 -333 127t-127 324t166 330q55 46 147 76t162 30zM541 1317q31 0 75 -78q6 -12 56 -98
t82 -146q12 -16 11 -49t-29 -33t-72 45q-23 29 -61 73t-54 65q-17 14 -31 -6t-57 -70q-43 -49 -55 -66q-38 -36 -60 -36t-28 25q-5 26 6 44q51 113 143 262q43 68 74 68z" />
    <glyph glyph-name="otilde" unicode="&#xf5;" horiz-adv-x="1099" 
d="M524 762q-68 0 -104 -49q-68 -91 -68 -235t33 -233t74 -122q55 -49 117 -49t112 66t49 238t-59 278t-154 106zM555 862q211 0 338 -132t127 -298q0 -207 -137 -332t-343 -125q-206 1 -333 127t-127 324t166 330q55 46 147 76t162 30zM408 1038q-20 0 -58 -38t-52 -37
q-14 0 -28 19q-14 18 -14 28q0 24 64 91q64 66 108 93q16 16 37 10q67 -30 141 -30t105 18q39 29 71 68q8 10 36 -8t28 -32q0 -12 -12 -24t-82 -86q-68 -74 -78 -86q-25 -18 -37 -18t-92 16t-137 16z" />
    <glyph glyph-name="odieresis" unicode="&#xf6;" horiz-adv-x="1099" 
d="M524 762q-68 0 -104 -49q-68 -91 -68 -235t33 -233t74 -122q55 -49 117 -49t112 66t49 238t-59 278t-154 106zM555 862q211 0 338 -132t127 -298q0 -207 -137 -332t-343 -125q-206 1 -333 127t-127 324t166 330q55 46 147 76t162 30zM750 1266q59 0 86 -44t26 -79
q0 -63 -42 -95t-85 -32t-81 33t-38 89t37 92q38 36 97 36zM383 1266q57 0 85 -44t28 -93t-42 -81t-85 -32t-80 33t-37 89t37 92t94 36z" />
    <glyph glyph-name="divide" unicode="&#xf7;" horiz-adv-x="1323" 
d="M658 16q-54 0 -91 39t-37 91t38 86q38 36 91 36t91 -37t36 -87q0 -50 -36 -89q-38 -39 -92 -39zM98 480q0 20 12 58q11 38 19 37l1073 7q6 0 14 -14t9 -42q-1 -26 -13 -58t-26 -32l-1067 -4q-6 0 -14 14q-7 14 -7 34zM791 858q1 -51 -37 -86t-91 -35t-91 36t-37 85
q0 49 39 89q40 40 90 40t88 -39t39 -90z" />
    <glyph glyph-name="oslash" unicode="&#xf8;" horiz-adv-x="1101" 
d="M540 766q-74 0 -126 -51q-76 -88 -76 -256q0 -106 27 -180q4 -16 14 0l295 380q6 8 -2 27q-58 80 -132 80zM564 72q82 0 126 57q70 74 70 266q0 84 -27 164q-4 16 -16 2l-295 -383q-8 -12 2 -26q58 -80 140 -80zM578 862q94 0 190 -45q2 -2 10 -2t10 2l41 53q19 25 31 25
t32 -12q43 -25 28 -49l-50 -62q-6 -14 7 -27q67 -61 107 -148t40 -185t-45 -185q-45 -88 -107 -139q-133 -113 -323 -113q-115 0 -223 48q-16 6 -25 -5l-51 -63q-16 -16 -28 -16t-31 13q-40 31 -21 52l53 66q6 10 -4 20q-67 60 -103 148t-36 176q0 201 166 340q57 48 148 78
q90 30 184 30z" />
    <glyph glyph-name="ugrave" unicode="&#xf9;" horiz-adv-x="1124" 
d="M554 143q62 0 116 35q31 14 38 82t7 402q0 14 -10 36q-9 22 -19 27q-10 4 -39 13q-80 25 -80 55q1 14 21 29t49 16h115l174 6q8 0 18 -16t10 -33q0 -555 2 -617t35 -63q2 0 105 10q6 2 13 -10t7 -21q0 -68 -47 -76q-190 -23 -197 -24q-82 -20 -102 -20t-32 14
q-12 16 -13 32l-6 74q0 4 -7 9t-12 3q-166 -131 -313 -131q-47 0 -97 23t-72 46q-52 53 -52 128v477q0 35 -13 52t-59 41t-45 57q0 16 24 27t46 12l274 8q20 0 21 -68t-2 -233q-2 -166 1 -259t44 -122q35 -21 97 -21zM439 1331q36 0 69 -76q63 -135 102 -254q6 -23 -2 -49
t-26 -26q-43 0 -76 39q-137 152 -172 204q-20 35 -20 63t44 64q45 36 81 35z" />
    <glyph glyph-name="uacute" unicode="&#xfa;" horiz-adv-x="1124" 
d="M554 143q62 0 116 35q31 14 38 82t7 402q0 14 -10 36q-9 22 -19 27q-10 4 -39 13q-80 25 -80 55q1 14 21 29t49 16h115l174 6q8 0 18 -16t10 -33q0 -555 2 -617t35 -63q2 0 105 10q6 2 13 -10t7 -21q0 -68 -47 -76q-190 -23 -197 -24q-82 -20 -102 -20t-32 14
q-12 16 -13 32l-6 74q0 4 -7 9t-12 3q-166 -131 -313 -131q-47 0 -97 23t-72 46q-52 53 -52 128v477q0 35 -13 52t-59 41t-45 57q0 16 24 27t46 12l274 8q20 0 21 -68t-2 -233q-2 -166 1 -259t44 -122q35 -21 97 -21zM650 1341q24 -1 68 -27t46 -57q0 -51 -197 -270
q-39 -49 -82 -49q-18 0 -24 30t6 60q66 180 90 232t47 66q22 15 46 15z" />
    <glyph glyph-name="ucircumflex" unicode="&#xfb;" horiz-adv-x="1124" 
d="M554 143q62 0 116 35q31 14 38 82t7 402q0 14 -10 36q-9 22 -19 27q-10 4 -39 13q-80 25 -80 55q1 14 21 29t49 16h115l174 6q8 0 18 -16t10 -33q0 -555 2 -617t35 -63q2 0 105 10q6 2 13 -10t7 -21q0 -68 -47 -76q-190 -23 -197 -24q-82 -20 -102 -20t-32 14
q-12 16 -13 32l-6 74q0 4 -7 9t-12 3q-166 -131 -313 -131q-47 0 -97 23t-72 46q-52 53 -52 128v477q0 35 -13 52t-59 41t-45 57q0 16 24 27t46 12l274 8q20 0 21 -68t-2 -233q-2 -166 1 -259t44 -122q35 -21 97 -21zM541 1337q31 0 75 -77q6 -12 56 -98t72 -124t21 -71
t-29 -33t-72 45q-23 29 -61 73t-54 64q-17 14 -31 -6t-57 -70q-43 -49 -55 -65q-38 -37 -60 -37t-28 26q-5 26 6 44q51 113 143 262q43 67 74 67z" />
    <glyph glyph-name="udieresis" unicode="&#xfc;" horiz-adv-x="1124" 
d="M554 143q62 0 116 35q31 14 38 82t7 402q0 14 -10 36q-9 22 -19 27q-10 4 -39 13q-80 25 -80 55q1 14 21 29t49 16h115l174 6q8 0 18 -16t10 -33q0 -555 2 -617t35 -63q2 0 105 10q6 2 13 -10t7 -21q0 -68 -47 -76q-190 -23 -197 -24q-82 -20 -102 -20t-32 14
q-12 16 -13 32l-6 74q0 4 -7 9t-12 3q-166 -131 -313 -131q-47 0 -97 23t-72 46q-52 53 -52 128v477q0 35 -13 52t-59 41t-45 57q0 16 24 27t46 12l274 8q20 0 21 -68t-2 -233q-2 -166 1 -259t44 -122q35 -21 97 -21zM731 1266q59 0 86 -44t27 -93t-42 -81t-85 -32t-81 33
t-38 89t37 92t96 36zM365 1266q57 0 85 -44t27 -79q0 -63 -42 -95t-85 -32t-80 33t-37 89t37 92q38 36 95 36z" />
    <glyph glyph-name="yacute" unicode="&#xfd;" horiz-adv-x="931" 
d="M256 -471q-53 0 -86 40t-33 89t34 86t83 37h63q25 0 45 45q56 128 50 163q-5 35 -20 68q-16 33 -36 89t-104 252t-125 282q-25 47 -100 82q-52 20 -52 51q-1 11 15 23t41 12l262 -10l123 4q53 0 53 -37q0 -29 -53 -49q-23 -8 -27 -22t8 -50q90 -240 150 -367q4 -8 11 -7
t9 7q63 145 135 355q12 33 1 52t-52 34q-53 14 -53 47q0 14 18 25t39 12l107 -4l160 8q24 0 38 -11t15 -26q0 -33 -53 -51q-37 -10 -62 -32q-26 -22 -70 -110t-196 -471t-207 -538q-4 -18 -41 -48t-90 -30zM634 1333q24 -1 68 -27t46 -57q0 -51 -197 -270q-39 -49 -82 -49
q-19 0 -25 30t7 60q66 180 90 232t47 66q22 15 46 15z" />
    <glyph glyph-name="thorn" unicode="&#xfe;" horiz-adv-x="1097" 
d="M512 727q-53 0 -90 -20q-20 -8 -22 -42q-2 -33 -3 -247q0 -214 20 -246q19 -32 69 -62t81 -30q68 0 115 55q78 85 78 233t-64 254t-184 105zM-20 -428q0 37 58 54t77 44q18 27 22 86q14 182 15 566v278q0 477 -8 514t-60 66q-41 30 -41 52t43 44q16 10 108 35t130 39
q36 14 47 14q35 0 35 -59q-10 -209 -11 -498q4 -14 15 -8q143 65 229 65q163 0 271 -122t108 -278t-79 -268t-218 -173q-31 -14 -136 -36t-169 -5q-18 0 -19 -50q0 -117 2 -179q2 -63 28 -79t86 -27t60 -44q0 -19 -16 -33t-41 -14l-211 -9l-262 -14q-23 0 -43 11
q-20 10 -20 28z" />
    <glyph glyph-name="ydieresis" unicode="&#xff;" horiz-adv-x="931" 
d="M256 -471q-53 0 -86 40t-33 89t34 86t83 37h63q25 0 45 45q56 128 50 163q-5 35 -20 68q-16 33 -36 89t-104 252t-125 282q-25 47 -100 82q-52 20 -52 51q-1 11 15 23t41 12l262 -10l123 4q53 0 53 -37q0 -29 -53 -49q-23 -8 -27 -22t8 -50q90 -240 150 -367q4 -8 11 -7
t9 7q63 145 135 355q12 33 1 52t-52 34q-53 14 -53 47q0 14 18 25t39 12l107 -4l160 8q24 0 38 -11t15 -26q0 -33 -53 -51q-37 -10 -62 -32q-26 -22 -70 -110t-196 -471t-207 -538q-4 -18 -41 -48t-90 -30zM703 1266q59 0 85 -44t27 -93q0 -49 -42 -81t-85 -32t-81 33
t-38 89t37 92q38 36 97 36zM336 1266q57 0 85 -44t28 -93t-42 -81t-85 -32t-80 33t-37 89t37 92t94 36z" />
    <glyph glyph-name="Amacron" unicode="&#x100;" horiz-adv-x="1427" 
d="M979 1447q0 -30 -16 -57t-33 -26l-434 -6q-6 0 -18 11t-11 22q0 51 18 92q11 20 27 20l449 2q6 0 12 -14t6 -44zM632 524q108 0 124 1t21 11t-5 46q-10 37 -62 173t-69 167q-12 18 -27 0q-63 -141 -135 -371q-2 -8 4 -16q6 -7 23 -9t126 -2zM-6 31q0 35 66 59t101 50
q34 26 68 102q94 197 338 848q8 16 8 38t19 35q104 70 127 88q23 23 41 23t27 -8q11 -9 89 -225t207 -529t147 -344t49 -45t87 -36t55 -67q0 -31 -65 -30l-311 10l-199 -8q-70 0 -70 35q0 41 58 62q100 37 69 114q-25 84 -61 166q-2 8 -18 18t-42 13t-162 3t-165 -5t-41 -31
q-49 -133 -49 -191t96 -88q53 -20 53 -47q6 -19 -24 -33t-54 -14l-145 6l-225 -10q-74 0 -74 41z" />
    <glyph glyph-name="amacron" unicode="&#x101;" horiz-adv-x="954" 
d="M426 145q54 0 102 48q14 25 15 59l6 123q0 14 -17 14q-96 -20 -167 -45q-63 -20 -64 -90q0 -45 35 -77q36 -32 90 -32zM850 139q31 0 63 15q5 2 11 -8t6 -25q0 -14 -10 -42t-17 -34q-68 -74 -172 -74q-131 0 -176 125q0 2 -10 5t-13 1q-66 -47 -131 -90q-59 -32 -121 -32
t-136 64q-73 64 -72 185q0 57 32 101t86 57q281 68 340 98q8 3 16 17t9 18v86q0 74 -65 116q-42 28 -90 28t-68 -33q-8 -20 -21 -117q-4 -27 -24 -43q-23 -23 -54 -22q-94 0 -131 18q-6 4 -15 19t-9 24q0 63 170 176q140 90 258 90t215 -100q27 -29 46 -86t19 -86l-8 -363
q0 -43 20 -65t52 -23zM731 1134q0 -28 -19 -62t-34 -34l-426 -8q-4 0 -12 12t-8 44t17 65q18 33 32 33l430 6q6 0 13 -14t7 -42z" />
    <glyph glyph-name="Abreve" unicode="&#x102;" horiz-adv-x="1427" 
d="M485 1628q35 0 47 -39q52 -117 178 -117t179 105q23 43 47 43q33 0 33 -37t-13 -77q-57 -189 -270 -189q-90 1 -162 67t-75 191q0 17 11 35t25 18zM632 524q108 0 124 1t21 11t-5 46q-10 37 -62 173t-69 167q-12 18 -27 0q-63 -141 -135 -371q-2 -8 4 -16q6 -7 23 -9
t126 -2zM-6 31q0 35 66 59t101 50q34 26 68 102q94 197 338 848q8 16 8 38t19 35q104 70 127 88q23 23 41 23t27 -8q11 -9 89 -225t207 -529t147 -344t49 -45t87 -36t55 -67q0 -31 -65 -30l-311 10l-199 -8q-70 0 -70 35q0 41 58 62q100 37 69 114q-25 84 -61 166
q-2 8 -18 18t-42 13t-162 3t-165 -5t-41 -31q-49 -133 -49 -191t96 -88q53 -20 53 -47q6 -19 -24 -33t-54 -14l-145 6l-225 -10q-74 0 -74 41z" />
    <glyph glyph-name="abreve" unicode="&#x103;" horiz-adv-x="954" 
d="M426 145q54 0 102 48q14 25 15 59l6 123q0 14 -17 14q-96 -20 -167 -45q-63 -20 -64 -90q0 -45 35 -77q36 -32 90 -32zM850 139q31 0 63 15q5 2 11 -8t6 -25q0 -14 -10 -42t-17 -34q-68 -74 -172 -74q-131 0 -176 125q0 2 -10 5t-13 1q-66 -47 -131 -90q-59 -32 -121 -32
t-136 64q-73 64 -72 185q0 57 32 101t86 57q281 68 340 98q8 3 16 17t9 18v86q0 74 -65 116q-42 28 -90 28t-68 -33q-8 -20 -21 -117q-4 -27 -24 -43q-23 -23 -54 -22q-94 0 -131 18q-6 4 -15 19t-9 24q0 63 170 176q140 90 258 90t215 -100q27 -29 46 -86t19 -86l-8 -363
q0 -43 20 -65t52 -23zM462 967q-102 0 -165 65q-61 66 -68 185q-3 25 9 45t28 20q41 0 53 -47q47 -113 150 -113t141 113q20 47 45 47q43 0 39 -55q-10 -100 -70 -180t-162 -80z" />
    <glyph glyph-name="Aogonek" unicode="&#x104;" horiz-adv-x="1427" 
d="M632 524q108 0 124 1t21 11t-6 47q-11 38 -63 174q-52 135 -66 159t-28 6q-63 -141 -135 -371q-2 -8 4 -16q6 -7 23 -9t126 -2zM-6 31q0 35 66 59t101 50q34 26 68 102q78 162 340 850l7 49t18 24q88 53 127 86q21 23 41 23t30 -8t71 -184q60 -176 206 -529
q145 -354 163 -385t49 -45t87 -36t55 -67q0 -31 -65 -30l-160 6q-74 -59 -123 -130t-49 -118t28 -74q28 -26 64 -26t119 22q4 2 17 -13t1 -45t-16 -34q-80 -100 -219 -100q-96 0 -143 56t-47 136t72 170q73 90 190 160l-244 -8q-70 0 -70 35q0 41 58 62q100 37 69 114
q-25 84 -61 166q-2 8 -18 18t-42 13t-162 3t-165 -5t-41 -31q-49 -133 -49 -191t96 -88q53 -20 53 -47q6 -19 -24 -33t-54 -14l-145 6l-225 -10q-74 0 -74 41z" />
    <glyph glyph-name="aogonek" unicode="&#x105;" horiz-adv-x="954" 
d="M426 145q54 0 102 48q14 25 15 59l6 123q0 14 -17 14q-96 -20 -167 -45q-63 -20 -64 -90q0 -45 35 -77q36 -32 90 -32zM850 139q31 0 63 15q5 2 11 -8t6 -25q0 -14 -10 -42q-10 -27 -27 -45t-57 -42q-174 -139 -174 -252q0 -39 28 -66q28 -26 67 -26q40 0 115 22
q4 2 14 -9t9 -23q0 -12 -8 -34t-13 -26q-33 -41 -93 -71q-60 -29 -143 -29t-128 58t-45 122q0 152 233 315q-102 16 -143 123q0 2 -10 5t-13 1q-66 -47 -131 -90q-59 -32 -121 -32t-136 64q-73 64 -72 185q0 57 32 101t86 57q281 68 340 98q8 3 16 17t9 18v86q0 74 -65 116
q-42 28 -90 28t-68 -33q-8 -20 -21 -117q-4 -27 -24 -43q-23 -23 -54 -22q-94 0 -131 18q-6 4 -15 19t-9 24q0 62 154 164t273 102q118 0 216 -100q27 -29 46 -86t19 -86l-8 -363q0 -43 20 -65t52 -23z" />
    <glyph glyph-name="Cacute" unicode="&#x106;" horiz-adv-x="1437" 
d="M1135 1534q0 -31 -52 -55q-135 -70 -303 -129q-78 -29 -102 16q-12 25 35 68q119 110 250 208q18 14 46 18t38 1q29 -10 59 -53t29 -74zM1254 852q-22 0 -44 61q-23 74 -47 114q-25 40 -78 75q-109 74 -229 74q-72 0 -150 -36q-171 -78 -237 -278q-37 -109 -37 -214
q0 -104 33 -210t88 -181t153 -127t191 -52q92 0 199 55q41 23 100 121t86 98q41 0 41 -78q0 -8 -19 -90q-20 -82 -22 -95t-13 -29t-16 -19q-57 -27 -176 -53t-213 -25q-180 0 -338 55t-258 168q-158 172 -157 422q0 340 280 535q78 53 207 92q130 39 262 39t264 -37t138 -37
q8 0 21 -13t13 -24l17 -223q-1 -40 -19 -64t-40 -24z" />
    <glyph glyph-name="cacute" unicode="&#x107;" horiz-adv-x="894" 
d="M573 862q91 0 153 -20t85 -44t23 -70t-27 -84t-55 -38t-82 53q-98 94 -187 95q-59 0 -114 -58t-55 -206t84 -238q85 -90 199 -90t208 78q8 6 22 -2q41 -23 -26 -123q-49 -66 -133 -103t-179 -37q-166 0 -284 105q-47 41 -87 125t-40 182q0 258 217 391q137 84 278 84z
M622 1339q24 -1 67 -27q44 -26 46 -57q0 -51 -196 -270q-39 -49 -82 -49q-19 0 -25 30t6 60q66 180 90 232t47 66q23 15 47 15z" />
    <glyph glyph-name="Ccircumflex" unicode="&#x108;" horiz-adv-x="1437" 
d="M825 1653q29 0 93 -60q37 -31 186 -178q33 -33 29 -57t-36 -25q-54 0 -263 127q-20 10 -38 0t-47 -27q-30 -17 -96 -56t-102 -40q-39 6 -31 35t28 47t86 85q67 67 99 98q63 51 92 51zM1254 852q-22 0 -44 61q-23 74 -47 114q-25 40 -78 75q-109 74 -229 74
q-72 0 -150 -36q-171 -78 -237 -278q-37 -109 -37 -214q0 -104 33 -210t88 -181t153 -127t191 -52q92 0 199 55q41 23 100 121t86 98q41 0 41 -78q0 -8 -19 -90q-20 -82 -22 -95t-13 -29t-16 -19q-57 -27 -176 -53t-213 -25q-180 0 -338 55t-258 168q-158 172 -157 422
q0 340 280 535q78 53 207 92q130 39 262 39t264 -37t138 -37q8 0 21 -13t13 -24l17 -223q-1 -40 -19 -64t-40 -24z" />
    <glyph glyph-name="ccircumflex" unicode="&#x109;" horiz-adv-x="894" 
d="M573 862q91 0 153 -20t85 -44t23 -70t-27 -84t-55 -38t-82 53q-98 94 -187 95q-59 0 -114 -58t-55 -206t84 -238q85 -90 199 -90t208 78q8 6 22 -2q41 -23 -26 -123q-49 -66 -133 -103t-179 -37q-166 0 -284 105q-47 41 -87 125t-40 182q0 258 217 391q137 84 278 84z
M506 1317q31 0 76 -78q6 -12 56 -98t81 -146q12 -16 11 -49t-29 -33t-72 45q-23 29 -61 73t-54 65q-14 14 -30 -6t-58 -70q-43 -49 -55 -66q-37 -36 -59 -36t-28 26q-5 26 5 43q51 113 143 262q43 68 74 68z" />
    <glyph glyph-name="Cdotaccent" unicode="&#x10a;" horiz-adv-x="1437" 
d="M700 1494q0 66 41 106t109 40t102 -48t35 -108q0 -60 -49 -98q-102 -77 -194 3q-44 39 -44 105zM1254 852q-22 0 -44 61q-23 74 -47 114q-25 40 -78 75q-109 74 -229 74q-72 0 -150 -36q-171 -78 -237 -278q-37 -109 -37 -214q0 -104 33 -210t88 -181t153 -127t191 -52
q92 0 199 55q41 23 100 121t86 98q41 0 41 -78q0 -8 -19 -90q-20 -82 -22 -95t-13 -29t-16 -19q-57 -27 -176 -53t-213 -25q-180 0 -338 55t-258 168q-158 172 -157 422q0 340 280 535q78 53 207 92q130 39 262 39t264 -37t138 -37q8 0 21 -13t13 -24l17 -223
q-1 -40 -19 -64t-40 -24z" />
    <glyph glyph-name="cdotaccent" unicode="&#x10b;" horiz-adv-x="894" 
d="M573 862q91 0 153 -20t85 -44t23 -70t-27 -84t-55 -38t-82 53q-98 94 -187 95q-59 0 -114 -58t-55 -206t84 -238q85 -90 199 -90t208 78q8 6 22 -2q41 -23 -26 -123q-49 -66 -133 -103t-179 -37q-166 0 -284 105q-47 41 -87 125t-40 182q0 258 217 391q137 84 278 84z
M379 1140q-1 64 41 105t110 41t99 -50t30 -89q0 -74 -47 -111t-97 -37t-93 39q-43 38 -43 102z" />
    <glyph glyph-name="Ccaron" unicode="&#x10c;" horiz-adv-x="1437" 
d="M831 1339q-29 0 -92 60q-82 72 -186 176q-35 33 -30 59t36 25q56 0 266 -127q20 -10 35 0q47 31 174 100q45 23 69 23q48 0 30 -48q-9 -22 -27 -39t-61 -59t-114 -106t-100 -64zM1254 852q-22 0 -44 61q-23 74 -47 114q-25 40 -78 75q-109 74 -229 74q-72 0 -150 -36
q-171 -78 -237 -278q-37 -109 -37 -214q0 -104 33 -210t88 -181t153 -127t191 -52q92 0 199 55q41 23 100 121t86 98q41 0 41 -78q0 -8 -19 -90q-20 -82 -22 -95t-13 -29t-16 -19q-57 -27 -176 -53t-213 -25q-180 0 -338 55t-258 168q-158 172 -157 422q0 340 280 535
q78 53 207 92q130 39 262 39t264 -37t138 -37q8 0 21 -13t13 -24l17 -223q-1 -40 -19 -64t-40 -24z" />
    <glyph glyph-name="ccaron" unicode="&#x10d;" horiz-adv-x="894" 
d="M573 862q91 0 153 -20t85 -44t23 -70t-27 -84t-55 -38t-82 53q-98 94 -187 95q-59 0 -114 -58t-55 -206t84 -238q85 -90 199 -90t208 78q8 6 22 -2q41 -23 -26 -123q-49 -66 -133 -103t-179 -37q-166 0 -284 105q-47 41 -87 125t-40 182q0 258 217 391q137 84 278 84z
M519 938q-49 0 -183 263q-42 82 -44 102q-5 38 32 38q31 0 67 -45q72 -82 115 -135q17 -17 31 0q53 65 133 149q26 28 46 27q20 1 27 -23q6 -24 -6 -44q-35 -80 -145 -264q-41 -68 -73 -68z" />
    <glyph glyph-name="Dcaron" unicode="&#x10e;" horiz-adv-x="1550" 
d="M719 1307q-29 -1 -101 65t-178 170q-35 33 -29 59q10 53 115 1q105 -53 187 -103q20 -10 35 0q47 31 174 100q44 23 68 23t31 -13t-1 -35t-26 -39t-72 -69q-53 -52 -114 -105q-60 -54 -89 -54zM680 1147q-78 0 -111 -19q-6 -2 -18 -20t-12 -27q-10 -160 -11 -329v-144
q0 -252 12 -342t58 -133q23 -15 71 -33q49 -18 79 -18t111 33q277 113 278 493q0 260 -146 404q-65 66 -149 100t-162 35zM1446 623q0 -217 -118 -367q-92 -117 -198 -174q-184 -98 -456 -98l-361 16q-141 0 -200 -5t-70 4q-10 9 -10 23t22 39q23 25 43 31t35 9q13 3 19 5
l18 6t16 7q4 4 19 12t21 34q8 27 16 83t8 412q0 354 -6 386t-12 42t-32 25t-88 27t-61 54q0 41 90 41l150 -2l399 14q348 0 547 -170q209 -174 209 -454z" />
    <glyph glyph-name="dcaron" unicode="&#x10f;" horiz-adv-x="1138" 
d="M1112 899q-16 -1 -30 19t-13 36q-6 143 -13 240t17 115q23 19 70 42t71 25q42 4 37 -72q-3 -75 -31 -190q-52 -215 -108 -215zM537 760q-53 0 -105 -47q-78 -78 -78 -262q0 -121 67 -223t185 -103q20 0 53 13q33 14 47 28t15 45v377q0 57 -19 82q-61 90 -165 90z
M1024 125q41 0 96 10q6 2 14 -11q8 -12 9 -30t-17 -40t-34 -25q-130 -25 -219 -45q-87 -21 -109 -21q-22 -1 -26 15t-6 47q-1 31 -2 38t-8 9t-11 0q-145 -96 -248 -97q-162 0 -273 116t-110 292q0 246 225 393q61 38 147 62t150 24q66 0 103 -6q4 0 10 8t6 15l-4 233
q-3 52 -19 70t-68 33t-55 40q-1 9 15 27t53 30t153 31q116 20 152 21q29 0 29 -121l-8 -547q0 -488 16 -529q16 -42 39 -42z" />
    <glyph glyph-name="Dcroat" unicode="&#x110;" horiz-adv-x="1550" 
d="M526 563q0 -195 13 -313q10 -78 63 -122t135 -44q133 0 265 128t132 392t-140 404t-318 139q-55 0 -103 -14q-6 -1 -20 -17t-16 -26q-10 -98 -11 -379q0 -16 17 -17h278q7 0 15 -13t8 -29t-10 -40q-10 -25 -27 -24l-262 -6q-7 0 -13 -6t-6 -13zM33 33q0 45 98 66
q41 9 49 17t25 18q17 11 22 35q5 25 13 77t8 317q0 4 -7 10t-14 7h-147q-27 0 -27 41q0 16 8 45t19 28h153q14 0 15 19q0 307 -8 355t-119 71q-74 16 -74 55t92 39h148l411 14q336 0 542 -173t206 -455t-216 -471q-185 -162 -562 -162l-344 14l-228 -6q-63 0 -63 39z" />
    <glyph glyph-name="dcroat" unicode="&#x111;" horiz-adv-x="1138" 
d="M705 856q16 0 16 34t-1 57t-15 24h-199q-14 0 -17 28q-2 28 5 49q6 21 14 21l197 2q12 1 12 23q0 56 -12 79q-12 24 -54 36q-73 20 -76 46q-1 9 15 27t53 30t153 31q116 20 152 21q29 0 29 -121v-147q0 -20 16 -21h109q4 0 9 -14t5 -27q-4 -63 -29 -63h-100
q-14 0 -14 -15q-4 -88 -4 -418t16 -371q16 -42 39 -42q41 0 96 10q6 2 14 -11q8 -12 9 -30t-17 -40t-34 -25q-130 -25 -219 -45q-87 -21 -109 -21q-22 -1 -26 15t-6 47q-1 31 -2 38t-8 9t-11 0q-145 -96 -248 -97q-162 0 -273 116t-110 292q0 246 225 393q61 39 169 69
q109 31 231 11zM537 760q-53 0 -105 -47q-78 -78 -78 -262q0 -121 67 -223t185 -103q20 0 53 13q33 14 47 28t15 45v377q0 57 -19 82q-61 90 -165 90z" />
    <glyph glyph-name="Emacron" unicode="&#x112;" horiz-adv-x="1224" 
d="M860 1470q0 -30 -16 -57t-33 -27l-434 -6q-5 0 -17 12t-12 21q0 51 14 82t31 31l449 2q6 0 12 -14t6 -44zM690 1233q213 0 273 10q31 2 42 -15q11 -18 21 -100t10 -116q0 -66 -41 -66q-38 -1 -77 90q-43 88 -80 88l-275 -6q-22 0 -27 -62t-6 -317q0 -51 18 -54
q55 -9 131 -4q77 5 109 25t52 72q20 51 51 51q47 0 41 -86q-4 -49 -4 -115t3 -114t-11 -68t-31 -20q-33 0 -58 59q-16 41 -29 55t-44 17q-113 8 -203 8q-8 1 -16 -21q-9 -22 -9 -69t9 -227q6 -80 21 -97q14 -17 76 -33t146 -18q84 0 140 26t116 114q8 10 30 43t34 40t24 7
t27 -22q36 -52 -63 -279q-4 -15 -28 -27t-34 -12t-130 5t-363 5l-435 -8q-74 0 -73 28q0 45 61 64q66 16 100 38t43 38q19 38 19 428t-8 463q-8 45 -34 65t-87 36t-62 52q1 18 21 28t43 11l356 -10h211z" />
    <glyph glyph-name="emacron" unicode="&#x113;" horiz-adv-x="927" 
d="M625 660q-1 38 -31 76t-86 38t-106 -50q-48 -50 -54 -110q-6 -25 10 -28q42 -4 106 -4t90 3t48 20t23 55zM330 434q0 -121 80 -201t211 -79q94 0 200 69q7 6 19 -3t12 -21q0 -51 -37 -88q-127 -135 -317 -135t-303 119q-113 120 -113 315q0 125 60 226q60 102 158 164
t208 62q213 0 301 -139q41 -66 41 -154q0 -18 -20 -43t-39 -24l-416 -6q-45 0 -45 -62zM762 1134q0 -28 -20 -62t-33 -34l-426 -8q-4 0 -13 12q-8 12 -8 44t18 65t31 33l430 6q5 0 13 -14t8 -42z" />
    <glyph glyph-name="Ebreve" unicode="&#x114;" horiz-adv-x="1224" 
d="M578 1327q-90 0 -162 67t-76 191q0 17 11 35t26 18q35 0 47 -39q51 -117 177 -117t179 105q23 43 47 43q33 0 33 -37t-12 -77t-40 -84q-28 -45 -84 -75t-146 -30zM690 1233q213 0 273 10q31 2 42 -15q11 -18 21 -100t10 -116q0 -66 -41 -66q-38 -1 -77 90q-43 88 -80 88
l-275 -6q-22 0 -27 -62t-6 -317q0 -51 18 -54q55 -9 131 -4q77 5 109 25t52 72q20 51 51 51q47 0 41 -86q-4 -49 -4 -115t3 -114t-11 -68t-31 -20q-33 0 -58 59q-16 41 -29 55t-44 17q-113 8 -203 8q-8 1 -16 -21q-9 -22 -9 -69t9 -227q6 -80 21 -97q14 -17 76 -33t146 -18
q84 0 140 26t116 114q8 10 30 43t34 40t24 7t27 -22q36 -52 -63 -279q-4 -15 -28 -27t-34 -12t-130 5t-363 5l-435 -8q-74 0 -73 28q0 45 61 64q66 16 100 38t43 38q19 38 19 428t-8 463q-8 45 -34 65t-87 36t-62 52q1 18 21 28t43 11l356 -10h211z" />
    <glyph glyph-name="ebreve" unicode="&#x115;" horiz-adv-x="927" 
d="M625 660q-1 38 -31 76t-86 38t-106 -50q-48 -50 -54 -110q-6 -25 10 -28q42 -4 106 -4t90 3t48 20t23 55zM330 434q0 -121 80 -201t211 -79q94 0 200 69q7 6 19 -3t12 -21q0 -51 -37 -88q-127 -135 -317 -135t-303 119q-113 120 -113 315q0 125 60 226q60 102 158 164
t208 62q213 0 301 -139q41 -66 41 -154q0 -18 -20 -43t-39 -24l-416 -6q-45 0 -45 -62zM504 975q-102 0 -164 65q-61 66 -68 185q-2 25 10 45t27 20q41 0 53 -47q47 -113 150 -113t141 113q20 47 45 47q43 0 39 -55q-10 -100 -70 -180q-61 -80 -163 -80z" />
    <glyph glyph-name="Edotaccent" unicode="&#x116;" horiz-adv-x="1224" 
d="M461 1473q1 67 41 107t108 40t103 -48t35 -108t-50 -98q-50 -37 -99 -37q-50 0 -94 39t-44 105zM690 1233q213 0 273 10q31 2 42 -15q11 -18 21 -100t10 -116q0 -66 -41 -66q-38 -1 -77 90q-43 88 -80 88l-275 -6q-22 0 -27 -62t-6 -317q0 -51 18 -54q55 -9 131 -4
q77 5 109 25t52 72q20 51 51 51q47 0 41 -86q-4 -49 -4 -115t3 -114t-11 -68t-31 -20q-33 0 -58 59q-16 41 -29 55t-44 17q-113 8 -203 8q-8 1 -16 -21q-9 -22 -9 -69t9 -227q6 -80 21 -97q14 -17 76 -33t146 -18q84 0 140 26t116 114q8 10 30 43t34 40t24 7t27 -22
q36 -52 -63 -279q-4 -15 -28 -27t-34 -12t-130 5t-363 5l-435 -8q-74 0 -73 28q0 45 61 64q66 16 100 38t43 38q19 38 19 428t-8 463q-8 45 -34 65t-87 36t-62 52q1 18 21 28t43 11l356 -10h211z" />
    <glyph glyph-name="edotaccent" unicode="&#x117;" horiz-adv-x="927" 
d="M625 660q-1 38 -31 76t-86 38t-106 -50q-48 -50 -54 -110q-6 -25 10 -28q42 -4 106 -4t90 3t48 20t23 55zM330 434q0 -121 80 -201t211 -79q94 0 200 69q7 6 19 -3t12 -21q0 -51 -37 -88q-127 -135 -317 -135t-303 119q-113 120 -113 315q0 125 60 226q60 102 158 164
t208 62q213 0 301 -139q41 -66 41 -154q0 -18 -20 -43t-39 -24l-416 -6q-45 0 -45 -62zM379 1140q-1 64 41 105t110 41t99 -50t30 -89q0 -74 -47 -111t-97 -37t-93 39q-43 38 -43 102z" />
    <glyph glyph-name="Eogonek" unicode="&#x118;" horiz-adv-x="1224" 
d="M690 1233q213 0 273 10q31 2 42 -15q11 -18 21 -100t10 -116q0 -66 -41 -66q-38 -1 -77 90q-43 88 -80 88l-275 -6q-22 0 -27 -62t-6 -317q0 -51 18 -54q55 -9 131 -4q77 5 109 25t52 72q20 51 51 51q47 0 41 -86q-4 -49 -4 -115t3 -114t-11 -68t-31 -20q-33 0 -58 59
q-16 41 -29 55t-44 17q-113 8 -203 8q-8 1 -16 -21q-9 -22 -9 -69t9 -227q6 -80 21 -97q14 -17 76 -33t146 -18q84 0 140 26t116 114q8 10 30 43t34 40t24 7t27 -22q36 -52 -63 -279q-4 -15 -28 -27t-34 -12l-49 2q-166 -137 -166 -254q0 -39 27 -65q26 -25 66 -25t116 22
q6 2 19 -13t1 -45t-16 -34q-80 -100 -221 -100q-94 0 -142 56q-49 56 -49 134t71 168t185 162q-70 2 -335 2l-435 -8q-74 0 -73 28q0 45 61 64q66 16 100 38t43 38q19 38 19 428t-8 463q-8 45 -34 65t-87 36t-62 52q1 18 21 28t43 11l356 -10h211z" />
    <glyph glyph-name="eogonek" unicode="&#x119;" horiz-adv-x="927" 
d="M625 660q-1 38 -31 74t-88 36t-104 -48q-48 -48 -54 -108q-2 -6 5 -16t30 -13t84 -3t87 3t48 20t23 55zM330 434q0 -121 80 -201t211 -79q94 0 200 69q7 6 19 -3t12 -21q0 -51 -37 -88q-39 -45 -102 -80q-81 -63 -139 -143t-58 -127q0 -49 28 -75t68 -26t115 23
q4 2 17 -14t1 -46q-12 -29 -16 -33q-33 -40 -93 -70t-143 -30t-128 58t-46 122q0 145 213 307q-12 -2 -36 -2q-190 0 -302 119t-112 312q0 129 60 230q96 161 267 207q71 19 126 19q190 0 274 -135q41 -66 41 -158q0 -18 -20 -43t-39 -24l-416 -6q-45 0 -45 -62z" />
    <glyph glyph-name="Ecaron" unicode="&#x11a;" horiz-adv-x="1224" 
d="M604 1309q-30 -1 -102 65t-176 170q-35 33 -30 59q10 53 116 0q105 -52 186 -102q20 -10 35 0q47 31 174 101q83 43 99 9q7 -13 -1 -35q-9 -22 -27 -39t-83 -81t-114 -105q-48 -42 -77 -42zM690 1233q213 0 273 10q31 2 42 -15q11 -18 21 -100t10 -116q0 -66 -41 -66
q-38 -1 -77 90q-43 88 -80 88l-275 -6q-22 0 -27 -62t-6 -317q0 -51 18 -54q55 -9 131 -4q77 5 109 25t52 72q20 51 51 51q47 0 41 -86q-4 -49 -4 -115t3 -114t-11 -68t-31 -20q-33 0 -58 59q-16 41 -29 55t-44 17q-113 8 -203 8q-8 1 -16 -21q-9 -22 -9 -69t9 -227
q6 -80 21 -97q14 -17 76 -33t146 -18q84 0 140 26t116 114q8 10 30 43t34 40t24 7t27 -22q36 -52 -63 -279q-4 -15 -28 -27t-34 -12t-130 5t-363 5l-435 -8q-74 0 -73 28q0 45 61 64q66 16 100 38t43 38q19 38 19 428t-8 463q-8 45 -34 65t-87 36t-62 52q1 18 21 28t43 11
l356 -10h211z" />
    <glyph glyph-name="ecaron" unicode="&#x11b;" horiz-adv-x="927" 
d="M625 660q-1 38 -31 76t-86 38t-106 -50q-48 -50 -54 -110q-6 -25 10 -28q42 -4 106 -4t90 3t48 20t23 55zM330 434q0 -121 80 -201t211 -79q94 0 200 69q7 6 19 -3t12 -21q0 -51 -37 -88q-127 -135 -317 -135t-303 119q-113 120 -113 315q0 125 60 226q60 102 158 164
t208 62q213 0 301 -139q41 -66 41 -154q0 -18 -20 -43t-39 -24l-416 -6q-45 0 -45 -62zM517 944q-49 0 -183 263q-42 82 -44 102q-5 37 32 39q31 0 67 -45q72 -82 115 -136q17 -17 31 0q53 65 133 149q26 28 46 27q20 1 27 -23q6 -24 -6 -44q-35 -80 -145 -264
q-41 -68 -73 -68z" />
    <glyph glyph-name="Gcircumflex" unicode="&#x11c;" horiz-adv-x="1568" 
d="M846 1649q29 0 92 -60q37 -31 186 -178q33 -33 29 -57t-36 -25q-54 0 -263 127q-20 10 -38 0t-79 -46q-62 -36 -101 -56q-38 -20 -65 -21q-39 6 -30 35q8 29 26 47q132 132 187 182q63 52 92 52zM1479 571q1 -31 -49 -49t-66 -34t-17 -26q-8 -72 -8 -166q1 -94 7 -139
q6 -43 6 -51t-12 -22t-17 -16q-96 -49 -164 -66q-145 -41 -276 -41q-438 0 -645 262q-127 158 -127 398q0 307 256 497q90 70 230 113t265 43t305 -47q43 -12 107 -17q31 -4 43 -45q45 -188 45 -226q0 -37 -13 -61t-34 -24q-31 0 -62 57q-57 109 -100 148q-123 111 -293 110
q-106 0 -190 -45q-147 -79 -208 -289q-26 -91 -26 -192q0 -248 134 -413t335 -164q78 0 119 32q39 28 39 151t-4 167q-5 44 -23 61q-18 18 -69 31q-92 20 -93 63q0 15 22 29t58 14l183 -10l272 10q70 0 70 -43z" />
    <glyph glyph-name="gcircumflex" unicode="&#x11d;" horiz-adv-x="972" 
d="M532 -371q29 -1 82 11t76 26q80 59 78 133q0 94 -131 117q-57 14 -168 14t-162 -20q-57 -39 -57 -94q0 -86 80 -136t202 -51zM447 774q-62 0 -95 -55t-33 -151q-1 -96 47 -154q48 -60 106 -60t87 41q11 17 23 69t12 124t-42 129q-43 57 -105 57zM967 727q1 -13 -9 -27
t-26 -14t-76 6q-61 6 -78 6q35 -59 35 -135q0 -127 -103 -212t-264 -85q-49 0 -63 2t-35 -11q-20 -13 -20 -42t34 -45t52 -16q223 -6 327 -13q66 0 116 -41q104 -85 104 -186q1 -100 -59 -181t-132 -126q-162 -96 -328 -96q-166 1 -284 67q-119 66 -119 186q0 27 21 64
q22 37 44 55q23 18 103 58q6 4 5 12t-5 10q-27 6 -55 27q-72 47 -72 153q0 20 24 29q24 10 76 46q51 36 68 54q16 12 0 25q-158 92 -158 256q0 137 119 231q37 30 111 54t152 24t148 -22q68 -22 109 -21l203 4q35 0 35 -96zM459 1319q31 0 76 -78q6 -12 56 -98t81 -146
q12 -14 11 -48t-29 -34t-72 46q-23 29 -61 73t-54 64q-17 14 -31 -6t-57 -70q-43 -49 -55 -66q-38 -36 -60 -36t-27 26t5 43q51 113 143 262q43 68 74 68z" />
    <glyph glyph-name="Gbreve" unicode="&#x11e;" horiz-adv-x="1568" 
d="M826 1360q-90 0 -162 66t-76 192q0 16 11 34t26 19q35 0 47 -39q51 -116 177 -116t179 104q23 43 47 43q33 0 33 -37t-12 -77t-40 -85q-28 -44 -84 -74t-146 -30zM1479 571q1 -31 -49 -49t-66 -34t-17 -26q-8 -72 -8 -166q1 -94 7 -139q6 -43 6 -51t-12 -22t-17 -16
q-96 -49 -164 -66q-145 -41 -276 -41q-438 0 -645 262q-127 158 -127 398q0 307 256 497q90 70 230 113t265 43t305 -47q43 -12 107 -17q31 -4 43 -45q45 -188 45 -226q0 -37 -13 -61t-34 -24q-31 0 -62 57q-57 109 -100 148q-123 111 -293 110q-106 0 -190 -45
q-147 -79 -208 -289q-26 -91 -26 -192q0 -248 134 -413t335 -164q78 0 119 32q39 28 39 151t-4 167q-5 44 -23 61q-18 18 -69 31q-92 20 -93 63q0 15 22 29t58 14l183 -10l272 10q70 0 70 -43z" />
    <glyph glyph-name="gbreve" unicode="&#x11f;" horiz-adv-x="972" 
d="M532 -371q29 -1 82 11t76 26q80 59 78 133q0 94 -131 117q-57 14 -168 14t-162 -20q-57 -39 -57 -94q0 -86 80 -136t202 -51zM447 774q-62 0 -95 -55t-33 -151q-1 -96 47 -154q48 -60 106 -60t87 41q11 17 23 69t12 124t-42 129q-43 57 -105 57zM967 727q1 -13 -9 -27
t-26 -14t-76 6q-61 6 -78 6q35 -59 35 -135q0 -127 -103 -212t-264 -85q-49 0 -63 2t-35 -11q-20 -13 -20 -42t34 -45t52 -16q223 -6 327 -13q66 0 116 -41q104 -85 104 -186q1 -100 -59 -181t-132 -126q-162 -96 -328 -96q-166 1 -284 67q-119 66 -119 186q0 27 21 64
q22 37 44 55q23 18 103 58q6 4 5 12t-5 10q-27 6 -55 27q-72 47 -72 153q0 20 24 29q24 10 76 46q51 36 68 54q16 12 0 25q-158 92 -158 256q0 137 119 231q37 30 111 54t152 24t148 -22q68 -22 109 -21l203 4q35 0 35 -96zM476 963q-102 0 -165 65q-61 66 -67 184
q-2 25 10 45t27 21q41 0 53 -47q48 -113 150 -113t141 113q20 47 45 47q43 0 39 -55q-11 -100 -71 -180t-162 -80z" />
    <glyph glyph-name="Gdotaccent" unicode="&#x120;" horiz-adv-x="1568" 
d="M709 1498q1 66 41 106q40 41 108 41q68 -1 103 -49t34 -93q0 -77 -49 -113t-99 -36t-94 39t-44 105zM1479 571q1 -31 -49 -49t-66 -34t-17 -26q-8 -72 -8 -166q1 -94 7 -139q6 -43 6 -51t-12 -22t-17 -16q-96 -49 -164 -66q-145 -41 -276 -41q-438 0 -645 262
q-127 158 -127 398q0 307 256 497q90 70 230 113t265 43t305 -47q43 -12 107 -17q31 -4 43 -45q45 -188 45 -226q0 -37 -13 -61t-34 -24q-31 0 -62 57q-57 109 -100 148q-123 111 -293 110q-106 0 -190 -45q-147 -79 -208 -289q-26 -91 -26 -192q0 -248 134 -413t335 -164
q78 0 119 32q39 28 39 151t-4 167q-5 44 -23 61q-18 18 -69 31q-92 20 -93 63q0 15 22 29t58 14l183 -10l272 10q70 0 70 -43z" />
    <glyph glyph-name="gdotaccent" unicode="&#x121;" horiz-adv-x="972" 
d="M532 -371q29 -1 82 11t76 26q80 59 78 133q0 94 -131 117q-57 14 -168 14t-162 -20q-57 -39 -57 -94q0 -86 80 -136t202 -51zM447 774q-62 0 -95 -55t-33 -151q-1 -96 47 -154q48 -60 106 -60t87 41q11 17 23 69t12 124t-42 129q-43 57 -105 57zM967 727q1 -13 -9 -27
t-26 -14t-76 6q-61 6 -78 6q35 -59 35 -135q0 -127 -103 -212t-264 -85q-49 0 -63 2t-35 -11q-20 -13 -20 -42t34 -45t52 -16q223 -6 327 -13q66 0 116 -41q104 -85 104 -186q1 -100 -59 -181t-132 -126q-162 -96 -328 -96q-166 1 -284 67q-119 66 -119 186q0 27 21 64
q22 37 44 55q23 18 103 58q6 4 5 12t-5 10q-27 6 -55 27q-72 47 -72 153q0 20 24 29q24 10 76 46q51 36 68 54q16 12 0 25q-158 92 -158 256q0 137 119 231q37 30 111 54t152 24t148 -22q68 -22 109 -21l203 4q35 0 35 -96zM467 1286q69 0 99 -50t30 -89q0 -74 -47 -111
t-97 -37t-94 39q-43 38 -43 102t42 105t110 41z" />
    <glyph glyph-name="Gcommaaccent" unicode="&#x122;" horiz-adv-x="1568" 
d="M758 -545q-28 0 -47 9q-18 9 -19 22q0 33 47 53q109 37 109 103q0 41 -72 59q-24 6 -50 28q-26 23 -26 57t37 64t95 31q58 0 111 -52q54 -52 54 -135t-51 -141q-52 -58 -106 -78t-82 -20zM1479 571q1 -31 -49 -49t-66 -34t-17 -26q-8 -72 -8 -166q1 -94 7 -139
q6 -43 6 -51t-12 -22t-17 -16q-96 -49 -164 -66q-145 -41 -276 -41q-438 0 -645 262q-127 158 -127 398q0 307 256 497q90 70 230 113t265 43t305 -47q43 -12 107 -17q31 -4 43 -45q45 -188 45 -226q0 -37 -13 -61t-34 -24q-31 0 -62 57q-57 109 -100 148q-123 111 -293 110
q-106 0 -190 -45q-147 -79 -208 -289q-26 -91 -26 -192q0 -248 134 -413t335 -164q78 0 119 32q39 28 39 151t-4 167q-5 44 -23 61q-18 18 -69 31q-92 20 -93 63q0 15 22 29t58 14l183 -10l272 10q70 0 70 -43z" />
    <glyph glyph-name="gcommaaccent" unicode="&#x123;" horiz-adv-x="972" 
d="M532 -371q29 -1 82 11t76 26q80 59 78 133q0 94 -131 117q-57 14 -168 14t-162 -20q-57 -39 -57 -94q0 -86 80 -136t202 -51zM447 774q-62 0 -95 -55t-33 -151q-1 -96 47 -154q48 -60 106 -60t87 41q11 17 23 69t12 124t-42 129q-43 57 -105 57zM967 727q1 -13 -9 -27
t-26 -14t-76 6q-61 6 -78 6q35 -59 35 -135q0 -127 -103 -212t-264 -85q-49 0 -63 2t-35 -11q-20 -13 -20 -42t34 -45t52 -16q223 -6 327 -13q66 0 116 -41q104 -85 104 -186q1 -100 -59 -181t-132 -126q-162 -96 -328 -96q-166 1 -284 67q-119 66 -119 186q0 27 21 64
q22 37 44 55q23 18 103 58q6 4 5 12t-5 10q-27 6 -55 27q-72 47 -72 153q0 20 24 29q24 10 76 46q51 36 68 54q16 12 0 25q-158 92 -158 256q0 137 119 231q37 30 111 54t152 24t148 -22q68 -22 109 -21l203 4q35 0 35 -96zM586 1040q0 -48 -35 -74t-90 -26t-102 49
q-46 49 -46 131q0 112 89 178t143 66q17 0 31 -8t14 -17q0 -37 -27 -51q-45 -18 -80 -49t-35 -57q1 -49 54 -56q84 -8 84 -86z" />
    <glyph glyph-name="Hcircumflex" unicode="&#x124;" horiz-adv-x="1648" 
d="M827 1649q29 0 93 -60q37 -31 186 -178q33 -33 29 -57t-36 -25q-54 0 -263 127q-20 10 -38 0t-79 -46q-62 -36 -101 -56q-38 -20 -65 -21q-39 6 -31 35t28 47t86 85q67 67 99 97q63 52 92 52zM664 1196q0 -31 -68 -53q-66 -23 -66 -109v-289q0 -16 10 -30t21 -15h529
q6 0 15 14t9 23q0 277 -6 315t-28 54t-92 36t-70 56q0 16 21 29q22 12 52 12l228 -6l286 6q63 0 64 -41q-1 -37 -63 -50t-80 -35t-25 -86q-6 -64 -6 -355t8 -447q6 -71 29 -93q22 -22 90 -38t67 -57q0 -43 -71 -43l-201 6l-311 -8q-76 0 -76 43q0 31 68 53t85 49t25 74
t10 146q4 218 -28 218q-436 0 -535 -6q-10 -2 -17 -18t-8 -27q0 -252 6 -311t28 -84t100 -43q20 -6 39 -22t20 -33q0 -39 -76 -39l-266 8l-246 -10q-33 0 -53 12t-21 29q0 31 70 57t90 50q21 26 25 104t4 415t-8 389t-35 71t-98 38q-45 12 -46 47q0 14 25 26t53 13l281 -8
l172 4q70 0 70 -41z" />
    <glyph glyph-name="hcircumflex" unicode="&#x125;" horiz-adv-x="1144" 
d="M285 1686q29 0 92 -60q37 -31 186 -178q33 -34 29 -58t-36 -24q-54 0 -263 127q-19 10 -37 0q-39 -22 -123 -72t-123 -51q-39 6 -30 35q8 29 34 55q12 10 79 77t115 108t77 41zM668 862q143 0 219 -88q74 -80 80 -268l8 -334q0 -37 12 -54q11 -16 63 -34t52 -51
q0 -19 -22 -29t-42 -10l-188 6l-172 -6q-29 0 -46 15t-18 28q0 23 44 38t57 37q14 22 14 78v347q-2 76 -47 133q-16 23 -55 37t-70 14q-88 0 -133 -41q-4 -4 -10 -26t-6 -27q0 -393 4 -451t55 -87q51 -28 51 -45q0 -18 -17 -34t-46 -16l-166 6l-213 -6q-31 0 -48 12
q-36 25 -2 55q15 15 53 27q71 23 77 70q14 137 14 486t-7 422t-30 87q-74 55 -74 80t45 47q222 84 279 84q27 0 27 -84l-2 -487q0 -7 5 -13t9 -4q72 42 122 64t124 22z" />
    <glyph glyph-name="Hbar" unicode="&#x126;" horiz-adv-x="1648" 
d="M532 662q0 -16 8 -32t17 -16h537q25 0 24 45v138q0 20 -16 20h-551q-18 0 -19 -18v-137zM252 795q0 23 -16 22h-99q-31 5 -31 20t13 46q12 31 20 32l92 3q20 0 21 18q0 86 -7 124t-29 56t-93 35q-49 14 -49 51t65 37l230 -6l249 4q61 0 62 -39q0 -31 -58 -45t-72 -36
t-20 -83l2 -100q0 -16 11 -16l557 2q16 0 16 18q-4 109 -4 113q-6 57 -97 84t-91 63q0 16 18 28t49 13l232 -6l284 6q29 0 47 -12q39 -26 -1 -60q-19 -16 -56 -22q-88 -16 -94 -91t-6 -118q-4 -16 16 -16h109q14 2 15 -27t-8 -51t-22 -21l-94 -4q-18 0 -18 -18v-164
q0 -295 5 -387t30 -114q26 -24 90 -41t67 -52q0 -19 -17 -33t-48 -14l-258 6l-256 -8q-80 0 -80 39t66 57t94 46q26 28 27 102t5 219q0 37 -30 37l-537 -3q-18 0 -23 -32q-6 -84 5 -248q3 -53 31 -80t94 -44t67 -46q0 -45 -76 -45l-282 6l-248 -8q-59 0 -60 39q0 33 68 55
q67 22 91 48t28 121t4 540z" />
    <glyph glyph-name="hbar" unicode="&#x127;" horiz-adv-x="1144" 
d="M639 1073q19 0 17 -27q-2 -26 -10 -50q-9 -24 -21 -23l-203 -2q-12 0 -12 -23l-2 -143q0 -27 13 -27q5 0 44 22t88 43q49 20 117 19q143 0 219 -88q31 -34 55 -108t23 -156l8 -346q0 -33 14 -47q13 -14 63 -36t50 -48q0 -15 -22 -27t-40 -12l-190 6l-172 -6q-29 0 -47 14
t-19 31q0 19 44 35t59 38q14 22 14 78v347q-2 76 -45 131q-18 23 -56 38t-69 15q-88 0 -131 -39q-20 -20 -20 -47q0 -397 4 -449t15 -67t35 -27q58 -27 58 -51q0 -11 -18 -29t-39 -18l-189 6l-198 -6q-31 0 -47 12t-17 29q0 31 52 46t71 31q21 16 27 82q6 64 6 533v223
q0 20 -12 21h-97q-27 0 -26 35q0 66 28 65h84q16 0 17 12q-1 64 -60 97q-41 22 -41 54t45 46q166 52 206 68t69 16t29 -96v-174q0 -20 14 -21h215z" />
    <glyph glyph-name="Itilde" unicode="&#x128;" horiz-adv-x="780" 
d="M147 1323q-13 0 -32 16q-19 15 -19 29t43 84q71 117 135 117q23 0 118 -11t159 -10q31 4 97 74q6 8 18 8t30 -26t9 -37q-84 -104 -121 -148q-29 -31 -84 -30q-14 0 -123 13t-133 6t-54 -46t-43 -39zM250 522v410q0 131 -20 166t-105 55q-53 12 -53 49q0 18 22 29
q23 10 45 10l240 -8l268 6q23 0 41 -11t19 -28q0 -31 -63 -46t-82 -42q-19 -28 -25 -128t-7 -402l5 -340q3 -76 27 -108t94 -49t69 -54q0 -17 -24 -27t-46 -10l-272 6l-248 -10q-66 0 -65 37q0 33 79 61q43 15 64 36q21 22 29 79t8 319z" />
    <glyph glyph-name="itilde" unicode="&#x129;" horiz-adv-x="600" 
d="M188 510q0 96 -4 121q0 25 -63 69q-31 26 -31 42t11 28t20 14q233 84 285 84q8 0 16 -22t8 -41v-354q2 -238 8 -291t76 -78q57 -16 57 -52t-69 -36l-193 6l-211 -8q-72 0 -71 37q1 33 59 51t72 36q30 40 30 394zM152 1059q-20 1 -58 -37t-52 -38t-28 18q-14 19 -14 35
t64 84q64 67 108 93q16 16 37 11q67 -31 141 -31t105 18q39 29 71 68q8 10 36 -8t28 -32t-12 -24q-12 -12 -82 -86q-68 -74 -78 -86q-25 -18 -37 -18t-92 16t-137 17z" />
    <glyph glyph-name="Imacron" unicode="&#x12a;" horiz-adv-x="780" 
d="M649 1470q0 -30 -16 -57t-33 -27l-434 -6q-6 0 -18 12t-11 21q1 51 15 82t30 31l449 2q6 0 12 -14t6 -44zM250 522v410q0 131 -20 166t-105 55q-53 12 -53 49q0 18 22 29q23 10 45 10l240 -8l268 6q23 0 41 -11t19 -28q0 -31 -63 -46t-82 -42q-19 -28 -25 -128t-7 -402
l5 -340q3 -76 27 -108t94 -49t69 -54q0 -17 -24 -27t-46 -10l-272 6l-248 -10q-66 0 -65 37q0 33 79 61q43 15 64 36q21 22 29 79t8 319z" />
    <glyph glyph-name="imacron" unicode="&#x12b;" horiz-adv-x="600" 
d="M188 510q0 96 -4 121q0 25 -63 69q-31 26 -31 42t11 28t20 14q233 84 285 84q8 0 16 -22t8 -41v-354q2 -238 8 -291t76 -78q57 -16 57 -52t-69 -36l-193 6l-211 -8q-72 0 -71 37q1 33 59 51t72 36q30 40 30 394zM530 1134q0 -28 -19 -62t-34 -34l-426 -8q-4 0 -12 12
t-8 44q-1 32 17 65t32 33l430 6q6 0 13 -14t7 -42z" />
    <glyph glyph-name="Ibreve" unicode="&#x12c;" horiz-adv-x="780" 
d="M375 1329q-90 0 -162 67t-76 191q0 17 11 35t26 18q35 0 47 -38q51 -117 177 -117t180 104q23 43 47 43q55 0 20 -113q-57 -190 -270 -190zM250 522v410q0 131 -20 166t-105 55q-53 12 -53 49q0 18 22 29q23 10 45 10l240 -8l268 6q23 0 41 -11t19 -28q0 -31 -63 -46
t-82 -42q-19 -28 -25 -128t-7 -402l5 -340q3 -76 27 -108t94 -49t69 -54q0 -17 -24 -27t-46 -10l-272 6l-248 -10q-66 0 -65 37q0 33 79 61q43 15 64 36q21 22 29 79t8 319z" />
    <glyph glyph-name="ibreve" unicode="&#x12d;" horiz-adv-x="600" 
d="M188 510q0 96 -4 121q0 25 -63 69q-31 26 -31 42t11 28t20 14q233 84 285 84q8 0 16 -22t8 -41v-354q2 -238 8 -291t76 -78q57 -16 57 -52t-69 -36l-193 6l-211 -8q-72 0 -71 37q1 33 59 51t72 36q30 40 30 394zM294 973q-102 0 -165 65q-61 66 -68 185q-3 25 9 45t28 20
q41 0 54 -47q48 -113 150 -113t140 113q20 47 45 47q43 0 39 -55q-10 -100 -70 -180t-162 -80z" />
    <glyph glyph-name="Iogonek" unicode="&#x12e;" horiz-adv-x="780" 
d="M250 522v410q0 131 -20 166t-105 55q-53 12 -53 49q0 18 22 29q23 10 45 10l240 -8l268 6q23 0 41 -11t19 -28q0 -31 -63 -46t-82 -42q-19 -28 -25 -128t-7 -402l5 -340q3 -76 27 -108t94 -49t69 -54q0 -17 -24 -27t-46 -10l-163 6q-49 -61 -82 -135t-33 -118
q-1 -44 27 -72q28 -27 67 -27t115 22q6 2 15 -9t9 -23t-8 -34t-12 -26q-80 -100 -221 -100q-94 0 -143 58q-48 58 -48 126q0 170 201 338l-244 -10q-66 0 -65 37q0 33 79 61q43 15 64 36q21 22 29 79t8 319z" />
    <glyph glyph-name="iogonek" unicode="&#x12f;" horiz-adv-x="598" 
d="M296 1286q60 0 99 -40t39 -106t-47 -104q-47 -37 -109 -37t-102 64q-22 33 -22 87t42 94q40 42 100 42zM188 510q0 96 -4 121q0 25 -63 69q-31 26 -31 42t11 28t20 14q233 84 285 84q8 0 16 -22t8 -41v-354q2 -238 8 -291t76 -78q57 -16 57 -52t-69 -36q-29 0 -119 4
q-98 -111 -98 -246q1 -36 29 -64t67 -28t115 23q6 3 15 -9t9 -24t-8 -34t-12 -26q-80 -100 -219 -100q-94 0 -144 59q-49 59 -49 134t54 164t132 153l-176 -8q-72 0 -71 37q1 33 59 51t72 36q30 40 30 394z" />
    <glyph glyph-name="Idotaccent" unicode="&#x130;" horiz-adv-x="780" 
d="M254 1479q0 67 41 107t109 40t102 -48t35 -108q0 -60 -49 -98q-50 -37 -100 -37t-94 39t-44 105zM250 522v410q0 131 -20 166t-105 55q-53 12 -53 49q0 18 22 29q23 10 45 10l240 -8l268 6q23 0 41 -11t19 -28q0 -31 -63 -46t-82 -42q-19 -28 -25 -128t-7 -402l5 -340
q3 -76 27 -108t94 -49t69 -54q0 -17 -24 -27t-46 -10l-272 6l-248 -10q-66 0 -65 37q0 33 79 61q43 15 64 36q21 22 29 79t8 319z" />
    <glyph glyph-name="dotlessi" unicode="&#x131;" horiz-adv-x="600" 
d="M188 510q0 96 -4 121q0 25 -63 69q-31 26 -31 42t11 28t20 14q233 84 285 84q8 0 16 -22t8 -41v-354q2 -238 8 -291t76 -78q57 -16 57 -52t-69 -36l-193 6l-211 -8q-72 0 -71 37q1 33 59 51t72 36q30 40 30 394z" />
    <glyph glyph-name="IJ" unicode="&#x132;" horiz-adv-x="1540" 
d="M775 -408q-58 0 -106 30t-48 69t84 123q25 24 48 24t66 -24q102 -66 127 -66q56 0 72 74t19 286t-5 893q-2 70 -26 100q-25 30 -99 44t-76 51q0 45 80 45l279 -8l231 6q61 0 62 -37q0 -33 -60 -57q-61 -20 -83 -44t-21 -89l-10 -815q0 -168 -79 -297t-183 -205
q-61 -43 -137 -73t-135 -30zM250 522v410q0 131 -20 166t-105 55q-53 12 -53 49q0 18 22 29q23 10 45 10l240 -8l268 6q23 0 41 -11t19 -28q0 -31 -63 -46t-82 -42q-19 -28 -25 -128t-7 -402l5 -340q3 -76 27 -108t94 -49t69 -54q0 -17 -24 -27t-46 -10l-272 6l-248 -10
q-66 0 -65 37q0 33 79 61q43 15 64 36q21 22 29 79t8 319z" />
    <glyph glyph-name="ij" unicode="&#x133;" horiz-adv-x="1175" 
d="M596 -481q-35 0 -35 24q0 41 34 67t83 71q98 98 98 321q0 309 -6 563q-2 61 -12 81t-52 44q-42 22 -42 47q0 11 16 27t31 22q109 29 183 57t105 27q29 0 29 -178l-4 -610q0 -51 -8 -121q-23 -184 -174 -323q-45 -41 -128 -80t-118 -39zM887 1282q57 0 94 -33
q43 -43 43 -109t-48 -105q-48 -38 -99 -38t-93 39q-41 38 -41 100t43 104q44 42 101 42zM296 1286q60 0 99 -40t39 -106t-47 -104q-47 -37 -109 -37t-102 64q-22 33 -22 87t42 94q40 42 100 42zM188 510q0 96 -4 121q0 25 -63 69q-31 26 -31 42t11 28t20 14q233 84 285 84
q8 0 16 -22t8 -41v-354q2 -238 8 -291t76 -78q57 -16 57 -52t-69 -36l-193 6l-211 -8q-72 0 -71 37q1 33 59 51t72 36q30 40 30 394z" />
    <glyph glyph-name="Jcircumflex" unicode="&#x134;" horiz-adv-x="759" 
d="M381 1649q29 0 92 -60q37 -31 186 -178q33 -33 29 -57t-36 -25q-54 0 -263 127q-19 10 -37 0q-23 -13 -116 -67t-130 -56q-39 6 -30 35q8 29 28 47t86 85t114 108t77 41zM702 1204q0 -35 -59 -59q-61 -20 -83 -44t-21 -89q0 -221 -5 -517t-6 -298q0 -168 -78 -297
q-121 -199 -321 -278q-77 -30 -135 -30t-106 30t-48 69t84 123q24 24 48 24t67 -24q102 -66 127 -66q56 0 72 74t19 286t-5 893q-2 70 -27 100t-98 44t-76 51q0 45 80 45l279 -8l231 6q61 0 61 -35z" />
    <glyph glyph-name="jcircumflex" unicode="&#x135;" horiz-adv-x="577" 
d="M285 1323q31 0 75 -78q6 -12 56 -98t82 -146q12 -14 11 -48t-30 -33q-27 0 -71 45q-23 29 -61 73t-54 64q-13 14 -29 -6t-59 -70q-43 -49 -55 -65q-38 -37 -60 -37t-28 25q-5 26 6 44q51 113 143 262q43 68 74 68zM-2 -481q-35 0 -35 24q0 41 34 67t83 71q98 98 98 321
q0 309 -6 563q-2 61 -12 81t-52 44q-42 22 -42 47q0 11 16 27t31 22q109 29 183 57t105 27q29 0 29 -178l-4 -610q0 -51 -8 -121q-23 -184 -174 -323q-45 -41 -128 -80t-118 -39z" />
    <glyph glyph-name="Kcommaaccent" unicode="&#x136;" horiz-adv-x="1511" 
d="M678 -504q-28 0 -47 9q-18 9 -19 22q0 33 47 53q109 37 109 103q0 41 -72 59q-24 6 -50 28t-26 56t38 66q36 30 94 30t111 -52q55 -52 55 -135t-52 -141t-105 -78q-55 -20 -83 -20zM55 35q0 33 68 51q69 18 91 42t28 104t6 434q0 356 -4 383t-11 41q-15 34 -90 55
q-75 20 -75 61q0 14 18 26t49 11l221 -10l267 6q29 0 46 -12t17 -27q0 -33 -59 -52q-59 -18 -79 -38t-22 -49l-4 -377q0 -16 23 -16t76 44t185 178t183 197q29 35 -49 52q-63 16 -63 57q0 14 17 26t44 11h104l299 12q78 0 78 -41q0 -12 -19 -29t-50 -24q-129 -20 -252 -123
q-143 -115 -307 -272q-10 -12 0 -33q170 -225 434 -510q66 -70 106 -88t102 -43t62 -55q0 -15 -18 -29t-54 -14l-428 16h-98q-25 0 -47 14t-23 41q0 27 68 49q53 14 23 56q-82 109 -334 399q-27 31 -44 31t-18 -39q0 -349 8 -379q13 -46 56 -60q14 -5 47 -16q76 -23 76 -57
q1 -17 -19 -31t-51 -14l-215 6l-289 -10q-80 0 -80 45z" />
    <glyph glyph-name="kcommaaccent" unicode="&#x137;" horiz-adv-x="1081" 
d="M468 -504q-28 0 -48 9q-18 9 -19 22q0 33 48 53q109 37 108 103q0 41 -72 59q-25 6 -51 28t-24 56q0 34 36 66q36 30 94 30t112 -52t54 -135t-50 -141q-52 -58 -106 -78t-82 -20zM440 481q14 0 62 35q88 70 144 134t52 78t-51 28t-47 34t21 36t41 16h88l239 14
q33 0 50 -14t18 -29q0 -25 -83 -53q-82 -28 -140 -67q-58 -40 -177 -138q-8 -8 0 -27q195 -291 236 -338q80 -88 128 -106t62 -26t15 -25q0 -41 -78 -41l-281 8h-92q-53 0 -53 37q0 27 45 47q25 12 11 44t-68 106q-53 74 -64 90q-51 80 -67 79q-33 0 -33 -32v-178
q0 -45 10 -68t18 -27t48 -20t41 -33q-1 -15 -21 -33t-47 -18l-168 6l-197 -6q-23 0 -41 12t-18 27q0 29 51 49q50 20 60 38t18 92t8 603l-4 289q-4 31 -15 47t-57 51q-32 18 -32 34t15 34q15 20 30 22q14 6 102 24t132 34q43 14 53 14t17 -17t7 -32q-12 -184 -12 -539
l2 -203q-2 -92 22 -92z" />
    <glyph glyph-name="kgreenlandic" unicode="&#x138;" horiz-adv-x="1081" 
d="M50 7q-19 13 -19 30t19 27t44 22q80 32 84 96t8 256t-6 243q-10 50 -76 75q-35 14 -34 35q0 14 16 28q16 15 54 15t140 12t128 18q10 0 20 -17t8 -34q-12 -115 -12 -324q0 -29 16 -28q8 0 54 33q88 72 184 190q44 48 -16 68t-60 55q0 15 23 25t47 10l104 -2l201 10
q59 0 59 -33t-53 -49q-71 -13 -103 -36q-122 -87 -223 -204q-10 -12 -2 -20q117 -178 248 -328q72 -76 135 -96t64 -51q0 -39 -72 -39l-289 6h-108q-53 0 -53 35q0 23 42 41t17 59q0 2 -145 209q-36 49 -54 49t-18 -28q0 -129 2 -183t15 -69t61 -31t47 -45q0 -19 -23 -31
t-47 -12l-182 6l-203 -6q-23 0 -42 13z" />
    <glyph glyph-name="Lacute" unicode="&#x139;" horiz-adv-x="1189" 
d="M760 1514q0 -30 -51 -56q-135 -70 -303 -129q-78 -29 -103 17q-12 25 35 67q119 111 250 209q18 14 46 18t38 0q28 -10 58 -53t30 -73zM14 35q0 39 64 51q118 22 142 72q9 18 14 82q6 64 6 418t-3 392t-23 56t-80 42q-58 24 -58 52q0 39 63 39l254 -6l262 6q66 0 66 -40
t-70 -54q-69 -14 -93 -39t-28 -70q-10 -119 -10 -425t10 -423q2 -22 34 -48q93 -74 286 -34q49 12 106 72t97 133q25 53 47 54q23 0 37 -25t10 -51q-27 -131 -68 -246q-20 -51 -90 -51l-553 8l-346 -10q-32 0 -54 13t-22 32z" />
    <glyph glyph-name="lacute" unicode="&#x13a;" horiz-adv-x="575" 
d="M600 1596q0 -30 -51 -56q-135 -70 -303 -129q-78 -29 -103 16q-12 25 35 68q119 111 250 209q18 14 46 18t38 0q28 -10 58 -53t30 -73zM170 631q0 389 -8 491q-4 37 -58 63t-55 46q0 31 49 51q172 54 212 68t73 14q13 0 23 -27t10 -61l-4 -799q0 -237 3 -281t19 -68
t70 -45t55 -58q0 -31 -59 -31l-201 6l-223 -10q-27 0 -44 10t-18 23q0 35 54 56t71 41q16 20 23 56q8 66 8 455z" />
    <glyph glyph-name="Lcommaaccent" unicode="&#x13b;" horiz-adv-x="1189" 
d="M514 -496q-28 0 -46 10t-19 21q0 33 47 53q109 37 108 103q0 41 -72 59q-24 6 -50 28t-26 56t38 66q37 31 77 30q74 0 128 -52q55 -52 55 -135t-52 -141t-105 -78q-55 -20 -83 -20zM14 35q0 39 64 51q118 22 142 72q9 18 14 82q6 64 6 418t-3 392t-23 56t-80 42
q-58 24 -58 52q0 39 63 39l254 -6l262 6q66 0 66 -40t-70 -54q-69 -14 -93 -39t-28 -70q-10 -119 -10 -425t10 -423q2 -22 34 -48q93 -74 286 -34q49 12 106 72t97 133q25 53 47 54q23 0 37 -25t10 -51q-27 -131 -68 -246q-20 -51 -90 -51l-553 8l-346 -10q-32 0 -54 13
t-22 32z" />
    <glyph glyph-name="lcommaaccent" unicode="&#x13c;" horiz-adv-x="575" 
d="M196 -496q-28 0 -46 10t-19 21q0 33 47 53q109 37 109 103q0 41 -72 59q-25 6 -51 28t-25 56q0 34 37 66q37 31 78 30q74 0 128 -52t54 -135t-51 -141t-105 -78q-56 -20 -84 -20zM170 631q0 389 -8 491q-4 37 -58 63t-55 46q0 31 49 51q172 54 212 68t73 14q13 0 23 -27
t10 -61l-4 -799q0 -237 3 -281t19 -68t70 -45t55 -58q0 -31 -59 -31l-201 6l-223 -10q-27 0 -44 10t-18 23q0 35 54 56t71 41q16 20 23 56q8 66 8 455z" />
    <glyph glyph-name="Lcaron" unicode="&#x13d;" horiz-adv-x="1189" 
d="M893 1165q-6 29 19 48q24 19 71 43t71 26q72 6 12 -236q-59 -243 -114 -241q-16 0 -29 19t-14 36q-6 143 -16 305zM14 35q0 39 64 51q118 22 142 72q9 18 14 82q6 64 6 418t-3 392t-23 56t-80 42q-58 24 -58 52q0 39 63 39l254 -6l262 6q66 0 66 -40t-70 -54
q-69 -14 -93 -39t-28 -70q-10 -119 -10 -425t10 -423q2 -22 34 -48q93 -74 286 -34q49 12 106 72t97 133q25 53 47 54q23 0 37 -25t10 -51q-27 -131 -68 -246q-20 -51 -90 -51l-553 8l-346 -10q-32 0 -54 13t-22 32z" />
    <glyph glyph-name="lcaron" unicode="&#x13e;" horiz-adv-x="575" 
d="M545 899q-15 -1 -29 19t-14 36q-6 143 -13 241t13 110q28 23 74 46t70 25q43 4 38 -72q-4 -75 -32 -190q-52 -215 -107 -215zM170 631q0 389 -8 491q-4 37 -58 63t-55 46q0 31 49 51q172 54 212 68t73 14q13 0 23 -27t10 -61l-4 -799q0 -237 3 -281t19 -68t70 -45t55 -58
q0 -31 -59 -31l-201 6l-223 -10q-27 0 -44 10t-18 23q0 35 54 56t71 41q16 20 23 56q8 66 8 455z" />
    <glyph glyph-name="Ldot" unicode="&#x13f;" horiz-adv-x="1189" 
d="M801 707q1 67 41 107t108 40t103 -48t34 -93q0 -76 -49 -113t-99 -37t-94 39t-44 105zM14 35q0 39 64 51q118 22 142 72q9 18 14 82q6 64 6 418t-3 392t-23 56t-80 42q-58 24 -58 52q0 39 63 39l254 -6l262 6q66 0 66 -40t-70 -54q-69 -14 -93 -39t-28 -70
q-10 -119 -10 -425t10 -423q2 -22 34 -48q93 -74 286 -34q49 12 106 72t97 133q25 53 47 54q23 0 37 -25t10 -51q-27 -131 -68 -246q-20 -51 -90 -51l-553 8l-346 -10q-32 0 -54 13t-22 32z" />
    <glyph glyph-name="ldot" unicode="&#x140;" horiz-adv-x="575" 
d="M170 631q0 389 -8 491q-4 37 -58 63t-55 46q0 31 49 51q172 54 212 68t73 14q13 0 23 -27t10 -61l-4 -799q0 -237 3 -281t19 -68t70 -45t55 -58q0 -31 -59 -31l-201 6l-223 -10q-27 0 -44 10t-18 23q0 35 54 56t71 41q16 20 23 56q8 66 8 455zM594 821q68 0 98 -50
t31 -89q0 -74 -47 -111q-99 -78 -191 2q-43 39 -43 103t42 104q42 41 110 41z" />
    <glyph glyph-name="Lslash" unicode="&#x141;" horiz-adv-x="1189" 
d="M14 37q0 35 60 46t91 25q61 26 69 105q8 80 8 172t-4 96t-11 2l-127 -45q-12 -4 -26 15q-23 37 -23 56t19 32l155 57q16 8 17 25q0 385 -3 423t-23 62q-20 23 -78 40t-58 54t61 37l258 -8l254 8q70 0 70 -37t-68 -54q-69 -17 -95 -41t-28 -75q-12 -141 -12 -327
q0 -5 5 -9t12 -2l288 99q9 4 23 -16t14 -43t-28 -42l-295 -108q-18 -8 -19 -31q0 -197 10 -356q2 -35 44 -65t83 -32q129 -4 181 3t107 63q53 56 85 112t46 71t32 16q37 0 37 -70t-66 -256q-18 -47 -88 -47l-555 8l-346 -10q-32 0 -54 14t-22 33z" />
    <glyph glyph-name="lslash" unicode="&#x142;" horiz-adv-x="575" 
d="M170 428q0 196 -3 202t-7 3l-99 -45q-23 -8 -30 16q-25 67 14 86l113 49q12 6 12 23q0 307 -5 353t-61 71q-33 14 -43 24t-10 23q0 29 47 49q131 37 207 66q51 16 78 16q33 0 33 -98t-4 -420q0 -12 18 -4l109 47q20 6 29 -8t10 -54q0 -18 -25 -32l-123 -56
q-16 -6 -16 -26q0 -442 2 -509t24 -87q22 -21 54 -31q34 -10 50 -26t15 -29q0 -37 -67 -37l-191 6l-225 -8q-59 0 -60 35q0 37 67 59t77 84t10 258z" />
    <glyph glyph-name="Nacute" unicode="&#x143;" horiz-adv-x="1568" 
d="M1102 1480q0 -30 -51 -57q-135 -70 -303 -129q-78 -29 -103 17q-12 25 35 67q119 111 250 209q18 15 46 19t38 0q28 -10 58 -54q30 -42 30 -72zM47 31q-1 33 71 57t99 52q27 30 34 119t17 374t10 338t-49 102q-51 59 -127 73t-77 68q0 31 49 31l352 -14q10 0 28 -9
t21 -16q37 -55 349 -390t358 -370q4 -4 12 0t13 27t7 173q5 363 -26 423q-27 47 -131 70q-33 8 -49 25q-31 33 2 58q18 13 51 13l129 -2l264 10q70 0 70 -43q0 -26 -68 -54t-90 -48q-20 -20 -23 -47q-20 -430 -20 -668l8 -291q0 -133 -51 -133q-68 0 -131 74
q-160 195 -225 266q-100 117 -512 565q-6 6 -14 0t-7 -16q-6 -136 -6 -240t5 -250t27 -190q23 -45 97 -72q74 -28 74 -66t-68 -38l-198 8l-199 -10q-76 0 -76 41z" />
    <glyph glyph-name="nacute" unicode="&#x144;" horiz-adv-x="1150" 
d="M186 608q0 25 -12 42t-48 47t-36 43q0 12 12 32t28 26t91 30q76 22 111 40t48 17q14 1 28 -11t14 -22l-6 -84q-2 -20 14 -8q150 102 277 102t206 -100q66 -94 69 -320t4 -260t11 -52t45 -38q57 -25 58 -57q0 -41 -68 -41l-184 6l-154 -6q-66 0 -65 39q0 31 43 45
q59 23 61 92q2 100 2 273t-35 219q-36 46 -114 45q-78 0 -135 -29q-7 -2 -15 -18t-8 -31v-453q0 -23 3 -35q7 -30 59 -52t53 -52q0 -43 -68 -43l-180 6l-203 -6q-66 0 -65 33q0 37 45 51q68 27 84 44q16 16 23 94t7 392zM690 1333q24 -1 67 -27q44 -26 46 -57
q0 -51 -197 -270q-39 -49 -82 -49q-18 0 -24 30t6 60q66 180 90 232t47 66q23 15 47 15z" />
    <glyph glyph-name="Ncommaaccent" unicode="&#x145;" horiz-adv-x="1568" 
d="M730 -479q-28 0 -48 9q-18 9 -18 21q0 33 47 54q109 37 108 102q0 41 -71 60q-25 5 -51 27q-25 22 -25 56t37 66q37 31 77 31q74 0 128 -52q54 -51 54 -135t-50 -142q-52 -58 -106 -78t-82 -19zM47 31q-1 33 71 57t99 52q27 30 34 119t17 374t10 338t-49 102
q-51 59 -127 73t-77 68q0 31 49 31l352 -14q10 0 28 -9t21 -16q37 -55 349 -390t358 -370q4 -4 12 0t13 27t7 173q5 363 -26 423q-27 47 -131 70q-33 8 -49 25q-31 33 2 58q18 13 51 13l129 -2l264 10q70 0 70 -43q0 -26 -68 -54t-90 -48q-20 -20 -23 -47q-20 -430 -20 -668
l8 -291q0 -133 -51 -133q-68 0 -131 74q-160 195 -225 266q-100 117 -512 565q-6 6 -14 0t-7 -16q-6 -136 -6 -240t5 -250t27 -190q23 -45 97 -72q74 -28 74 -66t-68 -38l-198 8l-199 -10q-76 0 -76 41z" />
    <glyph glyph-name="ncommaaccent" unicode="&#x146;" horiz-adv-x="1150" 
d="M486 -498q-28 0 -48 10q-18 10 -18 21q0 33 47 53q109 37 108 103q0 41 -71 59q-24 6 -50 28t-26 56t37 66q37 31 78 30q74 0 128 -52t54 -135t-51 -141q-52 -58 -106 -78t-82 -20zM186 608q0 25 -12 42t-48 47t-36 43q0 12 12 32t28 26t91 30q76 22 111 40t48 17
q14 1 28 -11t14 -22l-6 -84q-2 -20 14 -8q150 102 277 102t206 -100q66 -94 69 -320t4 -260t11 -52t45 -38q57 -25 58 -57q0 -41 -68 -41l-184 6l-154 -6q-66 0 -65 39q0 31 43 45q59 23 61 92q2 100 2 273t-35 219q-36 46 -114 45q-78 0 -135 -29q-7 -2 -15 -18t-8 -31
v-453q0 -23 3 -35q7 -30 59 -52t53 -52q0 -43 -68 -43l-180 6l-203 -6q-66 0 -65 33q0 37 45 51q68 27 84 44q16 16 23 94t7 392z" />
    <glyph glyph-name="Ncaron" unicode="&#x147;" horiz-adv-x="1568" 
d="M774 1264q-30 0 -102 66t-176 169q-35 33 -30 59q10 53 116 0q105 -52 186 -102q20 -10 35 0q47 31 174 100q45 23 69 23t30 -13t-1 -35q-9 -22 -27 -39t-83 -81t-114 -105q-48 -42 -77 -42zM47 31q-1 33 71 57t99 52q27 30 34 119t17 374t10 338t-49 102q-51 59 -127 73
t-77 68q0 31 49 31l352 -14q10 0 28 -9t21 -16q37 -55 349 -390t358 -370q4 -4 12 0t13 27t7 173q5 363 -26 423q-27 47 -131 70q-33 8 -49 25q-31 33 2 58q18 13 51 13l129 -2l264 10q70 0 70 -43q0 -26 -68 -54t-90 -48q-20 -20 -23 -47q-20 -430 -20 -668l8 -291
q0 -133 -51 -133q-68 0 -131 74q-160 195 -225 266q-100 117 -512 565q-6 6 -14 0t-7 -16q-6 -136 -6 -240t5 -250t27 -190q23 -45 97 -72q74 -28 74 -66t-68 -38l-198 8l-199 -10q-76 0 -76 41z" />
    <glyph glyph-name="ncaron" unicode="&#x148;" horiz-adv-x="1150" 
d="M186 608q0 25 -12 42t-48 47t-36 43q0 12 12 32t28 26t91 30q76 22 111 40t48 17q14 1 28 -11t14 -22l-6 -84q-2 -20 14 -8q150 102 277 102t206 -100q66 -94 69 -320t4 -260t11 -52t45 -38q57 -25 58 -57q0 -41 -68 -41l-184 6l-154 -6q-66 0 -65 39q0 31 43 45
q59 23 61 92q2 100 2 273t-35 219q-36 46 -114 45q-78 0 -135 -29q-7 -2 -15 -18t-8 -31v-453q0 -23 3 -35q7 -30 59 -52t53 -52q0 -43 -68 -43l-180 6l-203 -6q-66 0 -65 33q0 37 45 51q68 27 84 44q16 16 23 94t7 392zM560 924q-32 0 -86 89t-93 166q-39 75 -43 87
q-21 60 27 61q31 0 67 -45q72 -82 115 -135q17 -17 31 0q52 65 132 149q26 28 48 27q20 0 26 -24t-6 -44q-35 -80 -145 -264q-41 -67 -73 -67z" />
    <glyph glyph-name="napostrophe" unicode="&#x149;" horiz-adv-x="1150" 
d="M-4 1253q0 37 36 63t88 25q52 0 106 -54q54 -53 54 -127q1 -134 -89 -187q-71 -43 -121 -43q-16 0 -35 12q-18 12 -19 25q0 35 33 49q82 41 82 88t-78 70q-57 17 -57 79zM186 608q0 25 -12 42t-48 47t-36 43q0 12 12 32t28 26t91 30q76 22 111 40t48 17q14 1 28 -11
t14 -22l-6 -84q-2 -20 14 -8q150 102 277 102t206 -100q66 -94 69 -320t4 -260t11 -52t45 -38q57 -25 58 -57q0 -41 -68 -41l-184 6l-154 -6q-66 0 -65 39q0 31 43 45q59 23 61 92q2 100 2 273t-35 219q-36 46 -114 45q-78 0 -135 -29q-7 -2 -15 -18t-8 -31v-453
q0 -23 3 -35q7 -30 59 -52t53 -52q0 -43 -68 -43l-180 6l-203 -6q-66 0 -65 33q0 37 45 51q68 27 84 44q16 16 23 94t7 392z" />
    <glyph glyph-name="Eng" unicode="&#x14a;" horiz-adv-x="1554" 
d="M301 971q0 53 -50 107t-127 68t-77 64q0 35 53 35l342 -14q33 0 54 -25q68 -86 198 -227q461 -494 508 -528q6 -4 16 -2q9 2 9 10q20 90 6 452q-4 129 -26 166t-128 62q-33 8 -48 25q-15 16 -15 30t17 28t50 13l125 -2l273 10q66 0 65 -43q0 -30 -68 -56t-87 -45
q-17 -19 -23 -64t-14 -289t-8 -363l6 -254q0 -387 -68 -508q-31 -53 -81 -86t-83 -33q-94 0 -141 111q-6 12 0 34t20 23q139 31 189 77q49 46 49 165q0 43 -66 129q-33 37 -191 219t-546 606q-6 4 -13 -1t-7 -16t-4 -48t-4 -140q0 -424 34 -493q24 -45 98 -72q74 -28 74 -66
t-69 -38l-217 8l-181 -8q-76 0 -75 41q0 35 72 57t98 50q28 28 34 118t17 375q10 285 10 338z" />
    <glyph glyph-name="eng" unicode="&#x14b;" horiz-adv-x="1118" 
d="M971 483q0 -270 -2 -362q-12 -289 -187 -483q-45 -52 -105 -90t-83 -37q-57 -4 -90 28q-35 39 -35 109q0 10 12 30t17 21l145 -23q45 0 63 48q31 81 19 720q-4 166 -42 216t-113 49q-75 0 -121 -37q-20 -16 -21 -54v-442q0 -64 57 -84t57 -59t-65 -39l-182 6l-203 -6
q-66 0 -65 35q0 37 54 53q53 16 71 36t22 77q18 168 12 419q0 47 -65 86q-31 23 -31 39q0 15 13 35t29 28t93 30q76 22 107 37t46 15q14 0 28 -14t14 -24l-4 -82q0 -6 7 -9t33 17t46 35q20 14 78 36q58 21 130 21q71 0 123 -36t72 -68q66 -95 66 -277z" />
    <glyph glyph-name="Omacron" unicode="&#x14c;" horiz-adv-x="1624" 
d="M1055 1474q-1 -30 -17 -57t-32 -26l-435 -7q-6 0 -17 12t-11 42q1 30 15 61t30 31l448 2q5 0 12 -14t7 -44zM774 1174q-64 0 -124 -34t-89 -63q-131 -143 -131 -430q0 -231 116 -408t318 -178q54 0 110 26t83 52q131 123 131 467q0 296 -184 474q-98 94 -230 94z
M811 1274q305 0 503 -188t197 -468q0 -180 -93 -332t-248 -237q-155 -86 -357 -86q-307 -1 -505 189t-198 455t187 454q97 97 235 155t279 58z" />
    <glyph glyph-name="omacron" unicode="&#x14d;" horiz-adv-x="1099" 
d="M524 762q-68 0 -104 -49q-68 -91 -68 -235t33 -233t74 -122q55 -49 117 -49t112 66t49 238t-59 278t-154 106zM555 862q211 0 338 -132t127 -298q0 -207 -137 -332t-343 -125q-206 1 -333 127t-127 324t166 330q55 46 147 76t162 30zM797 1134q0 -28 -23 -69
q-16 -27 -31 -27l-426 -8q-4 0 -12 12t-8 44q-1 32 17 65t32 33l430 6q6 0 14 -14t7 -42z" />
    <glyph glyph-name="Obreve" unicode="&#x14e;" horiz-adv-x="1624" 
d="M774 1360q-90 0 -162 66t-75 192q0 16 11 34t25 19q35 0 48 -39q51 -116 177 -116t179 104q23 43 47 43q33 0 33 -37q0 -75 -58 -171q-59 -95 -225 -95zM774 1174q-64 0 -124 -34t-89 -63q-131 -143 -131 -430q0 -231 116 -408t318 -178q54 0 110 26t83 52
q131 123 131 467q0 296 -184 474q-98 94 -230 94zM811 1274q305 0 503 -188t197 -468q0 -180 -93 -332t-248 -237q-155 -86 -357 -86q-307 -1 -505 189t-198 455t187 454q97 97 235 155t279 58z" />
    <glyph glyph-name="obreve" unicode="&#x14f;" horiz-adv-x="1099" 
d="M524 762q-68 0 -104 -49q-68 -91 -68 -235t33 -233t74 -122q55 -49 117 -49t112 66t49 238t-59 278t-154 106zM555 862q211 0 338 -132t127 -298q0 -207 -137 -332t-343 -125q-206 1 -333 127t-127 324t166 330q55 46 147 76t162 30zM550 948q-102 0 -165 66
q-61 66 -68 184q-1 25 11 45t26 21q41 0 54 -47q48 -113 150 -113t140 113q20 47 45 47q43 0 39 -56q-10 -100 -70 -180t-162 -80z" />
    <glyph glyph-name="Ohungarumlaut" unicode="&#x150;" horiz-adv-x="1624" 
d="M1054 1694q26 0 68 -34q41 -34 41 -50q0 -34 -43 -100t-88 -120t-90 -53q-20 0 -28 26t-3 52q55 193 65 221t32 42q20 16 46 16zM718 1679q30 0 75 -27q45 -28 45 -60t-21 -54q-45 -76 -108 -158q-35 -51 -86 -51q-20 0 -29 25q-8 25 -2 51q31 141 59 223q17 51 67 51z
M774 1174q-64 0 -124 -34t-89 -63q-131 -143 -131 -430q0 -231 116 -408t318 -178q54 0 110 26t83 52q131 123 131 467q0 296 -184 474q-98 94 -230 94zM811 1274q305 0 503 -188t197 -468q0 -180 -93 -332t-248 -237q-155 -86 -357 -86q-307 -1 -505 189t-198 455t187 454
q97 97 235 155t279 58z" />
    <glyph glyph-name="ohungarumlaut" unicode="&#x151;" horiz-adv-x="1099" 
d="M524 762q-68 0 -104 -49q-68 -91 -68 -235t33 -233t74 -122q55 -49 117 -49t112 66t49 238t-59 278t-154 106zM555 862q211 0 338 -132t127 -298q0 -207 -137 -332t-343 -125q-206 1 -333 127t-127 324t166 330q55 46 147 76t162 30zM732 1300q38 0 72 -22t35 -50
t-51 -113t-86 -130q-29 -49 -69 -49q-14 0 -22 20q-7 20 -1 43q37 186 68 263q16 38 54 38zM478 1282q22 0 54 -20t34 -48q1 -28 -46 -114t-81 -134t-70 -48q-14 0 -22 18q-7 18 -3 43q23 143 62 260q13 43 72 43z" />
    <glyph glyph-name="OE" unicode="&#x152;" horiz-adv-x="2209" 
d="M2005 1216q0 -6 10 -102t8 -117q-2 -22 -16 -36q-29 -29 -58 0q-15 14 -26 36q-55 115 -88 121t-289 6q-22 0 -26 -42t-4 -361q0 -15 9 -25t19 -10h96q102 0 132 16q29 16 53 78q26 52 53 54q14 0 28 -16t13 -44l-6 -131q0 -19 4 -75t1 -100t-40 -44q-31 0 -55 49
q-23 55 -44 73q-22 17 -75 20t-158 3q-31 0 -30 -61l6 -272q0 -72 19 -92q41 -42 175 -43q133 -1 162 7t48 13q19 6 36 29q18 22 40 51t37 47t35 46t35 28q39 0 39 -74q0 -35 -38 -124t-53 -111t-56 -21l-197 4q-197 4 -260 4l-274 -4q-10 0 -19 12q-8 12 -8 31v82q0 8 -8 8
t-14 -4q-164 -162 -446 -162q-282 1 -473 189t-191 450q0 305 245 512q82 70 206 113t239 43q250 0 442 -174q6 -4 10 -1t4 7l-4 92q1 10 13 26t20 17l256 -4h225l205 6q10 0 22 -9q12 -8 11 -14zM796 1165q-110 0 -198 -80q-168 -150 -168 -448q0 -231 127 -396t317 -165
q45 0 110 20t97 45q172 129 172 459q0 154 -30 250q-31 96 -111 188q-43 51 -124 89q-82 38 -192 38z" />
    <glyph glyph-name="oe" unicode="&#x153;" horiz-adv-x="1560" 
d="M1144 770q-60 0 -108 -45t-51 -109q0 -18 21 -24q46 -12 124 -12t101 10t27 20t4 45t-28 75q-30 40 -90 40zM350 465q0 -170 60 -279t153 -108q63 0 107 49q61 68 61 256q0 61 -11 125q-46 262 -200 262q-60 0 -102 -53q-68 -82 -68 -252zM965 430q1 -117 71 -197
t201 -79q88 0 209 63q10 6 21 -2t12 -20q0 -49 -35 -84q-130 -135 -318 -135t-286 116q-12 14 -25 2q-133 -119 -289 -119q-198 0 -322 127t-124 324t156 324q137 114 309 114q84 0 167 -33t132 -83q12 -14 33 4q139 112 293 112t235 -94q80 -94 80 -197q0 -31 -24 -57
t-44 -24l-413 2q-39 0 -39 -64z" />
    <glyph glyph-name="Racute" unicode="&#x154;" horiz-adv-x="1388" 
d="M930 1518q0 -30 -51 -56q-135 -70 -304 -129q-78 -29 -102 17q-12 25 35 67q119 111 250 209q18 14 46 18t38 1q28 -9 58 -53t30 -74zM637 639q39 0 90 23t72 38q18 16 40 69q21 53 21 114q0 106 -67 184q-68 78 -187 78q-78 0 -80 -53l4 -402q0 -25 17 -33
q51 -18 90 -18zM1137 926q0 -142 -95 -226q-23 -18 -110 -65q-12 -8 2 -49q98 -190 235 -359q92 -113 211 -153q41 -12 41 -42t-38 -45t-80 -16q-131 0 -233 38t-200 167q-47 61 -200 301q-43 66 -119 66q-20 0 -21 -31q0 -208 6 -282t27 -92q20 -18 90 -46q59 -27 60 -53
q0 -19 -25 -33t-51 -14l-262 8l-217 -8q-35 0 -56 12q-20 12 -20 29q0 35 66 55t85 44q21 24 23 98t2 392q0 320 -10 427q-8 72 -105 90q-27 6 -44 21t-17 30q0 47 86 47l172 -2l348 10q217 0 318 -76q131 -101 131 -243z" />
    <glyph glyph-name="racute" unicode="&#x155;" horiz-adv-x="790" 
d="M184 604q0 25 -49 66t-49 59q0 17 14 35t27 24q170 60 205 76t53 17q4 1 15 -15q12 -16 14 -33t2 -90q0 -6 7 -10t11 4q113 125 215 125q49 0 93 -28t44 -57q0 -30 -30 -75t-64 -71q-29 -29 -49 -29t-49 21q-12 12 -41 28q-69 38 -107 -4q-20 -20 -20 -39q0 -318 2 -386
t22 -93t86 -45q68 -20 68 -51q0 -18 -22 -31q-23 -12 -45 -12l-246 10l-174 -6q-29 0 -49 11t-21 28q0 33 53 53t66 43q12 23 15 116t3 359zM544 1343q24 -1 67 -27q44 -26 46 -56q0 -51 -196 -271q-39 -49 -82 -49q-19 0 -25 30t6 60q66 180 90 232t48 66q22 15 46 15z" />
    <glyph glyph-name="Rcommaaccent" unicode="&#x156;" horiz-adv-x="1388" 
d="M654 -500q-28 0 -48 10q-18 10 -18 21q0 33 47 53q109 37 108 103q0 41 -71 59q-24 6 -50 28t-26 56t37 66q37 31 78 30q74 0 128 -52t54 -135t-51 -141q-52 -58 -106 -78t-82 -20zM637 639q39 0 90 23t72 38q18 16 40 69q21 53 21 114q0 106 -67 184q-68 78 -187 78
q-78 0 -80 -53l4 -402q0 -25 17 -33q51 -18 90 -18zM1137 926q0 -142 -95 -226q-23 -18 -110 -65q-12 -8 2 -49q98 -190 235 -359q92 -113 211 -153q41 -12 41 -42t-38 -45t-80 -16q-131 0 -233 38t-200 167q-47 61 -200 301q-43 66 -119 66q-20 0 -21 -31q0 -208 6 -282
t27 -92q20 -18 90 -46q59 -27 60 -53q0 -19 -25 -33t-51 -14l-262 8l-217 -8q-35 0 -56 12q-20 12 -20 29q0 35 66 55t85 44q21 24 23 98t2 392q0 320 -10 427q-8 72 -105 90q-27 6 -44 21t-17 30q0 47 86 47l172 -2l348 10q217 0 318 -76q131 -101 131 -243z" />
    <glyph glyph-name="rcommaaccent" unicode="&#x157;" horiz-adv-x="790" 
d="M236 -496q-28 0 -48 10q-18 10 -18 21q0 33 47 53q109 37 109 103q0 41 -72 59q-24 6 -50 28t-26 56t37 66q37 31 78 30q74 0 128 -52t54 -135t-51 -141q-52 -58 -106 -78t-82 -20zM184 604q0 25 -49 66t-49 59q0 17 14 35t27 24q170 60 205 76t53 17q4 1 15 -15
q12 -16 14 -33t2 -90q0 -6 7 -10t11 4q113 125 215 125q49 0 93 -28t44 -57q0 -30 -30 -75t-64 -71q-29 -29 -49 -29t-49 21q-12 12 -41 28q-69 38 -107 -4q-20 -20 -20 -39q0 -318 2 -386t22 -93t86 -45q68 -20 68 -51q0 -18 -22 -31q-23 -12 -45 -12l-246 10l-174 -6
q-29 0 -49 11t-21 28q0 33 53 53t66 43q12 23 15 116t3 359z" />
    <glyph glyph-name="Rcaron" unicode="&#x158;" horiz-adv-x="1388" 
d="M616 1317q-30 -1 -102 65t-176 170q-35 33 -30 59q10 53 116 0q105 -52 186 -102q20 -10 35 0q47 31 174 101q82 42 100 9q7 -13 -1 -35t-26 -39t-72 -69q-53 -52 -114 -105q-61 -54 -90 -54zM637 639q39 0 90 23t72 38q18 16 40 69q21 53 21 114q0 106 -67 184
q-68 78 -187 78q-78 0 -80 -53l4 -402q0 -25 17 -33q51 -18 90 -18zM1137 926q0 -142 -95 -226q-23 -18 -110 -65q-12 -8 2 -49q98 -190 235 -359q92 -113 211 -153q41 -12 41 -42t-38 -45t-80 -16q-131 0 -233 38t-200 167q-47 61 -200 301q-43 66 -119 66q-20 0 -21 -31
q0 -208 6 -282t27 -92q20 -18 90 -46q59 -27 60 -53q0 -19 -25 -33t-51 -14l-262 8l-217 -8q-35 0 -56 12q-20 12 -20 29q0 35 66 55t85 44q21 24 23 98t2 392q0 320 -10 427q-8 72 -105 90q-27 6 -44 21t-17 30q0 47 86 47l172 -2l348 10q217 0 318 -76q131 -101 131 -243z
" />
    <glyph glyph-name="rcaron" unicode="&#x159;" horiz-adv-x="790" 
d="M184 604q0 25 -49 66t-49 59q0 17 14 35t27 24q170 60 205 76t53 17q4 1 15 -15q12 -16 14 -33t2 -90q0 -6 7 -10t11 4q113 125 215 125q49 0 93 -28t44 -57q0 -30 -30 -75t-64 -71q-29 -29 -49 -29t-49 21q-12 12 -41 28q-69 38 -107 -4q-20 -20 -20 -39q0 -318 2 -386
t22 -93t86 -45q68 -20 68 -51q0 -18 -22 -31q-23 -12 -45 -12l-246 10l-174 -6q-29 0 -49 11t-21 28q0 33 53 53t66 43q12 23 15 116t3 359zM402 942q-32 0 -76 76q-145 242 -151 284q-5 42 32 44q31 0 67 -46q72 -82 115 -135q17 -17 31 0q34 42 117 133q43 43 63 43
t27 -23q6 -24 -6 -44q-35 -80 -146 -264q-41 -68 -73 -68z" />
    <glyph glyph-name="Sacute" unicode="&#x15a;" horiz-adv-x="1073" 
d="M883 1542q0 -31 -52 -55q-135 -70 -303 -129q-78 -29 -102 16q-12 25 35 68q119 111 250 209q18 14 46 18t38 0q29 -10 59 -53t29 -74zM866 911q-25 0 -43 50q-33 98 -103 159q-71 62 -151 62t-132 -54t-52 -124t46 -124t153 -112q199 -104 292 -198t93 -230
q0 -184 -178 -297q-57 -35 -143 -57t-156 -23q-197 0 -316 62q-35 18 -47 43q-39 80 -39 215q0 31 14 57t33 25q31 0 70 -70q55 -113 139 -174t163 -61t135 43q56 44 56 122q0 45 -11 76t-63 80t-153 106q-176 95 -258 191t-82 233q0 94 52 170t130 121q119 70 281 70
q81 0 157 -20t130 -33q8 -1 17 -21t9 -37l13 -162q0 -88 -56 -88z" />
    <glyph glyph-name="sacute" unicode="&#x15b;" horiz-adv-x="774" 
d="M408 772q-37 0 -65 -27t-28 -71t38 -78q38 -33 151 -90q207 -104 207 -256q-1 -86 -51 -146q-110 -129 -320 -129q-164 0 -225 52q-14 14 -30 82q-15 68 -15 98q0 57 43 57q27 0 65 -51q98 -141 203 -141q49 0 72 28q47 56 2 119q-19 29 -51 45t-72 42t-70 44
q-164 90 -164 234t127 227q79 51 217 51q64 0 94 -9t57 -16l36 -9t22 -21q14 -18 17 -25l4 -120q0 -23 -12 -42t-27 -20q-35 0 -68 55q-76 117 -157 117zM522 1335q24 -1 67 -27q44 -26 46 -57q0 -51 -197 -270q-39 -49 -82 -49q-18 0 -24 30t6 60q66 180 90 232t47 66
q23 15 47 15z" />
    <glyph glyph-name="Scircumflex" unicode="&#x15c;" horiz-adv-x="1073" 
d="M559 1655q29 0 92 -60q37 -31 187 -178q32 -33 28 -57t-46 -25q-42 0 -253 127q-19 10 -37 0t-48 -27t-95 -56t-102 -40q-39 6 -31 35q8 30 26 48q58 58 187 182q63 51 92 51zM866 911q-25 0 -43 50q-33 98 -103 159q-71 62 -151 62t-132 -54t-52 -124t46 -124t153 -112
q199 -104 292 -198t93 -230q0 -184 -178 -297q-57 -35 -143 -57t-156 -23q-197 0 -316 62q-35 18 -47 43q-39 80 -39 215q0 31 14 57t33 25q31 0 70 -70q55 -113 139 -174t163 -61t135 43q56 44 56 122q0 45 -11 76t-63 80t-153 106q-176 95 -258 191t-82 233q0 94 52 170
t130 121q119 70 281 70q81 0 157 -20t130 -33q8 -1 17 -21t9 -37l13 -162q0 -88 -56 -88z" />
    <glyph glyph-name="scircumflex" unicode="&#x15d;" horiz-adv-x="774" 
d="M408 772q-37 0 -65 -27t-28 -71t38 -78q38 -33 151 -90q207 -104 207 -256q-1 -86 -51 -146q-110 -129 -320 -129q-164 0 -225 52q-14 14 -30 82q-15 68 -15 98q0 57 43 57q27 0 65 -51q98 -141 203 -141q49 0 72 28q47 56 2 119q-19 29 -51 45t-72 42t-70 44
q-164 90 -164 234t127 227q79 51 217 51q64 0 94 -9t57 -16l36 -9t22 -21q14 -18 17 -25l4 -120q0 -23 -12 -42t-27 -20q-35 0 -68 55q-76 117 -157 117zM403 1329q31 0 76 -78q7 -12 57 -98t80 -145q12 -16 12 -50t-30 -32q-27 0 -72 45q-22 29 -60 73t-54 64
q-16 14 -30 -6t-58 -70q-43 -49 -56 -65q-37 -37 -59 -37t-28 25q-5 26 5 44q51 113 144 263q42 67 73 67z" />
    <glyph glyph-name="Scedilla" unicode="&#x15e;" horiz-adv-x="1073" 
d="M866 911q-25 0 -43 50q-33 98 -103 159q-71 62 -151 62t-132 -54t-52 -124t46 -124t153 -112q199 -104 292 -198t93 -230q0 -184 -178 -297q-61 -37 -175 -63q-4 -4 -59 -84q-4 -4 -1 -12t9 -11q129 -57 129 -153t-119 -175q-90 -61 -150 -61t-81 37q-10 16 -9 42t11 40
q31 27 70 14q47 -20 63 -20q68 0 68 63q0 38 -32 60t-75 22h-32q-10 0 -26 14q-15 14 -15 26t20 40l121 141h-16q-197 0 -316 62q-35 18 -47 43q-39 80 -39 215q0 31 14 57t33 25q31 0 70 -70q55 -113 139 -174t163 -61t135 43q56 44 56 122q0 45 -11 76t-63 80t-153 106
q-176 95 -258 191t-82 233q0 94 52 170t130 121q119 70 281 70q81 0 157 -20t130 -33q8 -1 17 -21t9 -37l13 -162q0 -88 -56 -88z" />
    <glyph glyph-name="scedilla" unicode="&#x15f;" horiz-adv-x="774" 
d="M408 772q-37 0 -65 -27t-28 -71t38 -78q38 -33 151 -90q207 -104 207 -256q-1 -86 -51 -146q-73 -86 -191 -112l-72 -92q-6 -18 11 -23q122 -55 122 -145t-102 -158q-178 -118 -231 -33q-29 41 2 78q23 23 71 10q39 -16 56 -16q63 0 63 61q0 35 -30 57t-70 21h-33
q-10 0 -24 14t-15 27q0 12 21 35l129 147h-27q-164 0 -225 52q-14 14 -30 82q-15 68 -15 98q0 57 43 57q27 0 65 -51q98 -141 203 -141q49 0 72 28q47 56 2 119q-19 29 -51 45t-72 42t-70 44q-164 90 -164 234t127 227q79 51 217 51q64 0 94 -9t57 -16l36 -9t22 -21
q14 -18 17 -25l4 -120q0 -23 -12 -42t-27 -20q-35 0 -68 55q-76 117 -157 117z" />
    <glyph glyph-name="Scaron" unicode="&#x160;" horiz-adv-x="1073" 
d="M553 1337q-29 0 -92 60q-82 72 -187 176q-36 33 -30 59t37 25q53 0 266 -127q20 -10 35 0q47 31 174 100q44 23 68 23q48 0 30 -48q-8 -22 -26 -39t-62 -59q-43 -42 -113 -106q-71 -64 -100 -64zM866 911q-25 0 -43 50q-33 98 -103 159q-71 62 -151 62t-132 -54t-52 -124
t46 -124t153 -112q199 -104 292 -198t93 -230q0 -184 -178 -297q-57 -35 -143 -57t-156 -23q-197 0 -316 62q-35 18 -47 43q-39 80 -39 215q0 31 14 57t33 25q31 0 70 -70q55 -113 139 -174t163 -61t135 43q56 44 56 122q0 45 -11 76t-63 80t-153 106q-176 95 -258 191
t-82 233q0 94 52 170t130 121q119 70 281 70q81 0 157 -20t130 -33q8 -1 17 -21t9 -37l13 -162q0 -88 -56 -88z" />
    <glyph glyph-name="scaron" unicode="&#x161;" horiz-adv-x="774" 
d="M408 772q-37 0 -65 -27t-28 -71t38 -78q38 -33 151 -90q207 -104 207 -256q-1 -86 -51 -146q-110 -129 -320 -129q-164 0 -225 52q-14 14 -30 82q-15 68 -15 98q0 57 43 57q27 0 65 -51q98 -141 203 -141q49 0 72 28q47 56 2 119q-19 29 -51 45t-72 42t-70 44
q-164 90 -164 234t127 227q79 51 217 51q64 0 94 -9t57 -16l36 -9t22 -21q14 -18 17 -25l4 -120q0 -23 -12 -42t-27 -20q-35 0 -68 55q-76 117 -157 117zM402 930q-32 0 -91 100q-113 190 -132 247q-20 56 28 56q31 0 67 -45q72 -82 115 -135q17 -17 31 0q34 42 117 133
q43 43 63 43t27 -23q6 -24 -6 -44q-35 -80 -146 -265q-41 -67 -73 -67z" />
    <glyph glyph-name="Tcommaaccent" unicode="&#x162;" horiz-adv-x="1441" 
d="M614 -496q-28 0 -46 10t-19 21q0 33 47 53q109 37 109 103q0 41 -72 59q-25 6 -51 28t-25 56q0 34 37 66q37 31 78 30q74 0 128 -52t54 -135t-51 -141t-105 -78q-56 -20 -84 -20zM555 1071q0 15 -8 29t-15 14q-237 0 -263 -8q-25 -8 -56 -44t-55 -100t-56 -65
q-24 0 -38 24t-14 52q0 29 11 119q9 90 9 130t18 60q18 18 34 18t40 -22q50 -39 128 -42t150 -3h650q147 0 172 24q39 43 53 43t38 -18q23 -18 23 -28t-12 -95q-12 -84 -12 -192q0 -29 -18 -53t-44 -23q-31 1 -48 77t-46 103q-28 27 -96 35t-230 8q-16 0 -20 -35
q-14 -129 -14 -431t5 -370t23 -106q18 -37 36 -47t82 -35q65 -25 65 -51q0 -49 -82 -49l-344 10l-226 -6q-33 0 -55 13t-23 36q0 35 66 53q102 27 134 58t32 118l6 492v307z" />
    <glyph glyph-name="tcommaaccent" unicode="&#x163;" horiz-adv-x="718" 
d="M300 -518q-28 0 -48 9q-18 9 -19 22q0 33 48 53q109 37 108 102q0 41 -72 60q-25 6 -51 28t-24 56q0 34 37 65t77 31q74 0 128 -52t54 -136t-50 -141q-52 -57 -106 -77t-82 -20zM414 864q0 -26 20 -26l223 10q7 0 17 -9t13 -21t3 -70q-2 -14 -15 -30t-34 -16l-209 -2
q-4 0 -10 -9t-6 -19l-4 -346q-2 -100 32 -142q36 -39 88 -39q52 -1 95 13t47 14t12 -10t8 -23q0 -45 -55 -87q-97 -74 -239 -76q-142 -1 -207 102q-29 43 -29 145l8 447q0 14 -10 22t-41 14t-47 28t-17 36q0 16 43 43q135 96 168 133t68 52q35 16 46 16t21 -14t11 -25v-111z
" />
    <glyph glyph-name="Tcaron" unicode="&#x164;" horiz-adv-x="1441" 
d="M700 1300q-29 0 -92 60q-82 72 -186 176q-35 32 -30 58t36 26q56 0 266 -127q20 -10 35 0q47 31 174 100q45 23 69 23t30 -13q17 -33 -33 -79q-106 -106 -173 -165t-96 -59zM555 1071q0 15 -8 29t-15 14q-237 0 -263 -8q-25 -8 -56 -44t-55 -100t-56 -65q-24 0 -38 24
t-14 52q0 29 11 119q9 90 9 130t18 60q18 18 34 18t40 -22q50 -39 128 -42t150 -3h650q147 0 172 24q39 43 53 43t38 -18q23 -18 23 -28t-12 -95q-12 -84 -12 -192q0 -29 -18 -53t-44 -23q-31 1 -48 77t-46 103q-28 27 -96 35t-230 8q-16 0 -20 -35q-14 -129 -14 -431
t5 -370t23 -106q18 -37 36 -47t82 -35q65 -25 65 -51q0 -49 -82 -49l-344 10l-226 -6q-33 0 -55 13t-23 36q0 35 66 53q102 27 134 58t32 118l6 492v307z" />
    <glyph glyph-name="tcaron" unicode="&#x165;" horiz-adv-x="718" 
d="M580 950q-16 0 -30 20t-13 36q-6 143 -13 240t13 110q27 23 73 46t70 25q43 4 39 -72q-4 -75 -32 -190q-52 -215 -107 -215zM414 864q0 -26 20 -26l223 10q7 0 17 -9t13 -21t3 -70q-2 -14 -15 -30t-34 -16l-209 -2q-4 0 -10 -9t-6 -19l-4 -346q-2 -100 32 -142
q36 -39 88 -39q52 -1 95 13t47 14t12 -10t8 -23q0 -45 -55 -87q-97 -74 -239 -76q-142 -1 -207 102q-29 43 -29 145l8 447q0 14 -10 22t-41 14t-47 28t-17 36q0 16 43 43q135 96 168 133t68 52q35 16 46 16t21 -14t11 -25v-111z" />
    <glyph glyph-name="Tbar" unicode="&#x166;" horiz-adv-x="1441" 
d="M537 700q6 0 12 8t6 13v350q0 15 -8 29t-19 14q-147 0 -204 -2q-56 -2 -94 -31t-72 -123q-23 -61 -56 -61q-24 0 -38 24t-14 51q0 26 12 118q11 92 10 155q0 19 17 37t31 18t44 -20q43 -41 125 -44t176 -3h625q152 0 172 24q35 45 51 45t40 -18q23 -20 23 -30t-12 -95
q-12 -84 -12 -192q0 -29 -18 -53t-44 -23q-31 -1 -48 77t-44 104q-26 26 -96 34t-232 8q-16 0 -20 -35q-12 -119 -12 -362q0 -18 18 -19h234q14 2 15 -27t-13 -51t-29 -22l-211 -2q-16 0 -16 -16q0 -308 12 -363t34 -75t36 -27q14 -6 72 -28t57 -48q0 -49 -82 -49l-344 10
l-226 -6q-33 0 -55 13t-23 36q0 35 66 53q102 27 134 60t32 120l6 297q0 5 -5 13t-11 8l-207 -2q-18 2 -18 32t22 76h201z" />
    <glyph glyph-name="tbar" unicode="&#x167;" horiz-adv-x="718" 
d="M532 145q49 0 82 13l56 16q25 0 24 -33q0 -51 -71 -100q-88 -66 -224 -66t-204 99q-31 45 -31 147l2 185q0 18 -12 18l-82 4q-14 2 -14 26t8 46q10 20 20 20l68 2q14 0 18 19l-2 129q0 17 -16 25q-16 7 -41 13t-40 27q-15 19 -15 33t32 39q98 61 168 133t119 72
q14 0 25 -12t12 -25l-2 -109q0 -8 6 -17t16 -9l232 12q12 0 17 -20t5 -84q-4 -43 -39 -43l-217 -3q-18 0 -18 -32v-127q0 -20 16 -21l166 4q6 0 15 -23t-2 -50t-23 -27h-156q-16 0 -16 -18l-2 -84q0 -179 120 -179z" />
    <glyph glyph-name="Utilde" unicode="&#x168;" horiz-adv-x="1548" 
d="M946 1374q-14 0 -123 14t-133 6q-24 -6 -54 -46q-28 -40 -42 -40t-33 17q-18 15 -18 29q1 14 43 84q71 118 135 116q23 0 118 -11t158 -9q26 3 58 35l37 37q10 10 21 10t29 -27t9 -37q-84 -106 -117 -142t-88 -36zM1530 1200q0 -32 -72 -56t-91 -48t-25 -66
q-6 -41 -25 -414q-12 -226 -55 -338t-127 -194q-123 -121 -361 -121q-129 0 -245 43t-175 125q-78 102 -99 221q-22 120 -22 328t-8 348q-4 60 -23 78t-85 38t-66 56q0 43 99 43l268 -10l203 6q37 0 59 -14q46 -29 -1 -64q-24 -16 -72 -27t-67 -38q-47 -67 -24 -566
q12 -229 96 -313q102 -92 242 -92q285 0 324 317q14 98 14 346t-22 289t-126 64q-70 18 -69 57q0 14 21 28q22 13 57 13l174 -6l231 10q72 0 72 -43z" />
    <glyph glyph-name="utilde" unicode="&#x169;" horiz-adv-x="1124" 
d="M554 143q62 0 116 35q31 14 38 82t7 402q0 14 -10 36q-9 22 -19 27q-10 4 -39 13q-80 25 -80 55q1 14 21 29t49 16h115l174 6q8 0 18 -16t10 -33q0 -555 2 -617t35 -63q2 0 105 10q6 2 13 -10t7 -21q0 -68 -47 -76q-190 -23 -197 -24q-82 -20 -102 -20t-32 14
q-12 16 -13 32l-6 74q0 4 -7 9t-12 3q-166 -131 -313 -131q-47 0 -97 23t-72 46q-52 53 -52 128v477q0 35 -13 52t-59 41t-45 57q0 16 24 27t46 12l274 8q20 0 21 -68t-2 -233q-2 -166 1 -259t44 -122q35 -21 97 -21zM420 1059q-20 1 -58 -37t-52 -38t-27 18q-14 19 -15 35
t64 84q65 67 108 93q16 16 37 11q67 -31 141 -31t105 18q39 29 72 68q7 10 35 -8t28 -32t-12 -24q-12 -12 -81 -86t-79 -86q-25 -18 -37 -18t-92 16t-137 17z" />
    <glyph glyph-name="Umacron" unicode="&#x16a;" horiz-adv-x="1548" 
d="M1085 1452q0 -30 -16 -57t-33 -27l-434 -6q-6 0 -17 11t-12 22q1 51 15 81t30 31l449 2q6 0 12 -14q6 -13 6 -43zM1530 1200q0 -32 -72 -56t-91 -48t-25 -66q-6 -41 -25 -414q-12 -226 -55 -338t-127 -194q-123 -121 -361 -121q-129 0 -245 43t-175 125q-78 102 -99 221
q-22 120 -22 328t-8 348q-4 60 -23 78t-85 38t-66 56q0 43 99 43l268 -10l203 6q37 0 59 -14q46 -29 -1 -64q-24 -16 -72 -27t-67 -38q-47 -67 -24 -566q12 -229 96 -313q102 -92 242 -92q285 0 324 317q14 98 14 346t-22 289t-126 64q-70 18 -69 57q0 14 21 28q22 13 57 13
l174 -6l231 10q72 0 72 -43z" />
    <glyph glyph-name="umacron" unicode="&#x16b;" horiz-adv-x="1124" 
d="M554 143q62 0 116 35q31 14 38 82t7 402q0 14 -10 36q-9 22 -19 27q-10 4 -39 13q-80 25 -80 55q1 14 21 29t49 16h115l174 6q8 0 18 -16t10 -33q0 -555 2 -617t35 -63q2 0 105 10q6 2 13 -10t7 -21q0 -68 -47 -76q-190 -23 -197 -24q-82 -20 -102 -20t-32 14
q-12 16 -13 32l-6 74q0 4 -7 9t-12 3q-166 -131 -313 -131q-47 0 -97 23t-72 46q-52 53 -52 128v477q0 35 -13 52t-59 41t-45 57q0 16 24 27t46 12l274 8q20 0 21 -68t-2 -233q-2 -166 1 -259t44 -122q35 -21 97 -21zM811 1132q1 -28 -19 -62t-34 -34l-426 -8q-4 0 -13 12
q-8 12 -8 44q1 32 19 65t30 33l431 6q6 0 13 -14t7 -42z" />
    <glyph glyph-name="Ubreve" unicode="&#x16c;" horiz-adv-x="1548" 
d="M801 1309q-90 1 -162 67t-76 191q0 17 11 35t26 18q35 0 47 -39q51 -117 177 -117t180 105q23 43 47 43q54 0 20 -114q-57 -189 -270 -189zM1530 1200q0 -32 -72 -56t-91 -48t-25 -66q-6 -41 -25 -414q-12 -226 -55 -338t-127 -194q-123 -121 -361 -121q-129 0 -245 43
t-175 125q-78 102 -99 221q-22 120 -22 328t-8 348q-4 60 -23 78t-85 38t-66 56q0 43 99 43l268 -10l203 6q37 0 59 -14q46 -29 -1 -64q-24 -16 -72 -27t-67 -38q-47 -67 -24 -566q12 -229 96 -313q102 -92 242 -92q285 0 324 317q14 98 14 346t-22 289t-126 64
q-70 18 -69 57q0 14 21 28q22 13 57 13l174 -6l231 10q72 0 72 -43z" />
    <glyph glyph-name="ubreve" unicode="&#x16d;" horiz-adv-x="1124" 
d="M554 143q62 0 116 35q31 14 38 82t7 402q0 14 -10 36q-9 22 -19 27q-10 4 -39 13q-80 25 -80 55q1 14 21 29t49 16h115l174 6q8 0 18 -16t10 -33q0 -555 2 -617t35 -63q2 0 105 10q6 2 13 -10t7 -21q0 -68 -47 -76q-190 -23 -197 -24q-82 -20 -102 -20t-32 14
q-12 16 -13 32l-6 74q0 4 -7 9t-12 3q-166 -131 -313 -131q-47 0 -97 23t-72 46q-52 53 -52 128v477q0 35 -13 52t-59 41t-45 57q0 16 24 27t46 12l274 8q20 0 21 -68t-2 -233q-2 -166 1 -259t44 -122q35 -21 97 -21zM538 975q-102 -1 -163 65t-68 185q-2 25 9 45t28 20
q41 0 53 -47q47 -113 150 -113t141 113q20 47 45 47q43 0 39 -55q-10 -100 -70 -180q-62 -80 -164 -80z" />
    <glyph glyph-name="Uring" unicode="&#x16e;" horiz-adv-x="1548" 
d="M834 1589q-37 -1 -63 -29t-26 -69t28 -68t66 -27q39 0 63 28q24 26 24 66t-28 70t-64 29zM836 1677q84 0 137 -54t53 -131t-53 -132t-137 -55t-138 55q-53 55 -53 132t53 131q54 54 138 54zM1530 1200q0 -32 -72 -56t-91 -48t-25 -66q-6 -41 -25 -414q-12 -226 -55 -338
t-127 -194q-123 -121 -361 -121q-129 0 -245 43t-175 125q-78 102 -99 221q-22 120 -22 328t-8 348q-4 60 -23 78t-85 38t-66 56q0 43 99 43l268 -10l203 6q37 0 59 -14q46 -29 -1 -64q-24 -16 -72 -27t-67 -38q-47 -67 -24 -566q12 -229 96 -313q102 -92 242 -92
q285 0 324 317q14 98 14 346t-22 289t-126 64q-70 18 -69 57q0 14 21 28q22 13 57 13l174 -6l231 10q72 0 72 -43z" />
    <glyph glyph-name="uring" unicode="&#x16f;" horiz-adv-x="1124" 
d="M554 143q62 0 116 35q31 14 38 82t7 402q0 14 -10 36q-9 22 -19 27q-10 4 -39 13q-80 25 -80 55q1 14 21 29t49 16h115l174 6q8 0 18 -16t10 -33q0 -555 2 -617t35 -63q2 0 105 10q6 2 13 -10t7 -21q0 -68 -47 -76q-190 -23 -197 -24q-82 -20 -102 -20t-32 14
q-12 16 -13 32l-6 74q0 4 -7 9t-12 3q-166 -131 -313 -131q-47 0 -97 23t-72 46q-52 53 -52 128v477q0 35 -13 52t-59 41t-45 57q0 16 24 27t46 12l274 8q20 0 21 -68t-2 -233q-2 -166 1 -259t44 -122q35 -21 97 -21zM551 1225q-37 0 -64 -27t-27 -69q0 -41 28 -67
q26 -26 64 -26t64 25t25 68t-27 69t-63 27zM551 1317q82 0 135 -55q53 -56 53 -132t-53 -131t-135 -55t-135 55t-54 131q0 76 54 132t135 55z" />
    <glyph glyph-name="Uhungarumlaut" unicode="&#x170;" horiz-adv-x="1548" 
d="M1068 1677q26 1 67 -33t41 -59t-21 -51q-66 -106 -111 -160t-90 -53q-20 0 -28 26t-2 52q55 193 65 221t31 42q22 15 48 15zM730 1663q30 0 75 -28q45 -27 45 -59t-21 -54q-45 -76 -108 -158q-35 -51 -86 -51q-20 0 -29 24q-8 25 -2 52q31 141 60 223q16 51 66 51z
M1530 1200q0 -32 -72 -56t-91 -48t-25 -66q-6 -41 -25 -414q-12 -226 -55 -338t-127 -194q-123 -121 -361 -121q-129 0 -245 43t-175 125q-78 102 -99 221q-22 120 -22 328t-8 348q-4 60 -23 78t-85 38t-66 56q0 43 99 43l268 -10l203 6q37 0 59 -14q46 -29 -1 -64
q-24 -16 -72 -27t-67 -38q-47 -67 -24 -566q12 -229 96 -313q102 -92 242 -92q285 0 324 317q14 98 14 346t-22 289t-126 64q-70 18 -69 57q0 14 21 28q22 13 57 13l174 -6l231 10q72 0 72 -43z" />
    <glyph glyph-name="uhungarumlaut" unicode="&#x171;" horiz-adv-x="1124" 
d="M554 143q62 0 116 35q31 14 38 82t7 402q0 14 -10 36q-9 22 -19 27q-10 4 -39 13q-80 25 -80 55q1 14 21 29t49 16h115l174 6q8 0 18 -16t10 -33q0 -555 2 -617t35 -63q2 0 105 10q6 2 13 -10t7 -21q0 -68 -47 -76q-190 -23 -197 -24q-82 -20 -102 -20t-32 14
q-12 16 -13 32l-6 74q0 4 -7 9t-12 3q-166 -131 -313 -131q-47 0 -97 23t-72 46q-52 53 -52 128v477q0 35 -13 52t-59 41t-45 57q0 16 24 27t46 12l274 8q20 0 21 -68t-2 -233q-2 -166 1 -259t44 -122q35 -21 97 -21zM747 1305q37 0 71 -23q34 -22 35 -50t-50 -113t-86 -130
q-29 -49 -70 -49q-14 0 -21 20t-1 44q37 186 67 262q17 39 55 39zM492 1286q22 0 55 -20t34 -48t-46 -114t-81 -134t-71 -48q-14 0 -22 18q-7 18 -3 43q23 143 62 260q13 43 72 43z" />
    <glyph glyph-name="Uogonek" unicode="&#x172;" horiz-adv-x="1548" 
d="M1530 1200q0 -32 -72 -56t-91 -48t-25 -66q-6 -41 -25 -414q-12 -226 -55 -338t-127 -194q-39 -35 -68 -49q-86 -72 -138 -154t-52 -128q-1 -47 27 -73t65 -26t118 22q3 2 13 -9t10 -23t-8 -34t-12 -26q-80 -100 -222 -100q-94 0 -142 56t-48 124q0 145 199 307
q-66 -8 -103 -8q-129 0 -245 43t-175 125q-78 102 -99 221q-22 120 -22 328t-8 348q-4 60 -23 78t-85 38t-66 56q0 43 99 43l268 -10l203 6q37 0 59 -14q46 -29 -1 -64q-24 -16 -72 -27t-67 -38q-47 -67 -24 -566q12 -229 96 -313q102 -92 242 -92q285 0 324 317
q14 98 14 346t-22 289t-126 64q-70 18 -69 57q0 14 21 28q22 13 57 13l174 -6l231 10q72 0 72 -43z" />
    <glyph glyph-name="uogonek" unicode="&#x173;" horiz-adv-x="1124" 
d="M387 -25q-47 0 -97 23t-72 46q-52 53 -52 128v477q0 35 -13 52t-59 41t-45 57q0 16 24 27t46 12l274 8q20 0 21 -68t-2 -233q-2 -166 1 -259t44 -122q35 -20 97 -20t116 34q31 14 38 82t7 402q0 14 -10 36q-9 22 -19 27q-10 4 -39 13q-80 25 -80 55q1 14 21 29t49 16h115
l174 6q8 0 18 -16t10 -33q0 -555 2 -617t35 -63q2 0 105 10q6 2 13 -10t7 -39q0 -49 -61 -60q-83 -57 -141 -131t-58 -123q0 -50 28 -76t68 -26t115 23q6 2 19 -14t1 -46q-12 -29 -16 -33q-33 -40 -94 -70t-144 -30t-128 58t-45 135t75 164q76 87 193 157q-23 -4 -84 -17
q-62 -13 -78 -13t-28 14q-12 16 -13 32l-6 74q0 4 -7 9t-12 3q-166 -131 -313 -131z" />
    <glyph glyph-name="Wcircumflex" unicode="&#x174;" horiz-adv-x="1992" 
d="M1028 1657q29 0 92 -60q37 -31 187 -178q33 -33 29 -57t-47 -25q-42 0 -253 127q-20 10 -38 0t-47 -27q-30 -17 -95 -56t-102 -40q-39 6 -31 35q7 30 27 48t87 84t99 98q63 51 92 51zM2036 1200q0 -16 -20 -32t-40 -23q-80 -25 -116 -65q-85 -96 -326 -758
q-10 -29 -45 -122t-46 -125t-47 -73t-57 -41q-57 0 -96 119q-135 375 -250 651q-4 6 -12 6t-12 -6q-23 -61 -111 -276t-113 -289q-26 -74 -67 -140t-57 -67q-53 0 -76 70q-41 147 -183 506q-144 359 -172 433t-61 117t-99 65t-67 60q0 14 24 26t46 11l295 -14l198 4
q34 0 54 -14t20 -27q0 -43 -59 -54t-75 -37t-3 -71q12 -45 112 -300t132 -322q14 -20 26 -4q8 23 66 168t119 319q18 49 -25 166q-10 27 -42 49t-60 31q-68 18 -68 57q0 16 20 28t48 13l239 -6l217 6q29 0 49 -12q40 -24 4 -60q-16 -16 -40 -24q-84 -23 -84 -66
q0 -66 108 -340t141 -338q10 -23 23 -2q61 135 188 504q39 119 39 165t-96 75q-61 18 -61 55q0 12 17 28t48 15l164 -6l215 10q74 0 74 -43z" />
    <glyph glyph-name="wcircumflex" unicode="&#x175;" horiz-adv-x="1388" 
d="M469 807q0 -29 -55 -49q-27 -10 -32 -26t7 -50q102 -279 135 -356q12 -29 21 -4q114 254 114 286q0 31 -21 82q-22 51 -74 70t-52 47q0 39 70 39l180 -8l156 6q55 0 55 -36t-58 -54q-39 -12 -39 -39t58 -173q58 -148 70 -184q22 -63 36 -26q2 6 67 171t64 191
q0 35 -64 61t-65 50q0 16 20 26t40 11l119 -4l151 10q62 0 62 -35t-59 -55t-89 -74q-66 -124 -144 -320t-94 -245q-18 -49 -28 -80t-14 -39q-16 -33 -51 -33t-68 49q-18 22 -49 126t-117 304q-2 8 -10 8t-13 -5q-6 -17 -74 -165t-92 -214q-37 -100 -83 -101q-13 -1 -33 15
t-28 42t-44 117q-30 85 -104 269t-101 241q-35 85 -97 105t-62 51q0 39 69 39l197 -10l162 4q27 0 44 -10t17 -25zM741 1327q31 0 76 -78q6 -12 56 -98t81 -145q12 -14 12 -48t-30 -34q-27 0 -72 45q-22 29 -60 73t-54 64q-16 16 -30 -6t-58 -70q-43 -49 -56 -65
q-37 -37 -59 -37t-28 25q-5 26 5 44q51 113 144 263q42 67 73 67z" />
    <glyph glyph-name="Ycircumflex" unicode="&#x176;" horiz-adv-x="1333" 
d="M696 1645q29 0 92 -60q37 -31 187 -178q33 -33 29 -57t-36 -25q-54 0 -263 127q-19 10 -37 0q-38 -22 -123 -72q-84 -50 -123 -51q-39 6 -31 35q9 29 27 47t86 85t100 97q63 52 92 52zM311 39q-1 35 71 54t92 45t24 102t4 235q0 51 -41 123q-57 111 -136 246t-124 194
q-55 78 -143 104t-87 60q0 18 24 30t46 11l295 -10l199 6q25 0 43 -12t18 -29q0 -31 -68 -55q-41 -14 -34 -48q8 -34 105 -205q96 -171 124 -212q13 -16 29 -3t92 150t104 197t19 82q-7 23 -67 41t-60 51q0 41 75 41l146 -4l223 8q25 0 42 -11q17 -10 17 -26t-18 -32
t-47 -25q-117 -37 -189 -134q-73 -97 -165 -243t-112 -190t-24 -99t-4 -297q2 -32 35 -54t111 -44q51 -14 51 -51q0 -17 -20 -31t-50 -14l-254 10l-264 -6q-82 0 -82 45z" />
    <glyph glyph-name="ycircumflex" unicode="&#x177;" horiz-adv-x="931" 
d="M256 -471q-53 0 -86 40t-33 89t34 86t83 37h63q25 0 45 45q56 128 50 163q-5 35 -20 68q-16 33 -36 89t-104 252t-125 282q-25 47 -100 82q-52 20 -52 51q-1 11 15 23t41 12l262 -10l123 4q53 0 53 -37q0 -29 -53 -49q-23 -8 -27 -22t8 -50q90 -240 150 -367q4 -8 11 -7
t9 7q63 145 135 355q12 33 1 52t-52 34q-53 14 -53 47q0 14 18 25t39 12l107 -4l160 8q24 0 38 -11t15 -26q0 -33 -53 -51q-37 -10 -62 -32q-26 -22 -70 -110t-196 -471t-207 -538q-4 -18 -41 -48t-90 -30zM518 1327q31 0 76 -78q6 -12 56 -98t81 -145q12 -14 11 -48
q0 -34 -28 -34t-73 45q-23 29 -61 73t-52 62q-16 18 -31 -4t-59 -70q-44 -49 -55 -65q-37 -37 -59 -37t-28 26q-5 26 5 43q51 113 143 263q43 67 74 67z" />
    </font>
</defs>
</svg>
