<?xml version="1.0" standalone="no"?>
<!DOCTYPE svg PUBLIC "-//W3C//DTD SVG 1.1//EN" "http://www.w3.org/Graphics/SVG/1.1/DTD/svg11.dtd" >
<svg xmlns="http://www.w3.org/2000/svg">
<metadata>
Created by FontPrep 20130207 at Mon Jan  4 13:39:47 2016
 By Sergey Khabaroff
(c) 2005 Adobe Systems Incorporated. All Rights Reserved.
</metadata>
<defs>
<font id="ba4a6a7c38f311ac40bee98bfdac6ff6" horiz-adv-x='1024' >
  <font-face 
    font-family="GaramondPremrPro-MedItCapt"
    font-weight="500"
    font-style="italic"
    font-variant="small-caps"
    font-stretch="normal"
    units-per-em="2048"
    panose-1="2 2 5 2 5 5 6 9 4 3"
    ascent="1485"
    descent="-563"
    x-height="862"
    cap-height="1255"
    bbox="-397.333 -801 2791 1864"
    underline-thickness="102"
    underline-position="-102"
    slope="-18"
    unicode-range="U+0020-FB04"
  />
<missing-glyph horiz-adv-x="1024" 
d="M102 1239v-1044l349 522zM164 102h696l-348 523zM573 717l349 -522v1044zM512 809l348 522h-696zM0 0v1434h1024v-1434h-1024z" />
    <glyph glyph-name="T_h" unicode="Th" horiz-adv-x="2088" 
d="M535 1157q-76 0 -123 -35q-48 -35 -92 -89t-64 -54t-30 28q-9 27 5 57t49 113q34 83 48 111t34 29q20 0 35 -12q31 -37 79 -47t159 -11q110 0 393 -3t404 5q31 0 71 62q39 51 53 51t48 -10q33 -10 45 -21q18 -19 4 -69t-90 -294t-109 -364q-2 -12 8 -16l6 2
q150 154 238 213t184 59q52 0 98 -52t46 -150t-37 -241q-37 -144 -99 -249q-29 -41 -52 -60q-23 -20 -50 -42t-41 -33q-96 -80 -123 -80q-28 0 -62 26t-36 58q2 14 25 46t34 44t20 8t42 -24q33 -21 50 -21t40 39q35 73 76 229t41 266t-58 111q-47 -1 -91 -27t-116 -104
q-147 -164 -301 -561q-31 -74 -47 -74q-16 1 -46 13t-38 22q-18 27 6 105q2 6 127 472t142 531q2 12 -6 24t-15 11h-415q-31 0 -41 -37q-31 -96 -126 -433t-126 -464q-15 -69 7 -93t109 -46q51 -14 52 -45q-2 -37 -62 -37l-219 6l-268 -12q-37 0 -59 14t-19 27q4 35 86 47
t115 46t61 118q98 311 254 860q12 43 -20 45q-5 0 -71 6t-142 6z" />
    <glyph glyph-name="T_h.swash" unicode="&#xe0ea;h" horiz-adv-x="2172" 
d="M553 1155q-86 0 -142 -36q-57 -35 -57 -113t41 -142q8 -10 2 -26q-17 -45 -82 -45q-37 -1 -75 37t-39 100q0 62 39 126q129 210 483 210q140 0 272 -12q131 -12 290 -25q159 -12 212 14q29 14 46 66t40 61q59 18 119 8q31 -8 14 -71q-4 -16 -83 -300t-113 -415
q0 -11 5 -17t7 -4q178 178 263 235t177 56q52 0 98 -53t46 -139q0 -154 -48 -293t-81 -189q-32 -50 -56 -74t-55 -48t-39 -33q-86 -78 -118 -78q-33 0 -67 26t-36 60q4 31 59 86q3 2 13 4t13 1t36 -20q33 -20 50 -20t46 52t70 216t41 270t-58 107q-88 0 -207 -131
q-143 -160 -301 -561q-31 -74 -47 -74q-16 -1 -47 13t-37 22q-20 38 -8 86t121 494t135 549q0 6 -2 9t-8 1q-55 -25 -195 -25l-213 10q-27 0 -33 -22q-18 -58 -124 -452t-118 -456t20 -89t96 -41t65 -46q0 -32 -65 -32l-277 8l-242 -8q-23 0 -42 10t-20 24t18 27t83 23
t100 38t60 94t260 904q6 27 -22 31q-197 12 -283 12z" />
    <glyph glyph-name="Tcaron_h" unicode="&#x164;h" horiz-adv-x="2088" 
d="M897 1327q-18 0 -55 45q-70 94 -125 176q-16 25 -12 45q3 21 33 21t57 -27q10 -8 131 -92q6 -4 17 -4t128 57t154 56q37 -2 39 -15q6 -31 -35 -59q-145 -88 -221 -146t-111 -57zM535 1157q-76 0 -123 -35q-48 -35 -92 -89t-64 -54t-30 28q-9 27 5 57t49 113q34 83 48 111
t34 29q20 0 35 -12q31 -37 79 -47t159 -11q110 0 393 -3t404 5q31 0 71 62q39 51 53 51t48 -10q33 -10 45 -21q18 -19 4 -69t-90 -294t-109 -364q-2 -12 8 -16l6 2q150 154 238 213t184 59q52 0 98 -52t46 -150t-37 -241q-37 -144 -99 -249q-29 -41 -52 -60q-23 -20 -50 -42
t-41 -33q-96 -80 -123 -80q-28 0 -62 26t-36 58q2 14 25 46t34 44t20 8t42 -24q33 -21 50 -21t40 39q35 73 76 229t41 266t-58 111q-47 -1 -91 -27t-116 -104q-147 -164 -301 -561q-31 -74 -47 -74q-16 1 -46 13t-38 22q-18 27 6 105q2 6 127 472t142 531q2 12 -6 24t-15 11
h-415q-31 0 -41 -37q-31 -96 -126 -433t-126 -464q-15 -69 7 -93t109 -46q51 -14 52 -45q-2 -37 -62 -37l-219 6l-268 -12q-37 0 -59 14t-19 27q4 35 86 47t115 46t61 118q98 311 254 860q12 43 -20 45q-5 0 -71 6t-142 6z" />
    <glyph glyph-name="Tcaron_h.swash" unicode="&#xe0f1;h" horiz-adv-x="2172" 
d="M999 1341q-18 0 -55 45q-70 94 -125 177q-16 25 -12 45t34 20t56 -26q10 -8 131 -93q6 -2 18 -2t15 2q175 83 213 97t64 12t28 -14q6 -31 -35 -60q-145 -88 -221 -146t-111 -57zM553 1155q-86 0 -142 -36q-57 -35 -57 -113t41 -142q8 -10 2 -26q-17 -45 -82 -45
q-37 -1 -75 37t-39 100q0 62 39 126q129 210 483 210q140 0 272 -12q131 -12 290 -25q159 -12 212 14q29 14 46 66t40 61q59 18 119 8q31 -8 14 -71q-4 -16 -83 -300t-113 -415q0 -11 5 -17t7 -4q178 178 263 235t177 56q52 0 98 -53t46 -139q0 -154 -48 -293t-81 -189
q-32 -50 -56 -74t-55 -48t-39 -33q-86 -78 -118 -78q-33 0 -67 26t-36 60q4 31 59 86q3 2 13 4t13 1t36 -20q33 -20 50 -20t46 52t70 216t41 270t-58 107q-88 0 -207 -131q-143 -160 -301 -561q-31 -74 -47 -74q-16 -1 -47 13t-37 22q-20 38 -8 86t121 494t135 549q0 6 -2 9
t-8 1q-55 -25 -195 -25l-213 10q-27 0 -33 -22q-18 -58 -124 -452t-118 -456t20 -89t96 -41t65 -46q0 -32 -65 -32l-277 8l-242 -8q-23 0 -42 10t-20 24t18 27t83 23t100 38t60 94t260 904q6 27 -22 31q-197 12 -283 12z" />
    <glyph glyph-name="Tcommaaccent_h" unicode="&#x162;h" horiz-adv-x="2088" 
d="M395 -481q-18 0 -36 9q-17 9 -17 21q0 20 43 43q53 16 89 46t37 62q1 30 -30 42q-2 2 -8 4q-45 18 -53 45l-2 23q0 36 33 66t79 30t80 -40q33 -40 33 -103q0 -117 -82 -183t-166 -65zM535 1157q-76 0 -123 -35q-48 -35 -92 -89t-64 -54t-30 28q-9 27 5 57t49 113
q34 83 48 111t34 29q20 0 35 -12q31 -37 79 -47t159 -11q110 0 393 -3t404 5q31 0 71 62q39 51 53 51t48 -10q33 -10 45 -21q18 -19 4 -69t-90 -294t-109 -364q-2 -12 8 -16l6 2q150 154 238 213t184 59q52 0 98 -52t46 -150t-37 -241q-37 -144 -99 -249q-29 -41 -52 -60
q-23 -20 -50 -42t-41 -33q-96 -80 -123 -80q-28 0 -62 26t-36 58q2 14 25 46t34 44t20 8t42 -24q33 -21 50 -21t40 39q35 73 76 229t41 266t-58 111q-47 -1 -91 -27t-116 -104q-147 -164 -301 -561q-31 -74 -47 -74q-16 1 -46 13t-38 22q-18 27 6 105q2 6 127 472t142 531
q2 12 -6 24t-15 11h-415q-31 0 -41 -37q-31 -96 -126 -433t-126 -464q-15 -69 7 -93t109 -46q51 -14 52 -45q-2 -37 -62 -37l-219 6l-268 -12q-37 0 -59 14t-19 27q4 35 86 47t115 46t61 118q98 311 254 860q12 43 -20 45q-5 0 -71 6t-142 6z" />
    <glyph glyph-name="Tcommaaccent_h.swash" unicode="&#xe0f5;h" horiz-adv-x="2172" 
d="M481 -473q-18 0 -36 9q-17 9 -17 22q0 20 43 43q53 16 89 46q36 31 37 61t-30 42q-2 2 -8 4q-45 18 -53 45l-2 23q0 36 33 66t79 30t80 -40q33 -40 33 -103q0 -117 -82 -183t-166 -65zM553 1155q-86 0 -142 -36q-57 -35 -57 -113t41 -142q8 -10 2 -26q-17 -45 -82 -45
q-37 -1 -75 37t-39 100q0 62 39 126q129 210 483 210q140 0 272 -12q131 -12 290 -25q159 -12 212 14q29 14 46 66t40 61q59 18 119 8q31 -8 14 -71q-4 -16 -83 -300t-113 -415q0 -11 5 -17t7 -4q178 178 263 235t177 56q52 0 98 -53t46 -139q0 -154 -48 -293t-81 -189
q-32 -50 -56 -74t-55 -48t-39 -33q-86 -78 -118 -78q-33 0 -67 26t-36 60q4 31 59 86q3 2 13 4t13 1t36 -20q33 -20 50 -20t46 52t70 216t41 270t-58 107q-88 0 -207 -131q-143 -160 -301 -561q-31 -74 -47 -74q-16 -1 -47 13t-37 22q-20 38 -8 86t121 494t135 549q0 6 -2 9
t-8 1q-55 -25 -195 -25l-213 10q-27 0 -33 -22q-18 -58 -124 -452t-118 -456t20 -89t96 -41t65 -46q0 -32 -65 -32l-277 8l-242 -8q-23 0 -42 10t-20 24t18 27t83 23t100 38t60 94t260 904q6 27 -22 31q-197 12 -283 12z" />
    <glyph glyph-name="f_f_b" unicode="ffb" horiz-adv-x="2095" 
d="M1810 733q-115 0 -280 -196q-53 -63 -99 -179t-47 -188q0 -31 43 -65t64 -33q59 0 139 66t163 229q83 162 83 276q0 90 -66 90zM434 -344q150 0 205 219q86 340 184 836q0 23 -12 24l-338 -4q-16 0 -22 -33q-154 -767 -222 -909q-8 -27 2 -39q35 -38 95 -66t108 -28z
M760 1245q-88 0 -154 -98t-119 -297q-2 -4 3 -12t14 -9l330 5q6 0 14 8t10 16q35 127 103 248q8 12 -5 33q-27 47 -84 77t-112 29zM842 1339q58 1 118 -21t91 -58q2 -2 11 -2t13 2q55 55 134 94t163 39t162 -56q10 -10 24 0q14 11 48 29t53 18q17 0 29 -16t6 -39
q-139 -412 -205 -676q-2 -8 7 -14t15 2q231 221 400 221q59 0 102 -53q45 -49 45 -117q0 -180 -102 -345t-255 -271t-280 -105q-76 1 -137 57t-61 165q0 57 37 204q190 679 199 729t-9 86q-53 82 -145 82q-37 0 -79 -26t-71 -66q-88 -129 -133 -350q-2 -18 16 -18h185
q8 0 15 -10t7 -21q0 -12 -13 -35t-26 -25q-106 -8 -188 -8q-8 0 -16 -10t-9 -20q-100 -506 -170 -771q-31 -112 -85 -184t-162 -142t-230 -69q-121 0 -199 92q-4 6 -11 4t-11 -8q-61 -57 -147 -99t-142 -42q-55 0 -110 34t-56 85q2 23 31 57t49 40q20 7 53 -21
q77 -66 131 -66t84 39t66 173q35 134 109 468t86 407q0 25 -13 25h-153q-13 0 -13 23q0 22 18 46t27 23l142 4q23 6 24 17q86 299 279 420q121 79 252 79z" />
    <glyph glyph-name="f_f_h" unicode="ffh" horiz-adv-x="2152" 
d="M434 -344q150 0 205 219q86 340 184 836q0 23 -12 24l-338 -4q-16 0 -22 -33q-154 -767 -222 -909q-8 -27 2 -39q35 -38 95 -66t108 -28zM766 1247q-98 0 -166 -100q-82 -123 -115 -297q0 -20 17 -21l332 5q6 0 14 8t10 16q39 141 98 248q2 4 2 16t-2 17q-27 49 -81 79
t-109 29zM829 1339q61 -1 126 -23t96 -56q2 -2 11 -2t13 2q55 55 134 94t163 39t162 -56q10 -10 24 0q14 11 48 29t50 18q15 0 26 -16q12 -16 2 -58t-84 -316t-105 -400q0 -8 7 -16t11 -7q172 176 259 234t180 57q55 0 100 -52t45 -138q0 -156 -44 -296q-45 -140 -73 -186
t-48 -64q-20 -19 -57 -50q-38 -31 -50 -41q-96 -80 -124 -80t-62 26t-35 58q2 14 24 47q39 56 51 51q13 -4 45 -24t48 -21q23 0 40 39q33 61 72 228t39 273t-57 105q-47 -1 -91 -27t-116 -104q-147 -164 -301 -561q-27 -74 -49 -74q-12 1 -42 13t-38 22q-16 25 -7 71
t118 520q110 474 126 540q6 31 -16 75q-51 80 -143 80q-39 0 -82 -22t-70 -64q-86 -127 -133 -354q-2 -18 16 -18h185q8 0 15 -10t7 -21q0 -12 -13 -35t-26 -25q-106 -8 -188 -8q-8 0 -16 -10t-9 -20q-100 -506 -170 -771q-31 -112 -85 -184t-162 -142t-230 -69
q-121 0 -199 92q-4 6 -11 4t-11 -8q-61 -57 -147 -99t-142 -42q-55 0 -110 34t-56 85q2 23 31 57t49 40q20 7 53 -21q77 -66 131 -66t84 39t66 173q35 134 109 468t86 407q0 25 -13 25h-153q-13 0 -13 23q0 22 18 46t27 23l142 4q23 6 24 17q88 309 277 428q112 71 241 71z
" />
    <glyph glyph-name="f_f_j" unicode="ffj" horiz-adv-x="1622" 
d="M446 -342q62 0 114 52t83 179q84 332 182 824q2 23 -24 24l-322 -8q-23 0 -28 -33q-170 -810 -218 -909q-8 -25 3 -39q35 -38 92 -64q56 -26 118 -26zM761 1247q-57 0 -107 -40t-96 -132t-73 -227q-2 -20 17 -21l321 9q29 2 37 24q41 150 92 248q8 18 -12 50t-71 60
q-52 28 -108 29zM829 1339q68 1 127 -23t91 -56q10 -10 22 0q150 135 305 135q113 1 168 -51t55 -97q-1 -45 -33 -85t-67 -46q-12 0 -29 13q-16 13 -28 47t-50 76t-96 42q-170 0 -266 -442q-4 -18 16 -18l332 10q61 2 152 14q10 2 22 -15t11 -34q-13 -76 -91 -411
q-78 -334 -108 -428t-98 -185q-145 -186 -310 -186q-55 -1 -90 25t-35 50q-1 24 19 56q51 83 98 55q80 -59 127 -59t92 129t119 473t78 358t-7 38q-11 22 -40 19l-295 -8q-23 0 -29 -30q-92 -481 -168 -764q-57 -207 -237 -324q-123 -78 -236 -78q-49 0 -103 23t-91 65
q-14 20 -33 2q-53 -57 -140 -100t-143 -43t-113 33q-56 33 -55 84q0 25 27 57t51 40q24 7 51 -19q77 -66 131 -66t86 40t65 173q34 133 107 467q74 334 86 405q0 25 -14 25l-149 -4q-15 -1 -15 23t16 48t25 23l144 6q23 6 28 27q80 295 275 418q110 73 243 73z" />
    <glyph glyph-name="f_f_k" unicode="ffk" horiz-adv-x="2105" 
d="M1798 725q-55 0 -137 -69t-168 -236q-4 -8 7 -18t37 -9q25 0 99 32q74 31 142 99t68 134t-48 67zM829 1339q61 -1 126 -23t96 -56q2 -2 10 -2t12 2q137 133 289 133q94 0 172 -56q10 -10 30 4q60 43 83 43q46 0 39 -45q-8 -45 -82 -317t-105 -389q0 -12 14 -17
q41 41 119 106q168 140 243 140t113 -41t37 -90q2 -125 -110 -215q-57 -45 -128 -86t-95 -49q-6 -4 -14 -16t-5 -15q12 -12 51 -72t74 -106t78 -45q43 0 113 102q27 33 39 33q25 0 27 -39q1 -16 -7 -35q-58 -119 -116 -169t-132 -50t-147 117q-10 14 -42 68t-57 94
q-47 70 -90 69q-12 0 -45 -63q-35 -59 -98 -256q-2 -6 -17 -16t-31 -10q-17 0 -45 25q-28 26 -28 44q0 43 11 81t119 456t138 559q2 12 -5 39t-15 36q-47 80 -141 80q-39 0 -82 -22t-70 -64q-86 -127 -133 -354q-2 -18 16 -18h185q8 0 15 -10t7 -21q0 -12 -13 -35t-26 -25
q-106 -8 -190 -8q-6 0 -14 -10t-11 -20q-98 -504 -168 -771q-31 -112 -85 -184t-162 -142t-226 -69q-53 0 -109 24t-94 68q-6 14 -24 -4q-59 -55 -145 -98t-142 -43q-55 0 -110 34t-56 85q0 23 29 57t51 40q22 7 53 -21q75 -66 129 -66t86 39t62 153q106 432 199 895
q0 25 -13 25h-153q-13 0 -13 23q0 22 18 46t25 23l142 4q23 4 26 17q88 311 277 428q108 71 241 71zM432 -344q152 0 207 219q86 340 184 836q0 20 -14 24l-336 -4q-16 0 -22 -33q-154 -767 -222 -909q-8 -27 2 -39q33 -38 93 -66t108 -28zM766 1247q-98 0 -166 -100
q-82 -123 -115 -297q0 -20 17 -21l329 5q16 0 27 24q39 141 98 248q8 10 0 33q-27 49 -81 79t-109 29z" />
    <glyph glyph-name="f_f_t" unicode="fft" horiz-adv-x="1751" 
d="M840 1339q142 0 211 -79q8 -8 18 0q135 135 287 135q92 0 138 -44t45 -103t-48 -91q-27 -20 -47 -20t-34 13q-13 13 -13 21q-20 131 -117 132q-57 0 -115 -74q-90 -133 -139 -371q-2 -4 1 -12t9 -8q350 4 364 8t22 16q7 12 34 68t38 78t38 36q26 14 46 14t37 -8
q17 -10 17 -18t-49 -170q-4 -20 19 -20h190q14 0 14 -18t-17 -48q-17 -29 -26 -28l-194 -5q-15 1 -27 -33t-133 -454q-25 -86 6 -86q47 0 189 125q6 4 18 -7t12 -38t-28 -62q-53 -74 -167 -148t-155 -73q-42 0 -64 33q-22 34 -22 60t66 265t118 400q6 16 -8 16l-350 -2
q-9 0 -20 -13t-13 -26q-94 -487 -168 -766q-31 -112 -85 -184t-162 -142t-226 -69q-51 0 -107 26t-96 70q-6 12 -22 -4q-57 -57 -144 -101t-143 -44t-112 34q-55 34 -56 85q0 23 29 57t51 40q22 7 53 -21q75 -66 129 -66t86 39t62 153q106 432 199 895q0 25 -13 25h-153
q-13 0 -13 23q0 22 18 46t25 23l142 4q23 4 26 17q88 305 277 426q110 73 252 73zM432 -344q152 0 207 219q86 340 184 836q0 20 -14 24l-336 -4q-16 0 -22 -33q-148 -737 -222 -907q-21 -48 97 -105q59 -30 106 -30zM766 1247q-102 0 -168 -96q-78 -117 -113 -301
q0 -20 17 -21l329 5q16 0 27 24q35 127 103 248q4 6 -5 33q-27 49 -81 79t-109 29z" />
    <glyph glyph-name="f_h" unicode="fh" horiz-adv-x="1617" 
d="M820 1391q100 0 181 -54q11 -10 25 2q14 13 46 29t49 16t27 -16t0 -62q-11 -46 -85 -317q-74 -272 -102 -395q0 -8 7 -16t11 -7q172 176 259 234t179 57q55 0 101 -52t45 -138q0 -156 -44 -296q-45 -140 -73 -186t-48 -64q-20 -19 -58 -50t-50 -41q-96 -80 -124 -80
t-62 26t-35 58q2 14 25 47t35 44t20 7t41 -24t47 -21q51 0 113 267q39 167 39 273t-58 105q-47 -1 -91 -27t-114 -104q-145 -162 -303 -561q-29 -74 -49 -74q-12 1 -42 13t-38 22q-16 25 -5 74q191 853 243 1059q8 33 -17 75q-49 80 -141 80t-153 -86q-84 -129 -132 -356
q-3 -18 13 -18t186 6q8 0 19 -16t-5 -44q-16 -29 -30 -30q-172 -14 -186 -14q-30 -1 -35 -34q-102 -500 -187 -823q-33 -115 -84 -187q-52 -72 -158 -140q-106 -66 -196 -66q-43 0 -97 32t-55 81q0 20 29 58t47 42q6 4 26 -1t31 -15q83 -72 131 -72t80 40t66 176
q35 136 109 474t86 406q0 25 -15 24h-131q-6 0 -15 7t-9 23q0 15 17 39t26 23l141 8q14 4 22 25q100 336 297 463q108 72 208 72z" />
    <glyph glyph-name="f_j" unicode="fj" horiz-adv-x="1079" 
d="M866 1395q86 0 146 -47q60 -46 57 -90q-2 -44 -37 -88q-57 -71 -101 -35q-15 12 -20 28q-37 139 -151 140q-56 1 -104 -53q-102 -112 -164 -400q-6 -18 14 -19q166 9 285 13t210 16q13 2 21 -16t2 -52t-97 -394t-122 -458q-31 -99 -100 -191q-144 -187 -314 -187
q-53 0 -88 26t-35 54q0 51 66 98q25 13 49 2q84 -61 129 -61q55 0 96 124q29 82 118 451t97 422q6 18 -4 44t-35 23l-311 -12q-16 -6 -20 -28q-123 -575 -193 -824q-33 -117 -86 -189q-54 -72 -162 -140q-108 -66 -205 -66q-41 0 -86 30t-44 68t25 74q47 69 97 23
q81 -70 133 -70t82 40t65 174q36 134 111 470q76 336 91 414q2 25 -17 24q-135 -6 -147 -6q-13 0 -13 24q0 23 18 47t28 23l137 8q23 6 28 27q90 338 308 475q104 64 243 64z" />
    <glyph glyph-name="f_k" unicode="fk" horiz-adv-x="1566" 
d="M1262 725q-54 0 -138 -69t-170 -236q-4 -8 8 -18t23 -9q76 0 200 82t122 191q0 59 -45 59zM824 1391q101 0 177 -54q11 -10 25 0t45 29q37 18 50 18t23 -16t-2 -66q-13 -50 -81 -301q-101 -372 -95 -382q6 -9 11 -3q39 39 118 105t126 96q87 45 139 45t90 -41t39 -90
q2 -125 -113 -215q-55 -45 -127 -86t-96 -49q-25 -25 -15 -35t51 -70q39 -60 73 -105q34 -44 62 -44q54 0 128 102q27 33 39 33q20 0 25 -28q4 -28 -5 -46q-57 -119 -115 -169t-132 -50t-148 117q-12 18 -44 72t-56 90q-47 70 -90 69q-36 0 -142 -319q-2 -6 -17 -16t-31 -10
t-51 30q-35 31 -19 100q23 76 130 486q108 410 136 551q8 35 -14 75q-52 80 -144 80t-153 -86q-84 -129 -132 -356q-2 -18 17 -18l184 6q8 0 16 -10t7 -22q1 -11 -13 -34t-26 -24q-186 -14 -194 -14t-16 -11q-9 -10 -11 -23q-111 -537 -189 -823q-31 -115 -82 -187
q-52 -72 -158 -140q-106 -66 -198 -66q-43 0 -96 32t-54 81q0 20 29 58t47 42q6 4 26 -1t32 -15q82 -72 130 -72t80 40t65 174q34 134 109 472t87 410q0 25 -15 24h-131q-6 0 -15 7t-9 23q0 15 17 39t26 23l139 8q16 4 24 25q96 334 297 463q109 72 210 72z" />
    <glyph glyph-name="f_r" unicode="fr" horiz-adv-x="1306" 
d="M811 1395q92 0 139 -50q47 -49 44 -107t-39 -86q-35 -28 -65 -28t-30 21q-14 156 -115 155q-63 0 -120 -79q-86 -127 -136 -371q-2 -8 15 -19l397 15q33 2 61 -33t22 -72t-66 -235q-4 -10 3 -14t15 12q27 54 90 154t96 130q76 74 138 74t88 -31q27 -31 26 -53
q0 -55 -38 -99t-66 -61q-6 -6 -24 -2t-38 31q-22 27 -47 27q-43 0 -86 -80q-101 -170 -170 -345t-78 -192q-41 -86 -87 -86t-78 33q-20 25 -5 68q133 399 166 551q12 59 -6 94t-49 35l-287 -13q-23 0 -28 -32q-111 -522 -193 -826q-33 -115 -86 -189q-52 -74 -160 -140
t-207 -66q-37 0 -93 35t-56 84q2 25 30 57t51 38q23 7 56 -19q72 -72 131 -72q31 0 50 9q58 27 104 206q30 115 107 457q79 342 96 428q0 25 -15 24l-149 -4q-13 0 -13 24q0 23 18 45t28 21l141 8q14 4 22 27q94 340 297 473q107 68 199 68z" />
    <glyph glyph-name="f_t" unicode="ft" horiz-adv-x="1189" 
d="M981 1057q86 0 86 -17q0 -31 -51 -188q-4 -20 18 -21h193q14 0 14 -18t-17 -49t-26 -29q-131 0 -197 2q-15 0 -35 -54t-122 -427q-25 -86 4 -86q49 0 190 125q6 4 18 -7t13 -36q0 -25 -29 -64q-53 -74 -167 -148q-115 -74 -155 -73q-40 0 -63 33q-23 32 -23 58t17 92
q125 463 164 575q6 18 -8 18l-299 -4q-14 0 -32 -9t-21 -23q-109 -518 -203 -846q-31 -115 -78 -177q-48 -62 -156 -130t-196 -68q-45 0 -93 31q-47 31 -47 67t14 68q13 31 27 39q49 16 70 6q91 -88 141 -88t80 33t58 145q98 360 211 924q2 6 -2 15t-13 9l-133 -4
q-6 0 -14 9q-8 10 -8 24t18 37q19 23 27 23t131 7q16 0 28 25q45 152 123 282t176 193q100 63 188 63t139 -42q50 -42 50 -102t-36 -88t-55 -27q-19 0 -33 9q-13 9 -15 19q-16 139 -123 140q-51 0 -106 -78q-82 -121 -134 -375q-4 -11 13 -19l327 3q15 0 23 15t28 77t29 80
q25 51 72 51z" />
    <glyph glyph-name="gamma_gamma" unicode="&#x3b3;&#x3b3;" horiz-adv-x="1634" 
d="M991 692q-207 0 -516 -633q-55 -115 -72 -163q-94 -281 -113 -324q-20 -43 -40 -62t-33 -20q-43 0 -83 44t-41 78t67 142q130 190 152 222t46 114q25 82 27 160q25 434 -135 434q-84 0 -166 -104q-8 -8 -22 3q-31 27 6 101t110 130q74 56 152 56q174 0 184 -254
q2 -82 -37 -360q0 -6 5 -8t7 4q230 450 415 565q83 51 169 51t132 -74t49 -195q3 -122 -31 -376q0 -4 5 -6t9 4q121 168 193 309t114 320q10 24 39 24t41 -24q25 -66 21 -111q-13 -146 -294 -515q-93 -122 -133 -180t-64 -127q-24 -68 -52 -164q-29 -96 -49 -144
q-20 -47 -43 -65t-35 -17q-43 0 -79 42t-37 75q-1 32 71 144t121 177q29 43 57 122q29 79 35 144q28 461 -152 461z" />
    <glyph glyph-name="lambda_lambda" unicode="&#x3bb;&#x3bb;" horiz-adv-x="1665" 
d="M426 1350q174 0 203 -320q0 -12 7 -347q6 -335 26 -439t71 -105q29 0 66 56q256 345 331 461t103 139q29 29 24 57q0 193 -54 281t-163 88q-110 0 -202 -62q-11 -5 -19 9t-8 22q4 37 55 88q104 108 226 108t181 -74q58 -74 73 -241q2 -41 9 -363t23 -405t36 -113t56 -28
q53 0 134 100q12 12 19 -4t7 -37t-30 -84t-86 -117q-58 -54 -118 -55q-60 0 -94 47t-40 126t-4 266q3 187 8 223q0 23 -27 -4q-25 -49 -315 -500q-100 -158 -207 -158q-158 0 -176 199q-6 88 -3 258t7 205q0 23 -27 -4q-8 -15 -153 -275t-151 -267t-16 -25q-60 -96 -87 -95
q-15 0 -53 12q-38 11 -50 23t-15 28t3 24q6 9 207 306q201 298 239 356t67 84q28 26 28 58q0 186 -39 256t-146 70q-49 0 -139 -27q-14 -4 -23 10q-8 14 -1 43t47 64q77 82 190 82z" />
    <glyph glyph-name="longs_b" unicode="&#x17f;b" horiz-adv-x="1552" 
d="M1266 733q-117 0 -279 -196q-53 -63 -99 -179t-46 -188q0 -31 43 -65t63 -33q59 0 139 66t162 229q83 162 83 264t-66 102zM822 1389q102 0 179 -56q10 -10 23 0q56 53 80 53t33 -22q8 -23 2 -47q-111 -334 -193 -664q-2 -8 7 -14t16 2q231 221 399 221q59 0 102 -53
q43 -47 43 -117q0 -180 -101 -345t-254 -271t-279 -105q-77 1 -139 57t-62 165q0 68 39 204q180 666 194 744q2 37 -10 63q-49 76 -145 76t-163 -87t-134 -355q-102 -385 -185 -838q-31 -174 -90 -270t-151 -158q-133 -84 -234 -84q-43 0 -101 33t-56 84q0 23 30 55t53 40
q24 7 54 -17q80 -70 139 -70t93 68q35 68 87 346t152 671q111 444 366 619q104 72 206 72z" />
    <glyph glyph-name="longs_h" unicode="&#x17f;h" horiz-adv-x="1605" 
d="M826 1389q102 0 175 -56q14 -6 23 0q58 53 82 53t32 -19t-2 -67q-11 -48 -85 -316q-74 -267 -103 -390q0 -8 7 -16t12 -7q173 176 259 234t179 57q53 0 98 -52t45 -138q0 -156 -45 -296t-75 -187t-64 -80t-108 -94q-74 -60 -102 -60t-62 26t-37 58q4 33 59 88q2 2 12 4
t14 1t36 -20q34 -20 52 -20q46 -1 108 269q40 167 40 271t-57 105q-47 -1 -91 -27t-116 -104q-147 -164 -301 -561q-29 -74 -49 -74q-12 1 -43 13t-39 22q-14 25 -5 71t120 524t127 544q2 25 -21 61q-47 74 -143 74t-163 -87t-134 -355q-102 -385 -185 -838
q-31 -174 -90 -270t-151 -158q-137 -84 -236 -84q-43 0 -100 33t-57 84q2 23 32 55q59 65 105 23q84 -70 142 -70t92 69q35 69 87 346t152 670q109 442 364 619q108 72 210 72z" />
    <glyph glyph-name="longs_i" unicode="&#x17f;i" horiz-adv-x="1089" 
d="M948 862q20 0 39 -26t19 -52t-14 -70t-96 -282q-83 -238 -86 -246t1 -15t16 -7q13 0 59 26t76 48q30 24 46 24t16 -28t-46 -88q-46 -58 -142 -116t-152 -59q-24 0 -48 25q-24 26 -24 52t19 73q41 88 180 512q19 55 -7 55t-78 -36t-85 -68q-6 -6 -19 10t-14 24q0 8 19 41
q57 83 151 143t170 60zM822 1389q98 0 157 -41t59 -99q0 -29 -32 -67t-62 -37q-29 0 -55 37q-74 94 -157 94q-84 0 -150 -101t-133 -376q-106 -451 -173 -799q-35 -174 -93 -270t-148 -156q-133 -86 -242 -86q-43 0 -98 32t-53 83q0 25 30 57q65 67 111 21q82 -68 137 -68
t88 63t109 432q77 368 141 608t153 380t201 216q112 77 210 77z" />
    <glyph glyph-name="longs_k" unicode="&#x17f;k" horiz-adv-x="1556" 
d="M1251 725q-57 0 -139 -69t-168 -236q-4 -8 7 -18t24 -9q74 0 199 82t122 191q0 59 -45 59zM822 1389q102 0 175 -56q10 -10 23 0q56 53 80 53t34 -19t4 -41q-5 -22 -98 -357q-93 -336 -89 -344q9 -15 16 -9q131 131 243 201q25 13 67 29t56 16q68 0 106 -40t40 -91
q2 -125 -113 -215q-55 -45 -127 -86t-96 -49q-25 -25 -17 -34t48 -68t76 -105t75 -47q18 0 51 28q33 27 61 67t41 40q24 0 29 -39q2 -16 -8 -35q-104 -219 -239 -219q-82 0 -156 117q-10 14 -42 68t-68 110q-36 54 -79 53q-12 0 -45 -63q-35 -59 -98 -256q-2 -6 -17 -16
t-31 -10t-44 25q-28 26 -29 44q0 43 11 83t120 458q109 420 140 563q4 20 -23 61q-45 74 -142 74t-164 -87t-134 -355q-102 -385 -185 -838q-31 -174 -90 -270t-151 -158q-133 -84 -234 -84q-43 0 -101 33t-56 84q0 23 30 55t53 40q24 7 54 -17q80 -70 139 -70t93 68
q35 68 87 346t152 671q111 444 366 619q104 72 206 72z" />
    <glyph glyph-name="longs_l" unicode="&#x17f;l" horiz-adv-x="1093" 
d="M822 1389q102 0 175 -56q10 -10 23 0q56 53 80 53t34 -20t1 -51t-59 -215t-123 -449t-111 -458q-16 -68 32 -68q24 0 50 18t51 45t37 33q8 8 25 7q17 0 17 -22t-16 -54q-47 -80 -125 -130t-157 -51q-39 0 -67 37t-27 76q0 98 90 414q100 371 170 647q4 20 -23 61
q-45 74 -142 74t-164 -87t-134 -355q-102 -385 -185 -838q-31 -174 -90 -270t-151 -158q-133 -84 -234 -84q-43 0 -101 33t-56 84q0 23 30 55t53 40q24 7 54 -17q80 -70 139 -70t93 68q35 68 87 346t152 671q111 444 366 619q104 72 206 72z" />
    <glyph glyph-name="longs_longs" unicode="&#x17f;s" horiz-adv-x="1077" 
d="M756 1235q-96 0 -168 -93t-140 -343t-163 -756q-31 -170 -72 -266q-4 -5 -3 -17t7 -16q113 -90 225 -90q49 0 81 26q73 58 136 365q104 498 171 717t137 338q8 20 0 33q-35 51 -95 77t-116 25zM848 1348q129 0 223 -99q10 -6 23 6q145 139 307 140q68 0 117 -35t49 -94
q0 -29 -27 -62t-47 -33t-57 37q-68 68 -145 68t-141 -92t-144 -390t-156 -704q-37 -190 -96 -294t-158 -171q-135 -88 -250 -88t-217 86q-4 4 -14 5t-15 -5q-61 -55 -149 -95q-89 -40 -145 -40t-111 33t-55 82q2 23 32 55q64 68 107 27q88 -72 144 -72t91 76t84 315
q86 444 140 639q72 277 162 413t205 214q114 78 243 78z" />
    <glyph glyph-name="longs_longs_i" unicode="&#x17f;si" horiz-adv-x="1646" 
d="M1509 862q18 0 37 -26q31 -47 4 -136q-157 -456 -170 -489q-12 -33 -8 -40t16 -7t58 26t76 50q29 22 46 22t17 -26t-46 -88q-46 -60 -142 -118t-154 -59q-25 0 -49 25q-24 26 -23 50q0 24 31 94t170 493q18 55 -8 55t-77 -36q-52 -36 -87 -68q-6 -6 -18 10t-12 27t18 38
q57 83 150 143t171 60zM760 1235q-98 0 -171 -93t-139 -339t-163 -760q-37 -186 -74 -266q-4 -5 -2 -17t6 -16q113 -90 225 -90q74 0 123 77t99 314q123 557 182 749t125 306q12 20 2 35q-35 49 -95 75t-118 25zM850 1348q131 0 227 -97q5 -10 23 4q139 135 309 136
q76 0 133 -42t57 -100q-1 -29 -31 -63t-58 -35q-28 0 -58 29q-86 94 -162 94t-137 -91t-145 -399t-152 -692q-37 -190 -96 -294t-158 -171q-137 -90 -255 -90t-216 86q-16 16 -31 0q-61 -57 -148 -96q-86 -39 -144 -39t-112 33t-54 82q0 23 30 55q61 65 109 27
q86 -72 144 -72t92 77q33 78 97 404t131 576t157 387q193 291 448 291z" />
    <glyph glyph-name="longs_longs_l" unicode="&#x17f;sl" horiz-adv-x="1656" 
d="M756 1235q-98 0 -169 -92t-145 -359q-59 -227 -157 -741q-37 -186 -74 -266q-4 -5 -2 -17t6 -16q113 -90 225 -90q49 0 83 26q75 56 141 365q104 498 172 721t135 334q8 23 0 35q-35 49 -97 75t-118 25zM848 1348q129 0 229 -97q5 -9 21 4q139 135 305 134q88 0 162 -56
q8 -8 20 0q59 53 83 53t32 -20t2 -47q-270 -1006 -295 -1126q-14 -68 33 -68q45 0 111 72q19 20 27 26t24 5q18 0 18 -22t-16 -54q-47 -80 -125 -130t-156 -51q-39 0 -68 37q-29 38 -29 94t81 354q80 298 176 683q4 29 -17 67q-47 72 -138 72t-161 -86q-71 -86 -154 -390
q-83 -303 -159 -710q-37 -190 -96 -294t-158 -171q-137 -90 -253 -90t-218 86q-14 16 -31 0q-61 -57 -148 -96q-86 -39 -144 -39t-112 33t-54 82q0 23 30 55q65 67 109 27q86 -72 143 -72t92 76t84 315q86 444 149 680t153 372t205 214q114 78 243 78z" />
    <glyph glyph-name="longs_t" unicode="&#x17f;t" horiz-adv-x="1167" 
d="M792 1280q-60 0 -96 -13t-76 -57q-83 -92 -163 -385q-51 -188 -181 -825q-35 -176 -90 -270t-145 -154q-131 -88 -240 -88q-45 0 -103 31t-58 82q2 25 34 59t55 40q24 7 52 -17q84 -70 139 -70t91 69t73 265q147 676 166 741q72 268 161 406t201 214t226 76
q112 0 182 -50t72 -136q0 -12 -36 -132t-55 -210q-6 -25 19 -25h184q18 0 18 -21t-16 -54t-28 -33q-37 2 -185 2q-27 0 -32 -16q-29 -80 -138 -455q-25 -86 6 -86q51 0 185 121q10 10 23 4t13 -37t-34 -78q-51 -72 -163 -142t-149 -69q-36 0 -64 29t-27 54t20 100
q102 371 162 550q2 6 -3 16t-12 9q-78 0 -123 2q-18 2 -18 30q1 28 19 48t22 20l117 4q25 0 37 29q80 206 89 276t-31 108t-100 38z" />
    <glyph glyph-name="n_t.end" unicode="n&#xe26c;" horiz-adv-x="2426" 
d="M340 862q114 0 115 -107q0 -48 -52 -180q-4 -8 3 -14l8 4q94 127 212 212t214 85q51 0 82 -45q30 -45 30 -93t-26 -140t-138 -389q-14 -51 29 -52q77 -2 269 201t309 381l-152 8q-33 0 -33 29q0 18 16 44t29 25h172q20 0 45 36q25 35 62 93t57 87t29 28q27 0 46 -15
t22 -28q0 -39 -37 -176q-4 -25 16 -25h207q8 0 15 -8t7 -19t-17 -45t-34 -34h-200q-23 0 -33 -18t-160 -551q-6 -10 -2 -18t2 -13q-2 -4 6 -9t9 -5l20 -7q51 -20 283 -20q438 0 440 158q0 43 -45 69q-49 33 -49 72t41 79t83 40t71 -46q30 -46 30 -128t-55 -158
q-112 -155 -350 -184q-185 -23 -393 -13q-42 2 -95 4q-53 1 -81 3t-89 -5q-53 -6 -37 74q141 410 174 526q4 13 -3 17t-15 -6q-123 -183 -315 -379q-101 -104 -212 -170t-202 -66q-45 0 -76 38q-30 37 -10 87t114 302t102 280q8 30 -5 50q-12 20 -41 20q-162 0 -426 -537
q-91 -180 -107 -210q-15 -30 -38 -30t-52 24t-29 44q0 69 66 225t109 278q42 122 39 141t-13 19q-68 0 -154 -75q-16 -13 -35 -9t-20 19q0 16 10 41q34 76 104 130t134 54z" />
    <glyph glyph-name="f_f" unicode="ff" horiz-adv-x="1126" 
d="M434 -344q150 0 205 219q86 340 184 836q0 23 -12 24l-338 -4q-16 0 -22 -33q-154 -767 -222 -909q-8 -27 2 -39q35 -38 95 -66t108 -28zM766 1247q-102 0 -168 -96q-78 -117 -113 -301q0 -20 17 -21l332 5q6 0 14 8t10 16q35 127 103 248q8 12 -5 33q-27 49 -81 79
t-109 29zM839 1339q142 0 212 -79q2 -2 11 -2t13 2q135 135 281 135q92 0 137 -46t44 -107t-46 -91q-51 -37 -81 -7q-13 13 -13 21q-16 137 -117 138q-57 0 -113 -74q-76 -102 -133 -371q0 -20 10 -20l185 4q23 0 22 -25q0 -57 -41 -69l-186 -7q-9 0 -20 -13t-13 -26
q-96 -496 -168 -768q-31 -112 -85 -184t-162 -142t-230 -69q-121 0 -199 92q-4 6 -11 4t-11 -8q-61 -57 -147 -99t-142 -42q-55 0 -110 34t-56 85q2 23 31 57t49 40q20 7 53 -21q77 -66 131 -66t84 39t66 173q35 134 109 468t86 407q0 25 -13 25h-153q-13 0 -13 23
q0 22 18 46t27 23l142 4q23 6 24 17q88 307 275 426q111 73 253 73z" />
    <glyph glyph-name="f_i" unicode="fi" horiz-adv-x="1091" 
d="M838 1395q112 0 170 -47q58 -46 57 -90q-2 -44 -37 -88q-56 -71 -100 -35q-16 12 -19 28q-37 139 -151 140q-56 -1 -104 -53t-92 -162t-70 -238q-6 -18 14 -19l338 13q53 2 149 16q9 0 19 -18t4 -35q-82 -246 -193 -614q-12 -33 13 -33q37 0 114 67q70 49 74 6
q0 -41 -33 -83q-51 -68 -143 -123t-160 -56q-20 -1 -42 19q-40 35 -15 114q4 16 45 142t141 442q8 23 -6 41t-43 16l-287 -8q-18 0 -28 -32q-111 -535 -193 -824q-33 -117 -85 -189q-53 -72 -161 -140q-108 -66 -204 -66q-41 0 -88 30q-80 52 -21 142q23 35 45 42t55 -19
q79 -70 131 -70t82 40q30 39 65 171q37 132 111 464t93 423q0 25 -17 24l-147 -6q-13 0 -13 24q0 23 18 47t26 23l139 8q20 6 26 27q90 338 310 475q101 64 213 64z" />
    <glyph glyph-name="f_l" unicode="fl" horiz-adv-x="1112" 
d="M825 1391q102 0 179 -56q8 -8 19 -2q11 5 48 27t52 22t25 -16t4 -43q-7 -27 -135 -491t-163 -639q-14 -68 35 -68q28 0 49 18q22 19 32 27t29 26q17 18 25 26q8 7 26 6q18 0 17 -22q0 -22 -16 -54q-47 -80 -124 -130t-157 -51q-39 0 -67 37t-27 76q0 98 90 414
q141 535 166 641q2 12 -2 37q-9 57 -75 95q-42 24 -83 23q-90 0 -151 -86q-84 -129 -132 -356q-2 -18 17 -18l184 6q8 0 16 -10t7 -22q1 -11 -13 -34t-26 -24q-186 -14 -194 -14t-16 -11q-9 -10 -11 -23q-111 -537 -189 -823q-31 -115 -82 -187q-52 -72 -158 -140
q-106 -66 -198 -66q-43 0 -96 32t-54 81q0 20 29 58t47 42q6 4 26 -1t32 -15q82 -72 130 -72t80 40t65 174q34 134 109 472t87 410q0 25 -15 24h-131q-6 0 -15 7t-9 23q0 15 17 39t26 23l139 8q16 4 24 25q96 334 297 463q109 72 211 72z" />
    <glyph glyph-name="f_f_i" unicode="ffi" horiz-adv-x="1636" 
d="M446 -342q62 0 114 52t83 179q74 293 180 824q4 20 -22 24l-322 -8q-23 0 -28 -33q-111 -514 -153 -688t-65 -221q-8 -25 3 -39q33 -38 91 -64q57 -26 119 -26zM761 1247q-57 0 -107 -40t-96 -132t-73 -227q-2 -20 17 -21l321 9q29 2 35 24q49 162 94 248q8 18 -12 50
t-71 60q-52 28 -108 29zM829 1339q68 1 127 -23t91 -56q10 -10 22 0q145 135 305 135q111 -1 167 -53t56 -96q-1 -44 -33 -84t-67 -46q-12 0 -29 13q-16 13 -28 47t-50 76t-96 42q-170 0 -266 -442q-4 -18 16 -18l340 10q33 2 152 18q10 2 19 -16t6 -33q-49 -131 -193 -618
q-12 -37 12 -37q35 0 112 66t77 9q0 -33 -35 -83q-51 -68 -145 -123t-162 -56q-39 0 -55 46q-15 46 2 85q4 16 38 120t77 242q44 140 71 224q6 20 -3 40t-26 20q-236 -10 -309 -11q-25 0 -31 -32q-92 -481 -168 -764q-57 -207 -239 -324q-121 -78 -234 -78q-49 0 -103 23
t-91 65q-14 20 -33 2q-53 -57 -141 -100t-144 -43t-112 33q-55 33 -56 84q2 25 29 57t51 40q24 7 51 -19q77 -66 131 -66t86 40t65 173q34 133 107 467q74 334 86 405q0 25 -14 25l-151 -4q-13 -1 -13 23t16 48t25 23l144 6q23 6 28 27q74 291 275 418q110 73 243 73z" />
    <glyph glyph-name="f_f_l" unicode="ffl" horiz-adv-x="1648" 
d="M829 1339q61 -1 126 -23t96 -56q2 -2 10 -2t12 2q137 133 289 133q94 0 172 -56q10 -10 24 1q14 10 48 28t51 18q16 0 26 -16q11 -16 7 -32t-137 -505q-133 -490 -162 -638q-14 -68 34 -68q39 0 109 70q20 20 28 27t24 6q18 0 18 -22t-17 -54q-47 -80 -124 -130t-156 -51
q-39 0 -68 37t-29 76q0 92 93 414q141 532 165 639q2 12 -5 39t-15 36q-47 80 -141 80q-39 0 -82 -22t-70 -64q-86 -127 -133 -354q-2 -18 16 -18h185q8 0 15 -10t7 -21q0 -12 -13 -35t-26 -25q-106 -8 -190 -8q-6 0 -14 -10t-11 -20q-98 -504 -168 -771q-31 -112 -85 -184
t-162 -142t-226 -69q-53 0 -109 24t-94 68q-6 14 -24 -4q-59 -55 -145 -98t-142 -43q-55 0 -110 34t-56 85q0 23 29 57t51 40q22 7 53 -21q75 -66 129 -66t86 39t62 153q106 432 199 895q0 25 -13 25h-153q-13 0 -13 23q0 22 18 46t25 23l142 4q23 4 26 17q88 311 277 428
q108 71 241 71zM432 -344q152 0 207 219q86 340 184 836q0 20 -14 24l-336 -4q-16 0 -22 -33q-154 -767 -222 -909q-8 -27 2 -39q33 -38 93 -66t108 -28zM766 1247q-98 0 -166 -100q-82 -123 -115 -297q0 -20 17 -21l329 5q16 0 27 24q39 141 98 248q8 10 0 33
q-27 49 -81 79t-109 29z" />
    <glyph glyph-name=".notdef" horiz-adv-x="1024" 
d="M102 1239v-1044l349 522zM164 102h696l-348 523zM573 717l349 -522v1044zM512 809l348 522h-696zM0 0v1434h1024v-1434h-1024z" />
    <glyph glyph-name=".null" horiz-adv-x="0" 
 />
    <glyph glyph-name="nonmarkingreturn" horiz-adv-x="681" 
 />
    <glyph glyph-name="space" unicode=" " horiz-adv-x="428" 
 />
    <glyph glyph-name="exclam" unicode="!" horiz-adv-x="587" 
d="M268 250q55 0 86 -36t32 -98t-42 -104q-43 -41 -97 -41t-87 37q-33 38 -32 96t43 102t97 44zM532 1241q51 0 82 -41t-4 -146q-35 -104 -121 -320t-113 -271t-59 -62q-40 0 -27 109q7 61 39 274q31 212 53 316t60 122t90 19z" />
    <glyph glyph-name="quotedbl" unicode="&#x22;" horiz-adv-x="694" 
d="M805 1376q10 0 19 -22t2 -62q-7 -42 -59 -154t-95 -171q-43 -53 -92 -54q-10 1 -16 19t-3 35q63 223 80 342q34 67 164 67zM477 1364q11 0 23 -20t10 -44q-10 -64 -66 -170t-101 -168q-46 -62 -91 -63q-12 0 -20 17t-3 34q76 254 90 342q8 29 27 39q61 33 131 33z" />
    <glyph glyph-name="numbersign" unicode="#" horiz-adv-x="987" 
d="M715 760q4 12 -8 12l-199 -6q-18 0 -23 -21l-82 -204q0 -14 9 -15l202 4q14 6 17 13zM100 373q-10 0 -10 22q14 88 33 107q20 16 29 16l135 4q12 0 18 13l84 215q5 14 -8 14l-133 -2q-25 0 -25 21t8 53q27 74 43 73l154 4q4 1 13 7t12 12l129 305q4 14 22 27q18 6 40 4
q42 -4 34 -23l-123 -315q-6 -14 10 -15l189 7q16 0 20 10l123 311q9 23 57 23q39 0 35 -21l-117 -309q-2 -2 -1 -8t6 -6l129 2q38 -1 20 -58q0 -7 -16 -47t-35 -41l-148 -6q-12 -6 -14 -14l-84 -213q-4 -14 10 -15l142 2q24 0 8 -57q-17 -57 -25 -69t-33 -21l-151 -4
q-6 0 -16 -14l-132 -353q0 -20 -69 -20q-9 2 -17 8t-6 12l123 351q6 16 -8 16l-201 -4q-2 0 -9 -4t-7 -6l-137 -351q-14 -29 -46 -25q-51 5 -46 27l133 344q4 10 -9 11h-133z" />
    <glyph glyph-name="dollar" unicode="$" horiz-adv-x="987" 
d="M569 463l-112 -377q0 -8 12 -8q125 6 183 66t58 124t-27 106q-28 42 -97 97q-11 8 -17 -8zM422 938q0 -63 33 -104t96 -84q12 -8 14 4l109 366q5 9 -10 13q-86 9 -164 -45t-78 -150zM897 324q0 -70 -49 -146t-142 -125t-262 -55q-4 0 -10 -4t-6 -8l-39 -127
q-6 -23 -20 -23q-35 0 -56 10q-14 10 -10 25l37 125q0 8 -10 12q-86 12 -193 66q-29 18 -51 4q-47 -20 -68 -4q-6 2 -12 20t3 39t38 117t38 120t25 41t25 17q35 0 38 -96t50 -153q47 -56 131 -87q12 -4 17 8l127 420q4 12 -6 23q-242 172 -242 343t135 254t301 68q16 1 16 9
l37 114q8 20 21 21q65 0 65 -35l-34 -113q-2 -4 1 -8t43 -14q41 -10 73 -26t71 -17l41 4q6 1 15 -13t5 -26q-59 -131 -73 -219q-7 -25 -23 -41t-35 -17q-29 0 -28 80q-2 80 -24 124t-83 75q-8 8 -14 -4l-119 -400q-6 -14 3 -20t76 -56t85 -74q59 -74 75 -115q17 -43 17 -113
z" />
    <glyph glyph-name="percent" unicode="%" horiz-adv-x="1509" 
d="M1208 604q-66 0 -122 -87t-82 -185t-27 -164q0 -119 76 -119q57 0 115 91q58 90 89 194t31 156t-20 82q-20 32 -60 32zM1221 676q100 0 158 -70t59 -166q0 -174 -121 -321t-285 -148q-100 0 -154 66t-55 166q0 165 118 319t280 154zM1276 1239q20 0 53 -39q4 -4 4 -16
t-2 -17q-434 -526 -981 -1190q-39 -45 -53 -45q-31 0 -53 41q-2 1 -1 13t5 16q223 266 977 1202q31 35 51 35zM543 1167q-66 0 -122 -87t-83 -185q-27 -99 -27 -155q1 -56 21 -92t57 -36q90 0 161 168t71 273q1 43 -19 79t-59 35zM555 1239q93 0 155 -69t62 -154
q0 -174 -119 -328t-280 -153q-100 0 -158 71q-57 72 -57 172q0 162 117 312q118 149 280 149z" />
    <glyph glyph-name="ampersand" unicode="&#x26;" horiz-adv-x="1695" 
d="M301 375q6 -10 18 -4q197 178 259 268q10 14 13 40t1 38q-29 113 -113 113t-136 -100q-52 -99 -56 -224q-4 -74 14 -131zM565 954q47 0 94 -32t72 -86q6 -19 21 -7q66 66 133 197q23 45 2 90q-2 4 -26 38q-23 34 -25 49t6 46t36 59t70 29q41 1 74 -35t33 -86t-23 -119
t-67 -130q-44 -62 -56 -80q-24 -36 -84 -106t-98 -118q-106 -134 -365 -378q-16 -16 -2 -35q35 -70 122 -115t173 -45q305 0 469 270q70 116 86 232q10 53 -8 90q-6 10 -44 22t-78 13q-40 0 -71 -30q-32 -30 -32 -81q0 -16 31 -84q10 -25 -6 -41q-72 -75 -105 -74t-52 37
t-20 84q-5 94 127 200t248 106t240 -82q84 -50 103 -50t31 12t13 54q0 41 -35 100q-28 56 -28 68t15 24t44 13q53 0 90 -52q84 -118 -26 -248q-111 -129 -242 -79q-39 16 -80 39q-23 9 -25 -10q4 -43 -6 -105q-41 -254 -243 -434q-90 -84 -206 -127t-227 -43
q-223 0 -358 137t-135 344q0 274 221 457q125 102 219 102z" />
    <glyph glyph-name="quotesingle" unicode="'" horiz-adv-x="370" 
d="M487 1368q11 0 23 -19q29 -44 -41 -181q-69 -138 -117 -200t-92 -63q-12 1 -20 17t-2 32q55 188 81 342q8 31 27 41q65 31 141 31z" />
    <glyph glyph-name="parenleft" unicode="(" horiz-adv-x="759" 
d="M887 1499q12 0 20 -9t8 -23t-34 -44q-285 -229 -419 -507t-140 -635q-2 -160 30 -337t92 -315q20 -51 -32 -51q-28 0 -62 39q-84 93 -138 283t-54 381q0 369 158 679t434 490q78 49 137 49z" />
    <glyph glyph-name="parenright" unicode=")" horiz-adv-x="759" 
d="M-61 -422q-44 0 -43 25q0 23 41 55q287 236 422 510q137 274 137 641t-127 639q-8 20 -2 36t20 15q39 0 80 -41q82 -92 136 -282t54 -379q1 -369 -159 -679t-437 -491q-78 -49 -122 -49z" />
    <glyph glyph-name="asterisk" unicode="*" horiz-adv-x="737" 
d="M922 1070q0 -10 -12 -26t-36 -26q-22 -10 -182 -53q-18 -6 -2 -25q55 -55 141 -154q23 -29 23 -59q-4 -18 -29 -17q-25 2 -51 18t-166 142q-14 10 -20 0q-66 -190 -72 -200q-20 -45 -47 -45q-29 4 -27 56t39 206q2 6 -3 11t-13 3q-162 -43 -215 -43t-53 33q0 10 15 27
t102 44t126 42q6 2 6 11t-8 18t-62 58t-81 89q-27 39 -11 58t52 -1q96 -53 178 -129q18 -18 25 2q55 166 71 198t42 31q44 0 -3 -243q0 -20 23 -19q121 20 202 27q14 0 31 -12t17 -22z" />
    <glyph glyph-name="plus" unicode="+" horiz-adv-x="1388" 
d="M678 -57q-35 0 -35 34v463q0 8 -8 14t-14 7h-410q-31 0 -42 7t-11 32q0 26 13 56t30 30l428 4q2 0 8 7t6 11v441q0 14 40 26q41 12 61 12t35 -11t16 -25l-9 -441q0 -16 21 -16l424 4q39 0 39 -33q0 -39 -12 -67t-27 -29l-428 -6q-14 0 -15 -14l-2 -463q0 -43 -108 -43z
" />
    <glyph glyph-name="comma" unicode="," horiz-adv-x="450" 
d="M162 262q60 0 94 -52t35 -108q-1 -123 -101 -211t-210 -127q-16 -6 -46 4t-28 27q0 20 39 43q180 102 180 207q0 43 -64 68q-33 12 -33 48q0 37 37 69t97 32z" />
    <glyph glyph-name="hyphen" unicode="-" horiz-adv-x="659" 
d="M598 490q0 -24 -25 -70q-20 -27 -32 -27l-195 -10q-156 -8 -213 -10q-14 0 -25 13q-30 36 15 103q11 17 29 23q225 31 417 37q9 1 19 -17t10 -42z" />
    <glyph glyph-name="period" unicode="." horiz-adv-x="444" 
d="M163 238q52 0 83 -35t32 -95t-42 -99q-44 -40 -96 -40t-82 38t-28 91q2 52 41 96q40 44 92 44z" />
    <glyph glyph-name="slash" unicode="/" horiz-adv-x="737" 
d="M822 1360q22 0 69 -31q6 -4 12 -16t2 -19q-94 -164 -378 -647t-431 -743q-30 -47 -52 -47t-64 28q-6 5 -10 19t1 22q641 1102 811 1407q18 27 40 27z" />
    <glyph glyph-name="zero" unicode="0" horiz-adv-x="987" 
d="M662 1157q-100 0 -207 -176q-80 -137 -129 -334t-50 -379q0 -98 39 -155t108 -57t142 98q100 137 163 386q107 429 28 560q-35 57 -94 57zM684 1237q104 0 174 -66q125 -118 125 -340q0 -223 -97 -443t-225 -317q-129 -97 -271 -97t-224 115q-82 117 -81 315t90 400
t222 316q129 117 287 117z" />
    <glyph glyph-name="one" unicode="1" horiz-adv-x="987" 
d="M94 24q0 34 83 48t119 45t56 96q149 482 226 809q4 12 0 26t-18 17q-14 2 -55 3q-40 1 -61 3q-55 6 -55 35q0 37 57 45q209 36 327 78q17 6 27 6t17 -12q8 -12 6 -21q-59 -186 -140 -481t-124 -473q-20 -98 -1 -126t122 -50q51 -10 51 -43q0 -15 -17 -25t-46 -10l-213 6
l-289 -10q-72 0 -72 34z" />
    <glyph glyph-name="two" unicode="2" horiz-adv-x="987" 
d="M41 0q-41 0 -55 33q-4 23 22 49q238 190 392 336t198 196q45 49 87 126t42 161t-53 136t-131 53q-117 0 -273 -150q-32 -31 -52 -31t-23 25q-4 25 10 47q63 109 173 183t247 73q137 0 221 -92t84 -213q0 -172 -209 -359q-358 -305 -463 -391q-4 -4 0 -10t10 -6
q336 -4 404 4q24 4 68 36t79 74t55 42t24 -28t-7 -48q-39 -109 -127 -223q-6 -5 -31 -17t-35 -12l-446 6h-211z" />
    <glyph glyph-name="three" unicode="3" horiz-adv-x="987" 
d="M219 -102q-223 0 -223 163q0 12 15 34t31 22t46 -19q133 -86 242 -86q154 0 242 98t85 250q-2 104 -61 156q-60 52 -126 51q-66 0 -110 -12t-54 -12q-9 0 -22 11q-30 25 8 58q22 18 36 23l61 29q63 31 117 59q188 106 188 246q-4 63 -47 106t-117 43q-129 0 -200 -149
q-4 -9 -22 -15t-27 2q-10 8 -23 35q-12 27 -12 51t37 54q163 141 335 141q127 0 203 -71q76 -70 76 -152t-39 -133q-40 -51 -98 -91t-150 -90q-12 -6 -10 -15t12 -11q263 -88 265 -285q5 -133 -99 -246t-307 -194q-119 -51 -252 -51z" />
    <glyph glyph-name="four" unicode="4" horiz-adv-x="987" 
d="M718 975q-9 0 -16 -4q-315 -295 -493 -492q-6 -8 -2 -15t28 -6t330 13q6 0 14 10q7 11 71 225t77 261q0 8 -9 8zM975 483q20 1 20 -37t-16 -58q-17 -20 -43 -21q-26 0 -166 -7q-18 0 -27 -22q-42 -153 -100 -385q-12 -27 -50 -37t-116 -10q-14 0 -26 15t-11 27t43 164
t60 222q3 20 -11 20q-318 -12 -477 -12q-16 -2 -36 12q-19 14 -19 30t47 61q638 624 768 739q66 53 123 53q10 0 15 -20q5 -19 1 -37q-85 -372 -170 -678q-2 -6 2 -14t11 -9q136 0 178 4z" />
    <glyph glyph-name="five" unicode="5" horiz-adv-x="987" 
d="M942 1237q18 0 20 -28t-31 -83q-32 -55 -57 -71q-20 -20 -59 -21q-162 0 -334 13q-27 0 -69 -57t-50 -99q0 -11 10 -27t19 -20q154 -63 240 -115q252 -156 252 -356q0 -172 -174 -320q-78 -63 -202 -109t-263 -46q-201 0 -201 131q0 41 25 61q4 8 23 12t36 -6
q131 -82 244 -82t208 60q48 31 77 89q30 58 30 134q0 117 -91 198t-251 156q-121 51 -121 119q0 37 25 96q94 223 204 312q25 20 37 22q78 12 240 24t213 13z" />
    <glyph glyph-name="six" unicode="6" horiz-adv-x="987" 
d="M551 764q-41 0 -89 -18t-71 -46q-55 -68 -93 -182t-36 -230q2 -118 47 -172t115 -55q100 0 186 113q49 66 82 172t33 206t-45 156t-129 56zM691 856q95 0 166 -93t73 -204q0 -287 -209 -469q-63 -53 -151 -86t-162 -33q-138 1 -236 97t-100 274q-2 233 149 460
q152 226 389 365q117 70 230 113t175 43t62 -31q0 -18 -28 -37q-190 -77 -343 -187t-233 -220q-4 -4 0 -11t12 -6q111 25 206 25z" />
    <glyph glyph-name="seven" unicode="7" horiz-adv-x="987" 
d="M1108 1192q0 -31 -141 -246q-66 -92 -352 -518t-296 -440q-49 -82 -75 -82q-18 0 -39 20q-19 20 -21 43t80 137t316 447q233 334 317 465q2 4 -3 12t-9 8h-94q-348 0 -433 -12q-18 -2 -47 -32t-53 -87q-12 -27 -30 -27t-35 16q-17 14 -17 32t61 134q60 116 78 134
q14 18 37 18l187 -2q268 0 538 9q11 3 21 -7t10 -22z" />
    <glyph glyph-name="eight" unicode="8" horiz-adv-x="987" 
d="M494 61q98 -1 149 55t51 138q0 117 -194 287q-18 14 -33 4q-215 -119 -215 -256q0 -102 72 -165t170 -63zM813 960q0 76 -51 138t-134 61q-83 0 -136 -55q-54 -55 -54 -128t37 -130t125 -137q18 -18 35 -9q78 49 128 117q50 67 50 143zM666 1241q143 0 226 -81
q83 -80 83 -190t-123 -206q-37 -31 -162 -115q-8 -6 6 -26q90 -86 136 -157t47 -149q1 -77 -57 -157t-164 -133t-245 -53q-138 0 -239 78q-100 79 -100 210q0 98 108 189q33 27 230 147q16 10 2 25q-143 152 -144 280q0 98 58 176t156 120q96 42 182 42z" />
    <glyph glyph-name="nine" unicode="9" horiz-adv-x="987" 
d="M655 1153q-86 0 -174 -111q-53 -63 -87 -158t-34 -195q0 -99 48 -151t111 -52t113 27q50 28 70 69q35 51 69 167t32 212q-1 192 -148 192zM672 1237q156 0 236 -105t81 -249q2 -260 -211 -543q-170 -231 -485 -397q-98 -49 -141 -49t-56 24q-6 10 5 24t24 21
q121 63 271 201t216 244q6 8 0 11t-78 -13t-110 -17q-102 0 -182 79t-82 222q-2 100 44 202t123 182q77 79 169 121t176 42z" />
    <glyph glyph-name="colon" unicode=":" horiz-adv-x="567" 
d="M351 819q52 0 83 -36t32 -92t-42 -99t-94 -43t-82 36t-31 91t41 99t93 44zM229 240q53 0 81 -37t29 -94t-41 -97t-94 -41q-52 0 -83 36t-30 91q1 54 43 98t95 44z" />
    <glyph glyph-name="semicolon" unicode=";" horiz-adv-x="567" 
d="M222 262q60 0 96 -52q34 -52 34 -108q0 -123 -100 -211t-211 -127q-16 -6 -43 4t-27 22q-1 14 13 28t56 38t94 80q52 58 52 115q0 41 -69 70q-8 2 -17 16q-8 14 -8 27q-2 34 34 66t96 32zM354 819q55 0 83 -35q28 -36 29 -96t-41 -100t-96 -39q-54 0 -83 36t-29 91t41 99
t96 44z" />
    <glyph glyph-name="less" unicode="&#x3c;" horiz-adv-x="1388" 
d="M238 465q0 47 86 96l706 391q61 26 90 -67q10 -29 -10 -41l-664 -357q-14 -6 -2 -12l680 -364q10 -4 4 -43t-43 -72q-4 -4 -16 -6t-18 0q-181 90 -412 223t-316 179t-85 73z" />
    <glyph glyph-name="equal" unicode="=" horiz-adv-x="1388" 
d="M164 242q0 20 10 52t23 32l1050 2q13 0 21 -14t8 -36q0 -24 -10 -52t-21 -27l-1044 -4q-37 0 -37 47zM1251 762q25 0 25 -34t-14 -66t-25 -33l-1028 -2q-45 0 -45 41q0 28 12 58t27 30z" />
    <glyph glyph-name="greater" unicode="&#x3e;" horiz-adv-x="1388" 
d="M1196 481q0 -45 -90 -96l-711 -393q-4 -4 -19 -3t-20 5q-37 31 -39 70t5 40l665 355q12 6 4 14l-682 363q-16 8 -6 46t43 70q4 4 18 6t17 0q68 -35 727 -399q53 -31 71 -46q17 -16 17 -32z" />
    <glyph glyph-name="question" unicode="?" horiz-adv-x="837" 
d="M331 250q56 0 86 -36q29 -36 29 -98t-44 -103q-44 -42 -98 -42t-85 36t-31 94t43 104q44 45 100 45zM540 1243q102 0 204 -79q104 -79 104 -208q0 -59 -39 -108t-90 -76q-6 -4 -221 -104q-92 -37 -92 -109q0 -47 65 -135q6 -6 3 -20t-15 -20q-12 -7 -25 -5q-55 7 -122 71
q-68 64 -68 158t80 164q45 39 258 127q127 53 127 127q0 41 -27 72q-28 30 -92 30t-121 -75q-29 -37 -59 -37t-59 28q-30 28 -29 66q-2 61 57 97t161 36z" />
    <glyph glyph-name="at" unicode="@" horiz-adv-x="1798" 
d="M1602 584q0 242 -166 389t-396 147t-398 -110q-167 -110 -254 -290q-87 -179 -87 -408t158 -422q78 -95 206 -153q128 -59 305 -59t376 115q10 8 32 6t23 -24q0 -45 -45 -76q-94 -72 -224 -107q-278 -75 -521 14q-294 109 -412 375q-66 145 -66 337t78 367
q148 332 491 472q160 66 326 66q322 1 508 -183t186 -452q0 -222 -167 -398t-408 -176q-68 0 -104 14t-42 26q-6 11 -12 36q0 35 8 60l47 153q-8 8 -16 6q-96 -115 -222 -205t-196 -90q-40 0 -70 36t-28 86t43 152t126 212t199 198t184 88t103 -24q15 -6 21 6l22 53
q18 19 54 19t67 -31q12 -10 12 -27q-153 -459 -184 -581q-13 -33 9 -58t53 -24q141 2 261 136t120 329zM1005 668q-73 0 -135 -74q-72 -76 -118 -180t-50 -183q0 -20 12 -37t23 -18q53 0 162 103q63 63 132 164t93 161q6 18 -4 29q-42 35 -115 35z" />
    <glyph glyph-name="A" unicode="A" horiz-adv-x="1308" 
d="M614 549q125 0 244 10q16 0 29 35q20 80 55 362q6 51 -8 52q-4 0 -37 -33q-41 -45 -161 -209t-133 -190t11 -27zM-102 23q0 33 72 47q131 26 193 88q22 23 77 92q549 692 675 893q7 15 27 31t34 18t52 24t58 44q20 24 47 24q37 0 24 -86q-88 -512 -125 -979
q-6 -77 11 -101t79 -43t64 -50q0 -11 -18 -23t-40 -12l-237 10l-186 -6q-25 0 -43 12t-19 25q-1 31 61 43t84 29t33 67q33 145 41 258q0 29 -18 29q-205 0 -301 -15q-23 0 -47 -22t-81 -107q-59 -84 -97 -148t40 -89q55 -18 56 -43q0 -15 -18 -27t-46 -12l-166 6l-227 -12
q-25 0 -42 10t-17 25z" />
    <glyph glyph-name="B" unicode="B" horiz-adv-x="1202" 
d="M883 353q0 130 -82 207t-211 77q-59 0 -76 -41q-31 -78 -70 -241q-39 -164 -41 -171q-10 -39 9 -61q60 -59 174 -59t206 79q91 80 91 210zM958 978q0 83 -66 143q-67 60 -192 61q-10 0 -32 -12t-27 -30q-4 -16 -88 -390q0 -23 10 -29q20 -8 51 -8q106 0 207 41
q61 27 100 84q37 57 37 140zM1153 993q0 -147 -113 -229q-78 -55 -178 -86q-10 0 -12 -9t2 -12q244 -98 244 -299q0 -110 -52 -188t-135 -121q-141 -70 -323 -69l-426 12l-111 2q-66 0 -69 43q4 27 76 41t103 37q30 23 42 63q160 559 237 903q4 23 1 40q-7 39 -120 50
q-53 8 -57 37q0 14 20 26t38 13q18 0 190 4l250 9q120 0 190 -18t123 -62q80 -72 80 -187z" />
    <glyph glyph-name="C" unicode="C" horiz-adv-x="1333" 
d="M967 1284q131 0 247 -54q29 -13 33 -16q47 -12 84 13t59 4t6 -51q-15 -30 -46 -118q-31 -87 -36 -115q-6 -28 -22 -47t-32 -19q-31 0 -35 65q7 169 -147 228q-71 27 -124 26q-217 0 -383 -188q-82 -96 -133 -246t-51 -274q0 -51 15 -128t40 -122q92 -178 299 -179
q123 2 240 111q117 110 135 126t34 16q15 0 22 -19q6 -18 0 -53t-128 -238q-18 -31 -43 -16q-53 41 -98 22q-125 -47 -233 -47q-232 1 -368 147t-136 362t99 396t263 287q191 127 439 127z" />
    <glyph glyph-name="D" unicode="D" horiz-adv-x="1441" 
d="M745 1180q-16 0 -46 -12t-37 -27q-29 -57 -87 -280t-113 -440q-55 -219 -59 -227t-1 -25t8 -22q63 -73 138 -73t171 22t162 64q129 82 229 250q23 39 50 141q28 102 28 149q0 150 -41 246t-155 164q-114 70 -247 70zM1399 700q-1 -212 -147 -406q-233 -307 -748 -308
l-240 12l-235 -4q-29 0 -52 11q-48 23 -1 57q22 16 92 22t101 36q32 30 62 154q163 612 183 730t7 136t-93 31q-80 14 -78 35q0 14 21 28q22 13 73 13t84 2l330 13q322 0 482 -150t159 -412z" />
    <glyph glyph-name="E" unicode="E" horiz-adv-x="1200" 
d="M870 1247q158 0 326 13q12 0 18 -20t0 -36q-31 -76 -71 -221q-7 -25 -21 -38t-28 -13q-31 0 -31 53q-2 94 -14 128t-41 42q-54 10 -152 10t-164 -10q-18 -4 -39 -49q-41 -96 -110 -377q-2 -4 2 -13t8 -9h225q39 0 55 9q15 9 55 63q40 55 56 55t34 -20t11 -34
q-41 -86 -96 -299q-5 -35 -25 -35t-34 16t-18 57q-4 39 -18 59q-22 34 -139 34q-53 0 -133 -12q-17 -9 -29 -40q-11 -32 -45 -172t-41 -184t0 -70t19 -30q60 -18 196 -18t198 18t114 70q49 45 100 117q18 29 43 29t24 -56q-1 -55 -57 -150q-56 -96 -84 -112t-71 -16t-241 8
t-402 6l-240 -10q-66 0 -65 35q0 35 63 45q104 14 133 32t49 78q102 309 246 875q14 61 -3 86t-89 38t-72 38q0 14 18 27t52 13l367 -10h161z" />
    <glyph glyph-name="F" unicode="F" horiz-adv-x="1130" 
d="M909 1247q258 0 316 13q56 9 -4 -171q-32 -98 -33 -110q-12 -53 -31 -53q-45 0 -51 49q-2 25 -5 71t-11 64q-20 53 -80 53q-246 0 -305 -18q-23 -5 -34 -19t-31 -62t-54 -176q-35 -128 -36 -169t21 -41q106 -10 217 -10q82 0 130 73q39 53 60 53q22 0 28 -16q6 -18 2 -37
q-48 -182 -60 -257t-49 -74q-33 0 -39 56t-19 74q-31 45 -300 35q-16 0 -31 -24q-22 -43 -56 -177t-36 -190t24 -75q26 -21 88 -37q64 -16 64 -45q0 -39 -64 -39l-313 12l-162 -6q-31 0 -47 14t-16 28t19 26q19 13 38 18q127 23 148 82q174 621 243 889q20 61 2 86t-96 41
t-78 47q2 14 20 24t40 11l219 -13h362z" />
    <glyph glyph-name="G" unicode="G" horiz-adv-x="1454" 
d="M1423 575q0 -10 -49 -22q-92 -23 -106 -72q-57 -215 -117 -395q-12 -43 -51 -57q-195 -66 -367 -66q-259 0 -411 154t-152 383q0 156 97 347t293 314t484 123q82 0 190 -26t155 -25l55 6q8 0 18 -25t0 -38q-90 -123 -125 -242q-14 -45 -47 -45q-39 0 -26 74q2 14 9 47
t1 54t-27 51t-93 59t-136 28q-223 0 -391 -170q-103 -104 -165 -256t-62 -302t69 -261q47 -76 131 -123t168 -47q126 0 194 128t95 267q6 16 1 30t-5 24q0 8 -23 23t-68 24q-44 8 -59 12q-45 10 -45 49q0 29 49 29l260 -11q47 0 131 7l82 6q16 -1 30 -19t13 -37z" />
    <glyph glyph-name="H" unicode="H" horiz-adv-x="1525" 
d="M299 1223q0 31 66 30l192 -6q13 0 221 13q63 0 64 -35q0 -34 -86 -50q-50 -9 -76 -31t-43 -79q-66 -229 -90 -354q0 -29 22 -27q139 10 312 10t209 -6t53 25q57 178 86 289q28 110 27 122q-2 28 -76 55q-74 28 -74 48q0 31 70 30l202 -10l203 8q59 -1 59 -31t-64 -49
t-85 -37q-20 -18 -42 -64q-22 -48 -118 -401q-95 -353 -115 -441t0 -112t74 -40q52 -16 64 -28t10 -27q0 -33 -68 -33l-241 8l-199 -10q-28 0 -52 11t-24 26q0 31 70 44t100 38t49 92q66 203 101 352q8 31 -17 35q-61 6 -228 6t-304 -10q-35 -6 -43 -27q-118 -390 -85 -440
q17 -27 105 -47q12 -4 28 -16t17 -27q0 -14 -24 -25q-25 -10 -49 -10l-217 8l-250 -12q-23 0 -41 10t-18 24t20 28q20 13 41 18q113 24 147 96t135 428q100 356 125 491q8 47 -6 63t-76 30q-62 16 -61 47z" />
    <glyph glyph-name="I" unicode="I" horiz-adv-x="710" 
d="M-25 27q0 41 80 55q115 18 131 68q177 578 263 938q9 38 -5 56t-80 30q-66 13 -65 40q4 37 55 37l166 -4l285 10q25 0 38 -12t13 -28q0 -25 -51 -35q-80 -12 -104 -30t-48 -87q-84 -233 -235 -797q-14 -59 -18 -94q-4 -34 12 -56q14 -22 33 -32t67 -24t47 -42
q0 -35 -59 -34l-289 12l-164 -2q-72 0 -72 31z" />
    <glyph glyph-name="J" unicode="J" horiz-adv-x="712" 
d="M-94 -465q-125 0 -170 59q-27 29 -27 76q1 47 17 76t39 29q23 -1 40 -15t25 -20t22 -20l19 -19q80 -72 117 -72q88 0 166 289q274 1016 290 1100t3 109q-13 23 -89 43t-75 51q4 35 57 34l233 -8l246 8q25 0 40 -11t13 -25q4 -35 -66 -47t-100 -36q-30 -22 -49 -89
q-76 -271 -176 -655t-141 -504t-129 -208q-145 -144 -305 -145z" />
    <glyph glyph-name="K" unicode="K" horiz-adv-x="1386" 
d="M854 1221q0 -33 -70 -45q-113 -18 -145 -109q-41 -115 -96 -340q-12 -53 8 -53q33 0 115 58t254 199q172 140 196 178t-10 46q-33 7 -50 25t-18 32q0 14 22 24t118 11q96 0 331 13q61 0 62 -35q-1 -15 -19 -29t-60 -20q-98 -14 -243 -103q-209 -131 -461 -338
q-18 -18 -14 -39q53 -135 136 -297t126 -217q80 -96 205 -119q23 -4 39 -16t16 -25q0 -14 -20 -26t-53 -12q-176 0 -267 18q-70 14 -142 137t-193 416q-36 78 -68 49q-35 -12 -49 -37t-49 -155t-42 -190q-7 -62 6 -90t28 -36t47 -16q70 -20 69 -53q0 -33 -61 -33l-154 6
l-319 -10q-27 0 -49 10t-21 25q1 31 63 47t84 25t49 34t49 81t113 372q92 315 129 458q16 66 -1 94t-81 41t-59 44q0 35 64 34l213 -8l211 8q25 0 43 -10t18 -24z" />
    <glyph glyph-name="L" unicode="L" horiz-adv-x="1220" 
d="M475 88q285 0 329 7q83 13 121 50t105 113t91 76t24 -36t-40 -118t-74 -130q-33 -48 -95 -55t-182 -7l-453 12l-252 -8q-74 0 -74 24q-1 14 17 32t41 22q98 16 126 33q29 17 51 92t119 455t107 423t2 63t-70 38q-62 20 -61 38q0 18 22 30t52 11l188 -6l226 13
q68 0 67 -43q0 -25 -55 -35q-84 -8 -113 -28q-30 -20 -58 -96q-28 -75 -108 -393q-80 -317 -101 -421t-2 -130t50 -26z" />
    <glyph glyph-name="M" unicode="M" horiz-adv-x="1783" 
d="M344 1251q242 0 299 11q15 4 31 -14t30 -66q14 -46 177 -768q6 -34 25 -8q308 430 368 509q59 79 131 181q71 102 93 131t99 28q188 0 247 -1t59 -31q1 -44 -103 -52q-64 -5 -96 -29t-56 -112t-86 -377t-80 -399t8 -138t86 -42t70 -24q11 -10 11 -27q0 -35 -64 -35
l-286 12l-203 -10q-29 0 -47 14q-19 14 -19 30q-1 27 47 36q98 18 135 63q36 45 72 180q152 567 176 684q2 13 -6 15t-14 -4q-332 -462 -442 -634t-157 -258q-48 -86 -99 -87q-35 0 -50 125q-12 170 -127 772q-4 8 -13 4t-13 -12q-55 -138 -127 -358t-93 -316t-4 -124
q17 -26 87 -40t73 -47q-4 -39 -71 -39l-183 6l-223 -10q-70 0 -74 37q0 33 73 48t111 44t68 100q104 248 291 768q29 74 22 114t-36 46t-74 15q-45 10 -56 12t-30 14q-18 12 -16 26q0 14 17 26t42 11z" />
    <glyph glyph-name="N" unicode="N" horiz-adv-x="1443" 
d="M203 1208q0 18 17 34t50 15l279 -10q8 0 26 -15t29 -36q369 -729 455 -862q14 -14 20 -2q31 96 92 326t77 327t-8 133q-22 36 -130 62q-45 12 -45 37q0 16 20 29t54 14l243 -13l154 4q57 0 57 -41q-1 -27 -69 -41t-102 -50t-64 -144q-133 -481 -166 -615t-33 -188
q-1 -53 49 -85t49 -58q0 -13 -15 -25t-34 -12l-151 6h-41q-20 0 -37 41q-6 11 -12 25l-29 67q-37 74 -111 218q-73 143 -165 323t-134 262q-6 8 -13 6t-9 -10q-121 -389 -158 -637q-18 -115 10 -159t123 -62q15 -4 31 -16t16 -26q0 -12 -19 -26t-48 -14l-232 10l-186 -10
q-25 0 -45 10t-21 20q0 39 62 54q129 29 145 84q74 199 234 809q20 79 3 115q-29 61 -98 81q-22 7 -71 17t-49 28z" />
    <glyph glyph-name="O" unicode="O" horiz-adv-x="1396" 
d="M608 47q150 0 270 113q120 114 195 306q76 192 76 406q0 106 -55 208q-29 54 -84 88t-125 30t-124 -26t-120 -85q-135 -125 -205 -311t-69 -405q0 -49 15 -115t45 -110t82 -71q52 -28 99 -28zM895 1284q209 0 335 -144t126 -336t-76 -368t-211 -299q-86 -80 -208 -127
t-234 -47q-207 0 -336 129t-129 354q0 224 96 414t262 307t375 117z" />
    <glyph glyph-name="P" unicode="P" horiz-adv-x="1163" 
d="M1188 895q0 -100 -53 -185q-90 -145 -257 -188q-77 -20 -126 -20q-109 0 -109 49q0 18 57 31q115 20 204 99t89 208t-72 207q-73 78 -198 78q-12 0 -36 -16t-30 -30q-47 -152 -129 -456t-116 -459q-16 -69 8 -95t135 -52q13 -4 25 -16t12 -23q0 -13 -20 -25t-44 -12
l-284 10l-224 -4q-10 0 -24 11t-14 23t20 29t72 27t84 35q31 25 53 84q41 127 227 858q12 51 -8 76t-106 37q-55 10 -56 36q4 39 66 39l196 -4l299 8q143 0 251 -94t108 -266z" />
    <glyph glyph-name="Q" unicode="Q" horiz-adv-x="1409" 
d="M920 1190q-134 0 -264 -119t-209 -303t-79 -346t66 -268q64 -106 182 -107q51 0 95 21q158 88 261 230q183 252 183 572q0 72 -15 137q-16 65 -72 124t-148 59zM915 1280q113 0 203 -44q160 -78 221 -262q27 -79 27 -159q0 -487 -430 -741q-98 -59 -284 -137
q-186 -77 -203 -85q-16 -8 -3 -18l15 -2q160 10 389 -121q90 -49 188 -80t158 -30q147 0 281 112q11 10 33 6t22 -20q0 -41 -33 -74q-86 -90 -199 -137t-219 -47q-170 0 -407 151q-84 54 -194 96t-191 42q-113 0 -260 -107q-27 -23 -49 -11t-21 32q0 22 24 54t105 84
t233 117q152 64 161 69t-9 18q-145 45 -226 178t-81 297q0 240 117 426t256 276q175 117 376 117z" />
    <glyph glyph-name="R" unicode="R" horiz-adv-x="1241" 
d="M985 979q-1 117 -65 160t-203 43q-26 0 -48 -39t-71 -205t-56 -221t19 -55q66 0 152 18t139 49q41 20 87 100t46 150zM1184 979q0 -131 -92 -220t-226 -112q-14 -4 -8 -33q47 -172 123 -358q39 -96 82 -129t103 -47t71 -20q10 -6 10 -20t-16 -28t-35 -18q-90 -8 -166 -8
t-118 32t-74 100q-32 70 -138 357q-45 117 -155 117q-9 0 -23 -9t-18 -18q-28 -59 -56 -173t-37 -182t9 -92t72 -40t57 -36q2 -20 -21 -34t-41 -14l-202 6l-260 -8q-25 0 -40 11t-16 24q0 35 77 53t107 34t37 40q27 76 123 418t129 497q10 49 -6 67t-102 33q-55 12 -55 41
q0 12 18 24t39 13l96 2l383 13q152 0 236 -50q61 -32 97 -102t36 -131z" />
    <glyph glyph-name="S" unicode="S" horiz-adv-x="970" 
d="M674 1284q88 0 223 -49q27 -10 46 -15q19 -6 31 -20t13 -26q0 -201 -19 -230t-36 -29q-31 0 -37 54q-14 119 -81 177t-154 58t-149 -62t-62 -154t88 -183q45 -49 146 -145t130 -146q55 -90 55 -180q0 -176 -135 -274t-285 -97q-150 0 -331 78q-31 14 -40 35t-7 53
q12 96 8 199q0 33 13 52t26 19q45 0 57 -82q16 -131 93 -201t179 -71q102 0 164 66t62 168t-133 232t-185 194q-51 65 -68 114t-18 105q0 164 119 262t287 98z" />
    <glyph glyph-name="T" unicode="T" horiz-adv-x="1353" 
d="M514 1155q-92 0 -207 -145q-31 -41 -48 -41q-17 -1 -27 27t3 54q12 26 46 112q33 85 47 114t37 29q5 1 37 -17t76 -30t249 -11h410q213 0 259 26q46 25 60 25t26 -20t-3 -68q-14 -48 -62 -198q-16 -61 -55 -62q-27 0 -32 73q-9 132 -99 132l-240 -4q-6 0 -17 -14t-16 -25
q-34 -104 -124 -438t-112 -432t4 -120q24 -24 114 -46q51 -12 51 -43q-4 -37 -68 -37l-186 4l-303 -14q-72 0 -72 41q0 14 20 27t52 18q92 14 128 50t52 90t231 892q0 37 -6 37q-33 14 -225 14z" />
    <glyph glyph-name="U" unicode="U" horiz-adv-x="1466" 
d="M1624 1217q0 -31 -73 -45t-97 -42t-64 -150t-155 -525q-53 -201 -156 -320q-145 -172 -422 -172q-111 0 -205 38q-255 103 -196 419q14 78 86 364t75 309q3 25 1 35q-5 29 -77 48q-71 20 -71 51t62 30l215 -10l211 6q23 0 38 -10t15 -27q0 -16 -13 -26t-66 -22
q-54 -12 -80 -36t-48 -98q-63 -207 -139 -545q-27 -95 -26 -163t41 -122t110 -84t125 -30q151 0 243 67t165 275t149 533q30 129 14 159t-98 46t-82 49q4 35 65 34l199 -6l197 8q57 0 57 -38z" />
    <glyph glyph-name="V" unicode="V" horiz-adv-x="1286" 
d="M395 -37q-35 1 -35 63t4 221q4 194 -3 525q-7 330 -10 346q-8 44 -99 64q-55 16 -55 41q0 35 59 34l221 -10l205 6q57 0 57 -32q-1 -37 -69 -47t-90 -39t-25 -91q-18 -383 -2 -720q2 -10 14 -10t19 5q58 59 246 315t254 362q66 104 60 132q-5 28 -75 46q-59 12 -59 45
q0 14 18 24t39 10l174 -6l221 6q59 0 60 -34q0 -35 -70 -47t-120 -44t-96 -90q-46 -59 -230 -314q-184 -254 -260 -354t-148 -205t-82 -118q-68 -84 -123 -84z" />
    <glyph glyph-name="W" unicode="W" horiz-adv-x="1824" 
d="M1008 29q0 594 -7 809q0 16 -15 13q-11 -2 -261 -356t-288 -413q-38 -58 -48 -72q-35 -47 -73 -47t-31 66q49 509 67 991q2 82 -17 112t-85 44t-68 47q0 15 20 25q20 9 40 9l211 -10l192 6q64 0 62 -34q-1 -31 -55 -45t-74 -32q-20 -17 -28 -74t-56 -701q-2 -11 10 -17
t20 6q84 115 249 347t192 276q37 68 34 113q0 70 -84 86q-57 10 -57 43q2 35 68 34l190 -8l193 8q25 0 39 -10t12 -20q0 -35 -68 -50t-84 -37t-23 -112t5 -690q2 -12 14 -10t17 8q356 514 450 690q51 97 5 125q-19 12 -72 24t-54 46q4 35 64 34l198 -6l185 10q59 0 59 -30
q0 -37 -64 -52t-100 -42t-80 -86q-78 -111 -339 -499t-302 -455t-51 -81q-12 -23 -35 -36t-37 -13q-14 -1 -28 17q-12 18 -12 49z" />
    <glyph glyph-name="X" unicode="X" horiz-adv-x="1374" 
d="M639 626q0 18 -4 29q-98 233 -184 410q-15 37 -47 61t-56 31q-24 9 -75 23q-52 14 -52 39q0 16 23 27t47 11l215 -10l205 4q27 0 40 -14q13 -15 13 -31t-47 -30q-94 -20 -68 -84q76 -190 142 -308q12 -16 26 2q176 184 264 289q33 41 25 61t-58 32q-50 11 -51 38
q1 12 19 28t39 17l166 -4l227 10q66 0 65 -34q0 -33 -65 -45q-180 -39 -283 -148q-123 -125 -303 -328q-20 -27 -11 -47q195 -434 227 -491t161 -86q55 -14 55 -47q0 -14 -22 -26q-23 -11 -53 -11l-271 6l-180 -6q-61 0 -61 36q1 36 65 49t76 45t-14 87q-47 117 -127 281
q-1 6 -13 7t-16 -3q-152 -141 -307 -342q-2 -8 -4 -20t21 -30q24 -18 66 -30t42 -41q0 -15 -23 -27t-47 -12l-190 6l-222 -8q-70 0 -69 39q0 29 69 43q139 31 262 137q74 61 196 197t144 168t23 50z" />
    <glyph glyph-name="Y" unicode="Y" horiz-adv-x="1214" 
d="M272 77q80 15 110 40t52 104l72 254q31 106 12 183t-125 364q-31 84 -58 110q-29 26 -93 42t-64 45q0 37 60 36l204 -8l211 6q23 0 40 -10q31 -18 4 -47q-13 -14 -58 -27t-61 -27t-9 -40q35 -123 125 -383q6 -27 33 -4q29 29 156 174t166 198q55 72 -35 91q-51 12 -51 43
q0 10 16 21t55 11t178 -6l177 6q57 -1 57 -33t-69 -44t-119 -39q-115 -62 -472 -488q-57 -66 -75 -137q-78 -292 -85 -332q-6 -40 20 -67t108 -43q18 -4 34 -16t17 -25q0 -37 -66 -37l-250 8l-233 -8q-63 0 -63 35q-1 35 79 50z" />
    <glyph glyph-name="Z" unicode="Z" horiz-adv-x="1320" 
d="M389 1266q95 -19 288 -19q193 1 412 9q220 8 222 8q35 0 39 -25q0 -31 -27 -55q-2 -2 -66 -63t-151 -153q-86 -94 -396 -440t-336 -374t-27 -32q-3 -14 18 -18q20 -4 176 -14t207 -10q176 0 231 37q94 55 174 186q35 61 66 62q25 1 25 -39t-15 -78q-14 -38 -41 -97
q-27 -58 -29 -63q-18 -49 -57 -82q-18 -18 -129 -18l-654 12l-282 -12q-19 0 -23 24t17 47q170 170 375 397q206 228 317 351t195 218t89 102t6 19t-7 13q-182 0 -348 -6t-218 -56t-100 -139q-26 -49 -56 -49t-26 62q10 78 84 246q35 49 47 49z" />
    <glyph glyph-name="bracketleft" unicode="[" horiz-adv-x="768" 
d="M915 1409q0 -63 -245 -63q-12 -2 -28 -18t-24 -34q-132 -421 -385 -1493q-3 -20 5 -44q8 -25 28 -27t83 -6q62 -4 79 -7q59 -8 59 -39q0 -41 -73 -53q-33 -4 -189 -4l-159 2q-6 -1 -14 17t-5 32l320 1241q121 456 126 480t21 38q17 13 27 13l315 2q23 0 41 -10t18 -27z
" />
    <glyph glyph-name="backslash" unicode="\" horiz-adv-x="790" 
d="M530 -139q-16 0 -24 11t-8 19q-141 1307 -154 1430q0 4 6 12t10 8q35 20 84 21q23 0 27 -23q4 -47 145 -1429q0 -29 -26 -35q-44 -14 -60 -14z" />
    <glyph glyph-name="bracketright" unicode="]" horiz-adv-x="768" 
d="M-106 -342q0 63 243 63q11 3 29 19t24 33q133 424 383 1493q6 18 -2 43t-20 28q-18 2 -73 5t-106 9q-50 7 -50 38q0 18 21 33q23 16 55 20t186 4l159 -2q5 0 13 -16t6 -31l-322 -1243q-127 -488 -129 -496t-17 -22q-16 -13 -26 -13l-315 -2q-23 0 -41 10t-18 27z" />
    <glyph glyph-name="asciicircum" unicode="^" horiz-adv-x="995" 
d="M838 481l-297 563q-6 20 -13 5l-284 -576q-12 -12 -40 -6t-67 41q-14 16 -4 35q156 287 328 626q29 55 45 73q36 41 73 -3q22 -30 39 -63l328 -615q18 -35 4 -49q-36 -37 -70 -40t-42 9z" />
    <glyph glyph-name="underscore" unicode="_" horiz-adv-x="1024" 
d="M-109 -256h1024v-102h-1024v102z" />
    <glyph glyph-name="grave" unicode="`" 
d="M612 948q-31 0 -55 41q-70 123 -129 254q-20 49 12 78q16 15 47 27t45 10q35 0 48 -49q39 -129 59 -295q4 -66 -27 -66z" />
    <glyph glyph-name="a" unicode="a" horiz-adv-x="993" 
d="M637 707q-84 1 -180 -105q-95 -106 -159 -225t-65 -182q-1 -18 15 -41t39 -23q104 0 241 186q117 156 166 318q10 23 -12 47t-45 25zM658 823q42 0 64 -9t28 7q23 51 26 60q10 18 27 18q51 4 92 -25q18 -12 12 -42t-87 -309q-81 -278 -95 -328q-6 -35 2 -42t23 -8
q61 0 141 99q30 38 53 24q10 -6 10 -23t-24 -71q-39 -76 -124 -139t-185 -64q-27 1 -52 21t-24 42t27 110q26 86 30 102t-4 17t-16 -7q-80 -96 -206 -190t-220 -95q-57 0 -93 31q-64 60 0 226q33 83 89 159q193 262 407 399q57 37 99 37z" />
    <glyph glyph-name="b" unicode="b" horiz-adv-x="1019" 
d="M713 733q-117 0 -279 -196q-53 -63 -99 -179t-46 -188q0 -30 43 -62t63 -32q59 0 140 65q80 68 161 228q82 160 82 262t-65 102zM815 862q59 0 103 -53q43 -47 43 -117q1 -180 -101 -345t-255 -271t-279 -105q-76 1 -138 57t-63 165q0 68 39 204q211 780 217 807t-12 46
q-18 20 -53 28t-49 22q-13 14 -13 21q0 16 55 41q78 23 264 22q11 0 17 -24t0 -33q-109 -324 -197 -674q-2 -8 7 -14t16 2q231 221 399 221z" />
    <glyph glyph-name="c" unicode="c" horiz-adv-x="741" 
d="M597 862q81 0 123 -40t42 -58q0 -51 -26 -89t-45 -38t-44 14t-39 41q-39 70 -85 70t-74 -19q-55 -33 -120 -188t-65 -328q0 -49 42 -85t85 -36q68 0 170 115q29 33 41 33t20 -14t7 -31q0 -17 -15 -41q-131 -197 -323 -197q-47 0 -100 29q-109 62 -109 216q0 74 26 174
t66 177q88 155 215 225t208 70z" />
    <glyph glyph-name="d" unicode="d" horiz-adv-x="1064" 
d="M242 170q0 -16 26 -37q27 -20 51 -20q88 0 222 161q125 160 178 349q15 51 -33 121q-23 34 -35 34q-80 0 -171 -96q-150 -158 -212 -365q-26 -90 -26 -147zM63 193q0 133 99 305q98 172 236 268t237 96q14 0 56 -14t61 -26t26 7q76 262 86 373q2 23 -13 34q-15 12 -51 24
t-47 28t-12 25q0 18 47 33q133 39 248 38q37 0 15 -112q-21 -112 -127 -518t-126 -500t-13 -104t32 -11q57 0 154 113q18 25 41 24q35 0 4 -77q-41 -86 -125 -157t-189 -71q-55 0 -84 33q-14 29 -14 43t53 215q2 10 -4 13t-14 -3q-6 -12 -47 -58t-111 -108
q-151 -134 -256 -135q-82 0 -136 89q-26 43 -26 133z" />
    <glyph glyph-name="e" unicode="e" horiz-adv-x="774" 
d="M575 786q-59 0 -141 -87t-131 -203q0 -23 12 -23q47 2 116 30t131 90t63 140q0 17 -17 35t-33 18zM256 219q0 -59 41 -89t84 -30t105 35t96 70t44 35q11 0 18 -12t7 -21q0 -47 -59 -107q-129 -129 -287 -129q-84 1 -145 55q-86 77 -86 187q0 154 84 325t207 257
q104 67 219 67q47 0 100 -26q84 -48 86 -148t-104 -176q-131 -94 -371 -113q-39 0 -39 -180z" />
    <glyph glyph-name="f" unicode="f" horiz-adv-x="579" 
d="M711 817q-1 -16 -15 -40q-14 -23 -31 -27t-159 -11q-12 0 -30 -9t-23 -23q-100 -477 -201 -846q-31 -115 -78 -177q-46 -62 -156 -130t-196 -68q-45 0 -93 31t-48 67t12 67q12 30 28 40q49 16 70 6q91 -88 141 -88t80 33q30 32 65 162q34 130 110 470q77 340 96 437
q0 25 -15 24l-133 -4q-6 0 -14 9q-8 10 -8 24t17 37q16 23 24 23t74 3q66 4 72 9q5 5 17 20q106 352 299 475q100 63 188 63t138 -42q49 -44 49 -104t-35 -86t-55 -27q-20 0 -34 9q-13 9 -15 19q-16 139 -121 140q-53 0 -108 -78q-78 -115 -134 -375q-3 -6 5 -12t10 -7
l160 9q47 2 47 -23z" />
    <glyph glyph-name="g" unicode="g" horiz-adv-x="804" 
d="M338 -416q225 0 225 133q0 19 -43 69t-229 136q-33 8 -41 6q-76 -20 -148 -71t-71 -107q0 -22 12 -50t23 -36q44 -32 118 -56t154 -24zM510 782q-68 0 -154 -133t-86 -287q-2 -55 25 -74q27 -20 53 -20t79 52q52 52 93 160t41 180t-17 98q-18 24 -34 24zM518 862
q68 0 102 -20t44 -18q150 22 210 22q8 0 18 -13t9 -36q0 -23 -15 -53t-30 -29q-37 0 -139 20q-4 2 -9 -5q-5 -8 2 -28t7 -59q1 -117 -59 -222t-126 -147t-178 -73q-14 -3 -24 -19t-11 -32q0 -49 80 -93q178 -102 260 -184q19 -16 39 -51t21 -53q0 -63 -47 -123
q-124 -160 -441 -160q-63 0 -146 24t-142 68q-84 63 -84 150t143 174q37 20 186 78q4 0 8 9q3 9 -6 19q-8 10 -16 28t-3 43q5 24 17 36q54 54 74 69q2 10 -12 17q-53 16 -94 73t-41 125q0 133 84 257t182 171q69 35 137 35z" />
    <glyph glyph-name="h" unicode="h" horiz-adv-x="1050" 
d="M831 862q55 0 101 -52t45 -138q0 -156 -45 -295t-78 -190t-71 -85q-37 -34 -106 -90q-69 -57 -97 -57t-62 26q-35 26 -37 58q4 33 60 88q2 2 12 4t13 1t36 -20q34 -20 52 -20t44 51t65 218q40 167 40 271t-58 105q-47 -1 -91 -27t-113 -104q-145 -162 -303 -561
q-29 -74 -50 -74q-12 1 -42 13t-42 30t5 97q190 807 253 1073q8 35 -14 51q-98 45 -98 57t10 26t40 25q30 9 115 25t124 16t23 -74t-88 -334q-71 -259 -99 -382q0 -8 7 -16t11 -7q172 175 259 233t179 58z" />
    <glyph glyph-name="i" unicode="i" horiz-adv-x="567" 
d="M454 1266q39 0 62 -31t23 -61q-1 -30 -19 -65q-18 -34 -36 -49q-18 -16 -55 -16q-38 0 -67 25t-28 66q0 70 57 114q24 17 63 17zM422 862q20 0 39 -26q18 -26 18 -52t-13 -70t-96 -282t-86 -246t1 -15t16 -7t58 26t76 48q30 24 46 24q17 0 17 -28t-46 -88
q-46 -58 -142 -116t-137 -58q-39 0 -63 24q-24 26 -24 52t18 73q41 88 181 512q19 55 -7 55t-78 -36t-85 -68q-6 -6 -20 10q-13 16 -13 24t18 41q58 83 152 143t170 60z" />
    <glyph glyph-name="j" unicode="j" horiz-adv-x="563" 
d="M493 1266q43 0 65 -32t22 -77t-40 -79t-77 -34t-65 24t-28 65t18 73t40 46t65 14zM457 862q22 0 39 -29q10 -19 9 -51t-101 -404t-138 -496t-106 -209t-131 -124q-111 -63 -175 -63t-99 27q-34 27 -34 50t30 65t56 42q27 0 33 -4t22 -16q67 -49 105 -49q51 0 92 125
q29 82 138 488t113 429t0 31q-3 8 -14 8q-10 0 -68 -39t-101 -80q-4 -6 -18 -1t-15 16q0 39 15 67q33 53 147 135t201 82z" />
    <glyph glyph-name="k" unicode="k" horiz-adv-x="1005" 
d="M688 725q-55 0 -138 -69t-169 -236q-2 -8 9 -18t37 -9q25 0 99 32q74 31 142 99t68 134t-48 67zM782 862q58 0 96 -41t37 -90q2 -125 -112 -215q-55 -45 -126 -86t-95 -49q-6 -4 -14 -16t-5 -15q12 -12 51 -72t74 -106t78 -45q43 0 113 102q27 33 39 33q25 0 27 -39
q1 -16 -7 -35q-58 -119 -116 -169t-132 -50t-147 117q-10 14 -42 68t-57 94q-47 70 -92 69q-10 0 -44 -63t-97 -256q-2 -6 -17 -16t-31 -10q-17 0 -45 25q-28 26 -28 44q0 43 10 81t124 478q114 438 145 582q10 43 -4 58q-13 16 -69 28t-56 26t15 30t36 26t109 22t121 12
q32 0 44 -14t5 -49q-7 -34 -53 -204t-128 -484q0 -12 14 -17q41 41 119 106q78 64 140 102t120 38z" />
    <glyph glyph-name="l" unicode="l" horiz-adv-x="552" 
d="M268 1311q0 15 20 33t40 22q143 18 235 18q20 0 21 -32q2 -32 -3 -52q-5 -22 -135 -496t-159 -611q-14 -68 35 -68q38 0 108 70q20 20 28 27t25 6q17 0 17 -22t-17 -54q-47 -80 -124 -130t-156 -51q-39 0 -68 37t-29 76q0 92 93 414q147 557 190 729q4 20 -16 33
q-21 14 -63 24t-42 27z" />
    <glyph glyph-name="m" unicode="m" horiz-adv-x="1558" 
d="M1257 748q-183 0 -457 -550q-95 -191 -107 -208t-34 -18q-23 0 -57 20t-35 49q1 29 57 161q187 438 179 509q-3 30 -41 30q-68 -1 -111 -35t-103 -110t-111 -167q-52 -91 -95 -177t-80 -162t-39 -80q-20 -39 -52 -39q-31 1 -63 21t-32 45t33 102q135 301 171 391
q71 178 35 187q-45 0 -176 -92q-10 -8 -29 -4t-18 18q0 37 19 66q35 63 108 110q74 47 172 47q45 0 59 -38t4 -86q-9 -48 -26 -93q-16 -45 -19 -52t8 -8t19 7q82 110 188 190t201 80q96 0 110 -78q3 -16 3 -39t-41 -131q-6 -18 6 -20q6 -2 10 4q92 104 210 184t210 80
q55 0 82 -46t27 -105t-47 -181t-133 -321q-13 -33 12 -33q14 0 74 39t112 90q6 6 20 -2t15 -18q-3 -53 -71 -121t-170 -130t-162 -63q-35 0 -64 39q-12 23 8 68q145 309 234 547q43 123 -13 123z" />
    <glyph glyph-name="n" unicode="n" horiz-adv-x="1062" 
d="M335 862q114 0 114 -107q0 -48 -52 -180q-4 -8 2 -14l9 4q94 127 212 212t211 85q51 0 83 -45t32 -93t-26 -144t-138 -387q-14 -33 9 -33q43 0 163 98q8 8 20 -3t11 -35q0 -24 -35 -60q-63 -74 -155 -131t-166 -58q-17 1 -37 19t-26 42t14 74t111 298t99 276t-4 48
t-43 20q-57 0 -131 -76t-123 -156t-107 -185q-58 -106 -107 -207q-50 -102 -56 -114t-21 -25q-14 -13 -30 -13t-45 23q-29 24 -29 44q0 69 66 225t109 278q42 122 39 141t-13 19q-68 0 -154 -75q-15 -13 -35 -9t-20 23t8 37q33 76 105 130t136 54z" />
    <glyph glyph-name="o" unicode="o" horiz-adv-x="866" 
d="M539 770q-82 0 -162 -129q-133 -217 -133 -438q0 -133 108 -133q59 0 135 106q53 74 103 219q49 145 49 236q0 139 -100 139zM541 862q115 0 183 -89t67 -223q0 -134 -67 -282q-67 -147 -177 -223q-111 -74 -217 -74q-106 1 -178 101q-70 100 -68 230t71 268t167 212
q46 32 114 56t105 24z" />
    <glyph glyph-name="p" unicode="p" horiz-adv-x="966" 
d="M729 610q0 78 -38 115q-39 37 -93 37t-137 -19q-24 -8 -35 -65q-12 -58 -62 -262t-58 -232q-8 -30 5 -56q12 -26 35 -48t39 -23q45 1 111 61t102 118t84 177q47 119 47 197zM-174 -444q0 14 18 36t37 23q78 15 103 33q24 18 48 82t226 940q0 6 -4 15t-10 7
q-125 -41 -134 -44t-21 3q-11 5 -11 15t16 36t25 34q9 6 68 30t79 34t23 21q39 152 59 183q33 32 51 32t53 -24q34 -26 34 -46t-21 -106q0 -6 5 -12t9 -6q152 18 201 18t101 -22q126 -55 126 -217q0 -161 -95 -309t-181 -218q-152 -123 -242 -123q-33 0 -100 27q-3 2 -13 -4
t-13 -24t-23 -98q-19 -81 -30 -141t5 -84q17 -24 81 -39t64 -42q0 -18 -20 -32t-55 -15l-39 2q-98 10 -201 10l-156 -4q-63 0 -63 29z" />
    <glyph glyph-name="q" unicode="q" horiz-adv-x="995" 
d="M578 772q-43 0 -125 -94q-81 -94 -143 -240t-62 -262q0 -24 22 -48t56 -24t100 50q126 94 230 293q56 109 54 167t-46 108q-43 50 -86 50zM774 -430q0 -16 -19 -28t-58 -11q-39 0 -390 -18q-66 0 -65 36q0 33 82 53t104 36q23 18 45 70t86 253q63 201 71 233t-1 35
q-8 2 -15 -6q-213 -252 -389 -252q-57 1 -105 55t-48 146t34 198t91 187q115 172 270 258q79 47 153 47t114 -52q22 -28 26 -38l14 -31q5 -5 17 7q41 78 60 100t40 12q67 -39 33 -130q-18 -46 -124 -464t-127 -510t-13 -106t62 -36q52 -22 52 -44z" />
    <glyph glyph-name="r" unicode="r" horiz-adv-x="763" 
d="M324 862q109 0 108 -129q0 -45 -63 -227q-2 -6 4 -9t12 3q16 36 90 148t126 163q53 51 107 51t85 -28q59 -54 -3 -142q-34 -47 -67 -67q-4 -2 -18 -2q-18 -1 -49 25t-48 26q-31 0 -76 -76q-104 -178 -260 -541q-39 -86 -73 -86q-23 1 -51 15q-58 30 -37 84
q129 385 163 524q23 102 -23 102t-99 -61q-31 -31 -54 -31q-18 0 -18 31q0 61 77 144t167 83z" />
    <glyph glyph-name="s" unicode="s" horiz-adv-x="645" 
d="M467 862q98 0 143 -61q29 -39 29 -65t-19 -60q-19 -35 -28 -35q-27 0 -62 31q-82 78 -145 78q-39 0 -61 -26t-21 -64q0 -38 35 -86t123 -138t88 -166q0 -131 -152 -231q-49 -33 -108 -50t-88 -18q-104 0 -164 66q-37 41 -37 86q0 12 17 40q37 61 67 46q185 -185 283 -100
q61 53 3 145q-28 43 -118 142t-90 192q0 43 27 94q60 109 188 157q63 23 90 23z" />
    <glyph glyph-name="t" unicode="t" horiz-adv-x="673" 
d="M485 1059q25 0 47 -6t21 -13q0 -18 -51 -188q-5 -19 16 -21h193q14 0 14 -18t-17 -54t-26 -36q-129 0 -197 8q-14 0 -22 -22q-39 -104 -135 -453q-25 -86 4 -86q49 0 190 125q6 4 18 -7t13 -36q0 -25 -29 -64q-53 -74 -167 -148q-115 -74 -155 -73q-40 0 -63 33
q-23 32 -23 58t17 92q98 360 164 557q6 18 -8 18l-131 4q-16 5 -16 27t14 46t22 26t68 3t72 5t24 24t72 148q24 51 71 51z" />
    <glyph glyph-name="u" unicode="u" horiz-adv-x="1085" 
d="M297 666q0 20 -11 20q-38 0 -152 -102q-4 -4 -20 4t-16 34t47 82t131 107t150 51q29 0 47 -35t13 -71t-189 -572q-6 -16 1 -39t28 -22q47 0 104 51q56 52 138 164t261 444q45 78 73 78t52 -20t25 -49q-1 -29 -31 -127t-78 -264q-48 -167 -67 -230q-2 -6 5 -13t17 -7
q55 0 152 94q32 36 55 21q8 -5 8 -25t-32 -84q-32 -62 -122 -128q-91 -66 -184 -65q-34 0 -58 26t-24 43t28 94q26 77 83 249q2 4 -4 14t-16 0q-168 -229 -308 -340q-84 -70 -172 -69q-35 0 -69 16t-45 45q-12 29 3 105t169 481q8 19 8 39z" />
    <glyph glyph-name="v" unicode="v" horiz-adv-x="917" 
d="M380 862q89 0 96 -93q2 -38 -14 -81t-67 -198t-73 -240q-14 -37 -2 -67t34 -46t39 -16q115 0 227 158t111 299q-1 42 -35 102t-34 86t40 60q40 36 78 36q37 0 69 -41t32 -137t-68 -250q-68 -152 -160 -256q-94 -100 -178 -153t-184 -54q-63 -1 -107 55t-43 119
q-1 63 25 145t71 209q44 126 58 175q4 25 -16 24q-23 0 -156 -102q-6 -8 -23 -1q-16 7 -16 25t16 46q41 66 132 131q92 65 148 65z" />
    <glyph glyph-name="w" unicode="w" horiz-adv-x="1386" 
d="M1350 709q0 -189 -128 -391t-268 -285q-174 -108 -266 -21q-65 62 -37 207q2 6 -6 6q-8 4 -14 -2q-55 -84 -161 -168t-196 -84q-59 1 -101 59t-21 169q12 82 139 454q4 11 1 25t-11 14q-41 0 -146 -90q-10 -10 -27 -6q-18 4 -18 26t30 69t117 109t166 62q33 0 55 -30
t22 -73q1 -44 -13 -83q-102 -289 -148 -461q-11 -37 5 -68t43 -30q129 0 276 254q45 79 58 153t29 130t56 102q41 45 75 45t57 -25q47 -51 -9 -186q-8 -23 -40 -86t-46 -103q-37 -79 -37 -153q0 -134 78 -131q46 0 104 37t103 96q131 172 131 336q0 55 -32 112
q-32 56 -16 86q15 31 52 55q81 52 120 -18q24 -40 24 -112z" />
    <glyph glyph-name="x" unicode="x" horiz-adv-x="989" 
d="M910 635q-28 0 -40 33q-14 53 -42 53t-100 -83t-132 -179q-14 -29 -8 -41q43 -150 75 -216t68 -65q55 0 107 72q25 35 38 35t22 -14t9 -27q-4 -74 -84 -153t-160 -79t-121 84q-20 42 -32 81q-12 38 -28 82t-19 50q-2 6 -12 6t-15 -4q-143 -186 -215 -248t-124 -63
q-52 0 -85 32t-30 70q2 74 86 138q6 6 21 6t22 -10q11 -27 33 -49t40 -21q76 0 217 244q23 41 19 53q-55 180 -58 184q-33 94 -61 94q-23 0 -69 -42t-78 -87q-15 -15 -36 18q-9 13 -9 26q-1 13 29 65t100 117t120 65t78 -31t41 -59t31 -86q18 -60 30 -94t19 -36q6 -1 10 5
q127 162 156 193q106 109 199 108q38 0 68 -31t30 -69q-6 -63 -44 -95t-66 -32z" />
    <glyph glyph-name="y" unicode="y" horiz-adv-x="882" 
d="M344 862q53 0 101 -59t71 -178t2 -428q0 -9 10 -13t17 6q158 375 223 654q5 26 48 26q22 0 44 -34t21 -67q1 -31 -49 -149t-108 -245t-78 -175t-118 -231q-125 -260 -266 -383q-111 -98 -227 -98q-68 0 -113 41t-45 85t33 79t66 35t55 -23q76 -80 100 -80q57 0 119 72
q116 137 135 463q9 188 -17 359t-94 171q-53 0 -118 -110q-29 -41 -72 -41q-16 0 -16 28q8 87 92 191t184 104z" />
    <glyph glyph-name="z" unicode="z" horiz-adv-x="935" 
d="M422 862q42 0 160 -45t142 -45q48 0 130 80q25 27 39 27q15 0 31 -22t14 -34q0 -33 -47 -71q-113 -92 -337 -286t-240 -213t-13 -25q4 -6 10 -7q102 0 240 -94q76 -49 117 -49q40 0 68 28t28 88t-8 84t2 37q10 12 18 13q102 0 103 -119q0 -84 -115 -184
q-113 -95 -174 -95t-125 44q-23 15 -97 73q-74 57 -133 57q-58 0 -116 -102q-27 -41 -54 -41q-9 0 -25 22q-15 22 -15 48q-1 57 117 181t470 423q12 14 6 24q-65 8 -167 40t-138 32q-35 0 -54 -19t-19 -50t14 -89q4 -11 -16 -33t-52 -38t-47 -16q-14 0 -27 18q-13 20 -14 53
q0 111 110 208t214 97z" />
    <glyph glyph-name="braceleft" unicode="{" horiz-adv-x="768" 
d="M410 -395q-123 0 -213 126t-37 300q16 53 53 150t43 114q66 180 -78 233q-51 18 -51 54q0 10 15 20t34 14q190 25 236 183q10 33 27 191t32 208q35 123 164 207t250 84q43 0 43 -29q0 -41 -92 -65q-168 -55 -207 -224q-13 -47 -19 -165t-26 -184q-20 -68 -92 -141
t-175 -106q-18 -6 -2 -18q186 -129 91 -354q-6 -18 -54 -138t-55 -168q-6 -47 1 -68l11 -33q5 -12 19 -28q14 -14 19 -22t23 -21t24 -17q5 -4 42 -27q37 -22 37 -36q0 -15 -19 -27t-44 -13z" />
    <glyph glyph-name="bar" unicode="|" horiz-adv-x="573" 
d="M268 1536h156v-2048h-156v2048z" />
    <glyph glyph-name="braceright" unicode="}" horiz-adv-x="768" 
d="M422 1489q119 0 206 -125t36 -301q-14 -51 -39 -119t-35 -100q-30 -98 -12 -148t80 -71q62 -22 63 -54q0 -14 -15 -25t-34 -14q-121 -16 -168 -60t-72 -124q-8 -31 -33 -217t-39 -237q-34 -123 -164 -206t-251 -83q-43 0 -43 26q0 37 80 64q180 59 221 225q10 42 25 190
t32 205q55 190 268 258q18 4 0 19q-173 98 -94 305q12 39 55 147t46 159t-7 77t-20 44t-35 36t-39 26t-43 25q-37 16 -37 39q0 39 68 39z" />
    <glyph glyph-name="asciitilde" unicode="~" horiz-adv-x="1388" 
d="M922 289q-112 1 -256 117t-200 116t-104 -50t-94 -155q-12 -31 -40 -31t-52 26q-26 26 -20 40q43 127 131 218t207 92q73 0 175 -68q30 -20 87 -64q133 -102 184 -102q117 0 205 207q8 23 38 23t60 -31q18 -23 10 -39q-49 -135 -135 -217t-196 -82z" />
    <glyph glyph-name="uni00A0" unicode="&#xa0;" horiz-adv-x="428" 
 />
    <glyph glyph-name="exclamdown" unicode="&#xa1;" horiz-adv-x="587" 
d="M360 584q-55 0 -86 37q-32 37 -32 99t43 102t97 40t87 -37t32 -94t-43 -102t-98 -45zM96 -408q-51 0 -82 39q-29 43 4 156q35 100 121 315t113 267q29 63 59 63q18 0 27 -23q8 -24 4 -51q-41 -367 -92 -608q-25 -121 -68 -139q-35 -19 -86 -19z" />
    <glyph glyph-name="cent" unicode="&#xa2;" horiz-adv-x="987" 
d="M457 330l184 624q2 4 -2 8t-8 5q-125 -17 -207 -157t-84 -294q0 -72 29 -124t73 -70q13 -6 15 8zM707 1167q7 21 36 21t38 -12t7 -17l-26 -98q-4 -14 8 -14q122 -3 155 -50q11 -15 11 -43t-25 -78t-53 -53q-18 0 -37 39q-31 74 -78 92q-12 6 -16 -8l-184 -624
q-4 -12 8 -13q106 14 268 131q7 6 23 3t16 -15q0 -49 -29 -78q-123 -137 -317 -164q-8 0 -10 -8l-47 -149q-7 -29 -33 -29q-16 0 -36 11q-21 11 -15 24l43 147q2 8 -11 13q-125 20 -187 100t-62 201q0 206 143 368t360 180q11 1 15 13z" />
    <glyph glyph-name="sterling" unicode="&#xa3;" horiz-adv-x="987" 
d="M768 1237q80 0 133 -44t53 -102t-33 -100q-54 -65 -95 -44q-13 7 -9 25t4 38q6 61 -17 105q-24 44 -81 44q-178 0 -258 -467q-2 -8 3 -12t11 -2l232 8q4 0 10 -10t6 -27t-9 -32t-20 -19l-235 -16q-16 0 -21 -21q-53 -203 -144 -289q-32 -30 -30 -36t8 -9q82 -15 188 -77
t191 -62q86 0 117 37q56 67 27 209q-2 10 11 21t21 12q39 0 69 -31t30 -84q0 -104 -129 -206t-253 -103q-124 0 -259 92q-68 45 -109 65t-68 0q-26 -20 -84 -71t-77 -52q-47 0 -47 54q0 39 53 96t143 90q18 6 31 16q53 41 107 322q0 6 -4 13t-7 5l-143 -6q-29 0 2 72
q8 12 10 12l137 13q6 0 14 5q7 5 7 9q45 200 111 310q149 250 403 249z" />
    <glyph glyph-name="currency" unicode="&#xa4;" horiz-adv-x="987" 
d="M535 860q-96 0 -165 -70t-69 -178q0 -106 71 -174t169 -68t169 70q70 68 70 170t-74 176q-75 74 -171 74zM903 616q0 -113 -63 -196q-8 -10 -4 -14l110 -121q23 -27 -26 -74q-12 -15 -30 -21t-30 3l-125 114q-6 6 -20 -2q-100 -59 -184 -59t-171 51q-8 4 -24 -2
l-113 -109q-14 -18 -63 19q-38 38 -23 76l101 104q6 12 0 21q-127 199 0 397q2 2 3 11t-3 13l-107 123q-16 18 29 72q45 41 69 20l105 -108q2 -4 14 -7t14 1q82 49 180 49t187 -53q12 -6 19 2l104 110q24 23 68 -17t26 -65l-102 -112q-6 -10 -2 -23q61 -90 61 -203z" />
    <glyph glyph-name="yen" unicode="&#xa5;" horiz-adv-x="987" 
d="M1192 1189q0 -30 -62 -48t-107 -47q-43 -28 -121 -110t-269 -314v-11l198 -2q31 0 5 -63q0 -2 -8 -7t-13 -5l-215 -2q-10 0 -16 -15l-35 -119q0 -16 12 -16l219 2q12 0 12 -21t-14 -42q-6 -12 -16 -13h-221q-16 0 -21 -18q-17 -60 -26 -103t-14 -63t-2 -28q3 -7 6 -21
q2 -15 10 -19t21 -14t63 -21t51 -40q2 -15 -21 -25t-51 -10l-235 6l-172 -6q-25 0 -48 10t-22 23q0 35 75 49t101 40t44 95q19 69 40 129q4 12 -10 12h-185q-14 0 -14 15q0 63 39 63l180 4q14 0 19 12l37 117q0 14 -9 15l-194 -3q-16 0 -17 19q-2 6 3 26q9 34 38 33l179 2
q10 0 10 15q-31 164 -99 374q-27 80 -104 101q-51 12 -51 43t63 31l162 -7q39 0 172 7q57 0 57 -33q0 -12 -17 -28t-40 -17q-39 -11 -50 -23t-4 -62t37 -167q28 -117 32 -135t12 -21q8 -2 12 8q174 209 268 342q16 12 10 33q-6 20 -48 30t-46 38q0 16 22 25t46 10l147 -7
l140 7q55 0 55 -30z" />
    <glyph glyph-name="brokenbar" unicode="&#xa6;" horiz-adv-x="573" 
d="M268 1382h156v-716h-156v716zM268 -358v716h156v-716h-156z" />
    <glyph glyph-name="section" unicode="&#xa7;" horiz-adv-x="1015" 
d="M324 657q0 -109 128 -340t132 -380q0 -14 18 0q219 237 -14 649q-139 233 -152 323q-4 12 -14 2q-98 -94 -98 -254zM692 1171q-68 1 -101 -35q-32 -36 -32 -84q1 -48 27 -101t44 -85t27 -49q9 -16 29 -50t27 -42q141 -229 141 -371q0 -223 -184 -463q-94 -121 -226 -203
t-272 -81q-86 0 -124 32q-38 33 -38 69t72 104q25 25 39 12q4 -4 40 -29t72 -45t93 -20t94 38t37 104t-127 300q-145 260 -146 391q-2 229 240 461q14 39 54 93t93 91q125 86 256 82q76 0 115 -39q23 -20 21 -39q-6 -18 -32 -49q-58 -70 -91 -47q-80 55 -148 55z" />
    <glyph glyph-name="dieresis" unicode="&#xa8;" 
d="M801 1257q37 -1 57 -29q40 -57 4 -117q-16 -30 -34 -46t-53 -16q-37 -1 -63 23t-26 60t17 66q32 59 98 59zM444 1257q39 0 59 -28q19 -29 19 -58q0 -72 -43 -100q-65 -48 -119 1q-24 24 -24 78t43 85q26 22 65 22z" />
    <glyph glyph-name="copyright" unicode="&#xa9;" horiz-adv-x="1554" 
d="M874 1001q76 0 104 -6t71 -17t59 -15q18 -9 21 -45t3 -93t-30 -57q-20 0 -40 49t-66 83q-48 34 -109 34q-111 0 -177 -79t-67 -198q0 -165 76 -241t183 -76t180 125q21 35 38 35q16 0 22 -16t5 -34q-2 -20 -33 -104q-4 -12 -22 -28q-61 -55 -193 -56q-133 0 -219 38
q-223 99 -223 333q1 162 125 265t292 103zM830 1217q-242 0 -406 -170t-164 -419t166 -422t407 -173t403 171t163 422q0 251 -164 421t-405 170zM833 1296q289 0 480 -196q190 -197 190 -473q-1 -276 -193 -475t-484 -199q-292 -1 -480 193t-188 477t193 478t482 195z" />
    <glyph glyph-name="ordfeminine" unicode="&#xaa;" horiz-adv-x="755" 
d="M573 999q-74 0 -137 -69q-133 -143 -133 -252q0 -37 45 -37q63 0 162 113q47 53 67 89q19 36 48 109q0 31 -7 31q-20 16 -45 16zM133 596q0 80 78 190q51 78 138 156t155 115t100 37t54 -8t26 -1q24 63 45 64q33 0 55 -14q31 -16 27 -35q-2 -4 -59 -190t-74 -242
q-6 -31 14 -31q33 0 105 72q33 41 48 20q5 -9 5 -27t-28 -62t-96 -89t-134 -45q-20 0 -46 17t-15 53q12 38 23 70q25 74 3 59q-213 -199 -334 -199q-35 0 -63 26t-27 64z" />
    <glyph glyph-name="guillemotleft" unicode="&#xab;" horiz-adv-x="1382" 
d="M1065 55q-21 0 -57 31q-175 164 -349 291q-14 12 -8 34t25 29q326 158 545 303q49 33 63 2q14 -35 -18 -67q-98 -98 -375 -264q-21 -16 -6 -35q16 -19 96 -109t109 -149q12 -18 4 -42t-29 -24zM582 55q-18 0 -45 27q-191 174 -359 295q-12 13 -5 33t24 28
q362 178 544 303q21 13 41 15t25 -13q14 -33 -21 -71q-96 -98 -374 -262q-6 -4 -10 -14t4 -22q9 -11 93 -107t111 -152q6 -14 -2 -37t-26 -23z" />
    <glyph glyph-name="logicalnot" unicode="&#xac;" horiz-adv-x="1388" 
d="M1125 4q-36 0 -35 35l-9 471q0 16 -11 30t-23 13l-859 8q-46 0 -16 96q10 33 18 33l1012 2q10 0 22 -24t11 -31v-584q0 -25 -37 -37t-73 -12z" />
    <glyph glyph-name="uni00AD" unicode="&#xad;" horiz-adv-x="659" 
d="M598 490q0 -24 -25 -70q-20 -27 -32 -27l-195 -10q-156 -8 -213 -10q-14 0 -25 13q-30 36 15 103q11 17 29 23q225 31 417 37q9 1 19 -17t10 -42z" />
    <glyph glyph-name="registered" unicode="&#xae;" horiz-adv-x="602" 
d="M281 1040q0 -94 60 -158q59 -64 151 -65t151 63t59 158t-61 157t-150 64t-149 -61q-60 -64 -61 -158zM492 1303q114 0 190 -76q76 -77 76 -183t-75 -190t-191 -84t-192 78t-75 187q0 109 77 189t190 79zM467 1135v-66q0 -16 18 -16q45 0 45 45q0 18 -13 31t-31 13t-19 -7
zM403 981v117q0 31 -7 33q-37 10 -38 16q0 16 19 18q74 6 121 6q102 0 102 -67q0 -41 -41 -53q-4 -4 -2 -11q47 -84 67 -93t21 -17q0 -16 -41 -16t-67 40l-31 52q-16 20 -28 20t-11 -8v-29q0 -27 7 -31t13 -6q5 -2 15 -5t10 -9q0 -16 -20 -16l-50 2l-63 -2q-17 0 -17 9
t16 15t20 12t5 23z" />
    <glyph glyph-name="macron" unicode="&#xaf;" 
d="M414 1059q-4 1 -14 15t-9 38t19 60q18 34 32 34h377q6 0 12 -12q20 -39 -20 -104q-14 -20 -27 -21q-287 -10 -370 -10z" />
    <glyph glyph-name="degree" unicode="&#xb0;" horiz-adv-x="675" 
d="M623 1011q0 69 -40 111q-39 42 -101 43q-62 0 -100 -44q-38 -45 -38 -111t44 -111t102 -45t95 44q38 44 38 113zM481 760q-104 0 -179 68t-75 176q0 110 80 183q79 73 183 73t178 -71t74 -181t-78 -180q-79 -68 -183 -68z" />
    <glyph glyph-name="plusminus" unicode="&#xb1;" horiz-adv-x="1388" 
d="M1255 -33q23 0 23 -37q0 -36 -12 -66t-25 -30h-1046q-12 0 -21 14q-8 14 -8 35t8 51t14 31zM797 547v-438q0 -15 -39 -25t-71 -10t-32 22l-4 447q0 18 -6 23t-24 5l-424 -2q-31 0 -31 33t11 67t20 33h434q6 0 13 8t7 15l-2 438q0 7 39 19q38 12 58 12q48 0 51 -31
l-2 -438q0 -23 20 -23h424q39 0 39 -32q0 -39 -12 -67t-27 -28l-422 -4q-20 0 -20 -24z" />
    <glyph glyph-name="two.superior" unicode="&#xb2;" horiz-adv-x="696" 
d="M595 1538q87 0 144 -54t58 -120q0 -109 -129 -211q-31 -25 -112 -87t-134 -103q-20 -20 0 -21q152 0 217 10q29 4 75 48t57 44t17 -13t4 -35t-37 -78q-35 -54 -53 -72t-50 -20t-128 1q-94 2 -106 2h-168q-31 0 -39 27q-4 18 18 41q39 35 133 109t134 106q143 129 143 219
q0 47 -28 74t-72 27q-68 0 -166 -91q-25 -25 -39 -15q-33 25 8 75q34 49 100 93t153 44z" />
    <glyph glyph-name="three.superior" unicode="&#xb3;" horiz-adv-x="696" 
d="M590 1538q88 0 133 -44t45 -93t-26 -83t-52 -49t-56 -29t-29 -19t23 -13q106 -40 130 -96q12 -29 12 -68q0 -78 -71 -144t-163 -98t-168 -32q-78 0 -118 29t-39 72q0 43 22 51q25 6 41 -4q177 -113 282 -19q48 43 48 111t-33 95q-33 28 -77 28q-44 -1 -71 -9t-42 1
q-14 9 -14 23q-1 25 61 54q62 28 82 41q109 59 108 135q0 31 -22 54q-23 23 -64 22q-70 0 -135 -92q-4 -8 -18 -8t-21 4q-6 4 -12 26t-6 35q0 14 22 37q99 82 228 82z" />
    <glyph glyph-name="acute" unicode="&#xb4;" 
d="M704 1329q20 0 44 -15q23 -15 32 -32q29 -45 -18 -100q-59 -63 -217 -203q-39 -35 -64 -35q-20 0 -25 28t13 54q109 172 176 258q39 45 59 45z" />
    <glyph glyph-name="mu" unicode="&#xb5;" horiz-adv-x="1038" 
d="M390 870q46 0 89 -39q4 -3 7 -25t-2 -46t-64 -148q-59 -122 -96 -204q-36 -82 -44 -94t-17 -44q-9 -34 -7 -52t26 -40t46 -22q61 0 162 89q143 126 204 267q63 199 79 254q15 55 37 81q21 25 32 25q43 0 79 -18t44 -33q34 -44 -99 -263q-70 -116 -114 -177t-44 -119
t26 -80q26 -23 57 -22q78 0 161 88q10 10 21 -6q10 -17 10 -25q-4 -51 -33 -96q-37 -68 -98 -109q-62 -41 -118 -41t-87 37q-31 36 -31 90t15 107q0 21 -17 6q-193 -229 -301 -229q-53 0 -77 46t-23 70q-9 18 -18 -4q-29 -66 -54 -167t-24 -142q0 -90 73 -176q2 -3 2 -17
q1 -36 -61 -68t-85 -32q-22 0 -40 20q-56 65 -10 246q14 53 84 284t76 253q100 412 135 528q6 27 31 39q22 8 68 8z" />
    <glyph glyph-name="paragraph" unicode="&#xb6;" horiz-adv-x="1249" 
d="M950 1106q-84 0 -125 -88q-51 -112 -106 -312t-72 -323q-6 -61 16 -103q21 -42 63 -42t58 36l211 801q2 10 -15 21q-18 10 -30 10zM1311 1206q47 0 43 -45q-12 -57 -51 -57l-146 2q-41 0 -61 -74q-280 -1092 -302 -1176q-46 -172 -131 -307q-101 -157 -298 -157
q-113 0 -191 66t-82 174t54 172t141 65q51 0 89 -34t39 -83t-32 -85t-59 -36q-26 -1 -48 15t-29 16t-15 -4q-22 -11 -22 -50q1 -40 50 -78t119 -38q119 0 185 94t128 308q58 228 59 245q1 15 -15 13t-83 -2q-168 0 -305 131t-139 319q-2 291 221 465q166 123 430 131
q180 10 451 10z" />
    <glyph glyph-name="periodcentered" unicode="&#xb7;" horiz-adv-x="460" 
d="M254 537q55 0 87 -37q32 -38 32 -98t-44 -101q-45 -41 -97 -41t-85 37t-33 93t43 102q42 46 97 45z" />
    <glyph glyph-name="cedilla" unicode="&#xb8;" 
d="M304 -116q-9 -18 -9 -37q1 -19 23 -55t26 -44q27 -39 27 -89t-74 -101q-74 -52 -126 -52t-89 31t-37 74q0 15 12 33q11 18 23 18t35 -16q47 -47 85 -47t38 30q0 18 -24 52t-34 49q-49 84 -8 139q20 27 84 75t113 76h80q-4 -2 -35 -26t-44 -35q-13 -12 -35 -34
q-22 -23 -31 -41z" />
    <glyph glyph-name="one.superior" unicode="&#xb9;" horiz-adv-x="696" 
d="M252 852q0 29 54 37t80 30t50 88t99 347q6 23 -12 38t-64 21q-45 6 -45 31t55 37q18 4 55 10q106 17 166 45q12 4 22 -5t6 -30q-5 -21 -52 -177t-88 -333q-12 -57 1 -75t63 -26q50 -9 50 -38t-53 -29l-188 4l-142 -4q-57 0 -57 29z" />
    <glyph glyph-name="ordmasculine" unicode="&#xba;" horiz-adv-x="663" 
d="M518 1044q-63 0 -135 -104q-37 -51 -61 -133t-25 -130q0 -49 19 -69t44 -20q48 0 104 68t88 160q32 90 32 132t-18 69t-48 27zM523 1122q91 0 139 -63t49 -158q-1 -95 -57 -197t-138 -150t-161 -48t-138 56t-59 152t56 197q56 103 137 157t172 54z" />
    <glyph glyph-name="guillemotright" unicode="&#xbb;" horiz-adv-x="1382" 
d="M316 768q19 0 57 -31q143 -135 348 -291q16 -12 9 -34t-25 -29q-319 -156 -545 -303q-16 -12 -36 -14t-28 12q-14 35 19 67q84 86 374 265q22 16 3 37q-163 180 -201 255q-10 18 -2 42t27 24zM796 768q16 0 50 -27q196 -182 356 -295q12 -14 5 -33t-23 -28
q-362 -178 -545 -303q-19 -14 -39 -15t-27 13q-14 33 21 72q92 94 375 262q22 15 7 31q-15 17 -52 61t-62 74q-26 30 -52 66t-36 56t-2 44q8 22 24 22z" />
    <glyph glyph-name="onequarter" unicode="&#xbc;" horiz-adv-x="1544" 
d="M1178 301q72 242 63 244q-4 0 -10 -6q-156 -133 -248 -240q-6 -8 -3 -14t9 -6l170 6q17 0 19 16zM1389 711q8 1 15 -11t5 -24q-55 -219 -88 -371q-6 -14 10 -14l94 6q13 1 13 -27t-14 -44t-22 -15q-9 0 -89 -6q-14 0 -17 -12q-12 -41 -45 -185q-7 -25 -35 -34t-92 -9
q-8 0 -17 11t-7 24q14 66 49 188q0 12 -6 13l-283 -6q-12 0 -19 9q-18 23 31 77q166 172 278 272t126 109q68 49 113 49zM1329 1280q25 0 53 -35q6 -14 -4 -24q-47 -59 -981 -1260q-27 -27 -37 -27q-31 0 -49 37q-2 8 8 25q823 1055 971 1247q29 37 39 37zM160 545
q0 29 54 37t80 30t50 88t98 347q10 37 -39 53q-13 4 -47 8t-34 29t55 37q18 4 90 16t131 39q12 4 22 -5t6 -30q-4 -20 -52 -176q-114 -372 -88 -409q14 -17 64 -26t50 -38t-53 -29l-189 4l-141 -4q-57 0 -57 29z" />
    <glyph glyph-name="onehalf" unicode="&#xbd;" horiz-adv-x="1599" 
d="M905 2q-31 0 -37 22t25 52q31 28 125 102t133 107q143 129 143 219q0 47 -27 74q-28 27 -73 26q-68 0 -166 -90q-24 -24 -38 -14t-15 28q1 18 29 56t94 82t152 45q86 -1 144 -55t58 -119q0 -109 -129 -211q-31 -25 -112 -87t-134 -104q-20 -20 0 -20q152 0 217 10
q30 4 76 48t56 44t18 -13q6 -13 3 -36t-37 -78q-34 -54 -52 -72t-41 -18l-244 2h-168zM1296 1280q25 0 54 -35q6 -14 -4 -24q-47 -59 -981 -1260q-27 -27 -37 -27q-31 0 -49 37q-2 8 8 25q823 1055 970 1247q29 37 39 37zM160 545q0 29 54 37t80 30t50 88t98 347
q10 37 -39 53q-13 4 -47 8t-34 29t55 37q18 4 90 16t131 39q12 4 22 -5t6 -30q-4 -20 -52 -176q-114 -372 -88 -409q14 -17 64 -26t50 -38t-53 -29l-189 4l-141 -4q-57 0 -57 29z" />
    <glyph glyph-name="threequarters" unicode="&#xbe;" horiz-adv-x="1511" 
d="M1145 301q72 242 63 244q-4 0 -10 -6q-156 -133 -248 -240q-6 -8 -3 -14t9 -6l170 6q17 0 19 16zM1356 711q8 1 15 -11t5 -24q-55 -219 -88 -371q-6 -14 10 -14l95 6q12 1 12 -27q1 -28 -13 -44t-23 -15q-9 0 -89 -6q-14 0 -16 -12q-12 -41 -45 -185q-6 -25 -35 -34
t-92 -9q-8 0 -18 11q-9 11 -7 24q14 66 49 188q0 12 -6 13l-283 -6q-12 0 -19 9q-18 23 32 77q166 172 278 272t125 109q68 49 113 49zM1317 1280q25 0 53 -35q6 -14 -4 -24q-47 -59 -981 -1260q-27 -27 -37 -27q-31 0 -49 37q-2 8 8 25q823 1055 971 1247q29 37 39 37z
M498 1231q88 0 133 -44t45 -93t-26 -83t-52 -49t-82 -44q-4 0 -3 -4t23 -13q105 -37 130 -96q12 -29 12 -68q0 -77 -71 -143t-163 -98t-169 -33q-77 0 -117 29q-40 30 -39 72q0 42 22 50q25 6 41 -4q96 -61 165 -61t117 43q48 42 48 110q0 160 -195 113q-14 -6 -28 3
q-36 23 10 56q16 10 57 30t62 32q109 59 108 135q0 31 -22 53t-64 23q-70 0 -135 -92q-4 -8 -18 -8t-21 4q-6 3 -12 25t-6 36t22 37q99 82 228 82z" />
    <glyph glyph-name="questiondown" unicode="&#xbf;" horiz-adv-x="796" 
d="M543 862q55 0 86 -37t31 -95t-43 -102q-42 -44 -97 -44t-87 37t-32 99q-1 62 43 102t99 40zM312 -410q-98 0 -206 82q-106 82 -106 203q0 59 39 109t88 75q49 26 117 55q69 29 106 46q88 39 88 108q0 41 -34 92q-34 50 -31 64q2 14 14 23t27 8q55 -8 123 -73
q67 -65 67 -161t-76 -162q-51 -43 -258 -129q-129 -55 -129 -118q0 -43 27 -73q26 -30 90 -30t121 70q29 39 59 39t59 -29q30 -29 29 -65q2 -62 -57 -98t-157 -36z" />
    <glyph glyph-name="Agrave" unicode="&#xc0;" horiz-adv-x="1308" 
d="M854 1580q0 26 41 60t73 33q32 0 58 -33t170 -221q14 -18 18 -42t-6 -36q-23 -20 -80 15q-123 72 -237 164q-37 34 -37 60zM614 549q125 0 244 10q16 0 29 35q20 80 55 362q6 51 -8 52q-4 0 -37 -33q-41 -45 -161 -209t-133 -190t11 -27zM-102 23q0 33 72 47
q131 26 193 88q22 23 77 92q549 692 675 893q7 15 27 31t34 18t52 24t58 44q20 24 47 24q37 0 24 -86q-88 -512 -125 -979q-6 -77 11 -101t79 -43t64 -50q0 -11 -18 -23t-40 -12l-237 10l-186 -6q-25 0 -43 12t-19 25q-1 31 61 43t84 29t33 67q33 145 41 258q0 29 -18 29
q-205 0 -301 -15q-23 0 -47 -22t-81 -107q-59 -84 -97 -148t40 -89q55 -18 56 -43q0 -15 -18 -27t-46 -12l-166 6l-227 -12q-25 0 -42 10t-17 25z" />
    <glyph glyph-name="Aacute" unicode="&#xc1;" horiz-adv-x="1308" 
d="M1444 1550q0 -32 -55 -65q-80 -45 -299 -139q-51 -18 -78 4q-10 8 -2 30t30 40q22 20 132 106t147 108t65 2q10 -4 35 -37t25 -49zM614 549q125 0 244 10q16 0 29 35q20 80 55 362q6 51 -8 52q-4 0 -37 -33q-41 -45 -161 -209t-133 -190t11 -27zM-102 23q0 33 72 47
q131 26 193 88q22 23 77 92q549 692 675 893q7 15 27 31t34 18t52 24t58 44q20 24 47 24q37 0 24 -86q-88 -512 -125 -979q-6 -77 11 -101t79 -43t64 -50q0 -11 -18 -23t-40 -12l-237 10l-186 -6q-25 0 -43 12t-19 25q-1 31 61 43t84 29t33 67q33 145 41 258q0 29 -18 29
q-205 0 -301 -15q-23 0 -47 -22t-81 -107q-59 -84 -97 -148t40 -89q55 -18 56 -43q0 -15 -18 -27t-46 -12l-166 6l-227 -12q-25 0 -42 10t-17 25z" />
    <glyph glyph-name="Acircumflex" unicode="&#xc2;" horiz-adv-x="1308" 
d="M1178 1597q24 0 51 -47q6 -10 131 -176q16 -25 11 -44t-25 -19t-56 17t-86 52q-51 35 -65 42t-25 1q-131 -61 -213 -90t-86 4q-8 27 35 60q204 131 254 165t74 35zM614 549q125 0 244 10q16 0 29 35q20 80 55 362q6 51 -8 52q-4 0 -37 -33q-41 -45 -161 -209t-133 -190
t11 -27zM-102 23q0 33 72 47q131 26 193 88q22 23 77 92q549 692 675 893q7 15 27 31t34 18t52 24t58 44q20 24 47 24q37 0 24 -86q-88 -512 -125 -979q-6 -77 11 -101t79 -43t64 -50q0 -11 -18 -23t-40 -12l-237 10l-186 -6q-25 0 -43 12t-19 25q-1 31 61 43t84 29t33 67
q33 145 41 258q0 29 -18 29q-205 0 -301 -15q-23 0 -47 -22t-81 -107q-59 -84 -97 -148t40 -89q55 -18 56 -43q0 -15 -18 -27t-46 -12l-166 6l-227 -12q-25 0 -42 10t-17 25z" />
    <glyph glyph-name="Atilde" unicode="&#xc3;" horiz-adv-x="1308" 
d="M1360 1595q8 0 31 -22t7 -38q-18 -17 -58 -71t-56 -69q-23 -19 -46 -19t-102 8t-122 6q-44 -2 -66 -22t-37 -39q-14 -41 -56 -8q-17 14 -17 27q0 14 39 72t59 79q32 23 55 23l213 -13q50 -1 68 11t50 44q30 32 38 31zM614 549q125 0 244 10q16 0 29 35q20 80 55 362
q6 51 -8 52q-4 0 -37 -33q-41 -45 -161 -209t-133 -190t11 -27zM-102 23q0 33 72 47q131 26 193 88q22 23 77 92q549 692 675 893q7 15 27 31t34 18t52 24t58 44q20 24 47 24q37 0 24 -86q-88 -512 -125 -979q-6 -77 11 -101t79 -43t64 -50q0 -11 -18 -23t-40 -12l-237 10
l-186 -6q-25 0 -43 12t-19 25q-1 31 61 43t84 29t33 67q33 145 41 258q0 29 -18 29q-205 0 -301 -15q-23 0 -47 -22t-81 -107q-59 -84 -97 -148t40 -89q55 -18 56 -43q0 -15 -18 -27t-46 -12l-166 6l-227 -12q-25 0 -42 10t-17 25z" />
    <glyph glyph-name="Adieresis" unicode="&#xc4;" horiz-adv-x="1308" 
d="M1309 1552q89 0 92 -98q0 -59 -38 -91t-74 -32q-35 0 -63 27t-28 77q0 49 35 83t76 34zM930 1552q89 0 92 -98q0 -59 -37 -91t-74 -32t-65 28t-27 76q0 49 35 83t76 34zM614 549q125 0 244 10q16 0 29 35q20 80 55 362q6 51 -8 52q-4 0 -37 -33q-41 -45 -161 -209
t-133 -190t11 -27zM-102 23q0 33 72 47q131 26 193 88q22 23 77 92q549 692 675 893q7 15 27 31t34 18t52 24t58 44q20 24 47 24q37 0 24 -86q-88 -512 -125 -979q-6 -77 11 -101t79 -43t64 -50q0 -11 -18 -23t-40 -12l-237 10l-186 -6q-25 0 -43 12t-19 25q-1 31 61 43
t84 29t33 67q33 145 41 258q0 29 -18 29q-205 0 -301 -15q-23 0 -47 -22t-81 -107q-59 -84 -97 -148t40 -89q55 -18 56 -43q0 -15 -18 -27t-46 -12l-166 6l-227 -12q-25 0 -42 10t-17 25z" />
    <glyph glyph-name="Aring" unicode="&#xc5;" horiz-adv-x="1308" 
d="M1149 1593q-37 -1 -64 -27t-33 -71t13 -75q20 -30 57 -30t65 26t34 71q5 45 -15 75t-57 31zM1157 1669q78 0 122 -55t34 -127q-11 -72 -65 -122t-133 -50t-122 55t-32 127q10 72 64 122t132 50zM614 549q125 0 244 10q16 0 29 35q20 80 55 362q6 51 -8 52q-4 0 -37 -33
q-41 -45 -161 -209t-133 -190t11 -27zM-102 23q0 33 72 47q131 26 193 88q22 23 77 92q549 692 675 893q7 15 27 31t34 18t52 24t58 44q20 24 47 24q37 0 24 -86q-88 -512 -125 -979q-6 -77 11 -101t79 -43t64 -50q0 -11 -18 -23t-40 -12l-237 10l-186 -6q-25 0 -43 12
t-19 25q-1 31 61 43t84 29t33 67q33 145 41 258q0 29 -18 29q-205 0 -301 -15q-23 0 -47 -22t-81 -107q-59 -84 -97 -148t40 -89q55 -18 56 -43q0 -15 -18 -27t-46 -12l-166 6l-227 -12q-25 0 -42 10t-17 25z" />
    <glyph glyph-name="AE" unicode="&#xc6;" horiz-adv-x="1933" 
d="M-88 24q0 34 78 49t138 49q58 34 122 106t402 469q337 396 354 415q29 33 -19 41q-1 0 -23 3t-66 8t-69 22q-24 16 -24 31t23 26q24 10 53 10l372 -6h342l328 10q11 -1 21 -25t-1 -56q-35 -100 -48 -155t-13 -56q-10 -37 -35 -37q-14 0 -26 15t-13 36q-4 92 -16 123
t-48 44t-170 13t-157 -4q-17 -4 -37 -52t-110 -419q-6 -27 8 -27l221 2q39 -1 61 15t58 66t57 50q20 0 28 -20q7 -22 3 -43q-64 -205 -76 -259t-24 -68t-26 -13t-26 19t-16 58t-16 64t-60 25q-48 2 -209 -4q-14 0 -22 -27q-27 -86 -68 -327q-12 -77 29 -89t172 -12t207 18
t123 66q47 49 100 115q23 27 37 26q8 -1 19 -23t12 -30q0 -57 -58 -149q-58 -93 -87 -109q-28 -16 -54 -16q-27 0 -249 6t-408 2l-244 -6q-27 0 -44 12t-18 27q0 35 64 45q114 25 144 42t52 94t76 302q6 35 -8 35q-209 -8 -346 -10q-30 -10 -47 -27q-219 -246 -283 -362
q-31 -51 45 -76q41 -14 45 -43q2 -15 -17 -27t-40 -12l-235 6l-179 -10q-59 0 -59 34zM782 647l267 8q14 0 28 29q7 18 55 204t56 220q4 35 -14 31q-18 -6 -50 -37q-63 -68 -183 -212t-175 -218q-8 -10 -3 -18t19 -7z" />
    <glyph glyph-name="Ccedilla" unicode="&#xc7;" horiz-adv-x="1333" 
d="M971 1284q127 0 243 -54q29 -13 33 -16q47 -12 84 13t59 4t6 -51q-15 -30 -46 -118q-31 -87 -36 -115q-6 -28 -22 -47t-32 -19q-31 0 -35 65q7 169 -147 228q-71 27 -124 26q-217 0 -383 -188q-82 -96 -133 -246t-51 -274q0 -51 15 -128t40 -122q92 -178 299 -179
q123 2 240 111q117 110 135 126t34 16q15 0 22 -19q6 -18 0 -53t-128 -238q-18 -31 -43 -16q-53 41 -98 22q-88 -33 -182 -43q-82 -74 -82 -119q1 -22 25 -56t40 -62t15 -76q0 -49 -75 -99q-75 -51 -127 -51t-90 31t-38 74q-2 19 10 35q13 16 27 16t31 -16q53 -49 89 -49
t36 32q0 23 -26 56t-34 45q-47 84 0 143q23 33 103 94q-219 16 -340 160q-57 68 -88 167t-31 198q0 198 99 378t263 287q191 127 443 127z" />
    <glyph glyph-name="Egrave" unicode="&#xc8;" horiz-adv-x="1200" 
d="M557 1565q0 27 41 61t73 33q31 0 57 -33t171 -221q15 -18 19 -42t-7 -36q-23 -20 -80 14q-123 72 -237 164q-37 33 -37 60zM870 1247q158 0 326 13q12 0 18 -20t0 -36q-31 -76 -71 -221q-7 -25 -21 -38t-28 -13q-31 0 -31 53q-2 94 -14 128t-41 42q-54 10 -152 10
t-164 -10q-18 -4 -39 -49q-41 -96 -110 -377q-2 -4 2 -13t8 -9h225q39 0 55 9q15 9 55 63q40 55 56 55t34 -20t11 -34q-41 -86 -96 -299q-5 -35 -25 -35t-34 16t-18 57q-4 39 -18 59q-22 34 -139 34q-53 0 -133 -12q-17 -9 -29 -40q-11 -32 -45 -172t-41 -184t0 -70t19 -30
q60 -18 196 -18t198 18t114 70q49 45 100 117q18 29 43 29t24 -56q-1 -55 -57 -150q-56 -96 -84 -112t-71 -16t-241 8t-402 6l-240 -10q-66 0 -65 35q0 35 63 45q104 14 133 32t49 78q102 309 246 875q14 61 -3 86t-89 38t-72 38q0 14 18 27t52 13l367 -10h161z" />
    <glyph glyph-name="Eacute" unicode="&#xc9;" horiz-adv-x="1200" 
d="M1155 1556q1 -34 -67 -72t-287 -132q-51 -18 -78 4q-10 8 -2 30q7 22 29 40q22 20 133 106t147 108t66 2q10 -4 34 -37t25 -49zM870 1247q158 0 326 13q12 0 18 -20t0 -36q-31 -76 -71 -221q-7 -25 -21 -38t-28 -13q-31 0 -31 53q-2 94 -14 128t-41 42q-54 10 -152 10
t-164 -10q-18 -4 -39 -49q-41 -96 -110 -377q-2 -4 2 -13t8 -9h225q39 0 55 9q15 9 55 63q40 55 56 55t34 -20t11 -34q-41 -86 -96 -299q-5 -35 -25 -35t-34 16t-18 57q-4 39 -18 59q-22 34 -139 34q-53 0 -133 -12q-17 -9 -29 -40q-11 -32 -45 -172t-41 -184t0 -70t19 -30
q60 -18 196 -18t198 18t114 70q49 45 100 117q18 29 43 29t24 -56q-1 -55 -57 -150q-56 -96 -84 -112t-71 -16t-241 8t-402 6l-240 -10q-66 0 -65 35q0 35 63 45q104 14 133 32t49 78q102 309 246 875q14 61 -3 86t-89 38t-72 38q0 14 18 27t52 13l367 -10h161z" />
    <glyph glyph-name="Ecircumflex" unicode="&#xca;" horiz-adv-x="1200" 
d="M898 1626q24 0 52 -47q6 -10 131 -176q15 -25 11 -44q-13 -55 -166 50q-74 51 -90 43q-132 -61 -214 -90t-85 4q-8 27 34 59q203 131 253 166t74 35zM870 1247q158 0 326 13q12 0 18 -20t0 -36q-31 -76 -71 -221q-7 -25 -21 -38t-28 -13q-31 0 -31 53q-2 94 -14 128
t-41 42q-54 10 -152 10t-164 -10q-18 -4 -39 -49q-41 -96 -110 -377q-2 -4 2 -13t8 -9h225q39 0 55 9q15 9 55 63q40 55 56 55t34 -20t11 -34q-41 -86 -96 -299q-5 -35 -25 -35t-34 16t-18 57q-4 39 -18 59q-22 34 -139 34q-53 0 -133 -12q-17 -9 -29 -40q-11 -32 -45 -172
t-41 -184t0 -70t19 -30q60 -18 196 -18t198 18t114 70q49 45 100 117q18 29 43 29t24 -56q-1 -55 -57 -150q-56 -96 -84 -112t-71 -16t-241 8t-402 6l-240 -10q-66 0 -65 35q0 35 63 45q104 14 133 32t49 78q102 309 246 875q14 61 -3 86t-89 38t-72 38q0 14 18 27t52 13
l367 -10h161z" />
    <glyph glyph-name="Edieresis" unicode="&#xcb;" horiz-adv-x="1200" 
d="M1032 1589q86 0 86 -110q0 -47 -38 -79t-74 -32t-63 27q-28 27 -28 77t35 83q35 34 82 34zM653 1589q86 0 86 -110q0 -47 -37 -79q-38 -32 -74 -32t-64 28t-28 76t35 82q35 35 82 35zM870 1247q158 0 326 13q12 0 18 -20t0 -36q-31 -76 -71 -221q-7 -25 -21 -38t-28 -13
q-31 0 -31 53q-2 94 -14 128t-41 42q-54 10 -152 10t-164 -10q-18 -4 -39 -49q-41 -96 -110 -377q-2 -4 2 -13t8 -9h225q39 0 55 9q15 9 55 63q40 55 56 55t34 -20t11 -34q-41 -86 -96 -299q-5 -35 -25 -35t-34 16t-18 57q-4 39 -18 59q-22 34 -139 34q-53 0 -133 -12
q-17 -9 -29 -40q-11 -32 -45 -172t-41 -184t0 -70t19 -30q60 -18 196 -18t198 18t114 70q49 45 100 117q18 29 43 29t24 -56q-1 -55 -57 -150q-56 -96 -84 -112t-71 -16t-241 8t-402 6l-240 -10q-66 0 -65 35q0 35 63 45q104 14 133 32t49 78q102 309 246 875q14 61 -3 86
t-89 38t-72 38q0 14 18 27t52 13l367 -10h161z" />
    <glyph glyph-name="Igrave" unicode="&#xcc;" horiz-adv-x="710" 
d="M309 1584q0 26 41 60t73 33q31 -1 57 -33t171 -221q15 -18 19 -42t-6 -35q-23 -20 -80 14q-123 72 -238 164q-37 34 -37 60zM-25 27q0 41 80 55q115 18 131 68q177 578 263 938q9 38 -5 56t-80 30q-66 13 -65 40q4 37 55 37l166 -4l285 10q25 0 38 -12t13 -28
q0 -25 -51 -35q-80 -12 -104 -30t-48 -87q-84 -233 -235 -797q-14 -59 -18 -94q-4 -34 12 -56q14 -22 33 -32t67 -24t47 -42q0 -35 -59 -34l-289 12l-164 -2q-72 0 -72 31z" />
    <glyph glyph-name="Iacute" unicode="&#xcd;" horiz-adv-x="710" 
d="M975 1556q0 -32 -55 -65q-80 -45 -299 -139q-51 -18 -78 4q-10 8 -2 30q7 22 29 40q22 20 132 106t148 108q37 22 65 2q10 -4 35 -37t25 -49zM-25 27q0 41 80 55q115 18 131 68q177 578 263 938q9 38 -5 56t-80 30q-66 13 -65 40q4 37 55 37l166 -4l285 10q25 0 38 -12
t13 -28q0 -25 -51 -35q-80 -12 -104 -30t-48 -87q-84 -233 -235 -797q-14 -59 -18 -94q-4 -34 12 -56q14 -22 33 -32t67 -24t47 -42q0 -35 -59 -34l-289 12l-164 -2q-72 0 -72 31z" />
    <glyph glyph-name="Icircumflex" unicode="&#xce;" horiz-adv-x="710" 
d="M696 1624q24 0 52 -47q6 -10 131 -176q16 -25 11 -44q-14 -55 -167 50q-51 35 -65 42t-25 1q-131 -61 -213 -90t-86 4q-8 27 35 59q203 131 235 156q68 45 92 45zM-25 27q0 41 80 55q115 18 131 68q177 578 263 938q9 38 -5 56t-80 30q-66 13 -65 40q4 37 55 37l166 -4
l285 10q25 0 38 -12t13 -28q0 -25 -51 -35q-80 -12 -104 -30t-48 -87q-84 -233 -235 -797q-14 -59 -18 -94q-4 -34 12 -56q14 -22 33 -32t67 -24t47 -42q0 -35 -59 -34l-289 12l-164 -2q-72 0 -72 31z" />
    <glyph glyph-name="Idieresis" unicode="&#xcf;" horiz-adv-x="710" 
d="M827 1593q86 0 86 -110q1 -47 -37 -79t-74 -32t-64 27t-28 77t35 84q35 33 82 33zM442 1593q90 0 93 -98q0 -59 -37 -91t-74 -32t-65 28q-27 28 -27 76t34 82t76 35zM-25 27q0 41 80 55q115 18 131 68q177 578 263 938q9 38 -5 56t-80 30q-66 13 -65 40q4 37 55 37
l166 -4l285 10q25 0 38 -12t13 -28q0 -25 -51 -35q-80 -12 -104 -30t-48 -87q-84 -233 -235 -797q-14 -59 -18 -94q-4 -34 12 -56q14 -22 33 -32t67 -24t47 -42q0 -35 -59 -34l-289 12l-164 -2q-72 0 -72 31z" />
    <glyph glyph-name="Eth" unicode="&#xd0;" horiz-adv-x="1441" 
d="M344 1247l420 17q315 0 483 -156q152 -143 152 -408q-1 -127 -59 -259q-58 -131 -181 -245q-227 -210 -655 -210q-76 0 -195 7t-131 7l-155 -8q-29 0 -49 11q-19 11 -19 26q0 43 90 52t120 37t66 156q4 16 34 127t50 189q6 20 -16 20l-162 -4q-3 0 -8 12q-4 12 -4 30
t13 36t20 18l168 7q16 0 22 18q87 328 86 353q-2 26 -1 34t-6 16t-9 12q-5 8 -28 12q-135 27 -132 52q0 41 86 41zM752 1180q-68 0 -93 -43q-31 -63 -118 -406q-8 -20 14 -20l291 4q6 1 13 -13t7 -32t-10 -31q-10 -14 -16 -14l-312 -11q-14 0 -22 -18q-60 -238 -76 -308
q-16 -69 -18 -75q-18 -51 16 -86q43 -55 127 -55q178 0 328 88q131 82 218 236t87 304q0 246 -139 359q-139 121 -297 121z" />
    <glyph glyph-name="Ntilde" unicode="&#xd1;" horiz-adv-x="1443" 
d="M1090 1395q-24 0 -102 8q-80 8 -122 5q-42 -2 -64 -22t-38 -38q-8 -23 -24 -23t-32 14q-18 13 -18 27t39 72t59 80q33 22 56 22l213 -12q49 0 67 11t50 43t39 32t30 -22t7 -39q-17 -17 -57 -70t-56 -70q-23 -18 -47 -18zM203 1208q0 18 17 34t50 15l279 -10q8 0 26 -15
t29 -36q369 -729 455 -862q14 -14 20 -2q31 96 92 326t77 327t-8 133q-22 36 -130 62q-45 12 -45 37q0 16 20 29t54 14l243 -13l154 4q57 0 57 -41q-1 -27 -69 -41t-102 -50t-64 -144q-133 -481 -166 -615t-33 -188q-1 -53 49 -85t49 -58q0 -13 -15 -25t-34 -12l-151 6h-41
q-20 0 -37 41q-6 11 -12 25l-29 67q-37 74 -111 218q-73 143 -165 323t-134 262q-6 8 -13 6t-9 -10q-121 -389 -158 -637q-18 -115 10 -159t123 -62q15 -4 31 -16t16 -26q0 -12 -19 -26t-48 -14l-232 10l-186 -10q-25 0 -45 10t-21 20q0 39 62 54q129 29 145 84
q74 199 234 809q20 79 3 115q-29 61 -98 81q-22 7 -71 17t-49 28z" />
    <glyph glyph-name="Ograve" unicode="&#xd2;" horiz-adv-x="1396" 
d="M721 1604q1 26 41 60t72 34t58 -33t171 -221q14 -18 18 -42t-6 -36q-23 -20 -80 14q-123 72 -237 164q-37 33 -37 60zM608 47q150 0 270 113q120 114 195 306q76 192 76 406q0 106 -55 208q-29 54 -84 88t-125 30t-124 -26t-120 -85q-135 -125 -205 -311t-69 -405
q0 -49 15 -115t45 -110t82 -71q52 -28 99 -28zM895 1284q209 0 335 -144t126 -336t-76 -368t-211 -299q-86 -80 -208 -127t-234 -47q-207 0 -336 129t-129 354q0 224 96 414t262 307t375 117z" />
    <glyph glyph-name="Oacute" unicode="&#xd3;" horiz-adv-x="1396" 
d="M1280 1573q0 -35 -68 -73t-286 -132q-51 -18 -78 4q-10 8 -2 30t30 42t132 104q111 86 141 107q43 25 72 4q11 -4 35 -37t24 -49zM608 47q150 0 270 113q120 114 195 306q76 192 76 406q0 106 -55 208q-29 54 -84 88t-125 30t-124 -26t-120 -85q-135 -125 -205 -311
t-69 -405q0 -49 15 -115t45 -110t82 -71q52 -28 99 -28zM895 1284q209 0 335 -144t126 -336t-76 -368t-211 -299q-86 -80 -208 -127t-234 -47q-207 0 -336 129t-129 354q0 224 96 414t262 307t375 117z" />
    <glyph glyph-name="Ocircumflex" unicode="&#xd4;" horiz-adv-x="1396" 
d="M1026 1634q24 0 51 -47q6 -10 131 -176q16 -25 12 -44t-26 -19q-20 0 -55 17t-86 52t-65 42t-25 1q-131 -61 -213 -90t-86 4q-8 27 34 60q204 132 254 166t74 34zM608 47q150 0 270 113q120 114 195 306q76 192 76 406q0 106 -55 208q-29 54 -84 88t-125 30t-124 -26
t-120 -85q-135 -125 -205 -311t-69 -405q0 -49 15 -115t45 -110t82 -71q52 -28 99 -28zM895 1284q209 0 335 -144t126 -336t-76 -368t-211 -299q-86 -80 -208 -127t-234 -47q-207 0 -336 129t-129 354q0 224 96 414t262 307t375 117z" />
    <glyph glyph-name="Otilde" unicode="&#xd5;" horiz-adv-x="1396" 
d="M1070 1430q-23 0 -102 8t-122 5q-44 -3 -66 -23t-37 -38q-14 -41 -56 -8q-17 14 -17 28t39 72t59 78q35 23 55 23l213 -12q50 0 68 11q18 10 50 42t38 32q8 0 31 -21q23 -22 6 -39t-57 -70t-56 -70q-23 -18 -46 -18zM608 47q150 0 270 113q120 114 195 306q76 192 76 406
q0 106 -55 208q-29 54 -84 88t-125 30t-124 -26t-120 -85q-135 -125 -205 -311t-69 -405q0 -49 15 -115t45 -110t82 -71q52 -28 99 -28zM895 1284q209 0 335 -144t126 -336t-76 -368t-211 -299q-86 -80 -208 -127t-234 -47q-207 0 -336 129t-129 354q0 224 96 414t262 307
t375 117z" />
    <glyph glyph-name="Odieresis" unicode="&#xd6;" horiz-adv-x="1396" 
d="M1171 1604q90 0 93 -99q0 -59 -38 -91t-75 -32t-64 28t-27 77t36 83q34 34 75 34zM799 1604q47 0 66 -32t19 -79t-36 -79q-37 -32 -74 -32q-36 0 -64 28t-28 76t35 83t82 35zM608 47q150 0 270 113q120 114 195 306q76 192 76 406q0 106 -55 208q-29 54 -84 88t-125 30
t-124 -26t-120 -85q-135 -125 -205 -311t-69 -405q0 -49 15 -115t45 -110t82 -71q52 -28 99 -28zM895 1284q209 0 335 -144t126 -336t-76 -368t-211 -299q-86 -80 -208 -127t-234 -47q-207 0 -336 129t-129 354q0 224 96 414t262 307t375 117z" />
    <glyph glyph-name="multiply" unicode="&#xd7;" horiz-adv-x="1388" 
d="M302 10q-36 0 -60 50q-14 28 -6 40l362 361q10 10 -6 22l-356 351q-10 10 10 46t36 50t34 15q19 1 28 -9l352 -354q16 -16 25 -7l358 361q27 27 49 10q27 -28 40 -58t1 -40l-360 -363q-2 -2 0 -12t6 -14l369 -363q8 -8 -6 -42t-26 -46t-32 -15t-28 3l-377 366
q-16 20 -31 7l-356 -351q-8 -8 -26 -8z" />
    <glyph glyph-name="Oslash" unicode="&#xd8;" horiz-adv-x="1396" 
d="M909 1194q-155 0 -281 -117t-199 -308t-73 -409q0 -94 39 -161q2 -6 6 -6t7 4l659 921q2 4 2 10t-2 9q-58 57 -158 57zM600 47q156 0 272 113q283 272 283 739q0 57 -27 131q0 4 -5 7t-9 -3l-655 -911q-6 -15 0 -21q66 -55 141 -55zM913 1284q104 0 215 -59q10 -8 23 4
l43 61q22 33 48 33q26 -1 37 -23t3 -34l-63 -90q-6 -8 -2 -21q65 -63 103 -159t38 -193q0 -189 -90 -377q-152 -316 -447 -420q-123 -43 -219 -43t-211 49q-8 4 -16 -8l-68 -90q-14 -18 -37 -12q-22 6 -32 25t-5 30l70 100q8 8 -10 25q-131 135 -131 354t98 412t262 315
q170 121 391 121z" />
    <glyph glyph-name="Ugrave" unicode="&#xd9;" horiz-adv-x="1466" 
d="M721 1580q1 26 41 60t72 33q32 0 58 -33t171 -221q14 -18 18 -42t-6 -36q-23 -20 -80 15q-123 72 -237 164q-37 34 -37 60zM1624 1217q0 -31 -73 -45t-97 -42t-64 -150t-155 -525q-53 -201 -156 -320q-145 -172 -422 -172q-111 0 -205 38q-255 103 -196 419q14 78 86 364
t75 309q3 25 1 35q-5 29 -77 48q-71 20 -71 51t62 30l215 -10l211 6q23 0 38 -10t15 -27q0 -16 -13 -26t-66 -22q-54 -12 -80 -36t-48 -98q-63 -207 -139 -545q-27 -95 -26 -163t41 -122t110 -84t125 -30q151 0 243 67t165 275t149 533q30 129 14 159t-98 46t-82 49
q4 35 65 34l199 -6l197 8q57 0 57 -38z" />
    <glyph glyph-name="Uacute" unicode="&#xda;" horiz-adv-x="1466" 
d="M1325 1546q0 -16 -16 -34q-15 -18 -67 -48q-52 -28 -271 -123q-51 -18 -78 5q-10 8 -2 30q7 22 29 40q22 20 133 106t147 108t66 2q10 -4 34 -37t25 -49zM1624 1217q0 -31 -73 -45t-97 -42t-64 -150t-155 -525q-53 -201 -156 -320q-145 -172 -422 -172q-111 0 -205 38
q-255 103 -196 419q14 78 86 364t75 309q3 25 1 35q-5 29 -77 48q-71 20 -71 51t62 30l215 -10l211 6q23 0 38 -10t15 -27q0 -16 -13 -26t-66 -22q-54 -12 -80 -36t-48 -98q-63 -207 -139 -545q-27 -95 -26 -163t41 -122t110 -84t125 -30q151 0 243 67t165 275t149 533
q30 129 14 159t-98 46t-82 49q4 35 65 34l199 -6l197 8q57 0 57 -38z" />
    <glyph glyph-name="Ucircumflex" unicode="&#xdb;" horiz-adv-x="1466" 
d="M1082 1634q24 0 53 -47q6 -10 131 -176q16 -25 11 -44t-25 -19t-56 17q-35 17 -86 52t-65 42t-25 1q-131 -61 -213 -90t-86 4q-8 27 35 60q203 132 253 166q49 34 73 34zM1624 1217q0 -31 -73 -45t-97 -42t-64 -150t-155 -525q-53 -201 -156 -320q-145 -172 -422 -172
q-111 0 -205 38q-255 103 -196 419q14 78 86 364t75 309q3 25 1 35q-5 29 -77 48q-71 20 -71 51t62 30l215 -10l211 6q23 0 38 -10t15 -27q0 -16 -13 -26t-66 -22q-54 -12 -80 -36t-48 -98q-63 -207 -139 -545q-27 -95 -26 -163t41 -122t110 -84t125 -30q151 0 243 67
t165 275t149 533q30 129 14 159t-98 46t-82 49q4 35 65 34l199 -6l197 8q57 0 57 -38z" />
    <glyph glyph-name="Udieresis" unicode="&#xdc;" horiz-adv-x="1466" 
d="M1210 1591q86 0 86 -110q0 -47 -38 -79t-74 -32t-64 28q-26 28 -26 76t34 84q35 33 82 33zM825 1591q90 0 93 -98q0 -59 -37 -91t-74 -32t-65 28t-28 76t36 82q34 35 75 35zM1624 1217q0 -31 -73 -45t-97 -42t-64 -150t-155 -525q-53 -201 -156 -320q-145 -172 -422 -172
q-111 0 -205 38q-255 103 -196 419q14 78 86 364t75 309q3 25 1 35q-5 29 -77 48q-71 20 -71 51t62 30l215 -10l211 6q23 0 38 -10t15 -27q0 -16 -13 -26t-66 -22q-54 -12 -80 -36t-48 -98q-63 -207 -139 -545q-27 -95 -26 -163t41 -122t110 -84t125 -30q151 0 243 67
t165 275t149 533q30 129 14 159t-98 46t-82 49q4 35 65 34l199 -6l197 8q57 0 57 -38z" />
    <glyph glyph-name="Yacute" unicode="&#xdd;" horiz-adv-x="1214" 
d="M1204 1554q0 -34 -68 -72t-286 -132q-51 -18 -78 4q-10 8 -2 30t30 40q22 20 132 106t148 108q36 22 65 2q11 -4 35 -37t24 -49zM272 77q80 15 110 40t52 104l72 254q31 106 12 183t-125 364q-31 84 -58 110q-29 26 -93 42t-64 45q0 37 60 36l204 -8l211 6q23 0 40 -10
q31 -18 4 -47q-13 -14 -58 -27t-61 -27t-9 -40q35 -123 125 -383q6 -27 33 -4q29 29 156 174t166 198q55 72 -35 91q-51 12 -51 43q0 10 16 21t55 11t178 -6l177 6q57 -1 57 -33t-69 -44t-119 -39q-115 -62 -472 -488q-57 -66 -75 -137q-78 -292 -85 -332q-6 -40 20 -67
t108 -43q18 -4 34 -16t17 -25q0 -37 -66 -37l-250 8l-233 -8q-63 0 -63 35q-1 35 79 50z" />
    <glyph glyph-name="Thorn" unicode="&#xde;" horiz-adv-x="1150" 
d="M-14 33q0 10 22 25q23 15 51 22q74 12 100 37q25 25 61 143t113 399q77 282 97 362t12 105t-56 36t-71 27q-22 16 -22 30q0 31 67 30l160 -2l256 8q57 0 58 -30q0 -33 -56 -43q-80 -10 -106 -38t-56 -140q-2 -8 4 -14t9 -7h90q78 0 168 -28t131 -64q100 -94 100 -238
q0 -201 -176 -317q-127 -82 -276 -82q-57 0 -70 6q-35 20 -35 45q0 9 13 19t43 11q80 3 180 66q51 33 85 93t33 139q0 268 -274 268q-12 0 -34 -9t-25 -26q-90 -307 -160 -602q-26 -112 -14 -140t100 -52q47 -16 47 -45q2 -9 -17 -21t-36 -12l-250 6l-211 -4q-55 0 -55 37z
" />
    <glyph glyph-name="germandbls" unicode="&#xdf;" horiz-adv-x="1042" 
d="M965 1372q155 0 221 -57t65 -121q0 -96 -90 -164q-37 -25 -139 -78q-223 -113 -223 -256q1 -50 71 -208t70 -224q0 -111 -104 -202t-211 -91q-66 0 -112 29q-46 28 -47 68t37 78t75 6q70 -63 133 -64q33 0 57 23t23 51t-3 40t-7 28q-5 15 -10 33t-18 46q-14 29 -28 61
t-23 48q-70 154 -69 237q0 168 291 332q92 53 122 92t30 84t-45 80q-44 35 -128 35q-178 0 -283 -134q-106 -134 -194 -428t-147 -724q-23 -195 -71 -272q-48 -78 -169 -156t-185 -78t-109 31q-46 31 -48 59q0 59 42 91t62 16q71 -63 133 -63t89 32t40 98t21 117t26 153
l37 222q102 610 295 856q214 274 523 274z" />
    <glyph glyph-name="agrave" unicode="&#xe0;" horiz-adv-x="993" 
d="M637 707q-84 1 -180 -105q-95 -106 -159 -225t-65 -182q-1 -18 15 -41t39 -23q104 0 241 186q117 156 166 318q10 23 -12 47t-45 25zM658 823q42 0 64 -9t28 7q23 51 26 60q10 18 27 18q51 4 92 -25q18 -12 12 -42t-87 -309q-81 -278 -95 -328q-6 -35 2 -42t23 -8
q61 0 141 99q30 38 53 24q10 -6 10 -23t-24 -71q-39 -76 -124 -139t-185 -64q-27 1 -52 21t-24 42t27 110q26 86 30 102t-4 17t-16 -7q-80 -96 -206 -190t-220 -95q-57 0 -93 31q-64 60 0 226q33 83 89 159q193 262 407 399q57 37 99 37zM618 1376q35 0 48 -49
q39 -129 59 -295q4 -66 -29 -65q-27 0 -53 41q-70 123 -129 254q-20 49 12 77q16 15 47 27t45 10z" />
    <glyph glyph-name="aacute" unicode="&#xe1;" horiz-adv-x="993" 
d="M637 707q-84 1 -180 -105q-95 -106 -159 -225t-65 -182q-1 -18 15 -41t39 -23q104 0 241 186q117 156 166 318q10 23 -12 47t-45 25zM658 823q42 0 64 -9t28 7q23 51 26 60q10 18 27 18q51 4 92 -25q18 -12 12 -42t-87 -309q-81 -278 -95 -328q-6 -35 2 -42t23 -8
q61 0 141 99q30 38 53 24q10 -6 10 -23t-24 -71q-39 -76 -124 -139t-185 -64q-27 1 -52 21t-24 42t27 110q26 86 30 102t-4 17t-16 -7q-80 -96 -206 -190t-220 -95q-57 0 -93 31q-64 60 0 226q33 83 89 159q193 262 407 399q57 37 99 37zM862 1329q20 0 43 -15
q82 -54 15 -132q-59 -63 -218 -203q-39 -35 -61 -35t-28 28q-5 28 14 54q109 172 176 258q39 45 59 45z" />
    <glyph glyph-name="acircumflex" unicode="&#xe2;" horiz-adv-x="993" 
d="M637 707q-84 1 -180 -105q-95 -106 -159 -225t-65 -182q-1 -18 15 -41t39 -23q104 0 241 186q117 156 166 318q10 23 -12 47t-45 25zM658 823q42 0 64 -9t28 7q23 51 26 60q10 18 27 18q51 4 92 -25q18 -12 12 -42t-87 -309q-81 -278 -95 -328q-6 -35 2 -42t23 -8
q61 0 141 99q30 38 53 24q10 -6 10 -23t-24 -71q-39 -76 -124 -139t-185 -64q-27 1 -52 21t-24 42t27 110q26 86 30 102t-4 17t-16 -7q-80 -96 -206 -190t-220 -95q-57 0 -93 31q-64 60 0 226q33 83 89 159q193 262 407 399q57 37 99 37zM822 1358q30 0 38 -55
q39 -281 40 -295t-7 -36q-7 -22 -23 -22t-29 14t-39 84t-34 97q-6 12 -27 -2q-179 -191 -213 -191q-18 0 -25 12q-17 28 19 70q162 193 223 271q47 53 77 53z" />
    <glyph glyph-name="atilde" unicode="&#xe3;" horiz-adv-x="993" 
d="M637 707q-84 1 -180 -105q-95 -106 -159 -225t-65 -182q-1 -18 15 -41t39 -23q104 0 241 186q117 156 166 318q10 23 -12 47t-45 25zM658 823q42 0 64 -9t28 7q23 51 26 60q10 18 27 18q51 4 92 -25q18 -12 12 -42t-87 -309q-81 -278 -95 -328q-6 -35 2 -42t23 -8
q61 0 141 99q30 38 53 24q10 -6 10 -23t-24 -71q-39 -76 -124 -139t-185 -64q-27 1 -52 21t-24 42t27 110q26 86 30 102t-4 17t-16 -7q-80 -96 -206 -190t-220 -95q-57 0 -93 31q-64 60 0 226q33 83 89 159q193 262 407 399q57 37 99 37zM628 1063q-41 0 -75 -36
q-35 -36 -45 -36q-10 -1 -26 15t-15 26q1 25 63 85q106 101 144 91q53 -26 130 -26q76 0 102 20t63 58q9 8 33 -8t24 -27t-10 -23t-76 -77t-80 -74q-14 -15 -35 -15t-89 14t-108 13z" />
    <glyph glyph-name="adieresis" unicode="&#xe4;" horiz-adv-x="993" 
d="M637 707q-84 1 -180 -105q-95 -106 -159 -225t-65 -182q-1 -18 15 -41t39 -23q104 0 241 186q117 156 166 318q10 23 -12 47t-45 25zM658 823q42 0 64 -9t28 7q23 51 26 60q10 18 27 18q51 4 92 -25q18 -12 12 -42t-87 -309q-81 -278 -95 -328q-6 -35 2 -42t23 -8
q61 0 141 99q30 38 53 24q10 -6 10 -23t-24 -71q-39 -76 -124 -139t-185 -64q-27 1 -52 21t-24 42t27 110q26 86 30 102t-4 17t-16 -7q-80 -96 -206 -190t-220 -95q-57 0 -93 31q-64 60 0 226q33 83 89 159q193 262 407 399q57 37 99 37zM940 1253q37 -1 57 -29
q40 -57 4 -117q-16 -30 -33 -46q-18 -17 -54 -17t-62 24t-27 60q0 36 18 66q32 59 97 59zM584 1253q39 -1 58 -29t20 -57q0 -72 -44 -100q-30 -23 -62 -23t-56 24t-25 78q0 54 43 85q27 22 66 22z" />
    <glyph glyph-name="aring" unicode="&#xe5;" horiz-adv-x="993" 
d="M637 707q-84 1 -180 -105q-95 -106 -159 -225t-65 -182q-1 -18 15 -41t39 -23q104 0 241 186q117 156 166 318q10 23 -12 47t-45 25zM658 823q42 0 64 -9t28 7q23 51 26 60q10 18 27 18q51 4 92 -25q18 -12 12 -42t-87 -309q-81 -278 -95 -328q-6 -35 2 -42t23 -8
q61 0 141 99q30 38 53 24q10 -6 10 -23t-24 -71q-39 -76 -124 -139t-185 -64q-27 1 -52 21t-24 42t27 110q26 86 30 102t-4 17t-16 -7q-80 -96 -206 -190t-220 -95q-57 0 -93 31q-64 60 0 226q33 83 89 159q193 262 407 399q57 37 99 37zM772 1247q-38 1 -66 -25t-35 -67
t15 -77t67 -36t71 30t28 73t-19 73q-22 29 -61 29zM783 1321q79 0 125 -56t36 -128t-66 -120t-134 -48t-127 55t-37 130t68 121t135 46z" />
    <glyph glyph-name="ae" unicode="&#xe6;" horiz-adv-x="1087" 
d="M270 145q33 0 99 37q66 38 78 60t12 59t23 131q24 94 48 138t9 42q-4 0 -9 -2q-133 -84 -228 -202t-95 -199q0 -20 15 -42t48 -22zM834 778q-60 0 -120 -105t-73 -218q0 -5 6 -11t12 -4q90 35 158 105q68 69 68 151t-51 82zM891 862q69 0 109 -53t40 -104
q0 -231 -389 -347q-6 -2 -12 -11t-6 -13q-4 -115 30 -167t85 -52q104 0 227 149q17 25 31 25t20 -25t-5 -55t-87 -126q-41 -50 -112 -84q-70 -34 -148 -34q-162 0 -201 182q-6 16 -22 3q-176 -176 -320 -177q-47 1 -77 51t-29 87q1 167 151 321t350 262q12 6 80 58
q162 110 285 110z" />
    <glyph glyph-name="ccedilla" unicode="&#xe7;" horiz-adv-x="741" 
d="M597 862q81 0 123 -40t42 -58q0 -51 -26 -89t-45 -38t-44 14t-39 41q-39 70 -85 70t-74 -19q-55 -33 -120 -188t-65 -328q0 -49 42 -85t85 -36q68 0 170 115q29 33 41 33t20 -14t7 -31q0 -17 -15 -41q-76 -115 -178 -164q-139 -98 -139 -156q1 -22 23 -56t38 -60t15 -75
q0 -48 -74 -99q-74 -52 -125 -52t-88 31t-39 74q0 15 13 33q14 18 24 18t33 -16q47 -47 86 -47t39 30q0 23 -26 56t-34 45q-49 84 -8 139q25 35 123 102h-6q-47 0 -100 29q-109 62 -109 216q0 74 26 174t66 177q88 155 215 225t208 70z" />
    <glyph glyph-name="egrave" unicode="&#xe8;" horiz-adv-x="774" 
d="M575 786q-59 0 -141 -87t-131 -203q0 -23 12 -23q47 2 116 30t131 90t63 140q0 17 -17 35t-33 18zM256 219q0 -59 41 -89t84 -30t105 35t96 70t44 35q11 0 18 -12t7 -21q0 -47 -59 -107q-129 -129 -287 -129q-84 1 -145 55q-86 77 -86 187q0 154 84 325t207 257
q104 67 219 67q47 0 100 -26q84 -48 86 -148t-104 -176q-131 -94 -371 -113q-39 0 -39 -180zM604 952q-31 0 -55 41q-70 123 -129 254q-20 49 12 78q16 15 47 27t45 10q35 0 47 -49q39 -129 60 -295q4 -66 -27 -66z" />
    <glyph glyph-name="eacute" unicode="&#xe9;" horiz-adv-x="774" 
d="M575 786q-59 0 -141 -87t-131 -203q0 -23 12 -23q47 2 116 30t131 90t63 140q0 17 -17 35t-33 18zM256 219q0 -59 41 -89t84 -30t105 35t96 70t44 35q11 0 18 -12t7 -21q0 -47 -59 -107q-129 -129 -287 -129q-84 1 -145 55q-86 77 -86 187q0 154 84 325t207 257
q104 67 219 67q47 0 100 -26q84 -48 86 -148t-104 -176q-131 -94 -371 -113q-39 0 -39 -180zM766 1317q20 0 43 -15q82 -54 14 -133q-59 -63 -217 -202q-39 -35 -61 -35q-21 0 -27 28t12 54q109 172 177 258q39 45 59 45z" />
    <glyph glyph-name="ecircumflex" unicode="&#xea;" horiz-adv-x="774" 
d="M575 786q-59 0 -141 -87t-131 -203q0 -23 12 -23q47 2 116 30t131 90t63 140q0 17 -17 35t-33 18zM256 219q0 -59 41 -89t84 -30t105 35t96 70t44 35q11 0 18 -12t7 -21q0 -47 -59 -107q-129 -129 -287 -129q-84 1 -145 55q-86 77 -86 187q0 154 84 325t207 257
q104 67 219 67q47 0 100 -26q84 -48 86 -148t-104 -176q-131 -94 -371 -113q-39 0 -39 -180zM699 1350q30 0 38 -56q39 -280 40 -294t-7 -36t-24 -22t-28 14q-13 14 -39 83t-34 98q-6 12 -27 -2q-180 -191 -215 -191t-26 42q4 19 22 40q162 193 224 270q46 54 76 54z" />
    <glyph glyph-name="edieresis" unicode="&#xeb;" horiz-adv-x="774" 
d="M575 786q-59 0 -141 -87t-131 -203q0 -23 12 -23q47 2 116 30t131 90t63 140q0 17 -17 35t-33 18zM256 219q0 -59 41 -89t84 -30t105 35t96 70t44 35q11 0 18 -12t7 -21q0 -47 -59 -107q-129 -129 -287 -129q-84 1 -145 55q-86 77 -86 187q0 154 84 325t207 257
q104 67 219 67q47 0 100 -26q84 -48 86 -148t-104 -176q-131 -94 -371 -113q-39 0 -39 -180zM901 1170q0 -30 -16 -60q-15 -30 -33 -45q-18 -16 -54 -16q-36 -1 -63 23t-27 60t18 66q32 59 97 59q37 0 58 -28q20 -29 20 -59zM467 1257q39 -1 58 -29t20 -57q0 -72 -43 -100
q-66 -49 -119 1q-25 24 -25 78t43 85q27 22 66 22z" />
    <glyph glyph-name="igrave" unicode="&#xec;" horiz-adv-x="567" 
d="M424 862q18 0 37 -26q18 -27 18 -57t-12 -69q-12 -40 -95 -278t-86 -246t1 -15t16 -7t58 26t75 50q29 22 46 22q18 0 18 -26t-46 -88q-46 -60 -142 -118t-154 -59q-24 0 -48 25q-24 26 -24 50t20 75q41 88 181 512q19 55 -7 55t-78 -36t-87 -68q-6 -6 -19 10
q-12 16 -12 27t18 38q56 83 150 143t172 60zM452 952q-30 0 -57 41q-70 123 -129 254q-20 49 13 78q16 15 47 27t45 10q35 0 47 -49q39 -129 59 -295q5 -66 -25 -66z" />
    <glyph glyph-name="iacute" unicode="&#xed;" horiz-adv-x="567" 
d="M424 862q18 0 37 -26q18 -27 18 -57t-12 -69q-12 -40 -95 -278t-86 -246t1 -15t16 -7t58 26t75 50q29 22 46 22q18 0 18 -26t-46 -88q-46 -60 -142 -118t-154 -59q-24 0 -48 25q-24 26 -24 50t20 75q41 88 181 512q19 55 -7 55t-78 -36t-87 -68q-6 -6 -19 10
q-12 16 -12 27t18 38q56 83 150 143t172 60zM592 1329q20 0 43 -15q82 -54 14 -132q-59 -63 -217 -203q-39 -35 -61 -35t-28 28q-5 28 13 54q109 172 176 258q40 45 60 45z" />
    <glyph glyph-name="icircumflex" unicode="&#xee;" horiz-adv-x="567" 
d="M424 862q18 0 37 -26q18 -27 18 -57t-12 -69q-12 -40 -95 -278t-86 -246t1 -15t16 -7t58 26t75 50q29 22 46 22q18 0 18 -26t-46 -88q-46 -60 -142 -118t-154 -59q-24 0 -48 25q-24 26 -24 50t20 75q41 88 181 512q19 55 -7 55t-78 -36t-87 -68q-6 -6 -19 10
q-12 16 -12 27t18 38q56 83 150 143t172 60zM536 1350q30 0 37 -56q39 -280 40 -294t-7 -36t-23 -22t-29 14q-13 14 -17 33q-47 119 -56 148q-6 12 -26 -2q-180 -191 -215 -191t-27 42q4 19 23 40q162 193 223 270q47 54 77 54z" />
    <glyph glyph-name="idieresis" unicode="&#xef;" horiz-adv-x="567" 
d="M424 862q18 0 37 -26q18 -27 18 -57t-12 -69q-12 -40 -95 -278t-86 -246t1 -15t16 -7t58 26t75 50q29 22 46 22q18 0 18 -26t-46 -88q-46 -60 -142 -118t-154 -59q-24 0 -48 25q-24 26 -24 50t20 75q41 88 181 512q19 55 -7 55t-78 -36t-87 -68q-6 -6 -19 10
q-12 16 -12 27t18 38q56 83 150 143t172 60zM618 1049q-36 -1 -64 23q-26 24 -26 60t18 66q32 59 97 59q37 -1 57 -29q39 -56 5 -117q-15 -30 -33 -46t-54 -16zM287 1257q39 -1 58 -29t20 -57q0 -72 -43 -100q-66 -49 -119 1q-25 24 -25 78t43 85q27 22 66 22z" />
    <glyph glyph-name="eth" unicode="&#xf0;" horiz-adv-x="860" 
d="M555 772q-80 0 -152 -115q-77 -115 -117 -243t-40 -236q0 -107 94 -106q66 0 139 102q66 82 119 238t51 274q-1 34 -29 60t-65 26zM543 862q43 0 90 -28q14 -4 14 12q-8 96 -43 176q-4 16 -16 12l-180 -73q-14 -6 -27 6q-19 23 -19 42t35 38l156 69q12 6 4 21
q-49 98 -147 168q-41 31 -37 55q0 10 19 18t28 8q49 0 122 -58t134 -142q10 -14 22 -8l164 67q17 8 31 -14q14 -23 14 -39t-26 -29l-144 -63q-4 -2 -5 -12t1 -13q78 -185 77 -383t-78 -372t-197 -267q-101 -82 -203 -82t-173 82t-71 220q0 139 68 281t180 225t207 83z" />
    <glyph glyph-name="ntilde" unicode="&#xf1;" horiz-adv-x="1062" 
d="M335 862q114 0 114 -107q0 -48 -52 -180q-4 -8 2 -14l9 4q94 127 212 212t211 85q51 0 83 -45t32 -93t-26 -144t-138 -387q-14 -33 9 -33q43 0 163 98q8 8 20 -3t11 -35q0 -24 -35 -60q-63 -74 -155 -131t-166 -58q-17 1 -37 19t-26 42t14 74t111 298t99 276t-4 48
t-43 20q-57 0 -131 -76t-123 -156t-107 -185q-58 -106 -107 -207q-50 -102 -56 -114t-21 -25q-14 -13 -30 -13t-45 23q-29 24 -29 44q0 69 66 225t109 278q42 122 39 141t-13 19q-68 0 -154 -75q-15 -13 -35 -9t-20 23t8 37q33 76 105 130t136 54zM969 1212q-1 -12 -11 -23
t-76 -76t-79 -77q-14 -12 -35 -12q-20 0 -88 14t-109 13t-75 -37t-45 -36q-9 0 -25 16t-16 26q0 27 62 85t95 79q33 16 49 12q53 -27 130 -27q77 1 103 21t62 57q8 8 33 -7q25 -16 25 -28z" />
    <glyph glyph-name="ograve" unicode="&#xf2;" horiz-adv-x="866" 
d="M539 770q-82 0 -162 -129q-133 -217 -133 -438q0 -133 108 -133q59 0 135 106q53 74 103 219q49 145 49 236q0 139 -100 139zM541 862q115 0 183 -89t67 -223q0 -134 -67 -282q-67 -147 -177 -223q-111 -74 -217 -74q-106 1 -178 101q-70 100 -68 230t71 268t167 212
q46 32 114 56t105 24zM592 948q-30 0 -55 41q-70 123 -129 254q-20 49 12 78q16 15 47 27t45 10q35 0 47 -49q39 -129 59 -295q4 -66 -26 -66z" />
    <glyph glyph-name="oacute" unicode="&#xf3;" horiz-adv-x="866" 
d="M539 770q-82 0 -162 -129q-133 -217 -133 -438q0 -133 108 -133q59 0 135 106q53 74 103 219q49 145 49 236q0 139 -100 139zM541 862q115 0 183 -89t67 -223q0 -134 -67 -282q-67 -147 -177 -223q-111 -74 -217 -74q-106 1 -178 101q-70 100 -68 230t71 268t167 212
q46 32 114 56t105 24zM768 1329q20 0 43 -15q82 -54 14 -132q-59 -63 -217 -203q-39 -35 -61 -35t-28 28q-5 28 13 54q109 172 177 258q39 45 59 45z" />
    <glyph glyph-name="ocircumflex" unicode="&#xf4;" horiz-adv-x="866" 
d="M539 770q-82 0 -162 -129q-133 -217 -133 -438q0 -133 108 -133q59 0 135 106q53 74 103 219q49 145 49 236q0 139 -100 139zM541 862q115 0 183 -89t67 -223q0 -134 -67 -282q-67 -147 -177 -223q-111 -74 -217 -74q-106 1 -178 101q-70 100 -68 230t71 268t167 212
q46 32 114 56t105 24zM712 1350q30 0 38 -56q40 -280 40 -294t-8 -36t-23 -22t-29 14q-13 14 -17 33q-47 119 -56 148q-6 12 -26 -2q-180 -191 -215 -191t-27 42q4 19 23 40q162 193 223 270q47 54 77 54z" />
    <glyph glyph-name="otilde" unicode="&#xf5;" horiz-adv-x="866" 
d="M539 770q-82 0 -162 -129q-133 -217 -133 -438q0 -133 108 -133q59 0 135 106q53 74 103 219q49 145 49 236q0 139 -100 139zM541 862q115 0 183 -89t67 -223q0 -134 -67 -282q-67 -147 -177 -223q-111 -74 -217 -74q-106 1 -178 101q-70 100 -68 230t71 268t167 212
q46 32 114 56t105 24zM516 1065q-42 0 -76 -36t-44 -36q-10 -1 -26 15q-15 16 -16 32t62 77q106 102 145 93q53 -26 130 -26t103 20t62 58q8 8 40 -12t7 -46q-10 -12 -76 -77t-79 -74q-14 -15 -35 -15t-89 14t-108 13z" />
    <glyph glyph-name="odieresis" unicode="&#xf6;" horiz-adv-x="866" 
d="M539 770q-82 0 -162 -129q-133 -217 -133 -438q0 -133 108 -133q59 0 135 106q53 74 103 219q49 145 49 236q0 139 -100 139zM541 862q115 0 183 -89t67 -223q0 -134 -67 -282q-67 -147 -177 -223q-111 -74 -217 -74q-106 1 -178 101q-70 100 -68 230t71 268t167 212
q46 32 114 56t105 24zM831 1257q37 0 58 -28q20 -29 20 -59t-16 -60q-15 -30 -33 -45q-18 -16 -54 -16q-36 -1 -63 23t-27 60t18 66q32 59 97 59zM475 1257q39 0 59 -28q19 -29 19 -58q0 -72 -43 -100q-65 -48 -119 1q-25 24 -25 78t44 85q26 22 65 22z" />
    <glyph glyph-name="divide" unicode="&#xf7;" horiz-adv-x="1388" 
d="M715 -6q-51 0 -86 37t-35 86t35 84t85 35t85 -35t35 -84t-34 -86t-85 -37zM1249 543q23 0 23 -36q0 -37 -10 -65t-19 -28l-1063 -8q-6 0 -12 13t-6 33t10 55q10 34 21 34zM838 826q0 -50 -35 -84t-85 -33q-50 -1 -85 33t-35 83t36 86t85 37t84 -36t35 -86z" />
    <glyph glyph-name="oslash" unicode="&#xf8;" horiz-adv-x="884" 
d="M352 70q86 0 170 110q57 76 108 219q50 143 48 265q-7 15 -16 2l-369 -564q-8 -14 6 -23t53 -9zM562 770q-36 0 -91 -32t-110 -114t-95 -211q-40 -128 -30 -241q4 -12 10 -2l375 571q5 9 -9 19t-50 10zM571 860q41 0 99 -29q10 -4 14 5l29 43q22 43 67 0q4 -3 4 -13
t-2 -14l-39 -66q-4 -4 2 -16q72 -88 72 -222t-74 -280t-186 -222q-112 -75 -217 -75q-53 0 -98 27q-14 4 -17 -2l-49 -70q-8 -12 -22 -12q-35 8 -41 24t0 29l49 76q6 10 -2 18q-74 85 -74 225t71 278t178 217t236 79z" />
    <glyph glyph-name="ugrave" unicode="&#xf9;" horiz-adv-x="1085" 
d="M297 666q0 20 -11 20q-38 0 -152 -102q-4 -4 -20 4t-16 34t47 82t131 107t150 51q29 0 47 -35t13 -71t-189 -572q-6 -16 1 -39t28 -22q47 0 104 51q56 52 138 164t261 444q45 78 73 78t52 -20t25 -49q-1 -29 -31 -127t-78 -264q-48 -167 -67 -230q-2 -6 5 -13t17 -7
q55 0 152 94q32 36 55 21q8 -5 8 -25t-32 -84q-32 -62 -122 -128q-91 -66 -184 -65q-34 0 -58 26t-24 43t28 94q26 77 83 249q2 4 -4 14t-16 0q-168 -229 -308 -340q-84 -70 -172 -69q-35 0 -69 16t-45 45q-12 29 3 105t169 481q8 19 8 39zM616 1346q35 0 48 -50
q39 -129 59 -295q4 -66 -29 -65q-29 0 -53 41q-70 123 -129 254q-20 49 12 78q16 15 47 27t45 10z" />
    <glyph glyph-name="uacute" unicode="&#xfa;" horiz-adv-x="1085" 
d="M297 666q0 20 -11 20q-38 0 -152 -102q-4 -4 -20 4t-16 34t47 82t131 107t150 51q29 0 47 -35t13 -71t-189 -572q-6 -16 1 -39t28 -22q47 0 104 51q56 52 138 164t261 444q45 78 73 78t52 -20t25 -49q-1 -29 -31 -127t-78 -264q-48 -167 -67 -230q-2 -6 5 -13t17 -7
q55 0 152 94q32 36 55 21q8 -5 8 -25t-32 -84q-32 -62 -122 -128q-91 -66 -184 -65q-34 0 -58 26t-24 43t28 94q26 77 83 249q2 4 -4 14t-16 0q-168 -229 -308 -340q-84 -70 -172 -69q-35 0 -69 16t-45 45q-12 29 3 105t169 481q8 19 8 39zM858 1329q20 0 43 -15
q82 -54 14 -132q-59 -63 -217 -203q-39 -35 -61 -35t-28 28q-5 28 14 54q109 172 176 258q39 45 59 45z" />
    <glyph glyph-name="ucircumflex" unicode="&#xfb;" horiz-adv-x="1085" 
d="M297 666q0 20 -11 20q-38 0 -152 -102q-4 -4 -20 4t-16 34t47 82t131 107t150 51q29 0 47 -35t13 -71t-189 -572q-6 -16 1 -39t28 -22q47 0 104 51q56 52 138 164t261 444q45 78 73 78t52 -20t25 -49q-1 -29 -31 -127t-78 -264q-48 -167 -67 -230q-2 -6 5 -13t17 -7
q55 0 152 94q32 36 55 21q8 -5 8 -25t-32 -84q-32 -62 -122 -128q-91 -66 -184 -65q-34 0 -58 26t-24 43t28 94q26 77 83 249q2 4 -4 14t-16 0q-168 -229 -308 -340q-84 -70 -172 -69q-35 0 -69 16t-45 45q-12 29 3 105t169 481q8 19 8 39zM814 1354q30 0 38 -56
q39 -280 40 -294t-7 -36q-7 -22 -23 -22t-29 14q-17 20 -73 181q-6 12 -27 -2q-180 -191 -215 -191t-26 42q4 19 22 40q162 193 223 270q47 54 77 54z" />
    <glyph glyph-name="udieresis" unicode="&#xfc;" horiz-adv-x="1085" 
d="M297 666q0 20 -11 20q-38 0 -152 -102q-4 -4 -20 4t-16 34t47 82t131 107t150 51q29 0 47 -35t13 -71t-189 -572q-6 -16 1 -39t28 -22q47 0 104 51q56 52 138 164t261 444q45 78 73 78t52 -20t25 -49q-1 -29 -31 -127t-78 -264q-48 -167 -67 -230q-2 -6 5 -13t17 -7
q55 0 152 94q32 36 55 21q8 -5 8 -25t-32 -84q-32 -62 -122 -128q-91 -66 -184 -65q-34 0 -58 26t-24 43t28 94q26 77 83 249q2 4 -4 14t-16 0q-168 -229 -308 -340q-84 -70 -172 -69q-35 0 -69 16t-45 45q-12 29 3 105t169 481q8 19 8 39zM876 1049q-36 -1 -64 23
q-26 24 -26 60t18 66q32 59 97 59q37 -1 57 -29q39 -56 5 -117q-15 -30 -33 -46t-54 -16zM545 1257q39 -1 58 -29t20 -57q0 -72 -43 -100q-66 -49 -119 1q-25 24 -25 78t43 85q27 22 66 22z" />
    <glyph glyph-name="yacute" unicode="&#xfd;" horiz-adv-x="882" 
d="M344 862q53 0 101 -59t71 -178t2 -428q0 -9 10 -13t17 6q158 375 223 654q5 26 48 26q22 0 44 -34t21 -67q1 -31 -49 -149t-108 -245t-78 -175t-118 -231q-125 -260 -266 -383q-111 -98 -227 -98q-68 0 -113 41t-45 85t33 79t66 35t55 -23q76 -80 100 -80q57 0 119 72
q116 137 135 463q9 188 -17 359t-94 171q-53 0 -118 -110q-29 -41 -72 -41q-16 0 -16 28q8 87 92 191t184 104zM770 1309q20 1 43 -15q81 -54 14 -133q-59 -63 -217 -203q-75 -68 -89 -7q-5 28 14 55q109 172 176 258q39 45 59 45z" />
    <glyph glyph-name="thorn" unicode="&#xfe;" horiz-adv-x="1007" 
d="M709 729q-109 0 -271 -199q-53 -61 -95 -166t-42 -166t34 -92q33 -30 87 -30t115 45q96 71 172 229t76 268t-76 111zM-213 -438q1 31 67 48q66 16 92 36t56 107t126 447q94 360 175 661q81 300 86 331q6 32 -13 46q-20 14 -64 30q-44 14 -44 43t110 51t193 22
q15 0 27 -19t6 -36q-115 -350 -192 -663q-2 -6 6 -14t16 -1q211 211 367 211q80 0 125 -58t45 -145q1 -175 -103 -337t-235 -246q-156 -104 -242 -104t-135 24q-6 4 -13 -6t-30 -90t-45 -191q-8 -43 9 -59t83 -34t66 -48q0 -41 -70 -41l-174 4l-227 -10q-25 0 -47 11t-21 30
z" />
    <glyph glyph-name="ydieresis" unicode="&#xff;" horiz-adv-x="882" 
d="M344 862q53 0 101 -59t71 -178t2 -428q0 -9 10 -13t17 6q158 375 223 654q5 26 48 26q22 0 44 -34t21 -67q1 -31 -49 -149t-108 -245t-78 -175t-118 -231q-125 -260 -266 -383q-111 -98 -227 -98q-68 0 -113 41t-45 85t33 79t66 35t55 -23q76 -80 100 -80q57 0 119 72
q116 137 135 463q9 188 -17 359t-94 171q-53 0 -118 -110q-29 -41 -72 -41q-16 0 -16 28q8 87 92 191t184 104zM803 1257q37 -1 57 -29q40 -57 4 -117q-16 -30 -33 -46t-53 -16q-36 -1 -64 23q-26 24 -26 60t18 66q32 59 97 59zM446 1257q39 0 59 -28q19 -29 19 -58
q0 -72 -43 -100q-65 -48 -119 1q-24 24 -24 78t43 85q26 22 65 22z" />
    <glyph glyph-name="Amacron" unicode="&#x100;" horiz-adv-x="1308" 
d="M1358 1473q0 -51 -25 -76q-14 -18 -28 -19l-410 -2q-6 0 -14 10q-28 34 20 95q17 24 27 24l409 6q5 0 13 -14t8 -24zM614 549q125 0 244 10q16 0 29 35q20 80 55 362q6 51 -8 52q-4 0 -37 -33q-41 -45 -161 -209t-133 -190t11 -27zM-102 23q0 33 72 47q131 26 193 88
q22 23 77 92q549 692 675 893q7 15 27 31t34 18t52 24t58 44q20 24 47 24q37 0 24 -86q-88 -512 -125 -979q-6 -77 11 -101t79 -43t64 -50q0 -11 -18 -23t-40 -12l-237 10l-186 -6q-25 0 -43 12t-19 25q-1 31 61 43t84 29t33 67q33 145 41 258q0 29 -18 29q-205 0 -301 -15
q-23 0 -47 -22t-81 -107q-59 -84 -97 -148t40 -89q55 -18 56 -43q0 -15 -18 -27t-46 -12l-166 6l-227 -12q-25 0 -42 10t-17 25z" />
    <glyph glyph-name="amacron" unicode="&#x101;" horiz-adv-x="993" 
d="M637 707q-84 1 -180 -105q-95 -106 -159 -225t-65 -182q-1 -18 15 -41t39 -23q104 0 241 186q117 156 166 318q10 23 -12 47t-45 25zM658 823q42 0 64 -9t28 7q23 51 26 60q10 18 27 18q51 4 92 -25q18 -12 12 -42t-87 -309q-81 -278 -95 -328q-6 -35 2 -42t23 -8
q61 0 141 99q30 38 53 24q10 -6 10 -23t-24 -71q-39 -76 -124 -139t-185 -64q-27 1 -52 21t-24 42t27 110q26 86 30 102t-4 17t-16 -7q-80 -96 -206 -190t-220 -95q-57 0 -93 31q-64 60 0 226q33 83 89 159q193 262 407 399q57 37 99 37zM977 1206q18 0 18 -36t-26 -80
q-14 -20 -27 -21q-287 -10 -371 -10q-4 1 -13 15t-9 38t18 60q18 34 33 34h377z" />
    <glyph glyph-name="Abreve" unicode="&#x102;" horiz-adv-x="1308" 
d="M1098 1341q-110 0 -156 65q-47 65 -33 167q5 19 17 33t24 14q31 0 39 -49q20 -92 135 -92t185 96q31 41 49 41t24 -18t0 -42q-22 -76 -98 -146t-186 -69zM614 549q125 0 244 10q16 0 29 35q20 80 55 362q6 51 -8 52q-4 0 -37 -33q-41 -45 -161 -209t-133 -190t11 -27z
M-102 23q0 33 72 47q131 26 193 88q22 23 77 92q549 692 675 893q7 15 27 31t34 18t52 24t58 44q20 24 47 24q37 0 24 -86q-88 -512 -125 -979q-6 -77 11 -101t79 -43t64 -50q0 -11 -18 -23t-40 -12l-237 10l-186 -6q-25 0 -43 12t-19 25q-1 31 61 43t84 29t33 67
q33 145 41 258q0 29 -18 29q-205 0 -301 -15q-23 0 -47 -22t-81 -107q-59 -84 -97 -148t40 -89q55 -18 56 -43q0 -15 -18 -27t-46 -12l-166 6l-227 -12q-25 0 -42 10t-17 25z" />
    <glyph glyph-name="abreve" unicode="&#x103;" horiz-adv-x="993" 
d="M637 707q-84 1 -180 -105q-95 -106 -159 -225t-65 -182q-1 -18 15 -41t39 -23q104 0 241 186q117 156 166 318q10 23 -12 47t-45 25zM658 823q42 0 64 -9t28 7q23 51 26 60q10 18 27 18q51 4 92 -25q18 -12 12 -42t-87 -309q-81 -278 -95 -328q-6 -35 2 -42t23 -8
q61 0 141 99q30 38 53 24q10 -6 10 -23t-24 -71q-39 -76 -124 -139t-185 -64q-27 1 -52 21t-24 42t27 110q26 86 30 102t-4 17t-16 -7q-80 -96 -206 -190t-220 -95q-57 0 -93 31q-64 60 0 226q33 83 89 159q193 262 407 399q57 37 99 37zM735 1008q-94 0 -144 62t-24 183
q16 47 39 47q16 0 28 -15t11 -34q4 -115 103 -114q90 0 157 118q25 43 58 43q27 0 16 -47q-16 -83 -83 -163t-161 -80z" />
    <glyph glyph-name="Aogonek" unicode="&#x104;" horiz-adv-x="1308" 
d="M614 549q125 0 244 10q16 0 29 35q14 53 51 362q6 51 -8 52q-22 0 -168 -202t-160 -235q-4 -6 -1 -14t13 -8zM-102 23q0 33 72 47q131 26 193 88q78 81 381 486q304 405 346 473t68 73q25 4 66 26q42 22 62 44q20 24 47 24q39 0 26 -86q-92 -535 -127 -979
q-6 -77 11 -101t79 -43t64 -50q0 -11 -18 -23t-40 -12l-110 6q-219 -170 -219 -301q-1 -33 21 -55t60 -21q38 0 121 43q11 4 25 -2t14 -22t-14 -41q-36 -57 -100 -91t-136 -32q-72 0 -120 49q-49 49 -49 112q0 172 301 365q-47 2 -128 -2q-82 -4 -98 -4t-34 12t-19 25
q-1 31 61 43t84 29t33 67q33 145 41 258q0 29 -18 29q-205 0 -301 -15q-23 0 -47 -22t-81 -107q-59 -84 -97 -148t40 -89q55 -18 56 -43q0 -15 -18 -27t-46 -12l-166 6l-227 -12q-25 0 -42 10t-17 25z" />
    <glyph glyph-name="aogonek" unicode="&#x105;" horiz-adv-x="993" 
d="M637 707q-84 1 -180 -105q-95 -106 -159 -225t-65 -182q-1 -18 15 -41t39 -23q104 0 241 186q117 156 166 318q10 23 -12 47t-45 25zM658 823q42 0 64 -9t28 7q23 51 26 60q10 18 27 18q51 4 92 -25q18 -12 12 -42t-87 -309q-81 -278 -95 -328q-6 -35 2 -42t23 -8
q61 0 141 99q30 38 53 24q10 -6 10 -23t-24 -71q-47 -94 -144 -151q-104 -76 -180 -165t-76 -163q0 -33 20 -55t60 -23q39 0 121 43q11 6 25 0q29 -13 2 -63q-37 -57 -102 -91q-64 -34 -136 -32q-72 0 -121 49t-49 110q0 158 262 340q-24 5 -46 23t-21 39t27 109
q26 86 30 102t-4 17t-16 -7q-80 -96 -206 -190t-220 -95q-57 0 -93 31q-64 60 0 226q33 83 89 159q193 262 407 399q57 37 99 37z" />
    <glyph glyph-name="Cacute" unicode="&#x106;" horiz-adv-x="1333" 
d="M1323 1577q1 -35 -67 -73t-287 -132q-51 -18 -78 4q-10 8 -2 30q7 22 29 42t133 104q111 86 141 107q43 25 72 4q10 -4 34 -37t25 -49zM967 1284q131 0 247 -54q29 -13 33 -16q47 -12 84 13t59 4t6 -51q-15 -30 -46 -118q-31 -87 -36 -115q-6 -28 -22 -47t-32 -19
q-31 0 -35 65q7 169 -147 228q-71 27 -124 26q-217 0 -383 -188q-82 -96 -133 -246t-51 -274q0 -51 15 -128t40 -122q92 -178 299 -179q123 2 240 111q117 110 135 126t34 16q15 0 22 -19q6 -18 0 -53t-128 -238q-18 -31 -43 -16q-53 41 -98 22q-125 -47 -233 -47
q-232 1 -368 147t-136 362t99 396t263 287q191 127 439 127z" />
    <glyph glyph-name="cacute" unicode="&#x107;" horiz-adv-x="741" 
d="M597 862q81 0 123 -40t42 -58q0 -51 -26 -89t-45 -38t-44 14t-39 41q-39 70 -85 70t-74 -19q-55 -33 -120 -188t-65 -328q0 -49 42 -85t85 -36q68 0 170 115q29 33 41 33t20 -14t7 -31q0 -17 -15 -41q-131 -197 -323 -197q-47 0 -100 29q-109 62 -109 216q0 74 26 174
t66 177q88 155 215 225t208 70zM754 1313q20 1 43 -15q80 -54 14 -133q-59 -63 -217 -202q-40 -35 -62 -35t-27 28t13 54q109 172 176 258q40 45 60 45z" />
    <glyph glyph-name="Ccircumflex" unicode="&#x108;" horiz-adv-x="1333" 
d="M1072 1647q24 0 52 -48q6 -10 131 -176q15 -25 11 -44t-35 -19t-107 52q-75 52 -91 59q-16 6 -23 2q-131 -61 -213 -91t-86 4q-8 27 34 60q203 131 253 166t74 35zM967 1284q131 0 247 -54q29 -13 33 -16q47 -12 84 13t59 4t6 -51q-15 -30 -46 -118q-31 -87 -36 -115
q-6 -28 -22 -47t-32 -19q-31 0 -35 65q7 169 -147 228q-71 27 -124 26q-217 0 -383 -188q-82 -96 -133 -246t-51 -274q0 -51 15 -128t40 -122q92 -178 299 -179q123 2 240 111q117 110 135 126t34 16q15 0 22 -19q6 -18 0 -53t-128 -238q-18 -31 -43 -16q-53 41 -98 22
q-125 -47 -233 -47q-232 1 -368 147t-136 362t99 396t263 287q191 127 439 127z" />
    <glyph glyph-name="ccircumflex" unicode="&#x109;" horiz-adv-x="741" 
d="M597 862q81 0 123 -40t42 -58q0 -51 -26 -89t-45 -38t-44 14t-39 41q-39 70 -85 70t-74 -19q-55 -33 -120 -188t-65 -328q0 -49 42 -85t85 -36q68 0 170 115q29 33 41 33t20 -14t7 -31q0 -17 -15 -41q-131 -197 -323 -197q-47 0 -100 29q-109 62 -109 216q0 74 26 174
t66 177q88 155 215 225t208 70zM699 1346q30 0 38 -56q39 -281 40 -295t-7 -36q-8 -21 -24 -21t-28 14q-13 14 -39 84t-34 97q-6 12 -27 -3q-179 -190 -214 -190t-27 42q4 19 22 40q162 193 224 270q46 54 76 54z" />
    <glyph glyph-name="Cdotaccent" unicode="&#x10a;" horiz-adv-x="1333" 
d="M1036 1618q96 0 94 -122q0 -52 -40 -88q-40 -34 -78 -34q-39 0 -70 30t-31 84t37 92t88 38zM967 1284q131 0 247 -54q29 -13 33 -16q47 -12 84 13t59 4t6 -51q-15 -30 -46 -118q-31 -87 -36 -115q-6 -28 -22 -47t-32 -19q-31 0 -35 65q7 169 -147 228q-71 27 -124 26
q-217 0 -383 -188q-82 -96 -133 -246t-51 -274q0 -51 15 -128t40 -122q92 -178 299 -179q123 2 240 111q117 110 135 126t34 16q15 0 22 -19q6 -18 0 -53t-128 -238q-18 -31 -43 -16q-53 41 -98 22q-125 -47 -233 -47q-232 1 -368 147t-136 362t99 396t263 287
q191 127 439 127z" />
    <glyph glyph-name="cdotaccent" unicode="&#x10b;" horiz-adv-x="741" 
d="M597 862q81 0 123 -40t42 -58q0 -51 -26 -89t-45 -38t-44 14t-39 41q-39 70 -85 70t-74 -19q-55 -33 -120 -188t-65 -328q0 -49 42 -85t85 -36q68 0 170 115q29 33 41 33t20 -14t7 -31q0 -17 -15 -41q-131 -197 -323 -197q-47 0 -100 29q-109 62 -109 216q0 74 26 174
t66 177q88 155 215 225t208 70zM619 1266q38 0 61 -31t22 -61q0 -72 -51 -111q-20 -19 -58 -19t-67 25t-28 66q0 68 55 114q28 17 66 17z" />
    <glyph glyph-name="Ccaron" unicode="&#x10c;" horiz-adv-x="1333" 
d="M975 1358q-18 0 -55 45q-70 94 -125 176q-16 25 -13 45q4 20 34 20t56 -26q10 -8 132 -92q6 -2 17 -2t15 2q176 84 214 97t64 11t27 -14q6 -31 -34 -59q-145 -87 -221 -145t-111 -58zM967 1284q131 0 247 -54q29 -13 33 -16q47 -12 84 13t59 4t6 -51q-15 -30 -46 -118
q-31 -87 -36 -115q-6 -28 -22 -47t-32 -19q-31 0 -35 65q7 169 -147 228q-71 27 -124 26q-217 0 -383 -188q-82 -96 -133 -246t-51 -274q0 -51 15 -128t40 -122q92 -178 299 -179q123 2 240 111q117 110 135 126t34 16q15 0 22 -19q6 -18 0 -53t-128 -238q-18 -31 -43 -16
q-53 41 -98 22q-125 -47 -233 -47q-232 1 -368 147t-136 362t99 396t263 287q191 127 439 127z" />
    <glyph glyph-name="ccaron" unicode="&#x10d;" horiz-adv-x="741" 
d="M597 862q81 0 123 -40t42 -58q0 -51 -26 -89t-45 -38t-44 14t-39 41q-39 70 -85 70t-74 -19q-55 -33 -120 -188t-65 -328q0 -49 42 -85t85 -36q68 0 170 115q29 33 41 33t20 -14t7 -31q0 -17 -15 -41q-131 -197 -323 -197q-47 0 -100 29q-109 62 -109 216q0 74 26 174
t66 177q88 155 215 225t208 70zM553 946q-29 0 -39 58q-39 284 -40 296t7 32q7 20 23 22q16 0 30 -14t19 -36q5 -20 23 -63t30 -80q4 -6 12 -5t13 7q127 127 163 159t53 32t24 -12q18 -29 -9 -58q-26 -30 -233 -285q-47 -53 -76 -53z" />
    <glyph glyph-name="Dcaron" unicode="&#x10e;" horiz-adv-x="1441" 
d="M825 1341q-18 0 -55 45q-70 94 -125 177q-16 25 -12 45t34 20t56 -26q10 -8 131 -93q6 -2 17 -2t16 2q175 83 213 97t64 12t28 -14q6 -31 -35 -60q-145 -88 -221 -146t-111 -57zM745 1180q-16 0 -46 -12t-37 -27q-29 -57 -87 -280t-113 -440q-55 -219 -59 -227t-1 -25
t8 -22q63 -73 138 -73t171 22t162 64q129 82 229 250q23 39 50 141q28 102 28 149q0 150 -41 246t-155 164q-114 70 -247 70zM1399 700q-1 -212 -147 -406q-233 -307 -748 -308l-240 12l-235 -4q-29 0 -52 11q-48 23 -1 57q22 16 92 22t101 36q32 30 62 154q163 612 183 730
t7 136t-93 31q-80 14 -78 35q0 14 21 28q22 13 73 13t84 2l330 13q322 0 482 -150t159 -412z" />
    <glyph glyph-name="dcaron" unicode="&#x10f;" horiz-adv-x="1064" 
d="M1307 1382q8 0 17 -15t4 -50t-54 -129t-88 -144q-33 -47 -74 -47q-8 -1 -14 13t-4 26q57 184 77 289q4 25 21 33q58 24 115 24zM242 170q0 -16 26 -37q27 -20 51 -20q88 0 222 161q125 160 178 349q15 51 -33 121q-23 34 -35 34q-80 0 -171 -96q-150 -158 -212 -365
q-26 -90 -26 -147zM63 193q0 133 99 305q98 172 236 268t237 96q14 0 56 -14t61 -26t26 7q76 262 86 373q2 23 -13 34q-15 12 -51 24t-47 28t-12 25q0 18 47 33q133 39 248 38q37 0 15 -112q-21 -112 -127 -518t-126 -500t-13 -104t32 -11q57 0 154 113q18 25 41 24
q35 0 4 -77q-41 -86 -125 -157t-189 -71q-55 0 -84 33q-14 29 -14 43t53 215q2 10 -4 13t-14 -3q-6 -12 -47 -58t-111 -108q-151 -134 -256 -135q-82 0 -136 89q-26 43 -26 133z" />
    <glyph glyph-name="Dcroat" unicode="&#x110;" horiz-adv-x="1441" 
d="M344 1247l420 17q315 0 483 -156q152 -143 152 -408q-1 -127 -59 -259q-58 -131 -181 -245q-227 -210 -655 -210q-76 0 -195 7t-131 7l-155 -8q-29 0 -49 11q-19 11 -19 26q0 43 90 52t120 37t66 156q4 16 34 127t50 189q6 20 -16 20l-162 -4q-3 0 -8 12q-4 12 -4 30
t13 36t20 18l168 7q16 0 22 18q87 328 86 353q-2 26 -1 34t-6 16t-9 12q-5 8 -28 12q-135 27 -132 52q0 41 86 41zM752 1180q-68 0 -93 -43q-31 -63 -118 -406q-8 -20 14 -20l291 4q6 1 13 -13t7 -32t-10 -31q-10 -14 -16 -14l-312 -11q-14 0 -22 -18q-60 -238 -76 -308
q-16 -69 -18 -75q-18 -51 16 -86q43 -55 127 -55q178 0 328 88q131 82 218 236t87 304q0 246 -139 359q-139 121 -297 121z" />
    <glyph glyph-name="dcroat" unicode="&#x111;" horiz-adv-x="1064" 
d="M1036 1384q55 0 -20 -264q0 -20 6 -20h123q14 0 12 -28t-14 -46q-6 -16 -21 -16l-123 -2q-6 0 -14 -17q-170 -651 -201 -803q-12 -53 33 -53q53 0 150 117q23 24 40 24q27 -1 18 -51q-3 -16 -7 -24q-39 -78 -126 -154t-190 -76q-40 1 -68 21t-28 48t51 222q2 10 -4 13
t-14 -3q-10 -24 -75 -92t-165 -138t-177 -71t-118 61t-41 179t99 288q98 171 236 267t235 96q59 0 115 -39q23 -14 30 6q14 49 41 156q6 23 -6 23h-176q-6 0 -16 8t-9 16q21 63 37 66h180q21 0 29 58t5 66q-5 13 -63 35q-57 23 -57 50t52 41q120 36 241 36zM242 170
q0 -20 25 -39q26 -18 52 -18q88 0 222 161q129 164 182 357q8 29 -4 55q-41 96 -70 96q-47 0 -115 -54t-134 -140q-64 -86 -111 -212t-47 -206z" />
    <glyph glyph-name="Emacron" unicode="&#x112;" horiz-adv-x="1200" 
d="M1073 1479q0 -31 -19 -53t-34 -21l-410 -2q-6 0 -14 10t-8 34q0 25 22 55t33 30l410 6q4 0 12 -14t8 -45zM870 1247q158 0 326 13q12 0 18 -20t0 -36q-31 -76 -71 -221q-7 -25 -21 -38t-28 -13q-31 0 -31 53q-2 94 -14 128t-41 42q-54 10 -152 10t-164 -10
q-18 -4 -39 -49q-41 -96 -110 -377q-2 -4 2 -13t8 -9h225q39 0 55 9q15 9 55 63q40 55 56 55t34 -20t11 -34q-41 -86 -96 -299q-5 -35 -25 -35t-34 16t-18 57q-4 39 -18 59q-22 34 -139 34q-53 0 -133 -12q-17 -9 -29 -40q-11 -32 -45 -172t-41 -184t0 -70t19 -30
q60 -18 196 -18t198 18t114 70q49 45 100 117q18 29 43 29t24 -56q-1 -55 -57 -150q-56 -96 -84 -112t-71 -16t-241 8t-402 6l-240 -10q-66 0 -65 35q0 35 63 45q104 14 133 32t49 78q102 309 246 875q14 61 -3 86t-89 38t-72 38q0 14 18 27t52 13l367 -10h161z" />
    <glyph glyph-name="emacron" unicode="&#x113;" horiz-adv-x="774" 
d="M575 786q-59 0 -141 -87t-131 -203q0 -23 12 -23q47 2 116 30t131 90t63 140q0 17 -17 35t-33 18zM256 219q0 -59 41 -89t84 -30t105 35t96 70t44 35q11 0 18 -12t7 -21q0 -47 -59 -107q-129 -129 -287 -129q-84 1 -145 55q-86 77 -86 187q0 154 84 325t207 257
q104 67 219 67q47 0 100 -26q84 -48 86 -148t-104 -176q-131 -94 -371 -113q-39 0 -39 -180zM836 1206q18 0 18 -36t-20 -68t-33 -33q-287 -10 -371 -10q-4 1 -13 15t-9 38t18 60q18 34 33 34h377z" />
    <glyph glyph-name="Ebreve" unicode="&#x114;" horiz-adv-x="1200" 
d="M808 1354q-110 0 -157 64q-47 65 -33 167q4 19 16 33t25 14q31 0 39 -49q20 -92 135 -92t185 96q31 41 49 41q19 0 25 -18t0 -41q-22 -75 -98 -145t-186 -70zM870 1247q158 0 326 13q12 0 18 -20t0 -36q-31 -76 -71 -221q-7 -25 -21 -38t-28 -13q-31 0 -31 53
q-2 94 -14 128t-41 42q-54 10 -152 10t-164 -10q-18 -4 -39 -49q-41 -96 -110 -377q-2 -4 2 -13t8 -9h225q39 0 55 9q15 9 55 63q40 55 56 55t34 -20t11 -34q-41 -86 -96 -299q-5 -35 -25 -35t-34 16t-18 57q-4 39 -18 59q-22 34 -139 34q-53 0 -133 -12q-17 -9 -29 -40
q-11 -32 -45 -172t-41 -184t0 -70t19 -30q60 -18 196 -18t198 18t114 70q49 45 100 117q18 29 43 29t24 -56q-1 -55 -57 -150q-56 -96 -84 -112t-71 -16t-241 8t-402 6l-240 -10q-66 0 -65 35q0 35 63 45q104 14 133 32t49 78q102 309 246 875q14 61 -3 86t-89 38t-72 38
q0 14 18 27t52 13l367 -10h161z" />
    <glyph glyph-name="ebreve" unicode="&#x115;" horiz-adv-x="774" 
d="M575 786q-59 0 -141 -87t-131 -203q0 -23 12 -23q47 2 116 30t131 90t63 140q0 17 -17 35t-33 18zM256 219q0 -59 41 -89t84 -30t105 35t96 70t44 35q11 0 18 -12t7 -21q0 -47 -59 -107q-129 -129 -287 -129q-84 1 -145 55q-86 77 -86 187q0 154 84 325t207 257
q104 67 219 67q47 0 100 -26q84 -48 86 -148t-104 -176q-131 -94 -371 -113q-39 0 -39 -180zM604 991q-94 1 -144 63t-24 183q16 47 39 47q15 0 27 -15t12 -34q4 -115 102 -115q90 0 158 119q25 43 57 43q27 0 14 -64t-80 -146q-67 -81 -161 -81z" />
    <glyph glyph-name="Edotaccent" unicode="&#x116;" horiz-adv-x="1200" 
d="M846 1597q96 1 94 -121q0 -52 -40 -88q-40 -34 -79 -34t-69 30t-31 83q0 54 37 92t88 38zM870 1247q158 0 326 13q12 0 18 -20t0 -36q-31 -76 -71 -221q-7 -25 -21 -38t-28 -13q-31 0 -31 53q-2 94 -14 128t-41 42q-54 10 -152 10t-164 -10q-18 -4 -39 -49
q-41 -96 -110 -377q-2 -4 2 -13t8 -9h225q39 0 55 9q15 9 55 63q40 55 56 55t34 -20t11 -34q-41 -86 -96 -299q-5 -35 -25 -35t-34 16t-18 57q-4 39 -18 59q-22 34 -139 34q-53 0 -133 -12q-17 -9 -29 -40q-11 -32 -45 -172t-41 -184t0 -70t19 -30q60 -18 196 -18t198 18
t114 70q49 45 100 117q18 29 43 29t24 -56q-1 -55 -57 -150q-56 -96 -84 -112t-71 -16t-241 8t-402 6l-240 -10q-66 0 -65 35q0 35 63 45q104 14 133 32t49 78q102 309 246 875q14 61 -3 86t-89 38t-72 38q0 14 18 27t52 13l367 -10h161z" />
    <glyph glyph-name="edotaccent" unicode="&#x117;" horiz-adv-x="774" 
d="M575 786q-59 0 -141 -87t-131 -203q0 -23 12 -23q47 2 116 30t131 90t63 140q0 17 -17 35t-33 18zM256 219q0 -59 41 -89t84 -30t105 35t96 70t44 35q11 0 18 -12t7 -21q0 -47 -59 -107q-129 -129 -287 -129q-84 1 -145 55q-86 77 -86 187q0 154 84 325t207 257
q104 67 219 67q47 0 100 -26q84 -48 86 -148t-104 -176q-131 -94 -371 -113q-39 0 -39 -180zM650 1266q38 0 61 -31t22 -61q0 -72 -51 -111q-24 -19 -60 -19t-65 25t-29 79t56 101q28 17 66 17z" />
    <glyph glyph-name="Eogonek" unicode="&#x118;" horiz-adv-x="1200" 
d="M272 1221q0 14 18 26q18 13 38 13q18 0 134 -6t247 -7h161q158 0 326 13q12 0 18 -20t0 -36q-31 -76 -71 -221q-7 -25 -21 -38t-28 -13q-31 0 -31 53q-2 152 -53 164q-66 16 -159 16t-159 -10q-18 -4 -39 -49q-41 -96 -110 -377q-2 -4 2 -13t8 -9h225q39 0 55 9
q15 9 55 63q40 55 56 55t34 -20t11 -34q-41 -86 -96 -299q-5 -35 -25 -35t-34 16t-18 57q-4 39 -18 59q-22 34 -139 34q-53 0 -133 -12q-17 -9 -29 -40q-11 -32 -45 -172t-41 -184t0 -70t19 -30q60 -18 196 -18t198 18t104 58t104 129q18 29 45 28q29 0 28 -55t-57 -150
q-56 -96 -84 -112t-65 -16h-43q-207 -166 -207 -291q0 -33 22 -55q23 -22 61 -21q38 0 120 43q12 4 26 -2t13 -22q0 -16 -14 -41q-35 -57 -100 -91t-137 -32q-72 0 -120 49q-49 49 -49 112q0 170 283 353q-350 12 -504 12l-240 -10q-66 0 -65 35q0 35 63 45q104 14 133 32
t49 78q102 309 246 875q14 61 -4 88t-89 39t-71 39z" />
    <glyph glyph-name="eogonek" unicode="&#x119;" horiz-adv-x="774" 
d="M575 786q-59 0 -141 -87t-131 -203q0 -23 12 -23q47 2 116 30t131 90t63 140q0 17 -17 35t-33 18zM256 211q0 -47 47 -81t93 -34t98 35q51 35 86 72t46 37t18 -12t7 -21q0 -49 -49 -99t-110 -85q-102 -78 -176 -167t-74 -161q0 -33 22 -55t60 -23q38 0 120 43q12 6 26 0
t13 -18q6 -20 -14 -45q-35 -57 -99 -91t-136 -32q-72 0 -121 49t-50 110q0 156 254 338h-12q-84 1 -145 55q-86 77 -86 187q0 154 84 325t207 257q104 68 219 67q47 0 100 -26q84 -48 86 -148t-104 -176q-131 -94 -371 -113q-39 0 -39 -188z" />
    <glyph glyph-name="Ecaron" unicode="&#x11a;" horiz-adv-x="1200" 
d="M786 1335q-18 0 -55 45q-70 94 -125 176q-16 26 -12 46t34 20t56 -27q10 -8 131 -92q5 -4 17 -4t102 44q90 43 128 57t63 12q26 -2 28 -15q6 -31 -35 -59q-145 -88 -221 -146t-111 -57zM870 1247q158 0 326 13q12 0 18 -20t0 -36q-31 -76 -71 -221q-7 -25 -21 -38
t-28 -13q-31 0 -31 53q-2 94 -14 128t-41 42q-54 10 -152 10t-164 -10q-18 -4 -39 -49q-41 -96 -110 -377q-2 -4 2 -13t8 -9h225q39 0 55 9q15 9 55 63q40 55 56 55t34 -20t11 -34q-41 -86 -96 -299q-5 -35 -25 -35t-34 16t-18 57q-4 39 -18 59q-22 34 -139 34
q-53 0 -133 -12q-17 -9 -29 -40q-11 -32 -45 -172t-41 -184t0 -70t19 -30q60 -18 196 -18t198 18t114 70q49 45 100 117q18 29 43 29t24 -56q-1 -55 -57 -150q-56 -96 -84 -112t-71 -16t-241 8t-402 6l-240 -10q-66 0 -65 35q0 35 63 45q104 14 133 32t49 78
q102 309 246 875q14 61 -3 86t-89 38t-72 38q0 14 18 27t52 13l367 -10h161z" />
    <glyph glyph-name="ecaron" unicode="&#x11b;" horiz-adv-x="774" 
d="M575 786q-59 0 -141 -87t-131 -203q0 -23 12 -23q47 2 116 30t131 90t63 140q0 17 -17 35t-33 18zM256 219q0 -59 41 -89t84 -30t105 35t96 70t44 35q11 0 18 -12t7 -21q0 -47 -59 -107q-129 -129 -287 -129q-84 1 -145 55q-86 77 -86 187q0 154 84 325t207 257
q104 67 219 67q47 0 100 -26q84 -48 86 -148t-104 -176q-131 -94 -371 -113q-39 0 -39 -180zM557 942q-29 0 -39 57q-39 283 -40 296t7 33q7 20 23 22q16 0 30 -14t19 -36q5 -20 23 -63t30 -80q4 -6 12 -5q8 2 74 68t102 98t53 32t25 -12q19 -30 -20 -72q-16 -16 -223 -271
q-47 -53 -76 -53z" />
    <glyph glyph-name="Gcircumflex" unicode="&#x11c;" horiz-adv-x="1454" 
d="M1124 1647q24 0 52 -48q6 -10 131 -176q16 -25 11 -44t-36 -19t-107 52q-75 52 -90 59q-15 6 -24 2q-131 -61 -213 -91t-86 4q-8 27 35 60q203 131 235 156q68 45 92 45zM1423 575q0 -10 -49 -22q-92 -23 -106 -72q-57 -215 -117 -395q-12 -43 -51 -57q-195 -66 -367 -66
q-259 0 -411 154t-152 383q0 156 97 347t293 314t484 123q82 0 190 -26t155 -25l55 6q8 0 18 -25t0 -38q-90 -123 -125 -242q-14 -45 -47 -45q-39 0 -26 74q2 14 9 47t1 54t-27 51t-93 59t-136 28q-223 0 -391 -170q-103 -104 -165 -256t-62 -302t69 -261q47 -76 131 -123
t168 -47q126 0 194 128t95 267q6 16 1 30t-5 24q0 8 -23 23t-68 24q-44 8 -59 12q-45 10 -45 49q0 29 49 29l260 -11q47 0 131 7l82 6q16 -1 30 -19t13 -37z" />
    <glyph glyph-name="gcircumflex" unicode="&#x11d;" horiz-adv-x="804" 
d="M338 -416q225 0 225 133q0 19 -43 69t-229 136q-33 8 -41 6q-76 -20 -148 -71t-71 -107q0 -22 12 -50t23 -36q44 -32 118 -56t154 -24zM510 782q-68 0 -154 -133t-86 -287q-2 -55 25 -74q27 -20 53 -20t79 52q52 52 93 160t41 180t-17 98q-18 24 -34 24zM518 862
q68 0 102 -20t44 -18q150 22 210 22q8 0 18 -13t9 -36q0 -23 -15 -53t-30 -29q-37 0 -139 20q-4 2 -9 -5q-5 -8 2 -28t7 -59q1 -117 -59 -222t-126 -147t-178 -73q-14 -3 -24 -19t-11 -32q0 -49 80 -93q178 -102 260 -184q19 -16 39 -51t21 -53q0 -63 -47 -123
q-124 -160 -441 -160q-63 0 -146 24t-142 68q-84 63 -84 150t143 174q37 20 186 78q4 0 8 9q3 9 -6 19q-8 10 -16 28t-3 43q5 24 17 36q54 54 74 69q2 10 -12 17q-53 16 -94 73t-41 125q0 133 84 257t182 171q69 35 137 35zM664 1352q29 0 38 -56q39 -280 40 -294t-7 -36
t-23 -22t-29 14q-13 14 -37 84t-36 97q-6 12 -26 -2q-180 -191 -215 -191t-27 42q4 19 23 40q162 193 223 270q47 54 76 54z" />
    <glyph glyph-name="Gbreve" unicode="&#x11e;" horiz-adv-x="1454" 
d="M1046 1389q-110 1 -157 65t-33 166q4 20 16 34t25 13q31 0 39 -49q20 -92 135 -92t184 96q31 41 49 41t25 -18q6 -18 0 -41q-23 -76 -98 -146q-75 -69 -185 -69zM1423 575q0 -10 -49 -22q-92 -23 -106 -72q-57 -215 -117 -395q-12 -43 -51 -57q-195 -66 -367 -66
q-259 0 -411 154t-152 383q0 156 97 347t293 314t484 123q82 0 190 -26t155 -25l55 6q8 0 18 -25t0 -38q-90 -123 -125 -242q-14 -45 -47 -45q-39 0 -26 74q2 14 9 47t1 54t-27 51t-93 59t-136 28q-223 0 -391 -170q-103 -104 -165 -256t-62 -302t69 -261q47 -76 131 -123
t168 -47q126 0 194 128t95 267q6 16 1 30t-5 24q0 8 -23 23t-68 24q-44 8 -59 12q-45 10 -45 49q0 29 49 29l260 -11q47 0 131 7l82 6q16 -1 30 -19t13 -37z" />
    <glyph glyph-name="gbreve" unicode="&#x11f;" horiz-adv-x="804" 
d="M338 -416q225 0 225 133q0 19 -43 69t-229 136q-33 8 -41 6q-76 -20 -148 -71t-71 -107q0 -22 12 -50t23 -36q44 -32 118 -56t154 -24zM510 782q-68 0 -154 -133t-86 -287q-2 -55 25 -74q27 -20 53 -20t79 52q52 52 93 160t41 180t-17 98q-18 24 -34 24zM518 862
q68 0 102 -20t44 -18q150 22 210 22q8 0 18 -13t9 -36q0 -23 -15 -53t-30 -29q-37 0 -139 20q-4 2 -9 -5q-5 -8 2 -28t7 -59q1 -117 -59 -222t-126 -147t-178 -73q-14 -3 -24 -19t-11 -32q0 -49 80 -93q178 -102 260 -184q19 -16 39 -51t21 -53q0 -63 -47 -123
q-124 -160 -441 -160q-63 0 -146 24t-142 68q-84 63 -84 150t143 174q37 20 186 78q4 0 8 9q3 9 -6 19q-8 10 -16 28t-3 43q5 24 17 36q54 54 74 69q2 10 -12 17q-53 16 -94 73t-41 125q0 133 84 257t182 171q69 35 137 35zM551 995q-94 1 -144 63t-24 183q16 47 39 47
q16 0 28 -15t11 -34q4 -115 102 -115q90 0 158 119q25 43 57 43q27 0 14 -64t-80 -146q-67 -81 -161 -81z" />
    <glyph glyph-name="Gdotaccent" unicode="&#x120;" horiz-adv-x="1454" 
d="M1089 1616q95 0 95 -122q0 -52 -40 -88q-40 -34 -79 -34t-70 30t-31 84t37 92t88 38zM1423 575q0 -10 -49 -22q-92 -23 -106 -72q-57 -215 -117 -395q-12 -43 -51 -57q-195 -66 -367 -66q-259 0 -411 154t-152 383q0 156 97 347t293 314t484 123q82 0 190 -26t155 -25
l55 6q8 0 18 -25t0 -38q-90 -123 -125 -242q-14 -45 -47 -45q-39 0 -26 74q2 14 9 47t1 54t-27 51t-93 59t-136 28q-223 0 -391 -170q-103 -104 -165 -256t-62 -302t69 -261q47 -76 131 -123t168 -47q126 0 194 128t95 267q6 16 1 30t-5 24q0 8 -23 23t-68 24q-44 8 -59 12
q-45 10 -45 49q0 29 49 29l260 -11q47 0 131 7l82 6q16 -1 30 -19t13 -37z" />
    <glyph glyph-name="gdotaccent" unicode="&#x121;" horiz-adv-x="804" 
d="M338 -416q225 0 225 133q0 19 -43 69t-229 136q-33 8 -41 6q-76 -20 -148 -71t-71 -107q0 -22 12 -50t23 -36q44 -32 118 -56t154 -24zM510 782q-68 0 -154 -133t-86 -287q-2 -55 25 -74q27 -20 53 -20t79 52q52 52 93 160t41 180t-17 98q-18 24 -34 24zM518 862
q68 0 102 -20t44 -18q150 22 210 22q8 0 18 -13t9 -36q0 -23 -15 -53t-30 -29q-37 0 -139 20q-4 2 -9 -5q-5 -8 2 -28t7 -59q1 -117 -59 -222t-126 -147t-178 -73q-14 -3 -24 -19t-11 -32q0 -49 80 -93q178 -102 260 -184q19 -16 39 -51t21 -53q0 -63 -47 -123
q-124 -160 -441 -160q-63 0 -146 24t-142 68q-84 63 -84 150t143 174q37 20 186 78q4 0 8 9q3 9 -6 19q-8 10 -16 28t-3 43q5 24 17 36q54 54 74 69q2 10 -12 17q-53 16 -94 73t-41 125q0 133 84 257t182 171q69 35 137 35zM599 1266q39 0 61 -31t22 -61q0 -72 -51 -111
q-21 -19 -59 -19t-66 25t-29 79q0 54 55 101q29 17 67 17z" />
    <glyph glyph-name="Gcommaaccent" unicode="&#x122;" horiz-adv-x="1454" 
d="M496 -492q-18 0 -36 10t-18 21q0 23 43 43q53 16 89 46t37 63t-38 45q-45 18 -53 45l-2 22q0 35 33 66t80 31t80 -40t32 -104q1 -116 -81 -182t-166 -66zM1423 575q0 -10 -49 -22q-92 -23 -106 -72q-57 -215 -117 -395q-12 -43 -51 -57q-195 -66 -367 -66
q-259 0 -411 154t-152 383q0 156 97 347t293 314t484 123q82 0 190 -26t155 -25l55 6q8 0 18 -25t0 -38q-90 -123 -125 -242q-14 -45 -47 -45q-39 0 -26 74q2 14 9 47t1 54t-27 51t-93 59t-136 28q-223 0 -391 -170q-103 -104 -165 -256t-62 -302t69 -261q47 -76 131 -123
t168 -47q126 0 194 128t95 267q6 16 1 30t-5 24q0 8 -23 23t-68 24q-44 8 -59 12q-45 10 -45 49q0 29 49 29l260 -11q47 0 131 7l82 6q16 -1 30 -19t13 -37z" />
    <glyph glyph-name="gcommaaccent" unicode="&#x123;" horiz-adv-x="804" 
d="M338 -416q225 0 225 133q0 19 -43 69t-229 136q-33 8 -41 6q-76 -20 -148 -71t-71 -107q0 -22 12 -50t23 -36q44 -32 118 -56t154 -24zM510 782q-68 0 -154 -133t-86 -287q-2 -55 25 -74q27 -20 53 -20t79 52q52 52 93 160t41 180t-17 98q-18 24 -34 24zM518 862
q68 0 102 -20t44 -18q150 22 210 22q8 0 18 -13t9 -36q0 -23 -15 -53t-30 -29q-37 0 -139 20q-4 2 -9 -5q-5 -8 2 -28t7 -59q1 -117 -59 -222t-126 -147t-178 -73q-14 -3 -24 -19t-11 -32q0 -49 80 -93q178 -102 260 -184q19 -16 39 -51t21 -53q0 -63 -47 -123
q-124 -160 -441 -160q-63 0 -146 24t-142 68q-84 63 -84 150t143 174q37 20 186 78q4 0 8 9q3 9 -6 19q-8 10 -16 28t-3 43q5 24 17 36q54 54 74 69q2 10 -12 17q-53 16 -94 73t-41 125q0 133 84 257t182 171q69 35 137 35zM700 1319q45 0 45 -25q0 -17 -14 -26
q-14 -8 -20 -12t-32 -15q-26 -10 -61 -39q-34 -28 -34 -54t24 -34q4 -2 12 -5t10 -5q3 -2 9 -5q29 -14 29 -51q0 -36 -31 -64t-75 -28t-76 36t-31 95q-1 98 83 165t162 67z" />
    <glyph glyph-name="Hcircumflex" unicode="&#x124;" horiz-adv-x="1525" 
d="M1100 1636q24 0 51 -47q6 -10 131 -176q16 -25 11 -44t-25 -19t-56 17t-86 52q-51 35 -64 42t-26 1q-131 -61 -213 -90t-86 4q-8 27 35 60q204 132 254 166t74 34zM299 1223q0 31 66 30l192 -6q13 0 221 13q63 0 64 -35q0 -34 -86 -50q-50 -9 -76 -31t-43 -79
q-66 -229 -90 -354q0 -29 22 -27q139 10 312 10t209 -6t53 25q57 178 86 289q28 110 27 122q-2 28 -76 55q-74 28 -74 48q0 31 70 30l202 -10l203 8q59 -1 59 -31t-64 -49t-85 -37q-20 -18 -42 -64q-22 -48 -118 -401q-95 -353 -115 -441t0 -112t74 -40q52 -16 64 -28
t10 -27q0 -33 -68 -33l-241 8l-199 -10q-28 0 -52 11t-24 26q0 31 70 44t100 38t49 92q66 203 101 352q8 31 -17 35q-61 6 -228 6t-304 -10q-35 -6 -43 -27q-118 -390 -85 -440q17 -27 105 -47q12 -4 28 -16t17 -27q0 -14 -24 -25q-25 -10 -49 -10l-217 8l-250 -12
q-23 0 -41 10t-18 24t20 28q20 13 41 18q113 24 147 96t135 428q100 356 125 491q8 47 -6 63t-76 30q-62 16 -61 47z" />
    <glyph glyph-name="hcircumflex" unicode="&#x125;" horiz-adv-x="1050" 
d="M552 1692q24 0 52 -47q6 -10 131 -177q16 -25 11 -44t-37 -19q-32 1 -106 53t-89 58t-25 2q-131 -60 -213 -90t-86 4q-8 27 35 59q203 131 253 166t74 35zM831 862q55 0 101 -52t45 -138q0 -156 -45 -295t-78 -190t-71 -85q-37 -34 -106 -90q-69 -57 -97 -57t-62 26
q-35 26 -37 58q4 33 60 88q2 2 12 4t13 1t36 -20q34 -20 52 -20t44 51t65 218q40 167 40 271t-58 105q-47 -1 -91 -27t-113 -104q-145 -162 -303 -561q-29 -74 -50 -74q-12 1 -42 13t-42 30t5 97q190 807 253 1073q8 35 -14 51q-98 45 -98 57t10 26t40 25q30 9 115 25
t124 16t23 -74t-88 -334q-71 -259 -99 -382q0 -8 7 -16t11 -7q172 175 259 233t179 58z" />
    <glyph glyph-name="Hbar" unicode="&#x126;" horiz-adv-x="1525" 
d="M1090 645q27 0 36 25q0 2 19 57t27 85t-5 30l-579 -8q-14 0 -19 -19q-37 -141 -39 -153q-4 -27 21 -27q283 10 539 10zM236 860q0 26 16 47q12 12 20 13l123 2q8 0 17 22q25 104 26 111q30 103 -60 119q-78 14 -79 47q0 33 70 32l192 -6q9 0 217 13q63 0 64 -39
q0 -31 -86 -44q-45 -7 -75 -35q-31 -28 -63 -155q-8 -29 -12 -40t1 -18t11 -7l572 6q12 0 20 24q25 73 37 113q12 41 -1 70q-12 29 -76 45t-64 43q0 35 65 34l205 -10l201 6q63 0 63 -30q0 -39 -60 -51t-86 -32q-26 -22 -40 -54t-47 -136q-6 -20 10 -20h109q4 0 10 -10
t6 -29t-13 -33t-22 -14l-116 -2q-16 0 -23 -27q-123 -446 -156 -598q-4 -41 -6 -63q-5 -51 84 -78q58 -19 66 -29t8 -18q-4 -35 -74 -35l-237 6l-207 -10q-27 0 -46 11t-20 28q0 27 68 40t97 39q62 53 142 402q8 35 -16 35q-274 4 -549 -13q-20 0 -33 -32q-37 -123 -71 -291
q-14 -73 5 -95t81 -36t63 -45q-2 -39 -73 -39l-240 6l-225 -10q-23 0 -39 11t-15 26q0 29 69 45q70 16 102 44t63 106t170 593q0 20 -8 21l-115 -2q-20 0 -20 26z" />
    <glyph glyph-name="hbar" unicode="&#x127;" horiz-adv-x="1050" 
d="M831 862q55 0 101 -52t45 -138q0 -156 -45 -295t-78 -190t-71 -85q-37 -34 -106 -90q-69 -57 -97 -57t-62 26q-35 26 -37 58q4 33 60 88q2 2 12 4t13 1t36 -20q34 -20 52 -20t44 51t65 218q40 167 40 271t-58 105q-47 -1 -91 -27t-113 -104q-145 -162 -303 -561
q-29 -74 -50 -74q-12 1 -42 13t-37 22q-18 26 -1 96t205 883q6 23 -10 23h-108q-19 0 -19 24t12 45q12 20 21 21h117q6 0 12 8t6 10l14 64q12 39 -12 54q-24 16 -52 28t-36 18t-8 14t11 24t40 26q29 8 116 24t124 16q10 0 17 -26t-1 -53l-16 -70q-18 -69 -28 -103t7 -34h191
q6 0 11 -10t5 -23q0 -12 -9 -34t-20 -21l-202 -2q-12 0 -21 -23q-20 -70 -54 -209t-46 -182q0 -8 7 -16t11 -7q178 183 260 237t178 54z" />
    <glyph glyph-name="Itilde" unicode="&#x128;" horiz-adv-x="710" 
d="M886 1622q8 0 30 -22q23 -22 7 -38q-17 -16 -57 -70t-57 -71q-23 -18 -46 -18t-103 8t-122 5q-42 -2 -64 -22t-38 -38q-8 -23 -28 -23q-10 1 -28 15t-18 27t39 71t60 80q35 22 55 22l213 -12q49 0 67 11t50 43t40 32zM-25 27q0 41 80 55q115 18 131 68q177 578 263 938
q9 38 -5 56t-80 30q-66 13 -65 40q4 37 55 37l166 -4l285 10q25 0 38 -12t13 -28q0 -25 -51 -35q-80 -12 -104 -30t-48 -87q-84 -233 -235 -797q-14 -59 -18 -94q-4 -34 12 -56q14 -22 33 -32t67 -24t47 -42q0 -35 -59 -34l-289 12l-164 -2q-72 0 -72 31z" />
    <glyph glyph-name="itilde" unicode="&#x129;" horiz-adv-x="567" 
d="M424 862q18 0 37 -26q18 -27 18 -57t-12 -69q-12 -40 -95 -278t-86 -246t1 -15t16 -7t58 26t75 50q29 22 46 22q18 0 18 -26t-46 -88q-46 -60 -142 -118t-154 -59q-24 0 -48 25q-24 26 -24 50t20 75q41 88 181 512q19 55 -7 55t-78 -36t-87 -68q-6 -6 -19 10
q-12 16 -12 27t18 38q56 83 150 143t172 60zM520 1055q-20 0 -88 13t-109 13t-75 -36q-34 -35 -45 -35q-9 0 -25 15t-16 25q0 27 62 86q62 58 95 78q33 16 50 13q53 -27 129 -27t103 20q26 20 63 58q8 8 32 -7t25 -27q0 -12 -10 -24q-10 -11 -76 -76t-80 -77t-35 -12z" />
    <glyph glyph-name="Imacron" unicode="&#x12a;" horiz-adv-x="710" 
d="M395 1449q0 24 29 60q17 25 27 25l409 6q4 0 12 -14t8 -45t-24 -56q-14 -18 -29 -18l-409 -2q-6 0 -15 10q-8 10 -8 34zM-25 27q0 41 80 55q115 18 131 68q177 578 263 938q9 38 -5 56t-80 30q-66 13 -65 40q4 37 55 37l166 -4l285 10q25 0 38 -12t13 -28q0 -25 -51 -35
q-80 -12 -104 -30t-48 -87q-84 -233 -235 -797q-14 -59 -18 -94q-4 -34 12 -56q14 -22 33 -32t67 -24t47 -42q0 -35 -59 -34l-289 12l-164 -2q-72 0 -72 31z" />
    <glyph glyph-name="imacron" unicode="&#x12b;" horiz-adv-x="567" 
d="M424 862q18 0 37 -26q18 -27 18 -57t-12 -69q-12 -40 -95 -278t-86 -246t1 -15t16 -7t58 26t75 50q29 22 46 22q18 0 18 -26t-46 -88q-46 -60 -142 -118t-154 -59q-24 0 -48 25q-24 26 -24 50t20 75q41 88 181 512q19 55 -7 55t-78 -36t-87 -68q-6 -6 -19 10
q-12 16 -12 27t18 38q56 83 150 143t172 60zM625 1206q18 0 18 -36q-1 -36 -21 -68t-32 -33q-287 -10 -371 -10q-4 1 -13 15t-9 38t18 60q18 34 33 34h377z" />
    <glyph glyph-name="Ibreve" unicode="&#x12c;" horiz-adv-x="710" 
d="M610 1356q-110 0 -157 64t-33 167q4 19 16 33t25 14q31 0 39 -49q20 -92 135 -92t184 96q31 41 49 41t24 -18t1 -41q-23 -76 -98 -146q-75 -69 -185 -69zM-25 27q0 41 80 55q115 18 131 68q177 578 263 938q9 38 -5 56t-80 30q-66 13 -65 40q4 37 55 37l166 -4l285 10
q25 0 38 -12t13 -28q0 -25 -51 -35q-80 -12 -104 -30t-48 -87q-84 -233 -235 -797q-14 -59 -18 -94q-4 -34 12 -56q14 -22 33 -32t67 -24t47 -42q0 -35 -59 -34l-289 12l-164 -2q-72 0 -72 31z" />
    <glyph glyph-name="ibreve" unicode="&#x12d;" horiz-adv-x="567" 
d="M424 862q18 0 37 -26q18 -27 18 -57t-12 -69q-12 -40 -95 -278t-86 -246t1 -15t16 -7t58 26t75 50q29 22 46 22q18 0 18 -26t-46 -88q-46 -60 -142 -118t-154 -59q-24 0 -48 25q-24 26 -24 50t20 75q41 88 181 512q19 55 -7 55t-78 -36t-87 -68q-6 -6 -19 10
q-12 16 -12 27t18 38q56 83 150 143t172 60zM414 1006q-94 0 -145 62q-50 62 -23 183q16 47 39 47q16 0 27 -15t12 -34q4 -115 102 -114q90 0 158 118q25 43 57 43q27 0 16 -47q-17 -83 -83 -163t-160 -80z" />
    <glyph glyph-name="Iogonek" unicode="&#x12e;" horiz-adv-x="710" 
d="M-25 27q0 41 80 55q115 18 131 68q177 578 263 938q9 38 -5 56t-80 30q-66 13 -65 40q4 37 55 37l166 -4l285 10q25 0 38 -12t13 -28q0 -25 -51 -35q-80 -12 -104 -30t-48 -87q-84 -233 -235 -797q-14 -59 -18 -94q-4 -34 12 -56q14 -22 33 -32t67 -24t47 -42
q0 -35 -59 -34q-8 0 -140 8q-207 -172 -206 -299q0 -33 20 -55t59 -21q39 0 121 43q12 4 26 -2t14 -22q2 -16 -24 -57t-90 -75t-137 -32q-73 0 -121 49t-49 112q0 168 291 363h-53l-164 -2q-72 0 -72 31z" />
    <glyph glyph-name="iogonek" unicode="&#x12f;" horiz-adv-x="567" 
d="M454 1266q39 0 62 -31t23 -61q-1 -30 -19 -65q-18 -34 -36 -49q-18 -16 -55 -16q-38 0 -67 25t-28 66q0 70 57 114q24 17 63 17zM422 862q20 0 39 -26q18 -26 18 -52t-13 -70t-96 -282t-86 -246t1 -15t16 -7t58 26t76 48q30 24 46 24q17 0 17 -28q1 -51 -105 -146
q-29 -25 -61 -45q-92 -80 -160 -179t-68 -169q0 -33 20 -55t60 -23q39 0 121 43q13 6 27 0t14 -22t-14 -41q-35 -57 -100 -91q-64 -34 -136 -32q-72 0 -121 49t-49 110q0 139 230 340q-22 0 -46 23q-24 22 -24 50t18 75q41 88 181 512q19 55 -7 55t-78 -36t-85 -68
q-6 -6 -20 10q-13 16 -13 24t18 41q58 83 152 143t170 60z" />
    <glyph glyph-name="Idotaccent" unicode="&#x130;" horiz-adv-x="710" 
d="M637 1606q97 0 95 -122q0 -52 -41 -88q-40 -34 -79 -34q-40 0 -70 30t-30 84t37 92t88 38zM-25 27q0 41 80 55q115 18 131 68q177 578 263 938q9 38 -5 56t-80 30q-66 13 -65 40q4 37 55 37l166 -4l285 10q25 0 38 -12t13 -28q0 -25 -51 -35q-80 -12 -104 -30t-48 -87
q-84 -233 -235 -797q-14 -59 -18 -94q-4 -34 12 -56q14 -22 33 -32t67 -24t47 -42q0 -35 -59 -34l-289 12l-164 -2q-72 0 -72 31z" />
    <glyph glyph-name="dotlessi" unicode="&#x131;" horiz-adv-x="567" 
d="M424 862q18 0 37 -26q18 -27 18 -57t-12 -69q-12 -40 -95 -278t-86 -246t1 -15t16 -7t58 26t75 50q29 22 46 22q18 0 18 -26t-46 -88q-46 -60 -142 -118t-154 -59q-24 0 -48 25q-24 26 -24 50t20 75q41 88 181 512q19 55 -7 55t-78 -36t-87 -68q-6 -6 -19 10
q-12 16 -12 27t18 38q56 83 150 143t172 60z" />
    <glyph glyph-name="IJ" unicode="&#x132;" horiz-adv-x="1423" 
d="M436 -254q16 29 40 29q24 -1 40 -15t24 -20t23 -20l19 -19q80 -72 116 -72q88 0 166 289q274 1016 290 1100t4 109q-13 23 -89 43t-76 51q4 35 58 34l233 -8l246 8q25 0 40 -11t13 -25q4 -35 -67 -47q-70 -12 -100 -36q-30 -22 -48 -89q-76 -271 -176 -655t-141 -504
t-129 -208q-145 -145 -306 -145q-125 0 -170 59q-26 29 -26 76t16 76zM-25 27q0 41 80 55q115 18 131 68q177 578 263 938q9 38 -5 56t-80 30q-66 13 -65 40q4 37 55 37l166 -4l285 10q25 0 38 -12t13 -28q0 -25 -51 -35q-80 -12 -104 -30t-48 -87q-84 -233 -235 -797
q-14 -59 -18 -94q-4 -34 12 -56q14 -22 33 -32t67 -24t47 -42q0 -35 -59 -34l-289 12l-164 -2q-72 0 -72 31z" />
    <glyph glyph-name="ij" unicode="&#x133;" horiz-adv-x="1130" 
d="M1030 1044q-36 0 -64 24t-28 65t17 73t40 46t66 14t65 -32t21 -77q0 -45 -40 -79t-77 -34zM1024 862q22 0 39 -29q10 -19 9 -51t-101 -404q-99 -372 -137 -496t-106 -209t-132 -124q-111 -63 -175 -63t-98 27t-34 50t20 52q38 55 75 55q18 0 24 -4t22 -16t24 -16t19 -13
q30 -20 62 -20q51 0 92 125q29 82 137 488t115 437q6 30 -11 31q-16 0 -73 -39t-101 -80q-4 -6 -18 -1t-14 16q0 39 14 67q34 53 148 135t200 82zM454 1266q39 0 62 -31t23 -61q-1 -30 -19 -65q-18 -34 -36 -49q-18 -16 -55 -16q-38 0 -67 25t-28 66q0 70 57 114
q24 17 63 17zM422 862q20 0 39 -26q18 -26 18 -52t-13 -70t-96 -282t-86 -246t1 -15t16 -7t58 26t76 48q30 24 46 24q17 0 17 -28t-46 -88q-46 -58 -142 -116t-137 -58q-39 0 -63 24q-24 26 -24 52t18 73q41 88 181 512q19 55 -7 55t-78 -36t-85 -68q-6 -6 -20 10
q-13 16 -13 24t18 41q58 83 152 143t170 60z" />
    <glyph glyph-name="Jcircumflex" unicode="&#x134;" horiz-adv-x="712" 
d="M700 1628q24 0 52 -47q6 -10 131 -176q16 -25 11 -44q-14 -55 -167 50q-51 35 -65 42t-25 1q-131 -61 -213 -90t-86 4q-8 27 35 59q203 131 235 156q68 45 92 45zM-94 -465q-125 0 -170 59q-27 29 -27 76q1 47 17 76t39 29q23 -1 40 -15t25 -20t22 -20l19 -19
q80 -72 117 -72q88 0 166 289q274 1016 290 1100t3 109q-13 23 -89 43t-75 51q4 35 57 34l233 -8l246 8q25 0 40 -11t13 -25q4 -35 -66 -47t-100 -36q-30 -22 -49 -89q-76 -271 -176 -655t-141 -504t-129 -208q-145 -144 -305 -145z" />
    <glyph glyph-name="jcircumflex" unicode="&#x135;" horiz-adv-x="563" 
d="M545 1350q29 0 39 -56q39 -280 40 -294q0 -14 -8 -36t-23 -22t-29 14q-13 14 -17 33q-47 119 -55 148q-6 12 -27 -2q-180 -191 -215 -191t-27 42q4 19 23 40q162 193 223 270q47 54 76 54zM457 862q22 0 39 -29q10 -19 9 -51t-101 -404t-138 -496t-106 -209t-131 -124
q-111 -63 -175 -63t-99 27q-34 27 -34 50t30 65t56 42q27 0 33 -4t22 -16q67 -49 105 -49q51 0 92 125q29 82 138 488t113 429t0 31q-3 8 -14 8q-10 0 -68 -39t-101 -80q-4 -6 -18 -1t-15 16q0 39 15 67q33 53 147 135t201 82z" />
    <glyph glyph-name="Kcommaaccent" unicode="&#x136;" horiz-adv-x="1386" 
d="M522 -467q-18 0 -36 9q-17 9 -17 22q0 23 43 43q53 16 89 46q36 31 37 61t-30 42q-2 2 -8 4q-45 18 -53 45q-2 8 -2 33t33 56q34 30 80 30t79 -40t33 -103q0 -117 -82 -183t-166 -65zM854 1221q0 -33 -70 -45q-113 -18 -145 -109q-41 -115 -96 -340q-12 -53 8 -53
q33 0 115 58t254 199q172 140 196 178t-10 46q-33 7 -50 25t-18 32q0 14 22 24t118 11q96 0 331 13q61 0 62 -35q-1 -15 -19 -29t-60 -20q-98 -14 -243 -103q-209 -131 -461 -338q-18 -18 -14 -39q53 -135 136 -297t126 -217q80 -96 205 -119q23 -4 39 -16t16 -25
q0 -14 -20 -26t-53 -12q-176 0 -267 18q-70 14 -142 137t-193 416q-36 78 -68 49q-35 -12 -49 -37t-49 -155t-42 -190q-7 -62 6 -90t28 -36t47 -16q70 -20 69 -53q0 -33 -61 -33l-154 6l-319 -10q-27 0 -49 10t-21 25q1 31 63 47t84 25t49 34t49 81t113 372q92 315 129 458
q16 66 -1 94t-81 41t-59 44q0 35 64 34l213 -8l211 8q25 0 43 -10t18 -24z" />
    <glyph glyph-name="kcommaaccent" unicode="&#x137;" horiz-adv-x="1005" 
d="M246 -469q-18 0 -36 9q-17 9 -17 22q0 20 43 43q53 16 89 46t37 62t-38 45q-45 18 -54 45l-2 23q0 36 33 66t80 30t80 -40t33 -103q0 -117 -82 -183t-166 -65zM688 725q-55 0 -138 -69t-169 -236q-2 -8 9 -18t37 -9q25 0 99 32q74 31 142 99t68 134t-48 67zM782 862
q58 0 96 -41t37 -90q2 -125 -112 -215q-55 -45 -126 -86t-95 -49q-6 -4 -14 -16t-5 -15q12 -12 51 -72t74 -106t78 -45q43 0 113 102q27 33 39 33q25 0 27 -39q1 -16 -7 -35q-58 -119 -116 -169t-132 -50t-147 117q-10 14 -42 68t-57 94q-47 70 -92 69q-10 0 -44 -63
t-97 -256q-2 -6 -17 -16t-31 -10q-17 0 -45 25q-28 26 -28 44q0 43 10 81t124 478q114 438 145 582q10 43 -4 58q-13 16 -69 28t-56 26t15 30t36 26t109 22t121 12q32 0 44 -14t5 -49q-7 -34 -53 -204t-128 -484q0 -12 14 -17q41 41 119 106q78 64 140 102t120 38z" />
    <glyph glyph-name="kgreenlandic" unicode="&#x138;" horiz-adv-x="1001" 
d="M715 119q53 0 153 121q8 10 26 7t21 -32q2 -29 -24 -68q-49 -84 -121 -132t-133 -48q-96 0 -148 142q-10 31 -59 186q-10 37 -28 50t-31 -3q-49 -56 -69 -108t-49 -111q-28 -59 -38 -82t-32 -45q-21 -22 -43 -21t-46 21q-51 45 6 178q102 240 191 494q20 45 -17 45
q-66 0 -153 -84q-10 -10 -30 -4q-19 6 -19 24t22 58q44 73 116 113t146 40q149 0 80 -211q-29 -84 -49 -135t-23 -62q-3 -12 4 -14t22 14t87 101q72 84 119 131q170 174 289 174q47 0 73 -35q45 -59 14 -105q-11 -15 -20 -11q-42 10 -104 10q-62 -1 -152 -63t-182 -177
l-2 -4v-14q29 -33 59 -107q47 -139 79 -186t65 -47z" />
    <glyph glyph-name="Lacute" unicode="&#x139;" horiz-adv-x="1220" 
d="M991 1558q1 -34 -67 -72t-287 -132q-51 -18 -78 4q-10 8 -2 30t30 41q23 19 133 105t146 108t66 3q10 -3 34 -37t25 -50zM475 88q285 0 329 7q83 13 121 50t105 113t91 76t24 -36t-40 -118t-74 -130q-33 -48 -95 -55t-182 -7l-453 12l-252 -8q-74 0 -74 24q-1 14 17 32
t41 22q98 16 126 33q29 17 51 92t119 455t107 423t2 63t-70 38q-62 20 -61 38q0 18 22 30t52 11l188 -6l226 13q68 0 67 -43q0 -25 -55 -35q-84 -8 -113 -28q-30 -20 -58 -96q-28 -75 -108 -393q-80 -317 -101 -421t-2 -130t50 -26z" />
    <glyph glyph-name="lacute" unicode="&#x13a;" horiz-adv-x="552" 
d="M866 1661q0 -35 -68 -73t-286 -132q-51 -18 -78 4q-10 8 -2 30t30 42t132 104q110 86 141 107q43 25 72 4q11 -4 35 -37t24 -49zM268 1311q0 15 20 33t40 22q143 18 235 18q20 0 21 -32q2 -32 -3 -52q-5 -22 -135 -496t-159 -611q-14 -68 35 -68q38 0 108 70q20 20 28 27
t25 6q17 0 17 -22t-17 -54q-47 -80 -124 -130t-156 -51q-39 0 -68 37t-29 76q0 92 93 414q147 557 190 729q4 20 -16 33q-21 14 -63 24t-42 27z" />
    <glyph glyph-name="Lcommaaccent" unicode="&#x13b;" horiz-adv-x="1220" 
d="M406 -475q-18 0 -36 9q-17 9 -18 22q0 23 43 43q53 16 89 46q36 31 37 61t-29 42q-2 2 -9 4q-45 18 -53 45l-2 23q0 36 33 66t80 30t80 -40t32 -103q1 -117 -81 -183t-166 -65zM475 88q285 0 329 7q83 13 121 50t105 113t91 76t24 -36t-40 -118t-74 -130q-33 -48 -95 -55
t-182 -7l-453 12l-252 -8q-74 0 -74 24q-1 14 17 32t41 22q98 16 126 33q29 17 51 92t119 455t107 423t2 63t-70 38q-62 20 -61 38q0 18 22 30t52 11l188 -6l226 13q68 0 67 -43q0 -25 -55 -35q-84 -8 -113 -28q-30 -20 -58 -96q-28 -75 -108 -393q-80 -317 -101 -421
t-2 -130t50 -26z" />
    <glyph glyph-name="lcommaaccent" unicode="&#x13c;" horiz-adv-x="552" 
d="M49 -481q-18 0 -36 9q-17 9 -17 21q0 20 43 43q53 16 89 46t37 62q1 30 -30 42q-2 2 -8 4q-45 18 -53 45q-2 8 -2 33q0 26 32 56t80 30q47 0 80 -40t33 -103q0 -117 -82 -183t-166 -65zM268 1311q0 15 20 33t40 22q143 18 235 18q20 0 21 -32q2 -32 -3 -52
q-5 -22 -135 -496t-159 -611q-14 -68 35 -68q38 0 108 70q20 20 28 27t25 6q17 0 17 -22t-17 -54q-47 -80 -124 -130t-156 -51q-39 0 -68 37t-29 76q0 92 93 414q147 557 190 729q4 20 -16 33q-21 14 -63 24t-42 27z" />
    <glyph glyph-name="Lcaron" unicode="&#x13d;" horiz-adv-x="1220" 
d="M1194 1282q8 0 17 -15t8 -34q-7 -51 -57 -145t-89 -144q-33 -47 -74 -47q-8 0 -14 13t-4 26q57 184 78 289q4 25 20 32q58 25 115 25zM475 88q285 0 329 7q83 13 121 50t105 113t91 76t24 -36t-40 -118t-74 -130q-33 -48 -95 -55t-182 -7l-453 12l-252 -8q-74 0 -74 24
q-1 14 17 32t41 22q98 16 126 33q29 17 51 92t119 455t107 423t2 63t-70 38q-62 20 -61 38q0 18 22 30t52 11l188 -6l226 13q68 0 67 -43q0 -25 -55 -35q-84 -8 -113 -28q-30 -20 -58 -96q-28 -75 -108 -393q-80 -317 -101 -421t-2 -130t50 -26z" />
    <glyph glyph-name="lcaron" unicode="&#x13e;" horiz-adv-x="552" 
d="M827 1382q7 0 17 -15t5 -50t-54 -129t-88 -144q-33 -47 -74 -47q-9 -1 -15 13t-4 26q57 184 78 289q4 25 21 33q57 24 114 24zM268 1311q0 15 20 33t40 22q143 18 235 18q20 0 21 -32q2 -32 -3 -52q-5 -22 -135 -496t-159 -611q-14 -68 35 -68q38 0 108 70q20 20 28 27
t25 6q17 0 17 -22t-17 -54q-47 -80 -124 -130t-156 -51q-39 0 -68 37t-29 76q0 92 93 414q147 557 190 729q4 20 -16 33q-21 14 -63 24t-42 27z" />
    <glyph glyph-name="Ldot" unicode="&#x13f;" horiz-adv-x="1220" 
d="M1075 803q97 -1 95 -123q0 -52 -41 -86t-79 -35q-38 0 -69 30t-31 84t37 92t88 38zM475 88q285 0 329 7q83 13 121 50t105 113t91 76t24 -36t-40 -118t-74 -130q-33 -48 -95 -55t-182 -7l-453 12l-252 -8q-74 0 -74 24q-1 14 17 32t41 22q98 16 126 33q29 17 51 92
t119 455t107 423t2 63t-70 38q-62 20 -61 38q0 18 22 30t52 11l188 -6l226 13q68 0 67 -43q0 -25 -55 -35q-84 -8 -113 -28q-30 -20 -58 -96q-28 -75 -108 -393q-80 -317 -101 -421t-2 -130t50 -26z" />
    <glyph glyph-name="ldot" unicode="&#x140;" horiz-adv-x="552" 
d="M268 1311q0 15 20 33t40 22q143 18 235 18q20 0 21 -32q2 -32 -3 -52q-5 -22 -135 -496t-159 -611q-14 -68 35 -68q38 0 108 70q20 20 28 27t25 6q17 0 17 -22t-17 -54q-47 -80 -124 -130t-156 -51q-39 0 -68 37t-29 76q0 92 93 414q147 557 190 729q4 20 -16 33
q-21 14 -63 24t-42 27zM636 815q38 0 60 -31t23 -61q0 -72 -51 -111q-23 -18 -60 -18q-38 0 -66 24t-28 80q0 54 55 101q29 16 67 16z" />
    <glyph glyph-name="Lslash" unicode="&#x141;" horiz-adv-x="1220" 
d="M111 559q0 27 28 37l174 45q16 4 21 21q22 82 54 208t46 173q14 46 5 80q-9 33 -69 53t-61 43q0 35 72 34l174 -6l236 13q76 0 75 -37q0 -31 -74 -40t-106 -40q-33 -31 -54 -100t-91 -336q-2 -3 5 -9t11 -4l289 68q18 4 28 -14t11 -43q0 -23 -33 -31l-324 -80
q-11 -4 -22 -25q-100 -390 -93 -428q3 -16 19 -34t45 -19q285 0 328 7t69 17t54 37t62 65t72 80t60 42q23 0 23 -37t-38 -115t-85 -145q-24 -37 -86 -44t-184 -7l-469 12l-234 -8q-76 0 -76 28q1 14 19 32t41 20q100 16 127 32t40 62t28 100q15 55 37 135q22 81 29 107
t-5 29l-150 -33q-28 0 -28 55z" />
    <glyph glyph-name="lslash" unicode="&#x142;" horiz-adv-x="567" 
d="M289 1317q0 9 18 27t43 20q158 20 232 20q43 0 20 -90q-8 -38 -52 -190t-71 -252q-2 -6 4 -11t11 -1l108 32q12 4 23 -6q26 -58 -17 -73l-143 -50q-16 -8 -23 -28q-94 -342 -131 -518q-16 -72 26 -72t140 94q21 14 33 9q12 -4 12 -24t-16 -52q-43 -78 -129 -129t-154 -52
q-39 0 -67 37t-27 83q-1 46 21 131t116 442q0 4 -4 10t-10 4l-82 -25q-16 -4 -25 15q-8 33 -4 45q0 16 17 20l125 43q12 4 18 26t105 412q10 49 -62 68q-55 15 -55 35z" />
    <glyph glyph-name="Nacute" unicode="&#x143;" horiz-adv-x="1443" 
d="M1249 1536q1 -35 -67 -73t-287 -132q-51 -18 -78 4q-10 8 -2 30q8 21 30 41q23 20 133 106t140 106q43 25 72 4q10 -4 34 -37t25 -49zM203 1208q0 18 17 34t50 15l279 -10q8 0 26 -15t29 -36q369 -729 455 -862q14 -14 20 -2q31 96 92 326t77 327t-8 133q-22 36 -130 62
q-45 12 -45 37q0 16 20 29t54 14l243 -13l154 4q57 0 57 -41q-1 -27 -69 -41t-102 -50t-64 -144q-133 -481 -166 -615t-33 -188q-1 -53 49 -85t49 -58q0 -13 -15 -25t-34 -12l-151 6h-41q-20 0 -37 41q-6 11 -12 25l-29 67q-37 74 -111 218q-73 143 -165 323t-134 262
q-6 8 -13 6t-9 -10q-121 -389 -158 -637q-18 -115 10 -159t123 -62q15 -4 31 -16t16 -26q0 -12 -19 -26t-48 -14l-232 10l-186 -10q-25 0 -45 10t-21 20q0 39 62 54q129 29 145 84q74 199 234 809q20 79 3 115q-29 61 -98 81q-22 7 -71 17t-49 28z" />
    <glyph glyph-name="nacute" unicode="&#x144;" horiz-adv-x="1062" 
d="M335 862q114 0 114 -107q0 -48 -52 -180q-4 -8 2 -14l9 4q94 127 212 212t211 85q51 0 83 -45t32 -93t-26 -144t-138 -387q-14 -33 9 -33q43 0 163 98q8 8 20 -3t11 -35q0 -24 -35 -60q-63 -74 -155 -131t-166 -58q-17 1 -37 19t-26 42t14 74t111 298t99 276t-4 48
t-43 20q-57 0 -131 -76t-123 -156t-107 -185q-58 -106 -107 -207q-50 -102 -56 -114t-21 -25q-14 -13 -30 -13t-45 23q-29 24 -29 44q0 69 66 225t109 278q42 122 39 141t-13 19q-68 0 -154 -75q-15 -13 -35 -9t-20 23t8 37q33 76 105 130t136 54zM816 1309q20 1 44 -15
q81 -54 14 -133q-59 -63 -217 -203q-75 -68 -89 -7q-5 28 14 55q109 172 176 258q38 45 58 45z" />
    <glyph glyph-name="Ncommaaccent" unicode="&#x145;" horiz-adv-x="1443" 
d="M561 -453q-17 -1 -35 9t-18 22q0 20 43 43q53 16 89 46t37 62t-38 46q-45 18 -53 45q-2 8 -2 32t32 56q33 31 80 31t80 -40t33 -104q0 -117 -82 -183t-166 -65zM203 1208q0 18 17 34t50 15l279 -10q8 0 26 -15t29 -36q369 -729 455 -862q14 -14 20 -2q31 96 92 326
t77 327t-8 133q-22 36 -130 62q-45 12 -45 37q0 16 20 29t54 14l243 -13l154 4q57 0 57 -41q-1 -27 -69 -41t-102 -50t-64 -144q-133 -481 -166 -615t-33 -188q-1 -53 49 -85t49 -58q0 -13 -15 -25t-34 -12l-151 6h-41q-20 0 -37 41q-6 11 -12 25l-29 67q-37 74 -111 218
q-73 143 -165 323t-134 262q-6 8 -13 6t-9 -10q-121 -389 -158 -637q-18 -115 10 -159t123 -62q15 -4 31 -16t16 -26q0 -12 -19 -26t-48 -14l-232 10l-186 -10q-25 0 -45 10t-21 20q0 39 62 54q129 29 145 84q74 199 234 809q20 79 3 115q-29 61 -98 81q-22 7 -71 17t-49 28
z" />
    <glyph glyph-name="ncommaaccent" unicode="&#x146;" horiz-adv-x="1062" 
d="M248 -492q-18 0 -36 10t-17 21q0 23 43 43q53 16 89 46t37 62t-38 46q-45 18 -54 45l-2 22q0 35 33 66t80 31t80 -40t33 -104q0 -116 -82 -182t-166 -66zM335 862q114 0 114 -107q0 -48 -52 -180q-4 -8 2 -14l9 4q94 127 212 212t211 85q51 0 83 -45t32 -93t-26 -144
t-138 -387q-14 -33 9 -33q43 0 163 98q8 8 20 -3t11 -35q0 -24 -35 -60q-63 -74 -155 -131t-166 -58q-17 1 -37 19t-26 42t14 74t111 298t99 276t-4 48t-43 20q-57 0 -131 -76t-123 -156t-107 -185q-58 -106 -107 -207q-50 -102 -56 -114t-21 -25q-14 -13 -30 -13t-45 23
q-29 24 -29 44q0 69 66 225t109 278q42 122 39 141t-13 19q-68 0 -154 -75q-15 -13 -35 -9t-20 23t8 37q33 76 105 130t136 54z" />
    <glyph glyph-name="Ncaron" unicode="&#x147;" horiz-adv-x="1443" 
d="M868 1300q-18 0 -55 46q-70 94 -125 176q-16 25 -12 45t34 20t56 -26q10 -8 131 -93q6 -2 17 -2t16 2q176 84 214 98t63 11q26 -2 28 -14q6 -31 -35 -60q-145 -87 -221 -145t-111 -58zM203 1208q0 18 17 34t50 15l279 -10q8 0 26 -15t29 -36q369 -729 455 -862
q14 -14 20 -2q31 96 92 326t77 327t-8 133q-22 36 -130 62q-45 12 -45 37q0 16 20 29t54 14l243 -13l154 4q57 0 57 -41q-1 -27 -69 -41t-102 -50t-64 -144q-133 -481 -166 -615t-33 -188q-1 -53 49 -85t49 -58q0 -13 -15 -25t-34 -12l-151 6h-41q-20 0 -37 41q-6 11 -12 25
l-29 67q-37 74 -111 218q-73 143 -165 323t-134 262q-6 8 -13 6t-9 -10q-121 -389 -158 -637q-18 -115 10 -159t123 -62q15 -4 31 -16t16 -26q0 -12 -19 -26t-48 -14l-232 10l-186 -10q-25 0 -45 10t-21 20q0 39 62 54q129 29 145 84q74 199 234 809q20 79 3 115
q-29 61 -98 81q-22 7 -71 17t-49 28z" />
    <glyph glyph-name="ncaron" unicode="&#x148;" horiz-adv-x="1062" 
d="M335 862q114 0 114 -107q0 -48 -52 -180q-4 -8 2 -14l9 4q94 127 212 212t211 85q51 0 83 -45t32 -93t-26 -144t-138 -387q-14 -33 9 -33q43 0 163 98q8 8 20 -3t11 -35q0 -24 -35 -60q-63 -74 -155 -131t-166 -58q-17 1 -37 19t-26 42t14 74t111 298t99 276t-4 48
t-43 20q-57 0 -131 -76t-123 -156t-107 -185q-58 -106 -107 -207q-50 -102 -56 -114t-21 -25q-14 -13 -30 -13t-45 23q-29 24 -29 44q0 69 66 225t109 278q42 122 39 141t-13 19q-68 0 -154 -75q-15 -13 -35 -9t-20 23t8 37q33 76 105 130t136 54zM633 942q-29 0 -39 57
q-39 283 -40 296t7 33q7 20 23 22q16 0 29 -14t19 -36q6 -20 24 -63q17 -43 30 -80q4 -6 12 -5t13 7q127 127 163 159t52 32q18 0 25 -12q18 -29 -9 -58q-26 -30 -233 -285q-47 -53 -76 -53z" />
    <glyph glyph-name="napostrophe" unicode="&#x149;" horiz-adv-x="1062" 
d="M117 942q-45 0 -45 27t43 42t78 44t35 55t-26 36q-24 11 -32 15q-25 13 -26 48q-1 36 29 64q30 27 72 27q41 0 73 -36t32 -93q0 -101 -78 -165t-155 -64zM335 862q114 0 114 -107q0 -48 -52 -180q-4 -8 2 -14l9 4q94 127 212 212t211 85q51 0 83 -45t32 -93t-26 -144
t-138 -387q-14 -33 9 -33q43 0 163 98q8 8 20 -3t11 -35q0 -24 -35 -60q-63 -74 -155 -131t-166 -58q-17 1 -37 19t-26 42t14 74t111 298t99 276t-4 48t-43 20q-57 0 -131 -76t-123 -156t-107 -185q-58 -106 -107 -207q-50 -102 -56 -114t-21 -25q-14 -13 -30 -13t-45 23
q-29 24 -29 44q0 69 66 225t109 278q42 122 39 141t-13 19q-68 0 -154 -75q-15 -13 -35 -9t-20 23t8 37q33 76 105 130t136 54z" />
    <glyph glyph-name="Eng" unicode="&#x14a;" horiz-adv-x="1423" 
d="M220 1245q22 12 54 12l242 -10q63 0 86 -49q70 -142 237 -454t222 -398q16 -31 29 4q129 483 153 621q23 109 3 143t-128 62q-53 14 -53 41q0 39 72 38l188 -8l188 6q63 0 64 -39q0 -33 -65 -46q-64 -13 -94 -48t-60 -145q-141 -508 -156 -576q-127 -571 -213 -696
q-74 -102 -172 -102q-45 0 -82 39q-37 40 -37 74t12 54t29 19q47 -10 101 -10t100 55q47 55 47 129t-45 170q-45 95 -207 405t-207 398q-14 20 -24 -4q-121 -420 -156 -637q-2 -45 -8 -80t19 -78q25 -42 104 -61q63 -6 63 -41q0 -15 -19 -27t-48 -12l-226 6l-200 -6
q-55 0 -56 29q0 41 68 53q72 18 108 53t58 102q86 262 205 736q24 97 -13 143q-8 10 -18 24t-41 22q-30 7 -34 8t-23 5q-88 18 -88 40q0 23 21 36z" />
    <glyph glyph-name="eng" unicode="&#x14b;" horiz-adv-x="1032" 
d="M340 862q64 0 89 -30q26 -30 26 -70q0 -41 -56 -195q-4 -8 2 -14l9 4q92 127 218 216t196 89t102 -46t32 -91t-26 -141q-119 -428 -215 -658q-55 -127 -120 -212t-160 -146t-179 -62q-104 0 -111 127q-3 13 9 31t22 21q123 -41 159 -42t70 21q33 22 67 87q34 66 141 381
t126 398q46 200 15 207q-49 2 -134 -78q-105 -99 -284 -437q-45 -85 -51 -95q-68 -125 -101 -141q-8 -8 -25 -3t-28 19q-37 14 -37 56t64 194t147 389q25 61 -16 61q-57 0 -141 -69q-38 -30 -52 -12q-6 8 -6 21t10 38q30 70 102 126t136 56z" />
    <glyph glyph-name="Omacron" unicode="&#x14c;" horiz-adv-x="1396" 
d="M719 1468q0 24 29 60q16 24 26 24l410 7q4 -1 12 -15t8 -44t-19 -52t-34 -23l-410 -2q-6 1 -14 11t-8 34zM608 47q150 0 270 113q120 114 195 306q76 192 76 406q0 106 -55 208q-29 54 -84 88t-125 30t-124 -26t-120 -85q-135 -125 -205 -311t-69 -405q0 -49 15 -115
t45 -110t82 -71q52 -28 99 -28zM895 1284q209 0 335 -144t126 -336t-76 -368t-211 -299q-86 -80 -208 -127t-234 -47q-207 0 -336 129t-129 354q0 224 96 414t262 307t375 117z" />
    <glyph glyph-name="omacron" unicode="&#x14d;" horiz-adv-x="866" 
d="M539 770q-82 0 -162 -129q-133 -217 -133 -438q0 -133 108 -133q59 0 135 106q53 74 103 219q49 145 49 236q0 139 -100 139zM541 862q115 0 183 -89t67 -223q0 -134 -67 -282q-67 -147 -177 -223q-111 -74 -217 -74q-106 1 -178 101q-70 100 -68 230t71 268t167 212
q46 32 114 56t105 24zM401 1098q1 24 19 58t33 36h376q7 0 13 -12t6 -36t-27 -69q-14 -20 -26 -20q-287 -10 -371 -11q-4 0 -14 14q-10 16 -9 40z" />
    <glyph glyph-name="Obreve" unicode="&#x14e;" horiz-adv-x="1396" 
d="M954 1372q-110 0 -157 65t-33 167q4 20 16 33t25 14q31 0 39 -49q20 -92 135 -92t184 96q31 41 49 41q18 -1 25 -19q6 -18 0 -41q-23 -75 -99 -145q-74 -70 -184 -70zM608 47q150 0 270 113q120 114 195 306q76 192 76 406q0 106 -55 208q-29 54 -84 88t-125 30t-124 -26
t-120 -85q-135 -125 -205 -311t-69 -405q0 -49 15 -115t45 -110t82 -71q52 -28 99 -28zM895 1284q209 0 335 -144t126 -336t-76 -368t-211 -299q-86 -80 -208 -127t-234 -47q-207 0 -336 129t-129 354q0 224 96 414t262 307t375 117z" />
    <glyph glyph-name="obreve" unicode="&#x14f;" horiz-adv-x="866" 
d="M539 770q-82 0 -162 -129q-133 -217 -133 -438q0 -133 108 -133q59 0 135 106q53 74 103 219q49 145 49 236q0 139 -100 139zM541 862q115 0 183 -89t67 -223q0 -134 -67 -282q-67 -147 -177 -223q-111 -74 -217 -74q-106 1 -178 101q-70 100 -68 230t71 268t167 212
q46 32 114 56t105 24zM594 991q-94 1 -144 63t-24 183q16 47 39 47q15 0 27 -15t12 -34q4 -115 102 -115q90 0 158 119q25 43 57 43q27 0 14 -64t-80 -146q-67 -81 -161 -81z" />
    <glyph glyph-name="Ohungarumlaut" unicode="&#x150;" horiz-adv-x="1396" 
d="M1202 1688q41 0 73 -27t32 -51t-17 -41q-98 -121 -170 -187q-31 -30 -57 -30t-31 25q-4 26 22 78t103 187q27 46 45 46zM891 1673q43 1 75 -21t32 -48t-17 -41q-94 -117 -166 -183q-33 -32 -59 -32t-30 24q-3 26 9 54t111 204q20 43 45 43zM608 47q150 0 270 113
q120 114 195 306q76 192 76 406q0 106 -55 208q-29 54 -84 88t-125 30t-124 -26t-120 -85q-135 -125 -205 -311t-69 -405q0 -49 15 -115t45 -110t82 -71q52 -28 99 -28zM895 1284q209 0 335 -144t126 -336t-76 -368t-211 -299q-86 -80 -208 -127t-234 -47q-207 0 -336 129
t-129 354q0 224 96 414t262 307t375 117z" />
    <glyph glyph-name="ohungarumlaut" unicode="&#x151;" horiz-adv-x="866" 
d="M539 770q-82 0 -162 -129q-133 -217 -133 -438q0 -133 108 -133q59 0 135 106q53 74 103 219q49 145 49 236q0 139 -100 139zM541 862q115 0 183 -89t67 -223q0 -134 -67 -282q-67 -147 -177 -223q-111 -74 -217 -74q-106 1 -178 101q-70 100 -68 230t71 268t167 212
q46 32 114 56t105 24zM862 1335q20 0 45 -13q62 -32 17 -105q-82 -129 -187 -244q-29 -35 -55 -35q-20 0 -22 28q-1 28 10 44q41 88 139 270q33 55 53 55zM576 1315q20 0 42 -12q67 -38 16 -117q-50 -80 -163 -219q-31 -41 -63 -41q-70 0 114 336q34 53 54 53z" />
    <glyph glyph-name="OE" unicode="&#x152;" horiz-adv-x="1968" 
d="M582 -37q-184 0 -306 119t-122 340t104 421q104 201 270 321t363 120q94 0 182 -47t139 -125q12 -20 19 4q23 86 26 105q6 33 43 32l197 -6h135q162 0 330 13q12 0 18 -20t0 -36q-31 -76 -71 -221q-12 -51 -49 -51q-29 0 -29 53q-2 156 -45 166q-57 14 -161 14t-165 -10
q-20 -3 -49 -71t-102 -355q-2 -4 2 -13t8 -9h225q39 0 54 9q16 9 56 63q40 55 57 55t33 -20t11 -34q-51 -109 -94 -299q-6 -35 -29 -35q-43 0 -48 56t-18 76q-22 33 -110 34q-88 0 -162 -12q-17 -8 -29 -41q-13 -33 -47 -173t-41 -184t0 -68q7 -26 19 -30q58 -18 200 -18
t193 11t99 57t112 137q18 29 43 28q29 0 28 -56t-56 -150t-84 -109q-27 -18 -72 -18t-197 8t-354 6l-109 -4q-12 0 -24 18t-6 37q27 86 8 82q-6 0 -19 -12q-72 -70 -180 -114t-196 -44zM1139 887q-1 159 -99 247q-60 54 -162 54q-104 0 -216 -105q-140 -129 -222 -319
t-82 -412q0 -141 66 -218t176 -77t233 95q123 96 215 316t91 419z" />
    <glyph glyph-name="oe" unicode="&#x153;" horiz-adv-x="1253" 
d="M1059 786q-57 0 -139 -92t-117 -188q-2 -4 1 -14t9 -11q86 4 191 72q104 68 104 178q0 15 -11 35t-38 20zM555 770q-80 0 -157 -125q-78 -125 -116 -250t-38 -207q0 -119 86 -118q138 0 269 338q58 152 58 216q0 146 -102 146zM566 862q126 0 196 -149q6 -16 20 -2
q147 152 289 151q78 0 129 -48t51 -122q0 -102 -104 -176q-57 -43 -165 -76t-191 -39q-45 -17 -45 -114q-1 -97 33 -142t93 -45q90 0 197 95q11 12 29 9t18 -22q0 -55 -63 -108q-121 -102 -249 -102t-194 122q-8 16 -20 8q-57 -55 -133 -93t-154 -38q-79 0 -149 80
q-70 79 -70 221t74 285t178 221q104 84 230 84z" />
    <glyph glyph-name="Racute" unicode="&#x154;" horiz-adv-x="1241" 
d="M1157 1573q1 -35 -67 -73t-287 -132q-51 -18 -78 4q-10 8 -2 30t30 42q23 20 133 104q110 86 140 107q43 25 72 4q10 -4 34 -37t25 -49zM985 979q-1 117 -65 160t-203 43q-26 0 -48 -39t-71 -205t-56 -221t19 -55q66 0 152 18t139 49q41 20 87 100t46 150zM1184 979
q0 -131 -92 -220t-226 -112q-14 -4 -8 -33q47 -172 123 -358q39 -96 82 -129t103 -47t71 -20q10 -6 10 -20t-16 -28t-35 -18q-90 -8 -166 -8t-118 32t-74 100q-32 70 -138 357q-45 117 -155 117q-9 0 -23 -9t-18 -18q-28 -59 -56 -173t-37 -182t9 -92t72 -40t57 -36
q2 -20 -21 -34t-41 -14l-202 6l-260 -8q-25 0 -40 11t-16 24q0 35 77 53t107 34t37 40q27 76 123 418t129 497q10 49 -6 67t-102 33q-55 12 -55 41q0 12 18 24t39 13l96 2l383 13q152 0 236 -50q61 -32 97 -102t36 -131z" />
    <glyph glyph-name="racute" unicode="&#x155;" horiz-adv-x="763" 
d="M324 862q109 0 108 -129q0 -45 -63 -227q-2 -6 4 -9t12 3q16 36 90 148t126 163q53 51 107 51t85 -28q59 -54 -3 -142q-34 -47 -67 -67q-4 -2 -18 -2q-18 -1 -49 25t-48 26q-31 0 -76 -76q-104 -178 -260 -541q-39 -86 -73 -86q-23 1 -51 15q-58 30 -37 84
q129 385 163 524q23 102 -23 102t-99 -61q-31 -31 -54 -31q-18 0 -18 31q0 61 77 144t167 83zM714 1329q20 0 44 -15q82 -54 14 -132q-59 -63 -217 -203q-39 -35 -61 -35t-28 28q-5 28 13 54q109 172 176 258q39 45 59 45z" />
    <glyph glyph-name="Rcommaaccent" unicode="&#x156;" horiz-adv-x="1241" 
d="M461 -475q-18 0 -36 9q-17 9 -17 22q0 23 43 43q53 16 89 46q36 31 37 61t-30 42q-2 2 -8 4q-45 18 -54 45l-2 23q0 36 33 66t80 30t80 -40t33 -103q0 -117 -82 -183t-166 -65zM985 979q-1 117 -65 160t-203 43q-26 0 -48 -39t-71 -205t-56 -221t19 -55q66 0 152 18
t139 49q41 20 87 100t46 150zM1184 979q0 -131 -92 -220t-226 -112q-14 -4 -8 -33q47 -172 123 -358q39 -96 82 -129t103 -47t71 -20q10 -6 10 -20t-16 -28t-35 -18q-90 -8 -166 -8t-118 32t-74 100q-32 70 -138 357q-45 117 -155 117q-9 0 -23 -9t-18 -18q-28 -59 -56 -173
t-37 -182t9 -92t72 -40t57 -36q2 -20 -21 -34t-41 -14l-202 6l-260 -8q-25 0 -40 11t-16 24q0 35 77 53t107 34t37 40q27 76 123 418t129 497q10 49 -6 67t-102 33q-55 12 -55 41q0 12 18 24t39 13l96 2l383 13q152 0 236 -50q61 -32 97 -102t36 -131z" />
    <glyph glyph-name="rcommaaccent" unicode="&#x157;" horiz-adv-x="763" 
d="M-33 -492q-17 0 -35 10t-18 21q0 23 43 43q53 16 89 46t37 62t-38 46q-45 18 -53 45q-2 9 -2 33t33 55t79 31t80 -40q33 -40 33 -104q0 -116 -82 -182t-166 -66zM324 862q109 0 108 -129q0 -45 -63 -227q-2 -6 4 -9t12 3q16 36 90 148t126 163q53 51 107 51t85 -28
q59 -54 -3 -142q-34 -47 -67 -67q-4 -2 -18 -2q-18 -1 -49 25t-48 26q-31 0 -76 -76q-104 -178 -260 -541q-39 -86 -73 -86q-23 1 -51 15q-58 30 -37 84q129 385 163 524q23 102 -23 102t-99 -61q-31 -31 -54 -31q-18 0 -18 31q0 61 77 144t167 83z" />
    <glyph glyph-name="Rcaron" unicode="&#x158;" horiz-adv-x="1241" 
d="M776 1341q-18 0 -55 45q-70 94 -125 177q-16 25 -12 45t34 20t48 -17t139 -102q6 -2 17 -2t16 2q176 83 214 97t63 12q26 -2 28 -14q6 -31 -35 -60q-145 -88 -221 -146t-111 -57zM985 979q-1 117 -65 160t-203 43q-26 0 -48 -39t-71 -205t-56 -221t19 -55q66 0 152 18
t139 49q41 20 87 100t46 150zM1184 979q0 -131 -92 -220t-226 -112q-14 -4 -8 -33q47 -172 123 -358q39 -96 82 -129t103 -47t71 -20q10 -6 10 -20t-16 -28t-35 -18q-90 -8 -166 -8t-118 32t-74 100q-32 70 -138 357q-45 117 -155 117q-9 0 -23 -9t-18 -18q-28 -59 -56 -173
t-37 -182t9 -92t72 -40t57 -36q2 -20 -21 -34t-41 -14l-202 6l-260 -8q-25 0 -40 11t-16 24q0 35 77 53t107 34t37 40q27 76 123 418t129 497q10 49 -6 67t-102 33q-55 12 -55 41q0 12 18 24t39 13l96 2l383 13q152 0 236 -50q61 -32 97 -102t36 -131z" />
    <glyph glyph-name="rcaron" unicode="&#x159;" horiz-adv-x="763" 
d="M324 862q109 0 108 -129q0 -45 -63 -227q-2 -6 4 -9t12 3q16 36 90 148t126 163q53 51 107 51t85 -28q59 -54 -3 -142q-34 -47 -67 -67q-4 -2 -18 -2q-18 -1 -49 25t-48 26q-31 0 -76 -76q-104 -178 -260 -541q-39 -86 -73 -86q-23 1 -51 15q-58 30 -37 84
q129 385 163 524q23 102 -23 102t-99 -61q-31 -31 -54 -31q-18 0 -18 31q0 61 77 144t167 83zM494 942q-29 0 -39 57q-39 283 -40 296t7 33t23 22q15 0 29 -14t20 -36q6 -20 23 -63t30 -80q4 -6 12 -5q7 2 73 68t102 98t54 32t24 -12q18 -29 -9 -58q-26 -30 -234 -285
q-46 -53 -75 -53z" />
    <glyph glyph-name="Sacute" unicode="&#x15a;" horiz-adv-x="970" 
d="M1094 1585q0 -17 -16 -35t-68 -46t-271 -124q-51 -18 -77 4q-10 8 -3 30q8 22 30 42q23 20 133 105q110 87 147 109t65 1q10 -4 35 -37t25 -49zM674 1284q88 0 223 -49q27 -10 46 -15q19 -6 31 -20t13 -26q0 -201 -19 -230t-36 -29q-31 0 -37 54q-14 119 -81 177t-154 58
t-149 -62t-62 -154t88 -183q45 -49 146 -145t130 -146q55 -90 55 -180q0 -176 -135 -274t-285 -97q-150 0 -331 78q-31 14 -40 35t-7 53q12 96 8 199q0 33 13 52t26 19q45 0 57 -82q16 -131 93 -201t179 -71q102 0 164 66t62 168t-133 232t-185 194q-51 65 -68 114t-18 105
q0 164 119 262t287 98z" />
    <glyph glyph-name="sacute" unicode="&#x15b;" horiz-adv-x="645" 
d="M467 862q98 0 143 -61q29 -39 29 -65t-19 -60q-19 -35 -28 -35q-27 0 -62 31q-82 78 -145 78q-39 0 -61 -26t-21 -64q0 -38 35 -86t123 -138t88 -166q0 -131 -152 -231q-49 -33 -108 -50t-88 -18q-104 0 -164 66q-37 41 -37 86q0 12 17 40q37 61 67 46q185 -185 283 -100
q61 53 3 145q-28 43 -118 142t-90 192q0 43 27 94q60 109 188 157q63 23 90 23zM660 1329q20 0 42 -15q81 -54 15 -132q-59 -63 -217 -203q-39 -35 -64 -35q-20 0 -25 28t13 54q109 172 176 258q40 45 60 45z" />
    <glyph glyph-name="Scircumflex" unicode="&#x15c;" horiz-adv-x="970" 
d="M802 1647q24 0 52 -48q6 -10 131 -176q16 -25 11 -44t-36 -19t-107 52q-75 52 -89 59q-14 6 -25 2q-131 -61 -213 -91t-86 4q-8 27 35 60q203 131 253 166t74 35zM674 1284q88 0 223 -49q27 -10 46 -15q19 -6 31 -20t13 -26q0 -201 -19 -230t-36 -29q-31 0 -37 54
q-14 119 -81 177t-154 58t-149 -62t-62 -154t88 -183q45 -49 146 -145t130 -146q55 -90 55 -180q0 -176 -135 -274t-285 -97q-150 0 -331 78q-31 14 -40 35t-7 53q12 96 8 199q0 33 13 52t26 19q45 0 57 -82q16 -131 93 -201t179 -71q102 0 164 66t62 168t-133 232t-185 194
q-51 65 -68 114t-18 105q0 164 119 262t287 98z" />
    <glyph glyph-name="scircumflex" unicode="&#x15d;" horiz-adv-x="645" 
d="M467 862q98 0 143 -61q29 -39 29 -65t-19 -60q-19 -35 -28 -35q-27 0 -62 31q-82 78 -145 78q-39 0 -61 -26t-21 -64q0 -38 35 -86t123 -138t88 -166q0 -131 -152 -231q-49 -33 -108 -50t-88 -18q-104 0 -164 66q-37 41 -37 86q0 12 17 40q37 61 67 46q185 -185 283 -100
q61 53 3 145q-28 43 -118 142t-90 192q0 43 27 94q60 109 188 157q63 23 90 23zM613 1350q30 0 38 -56q39 -280 40 -294t-7 -36t-24 -22t-28 14q-17 18 -73 181q-6 12 -27 -2q-180 -191 -215 -191t-26 42q4 19 22 40q162 193 224 270q46 54 76 54z" />
    <glyph glyph-name="Scedilla" unicode="&#x15e;" horiz-adv-x="970" 
d="M674 1284q90 0 225 -49q27 -10 46 -15q19 -6 31 -20t13 -26q0 -201 -19 -230t-36 -29q-31 0 -37 54q-14 119 -81 177t-155 58t-149 -62t-61 -152t88 -183q39 -41 140 -141t130 -152q55 -90 55 -180q0 -176 -143 -281q-70 -47 -158 -67q-77 -45 -111 -76t-33 -60
q1 -30 25 -64t38 -62q16 -28 16 -66q0 -60 -75 -110t-127 -50t-90 31t-38 63t11 46q11 16 25 16t34 -16q53 -50 89 -50t35 33q0 21 -25 54q-25 32 -34 46q-47 81 -7 137t128 105q-166 0 -309 64q-33 16 -41 30q-8 19 -3 69t5 132q0 133 37 133q45 1 61 -101t92 -174t178 -71
q102 0 161 65q60 65 61 162q0 52 -33 106t-107 131q-121 125 -187 214q-67 89 -69 201q0 162 119 261t285 99z" />
    <glyph glyph-name="scedilla" unicode="&#x15f;" horiz-adv-x="645" 
d="M287 -341q0 -50 -74 -101q-74 -52 -126 -52t-89 31t-37 74q0 15 12 33q11 18 23 18t35 -16q47 -47 85 -47t38 30q0 18 -24 52t-34 49q-49 84 -8 139q20 33 121 102h-8q-104 0 -164 66q-37 41 -37 86q0 12 17 40q37 61 67 46q185 -185 283 -100q62 54 1 145
q-30 43 -118 143t-88 191q0 43 27 94q60 109 188 157q63 24 90 23q98 0 143 -61q29 -39 29 -65t-19 -60q-19 -35 -28 -35q-27 0 -62 31q-82 78 -145 78q-39 0 -61 -26q-49 -59 15 -149q34 -47 122 -138t88 -165q0 -133 -152 -233q-39 -25 -43 -27q-145 -109 -143 -164
q1 -20 23 -56t26 -44q27 -39 27 -89z" />
    <glyph glyph-name="Scaron" unicode="&#x160;" horiz-adv-x="970" 
d="M692 1360q-18 0 -55 45q-70 94 -125 176q-16 25 -12 45t34 20t56 -26q10 -8 131 -92q6 -4 17 -4q12 0 102 44t128 57t63 11q26 -2 28 -14q6 -31 -35 -59q-145 -87 -221 -145t-111 -58zM674 1284q88 0 223 -49q27 -10 46 -15q19 -6 31 -20t13 -26q0 -201 -19 -230t-36 -29
q-31 0 -37 54q-14 119 -81 177t-154 58t-149 -62t-62 -154t88 -183q45 -49 146 -145t130 -146q55 -90 55 -180q0 -176 -135 -274t-285 -97q-150 0 -331 78q-31 14 -40 35t-7 53q12 96 8 199q0 33 13 52t26 19q45 0 57 -82q16 -131 93 -201t179 -71q102 0 164 66t62 168
t-133 232t-185 194q-51 65 -68 114t-18 105q0 164 119 262t287 98z" />
    <glyph glyph-name="scaron" unicode="&#x161;" horiz-adv-x="645" 
d="M467 862q98 0 143 -61q29 -39 29 -65t-19 -60q-19 -35 -28 -35q-27 0 -62 31q-82 78 -145 78q-39 0 -61 -26t-21 -64q0 -38 35 -86t123 -138t88 -166q0 -131 -152 -231q-49 -33 -108 -50t-88 -18q-104 0 -164 66q-37 41 -37 86q0 12 17 40q37 61 67 46q185 -185 283 -100
q61 53 3 145q-28 43 -118 142t-90 192q0 43 27 94q60 109 188 157q63 23 90 23zM487 946q-29 0 -38 58q-39 284 -40 296t7 32t23 22q15 0 29 -14t19 -36q5 -20 23 -63t31 -80q4 -6 12 -5q7 2 73 68t102 98t53 32t25 -12q19 -30 -20 -72q-16 -16 -223 -271q-47 -53 -76 -53z
" />
    <glyph glyph-name="Tcommaaccent" unicode="&#x162;" horiz-adv-x="1353" 
d="M385 -489q-18 0 -36 9q-17 9 -17 21q0 20 43 43q53 16 89 46t37 62t-38 46q-45 18 -53 45l-2 22q0 35 32 66q33 31 80 31t80 -40t33 -104q0 -117 -82 -182t-166 -65zM514 1155q-92 0 -207 -145q-31 -41 -48 -41q-17 -1 -27 27t3 54q12 26 46 112q33 85 47 114t37 29
q5 1 37 -17t76 -30t249 -11h410q213 0 259 26q46 25 60 25t26 -20t-3 -68q-14 -48 -62 -198q-16 -61 -55 -62q-27 0 -32 73q-9 132 -99 132l-240 -4q-6 0 -17 -14t-16 -25q-34 -104 -124 -438t-112 -432t4 -120q24 -24 114 -46q51 -12 51 -43q-4 -37 -68 -37l-186 4
l-303 -14q-72 0 -72 41q0 14 20 27t52 18q92 14 128 50t52 90t231 892q0 37 -6 37q-33 14 -225 14z" />
    <glyph glyph-name="tcommaaccent" unicode="&#x163;" horiz-adv-x="673" 
d="M33 -492q-17 0 -35 10t-18 21q0 23 43 43q53 16 89 46t37 62t-38 46q-45 18 -54 45q-2 9 -2 33t33 55t80 31t80 -40t33 -104q0 -116 -82 -182t-166 -66zM485 1059q25 0 47 -6t21 -13q0 -18 -51 -188q-5 -19 16 -21h193q14 0 14 -18t-17 -54t-26 -36q-129 0 -197 8
q-14 0 -22 -22q-39 -104 -135 -453q-25 -86 4 -86q49 0 190 125q6 4 18 -7t13 -36q0 -25 -29 -64q-53 -74 -167 -148q-115 -74 -155 -73q-40 0 -63 33q-23 32 -23 58t17 92q98 360 164 557q6 18 -8 18l-131 4q-16 5 -16 27t14 46t22 26t68 3t72 5t24 24t72 148q24 51 71 51z
" />
    <glyph glyph-name="Tcaron" unicode="&#x164;" horiz-adv-x="1353" 
d="M883 1327q-18 0 -56 45q-70 94 -125 176q-16 25 -12 45q4 21 34 21t56 -27q10 -8 131 -92q5 -4 17 -4t129 57t154 56q37 -2 38 -15q6 -31 -35 -59q-144 -88 -220 -146t-111 -57zM514 1155q-92 0 -207 -145q-31 -41 -48 -41q-17 -1 -27 27t3 54q12 26 46 112q33 85 47 114
t37 29q5 1 37 -17t76 -30t249 -11h410q213 0 259 26q46 25 60 25t26 -20t-3 -68q-14 -48 -62 -198q-16 -61 -55 -62q-27 0 -32 73q-9 132 -99 132l-240 -4q-6 0 -17 -14t-16 -25q-34 -104 -124 -438t-112 -432t4 -120q24 -24 114 -46q51 -12 51 -43q-4 -37 -68 -37l-186 4
l-303 -14q-72 0 -72 41q0 14 20 27t52 18q92 14 128 50t52 90t231 892q0 37 -6 37q-33 14 -225 14z" />
    <glyph glyph-name="tcaron" unicode="&#x165;" horiz-adv-x="673" 
d="M862 1378q8 0 18 -15q24 -38 -38 -156q-62 -117 -101 -167q-33 -47 -73 -47q-8 -1 -14 13t-5 26q57 184 78 289q4 25 21 33q57 24 114 24zM485 1059q25 0 47 -6t21 -13q0 -18 -51 -188q-5 -19 16 -21h193q14 0 14 -18t-17 -54t-26 -36q-129 0 -197 8q-14 0 -22 -22
q-39 -104 -135 -453q-25 -86 4 -86q49 0 190 125q6 4 18 -7t13 -36q0 -25 -29 -64q-53 -74 -167 -148q-115 -74 -155 -73q-40 0 -63 33q-23 32 -23 58t17 92q98 360 164 557q6 18 -8 18l-131 4q-16 5 -16 27t14 46t22 26t68 3t72 5t24 24t72 148q24 51 71 51z" />
    <glyph glyph-name="Tbar" unicode="&#x166;" horiz-adv-x="1353" 
d="M600 621q-96 0 -180 -3q-31 0 -31 19q0 73 43 76q164 4 203 6q12 0 16 16q92 365 94 369q0 37 -8 37q-37 16 -225 16q-90 0 -207 -147q-25 -33 -41 -33t-30 24q-13 25 -7 37q20 43 55 131q34 88 42 107q20 33 38 33q8 0 45 -22t75 -31t243 -9h412q213 0 258 26
q45 25 59 25t26 -20t-3 -68q-14 -48 -62 -198q-16 -61 -55 -62q-20 0 -32 70t-36 102q-23 32 -63 33l-238 -4q-17 0 -35 -39q-113 -369 -108 -379q4 -10 12 -10l238 2q8 0 15 -12q7 -11 7 -19t-7 -28t-14 -26t-20 -7q-157 0 -245 -8q-14 0 -21 -19q-74 -272 -94 -366
q-19 -94 5 -118t114 -46q55 -12 51 -43q1 -13 -19 -25t-49 -12l-186 4l-303 -14q-66 0 -72 41q0 14 20 27t52 18q92 14 128 50t58 110t96 366q6 23 -14 23z" />
    <glyph glyph-name="tbar" unicode="&#x167;" horiz-adv-x="673" 
d="M575 508q0 -22 -14 -42q-14 -22 -24 -22l-140 -4q-12 0 -24 -34t-42 -135t1 -101q47 0 188 125q8 4 20 -7t13 -36q0 -25 -29 -64q-53 -76 -167 -148q-113 -72 -153 -73q-40 0 -64 32t-23 65t41 174q41 142 50 172t-5 30h-88q-25 0 -25 24t16 48q12 12 15 12l108 2
q3 0 11 8t18 45q10 38 37 128q6 18 -6 18l-133 4q-16 5 -16 27t15 46t22 26t67 3q60 3 72 5q11 2 20 14t37 78q28 65 35 76q27 55 69 55q23 0 47 -8t25 -19q0 -29 -49 -180q-4 -20 18 -21h191q16 0 16 -19t-18 -53t-27 -34l-195 4q-14 0 -21 -15q-7 -16 -13 -36
q-14 -46 -35 -116q-10 -32 8 -34l135 2q16 0 16 -22z" />
    <glyph glyph-name="Utilde" unicode="&#x168;" horiz-adv-x="1466" 
d="M1131 1397q-25 0 -104 8t-130 4t-94 -59q-7 -23 -23 -23t-34 14q-17 13 -17 27t39 72t59 80q33 22 56 22l213 -12q49 0 67 11t50 43t39 32t30 -21t7 -39q-17 -18 -57 -71t-58 -71t-43 -17zM1624 1217q0 -31 -73 -45t-97 -42t-64 -150t-155 -525q-53 -201 -156 -320
q-145 -172 -422 -172q-111 0 -205 38q-255 103 -196 419q14 78 86 364t75 309q3 25 1 35q-5 29 -77 48q-71 20 -71 51t62 30l215 -10l211 6q23 0 38 -10t15 -27q0 -16 -13 -26t-66 -22q-54 -12 -80 -36t-48 -98q-63 -207 -139 -545q-27 -95 -26 -163t41 -122t110 -84
t125 -30q151 0 243 67t165 275t149 533q30 129 14 159t-98 46t-82 49q4 35 65 34l199 -6l197 8q57 0 57 -38z" />
    <glyph glyph-name="utilde" unicode="&#x169;" horiz-adv-x="1085" 
d="M297 666q0 20 -11 20q-38 0 -152 -102q-4 -4 -20 4t-16 34t47 82t131 107t150 51q29 0 47 -35t13 -71t-189 -572q-6 -16 1 -39t28 -22q47 0 104 51q56 52 138 164t261 444q45 78 73 78t52 -20t25 -49q-1 -29 -31 -127t-78 -264q-48 -167 -67 -230q-2 -6 5 -13t17 -7
q55 0 152 94q32 36 55 21q8 -5 8 -25t-32 -84q-32 -62 -122 -128q-91 -66 -184 -65q-34 0 -58 26t-24 43t28 94q26 77 83 249q2 4 -4 14t-16 0q-168 -229 -308 -340q-84 -70 -172 -69q-35 0 -69 16t-45 45q-12 29 3 105t169 481q8 19 8 39zM581 1065q-41 0 -75 -36t-44 -36
q-10 -1 -26 15t-16 26q0 25 62 85q106 101 145 91q53 -26 129 -26t103 20q26 20 63 58q8 8 32 -8t25 -27q0 -11 -10 -23t-76 -77t-80 -74q-14 -15 -35 -15q-20 0 -88 14t-109 13z" />
    <glyph glyph-name="Umacron" unicode="&#x16a;" horiz-adv-x="1466" 
d="M764 1434q0 24 29 61q16 25 26 25l410 6q4 0 12 -14t8 -46q0 -30 -19 -52t-34 -21l-410 -2q-6 0 -14 10q-8 9 -8 33zM1624 1217q0 -31 -73 -45t-97 -42t-64 -150t-155 -525q-53 -201 -156 -320q-145 -172 -422 -172q-111 0 -205 38q-255 103 -196 419q14 78 86 364
t75 309q3 25 1 35q-5 29 -77 48q-71 20 -71 51t62 30l215 -10l211 6q23 0 38 -10t15 -27q0 -16 -13 -26t-66 -22q-54 -12 -80 -36t-48 -98q-63 -207 -139 -545q-27 -95 -26 -163t41 -122t110 -84t125 -30q151 0 243 67t165 275t149 533q30 129 14 159t-98 46t-82 49
q4 35 65 34l199 -6l197 8q57 0 57 -38z" />
    <glyph glyph-name="umacron" unicode="&#x16b;" horiz-adv-x="1085" 
d="M297 666q0 20 -11 20q-38 0 -152 -102q-4 -4 -20 4t-16 34t47 82t131 107t150 51q29 0 47 -35t13 -71t-189 -572q-6 -16 1 -39t28 -22q47 0 104 51q56 52 138 164t261 444q45 78 73 78t52 -20t25 -49q-1 -29 -31 -127t-78 -264q-48 -167 -67 -230q-2 -6 5 -13t17 -7
q55 0 152 94q32 36 55 21q8 -5 8 -25t-32 -84q-32 -62 -122 -128q-91 -66 -184 -65q-34 0 -58 26t-24 43t28 94q26 77 83 249q2 4 -4 14t-16 0q-168 -229 -308 -340q-84 -70 -172 -69q-35 0 -69 16t-45 45q-12 29 3 105t169 481q8 19 8 39zM893 1190q18 0 18 -36t-26 -81
q-14 -20 -27 -20q-287 -10 -371 -11q-4 0 -13 14t-9 40q1 24 19 58t32 36h377z" />
    <glyph glyph-name="Ubreve" unicode="&#x16c;" horiz-adv-x="1466" 
d="M968 1333q-110 0 -157 65t-33 167q4 20 16 33t25 14q31 0 39 -49q20 -93 135 -93t185 97q31 41 49 41t24 -18t0 -42q-23 -76 -99 -146q-74 -70 -184 -69zM1624 1217q0 -31 -73 -45t-97 -42t-64 -150t-155 -525q-53 -201 -156 -320q-145 -172 -422 -172q-111 0 -205 38
q-255 103 -196 419q14 78 86 364t75 309q3 25 1 35q-5 29 -77 48q-71 20 -71 51t62 30l215 -10l211 6q23 0 38 -10t15 -27q0 -16 -13 -26t-66 -22q-54 -12 -80 -36t-48 -98q-63 -207 -139 -545q-27 -95 -26 -163t41 -122t110 -84t125 -30q151 0 243 67t165 275t149 533
q30 129 14 159t-98 46t-82 49q4 35 65 34l199 -6l197 8q57 0 57 -38z" />
    </font>
</defs>
</svg>
