<?xml version="1.0" standalone="no"?>
<!DOCTYPE svg PUBLIC "-//W3C//DTD SVG 1.1//EN" "http://www.w3.org/Graphics/SVG/1.1/DTD/svg11.dtd" >
<svg xmlns="http://www.w3.org/2000/svg">
<metadata>
Created by FontPrep 20130207 at Mon Jan  4 13:39:28 2016
 By Sergey Khabaroff
Copyright (c) 2013 by Andriy Konstantynov. All rights reserved.
</metadata>
<defs>
<font id="c7bd337a1c9d78ef32b4f8a39048e62a" horiz-adv-x='1024' >
  <font-face 
    font-family="RistrettoPro-Medium"
    font-weight="500"
    font-stretch="normal"
    units-per-em="2048"
    panose-1="2 11 0 8 3 2 0 2 0 4"
    ascent="1536"
    descent="-512"
    x-height="1024"
    cap-height="1434"
    bbox="-98 -471.017 2132 1874"
    underline-thickness="102"
    underline-position="-102"
    unicode-range="U+0020-F739"
  />
<missing-glyph horiz-adv-x="327" 
 />
    <glyph glyph-name="afii10056_afii10056" unicode="&#x407;&#x407;" horiz-adv-x="647" 
d="M575 1536v205h125v-205h-125zM416 0v1434h145v-1434h-145zM260 1536v205h125v-205h-125zM-51 1536v205h125v-205h-125zM86 0v1434h145v-1434h-145z" />
    <glyph glyph-name="quoteright_afii10056" unicode="&#x2019;&#x407;" horiz-adv-x="540" 
d="M467 1536v205h125v-205h-125zM307 0v1434h146v-1434h-146zM82 1536v205h139v-205q0 -54 -19 -116t-38 -99l-21 -37h-118q57 133 57 252z" />
    <glyph glyph-name="quoteright_afii10104" unicode="&#x2019;&#x457;" horiz-adv-x="518" 
d="M446 1202v207h125v-207h-125zM287 0v1024h145v-1024h-145zM82 1278v207h139v-207q0 -52 -19 -114t-38 -99l-21 -37h-118q57 133 57 250z" />
    <glyph glyph-name="afii10104_afii10104" unicode="&#x457;&#x457;" horiz-adv-x="647" 
d="M575 1202v207h125v-207h-125zM416 0v1024h145v-1024h-145zM262 1202v207h125v-207h-125zM-51 1202v207h125v-207h-125zM86 0v1024h145v-1024h-145z" />
    <glyph glyph-name=".notdef" horiz-adv-x="327" 
 />
    <glyph glyph-name=".null" horiz-adv-x="0" 
 />
    <glyph glyph-name="nonmarkingreturn" horiz-adv-x="681" 
 />
    <glyph glyph-name="space" unicode=" " horiz-adv-x="327" 
 />
    <glyph glyph-name="exclam" unicode="!" horiz-adv-x="317" 
d="M86 0v205h145v-205h-145zM86 385v1049h145v-1049h-145z" />
    <glyph glyph-name="quotedbl" unicode="&#x22;" horiz-adv-x="507" 
d="M311 1126v359h115v-359h-115zM82 1126v359h113v-359h-113z" />
    <glyph glyph-name="numbersign" unicode="#" horiz-adv-x="741" 
d="M293 426h166v582h-166v-582zM147 0v307h-81v119h81v582h-81v118h81v308h146v-308h166v308h145v-308h82v-118h-82v-582h82v-119h-82v-307h-145v307h-166v-307h-146z" />
    <glyph glyph-name="dollar" unicode="$" 
d="M264 -205v205q-86 12 -139 72t-53 153v185h145v-185q0 -53 31 -84t79 -31t80 32q32 30 31 83v232q0 98 -129 154q-53 24 -106 53t-91 87t-38 144v211q0 92 53 151t137 74v205h125v-205q84 -13 138 -73t55 -152v-184h-146v184q0 53 -32 84t-78 31t-77 -31q-30 -31 -30 -84
v-211q0 -95 129 -156q52 -25 106 -53t92 -86q38 -57 38 -143v-232q0 -94 -54 -153t-141 -72v-205h-125z" />
    <glyph glyph-name="percent" unicode="%" horiz-adv-x="1036" 
d="M664 428v-244q0 -50 28 -76t68 -26q42 0 70 27t28 75v244q0 47 -29 76q-29 28 -69 28t-69 -28q-27 -29 -27 -76zM565 184v244q-1 90 55 143t139 53t140 -52q57 -54 57 -144v-244q0 -90 -56 -142t-140 -52t-140 52t-55 142zM180 1247v-243q0 -49 27 -76t69 -27t69 27
q28 27 28 76v243q0 47 -29 76t-69 29q-39 0 -67 -29t-28 -76zM82 1004v243q0 89 54 143t137 54t141 -53t57 -144v-243q0 -90 -56 -142q-57 -52 -141 -53q-84 1 -138 53t-54 142zM190 0l545 1434h113l-547 -1434h-111z" />
    <glyph glyph-name="ampersand" unicode="&#x26;" 
d="M326 645q-47 0 -78 -32t-31 -85v-303q0 -53 31 -84t79 -31t80 32q32 30 31 83v420h-112zM326 764h112v82h146v-621q0 -111 -73 -173t-185 -62t-183 62q-72 62 -71 173v275q0 145 123 207q-123 57 -123 204v244q0 111 71 174q72 63 183 63q110 0 184 -62q74 -64 74 -175
v-131h-146v131q0 53 -31 85q-32 32 -80 32t-79 -32t-31 -85v-274q0 -53 31 -85t78 -32z" />
    <glyph glyph-name="quotesingle" unicode="'" horiz-adv-x="276" 
d="M82 1126v359h113v-359h-113z" />
    <glyph glyph-name="parenleft" unicode="(" horiz-adv-x="387" 
d="M326 1425q-47 1 -78 -31t-31 -85v-1289q0 -54 31 -84t78 -30h20v-121h-20q-111 0 -183 62t-71 173v1289q0 111 71 174q72 63 183 63h20v-121h-20z" />
    <glyph glyph-name="parenright" unicode=")" horiz-adv-x="387" 
d="M61 -94q47 0 79 32t32 85v1288q0 53 -32 84t-79 30h-20v121h20q111 0 184 -62t72 -173v-1288q0 -111 -72 -175q-73 -63 -184 -63h-20v121h20z" />
    <glyph glyph-name="asterisk" unicode="*" horiz-adv-x="686" 
d="M55 1104v121h183l-93 157l105 62l90 -162l92 162l105 -60l-93 -159h187v-121h-187l91 -158l-103 -59l-92 157l-90 -157l-103 59l91 158h-183z" />
    <glyph glyph-name="plus" unicode="+" horiz-adv-x="686" 
d="M55 578v118h228v240h118v-240h230v-118h-230v-238h-118v238h-228z" />
    <glyph glyph-name="comma" unicode="," horiz-adv-x="303" 
d="M82 0v205h139v-205q0 -54 -19 -116t-38 -99l-21 -37h-118q57 133 57 252z" />
    <glyph glyph-name="hyphen" unicode="-" horiz-adv-x="440" 
d="M55 506v119h330v-119h-330z" />
    <glyph glyph-name="period" unicode="." horiz-adv-x="303" 
d="M82 0v205h139v-205h-139z" />
    <glyph glyph-name="slash" unicode="/" horiz-adv-x="598" 
d="M55 -205l342 1731h146l-342 -1731h-146z" />
    <glyph glyph-name="zero" unicode="0" 
d="M217 1155v-930q0 -53 31 -84t79 -31t80 32q32 30 31 83v930q0 53 -31 85q-32 32 -80 32t-79 -32t-31 -85zM326 1393q110 1 184 -63t74 -175v-930q0 -111 -73 -173t-185 -62t-183 62q-72 62 -71 173v930q0 111 72 175t182 63z" />
    <glyph glyph-name="one" unicode="1" horiz-adv-x="456" 
d="M371 1382v-1382h-146v1245l-184 -112v137l184 112h146z" />
    <glyph glyph-name="two" unicode="2" horiz-adv-x="647" 
d="M72 0v274q0 82 37 152t89 117t105 91q127 105 127 212v309q0 53 -32 85t-79 32t-77 -30t-31 -81v-153h-145v153q0 109 71 170t181 61t184 -62q74 -64 73 -175v-309q-1 -82 -37 -152t-88 -116t-106 -92q-128 -106 -127 -212v-155h358v-119h-503z" />
    <glyph glyph-name="three" unicode="3" horiz-adv-x="647" 
d="M217 223q0 -51 31 -81t77 -31q47 -1 79 31t32 85v318q0 51 -33 83t-79 31h-105v119h98q49 0 81 32t32 85v260q0 53 -32 85t-79 32t-77 -30t-31 -81v-153h-145v153q0 109 71 170t181 61t184 -62q74 -64 73 -175v-225q0 -154 -137 -209q143 -55 144 -213v-281
q0 -111 -74 -174t-184 -63t-181 62q-72 62 -71 171v152h145v-152z" />
    <glyph glyph-name="four" unicode="4" horiz-adv-x="647" 
d="M414 391v836h-4l-236 -836h240zM41 270v121l291 991h223v-991h49v-121h-49v-270h-141v270h-373z" />
    <glyph glyph-name="five" unicode="5" 
d="M217 645h-145v737h501v-118h-356v-480q78 106 201 107q70 0 118 -47t48 -125v-494q0 -111 -73 -173t-185 -62t-183 62q-72 62 -71 173v150h145v-150q0 -53 31 -84t79 -31t80 32q32 30 31 83v457q0 40 -24 64t-70 24q-45 0 -86 -39t-41 -86z" />
    <glyph glyph-name="six" unicode="6" 
d="M217 573v-348q0 -53 31 -84t79 -31t80 32q32 30 31 83v406q0 41 -24 65t-72 23q-47 0 -86 -39t-39 -107zM434 1159q0 53 -30 83t-77 30q-46 0 -78 -32t-32 -85v-422q78 106 201 107q70 0 118 -47t48 -125v-443q0 -111 -73 -173t-185 -62t-183 62q-72 62 -71 173v930
q0 111 72 174q73 63 183 63q109 0 181 -62t72 -171v-151h-146v151z" />
    <glyph glyph-name="seven" unicode="7" horiz-adv-x="614" 
d="M55 1264v118h504v-71l-270 -1311h-148l262 1264h-348z" />
    <glyph glyph-name="eight" unicode="8" 
d="M217 528v-303q0 -53 31 -84t79 -31t80 32q32 30 31 83v303q0 53 -31 85q-32 32 -80 32t-79 -32t-31 -85zM217 1155v-274q0 -53 31 -85t79 -32t80 32t31 85v274q0 53 -31 85q-32 32 -80 32t-79 -32t-31 -85zM326 1393q110 1 184 -63t74 -175v-244q0 -145 -125 -204
q125 -63 125 -207v-275q0 -111 -73 -173t-185 -62t-183 62q-72 62 -71 173v275q0 145 123 207q-123 57 -123 204v244q0 111 72 175t182 63z" />
    <glyph glyph-name="nine" unicode="9" 
d="M438 807v350q0 53 -31 84q-32 31 -79 31t-79 -31t-32 -84v-405q0 -41 24 -66q23 -24 71 -24t87 40t39 105zM217 225q0 -53 30 -83t78 -31t81 31t32 87v420q-76 -106 -200 -106q-70 0 -118 46t-48 126v442q0 111 72 173q73 62 184 62q112 0 184 -62t72 -173v-928
q0 -111 -75 -175t-185 -64t-181 63q-72 63 -71 172v150h145v-150z" />
    <glyph glyph-name="colon" unicode=":" horiz-adv-x="303" 
d="M82 817v207h139v-207h-139zM82 0v205h139v-205h-139z" />
    <glyph glyph-name="semicolon" unicode=";" horiz-adv-x="303" 
d="M82 817v207h139v-207h-139zM82 0v205h139v-205q0 -54 -19 -116t-38 -99l-21 -37h-118q57 133 57 252z" />
    <glyph glyph-name="less" unicode="&#x3c;" horiz-adv-x="829" 
d="M82 709l666 200v-149l-541 -144v-4l541 -145v-150l-666 201v191z" />
    <glyph glyph-name="equal" unicode="=" horiz-adv-x="686" 
d="M55 399v119h576v-119h-576zM55 711v118h576v-118h-576z" />
    <glyph glyph-name="greater" unicode="&#x3e;" horiz-adv-x="829" 
d="M748 520l-666 -201v150l539 143v4l-539 146v149l666 -200v-191z" />
    <glyph glyph-name="question" unicode="?" horiz-adv-x="647" 
d="M244 0v205h145v-205h-145zM244 385v170q0 146 65 211q27 28 55 50q66 53 66 169v221q0 53 -32 85t-79 32t-77 -30t-31 -81v-153h-145v153q0 109 71 170q71 62 181 62t184 -64t73 -174v-221q0 -146 -65 -211q-26 -28 -54 -50q-65 -53 -67 -169v-170h-145z" />
    <glyph glyph-name="at" unicode="@" horiz-adv-x="1411" 
d="M594 799v-600q0 -41 24 -65t72 -24q47 0 87 40q40 39 40 106v625q-45 33 -101 33t-89 -32q-33 -30 -33 -83zM702 -299v-121q-268 0 -444 164t-176 449v634q0 285 177 451t444 166t447 -166t179 -451v-827h-512v96q-78 -106 -203 -106q-70 0 -118 47t-47 125v637
q0 111 73 173q74 62 166 62q160 0 246 -57l29 -19v-839h221v708q0 225 -138 361t-342 135q-204 0 -340 -135t-137 -361v-634q0 -227 136 -359t339 -133z" />
    <glyph glyph-name="A" unicode="A" horiz-adv-x="645" 
d="M229 475h187l-90 791h-4zM27 0l200 1434h191l200 -1434h-147l-47 356h-205l-45 -356h-147z" />
    <glyph glyph-name="B" unicode="B" horiz-adv-x="659" 
d="M231 799h101q47 -1 80 31t32 85v281q0 55 -32 87q-33 32 -80 32h-101v-516zM338 680h-107v-561h107q47 0 79 32t32 87v327q0 53 -32 84t-79 31zM86 0v1434h246q110 0 184 -64t74 -174v-246q0 -154 -137 -209q141 -55 141 -213v-290q0 -110 -73 -174t-183 -64h-252z" />
    <glyph glyph-name="C" unicode="C" horiz-adv-x="645" 
d="M217 1210v-989q0 -51 30 -81t76 -30q45 0 75 30t30 81v189h145v-189q1 -109 -71 -170t-180 -61t-180 61q-71 61 -70 170v989q0 109 70 171q71 63 180 63q108 0 180 -62t71 -172v-186h-145v186q0 51 -30 82t-76 31t-75 -31q-30 -31 -30 -82z" />
    <glyph glyph-name="D" unicode="D" horiz-adv-x="665" 
d="M231 119h105q49 0 81 32t32 85v960q0 55 -32 87t-81 32h-105v-1196zM86 0v1434h250q110 0 184 -64t74 -174v-960q0 -112 -73 -174t-185 -62h-250z" />
    <glyph glyph-name="E" unicode="E" horiz-adv-x="624" 
d="M86 0v1434h467v-119h-322v-520h281v-119h-281v-557h322v-119h-467z" />
    <glyph glyph-name="F" unicode="F" horiz-adv-x="624" 
d="M86 0v1434h467v-119h-322v-520h281v-119h-281v-676h-145z" />
    <glyph glyph-name="G" unicode="G" horiz-adv-x="645" 
d="M326 659v119h247v-557q1 -109 -71 -170t-180 -61t-180 61q-71 61 -70 170v989q0 109 70 171q71 63 180 63q108 0 180 -62t71 -172v-186h-145v186q0 51 -30 82t-76 31t-75 -31q-30 -31 -30 -82v-989q0 -51 30 -81t76 -30q45 0 75 30t30 81v438h-102z" />
    <glyph glyph-name="H" unicode="H" horiz-adv-x="686" 
d="M86 0v1434h145v-639h224v639h145v-1434h-145v676h-224v-676h-145z" />
    <glyph glyph-name="I" unicode="I" horiz-adv-x="317" 
d="M86 0v1434h145v-1434h-145z" />
    <glyph glyph-name="J" unicode="J" horiz-adv-x="645" 
d="M72 410h145v-187q0 -51 31 -82t76 -31q44 0 74 32q30 30 30 81v1211h145v-1211q-1 -109 -71 -171t-178 -62t-181 62q-72 62 -71 171v187z" />
    <glyph glyph-name="K" unicode="K" 
d="M86 0v1434h145v-639h64l176 637h150l-215 -697l221 -735h-150l-180 676h-66v-676h-145z" />
    <glyph glyph-name="L" unicode="L" horiz-adv-x="583" 
d="M86 0v1434h145v-1315h312v-119h-457z" />
    <glyph glyph-name="M" unicode="M" horiz-adv-x="1001" 
d="M86 0v1434h215l197 -1215h4l198 1215h213v-1434h-139v1186h-4l-186 -1186h-166l-187 1186h-4v-1186h-141z" />
    <glyph glyph-name="N" unicode="N" horiz-adv-x="690" 
d="M86 0v1434h121l252 -973h4v973h141v-1434h-121l-252 973h-4v-973h-141z" />
    <glyph glyph-name="O" unicode="O" 
d="M217 1206v-981q0 -53 31 -84t79 -31t80 32q32 30 31 83v981q0 53 -31 85q-32 32 -80 32t-79 -32t-31 -85zM326 1444q110 0 184 -64t74 -174v-981q0 -111 -73 -173t-185 -62t-183 62q-72 62 -71 173v981q0 110 72 174t182 64z" />
    <glyph glyph-name="P" unicode="P" horiz-adv-x="659" 
d="M231 696h101q47 0 80 32t32 85v383q0 55 -32 87q-33 32 -80 32h-101v-619zM86 0v1434h246q110 0 184 -64t74 -174v-383q0 -111 -74 -173t-184 -62h-101v-578h-145z" />
    <glyph glyph-name="Q" unicode="Q" 
d="M217 1206v-981q0 -53 31 -84t79 -31t80 32q32 30 31 83v981q0 53 -31 85q-32 32 -80 32t-79 -32t-31 -85zM252 -31v33q-82 18 -131 76t-49 147v981q0 111 71 174q72 64 183 64q110 0 184 -64t74 -174v-981q0 -90 -52 -148t-135 -75v-33q0 -53 33 -84t80 -30h74v-121h-74
q-114 0 -186 62t-72 173z" />
    <glyph glyph-name="R" unicode="R" horiz-adv-x="659" 
d="M231 733h101q47 0 80 32t32 83v348q0 55 -32 87q-33 32 -80 32h-101v-582zM231 614v-614h-145v1434h246q110 0 184 -64t74 -174v-348q0 -76 -38 -128t-101 -75l176 -645h-150l-147 614h-99z" />
    <glyph glyph-name="S" unicode="S" 
d="M72 410h145v-185q0 -53 31 -84t79 -31t80 32q32 30 31 83v283q0 97 -129 155q-53 25 -106 53t-91 86t-38 144v262q0 111 71 173q72 63 182 63q111 0 183 -62t72 -174v-184h-146v184q0 53 -32 84t-78 31t-77 -31q-30 -31 -30 -84v-262q0 -97 129 -155q52 -25 106 -54
t92 -86t38 -143v-283q0 -111 -73 -173t-185 -62t-183 62q-72 62 -71 173v185z" />
    <glyph glyph-name="T" unicode="T" horiz-adv-x="593" 
d="M35 1315v119h524v-119h-188v-1315h-146v1315h-190z" />
    <glyph glyph-name="U" unicode="U" 
d="M72 1434h145v-1209q0 -53 31 -84t79 -31t80 32q32 30 31 83v1209h146v-1209q0 -111 -73 -173t-185 -62t-183 62q-72 62 -71 173v1209z" />
    <glyph glyph-name="V" unicode="V" horiz-adv-x="645" 
d="M227 0l-200 1434h147l145 -1266h5l147 1266h147l-200 -1434h-191z" />
    <glyph glyph-name="W" unicode="W" horiz-adv-x="1095" 
d="M227 0l-200 1434h151l139 -1274h5l131 1274h188l131 -1274h4l139 1274h152l-201 -1434h-192l-125 1260h-4l-125 -1260h-193z" />
    <glyph glyph-name="X" unicode="X" horiz-adv-x="645" 
d="M23 0l188 737l-182 697h149l141 -637h5l143 635h149l-182 -697l189 -735h-150l-147 678h-4l-150 -678h-149z" />
    <glyph glyph-name="Y" unicode="Y" horiz-adv-x="645" 
d="M248 0v459l-221 975h145l147 -744h5l149 744h145l-225 -975v-459h-145z" />
    <glyph glyph-name="Z" unicode="Z" horiz-adv-x="645" 
d="M72 0v72l346 1243h-346v119h501v-72l-342 -1243h342v-119h-501z" />
    <glyph glyph-name="bracketleft" unicode="[" horiz-adv-x="387" 
d="M72 -207v1743h274v-119h-129v-1503h129v-121h-274z" />
    <glyph glyph-name="backslash" unicode="\" horiz-adv-x="598" 
d="M397 -205l-342 1731h146l342 -1731h-146z" />
    <glyph glyph-name="bracketright" unicode="]" horiz-adv-x="387" 
d="M41 -207v119h131v1503h-131v121h276v-1743h-276z" />
    <glyph glyph-name="asciicircum" unicode="^" horiz-adv-x="659" 
d="M135 1075l-84 84l338 287l338 -287l-84 -84l-254 221z" />
    <glyph glyph-name="underscore" unicode="_" 
d="M-6 -170v119h665v-119h-665z" />
    <glyph glyph-name="grave" unicode="`" horiz-adv-x="503" 
d="M342 1143l-266 225l84 86l268 -225z" />
    <glyph glyph-name="a" unicode="a" 
d="M217 352v-157q0 -39 23 -62q24 -23 68 -23t87 41q43 40 43 105v225l-110 -14q-49 -4 -80 -34t-31 -81zM438 0v96q-76 -106 -205 -106q-69 0 -115 45t-46 123v194q0 106 63 164t164 70l139 18v195q0 53 -31 84q-32 31 -79 31t-79 -32q-32 -30 -32 -83v-109h-145v109
q0 111 72 173q73 62 184 62q112 0 184 -62t72 -173v-799h-146z" />
    <glyph glyph-name="b" unicode="b" horiz-adv-x="665" 
d="M449 225v600q0 41 -25 65q-26 24 -72 24t-86 -40q-40 -39 -39 -106v-625q43 -33 99 -33t90 32q33 30 33 83zM82 1485h145v-557q78 106 201 106q70 0 118 -47t48 -125v-637q0 -111 -74 -173t-165 -62t-154 19t-90 38l-29 19v1419z" />
    <glyph glyph-name="c" unicode="c" horiz-adv-x="645" 
d="M217 801v-580q0 -51 30 -81t76 -30q45 0 75 30t30 81v113h145v-113q1 -109 -71 -170t-180 -61t-180 61q-71 61 -70 170v580q0 109 70 171q71 62 180 62q108 0 180 -62t71 -171v-111h-145v111q0 51 -30 82t-76 31t-75 -32q-30 -30 -30 -81z" />
    <glyph glyph-name="d" unicode="d" horiz-adv-x="669" 
d="M217 799v-600q0 -41 24 -65q23 -24 71 -24t87 40q39 39 39 106v625q-43 33 -100 33t-89 -32q-32 -30 -32 -83zM438 0v96q-78 -106 -200 -106q-70 0 -118 47t-48 125v637q0 111 64 173q65 62 153 62t149 -30v481h146v-1485h-146z" />
    <glyph glyph-name="e" unicode="e" 
d="M217 797v-213h221v213q0 57 -30 87q-31 30 -80 30t-80 -30t-31 -87zM584 465h-367v-240q0 -53 31 -84t79 -31t80 32q32 30 31 83v109h146v-109q0 -111 -73 -173t-185 -62t-183 62q-72 62 -71 173v572q0 111 71 174q72 63 183 63q110 0 184 -63t74 -174v-332z" />
    <glyph glyph-name="f" unicode="f" horiz-adv-x="475" 
d="M86 0v1249q0 113 73 179t183 67q37 0 67 -7q29 -7 31 -7v-119q-43 12 -91 12t-83 -34t-35 -91v-225h209v-119h-209v-905h-145z" />
    <glyph glyph-name="g" unicode="g" 
d="M217 799v-600q0 -41 24 -65q23 -24 71 -24t87 40q39 39 39 106v625q-43 33 -100 33t-89 -32q-32 -30 -32 -83zM72 -156h145v-77q0 -53 32 -85t79 -32t79 31t31 83v332q-78 -106 -200 -106q-70 0 -118 47t-48 125v637q0 111 72 173t164 62t156 -19t93 -38l27 -19v-1191
q0 -111 -73 -175t-183 -63q-110 0 -184 63q-73 63 -72 175v77z" />
    <glyph glyph-name="h" unicode="h" horiz-adv-x="669" 
d="M86 0v1485h145v-557q78 106 201 106q72 0 120 -46t48 -126v-862h-145v825q0 41 -25 65q-26 24 -72 24t-86 -40q-40 -39 -41 -106v-768h-145z" />
    <glyph glyph-name="i" unicode="i" horiz-adv-x="317" 
d="M86 1227v207h145v-207h-145zM86 0v1024h145v-1024h-145z" />
    <glyph glyph-name="j" unicode="j" horiz-adv-x="317" 
d="M86 1227v207h145v-207h-145zM-17 -350q43 0 73 26t30 74v1274h145v-1274q0 -102 -67 -162q-68 -59 -166 -59q-47 0 -90 14v119q31 -12 75 -12z" />
    <glyph glyph-name="k" unicode="k" 
d="M86 0v1485h145v-901h76l162 440h152l-205 -498l211 -526h-152l-168 469h-76v-469h-145z" />
    <glyph glyph-name="l" unicode="l" horiz-adv-x="317" 
d="M86 0v1485h145v-1485h-145z" />
    <glyph glyph-name="m" unicode="m" horiz-adv-x="1038" 
d="M231 768v-768h-145v1024h145v-96q78 106 201 106q61 0 105 -29q43 -30 57 -81q80 111 207 110q70 0 118 -47t48 -125v-862h-146v825q0 41 -24 65q-25 24 -71 24t-86 -41q-40 -40 -40 -101v-772h-145v825q0 41 -25 65q-26 24 -72 24t-86 -40q-40 -38 -41 -106z" />
    <glyph glyph-name="n" unicode="n" horiz-adv-x="669" 
d="M231 768v-768h-145v1024h145v-96q78 106 201 106q72 0 120 -46t48 -126v-862h-145v825q0 41 -25 65q-26 24 -72 24t-86 -40q-40 -38 -41 -106z" />
    <glyph glyph-name="o" unicode="o" 
d="M217 797v-572q0 -53 31 -84t79 -31t80 32q32 30 31 83v572q0 53 -31 85q-32 32 -80 32t-79 -32t-31 -85zM326 1034q110 0 184 -63t74 -174v-572q0 -111 -73 -173t-185 -62t-183 62q-72 62 -71 173v572q0 111 71 174q72 63 183 63z" />
    <glyph glyph-name="p" unicode="p" horiz-adv-x="669" 
d="M455 225v600q0 41 -25 65q-26 24 -72 24t-86 -40q-40 -39 -41 -106v-625q43 -33 101 -33t90 32q33 30 33 83zM86 -410v1434h145v-96q78 106 201 106q72 0 120 -46t48 -126v-637q0 -111 -66 -173t-155 -62q-90 0 -148 30v-430h-145z" />
    <glyph glyph-name="q" unicode="q" 
d="M217 799v-600q0 -41 24 -65q23 -24 71 -24t87 40q39 39 39 106v625q-43 33 -100 33t-89 -32q-32 -30 -32 -83zM438 -410v506q-78 -106 -200 -106q-70 0 -118 47t-48 125v637q0 111 72 173t164 62t156 -19t93 -38l27 -19v-1368h-146z" />
    <glyph glyph-name="r" unicode="r" horiz-adv-x="600" 
d="M86 0v1024h145v-135q74 145 203 145q53 0 89 -36t36 -97v-211h-145v166q0 27 -16 42t-38 15q-59 0 -94 -56t-35 -140v-717h-145z" />
    <glyph glyph-name="s" unicode="s" horiz-adv-x="645" 
d="M72 334h145v-113q0 -51 30 -81t76 -30q45 0 75 30t30 81v129q0 80 -126 119q-52 16 -103 39t-88 71t-37 121v105q0 106 70 168q72 61 178 61t178 -61t71 -168v-115h-145v115q0 51 -30 80t-74 29t-74 -30q-29 -28 -29 -79v-105q0 -79 125 -118q51 -16 103 -39
q51 -23 89 -71t37 -122v-129q1 -109 -71 -170t-180 -61t-180 61q-71 61 -70 170v113z" />
    <glyph glyph-name="t" unicode="t" horiz-adv-x="481" 
d="M440 4q-2 0 -30 -7t-68 -7q-112 0 -184 66t-72 180v1034h145v-246h209v-119h-209v-669q0 -58 35 -92q55 -55 174 -21v-119z" />
    <glyph glyph-name="u" unicode="u" horiz-adv-x="669" 
d="M438 0v96q-78 -106 -200 -106q-70 0 -118 47t-48 125v862h145v-825q0 -41 24 -65q23 -24 71 -24t87 40q39 39 39 106v768h146v-1024h-146z" />
    <glyph glyph-name="v" unicode="v" horiz-adv-x="645" 
d="M227 0l-200 1024h149l143 -897h5l145 897h149l-200 -1024h-191z" />
    <glyph glyph-name="w" unicode="w" horiz-adv-x="1048" 
d="M213 0l-186 1024h149l131 -895h4l121 895h184l119 -895h4l131 895h150l-186 -1024h-191l-117 881h-4l-119 -881h-190z" />
    <glyph glyph-name="x" unicode="x" 
d="M29 0l202 526l-196 498h151l138 -418h4l141 418h152l-197 -498l203 -526h-152l-147 451h-4l-144 -451h-151z" />
    <glyph glyph-name="y" unicode="y" horiz-adv-x="665" 
d="M72 -156h145v-77q0 -53 32 -85t79 -32t79 31t31 83v332q-78 -106 -200 -106q-70 0 -118 47t-48 125v862h145v-825q0 -41 24 -65q23 -24 71 -24t87 40q39 39 39 106v768h146v-1257q0 -111 -73 -175t-183 -63q-110 0 -184 63q-73 63 -72 175v77z" />
    <glyph glyph-name="z" unicode="z" horiz-adv-x="645" 
d="M72 0v72l340 833h-340v119h501v-72l-335 -833h335v-119h-501z" />
    <glyph glyph-name="braceleft" unicode="{" horiz-adv-x="493" 
d="M453 -215h-21q-106 0 -181 63t-75 168v478q0 53 -32 84t-78 30h-21v123h21q46 0 78 33t32 86v459q0 111 73 174t183 63h21v-121h-21q-47 1 -79 -31t-31 -85v-459q0 -119 -91 -180q90 -59 91 -176v-478q2 -51 34 -81t76 -29h21v-121z" />
    <glyph glyph-name="bar" unicode="|" horiz-adv-x="317" 
d="M86 -205v1741h145v-1741h-145z" />
    <glyph glyph-name="braceright" unicode="}" horiz-adv-x="493" 
d="M45 -215v121h21q46 0 78 32t32 85v458q0 119 90 181q-90 59 -90 176v477q0 51 -32 81t-78 29h-21v121h21q106 0 181 -63t75 -168v-477q0 -53 32 -84t78 -31h21v-123h-21q-47 0 -79 -33t-31 -86v-458q0 -111 -73 -175t-183 -63h-21z" />
    <glyph glyph-name="asciitilde" unicode="~" horiz-adv-x="768" 
d="M72 481q0 87 56 139t136 52t134 -54t96 -53q42 0 68 26q28 26 28 71h106q0 -86 -56 -138t-126 -53q-70 0 -108 27q-37 28 -66 54t-68 26q-38 0 -66 -26t-28 -71h-106z" />
    <glyph glyph-name="exclamdown" unicode="&#xa1;" horiz-adv-x="317" 
d="M86 817v207h145v-207h-145zM86 -410v1049h145v-1049h-145z" />
    <glyph glyph-name="cent" unicode="&#xa2;" horiz-adv-x="645" 
d="M248 -205v207q-80 16 -128 72t-48 147v580q0 90 48 146t128 75v207h145v-207q80 -18 130 -76t50 -145v-111h-145v111q0 51 -30 82t-76 31t-75 -32q-30 -30 -30 -81v-580q0 -51 30 -81t76 -30q45 0 75 30t30 81v113h145v-113q0 -88 -50 -145t-130 -74v-207h-145z" />
    <glyph glyph-name="sterling" unicode="&#xa3;" horiz-adv-x="696" 
d="M45 614v119h78v477q0 109 71 171q72 63 180 63t180 -62t71 -172v-186h-146v186q0 51 -30 82q-31 31 -76 31t-75 -31t-30 -82v-477h357v-119h-357v-495h357v-119h-580v119h78v495h-78z" />
    <glyph glyph-name="currency" unicode="&#xa4;" 
d="M217 592v-162q0 -53 31 -84t79 -31t80 31t31 84v162q0 53 -31 85q-32 32 -80 32t-79 -32t-31 -85zM330 829q47 0 88 -14l51 158h152l-89 -230q51 -61 52 -151v-162q0 -84 -45 -141l88 -238h-152l-49 158q-43 -14 -100 -14t-99 14l-47 -158h-151l86 238q-43 55 -43 141
v162q0 90 51 151l-88 230h151l47 -158q50 14 97 14z" />
    <glyph glyph-name="yen" unicode="&#xa5;" horiz-adv-x="645" 
d="M66 483v121h149l-188 830h145l147 -744h5l149 744h145l-192 -830h154v-121h-181l-6 -24v-111h187v-119h-187v-229h-145v229h-182v119h182v111l-6 24h-176z" />
    <glyph glyph-name="brokenbar" unicode="&#xa6;" horiz-adv-x="317" 
d="M86 768v768h145v-768h-145zM86 -205v768h145v-768h-145z" />
    <glyph glyph-name="section" unicode="&#xa7;" 
d="M438 549q0 68 -43 99q-58 42 -172 97q-4 -12 -4 -38v-263q0 -70 45 -103t98 -59q54 -26 74 -36q2 6 2 20v283zM584 266q0 -72 -35 -123q35 -53 35 -137v-242q0 -111 -73 -173t-185 -62t-183 62q-72 62 -71 173v185h145v-185q0 -54 31 -84t79 -30t80 31t31 83v242
q0 97 -129 155q-53 25 -106 53t-91 86t-38 144v263q0 78 39 133q-39 57 -39 147v221q0 111 71 173q72 63 182 63q111 0 183 -62t72 -174v-184h-146v184q0 53 -32 84t-78 31t-77 -31q-30 -31 -30 -84v-221q0 -95 129 -156q52 -25 106 -53t92 -86q38 -57 38 -143v-283z" />
    <glyph glyph-name="dieresis" unicode="&#xa8;" horiz-adv-x="630" 
d="M393 1202v207h125v-207h-125zM96 1202v207h125v-207h-125z" />
    <glyph glyph-name="copyright" unicode="&#xa9;" horiz-adv-x="1411" 
d="M594 899v-367q0 -53 32 -85q32 -31 79 -31t79 32t33 84v84h146v-84q0 -111 -74 -173q-75 -62 -185 -62t-183 62t-72 173v367q0 111 72 174q73 63 184 63t185 -62q74 -64 73 -175v-82h-146v82q0 53 -33 86q-34 33 -80 33t-78 -33t-32 -86zM227 899v-367q1 -194 137 -308
t340 -114t342 116t138 306v367q0 188 -140 306t-341 118q-202 0 -339 -118t-137 -306zM702 1444q266 0 446 -148t181 -397v-367q0 -248 -180 -395q-181 -147 -447 -147t-443 147t-177 395v367q0 249 177 397t443 148z" />
    <glyph glyph-name="ordfeminine" unicode="&#xaa;" horiz-adv-x="366" 
d="M135 1100v-78q0 -39 35 -39q25 0 44 17t19 47v110l-49 -6q-49 -8 -49 -51zM233 922v45q-41 -49 -88 -49q-92 0 -92 81v101q0 102 113 117l67 8v96q0 25 -14 38q-15 13 -35 13t-34 -13t-15 -38v-55h-82v55q0 55 38 87t93 32q56 0 94 -32t37 -87v-399h-82z" />
    <glyph glyph-name="guillemotleft" unicode="&#xab;" horiz-adv-x="641" 
d="M596 870l-137 -358l137 -358h-150l-133 358l133 358h150zM338 870l-135 -358l135 -358h-150l-133 358l133 358h150z" />
    <glyph glyph-name="logicalnot" unicode="&#xac;" horiz-adv-x="686" 
d="M55 608v119h576v-328h-146v209h-430z" />
    <glyph glyph-name="uni00AD" unicode="&#xad;" horiz-adv-x="440" 
d="M55 506v119h330v-119h-330z" />
    <glyph glyph-name="registered" unicode="&#xae;" horiz-adv-x="1411" 
d="M604 735h111q47 0 75 26t27 68v50q1 45 -27 71t-75 25h-111v-240zM604 616v-276h-145v756h256q109 0 179 -58t69 -159v-50q0 -139 -129 -182l149 -307h-137l-137 276h-105zM227 899v-367q1 -194 137 -308t340 -114t342 116t138 306v367q0 188 -140 306t-341 118
q-202 0 -339 -118t-137 -306zM702 1444q266 0 446 -148t181 -397v-367q0 -248 -180 -395q-181 -147 -447 -147t-443 147t-177 395v367q0 249 177 397t443 148z" />
    <glyph glyph-name="macron" unicode="&#xaf;" horiz-adv-x="317" 
d="M-45 1223v118h405v-118h-405z" />
    <glyph glyph-name="degree" unicode="&#xb0;" horiz-adv-x="552" 
d="M180 1247v-51q0 -49 27 -76q27 -26 69 -26t69 26q28 26 28 76v51q0 47 -29 76t-69 29q-39 0 -67 -29t-28 -76zM82 1196v51q0 89 54 143t137 54t141 -53t57 -144v-51q0 -90 -56 -141q-57 -51 -141 -51t-138 51t-54 141z" />
    <glyph glyph-name="plusminus" unicode="&#xb1;" horiz-adv-x="686" 
d="M55 156v118h576v-118h-576zM55 578v118h228v240h118v-240h230v-118h-230v-238h-118v238h-228z" />
    <glyph glyph-name="twosuperior" unicode="&#xb2;" horiz-adv-x="325" 
d="M47 819v127q0 43 24 80q23 36 53 58q76 56 77 106v139q-1 17 -13 29t-28 12q-37 0 -37 -39v-69h-78v69q0 47 33 75t83 28t84 -28t34 -77v-139q0 -43 -24 -80q-23 -37 -53 -57q-78 -53 -77 -107v-65h154v-62h-232z" />
    <glyph glyph-name="threesuperior" unicode="&#xb3;" horiz-adv-x="323" 
d="M164 877q16 0 27 12t12 31v143q1 17 -11 29t-28 12h-49v63h45q41 0 41 41v121q-1 17 -13 29t-28 12q-37 0 -37 -39v-69h-78v69q0 47 33 75t83 28t84 -28t34 -77v-102q0 -66 -60 -90q61 -27 62 -95v-122q0 -49 -34 -77t-83 -28t-83 28t-34 75v69h78v-69q0 -18 11 -30
q12 -11 28 -11z" />
    <glyph glyph-name="acute" unicode="&#xb4;" horiz-adv-x="503" 
d="M160 1143l-84 86l266 225l84 -84z" />
    <glyph glyph-name="mu" unicode="&#xb5;" horiz-adv-x="669" 
d="M72 -307v1331h145v-825q0 -41 24 -65q23 -24 71 -24t87 40q39 39 39 106v768h146v-1024h-146v82q-47 -84 -139 -84q-55 0 -82 33v-338h-145z" />
    <glyph glyph-name="paragraph" unicode="&#xb6;" horiz-adv-x="927" 
d="M842 1434v-1639h-146v1639h146zM573 1434v-1639h-145v783h-100q-111 0 -184 62t-72 173v383q0 111 72 174q73 63 184 64h245z" />
    <glyph glyph-name="periodcentered" unicode="&#xb7;" horiz-adv-x="303" 
d="M82 434v207h139v-207h-139z" />
    <glyph glyph-name="cedilla" unicode="&#xb8;" horiz-adv-x="270" 
d="M82 -283v293h108v-293h-108z" />
    <glyph glyph-name="onesuperior" unicode="&#xb9;" horiz-adv-x="245" 
d="M193 1430v-611h-78v537l-80 -47v71l80 50h78z" />
    <glyph glyph-name="ordmasculine" unicode="&#xba;" horiz-adv-x="366" 
d="M135 1321v-287q1 -25 15 -38t34 -13t35 13q14 13 14 38v287q0 23 -14 37q-15 14 -35 14t-34 -14t-15 -37zM183 1440q57 0 95 -32t37 -87v-287q1 -55 -37 -86q-38 -30 -94 -30t-94 30q-37 30 -37 86v287q0 55 37 87t93 32z" />
    <glyph glyph-name="guillemotright" unicode="&#xbb;" horiz-adv-x="641" 
d="M303 154l137 358l-137 358h152l131 -358l-131 -358h-152zM45 154l137 358l-137 358h152l131 -358l-131 -358h-152z" />
    <glyph glyph-name="onequarter" unicode="&#xbc;" horiz-adv-x="1036" 
d="M864 180v348h-2l-86 -348h88zM705 117v63l114 430h119v-430h20v-63h-20v-117h-74v117h-159zM244 1430v-611h-78v537l-80 -47v71l80 50h78zM190 0l545 1434h113l-547 -1434h-111z" />
    <glyph glyph-name="onehalf" unicode="&#xbd;" horiz-adv-x="1036" 
d="M692 0v127q0 55 39 98t77 77t38 69v139q0 18 -12 30t-29 11q-37 0 -37 -39v-70h-78v70q0 47 33 75q33 27 83 27t84 -28t34 -76v-139q0 -43 -24 -80t-53 -58q-77 -51 -77 -106v-66h154v-61h-232zM244 1430v-611h-78v537l-80 -47v71l80 50h78zM190 0l545 1434h113
l-547 -1434h-111z" />
    <glyph glyph-name="threequarters" unicode="&#xbe;" horiz-adv-x="1036" 
d="M864 180v348h-2l-86 -348h88zM705 117v63l114 430h119v-430h20v-63h-20v-117h-74v117h-159zM215 877q16 0 28 12q11 12 11 31v143q0 17 -11 29t-28 12h-49v63h45q41 0 41 41v121q0 17 -12 29t-29 12q-37 0 -37 -39v-69h-78v69q0 47 33 75t82 28t83 -28t34 -77v-102
q0 -66 -58 -90q59 -27 60 -95v-122q0 -49 -33 -77t-82 -28t-83 28t-34 75v69h78v-69q0 -18 11 -30q12 -11 28 -11zM190 0l545 1434h113l-547 -1434h-111z" />
    <glyph glyph-name="questiondown" unicode="&#xbf;" horiz-adv-x="647" 
d="M252 827v207h145v-207h-145zM252 649h145v-172q0 -149 -66 -210q-28 -25 -55 -49q-65 -57 -65 -169v-229q0 -53 33 -85t80 -32q46 0 76 30t30 81v186h145v-186q1 -109 -71 -170q-72 -62 -182 -62t-183 64q-74 64 -73 174v229q0 146 65 211q27 28 55 50q65 53 66 167v172z
" />
    <glyph glyph-name="Agrave" unicode="&#xc0;" horiz-adv-x="645" 
d="M414 1552l-267 226l84 86l269 -226zM229 475h187l-90 791h-4zM27 0l200 1434h191l200 -1434h-147l-47 356h-205l-45 -356h-147z" />
    <glyph glyph-name="Aacute" unicode="&#xc1;" horiz-adv-x="645" 
d="M231 1552l-84 86l267 226l84 -84zM229 475h187l-90 791h-4zM27 0l200 1434h191l200 -1434h-147l-47 356h-205l-45 -356h-147z" />
    <glyph glyph-name="Acircumflex" unicode="&#xc2;" horiz-adv-x="645" 
d="M150 1559l-84 83l256 205l256 -205l-84 -83l-172 139zM229 475h187l-90 791h-4zM27 0l200 1434h191l200 -1434h-147l-47 356h-205l-45 -356h-147z" />
    <glyph glyph-name="Atilde" unicode="&#xc3;" horiz-adv-x="645" 
d="M70 1573q0 78 45 123t107 45t110 -42t80 -42q30 0 52 20t21 54h93q0 -78 -46 -123t-109 -45t-111 42t-79 42q-31 1 -51 -19t-20 -55h-92zM229 475h187l-90 791h-4zM27 0l200 1434h191l200 -1434h-147l-47 356h-205l-45 -356h-147z" />
    <glyph glyph-name="Adieresis" unicode="&#xc4;" horiz-adv-x="645" 
d="M408 1612v207h124v-207h-124zM111 1612v207h125v-207h-125zM229 475h187l-90 791h-4zM27 0l200 1434h191l200 -1434h-147l-47 356h-205l-45 -356h-147z" />
    <glyph glyph-name="Aring" unicode="&#xc5;" horiz-adv-x="645" 
d="M242 1700q0 -41 24 -65q24 -23 57 -23q35 0 59 24t24 64q0 42 -25 66t-59 24t-56 -24q-24 -24 -24 -66zM323 1874q75 0 125 -47t50 -128t-50 -127t-126 -46t-124 46t-48 127t49 128t124 47zM229 475h187l-90 791h-4zM27 0l200 1434h191l200 -1434h-147l-47 356h-205
l-45 -356h-147z" />
    <glyph glyph-name="AE" unicode="&#xc6;" horiz-adv-x="884" 
d="M397 475v803h-4l-139 -803h143zM813 0h-416v356h-161l-66 -356h-143l272 1434h514v-119h-270v-520h229v-119h-229v-557h270v-119z" />
    <glyph glyph-name="Ccedilla" unicode="&#xc7;" horiz-adv-x="645" 
d="M268 -283v277q-88 14 -142 74t-54 153v989q0 109 70 171q71 63 180 63q108 0 180 -62t71 -172v-186h-145v186q0 51 -30 82t-76 31t-75 -31q-30 -31 -30 -82v-989q0 -51 30 -81t76 -30q45 0 75 30t30 81v189h145v-189q0 -94 -54 -153t-142 -74v-277h-109z" />
    <glyph glyph-name="Egrave" unicode="&#xc8;" horiz-adv-x="624" 
d="M403 1552l-266 226l84 86l268 -226zM86 0v1434h467v-119h-322v-520h281v-119h-281v-557h322v-119h-467z" />
    <glyph glyph-name="Eacute" unicode="&#xc9;" horiz-adv-x="624" 
d="M221 1552l-84 86l266 226l84 -84zM86 0v1434h467v-119h-322v-520h281v-119h-281v-557h322v-119h-467z" />
    <glyph glyph-name="Ecircumflex" unicode="&#xca;" horiz-adv-x="624" 
d="M139 1559l-84 83l256 205l256 -205l-84 -83l-172 139zM86 0v1434h467v-119h-322v-520h281v-119h-281v-557h322v-119h-467z" />
    <glyph glyph-name="Edieresis" unicode="&#xcb;" horiz-adv-x="624" 
d="M397 1612v207h125v-207h-125zM100 1612v207h125v-207h-125zM86 0v1434h467v-119h-322v-520h281v-119h-281v-557h322v-119h-467z" />
    <glyph glyph-name="Igrave" unicode="&#xcc;" horiz-adv-x="317" 
d="M250 1552l-266 226l84 86l268 -226zM86 0v1434h145v-1434h-145z" />
    <glyph glyph-name="Iacute" unicode="&#xcd;" horiz-adv-x="317" 
d="M68 1552l-84 86l266 226l84 -84zM86 0v1434h145v-1434h-145z" />
    <glyph glyph-name="Icircumflex" unicode="&#xce;" horiz-adv-x="317" 
d="M-14 1559l-84 83l256 205l256 -205l-84 -83l-172 139zM86 0v1434h145v-1434h-145z" />
    <glyph glyph-name="Idieresis" unicode="&#xcf;" horiz-adv-x="317" 
d="M246 1612v207h125v-207h-125zM-51 1612v207h125v-207h-125zM86 0v1434h145v-1434h-145z" />
    <glyph glyph-name="Eth" unicode="&#xd0;" horiz-adv-x="665" 
d="M231 119h105q49 0 81 32t32 85v960q0 55 -32 87t-81 32h-105v-520h115v-119h-115v-557zM35 676v119h51v639h250q110 0 184 -64t74 -174v-960q0 -112 -73 -174t-185 -62h-250v676h-51z" />
    <glyph glyph-name="Ntilde" unicode="&#xd1;" horiz-adv-x="690" 
d="M90 1573q0 78 45 123t107 45t111 -42q48 -42 79 -42q30 0 52 20t22 54h92q0 -78 -46 -123t-108 -45t-111 42q-48 42 -79 42q-31 1 -51 -19t-21 -55h-92zM86 0v1434h121l252 -973h4v973h141v-1434h-121l-252 973h-4v-973h-141z" />
    <glyph glyph-name="Ograve" unicode="&#xd2;" 
d="M418 1552l-266 226l84 86l268 -226zM217 1206v-981q0 -53 31 -84t79 -31t80 32q32 30 31 83v981q0 53 -31 85q-32 32 -80 32t-79 -32t-31 -85zM326 1444q110 0 184 -64t74 -174v-981q0 -111 -73 -173t-185 -62t-183 62q-72 62 -71 173v981q0 110 72 174t182 64z" />
    <glyph glyph-name="Oacute" unicode="&#xd3;" 
d="M236 1552l-84 86l266 226l84 -84zM217 1206v-981q0 -53 31 -84t79 -31t80 32q32 30 31 83v981q0 53 -31 85q-32 32 -80 32t-79 -32t-31 -85zM326 1444q110 0 184 -64t74 -174v-981q0 -111 -73 -173t-185 -62t-183 62q-72 62 -71 173v981q0 110 72 174t182 64z" />
    <glyph glyph-name="Ocircumflex" unicode="&#xd4;" 
d="M156 1559l-84 83l256 205l256 -205l-84 -83l-172 139zM217 1206v-981q0 -53 31 -84t79 -31t80 32q32 30 31 83v981q0 53 -31 85q-32 32 -80 32t-79 -32t-31 -85zM326 1444q110 0 184 -64t74 -174v-981q0 -111 -73 -173t-185 -62t-183 62q-72 62 -71 173v981q0 110 72 174
t182 64z" />
    <glyph glyph-name="Otilde" unicode="&#xd5;" 
d="M74 1573q0 78 45 123t107 45t110 -42t80 -42q30 0 52 20t21 54h93q0 -78 -46 -123t-108 -45t-112 42q-48 42 -78 42q-30 1 -52 -19q-20 -20 -20 -55h-92zM217 1206v-981q0 -53 31 -84t79 -31t80 32q32 30 31 83v981q0 53 -31 85q-32 32 -80 32t-79 -32t-31 -85zM326 1444
q110 0 184 -64t74 -174v-981q0 -111 -73 -173t-185 -62t-183 62q-72 62 -71 173v981q0 110 72 174t182 64z" />
    <glyph glyph-name="Odieresis" unicode="&#xd6;" 
d="M414 1612v207h125v-207h-125zM117 1612v207h125v-207h-125zM217 1206v-981q0 -53 31 -84t79 -31t80 32q32 30 31 83v981q0 53 -31 85q-32 32 -80 32t-79 -32t-31 -85zM326 1444q110 0 184 -64t74 -174v-981q0 -111 -73 -173t-185 -62t-183 62q-72 62 -71 173v981
q0 110 72 174t182 64z" />
    <glyph glyph-name="multiply" unicode="&#xd7;" horiz-adv-x="686" 
d="M49 846l86 84l207 -207l209 209l84 -84l-209 -209l211 -211l-84 -84l-211 209l-209 -209l-84 86l209 209z" />
    <glyph glyph-name="Oslash" unicode="&#xd8;" 
d="M217 1206v-700l221 690v10q0 53 -31 85q-32 32 -80 32t-79 -32t-31 -85zM217 225q0 -53 31 -83t79 -31q48 1 80 31t31 83v703l-221 -690v-13zM72 225v981q0 111 71 174q71 64 179 64t178 -55l14 45h86l-39 -123q23 -49 23 -105v-981q0 -111 -73 -173t-180 -62t-177 53
l-13 -43h-86l37 119q-20 43 -20 106z" />
    <glyph glyph-name="Ugrave" unicode="&#xd9;" 
d="M418 1552l-266 226l84 86l268 -226zM72 1434h145v-1209q0 -53 31 -84t79 -31t80 32q32 30 31 83v1209h146v-1209q0 -111 -73 -173t-185 -62t-183 62q-72 62 -71 173v1209z" />
    <glyph glyph-name="Uacute" unicode="&#xda;" 
d="M236 1552l-84 86l266 226l84 -84zM72 1434h145v-1209q0 -53 31 -84t79 -31t80 32q32 30 31 83v1209h146v-1209q0 -111 -73 -173t-185 -62t-183 62q-72 62 -71 173v1209z" />
    <glyph glyph-name="Ucircumflex" unicode="&#xdb;" 
d="M156 1559l-84 83l256 205l256 -205l-84 -83l-172 139zM72 1434h145v-1209q0 -53 31 -84t79 -31t80 32q32 30 31 83v1209h146v-1209q0 -111 -73 -173t-185 -62t-183 62q-72 62 -71 173v1209z" />
    <glyph glyph-name="Udieresis" unicode="&#xdc;" 
d="M414 1612v207h125v-207h-125zM117 1612v207h125v-207h-125zM72 1434h145v-1209q0 -53 31 -84t79 -31t80 32q32 30 31 83v1209h146v-1209q0 -111 -73 -173t-185 -62t-183 62q-72 62 -71 173v1209z" />
    <glyph glyph-name="Yacute" unicode="&#xdd;" horiz-adv-x="645" 
d="M231 1552l-84 86l267 226l84 -84zM248 0v459l-221 975h145l147 -744h5l149 744h145l-225 -975v-459h-145z" />
    <glyph glyph-name="Thorn" unicode="&#xde;" horiz-adv-x="634" 
d="M231 371h76q47 -1 79 31t32 85v461q0 53 -32 84t-79 31h-76v-692zM86 0v1434h145v-252h76q111 0 183 -62t73 -172v-461q0 -109 -73 -172t-183 -63h-76v-252h-145z" />
    <glyph glyph-name="germandbls" unicode="&#xdf;" horiz-adv-x="720" 
d="M313 334h146v-113q-1 -51 29 -81t76 -30t77 30t31 81v129q0 80 -126 119q-52 16 -104 39t-90 71q-37 48 -37 121v115q0 55 23 92q24 37 52 55t50 52q23 35 23 88v147q0 57 -36 91t-88 34t-87 -34t-35 -91v-1249h-145v1249q0 115 75 181q76 66 192 66q117 0 193 -66
t76 -181v-170q0 -57 -24 -97t-50 -57t-50 -51t-23 -79v-95q0 -79 126 -118q52 -16 104 -39t89 -71t37 -122v-129q0 -109 -73 -170t-180 -61t-179 61t-72 170v113z" />
    <glyph glyph-name="agrave" unicode="&#xe0;" 
d="M418 1143l-266 225l84 86l268 -225zM217 352v-157q0 -39 23 -62q24 -23 68 -23t87 41q43 40 43 105v225l-110 -14q-49 -4 -80 -34t-31 -81zM438 0v96q-76 -106 -205 -106q-69 0 -115 45t-46 123v194q0 106 63 164t164 70l139 18v195q0 53 -31 84q-32 31 -79 31t-79 -32
q-32 -30 -32 -83v-109h-145v109q0 111 72 173q73 62 184 62q112 0 184 -62t72 -173v-799h-146z" />
    <glyph glyph-name="aacute" unicode="&#xe1;" 
d="M236 1143l-84 86l266 225l84 -84zM217 352v-157q0 -39 23 -62q24 -23 68 -23t87 41q43 40 43 105v225l-110 -14q-49 -4 -80 -34t-31 -81zM438 0v96q-76 -106 -205 -106q-69 0 -115 45t-46 123v194q0 106 63 164t164 70l139 18v195q0 53 -31 84q-32 31 -79 31t-79 -32
q-32 -30 -32 -83v-109h-145v109q0 111 72 173q73 62 184 62q112 0 184 -62t72 -173v-799h-146z" />
    <glyph glyph-name="acircumflex" unicode="&#xe2;" 
d="M156 1149l-84 84l256 205l256 -205l-84 -84l-172 139zM217 352v-157q0 -39 23 -62q24 -23 68 -23t87 41q43 40 43 105v225l-110 -14q-49 -4 -80 -34t-31 -81zM438 0v96q-76 -106 -205 -106q-69 0 -115 45t-46 123v194q0 106 63 164t164 70l139 18v195q0 53 -31 84
q-32 31 -79 31t-79 -32q-32 -30 -32 -83v-109h-145v109q0 111 72 173q73 62 184 62q112 0 184 -62t72 -173v-799h-146z" />
    <glyph glyph-name="atilde" unicode="&#xe3;" 
d="M74 1163q0 78 45 123t107 45t110 -42t80 -42q30 1 52 21t21 53h93q0 -78 -46 -123t-108 -45t-112 42q-48 42 -78 42t-52 -19q-20 -19 -20 -55h-92zM217 352v-157q0 -39 23 -62q24 -23 68 -23t87 41q43 40 43 105v225l-110 -14q-49 -4 -80 -34t-31 -81zM438 0v96
q-76 -106 -205 -106q-69 0 -115 45t-46 123v194q0 106 63 164t164 70l139 18v195q0 53 -31 84q-32 31 -79 31t-79 -32q-32 -30 -32 -83v-109h-145v109q0 111 72 173q73 62 184 62q112 0 184 -62t72 -173v-799h-146z" />
    <glyph glyph-name="adieresis" unicode="&#xe4;" 
d="M414 1202v207h125v-207h-125zM117 1202v207h125v-207h-125zM217 352v-157q0 -39 23 -62q24 -23 68 -23t87 41q43 40 43 105v225l-110 -14q-49 -4 -80 -34t-31 -81zM438 0v96q-76 -106 -205 -106q-69 0 -115 45t-46 123v194q0 106 63 164t164 70l139 18v195q0 53 -31 84
q-32 31 -79 31t-79 -32q-32 -30 -32 -83v-109h-145v109q0 111 72 173q73 62 184 62q112 0 184 -62t72 -173v-799h-146z" />
    <glyph glyph-name="aring" unicode="&#xe5;" 
d="M246 1290q0 -40 24 -64t57 -24q35 0 59 24t24 64t-25 66q-25 24 -59 24t-57 -24q-23 -25 -23 -66zM327 1464q75 0 125 -47t50 -128t-50 -127t-126 -46t-124 46t-48 127t49 128t124 47zM217 352v-157q0 -39 23 -62q24 -23 68 -23t87 41q43 40 43 105v225l-110 -14
q-49 -4 -80 -34t-31 -81zM438 0v96q-76 -106 -205 -106q-69 0 -115 45t-46 123v194q0 106 63 164t164 70l139 18v195q0 53 -31 84q-32 31 -79 31t-79 -32q-32 -30 -32 -83v-109h-145v109q0 111 72 173q73 62 184 62q112 0 184 -62t72 -173v-799h-146z" />
    <glyph glyph-name="ae" unicode="&#xe6;" horiz-adv-x="1021" 
d="M584 797v-207h223v207q0 57 -32 87t-81 30t-80 -30q-30 -30 -30 -87zM438 256v209l-110 -8q-47 -4 -79 -38t-32 -87v-137q0 -39 23 -62q24 -23 68 -23t87 40t43 106zM952 471h-368v-246q0 -53 32 -84t78 -31q47 0 80 32q33 30 33 83v109h145v-109q0 -111 -74 -173
t-184 -62q-168 0 -227 129q-82 -129 -234 -129q-69 0 -115 45t-46 123v174q0 106 64 170q65 63 163 73l139 11v213q0 53 -31 84q-32 31 -79 31t-79 -32q-32 -30 -32 -83v-109h-145v109q0 111 72 173q73 62 194 62t174 -100q25 47 74 74t108 26q111 0 185 -63t73 -174v-326z
" />
    <glyph glyph-name="ccedilla" unicode="&#xe7;" horiz-adv-x="645" 
d="M268 -283v277q-88 14 -142 74t-54 153v580q0 109 70 171q71 62 180 62q108 0 180 -62t71 -171v-111h-145v111q0 51 -30 82t-76 31t-75 -32q-30 -30 -30 -81v-580q0 -51 30 -81t76 -30q45 0 75 30t30 81v113h145v-113q0 -94 -54 -153t-142 -74v-277h-109z" />
    <glyph glyph-name="egrave" unicode="&#xe8;" 
d="M418 1143l-266 225l84 86l268 -225zM217 797v-213h221v213q0 57 -30 87q-31 30 -80 30t-80 -30t-31 -87zM584 465h-367v-240q0 -53 31 -84t79 -31t80 32q32 30 31 83v109h146v-109q0 -111 -73 -173t-185 -62t-183 62q-72 62 -71 173v572q0 111 71 174q72 63 183 63
q110 0 184 -63t74 -174v-332z" />
    <glyph glyph-name="eacute" unicode="&#xe9;" 
d="M236 1143l-84 86l266 225l84 -84zM217 797v-213h221v213q0 57 -30 87q-31 30 -80 30t-80 -30t-31 -87zM584 465h-367v-240q0 -53 31 -84t79 -31t80 32q32 30 31 83v109h146v-109q0 -111 -73 -173t-185 -62t-183 62q-72 62 -71 173v572q0 111 71 174q72 63 183 63
q110 0 184 -63t74 -174v-332z" />
    <glyph glyph-name="ecircumflex" unicode="&#xea;" 
d="M156 1149l-84 84l256 205l256 -205l-84 -84l-172 139zM217 797v-213h221v213q0 57 -30 87q-31 30 -80 30t-80 -30t-31 -87zM584 465h-367v-240q0 -53 31 -84t79 -31t80 32q32 30 31 83v109h146v-109q0 -111 -73 -173t-185 -62t-183 62q-72 62 -71 173v572q0 111 71 174
q72 63 183 63q110 0 184 -63t74 -174v-332z" />
    <glyph glyph-name="edieresis" unicode="&#xeb;" 
d="M414 1202v207h125v-207h-125zM117 1202v207h125v-207h-125zM217 797v-213h221v213q0 57 -30 87q-31 30 -80 30t-80 -30t-31 -87zM584 465h-367v-240q0 -53 31 -84t79 -31t80 32q32 30 31 83v109h146v-109q0 -111 -73 -173t-185 -62t-183 62q-72 62 -71 173v572
q0 111 71 174q72 63 183 63q110 0 184 -63t74 -174v-332z" />
    <glyph glyph-name="igrave" unicode="&#xec;" horiz-adv-x="317" 
d="M86 0v1024h145v-1024h-145zM250 1143l-266 225l84 86l268 -225z" />
    <glyph glyph-name="iacute" unicode="&#xed;" horiz-adv-x="317" 
d="M86 0v1024h145v-1024h-145zM68 1143l-84 86l266 225l84 -84z" />
    <glyph glyph-name="icircumflex" unicode="&#xee;" horiz-adv-x="317" 
d="M-14 1149l-84 84l256 205l256 -205l-84 -84l-172 139zM86 0v1024h145v-1024h-145z" />
    <glyph glyph-name="idieresis" unicode="&#xef;" horiz-adv-x="317" 
d="M86 0v1024h145v-1024h-145zM246 1202v207h125v-207h-125zM-51 1202v207h125v-207h-125z" />
    <glyph glyph-name="eth" unicode="&#xf0;" 
d="M438 225v543q0 68 -39 106t-87 39q-95 0 -95 -88v-600q0 -53 32 -84t79 -31t79 31q31 31 31 84zM584 1075v-850q0 -111 -73 -173t-183 -62t-184 62q-73 62 -72 173v637q0 78 48 125t118 47q123 0 200 -106v147q0 88 -63 172l-99 -98l-73 74l100 100q-70 63 -145 100
l-25 13l60 57q94 -29 188 -92l94 94l74 -74l-86 -86q121 -113 121 -260z" />
    <glyph glyph-name="ntilde" unicode="&#xf1;" horiz-adv-x="669" 
d="M82 1163q0 78 45 123t107 45t111 -42q48 -42 79 -42q30 1 52 21t22 53h92q0 -78 -46 -123t-108 -45t-111 42q-48 42 -79 42t-51 -19t-21 -55h-92zM231 768v-768h-145v1024h145v-96q78 106 201 106q72 0 120 -46t48 -126v-862h-145v825q0 41 -25 65q-26 24 -72 24t-86 -40
q-40 -38 -41 -106z" />
    <glyph glyph-name="ograve" unicode="&#xf2;" 
d="M418 1143l-266 225l84 86l268 -225zM217 797v-572q0 -53 31 -84t79 -31t80 32q32 30 31 83v572q0 53 -31 85q-32 32 -80 32t-79 -32t-31 -85zM326 1034q110 0 184 -63t74 -174v-572q0 -111 -73 -173t-185 -62t-183 62q-72 62 -71 173v572q0 111 71 174q72 63 183 63z" />
    <glyph glyph-name="oacute" unicode="&#xf3;" 
d="M236 1143l-84 86l266 225l84 -84zM217 797v-572q0 -53 31 -84t79 -31t80 32q32 30 31 83v572q0 53 -31 85q-32 32 -80 32t-79 -32t-31 -85zM326 1034q110 0 184 -63t74 -174v-572q0 -111 -73 -173t-185 -62t-183 62q-72 62 -71 173v572q0 111 71 174q72 63 183 63z" />
    <glyph glyph-name="ocircumflex" unicode="&#xf4;" 
d="M156 1149l-84 84l256 205l256 -205l-84 -84l-172 139zM217 797v-572q0 -53 31 -84t79 -31t80 32q32 30 31 83v572q0 53 -31 85q-32 32 -80 32t-79 -32t-31 -85zM326 1034q110 0 184 -63t74 -174v-572q0 -111 -73 -173t-185 -62t-183 62q-72 62 -71 173v572q0 111 71 174
q72 63 183 63z" />
    <glyph glyph-name="otilde" unicode="&#xf5;" 
d="M74 1163q0 78 45 123t107 45t110 -42t80 -42q30 1 52 21t21 53h93q0 -78 -46 -123t-108 -45t-112 42q-48 42 -78 42t-52 -19q-20 -19 -20 -55h-92zM217 797v-572q0 -53 31 -84t79 -31t80 32q32 30 31 83v572q0 53 -31 85q-32 32 -80 32t-79 -32t-31 -85zM326 1034
q110 0 184 -63t74 -174v-572q0 -111 -73 -173t-185 -62t-183 62q-72 62 -71 173v572q0 111 71 174q72 63 183 63z" />
    <glyph glyph-name="odieresis" unicode="&#xf6;" 
d="M414 1202v207h125v-207h-125zM117 1202v207h125v-207h-125zM217 797v-572q0 -53 31 -84t79 -31t80 32q32 30 31 83v572q0 53 -31 85q-32 32 -80 32t-79 -32t-31 -85zM326 1034q110 0 184 -63t74 -174v-572q0 -111 -73 -173t-185 -62t-183 62q-72 62 -71 173v572
q0 111 71 174q72 63 183 63z" />
    <glyph glyph-name="divide" unicode="&#xf7;" horiz-adv-x="686" 
d="M272 768v205h140v-205h-140zM272 158v207h140v-207h-140zM55 506v119h576v-119h-576z" />
    <glyph glyph-name="oslash" unicode="&#xf8;" 
d="M217 797v-437l215 480q-27 74 -106 73q-47 1 -78 -31t-31 -85zM326 111q49 1 81 31t31 83v439l-215 -482q23 -71 103 -71zM72 797q0 111 71 174t177 63t176 -51l18 41h86l-47 -106q31 -55 31 -121v-572q0 -111 -73 -173t-179 -62t-174 49l-17 -39h-86l45 102
q-29 53 -28 123v572z" />
    <glyph glyph-name="ugrave" unicode="&#xf9;" horiz-adv-x="669" 
d="M426 1143l-266 225l84 86l268 -225zM438 0v96q-78 -106 -200 -106q-70 0 -118 47t-48 125v862h145v-825q0 -41 24 -65q23 -24 71 -24t87 40q39 39 39 106v768h146v-1024h-146z" />
    <glyph glyph-name="uacute" unicode="&#xfa;" horiz-adv-x="669" 
d="M244 1143l-84 86l266 225l84 -84zM438 0v96q-78 -106 -200 -106q-70 0 -118 47t-48 125v862h145v-825q0 -41 24 -65q23 -24 71 -24t87 40q39 39 39 106v768h146v-1024h-146z" />
    <glyph glyph-name="ucircumflex" unicode="&#xfb;" horiz-adv-x="669" 
d="M162 1149l-84 84l256 205l256 -205l-84 -84l-172 139zM438 0v96q-78 -106 -200 -106q-70 0 -118 47t-48 125v862h145v-825q0 -41 24 -65q23 -24 71 -24t87 40q39 39 39 106v768h146v-1024h-146z" />
    <glyph glyph-name="udieresis" unicode="&#xfc;" horiz-adv-x="669" 
d="M420 1202v207h125v-207h-125zM123 1202v207h125v-207h-125zM438 0v96q-78 -106 -200 -106q-70 0 -118 47t-48 125v862h145v-825q0 -41 24 -65q23 -24 71 -24t87 40q39 39 39 106v768h146v-1024h-146z" />
    <glyph glyph-name="yacute" unicode="&#xfd;" horiz-adv-x="665" 
d="M242 1143l-84 86l266 225l84 -84zM72 -156h145v-77q0 -53 32 -85t79 -32t79 31t31 83v332q-78 -106 -200 -106q-70 0 -118 47t-48 125v862h145v-825q0 -41 24 -65q23 -24 71 -24t87 40q39 39 39 106v768h146v-1257q0 -111 -73 -175t-183 -63q-110 0 -184 63
q-73 63 -72 175v77z" />
    <glyph glyph-name="thorn" unicode="&#xfe;" horiz-adv-x="669" 
d="M455 225v600q0 41 -25 65q-26 24 -72 24t-86 -40q-40 -39 -41 -106v-625q43 -33 101 -33t90 32q33 30 33 83zM86 -410v1895h145v-557q78 106 201 106q72 0 120 -46t48 -126v-637q0 -111 -66 -173t-155 -62q-90 0 -148 30v-430h-145z" />
    <glyph glyph-name="ydieresis" unicode="&#xff;" horiz-adv-x="665" 
d="M418 1202v207h125v-207h-125zM121 1202v207h125v-207h-125zM72 -156h145v-77q0 -53 32 -85t79 -32t79 31t31 83v332q-78 -106 -200 -106q-70 0 -118 47t-48 125v862h145v-825q0 -41 24 -65q23 -24 71 -24t87 40q39 39 39 106v768h146v-1257q0 -111 -73 -175t-183 -63
q-110 0 -184 63q-73 63 -72 175v77z" />
    <glyph glyph-name="Amacron" unicode="&#x100;" horiz-adv-x="645" 
d="M119 1632v119h405v-119h-405zM229 475h187l-90 791h-4zM27 0l200 1434h191l200 -1434h-147l-47 356h-205l-45 -356h-147z" />
    <glyph glyph-name="amacron" unicode="&#x101;" 
d="M123 1223v118h405v-118h-405zM217 352v-157q0 -39 23 -62q24 -23 68 -23t87 41q43 40 43 105v225l-110 -14q-49 -4 -80 -34t-31 -81zM438 0v96q-76 -106 -205 -106q-69 0 -115 45t-46 123v194q0 106 63 164t164 70l139 18v195q0 53 -31 84q-32 31 -79 31t-79 -32
q-32 -30 -32 -83v-109h-145v109q0 111 72 173q73 62 184 62q112 0 184 -62t72 -173v-799h-146z" />
    <glyph glyph-name="Abreve" unicode="&#x102;" horiz-adv-x="645" 
d="M121 1745h102q0 -49 29 -77t72 -28q44 0 72 28t28 77h102q0 -90 -58 -142q-58 -53 -145 -53t-145 52t-57 143zM229 475h187l-90 791h-4zM27 0l200 1434h191l200 -1434h-147l-47 356h-205l-45 -356h-147z" />
    <glyph glyph-name="abreve" unicode="&#x103;" 
d="M125 1335h102q0 -49 29 -77t72 -28q44 0 72 28t28 77h102q0 -90 -58 -142t-145 -52t-145 52q-57 52 -57 142zM217 352v-157q0 -39 23 -62q24 -23 68 -23t87 41q43 40 43 105v225l-110 -14q-49 -4 -80 -34t-31 -81zM438 0v96q-76 -106 -205 -106q-69 0 -115 45t-46 123
v194q0 106 63 164t164 70l139 18v195q0 53 -31 84q-32 31 -79 31t-79 -32q-32 -30 -32 -83v-109h-145v109q0 111 72 173q73 62 184 62q112 0 184 -62t72 -173v-799h-146z" />
    <glyph glyph-name="Aogonek" unicode="&#x104;" horiz-adv-x="645" 
d="M229 475h187l-90 791h-4zM471 -61v61l-47 356h-205l-45 -356h-147l200 1434h191l200 -1434h-45v-61q0 -51 28 -85t77 -34v-86q-96 0 -152 58q-55 59 -55 147z" />
    <glyph glyph-name="aogonek" unicode="&#x105;" 
d="M217 352v-157q0 -39 23 -62q24 -23 68 -23t87 41q43 40 43 105v225l-110 -14q-49 -4 -80 -34t-31 -81zM438 0v96q-76 -106 -205 -106q-69 0 -115 45t-46 123v194q0 106 63 164t164 70l139 18v195q0 53 -31 84q-32 31 -79 31t-79 -32q-32 -30 -32 -83v-109h-145v109
q0 111 72 173q73 62 184 62q112 0 184 -62t72 -173v-799h-41v-61q-1 -51 27 -85t77 -34v-86q-96 0 -151 58t-56 147v61h-2z" />
    <glyph glyph-name="Cacute" unicode="&#x106;" horiz-adv-x="645" 
d="M231 1552l-84 86l267 226l84 -84zM217 1210v-989q0 -51 30 -81t76 -30q45 0 75 30t30 81v189h145v-189q1 -109 -71 -170t-180 -61t-180 61q-71 61 -70 170v989q0 109 70 171q71 63 180 63q108 0 180 -62t71 -172v-186h-145v186q0 51 -30 82t-76 31t-75 -31
q-30 -31 -30 -82z" />
    <glyph glyph-name="cacute" unicode="&#x107;" horiz-adv-x="645" 
d="M231 1143l-84 86l267 225l84 -84zM217 801v-580q0 -51 30 -81t76 -30q45 0 75 30t30 81v113h145v-113q1 -109 -71 -170t-180 -61t-180 61q-71 61 -70 170v580q0 109 70 171q71 62 180 62q108 0 180 -62t71 -171v-111h-145v111q0 51 -30 82t-76 31t-75 -32
q-30 -30 -30 -81z" />
    <glyph glyph-name="Ccircumflex" unicode="&#x108;" horiz-adv-x="645" 
d="M150 1559l-84 83l256 205l256 -205l-84 -83l-172 139zM217 1210v-989q0 -51 30 -81t76 -30q45 0 75 30t30 81v189h145v-189q1 -109 -71 -170t-180 -61t-180 61q-71 61 -70 170v989q0 109 70 171q71 63 180 63q108 0 180 -62t71 -172v-186h-145v186q0 51 -30 82t-76 31
t-75 -31q-30 -31 -30 -82z" />
    <glyph glyph-name="ccircumflex" unicode="&#x109;" horiz-adv-x="645" 
d="M150 1149l-84 84l256 205l256 -205l-84 -84l-172 139zM217 801v-580q0 -51 30 -81t76 -30q45 0 75 30t30 81v113h145v-113q1 -109 -71 -170t-180 -61t-180 61q-71 61 -70 170v580q0 109 70 171q71 62 180 62q108 0 180 -62t71 -171v-111h-145v111q0 51 -30 82t-76 31
t-75 -32q-30 -30 -30 -81z" />
    <glyph glyph-name="Cdotaccent" unicode="&#x10a;" horiz-adv-x="645" 
d="M250 1636v207h145v-207h-145zM217 1210v-989q0 -51 30 -81t76 -30q45 0 75 30t30 81v189h145v-189q1 -109 -71 -170t-180 -61t-180 61q-71 61 -70 170v989q0 109 70 171q71 63 180 63q108 0 180 -62t71 -172v-186h-145v186q0 51 -30 82t-76 31t-75 -31q-30 -31 -30 -82z
" />
    <glyph glyph-name="cdotaccent" unicode="&#x10b;" horiz-adv-x="645" 
d="M250 1227v207h145v-207h-145zM217 801v-580q0 -51 30 -81t76 -30q45 0 75 30t30 81v113h145v-113q1 -109 -71 -170t-180 -61t-180 61q-71 61 -70 170v580q0 109 70 171q71 62 180 62q108 0 180 -62t71 -171v-111h-145v111q0 51 -30 82t-76 31t-75 -32q-30 -30 -30 -81z
" />
    <glyph glyph-name="Ccaron" unicode="&#x10c;" horiz-adv-x="645" 
d="M322 1556l-256 207l84 84l172 -141l172 141l84 -84zM217 1210v-989q0 -51 30 -81t76 -30q45 0 75 30t30 81v189h145v-189q1 -109 -71 -170t-180 -61t-180 61q-71 61 -70 170v989q0 109 70 171q71 63 180 63q108 0 180 -62t71 -172v-186h-145v186q0 51 -30 82t-76 31
t-75 -31q-30 -31 -30 -82z" />
    <glyph glyph-name="ccaron" unicode="&#x10d;" horiz-adv-x="645" 
d="M322 1147l-256 207l84 84l172 -142l172 142l84 -84zM217 801v-580q0 -51 30 -81t76 -30q45 0 75 30t30 81v113h145v-113q1 -109 -71 -170t-180 -61t-180 61q-71 61 -70 170v580q0 109 70 171q71 62 180 62q108 0 180 -62t71 -171v-111h-145v111q0 51 -30 82t-76 31
t-75 -32q-30 -30 -30 -81z" />
    <glyph glyph-name="Dcaron" unicode="&#x10e;" horiz-adv-x="665" 
d="M332 1556l-256 207l84 84l172 -141l172 141l84 -84zM231 119h105q49 0 81 32t32 85v960q0 55 -32 87t-81 32h-105v-1196zM86 0v1434h250q110 0 184 -64t74 -174v-960q0 -112 -73 -174t-185 -62h-250z" />
    <glyph glyph-name="dcaron" unicode="&#x10f;" horiz-adv-x="952" 
d="M733 1278v207h139v-207q0 -52 -19 -114t-38 -99l-20 -37h-119q57 133 57 250zM217 799v-600q0 -41 24 -65q23 -24 71 -24t87 40q39 39 39 106v625q-43 33 -100 33t-89 -32q-32 -30 -32 -83zM438 0v96q-78 -106 -200 -106q-70 0 -118 47t-48 125v637q0 111 64 173
q65 62 153 62t149 -30v481h146v-1485h-146z" />
    <glyph glyph-name="Dcroat" unicode="&#x110;" horiz-adv-x="665" 
d="M231 119h105q49 0 81 32t32 85v960q0 55 -32 87t-81 32h-105v-520h115v-119h-115v-557zM35 676v119h51v639h250q110 0 184 -64t74 -174v-960q0 -112 -73 -174t-185 -62h-250v676h-51z" />
    <glyph glyph-name="dcroat" unicode="&#x111;" horiz-adv-x="669" 
d="M217 799v-600q0 -41 24 -65q23 -24 71 -24t87 40q39 39 39 106v625q-43 33 -100 33t-89 -32q-32 -30 -32 -83zM164 1206v121h274v158h146v-158h51v-121h-51v-1206h-146v96q-78 -106 -200 -106q-70 0 -118 47t-48 125v637q0 111 64 173q65 62 153 62t149 -30v202h-274z
" />
    <glyph glyph-name="Emacron" unicode="&#x112;" horiz-adv-x="624" 
d="M109 1632v119h405v-119h-405zM86 0v1434h467v-119h-322v-520h281v-119h-281v-557h322v-119h-467z" />
    <glyph glyph-name="emacron" unicode="&#x113;" 
d="M123 1223v118h405v-118h-405zM217 797v-213h221v213q0 57 -30 87q-31 30 -80 30t-80 -30t-31 -87zM584 465h-367v-240q0 -53 31 -84t79 -31t80 32q32 30 31 83v109h146v-109q0 -111 -73 -173t-185 -62t-183 62q-72 62 -71 173v572q0 111 71 174q72 63 183 63
q110 0 184 -63t74 -174v-332z" />
    <glyph glyph-name="Ebreve" unicode="&#x114;" horiz-adv-x="624" 
d="M109 1745h102q0 -49 29 -77q30 -28 72 -28t71 28t29 77h102q0 -90 -58 -142q-58 -53 -146 -53t-144 52q-57 52 -57 143zM86 0v1434h467v-119h-322v-520h281v-119h-281v-557h322v-119h-467z" />
    <glyph glyph-name="ebreve" unicode="&#x115;" 
d="M125 1335h102q0 -49 29 -77t72 -28q44 0 72 28t28 77h102q0 -90 -58 -142t-145 -52t-145 52q-57 52 -57 142zM217 797v-213h221v213q0 57 -30 87q-31 30 -80 30t-80 -30t-31 -87zM584 465h-367v-240q0 -53 31 -84t79 -31t80 32q32 30 31 83v109h146v-109q0 -111 -73 -173
t-185 -62t-183 62q-72 62 -71 173v572q0 111 71 174q72 63 183 63q110 0 184 -63t74 -174v-332z" />
    <glyph glyph-name="Edotaccent" unicode="&#x116;" horiz-adv-x="624" 
d="M240 1636v207h145v-207h-145zM86 0v1434h467v-119h-322v-520h281v-119h-281v-557h322v-119h-467z" />
    <glyph glyph-name="edotaccent" unicode="&#x117;" 
d="M254 1227v207h145v-207h-145zM217 797v-213h221v213q0 57 -30 87q-31 30 -80 30t-80 -30t-31 -87zM584 465h-367v-240q0 -53 31 -84t79 -31t80 32q32 30 31 83v109h146v-109q0 -111 -73 -173t-185 -62t-183 62q-72 62 -71 173v572q0 111 71 174q72 63 183 63
q110 0 184 -63t74 -174v-332z" />
    <glyph glyph-name="Eogonek" unicode="&#x118;" horiz-adv-x="624" 
d="M86 0v1434h467v-119h-322v-520h281v-119h-281v-557h322v-119h-104v-61q-1 -51 27 -85t77 -34v-86q-96 0 -152 58q-55 58 -55 147v61h-260z" />
    <glyph glyph-name="eogonek" unicode="&#x119;" 
d="M217 797v-213h221v213q0 57 -30 87q-31 30 -80 30t-80 -30t-31 -87zM305 -61v51q-102 6 -168 68t-65 167v572q0 111 71 174q72 63 183 63q110 0 184 -63t74 -174v-332h-367v-240q0 -53 31 -84t79 -31t80 32q32 30 31 83v109h146v-109q0 -88 -48 -146t-128 -79v-61
q0 -51 28 -85t76 -34v-86q-96 0 -152 58q-55 59 -55 147z" />
    <glyph glyph-name="Ecaron" unicode="&#x11a;" horiz-adv-x="624" 
d="M311 1556l-256 207l84 84l172 -141l172 141l84 -84zM86 0v1434h467v-119h-322v-520h281v-119h-281v-557h322v-119h-467z" />
    <glyph glyph-name="ecaron" unicode="&#x11b;" 
d="M328 1147l-256 207l84 84l172 -142l172 142l84 -84zM217 797v-213h221v213q0 57 -30 87q-31 30 -80 30t-80 -30t-31 -87zM584 465h-367v-240q0 -53 31 -84t79 -31t80 32q32 30 31 83v109h146v-109q0 -111 -73 -173t-185 -62t-183 62q-72 62 -71 173v572q0 111 71 174
q72 63 183 63q110 0 184 -63t74 -174v-332z" />
    <glyph glyph-name="Gcircumflex" unicode="&#x11c;" horiz-adv-x="645" 
d="M150 1559l-84 83l256 205l256 -205l-84 -83l-172 139zM326 659v119h247v-557q1 -109 -71 -170t-180 -61t-180 61q-71 61 -70 170v989q0 109 70 171q71 63 180 63q108 0 180 -62t71 -172v-186h-145v186q0 51 -30 82t-76 31t-75 -31q-30 -31 -30 -82v-989q0 -51 30 -81
t76 -30q45 0 75 30t30 81v438h-102z" />
    <glyph glyph-name="gcircumflex" unicode="&#x11d;" 
d="M156 1149l-84 84l256 205l256 -205l-84 -84l-172 139zM217 799v-600q0 -41 24 -65q23 -24 71 -24t87 40q39 39 39 106v625q-43 33 -100 33t-89 -32q-32 -30 -32 -83zM72 -156h145v-77q0 -53 32 -85t79 -32t79 31t31 83v332q-78 -106 -200 -106q-70 0 -118 47t-48 125v637
q0 111 72 173t164 62t156 -19t93 -38l27 -19v-1191q0 -111 -73 -175t-183 -63q-110 0 -184 63q-73 63 -72 175v77z" />
    <glyph glyph-name="Gbreve" unicode="&#x11e;" horiz-adv-x="645" 
d="M121 1745h102q0 -49 29 -77t72 -28q44 0 72 28t28 77h102q0 -90 -58 -142q-58 -53 -145 -53t-145 52t-57 143zM326 659v119h247v-557q1 -109 -71 -170t-180 -61t-180 61q-71 61 -70 170v989q0 109 70 171q71 63 180 63q108 0 180 -62t71 -172v-186h-145v186q0 51 -30 82
t-76 31t-75 -31q-30 -31 -30 -82v-989q0 -51 30 -81t76 -30q45 0 75 30t30 81v438h-102z" />
    <glyph glyph-name="gbreve" unicode="&#x11f;" 
d="M125 1335h102q0 -49 29 -77t72 -28q44 0 72 28t28 77h102q0 -90 -58 -142t-145 -52t-145 52q-57 52 -57 142zM217 799v-600q0 -41 24 -65q23 -24 71 -24t87 40q39 39 39 106v625q-43 33 -100 33t-89 -32q-32 -30 -32 -83zM72 -156h145v-77q0 -53 32 -85t79 -32t79 31
t31 83v332q-78 -106 -200 -106q-70 0 -118 47t-48 125v637q0 111 72 173t164 62t156 -19t93 -38l27 -19v-1191q0 -111 -73 -175t-183 -63q-110 0 -184 63q-73 63 -72 175v77z" />
    <glyph glyph-name="Gdotaccent" unicode="&#x120;" horiz-adv-x="645" 
d="M250 1636v207h145v-207h-145zM326 659v119h247v-557q1 -109 -71 -170t-180 -61t-180 61q-71 61 -70 170v989q0 109 70 171q71 63 180 63q108 0 180 -62t71 -172v-186h-145v186q0 51 -30 82t-76 31t-75 -31q-30 -31 -30 -82v-989q0 -51 30 -81t76 -30q45 0 75 30t30 81
v438h-102z" />
    <glyph glyph-name="gdotaccent" unicode="&#x121;" 
d="M254 1227v207h145v-207h-145zM217 799v-600q0 -41 24 -65q23 -24 71 -24t87 40q39 39 39 106v625q-43 33 -100 33t-89 -32q-32 -30 -32 -83zM72 -156h145v-77q0 -53 32 -85t79 -32t79 31t31 83v332q-78 -106 -200 -106q-70 0 -118 47t-48 125v637q0 111 72 173t164 62
t156 -19t93 -38l27 -19v-1191q0 -111 -73 -175t-183 -63q-110 0 -184 63q-73 63 -72 175v77z" />
    <glyph glyph-name="Gcommaaccent" unicode="&#x122;" horiz-adv-x="645" 
d="M403 -215q0 -86 -57 -211h-102q41 123 41 211v154h118v-154zM326 659v119h247v-557q1 -109 -71 -170t-180 -61t-180 61q-71 61 -70 170v989q0 109 70 171q71 63 180 63q108 0 180 -62t71 -172v-186h-145v186q0 51 -30 82t-76 31t-75 -31q-30 -31 -30 -82v-989
q0 -51 30 -81t76 -30q45 0 75 30t30 81v438h-102z" />
    <glyph glyph-name="gcommaaccent" unicode="&#x123;" 
d="M393 1182h-139v204q0 54 18 116t39 100l19 36h119q-55 -133 -56 -252v-204zM217 799v-600q0 -41 24 -65q23 -24 71 -24t87 40q39 39 39 106v625q-43 33 -100 33t-89 -32q-32 -30 -32 -83zM72 -156h145v-77q0 -53 32 -85t79 -32t79 31t31 83v332q-78 -106 -200 -106
q-70 0 -118 47t-48 125v637q0 111 72 173t164 62t156 -19t93 -38l27 -19v-1191q0 -111 -73 -175t-183 -63q-110 0 -184 63q-73 63 -72 175v77z" />
    <glyph glyph-name="Hcircumflex" unicode="&#x124;" horiz-adv-x="686" 
d="M170 1559l-84 83l256 205l256 -205l-84 -83l-172 139zM86 0v1434h145v-639h224v639h145v-1434h-145v676h-224v-676h-145z" />
    <glyph glyph-name="hcircumflex" unicode="&#x125;" horiz-adv-x="669" 
d="M182 1518l-84 84l256 204l256 -204l-84 -84l-172 139zM86 0v1485h145v-557q78 106 201 106q72 0 120 -46t48 -126v-862h-145v825q0 41 -25 65q-26 24 -72 24t-86 -40q-40 -39 -41 -106v-768h-145z" />
    <glyph glyph-name="Hbar" unicode="&#x126;" horiz-adv-x="686" 
d="M231 795h224v243h-224v-243zM35 1038v121h51v275h145v-275h224v275h145v-275h51v-121h-51v-1038h-145v676h-224v-676h-145v1038h-51z" />
    <glyph glyph-name="hbar" unicode="&#x127;" horiz-adv-x="716" 
d="M41 1186v121h92v178h146v-178h251v-121h-251v-258q78 106 200 106q70 0 118 -47t48 -125v-862h-145v825q0 41 -25 65t-71 24t-86 -40q-40 -39 -39 -106v-768h-146v1186h-92z" />
    <glyph glyph-name="Itilde" unicode="&#x128;" horiz-adv-x="317" 
d="M-94 1573q0 78 45 123t107 45t110 -42t80 -42q30 0 52 20t22 54h92q0 -78 -46 -123t-108 -45t-112 42q-48 42 -78 42q-30 1 -52 -19q-20 -20 -20 -55h-92zM86 0v1434h145v-1434h-145z" />
    <glyph glyph-name="itilde" unicode="&#x129;" horiz-adv-x="317" 
d="M86 0v1024h145v-1024h-145zM-94 1163q0 78 45 123t107 45t110 -42t80 -42q30 1 52 21t22 53h92q0 -78 -46 -123t-108 -45t-112 42q-48 42 -78 42t-52 -19q-20 -19 -20 -55h-92z" />
    <glyph glyph-name="Imacron" unicode="&#x12a;" horiz-adv-x="317" 
d="M-45 1632v119h405v-119h-405zM86 0v1434h145v-1434h-145z" />
    <glyph glyph-name="imacron" unicode="&#x12b;" horiz-adv-x="317" 
d="M86 0v1024h145v-1024h-145zM-45 1223v118h405v-118h-405z" />
    <glyph glyph-name="Ibreve" unicode="&#x12c;" horiz-adv-x="317" 
d="M-43 1745h102q0 -49 29 -77t72 -28q44 0 72 28t28 77h102q0 -90 -58 -142q-58 -53 -145 -53t-145 52t-57 143zM86 0v1434h145v-1434h-145z" />
    <glyph glyph-name="ibreve" unicode="&#x12d;" horiz-adv-x="317" 
d="M86 0v1024h145v-1024h-145zM-43 1335h102q0 -49 29 -77t72 -28q44 0 72 28t28 77h102q0 -90 -58 -142t-145 -52t-145 52q-57 52 -57 142z" />
    <glyph glyph-name="Iogonek" unicode="&#x12e;" horiz-adv-x="317" 
d="M86 0v1434h145v-1434h-41v-61q0 -51 28 -85t77 -34v-86q-96 0 -152 58q-55 58 -55 147v61h-2z" />
    <glyph glyph-name="iogonek" unicode="&#x12f;" horiz-adv-x="317" 
d="M86 1227v207h145v-207h-145zM86 0v1024h145v-1024h-41v-61q0 -51 28 -85t77 -34v-86q-96 0 -152 58q-55 58 -55 147v61h-2z" />
    <glyph glyph-name="Idotaccent" unicode="&#x130;" horiz-adv-x="317" 
d="M88 1636v207h145v-207h-145zM86 0v1434h145v-1434h-145z" />
    <glyph glyph-name="dotlessi" unicode="&#x131;" horiz-adv-x="317" 
d="M86 0v1024h145v-1024h-145z" />
    <glyph glyph-name="IJ" unicode="&#x132;" horiz-adv-x="659" 
d="M86 563v871h145v-871h-145zM86 410h145v-187q0 -51 31 -82t77 -31t76 32q30 30 29 81v1211h146v-1211q0 -109 -72 -171t-179 -62t-180 62t-73 171v187z" />
    <glyph glyph-name="ij" unicode="&#x133;" horiz-adv-x="647" 
d="M414 1227v207h145v-207h-145zM310 -350q44 0 74 26t30 74v1274h145v-1274q0 -102 -67 -162q-68 -59 -166 -59q-47 0 -90 14v119q30 -12 74 -12zM86 1227v207h145v-207h-145zM86 0v1024h145v-1024h-145z" />
    <glyph glyph-name="Jcircumflex" unicode="&#x134;" horiz-adv-x="645" 
d="M332 1559l-84 83l256 205l256 -205l-84 -83l-172 139zM72 410h145v-187q0 -51 31 -82t76 -31q44 0 74 32q30 30 30 81v1211h145v-1211q-1 -109 -71 -171t-178 -62t-181 62q-72 62 -71 171v187z" />
    <glyph glyph-name="jcircumflex" unicode="&#x135;" horiz-adv-x="317" 
d="M-14 1149l-84 84l256 205l256 -205l-84 -84l-172 139zM-17 -350q43 0 73 26t30 74v1274h145v-1274q0 -102 -67 -162q-68 -59 -166 -59q-47 0 -90 14v119q31 -12 75 -12z" />
    <glyph glyph-name="Kcommaaccent" unicode="&#x136;" 
d="M408 -215q0 -86 -58 -211h-102q41 123 41 211v154h119v-154zM86 0v1434h145v-639h64l176 637h150l-215 -697l221 -735h-150l-180 676h-66v-676h-145z" />
    <glyph glyph-name="kcommaaccent" unicode="&#x137;" 
d="M408 -215q0 -86 -58 -211h-102q41 123 41 211v154h119v-154zM86 0v1485h145v-901h76l162 440h152l-205 -498l211 -526h-152l-168 469h-76v-469h-145z" />
    <glyph glyph-name="Lacute" unicode="&#x139;" horiz-adv-x="583" 
d="M201 1552l-84 86l266 226l84 -84zM86 0v1434h145v-1315h312v-119h-457z" />
    <glyph glyph-name="lacute" unicode="&#x13a;" horiz-adv-x="317" 
d="M68 1511l-84 86l266 226l84 -84zM86 0v1485h145v-1485h-145z" />
    <glyph glyph-name="Lcommaaccent" unicode="&#x13b;" horiz-adv-x="583" 
d="M371 -215q0 -86 -58 -211h-102q41 123 41 211v154h119v-154zM86 0v1434h145v-1315h312v-119h-457z" />
    <glyph glyph-name="lcommaaccent" unicode="&#x13c;" horiz-adv-x="317" 
d="M221 -215q0 -86 -57 -211h-103q41 123 41 211v154h119v-154zM86 0v1485h145v-1485h-145z" />
    <glyph glyph-name="Lcaron" unicode="&#x13d;" horiz-adv-x="583" 
d="M158 1556l-256 207l84 84l172 -141l172 141l84 -84zM86 0v1434h145v-1315h312v-119h-457z" />
    <glyph glyph-name="lcaron" unicode="&#x13e;" horiz-adv-x="600" 
d="M381 1278v207h139v-207q0 -52 -19 -114t-38 -99l-21 -37h-118q57 133 57 250zM86 0v1485h145v-1485h-145z" />
    <glyph glyph-name="Ldot" unicode="&#x13f;" horiz-adv-x="583" 
d="M420 453v190h129v-190h-129zM86 0v1434h145v-1315h312v-119h-457z" />
    <glyph glyph-name="ldot" unicode="&#x140;" horiz-adv-x="579" 
d="M358 434v207h140v-207h-140zM86 0v1485h145v-1485h-145z" />
    <glyph glyph-name="Lslash" unicode="&#x141;" horiz-adv-x="583" 
d="M86 1434h145v-686l177 176v-148l-177 -176v-481h312v-119h-457v455l-45 -45v149l45 45v830z" />
    <glyph glyph-name="lslash" unicode="&#x142;" horiz-adv-x="456" 
d="M156 1485h145v-672l111 111v-148l-111 -110v-666h-145v520l-111 -110v149l111 109v817z" />
    <glyph glyph-name="Nacute" unicode="&#x143;" horiz-adv-x="690" 
d="M254 1552l-84 86l266 226l84 -84zM86 0v1434h121l252 -973h4v973h141v-1434h-121l-252 973h-4v-973h-141z" />
    <glyph glyph-name="nacute" unicode="&#x144;" horiz-adv-x="669" 
d="M244 1143l-84 86l266 225l84 -84zM231 768v-768h-145v1024h145v-96q78 106 201 106q72 0 120 -46t48 -126v-862h-145v825q0 41 -25 65q-26 24 -72 24t-86 -40q-40 -38 -41 -106z" />
    <glyph glyph-name="Ncommaaccent" unicode="&#x145;" horiz-adv-x="690" 
d="M424 -215q0 -86 -57 -211h-103q41 123 41 211v154h119v-154zM86 0v1434h121l252 -973h4v973h141v-1434h-121l-252 973h-4v-973h-141z" />
    <glyph glyph-name="ncommaaccent" unicode="&#x146;" horiz-adv-x="669" 
d="M414 -215q0 -86 -58 -211h-102q41 123 41 211v154h119v-154zM231 768v-768h-145v1024h145v-96q78 106 201 106q72 0 120 -46t48 -126v-862h-145v825q0 41 -25 65q-26 24 -72 24t-86 -40q-40 -38 -41 -106z" />
    <glyph glyph-name="Ncaron" unicode="&#x147;" horiz-adv-x="690" 
d="M344 1556l-256 207l84 84l172 -141l172 141l84 -84zM86 0v1434h121l252 -973h4v973h141v-1434h-121l-252 973h-4v-973h-141z" />
    <glyph glyph-name="ncaron" unicode="&#x148;" horiz-adv-x="669" 
d="M334 1147l-256 207l84 84l172 -142l172 142l84 -84zM231 768v-768h-145v1024h145v-96q78 106 201 106q72 0 120 -46t48 -126v-862h-145v825q0 41 -25 65q-26 24 -72 24t-86 -40q-40 -38 -41 -106z" />
    <glyph glyph-name="Eng" unicode="&#x14a;" horiz-adv-x="690" 
d="M463 -260v332l-232 901h-4v-973h-141v1434h121l252 -973h4v973h141v-1694q0 -96 -64 -154q-65 -57 -162 -57t-164 57t-67 154v113h146v-113q1 -41 25 -66q24 -24 61 -24t61 24t23 66z" />
    <glyph glyph-name="eng" unicode="&#x14b;" 
d="M438 -260v1085q0 41 -24 65q-25 24 -72 24t-86 -40q-39 -39 -39 -106v-768h-145v1024h145v-96q78 106 201 106q70 0 118 -47t48 -125v-1122q0 -96 -66 -154t-164 -57q-98 0 -165 57t-66 154v113h145v-113q0 -41 25 -66q25 -24 61 -24t61 24q23 25 23 66z" />
    <glyph glyph-name="Omacron" unicode="&#x14c;" 
d="M123 1632v119h405v-119h-405zM217 1206v-981q0 -53 31 -84t79 -31t80 32q32 30 31 83v981q0 53 -31 85q-32 32 -80 32t-79 -32t-31 -85zM326 1444q110 0 184 -64t74 -174v-981q0 -111 -73 -173t-185 -62t-183 62q-72 62 -71 173v981q0 110 72 174t182 64z" />
    <glyph glyph-name="omacron" unicode="&#x14d;" 
d="M123 1223v118h405v-118h-405zM217 797v-572q0 -53 31 -84t79 -31t80 32q32 30 31 83v572q0 53 -31 85q-32 32 -80 32t-79 -32t-31 -85zM326 1034q110 0 184 -63t74 -174v-572q0 -111 -73 -173t-185 -62t-183 62q-72 62 -71 173v572q0 111 71 174q72 63 183 63z" />
    <glyph glyph-name="Obreve" unicode="&#x14e;" 
d="M125 1745h102q0 -49 29 -77t72 -28q44 0 72 28t28 77h102q0 -90 -58 -142q-58 -53 -145 -53t-145 52t-57 143zM217 1206v-981q0 -53 31 -84t79 -31t80 32q32 30 31 83v981q0 53 -31 85q-32 32 -80 32t-79 -32t-31 -85zM326 1444q110 0 184 -64t74 -174v-981
q0 -111 -73 -173t-185 -62t-183 62q-72 62 -71 173v981q0 110 72 174t182 64z" />
    <glyph glyph-name="obreve" unicode="&#x14f;" 
d="M125 1335h102q0 -49 29 -77t72 -28q44 0 72 28t28 77h102q0 -90 -58 -142t-145 -52t-145 52q-57 52 -57 142zM217 797v-572q0 -53 31 -84t79 -31t80 32q32 30 31 83v572q0 53 -31 85q-32 32 -80 32t-79 -32t-31 -85zM326 1034q110 0 184 -63t74 -174v-572
q0 -111 -73 -173t-185 -62t-183 62q-72 62 -71 173v572q0 111 71 174q72 63 183 63z" />
    <glyph glyph-name="Ohungarumlaut" unicode="&#x150;" 
d="M391 1542l-86 86l246 246l84 -86zM102 1542l-84 86l244 246l86 -86zM217 1206v-981q0 -53 31 -84t79 -31t80 32q32 30 31 83v981q0 53 -31 85q-32 32 -80 32t-79 -32t-31 -85zM326 1444q110 0 184 -64t74 -174v-981q0 -111 -73 -173t-185 -62t-183 62q-72 62 -71 173v981
q0 110 72 174t182 64z" />
    <glyph glyph-name="ohungarumlaut" unicode="&#x151;" 
d="M391 1133l-86 86l246 245l84 -86zM102 1133l-84 86l244 245l86 -86zM217 797v-572q0 -53 31 -84t79 -31t80 32q32 30 31 83v572q0 53 -31 85q-32 32 -80 32t-79 -32t-31 -85zM326 1034q110 0 184 -63t74 -174v-572q0 -111 -73 -173t-185 -62t-183 62q-72 62 -71 173v572
q0 111 71 174q72 63 183 63z" />
    <glyph glyph-name="OE" unicode="&#x152;" horiz-adv-x="905" 
d="M227 225q0 -53 31 -83t80 -31q49 0 80 30v1149q-33 33 -81 33t-79 -32t-31 -85v-981zM418 0v27q-57 -37 -136 -37t-140 62q-60 62 -60 173v981q0 111 60 174q60 64 140 64t136 -39v29h416v-119h-271v-520h230v-119h-230v-557h271v-119h-416z" />
    <glyph glyph-name="oe" unicode="&#x153;" horiz-adv-x="860" 
d="M584 797v-213h223v213q0 57 -32 87t-81 30t-80 -30q-30 -30 -30 -87zM217 797v-572q0 -53 31 -84t79 -31t80 32q32 30 31 83v572q0 53 -31 85q-32 32 -80 32t-79 -32t-31 -85zM952 465h-368v-240q0 -53 32 -84t78 -31q47 0 80 32q33 30 33 83v109h145v-109
q0 -111 -74 -173t-184 -62q-59 0 -110 26t-74 72q-20 -47 -72 -73t-112 -25q-111 0 -183 62t-71 173v572q0 111 71 174q72 63 183 63q61 0 112 -26t72 -74q23 47 74 74t110 26q111 0 185 -63t73 -174v-332z" />
    <glyph glyph-name="Racute" unicode="&#x154;" horiz-adv-x="659" 
d="M238 1552l-84 86l266 226l84 -84zM231 733h101q47 0 80 32t32 83v348q0 55 -32 87q-33 32 -80 32h-101v-582zM231 614v-614h-145v1434h246q110 0 184 -64t74 -174v-348q0 -76 -38 -128t-101 -75l176 -645h-150l-147 614h-99z" />
    <glyph glyph-name="racute" unicode="&#x155;" horiz-adv-x="600" 
d="M213 1143l-84 86l266 225l84 -84zM86 0v1024h145v-135q74 145 203 145q53 0 89 -36t36 -97v-211h-145v166q0 27 -16 42t-38 15q-59 0 -94 -56t-35 -140v-717h-145z" />
    <glyph glyph-name="Rcommaaccent" unicode="&#x156;" horiz-adv-x="659" 
d="M410 -215q0 -86 -58 -211h-102q41 123 41 211v154h119v-154zM231 733h101q47 0 80 32t32 83v348q0 55 -32 87q-33 32 -80 32h-101v-582zM231 614v-614h-145v1434h246q110 0 184 -64t74 -174v-348q0 -76 -38 -128t-101 -75l176 -645h-150l-147 614h-99z" />
    <glyph glyph-name="rcommaaccent" unicode="&#x157;" horiz-adv-x="600" 
d="M219 -215q0 -86 -57 -211h-103q41 123 41 211v154h119v-154zM86 0v1024h145v-135q74 145 203 145q53 0 89 -36t36 -97v-211h-145v166q0 27 -16 42t-38 15q-59 0 -94 -56t-35 -140v-717h-145z" />
    <glyph glyph-name="Rcaron" unicode="&#x158;" horiz-adv-x="659" 
d="M330 1556l-256 207l84 84l172 -141l172 141l84 -84zM231 733h101q47 0 80 32t32 83v348q0 55 -32 87q-33 32 -80 32h-101v-582zM231 614v-614h-145v1434h246q110 0 184 -64t74 -174v-348q0 -76 -38 -128t-101 -75l176 -645h-150l-147 614h-99z" />
    <glyph glyph-name="rcaron" unicode="&#x159;" horiz-adv-x="600" 
d="M305 1147l-256 207l84 84l172 -142l172 142l84 -84zM86 0v1024h145v-135q74 145 203 145q53 0 89 -36t36 -97v-211h-145v166q0 27 -16 42t-38 15q-59 0 -94 -56t-35 -140v-717h-145z" />
    <glyph glyph-name="Sacute" unicode="&#x15a;" 
d="M236 1552l-84 86l266 226l84 -84zM72 410h145v-185q0 -53 31 -84t79 -31t80 32q32 30 31 83v283q0 97 -129 155q-53 25 -106 53t-91 86t-38 144v262q0 111 71 173q72 63 182 63q111 0 183 -62t72 -174v-184h-146v184q0 53 -32 84t-78 31t-77 -31q-30 -31 -30 -84v-262
q0 -97 129 -155q52 -25 106 -54t92 -86t38 -143v-283q0 -111 -73 -173t-185 -62t-183 62q-72 62 -71 173v185z" />
    <glyph glyph-name="sacute" unicode="&#x15b;" horiz-adv-x="645" 
d="M231 1143l-84 86l267 225l84 -84zM72 334h145v-113q0 -51 30 -81t76 -30q45 0 75 30t30 81v129q0 80 -126 119q-52 16 -103 39t-88 71t-37 121v105q0 106 70 168q72 61 178 61t178 -61t71 -168v-115h-145v115q0 51 -30 80t-74 29t-74 -30q-29 -28 -29 -79v-105
q0 -79 125 -118q51 -16 103 -39q51 -23 89 -71t37 -122v-129q1 -109 -71 -170t-180 -61t-180 61q-71 61 -70 170v113z" />
    <glyph glyph-name="Scircumflex" unicode="&#x15c;" 
d="M156 1559l-84 83l256 205l256 -205l-84 -83l-172 139zM72 410h145v-185q0 -53 31 -84t79 -31t80 32q32 30 31 83v283q0 97 -129 155q-53 25 -106 53t-91 86t-38 144v262q0 111 71 173q72 63 182 63q111 0 183 -62t72 -174v-184h-146v184q0 53 -32 84t-78 31t-77 -31
q-30 -31 -30 -84v-262q0 -97 129 -155q52 -25 106 -54t92 -86t38 -143v-283q0 -111 -73 -173t-185 -62t-183 62q-72 62 -71 173v185z" />
    <glyph glyph-name="scircumflex" unicode="&#x15d;" horiz-adv-x="645" 
d="M150 1149l-84 84l256 205l256 -205l-84 -84l-172 139zM72 334h145v-113q0 -51 30 -81t76 -30q45 0 75 30t30 81v129q0 80 -126 119q-52 16 -103 39t-88 71t-37 121v105q0 106 70 168q72 61 178 61t178 -61t71 -168v-115h-145v115q0 51 -30 80t-74 29t-74 -30
q-29 -28 -29 -79v-105q0 -79 125 -118q51 -16 103 -39q51 -23 89 -71t37 -122v-129q1 -109 -71 -170t-180 -61t-180 61q-71 61 -70 170v113z" />
    <glyph glyph-name="Scedilla" unicode="&#x15e;" 
d="M274 -283v277q-90 12 -146 74t-56 157v185h145v-185q0 -53 31 -84t79 -31t80 32q32 30 31 83v283q0 97 -129 155q-53 25 -106 53t-91 86t-38 144v262q0 111 71 173q72 63 182 63q111 0 183 -62t72 -174v-184h-146v184q0 53 -32 84t-78 31t-77 -31q-30 -31 -30 -84v-262
q0 -97 129 -155q52 -25 106 -54t92 -86t38 -143v-283q0 -96 -56 -156t-145 -75v-277h-109z" />
    <glyph glyph-name="scedilla" unicode="&#x15f;" horiz-adv-x="645" 
d="M268 -283v277q-88 14 -142 74t-54 153v113h145v-113q0 -51 30 -81t76 -30q45 0 75 30t30 81v129q0 80 -126 119q-52 16 -103 39t-88 71t-37 121v105q0 106 70 168q72 61 178 61t178 -61t71 -168v-115h-145v115q0 51 -30 80t-74 29t-74 -30q-29 -28 -29 -79v-105
q0 -79 125 -118q51 -16 103 -39q51 -23 89 -71t37 -122v-129q0 -94 -54 -153t-142 -74v-277h-109z" />
    <glyph glyph-name="Scaron" unicode="&#x160;" 
d="M328 1556l-256 207l84 84l172 -141l172 141l84 -84zM72 410h145v-185q0 -53 31 -84t79 -31t80 32q32 30 31 83v283q0 97 -129 155q-53 25 -106 53t-91 86t-38 144v262q0 111 71 173q72 63 182 63q111 0 183 -62t72 -174v-184h-146v184q0 53 -32 84t-78 31t-77 -31
q-30 -31 -30 -84v-262q0 -97 129 -155q52 -25 106 -54t92 -86t38 -143v-283q0 -111 -73 -173t-185 -62t-183 62q-72 62 -71 173v185z" />
    <glyph glyph-name="scaron" unicode="&#x161;" horiz-adv-x="645" 
d="M322 1147l-256 207l84 84l172 -142l172 142l84 -84zM72 334h145v-113q0 -51 30 -81t76 -30q45 0 75 30t30 81v129q0 80 -126 119q-52 16 -103 39t-88 71t-37 121v105q0 106 70 168q72 61 178 61t178 -61t71 -168v-115h-145v115q0 51 -30 80t-74 29t-74 -30
q-29 -28 -29 -79v-105q0 -79 125 -118q51 -16 103 -39q51 -23 89 -71t37 -122v-129q1 -109 -71 -170t-180 -61t-180 61q-71 61 -70 170v113z" />
    <glyph glyph-name="Tcommaaccent" unicode="&#x162;" horiz-adv-x="593" 
d="M358 -215q0 -86 -57 -211h-102q41 123 41 211v154h118v-154zM35 1315v119h524v-119h-188v-1315h-146v1315h-190z" />
    <glyph glyph-name="tcommaaccent" unicode="&#x163;" horiz-adv-x="481" 
d="M319 -215q0 -86 -57 -211h-102q41 123 41 211v154h118v-154zM440 4q-2 0 -30 -7t-68 -7q-112 0 -184 66t-72 180v1034h145v-246h209v-119h-209v-669q0 -58 35 -92q55 -55 174 -21v-119z" />
    <glyph glyph-name="Tcaron" unicode="&#x164;" horiz-adv-x="593" 
d="M297 1556l-256 207l84 84l172 -141l172 141l84 -84zM35 1315v119h524v-119h-188v-1315h-146v1315h-190z" />
    <glyph glyph-name="tcaron" unicode="&#x165;" horiz-adv-x="774" 
d="M553 1067v207h139v-207q0 -51 -19 -113t-38 -100l-21 -37h-118q57 133 57 250zM440 4q-2 0 -30 -7t-68 -7q-112 0 -184 66t-72 180v1034h145v-246h209v-119h-209v-669q0 -58 35 -92q55 -55 174 -21v-119z" />
    <glyph glyph-name="Tbar" unicode="&#x166;" horiz-adv-x="593" 
d="M35 813v119h190v383h-190v119h524v-119h-188v-383h188v-119h-188v-813h-146v813h-190z" />
    <glyph glyph-name="tbar" unicode="&#x167;" horiz-adv-x="481" 
d="M440 4q-2 0 -30 -7t-68 -7q-112 0 -184 66t-72 180v1034h145v-246h209v-119h-209v-213h209v-121h-209v-335q0 -58 35 -92q55 -55 174 -21v-119z" />
    <glyph glyph-name="Utilde" unicode="&#x168;" 
d="M74 1573q0 78 45 123t107 45t110 -42t80 -42q30 0 52 20t21 54h93q0 -78 -46 -123t-108 -45t-112 42q-48 42 -78 42q-30 1 -52 -19q-20 -20 -20 -55h-92zM72 1434h145v-1209q0 -53 31 -84t79 -31t80 32q32 30 31 83v1209h146v-1209q0 -111 -73 -173t-185 -62t-183 62
q-72 62 -71 173v1209z" />
    <glyph glyph-name="utilde" unicode="&#x169;" horiz-adv-x="669" 
d="M82 1163q0 78 45 123t107 45t111 -42q48 -42 79 -42q30 1 52 21t22 53h92q0 -78 -46 -123t-108 -45t-111 42q-48 42 -79 42t-51 -19t-21 -55h-92zM438 0v96q-78 -106 -200 -106q-70 0 -118 47t-48 125v862h145v-825q0 -41 24 -65q23 -24 71 -24t87 40q39 39 39 106v768
h146v-1024h-146z" />
    <glyph glyph-name="Umacron" unicode="&#x16a;" 
d="M123 1632v119h405v-119h-405zM72 1434h145v-1209q0 -53 31 -84t79 -31t80 32q32 30 31 83v1209h146v-1209q0 -111 -73 -173t-185 -62t-183 62q-72 62 -71 173v1209z" />
    <glyph glyph-name="umacron" unicode="&#x16b;" horiz-adv-x="669" 
d="M131 1223v118h406v-118h-406zM438 0v96q-78 -106 -200 -106q-70 0 -118 47t-48 125v862h145v-825q0 -41 24 -65q23 -24 71 -24t87 40q39 39 39 106v768h146v-1024h-146z" />
    <glyph glyph-name="Ubreve" unicode="&#x16c;" 
d="M125 1745h102q0 -49 29 -77t72 -28q44 0 72 28t28 77h102q0 -90 -58 -142q-58 -53 -145 -53t-145 52t-57 143zM72 1434h145v-1209q0 -53 31 -84t79 -31t80 32q32 30 31 83v1209h146v-1209q0 -111 -73 -173t-185 -62t-183 62q-72 62 -71 173v1209z" />
    <glyph glyph-name="ubreve" unicode="&#x16d;" horiz-adv-x="669" 
d="M131 1335h102q0 -49 29 -77t72 -28t72 28t28 77h103q-1 -90 -59 -142t-145 -52t-145 52q-57 52 -57 142zM438 0v96q-78 -106 -200 -106q-70 0 -118 47t-48 125v862h145v-825q0 -41 24 -65q23 -24 71 -24t87 40q39 39 39 106v768h146v-1024h-146z" />
    <glyph glyph-name="Uring" unicode="&#x16e;" 
d="M246 1700q0 -41 24 -65q24 -23 57 -23q35 0 59 24t24 64q0 42 -25 66t-59 24t-56 -24q-24 -24 -24 -66zM327 1874q75 0 125 -47t50 -128t-50 -127t-126 -46t-124 46t-48 127t49 128t124 47zM72 1434h145v-1209q0 -53 31 -84t79 -31t80 32q32 30 31 83v1209h146v-1209
q0 -111 -73 -173t-185 -62t-183 62q-72 62 -71 173v1209z" />
    <glyph glyph-name="uring" unicode="&#x16f;" horiz-adv-x="669" 
d="M252 1290q0 -40 24 -64t57 -24q35 0 59 24t24 64t-25 66q-25 24 -59 24t-57 -24q-23 -25 -23 -66zM333 1464q75 0 125 -47t50 -128t-50 -127t-126 -46t-124 46t-48 127t49 128t124 47zM438 0v96q-78 -106 -200 -106q-70 0 -118 47t-48 125v862h145v-825q0 -41 24 -65
q23 -24 71 -24t87 40q39 39 39 106v768h146v-1024h-146z" />
    <glyph glyph-name="Uhungarumlaut" unicode="&#x170;" 
d="M391 1542l-86 86l246 246l84 -86zM102 1542l-84 86l244 246l86 -86zM72 1434h145v-1209q0 -53 31 -84t79 -31t80 32q32 30 31 83v1209h146v-1209q0 -111 -73 -173t-185 -62t-183 62q-72 62 -71 173v1209z" />
    <glyph glyph-name="uhungarumlaut" unicode="&#x171;" horiz-adv-x="669" 
d="M399 1133l-86 86l246 245l84 -86zM111 1133l-84 86l243 245l86 -86zM438 0v96q-78 -106 -200 -106q-70 0 -118 47t-48 125v862h145v-825q0 -41 24 -65q23 -24 71 -24t87 40q39 39 39 106v768h146v-1024h-146z" />
    <glyph glyph-name="Uogonek" unicode="&#x172;" 
d="M305 -61v51q-102 6 -168 68t-65 167v1209h145v-1209q0 -53 31 -84t79 -31t80 32q32 30 31 83v1209h146v-1209q0 -88 -48 -146t-128 -79v-61q0 -51 28 -85t76 -34v-86q-96 0 -152 58q-55 59 -55 147z" />
    <glyph glyph-name="uogonek" unicode="&#x173;" horiz-adv-x="669" 
d="M438 0v96q-78 -106 -200 -106q-70 0 -118 47t-48 125v862h145v-825q0 -41 24 -65q23 -24 71 -24t87 40q39 39 39 106v768h146v-1024h-41v-61q-1 -51 27 -85t77 -34v-86q-96 0 -151 58t-56 147v61h-2z" />
    <glyph glyph-name="Wcircumflex" unicode="&#x174;" horiz-adv-x="1095" 
d="M375 1559l-84 83l256 205l256 -205l-84 -83l-172 139zM227 0l-200 1434h151l139 -1274h5l131 1274h188l131 -1274h4l139 1274h152l-201 -1434h-192l-125 1260h-4l-125 -1260h-193z" />
    <glyph glyph-name="wcircumflex" unicode="&#x175;" horiz-adv-x="1048" 
d="M352 1149l-84 84l256 205l256 -205l-84 -84l-172 139zM213 0l-186 1024h149l131 -895h4l121 895h184l119 -895h4l131 895h150l-186 -1024h-191l-117 881h-4l-119 -881h-190z" />
    <glyph glyph-name="Ycircumflex" unicode="&#x176;" horiz-adv-x="645" 
d="M150 1559l-84 83l256 205l256 -205l-84 -83l-172 139zM248 0v459l-221 975h145l147 -744h5l149 744h145l-225 -975v-459h-145z" />
    <glyph glyph-name="ycircumflex" unicode="&#x177;" horiz-adv-x="665" 
d="M160 1149l-84 84l256 205l256 -205l-84 -84l-172 139zM72 -156h145v-77q0 -53 32 -85t79 -32t79 31t31 83v332q-78 -106 -200 -106q-70 0 -118 47t-48 125v862h145v-825q0 -41 24 -65q23 -24 71 -24t87 40q39 39 39 106v768h146v-1257q0 -111 -73 -175t-183 -63
q-110 0 -184 63q-73 63 -72 175v77z" />
    <glyph glyph-name="Ydieresis" unicode="&#x178;" horiz-adv-x="645" 
d="M408 1612v207h124v-207h-124zM111 1612v207h125v-207h-125zM248 0v459l-221 975h145l147 -744h5l149 744h145l-225 -975v-459h-145z" />
    <glyph glyph-name="Zacute" unicode="&#x179;" horiz-adv-x="645" 
d="M231 1552l-84 86l267 226l84 -84zM72 0v72l346 1243h-346v119h501v-72l-342 -1243h342v-119h-501z" />
    <glyph glyph-name="zacute" unicode="&#x17a;" horiz-adv-x="645" 
d="M231 1143l-84 86l267 225l84 -84zM72 0v72l340 833h-340v119h501v-72l-335 -833h335v-119h-501z" />
    <glyph glyph-name="Zdotaccent" unicode="&#x17b;" horiz-adv-x="645" 
d="M250 1636v207h145v-207h-145zM72 0v72l346 1243h-346v119h501v-72l-342 -1243h342v-119h-501z" />
    <glyph glyph-name="zdotaccent" unicode="&#x17c;" horiz-adv-x="645" 
d="M250 1227v207h145v-207h-145zM72 0v72l340 833h-340v119h501v-72l-335 -833h335v-119h-501z" />
    <glyph glyph-name="Zcaron" unicode="&#x17d;" horiz-adv-x="645" 
d="M322 1556l-256 207l84 84l172 -141l172 141l84 -84zM72 0v72l346 1243h-346v119h501v-72l-342 -1243h342v-119h-501z" />
    <glyph glyph-name="zcaron" unicode="&#x17e;" horiz-adv-x="645" 
d="M322 1147l-256 207l84 84l172 -142l172 142l84 -84zM72 0v72l340 833h-340v119h501v-72l-335 -833h335v-119h-501z" />
    <glyph glyph-name="longs" unicode="&#x17f;" horiz-adv-x="577" 
d="M72 0v1284q0 98 65 155q66 56 164 56t165 -56t66 -155v-78h-145v78q0 41 -26 66q-25 24 -61 24t-60 -24t-23 -66v-1284h-145z" />
    <glyph glyph-name="uni018F" unicode="&#x18f;" horiz-adv-x="645" 
d="M217 221q0 -51 30 -81t76 -29q45 -1 75 29t30 81v438h-211v-438zM72 221v557h356v432q0 51 -30 82t-74 31t-76 -31q-31 -31 -31 -82v-186h-145v186q0 109 71 171q72 63 181 63q110 0 180 -62t69 -172v-989q-1 -109 -71 -170t-178 -61t-181 61q-71 61 -71 170z" />
    <glyph glyph-name="florin" unicode="&#x192;" horiz-adv-x="475" 
d="M-17 -350q43 0 73 26t30 74v1499q0 113 73 179t183 67q37 0 67 -7q29 -7 31 -7v-119q-43 12 -91 12t-83 -34t-35 -91v-225h209v-119h-209v-1155q0 -102 -67 -162q-68 -59 -166 -59q-47 0 -90 14v119q31 -12 75 -12z" />
    <glyph glyph-name="uni01DD" unicode="&#x1dd;" 
d="M438 227v238h-221v-238q0 -57 31 -87t80 -30t80 30q30 30 30 87zM72 584h366v215q0 53 -31 84q-32 31 -79 31t-79 -32q-32 -30 -32 -83v-92h-145v92q0 111 72 173q73 62 184 62q112 0 184 -62t72 -173v-572q0 -111 -73 -174t-183 -63t-184 63q-73 63 -72 174v357z" />
    <glyph glyph-name="AEacute" unicode="&#x1fc;" horiz-adv-x="884" 
d="M350 1552l-84 86l266 226l84 -84zM397 475v803h-4l-139 -803h143zM813 0h-416v356h-161l-66 -356h-143l272 1434h514v-119h-270v-520h229v-119h-229v-557h270v-119z" />
    <glyph glyph-name="aeacute" unicode="&#x1fd;" horiz-adv-x="1021" 
d="M420 1143l-84 86l266 225l84 -84zM584 797v-207h223v207q0 57 -32 87t-81 30t-80 -30q-30 -30 -30 -87zM438 256v209l-110 -8q-47 -4 -79 -38t-32 -87v-137q0 -39 23 -62q24 -23 68 -23t87 40t43 106zM952 471h-368v-246q0 -53 32 -84t78 -31q47 0 80 32q33 30 33 83v109
h145v-109q0 -111 -74 -173t-184 -62q-168 0 -227 129q-82 -129 -234 -129q-69 0 -115 45t-46 123v174q0 106 64 170q65 63 163 73l139 11v213q0 53 -31 84q-32 31 -79 31t-79 -32q-32 -30 -32 -83v-109h-145v109q0 111 72 173q73 62 194 62t174 -100q25 47 74 74t108 26
q111 0 185 -63t73 -174v-326z" />
    <glyph glyph-name="Oslashacute" unicode="&#x1fe;" 
d="M236 1552l-84 86l266 226l84 -84zM217 1206v-700l221 690v10q0 53 -31 85q-32 32 -80 32t-79 -32t-31 -85zM217 225q0 -53 31 -83t79 -31q48 1 80 31t31 83v703l-221 -690v-13zM72 225v981q0 111 71 174q71 64 179 64t178 -55l14 45h86l-39 -123q23 -49 23 -105v-981
q0 -111 -73 -173t-180 -62t-177 53l-13 -43h-86l37 119q-20 43 -20 106z" />
    <glyph glyph-name="oslashacute" unicode="&#x1ff;" 
d="M236 1143l-84 86l266 225l84 -84zM217 797v-437l215 480q-27 74 -106 73q-47 1 -78 -31t-31 -85zM326 111q49 1 81 31t31 83v439l-215 -482q23 -71 103 -71zM72 797q0 111 71 174t177 63t176 -51l18 41h86l-47 -106q31 -55 31 -121v-572q0 -111 -73 -173t-179 -62
t-174 49l-17 -39h-86l45 102q-29 53 -28 123v572z" />
    <glyph glyph-name="Scommaaccent" unicode="&#x218;" 
d="M387 -215q0 -86 -57 -211h-103q41 123 41 211v154h119v-154zM72 410h145v-185q0 -53 31 -84t79 -31t80 32q32 30 31 83v283q0 97 -129 155q-53 25 -106 53t-91 86t-38 144v262q0 111 71 173q72 63 182 63q111 0 183 -62t72 -174v-184h-146v184q0 53 -32 84t-78 31
t-77 -31q-30 -31 -30 -84v-262q0 -97 129 -155q52 -25 106 -54t92 -86t38 -143v-283q0 -111 -73 -173t-185 -62t-183 62q-72 62 -71 173v185z" />
    <glyph glyph-name="scommaaccent" unicode="&#x219;" horiz-adv-x="645" 
d="M387 -215q0 -86 -57 -211h-103q41 123 41 211v154h119v-154zM72 334h145v-113q0 -51 30 -81t76 -30q45 0 75 30t30 81v129q0 80 -126 119q-52 16 -103 39t-88 71t-37 121v105q0 106 70 168q72 61 178 61t178 -61t71 -168v-115h-145v115q0 51 -30 80t-74 29t-74 -30
q-29 -28 -29 -79v-105q0 -79 125 -118q51 -16 103 -39q51 -23 89 -71t37 -122v-129q1 -109 -71 -170t-180 -61t-180 61q-71 61 -70 170v113z" />
    <glyph glyph-name="uni021A" unicode="&#x21a;" horiz-adv-x="593" 
d="M358 -215q0 -86 -57 -211h-102q41 123 41 211v154h118v-154zM35 1315v119h524v-119h-188v-1315h-146v1315h-190z" />
    <glyph glyph-name="uni021B" unicode="&#x21b;" horiz-adv-x="481" 
d="M319 -215q0 -86 -57 -211h-102q41 123 41 211v154h118v-154zM440 4q-2 0 -30 -7t-68 -7q-112 0 -184 66t-72 180v1034h145v-246h209v-119h-209v-669q0 -58 35 -92q55 -55 174 -21v-119z" />
    <glyph glyph-name="dotlessj" unicode="&#x237;" horiz-adv-x="317" 
d="M-17 -350q43 0 73 26t30 74v1274h145v-1274q0 -102 -67 -162q-68 -59 -166 -59q-47 0 -90 14v119q31 -12 75 -12z" />
    <glyph glyph-name="circumflex" unicode="&#x2c6;" horiz-adv-x="503" 
d="M80 1149l-84 84l256 205l256 -205l-84 -84l-172 139z" />
    <glyph glyph-name="caron" unicode="&#x2c7;" horiz-adv-x="503" 
d="M252 1147l-256 207l84 84l172 -142l172 142l84 -84z" />
    <glyph glyph-name="breve" unicode="&#x2d8;" 
d="M125 1335h102q0 -49 29 -77t72 -28q44 0 72 28t28 77h102q0 -90 -58 -142t-145 -52t-145 52q-57 52 -57 142z" />
    <glyph glyph-name="dotaccent" unicode="&#x2d9;" horiz-adv-x="307" 
d="M82 1227v207h145v-207h-145z" />
    <glyph glyph-name="ring" unicode="&#x2da;" 
d="M246 1290q0 -40 24 -64t57 -24q35 0 59 24t24 64t-25 66q-25 24 -59 24t-57 -24q-23 -25 -23 -66zM327 1464q75 0 125 -47t50 -128t-50 -127t-126 -46t-124 46t-48 127t49 128t124 47z" />
    <glyph glyph-name="ogonek" unicode="&#x2db;" horiz-adv-x="296" 
d="M82 -61v61h102v-61q0 -51 28 -85t77 -34v-86q-96 0 -152 58q-55 59 -55 147z" />
    <glyph glyph-name="tilde" unicode="&#x2dc;" 
d="M74 1163q0 78 45 123t107 45t110 -42t80 -42q30 1 52 21t21 53h93q0 -78 -46 -123t-108 -45t-112 42q-48 42 -78 42t-52 -19q-20 -19 -20 -55h-92z" />
    <glyph glyph-name="hungarumlaut" unicode="&#x2dd;" horiz-adv-x="505" 
d="M317 1133l-86 86l246 245l84 -86zM29 1133l-84 86l243 245l86 -86z" />
    <glyph glyph-name="uni0400" unicode="&#x400;" horiz-adv-x="624" 
d="M86 0v1434h467v-119h-322v-520h281v-119h-281v-557h322v-119h-467zM403 1552l-266 226l84 86l268 -226z" />
    <glyph glyph-name="afii10023" unicode="&#x401;" horiz-adv-x="624" 
d="M86 0v1434h467v-119h-322v-520h281v-119h-281v-557h322v-119h-467zM401 1536v207h125v-207h-125zM104 1536v207h125v-207h-125z" />
    <glyph glyph-name="afii10051" unicode="&#x402;" horiz-adv-x="808" 
d="M592 -260v932q0 40 -25 64t-71 24t-86 -39q-39 -39 -39 -107v-614h-146v1315h-190v119h524v-119h-188v-541q78 106 200 107q70 0 118 -47t48 -125v-969q0 -96 -65 -154q-66 -57 -164 -57t-165 57t-67 154v113h146v-113q0 -41 24 -66q24 -24 62 -24q36 0 60 24t24 66z" />
    <glyph glyph-name="afii10052" unicode="&#x403;" horiz-adv-x="573" 
d="M86 0v1434h446v-119h-301v-1315h-145zM195 1552l-84 86l266 226l84 -84z" />
    <glyph glyph-name="afii10053" unicode="&#x404;" 
d="M502 670h-285v-445q0 -53 31 -84t79 -31t80 32q32 30 31 83v185h146v-185q0 -111 -73 -173t-185 -62t-183 62q-72 62 -71 173v981q0 111 71 174q72 64 183 64q110 0 184 -64t74 -174v-182h-146v182q0 57 -30 87q-31 30 -80 30t-80 -30t-31 -87v-418h285v-118z" />
    <glyph glyph-name="afii10054" unicode="&#x405;" 
d="M72 410h145v-185q0 -53 31 -84t79 -31t80 32q32 30 31 83v283q0 97 -129 155q-53 25 -106 53t-91 86t-38 144v262q0 111 71 173q72 63 182 63q111 0 183 -62t72 -174v-184h-146v184q0 53 -32 84t-78 31t-77 -31q-30 -31 -30 -84v-262q0 -97 129 -155q52 -25 106 -54
t92 -86t38 -143v-283q0 -111 -73 -173t-185 -62t-183 62q-72 62 -71 173v185z" />
    <glyph glyph-name="afii10055" unicode="&#x406;" horiz-adv-x="317" 
d="M86 0v1434h145v-1434h-145z" />
    <glyph glyph-name="afii10056" unicode="&#x407;" horiz-adv-x="317" 
d="M86 0v1434h145v-1434h-145zM246 1561v206h125v-206h-125zM-51 1561v206h125v-206h-125z" />
    <glyph glyph-name="afii10057" unicode="&#x408;" horiz-adv-x="645" 
d="M72 410h145v-187q0 -51 31 -82t76 -31q44 0 74 32q30 30 30 81v1211h145v-1211q-1 -109 -71 -171t-178 -62t-181 62q-72 62 -71 171v187z" />
    <glyph glyph-name="afii10058" unicode="&#x409;" horiz-adv-x="1048" 
d="M621 119h100q47 0 79 32t31 87v321q0 53 -31 85q-32 32 -79 32h-100v-557zM41 -10v121q41 0 69 43t27 116v1164h484v-639h100q111 -1 183 -63t73 -173v-321q0 -110 -73 -174t-183 -64h-246v1315h-192v-1045q0 -128 -69 -204t-173 -76z" />
    <glyph glyph-name="afii10059" unicode="&#x40a;" horiz-adv-x="1028" 
d="M600 119h98q49 0 81 32t32 87v321q0 53 -32 85t-81 32h-98v-557zM86 0v1434h145v-639h224v639h145v-639h98q113 -1 186 -63t72 -173v-321q0 -111 -73 -175q-74 -63 -185 -63h-243v676h-224v-676h-145z" />
    <glyph glyph-name="afii10060" unicode="&#x40b;" horiz-adv-x="808" 
d="M371 614v-614h-146v1315h-190v119h524v-119h-188v-541q78 106 200 107q70 0 118 -47t48 -125v-709h-145v672q0 40 -25 64t-71 24t-86 -39q-39 -39 -39 -107z" />
    <glyph glyph-name="afii10061" unicode="&#x40c;" 
d="M86 0v1434h145v-639h64l176 637h150l-215 -697l221 -735h-150l-180 676h-66v-676h-145zM236 1552l-84 86l266 226l84 -84z" />
    <glyph glyph-name="uni040D" unicode="&#x40d;" horiz-adv-x="690" 
d="M86 0v1434h141v-967h2l234 842v125h141v-1434h-141v967h-2l-234 -842v-125h-141zM436 1552l-266 226l84 86l268 -226z" />
    <glyph glyph-name="afii10062" unicode="&#x40e;" horiz-adv-x="645" 
d="M66 0v119h71q68 0 88 84l45 207h-43l-200 1024h149l143 -897h5l145 897h149l-245 -1233q-39 -201 -236 -201h-71zM121 1745h102q0 -49 29 -77t72 -28q44 0 72 28t28 77h102q0 -90 -58 -142q-58 -53 -145 -53t-145 52t-57 143z" />
    <glyph glyph-name="afii10145" unicode="&#x40f;" horiz-adv-x="686" 
d="M86 0v1434h145v-1315h224v1315h145v-1434h-184v-256h-146v256h-184z" />
    <glyph glyph-name="afii10017" unicode="&#x410;" horiz-adv-x="645" 
d="M322 1266l-93 -791h187l-90 791h-4zM27 0l200 1434h191l200 -1434h-147l-47 356h-205l-45 -356h-147z" />
    <glyph glyph-name="afii10018" unicode="&#x411;" horiz-adv-x="659" 
d="M332 748h-101v-629h101q47 0 80 32t32 87v393q0 53 -32 85q-33 32 -80 32zM86 0v1434h477v-119h-332v-449h101q110 0 184 -62t74 -173v-393q0 -110 -74 -174t-184 -64h-246z" />
    <glyph glyph-name="afii10019" unicode="&#x412;" horiz-adv-x="659" 
d="M231 799h101q47 -1 80 31t32 85v281q0 55 -32 87q-33 32 -80 32h-101v-516zM338 680h-107v-561h107q47 0 79 32t32 87v327q0 53 -32 84t-79 31zM86 0v1434h246q110 0 184 -64t74 -174v-246q0 -154 -137 -209q141 -55 141 -213v-290q0 -110 -73 -174t-183 -64h-252z" />
    <glyph glyph-name="afii10020" unicode="&#x413;" horiz-adv-x="573" 
d="M86 0v1434h446v-119h-301v-1315h-145z" />
    <glyph glyph-name="afii10021" unicode="&#x414;" horiz-adv-x="784" 
d="M309 281q0 -100 -45 -162h236v1196h-191v-1034zM41 -258v377h25q42 0 70 43t28 119v1153h481v-1315h98v-377h-145v258h-412v-258h-145z" />
    <glyph glyph-name="afii10022" unicode="&#x415;" horiz-adv-x="624" 
d="M86 0v1434h467v-119h-322v-520h281v-119h-281v-557h322v-119h-467z" />
    <glyph glyph-name="afii10024" unicode="&#x416;" horiz-adv-x="993" 
d="M424 795v639h145v-639h64l176 637h149l-213 -697l220 -735h-150l-180 676h-66v-676h-145v676h-64l-180 -676h-151l221 735l-215 697h151l174 -637h64z" />
    <glyph glyph-name="afii10025" unicode="&#x417;" horiz-adv-x="647" 
d="M217 223q0 -51 31 -81t77 -31q47 -1 79 31t32 85v338q0 51 -33 83t-79 32h-111v119h104q49 -1 81 31t32 85v291q0 53 -32 85t-79 32t-77 -30t-31 -81v-188h-145v188q0 109 71 170q71 62 181 62t184 -64t73 -174v-256q0 -154 -137 -209q143 -55 144 -213v-301
q0 -111 -74 -174t-184 -63t-181 62q-72 62 -71 171v187h145v-187z" />
    <glyph glyph-name="afii10026" unicode="&#x418;" horiz-adv-x="690" 
d="M86 0v1434h141v-967h2l234 842v125h141v-1434h-141v967h-2l-234 -842v-125h-141z" />
    <glyph glyph-name="afii10027" unicode="&#x419;" horiz-adv-x="690" 
d="M86 0v1434h141v-967h2l234 842v125h141v-1434h-141v967h-2l-234 -842v-125h-141zM141 1745h103q0 -49 28 -77t72 -28q43 0 72 28t28 77h103q-1 -90 -59 -142q-58 -53 -145 -53t-145 52t-57 143z" />
    <glyph glyph-name="afii10028" unicode="&#x41a;" 
d="M86 0v1434h145v-639h64l176 637h150l-215 -697l221 -735h-150l-180 676h-66v-676h-145z" />
    <glyph glyph-name="afii10029" unicode="&#x41b;" horiz-adv-x="706" 
d="M137 270v1164h484v-1434h-146v1315h-192v-1045q0 -128 -69 -204t-173 -76v121q41 1 69 43t27 116z" />
    <glyph glyph-name="afii10030" unicode="&#x41c;" horiz-adv-x="1001" 
d="M86 0v1434h215l197 -1215h4l198 1215h213v-1434h-139v1186h-4l-186 -1186h-166l-187 1186h-4v-1186h-141z" />
    <glyph glyph-name="afii10031" unicode="&#x41d;" horiz-adv-x="686" 
d="M86 0v1434h145v-639h224v639h145v-1434h-145v676h-224v-676h-145z" />
    <glyph glyph-name="afii10032" unicode="&#x41e;" 
d="M217 1206v-981q0 -53 31 -84t79 -31t80 32q32 30 31 83v981q0 53 -31 85q-32 32 -80 32t-79 -32t-31 -85zM326 1444q110 0 184 -64t74 -174v-981q0 -111 -73 -173t-185 -62t-183 62q-72 62 -71 173v981q0 110 72 174t182 64z" />
    <glyph glyph-name="afii10033" unicode="&#x41f;" horiz-adv-x="686" 
d="M86 0v1434h514v-1434h-145v1315h-224v-1315h-145z" />
    <glyph glyph-name="afii10034" unicode="&#x420;" horiz-adv-x="659" 
d="M231 696h101q47 0 80 32t32 85v383q0 55 -32 87q-33 32 -80 32h-101v-619zM86 0v1434h246q110 0 184 -64t74 -174v-383q0 -111 -74 -173t-184 -62h-101v-578h-145z" />
    <glyph glyph-name="afii10035" unicode="&#x421;" horiz-adv-x="645" 
d="M217 1210v-989q0 -51 30 -81t76 -30q45 0 75 30t30 81v189h145v-189q1 -109 -71 -170t-180 -61t-180 61q-71 61 -70 170v989q0 109 70 171q71 63 180 63q108 0 180 -62t71 -172v-186h-145v186q0 51 -30 82t-76 31t-75 -31q-30 -31 -30 -82z" />
    <glyph glyph-name="afii10036" unicode="&#x422;" horiz-adv-x="593" 
d="M35 1315v119h524v-119h-188v-1315h-146v1315h-190z" />
    <glyph glyph-name="afii10037" unicode="&#x423;" horiz-adv-x="645" 
d="M66 0v119h71q68 0 88 84l45 207h-43l-200 1024h149l143 -897h5l145 897h149l-245 -1233q-39 -201 -236 -201h-71z" />
    <glyph glyph-name="afii10038" unicode="&#x424;" horiz-adv-x="952" 
d="M625 1141h-76v-848h76q47 0 79 33t31 86v612q1 53 -31 85t-79 32zM403 1141h-75q-47 0 -79 -32t-32 -85v-612q0 -53 32 -86t79 -33h75v848zM549 1434v-174h76q111 0 183 -62t73 -174v-612q0 -111 -73 -174t-183 -64h-76v-174h-146v174h-75q-111 0 -184 64t-72 174v612
q0 111 72 173q73 62 184 63h75v174h146z" />
    <glyph glyph-name="afii10039" unicode="&#x425;" horiz-adv-x="645" 
d="M23 0l188 737l-182 697h149l141 -637h5l143 635h149l-182 -697l189 -735h-150l-147 678h-4l-150 -678h-149z" />
    <glyph glyph-name="afii10040" unicode="&#x426;" horiz-adv-x="737" 
d="M551 -258v258h-465v1434h145v-1315h224v1315h145v-1315h96v-377h-145z" />
    <glyph glyph-name="afii10041" unicode="&#x427;" horiz-adv-x="669" 
d="M438 844v590h146v-1434h-146v684q-76 -104 -200 -104q-70 0 -118 46t-48 126v682h145v-648q0 -40 24 -64q23 -24 71 -24t87 40t39 106z" />
    <glyph glyph-name="afii10042" unicode="&#x428;" horiz-adv-x="1032" 
d="M86 0v1434h145v-1315h213v1315h146v-1315h211v1315h145v-1434h-860z" />
    <glyph glyph-name="afii10043" unicode="&#x429;" horiz-adv-x="1085" 
d="M86 0v1434h145v-1315h213v1315h146v-1315h211v1315h145v-1315h98v-375h-145v256h-813z" />
    <glyph glyph-name="afii10044" unicode="&#x42a;" horiz-adv-x="798" 
d="M371 119h98q49 0 81 32t32 87v393q0 53 -32 85t-81 32h-98v-629zM225 0v1315h-184v119h330v-568h98q113 0 185 -62t73 -173v-393q0 -110 -74 -174t-184 -64h-244z" />
    <glyph glyph-name="afii10045" unicode="&#x42b;" horiz-adv-x="927" 
d="M696 0v1434h146v-1434h-146zM332 748h-101v-629h101q47 0 80 32t32 87v393q0 53 -32 85q-33 32 -80 32zM86 0v1434h145v-568h101q110 0 184 -62t74 -173v-393q0 -110 -74 -174t-184 -64h-246z" />
    <glyph glyph-name="afii10046" unicode="&#x42c;" horiz-adv-x="659" 
d="M332 748h-101v-629h101q47 0 80 32t32 87v393q0 53 -32 85q-33 32 -80 32zM86 0v1434h145v-568h101q110 0 184 -62t74 -173v-393q0 -110 -74 -174t-184 -64h-246z" />
    <glyph glyph-name="afii10047" unicode="&#x42d;" 
d="M438 670h-239v118h239v418q0 57 -30 87q-31 30 -80 30t-80 -30t-31 -87v-182h-145v182q0 111 72 174q73 64 184 64q112 0 184 -64t72 -174v-981q0 -111 -73 -173t-183 -62t-184 62q-73 62 -72 173v185h145v-185q0 -53 32 -84t79 -31t79 32q32 30 31 83v445z" />
    <glyph glyph-name="afii10048" unicode="&#x42e;" horiz-adv-x="948" 
d="M510 1206v-981q0 -53 31 -84t77 -31t80 32q33 30 33 83v981q0 53 -33 85t-80 32q-48 0 -78 -32t-30 -85zM86 0v1434h145v-646h134v418q0 111 71 174q72 64 182 64t185 -64q74 -64 74 -174v-981q0 -111 -74 -173t-185 -62q-110 0 -182 62t-71 173v445h-134v-670h-145z" />
    <glyph glyph-name="afii10049" unicode="&#x42f;" horiz-adv-x="659" 
d="M328 733h100v582h-100q-47 0 -79 -32t-32 -87v-348q0 -53 32 -84t79 -31zM72 848v348q0 111 72 174q73 63 184 64h245v-1434h-145v614h-98l-148 -614h-147l174 645q-137 49 -137 203z" />
    <glyph glyph-name="afii10065" unicode="&#x430;" 
d="M438 256v225l-110 -14q-49 -4 -80 -34t-31 -81v-157q0 -39 23 -62q24 -23 68 -23t87 40t43 106zM438 0v96q-76 -106 -205 -106q-69 0 -115 45t-46 123v194q0 106 63 164t164 70l139 18v195q0 53 -31 84q-32 31 -79 31t-79 -32q-32 -30 -32 -83v-109h-145v109
q0 111 72 173q73 62 184 62q112 0 184 -62t72 -173v-799h-146z" />
    <glyph glyph-name="afii10066" unicode="&#x431;" 
d="M217 768v-543q0 -53 31 -84t79 -31t80 32q32 30 31 83v600q0 41 -24 65q-25 24 -72 24t-86 -40q-39 -38 -39 -106zM217 1075v-147q78 106 201 106q70 0 118 -47t48 -125v-637q0 -111 -73 -173t-185 -62t-183 62q-72 62 -71 173v850q0 84 37 139t89 82t104 49
q126 53 126 140h115q0 -140 -115 -201q-47 -26 -95 -48q-116 -54 -116 -161z" />
    <glyph glyph-name="afii10067" unicode="&#x432;" horiz-adv-x="659" 
d="M231 594h101q45 0 74 29t28 77v97q0 49 -28 79q-29 30 -74 29h-101v-311zM338 475h-107v-356h107q47 0 79 32t32 87v122q0 53 -32 84t-79 31zM86 0v1024h246q106 0 177 -60t71 -167v-62q0 -141 -127 -198q141 -55 141 -213v-86q0 -110 -73 -174t-183 -64h-252z" />
    <glyph glyph-name="afii10068" unicode="&#x433;" horiz-adv-x="557" 
d="M86 0v1024h432v-119h-287v-905h-145z" />
    <glyph glyph-name="afii10069" unicode="&#x434;" horiz-adv-x="784" 
d="M309 281q0 -100 -45 -162h236v786h-191v-624zM41 -258v377h25q42 0 70 43t28 119v743h481v-905h98v-377h-145v258h-412v-258h-145z" />
    <glyph glyph-name="afii10070" unicode="&#x435;" 
d="M217 797v-213h221v213q0 57 -30 87q-31 30 -80 30t-80 -30t-31 -87zM584 465h-367v-240q0 -53 31 -84t79 -31t80 32q32 30 31 83v109h146v-109q0 -111 -73 -173t-185 -62t-183 62q-72 62 -71 173v572q0 111 71 174q72 63 183 63q110 0 184 -63t74 -174v-332z" />
    <glyph glyph-name="afii10072" unicode="&#x436;" horiz-adv-x="993" 
d="M424 584v440h145v-440h76l160 440h151l-204 -498l213 -526h-152l-168 469h-76v-469h-145v469h-76l-168 -469h-151l211 526l-205 498h151l162 -440h76z" />
    <glyph glyph-name="afii10073" unicode="&#x437;" horiz-adv-x="647" 
d="M217 223q0 -51 31 -81t77 -31q47 -1 79 31t32 85v127q0 53 -33 85t-79 32h-105v119h98q49 0 81 31t32 84v92q0 53 -32 85t-79 32t-77 -30t-31 -81v-113h-145v113q0 109 71 170t181 61t184 -63t73 -174v-56q0 -154 -137 -211q66 -26 105 -80t39 -131v-92q0 -111 -74 -174
t-184 -63t-181 62q-72 62 -71 171v111h145v-111z" />
    <glyph glyph-name="afii10074" unicode="&#x438;" horiz-adv-x="690" 
d="M86 0v1024h141v-662h2l234 611v51h141v-1024h-141v662h-2l-234 -611v-51h-141z" />
    <glyph glyph-name="afii10075" unicode="&#x439;" horiz-adv-x="690" 
d="M86 0v1024h141v-662h2l234 611v51h141v-1024h-141v662h-2l-234 -611v-51h-141zM141 1335h103q0 -49 28 -77t72 -28q43 0 72 28t28 77h103q-1 -90 -59 -142t-145 -52t-145 52t-57 142z" />
    <glyph glyph-name="afii10076" unicode="&#x43a;" 
d="M86 0v1024h145v-440h76l162 440h152l-205 -498l211 -526h-152l-168 469h-76v-469h-145z" />
    <glyph glyph-name="afii10077" unicode="&#x43b;" horiz-adv-x="706" 
d="M137 270v754h484v-1024h-146v905h-192v-635q0 -128 -69 -204t-173 -76v121q41 1 69 43t27 116z" />
    <glyph glyph-name="afii10078" unicode="&#x43c;" horiz-adv-x="978" 
d="M86 0v1024h215l184 -840h4l189 840h215v-1024h-135v854h-4l-185 -854h-161l-183 854h-4v-854h-135z" />
    <glyph glyph-name="afii10079" unicode="&#x43d;" horiz-adv-x="686" 
d="M86 0v1024h145v-440h224v440h145v-1024h-145v465h-224v-465h-145z" />
    <glyph glyph-name="afii10080" unicode="&#x43e;" 
d="M217 797v-572q0 -53 31 -84t79 -31t80 32q32 30 31 83v572q0 53 -31 85q-32 32 -80 32t-79 -32t-31 -85zM326 1034q110 0 184 -63t74 -174v-572q0 -111 -73 -173t-185 -62t-183 62q-72 62 -71 173v572q0 111 71 174q72 63 183 63z" />
    <glyph glyph-name="afii10081" unicode="&#x43f;" horiz-adv-x="686" 
d="M86 0v1024h514v-1024h-145v905h-224v-905h-145z" />
    <glyph glyph-name="afii10082" unicode="&#x440;" horiz-adv-x="669" 
d="M455 225v600q0 41 -25 65q-26 24 -72 24t-86 -40q-40 -39 -41 -106v-625q43 -33 101 -33t90 32q33 30 33 83zM86 -410v1434h145v-96q78 106 201 106q72 0 120 -46t48 -126v-637q0 -111 -66 -173t-155 -62q-90 0 -148 30v-430h-145z" />
    <glyph glyph-name="afii10083" unicode="&#x441;" horiz-adv-x="645" 
d="M217 801v-580q0 -51 30 -81t76 -30q45 0 75 30t30 81v113h145v-113q1 -109 -71 -170t-180 -61t-180 61q-71 61 -70 170v580q0 109 70 171q71 62 180 62q108 0 180 -62t71 -171v-111h-145v111q0 51 -30 82t-76 31t-75 -32q-30 -30 -30 -81z" />
    <glyph glyph-name="afii10084" unicode="&#x442;" horiz-adv-x="593" 
d="M35 905v119h522v-119h-186v-905h-146v905h-190z" />
    <glyph glyph-name="afii10085" unicode="&#x443;" horiz-adv-x="645" 
d="M66 -410v119h71q68 0 88 84l45 207h-43l-200 1024h149l143 -897h5l145 897h149l-245 -1233q-39 -201 -236 -201h-71z" />
    <glyph glyph-name="afii10086" unicode="&#x444;" horiz-adv-x="952" 
d="M625 905h-76v-786h76q47 0 79 32t31 87v550q1 53 -31 85t-79 32zM403 905h-75q-47 0 -79 -32t-32 -85v-550q0 -55 32 -87t79 -32h75v786zM549 1485v-461h76q111 0 183 -62t73 -174v-550q0 -110 -73 -174t-183 -64h-76v-410h-146v410h-75q-111 0 -184 63t-72 175v550
q0 111 72 174q73 62 184 62h75v461h146z" />
    <glyph glyph-name="afii10087" unicode="&#x445;" 
d="M29 0l202 526l-196 498h151l138 -418h4l141 418h152l-197 -498l203 -526h-152l-147 451h-4l-144 -451h-151z" />
    <glyph glyph-name="afii10088" unicode="&#x446;" horiz-adv-x="737" 
d="M551 -258v258h-465v1024h145v-905h224v905h145v-905h96v-377h-145z" />
    <glyph glyph-name="afii10089" unicode="&#x447;" horiz-adv-x="669" 
d="M438 639v385h146v-1024h-146v479q-76 -104 -200 -104q-70 0 -118 46t-48 126v477h145v-442q0 -41 24 -65q23 -23 71 -23t87 40t39 105z" />
    <glyph glyph-name="afii10090" unicode="&#x448;" horiz-adv-x="1032" 
d="M86 0v1024h145v-905h213v905h146v-905h211v905h145v-1024h-860z" />
    <glyph glyph-name="afii10091" unicode="&#x449;" horiz-adv-x="1085" 
d="M86 0v1024h145v-905h213v905h146v-905h211v905h145v-905h98v-375h-145v256h-813z" />
    <glyph glyph-name="afii10092" unicode="&#x44a;" horiz-adv-x="794" 
d="M367 119h98q49 0 81 32t32 87v168q0 52 -32 84t-81 32h-98v-403zM221 0v905h-180v119h326v-383h98q113 0 185 -62t73 -173v-168q0 -110 -74 -174t-184 -64h-244z" />
    <glyph glyph-name="afii10093" unicode="&#x44b;" horiz-adv-x="927" 
d="M696 0v1024h146v-1024h-146zM332 522h-101v-403h101q47 0 80 32t32 87v168q0 52 -32 84t-80 32zM86 0v1024h145v-383h101q110 0 184 -62t74 -173v-168q0 -110 -74 -174t-184 -64h-246z" />
    <glyph glyph-name="afii10094" unicode="&#x44c;" horiz-adv-x="659" 
d="M332 522h-101v-403h101q47 0 80 32t32 87v168q0 52 -32 84t-80 32zM86 0v1024h145v-383h101q110 0 184 -62t74 -173v-168q0 -110 -74 -174t-184 -64h-246z" />
    <glyph glyph-name="afii10095" unicode="&#x44d;" 
d="M438 465h-223v119h223v213q0 57 -30 87q-31 30 -80 30t-80 -30t-31 -87v-107h-145v107q0 111 72 174q73 63 184 63q112 0 184 -63t72 -174v-572q0 -111 -73 -173t-183 -62t-184 62q-73 62 -72 173v109h145v-109q0 -53 32 -84t79 -31t79 32q32 30 31 83v240z" />
    <glyph glyph-name="afii10096" unicode="&#x44e;" horiz-adv-x="948" 
d="M510 225q0 -53 31 -84t77 -31t80 32q33 30 33 83v572q0 53 -33 85t-80 32q-48 0 -78 -32t-30 -85v-572zM86 0v1024h145v-440h134v213q0 111 71 174q72 63 182 63t185 -63q74 -63 74 -174v-572q0 -111 -74 -173t-185 -62q-110 0 -182 62t-71 173v240h-134v-465h-145z" />
    <glyph glyph-name="afii10097" unicode="&#x44f;" horiz-adv-x="659" 
d="M328 522h100v383h-100q-47 0 -79 -32t-32 -87v-147q0 -53 32 -85t79 -32zM72 639v147q0 111 72 175q73 63 184 63h245v-1024h-145v403h-96l-133 -403h-148l166 428q-65 20 -105 76t-40 135z" />
    <glyph glyph-name="uni0450" unicode="&#x450;" 
d="M217 797v-213h221v213q0 57 -30 87q-31 30 -80 30t-80 -30t-31 -87zM584 465h-367v-240q0 -53 31 -84t79 -31t80 32q32 30 31 83v109h146v-109q0 -111 -73 -173t-185 -62t-183 62q-72 62 -71 173v572q0 111 71 174q72 63 183 63q110 0 184 -63t74 -174v-332zM418 1143
l-266 225l84 86l268 -225z" />
    <glyph glyph-name="afii10071" unicode="&#x451;" 
d="M217 797v-213h221v213q0 57 -30 87q-31 30 -80 30t-80 -30t-31 -87zM584 465h-367v-240q0 -53 31 -84t79 -31t80 32q32 30 31 83v109h146v-109q0 -111 -73 -173t-185 -62t-183 62q-72 62 -71 173v572q0 111 71 174q72 63 183 63q110 0 184 -63t74 -174v-332zM414 1202
v207h125v-207h-125zM117 1202v207h125v-207h-125z" />
    <glyph glyph-name="afii10099" unicode="&#x452;" horiz-adv-x="716" 
d="M500 -260v1085q0 41 -25 65t-71 24t-86 -40q-40 -39 -39 -106v-768h-146v1186h-92v121h92v178h146v-178h251v-121h-251v-258q78 106 200 106q70 0 118 -47t48 -125v-1122q0 -96 -65 -154q-66 -57 -164 -57t-165 57t-67 154v113h146v-113q0 -41 24 -66q24 -24 62 -24
q36 0 60 24t24 66z" />
    <glyph glyph-name="afii10100" unicode="&#x453;" horiz-adv-x="557" 
d="M86 0v1024h432v-119h-287v-905h-145zM188 1143l-84 86l267 225l84 -84z" />
    <glyph glyph-name="afii10101" unicode="&#x454;" 
d="M471 465h-254v-240q0 -53 31 -84t79 -31t80 32q32 30 31 83v109h146v-109q0 -111 -73 -173t-185 -62t-183 62q-72 62 -71 173v572q0 111 71 174q72 63 183 63q110 0 184 -63t74 -174v-107h-146v107q0 57 -30 87q-31 30 -80 30t-80 -30t-31 -87v-213h254v-119z" />
    <glyph glyph-name="afii10102" unicode="&#x455;" horiz-adv-x="645" 
d="M72 334h145v-113q0 -51 30 -81t76 -30q45 0 75 30t30 81v129q0 80 -126 119q-52 16 -103 39t-88 71t-37 121v105q0 106 70 168q72 61 178 61t178 -61t71 -168v-115h-145v115q0 51 -30 80t-74 29t-74 -30q-29 -28 -29 -79v-105q0 -79 125 -118q51 -16 103 -39
q51 -23 89 -71t37 -122v-129q1 -109 -71 -170t-180 -61t-180 61q-71 61 -70 170v113z" />
    <glyph glyph-name="afii10103" unicode="&#x456;" horiz-adv-x="317" 
d="M86 1227v207h145v-207h-145zM86 0v1024h145v-1024h-145z" />
    <glyph glyph-name="afii10104" unicode="&#x457;" horiz-adv-x="317" 
d="M86 0v1024h145v-1024h-145zM246 1202v207h125v-207h-125zM-51 1202v207h125v-207h-125z" />
    <glyph glyph-name="afii10105" unicode="&#x458;" horiz-adv-x="317" 
d="M86 1227v207h145v-207h-145zM-17 -350q43 0 73 26t30 74v1274h145v-1274q0 -102 -67 -162q-68 -59 -166 -59q-47 0 -90 14v119q31 -12 75 -12z" />
    <glyph glyph-name="afii10106" unicode="&#x459;" horiz-adv-x="1048" 
d="M621 119h100q47 0 79 32t31 87v122q0 53 -31 84q-32 31 -79 31h-100v-356zM41 -10v121q41 0 69 43t27 116v754h484v-430h100q111 0 183 -62t73 -172v-122q0 -110 -73 -174t-183 -64h-246v905h-192v-635q0 -128 -69 -204t-173 -76z" />
    <glyph glyph-name="afii10107" unicode="&#x45a;" horiz-adv-x="1028" 
d="M600 119h98q49 0 81 32t32 87v122q0 53 -32 84t-81 31h-98v-356zM86 0v1024h145v-430h224v430h145v-430h98q111 0 185 -62t73 -172v-122q0 -111 -73 -175q-74 -63 -185 -63h-243v475h-224v-475h-145z" />
    <glyph glyph-name="afii10108" unicode="&#x45b;" horiz-adv-x="716" 
d="M41 1186v121h92v178h146v-178h251v-121h-251v-258q78 106 200 106q70 0 118 -47t48 -125v-862h-145v825q0 41 -25 65t-71 24t-86 -40q-40 -39 -39 -106v-768h-146v1186h-92z" />
    <glyph glyph-name="afii10109" unicode="&#x45c;" 
d="M86 0v1024h145v-440h76l162 440h152l-205 -498l211 -526h-152l-168 469h-76v-469h-145zM236 1143l-84 86l266 225l84 -84z" />
    <glyph glyph-name="uni045D" unicode="&#x45d;" horiz-adv-x="690" 
d="M86 0v1024h141v-662h2l234 611v51h141v-1024h-141v662h-2l-234 -611v-51h-141zM436 1143l-266 225l84 86l268 -225z" />
    <glyph glyph-name="afii10110" unicode="&#x45e;" horiz-adv-x="645" 
d="M66 -410v119h71q68 0 88 84l45 207h-43l-200 1024h149l143 -897h5l145 897h149l-245 -1233q-39 -201 -236 -201h-71zM121 1335h102q0 -49 29 -77t72 -28q44 0 72 28t28 77h102q0 -90 -58 -142t-145 -52t-145 52q-57 52 -57 142z" />
    <glyph glyph-name="afii10193" unicode="&#x45f;" horiz-adv-x="686" 
d="M86 0v1024h145v-905h224v905h145v-1024h-184v-256h-146v256h-184z" />
    <glyph glyph-name="afii10050" unicode="&#x490;" horiz-adv-x="571" 
d="M86 0v1434h328v206h118v-325h-301v-1315h-145z" />
    <glyph glyph-name="afii10098" unicode="&#x491;" horiz-adv-x="557" 
d="M86 0v1024h311v205h121v-324h-287v-905h-145z" />
    <glyph glyph-name="uni04D8" unicode="&#x4d8;" horiz-adv-x="645" 
d="M217 221q0 -51 30 -81t76 -29q45 -1 75 29t30 81v438h-211v-438zM72 221v557h356v432q0 51 -30 82t-74 31t-76 -31q-31 -31 -31 -82v-186h-145v186q0 109 71 171q72 63 181 63q110 0 180 -62t69 -172v-989q-1 -109 -71 -170t-178 -61t-181 61q-71 61 -71 170z" />
    <glyph glyph-name="afii10846" unicode="&#x4d9;" 
d="M438 227v238h-221v-238q0 -57 31 -87t80 -30t80 30q30 30 30 87zM72 584h366v215q0 53 -31 84q-32 31 -79 31t-79 -32q-32 -30 -32 -83v-92h-145v92q0 111 72 173q73 62 184 62q112 0 184 -62t72 -173v-572q0 -111 -73 -174t-183 -63t-184 63q-73 63 -72 174v357z" />
    <glyph glyph-name="Wgrave" unicode="&#x1e80;" horiz-adv-x="1095" 
d="M637 1552l-266 226l84 86l268 -226zM227 0l-200 1434h151l139 -1274h5l131 1274h188l131 -1274h4l139 1274h152l-201 -1434h-192l-125 1260h-4l-125 -1260h-193z" />
    <glyph glyph-name="wgrave" unicode="&#x1e81;" horiz-adv-x="1048" 
d="M614 1143l-266 225l84 86l268 -225zM213 0l-186 1024h149l131 -895h4l121 895h184l119 -895h4l131 895h150l-186 -1024h-191l-117 881h-4l-119 -881h-190z" />
    <glyph glyph-name="Wacute" unicode="&#x1e82;" horiz-adv-x="1095" 
d="M457 1552l-84 86l266 226l84 -84zM227 0l-200 1434h151l139 -1274h5l131 1274h188l131 -1274h4l139 1274h152l-201 -1434h-192l-125 1260h-4l-125 -1260h-193z" />
    <glyph glyph-name="wacute" unicode="&#x1e83;" horiz-adv-x="1048" 
d="M432 1143l-84 86l266 225l84 -84zM213 0l-186 1024h149l131 -895h4l121 895h184l119 -895h4l131 895h150l-186 -1024h-191l-117 881h-4l-119 -881h-190z" />
    <glyph glyph-name="Wdieresis" unicode="&#x1e84;" horiz-adv-x="1095" 
d="M633 1612v207h125v-207h-125zM336 1612v207h125v-207h-125zM227 0l-200 1434h151l139 -1274h5l131 1274h188l131 -1274h4l139 1274h152l-201 -1434h-192l-125 1260h-4l-125 -1260h-193z" />
    <glyph glyph-name="wdieresis" unicode="&#x1e85;" horiz-adv-x="1048" 
d="M608 1202v207h125v-207h-125zM311 1202v207h125v-207h-125zM213 0l-186 1024h149l131 -895h4l121 895h184l119 -895h4l131 895h150l-186 -1024h-191l-117 881h-4l-119 -881h-190z" />
    <glyph glyph-name="Ygrave" unicode="&#x1ef2;" horiz-adv-x="645" 
d="M414 1552l-267 226l84 86l269 -226zM248 0v459l-221 975h145l147 -744h5l149 744h145l-225 -975v-459h-145z" />
    <glyph glyph-name="ygrave" unicode="&#x1ef3;" horiz-adv-x="665" 
d="M424 1143l-266 225l84 86l268 -225zM72 -156h145v-77q0 -53 32 -85t79 -32t79 31t31 83v332q-78 -106 -200 -106q-70 0 -118 47t-48 125v862h145v-825q0 -41 24 -65q23 -24 71 -24t87 40q39 39 39 106v768h146v-1257q0 -111 -73 -175t-183 -63q-110 0 -184 63
q-73 63 -72 175v77z" />
    <glyph glyph-name="figuredash" unicode="&#x2012;" horiz-adv-x="624" 
d="M55 578v118h514v-118h-514z" />
    <glyph glyph-name="endash" unicode="&#x2013;" horiz-adv-x="686" 
d="M55 506v119h576v-119h-576z" />
    <glyph glyph-name="emdash" unicode="&#x2014;" horiz-adv-x="1052" 
d="M55 506v119h942v-119h-942z" />
    <glyph glyph-name="quoteleft" unicode="&#x2018;" horiz-adv-x="303" 
d="M221 1233v-205h-139v205q0 53 18 115t39 100l19 37h118q-55 -133 -55 -252z" />
    <glyph glyph-name="quoteright" unicode="&#x2019;" horiz-adv-x="303" 
d="M82 1278v207h139v-207q0 -52 -19 -114t-38 -99l-21 -37h-118q57 133 57 250z" />
    <glyph glyph-name="quotesinglbase" unicode="&#x201a;" horiz-adv-x="303" 
d="M82 0v205h139v-205q0 -54 -19 -116t-38 -99l-21 -37h-118q57 133 57 252z" />
    <glyph glyph-name="quotedblleft" unicode="&#x201c;" horiz-adv-x="534" 
d="M463 1233v-205h-139v205q0 53 18 115t39 100l18 37h121q-57 -133 -57 -252zM221 1233v-205h-139v205q0 53 18 115t39 100l19 37h118q-55 -133 -55 -252z" />
    <glyph glyph-name="quotedblright" unicode="&#x201d;" horiz-adv-x="534" 
d="M324 1485h139v-207q-1 -52 -19 -114t-38 -99l-19 -37h-121q57 133 58 250v207zM82 1278v207h139v-207q0 -52 -19 -114t-38 -99l-21 -37h-118q57 133 57 250z" />
    <glyph glyph-name="quotedblbase" unicode="&#x201e;" horiz-adv-x="534" 
d="M324 205h139v-205q-1 -54 -19 -116t-38 -99l-19 -37h-121q57 133 58 252v205zM82 0v205h139v-205q0 -54 -19 -116t-38 -99l-21 -37h-118q57 133 57 252z" />
    <glyph glyph-name="dagger" unicode="&#x2020;" horiz-adv-x="593" 
d="M35 952v119h190v363h146v-363h188v-119h-188v-952h-146v952h-190z" />
    <glyph glyph-name="daggerdbl" unicode="&#x2021;" horiz-adv-x="593" 
d="M559 481v-119h-188v-362h-146v362h-190v119h190v471h-190v119h190v363h146v-363h188v-119h-188v-471h188z" />
    <glyph glyph-name="bullet" unicode="&#x2022;" horiz-adv-x="532" 
d="M76 430v369h381v-369h-381z" />
    <glyph glyph-name="ellipsis" unicode="&#x2026;" horiz-adv-x="817" 
d="M596 0v205h139v-205h-139zM338 0v205h141v-205h-141zM82 0v205h139v-205h-139z" />
    <glyph glyph-name="perthousand" unicode="&#x2030;" horiz-adv-x="1513" 
d="M1141 428v-244q-1 -50 27 -76t69 -26t70 27t28 75v244q0 47 -28 76q-29 28 -70 28t-69 -28q-27 -29 -27 -76zM1042 184v244q0 90 56 143t138 53q83 0 140 -52q57 -54 58 -144v-244q0 -90 -56 -142t-141 -52q-83 0 -139 52t-56 142zM664 428v-244q0 -50 28 -76t68 -26
q42 0 70 27t28 75v244q0 47 -29 76q-29 28 -69 28t-69 -28q-27 -29 -27 -76zM565 184v244q-1 90 55 143t139 53t140 -52q57 -54 57 -144v-244q0 -90 -56 -142t-140 -52t-140 52t-55 142zM180 1247v-243q0 -49 27 -76t69 -27t69 27q28 27 28 76v243q0 47 -29 76t-69 29
q-39 0 -67 -29t-28 -76zM82 1004v243q0 89 54 143t137 54t141 -53t57 -144v-243q0 -90 -56 -142q-57 -52 -141 -53q-84 1 -138 53t-54 142zM190 0l545 1434h113l-547 -1434h-111z" />
    <glyph glyph-name="guilsinglleft" unicode="&#x2039;" horiz-adv-x="385" 
d="M338 870l-135 -358l135 -358h-150l-133 358l133 358h150z" />
    <glyph glyph-name="guilsinglright" unicode="&#x203a;" horiz-adv-x="385" 
d="M45 154l137 358l-137 358h152l131 -358l-131 -358h-152z" />
    <glyph glyph-name="fraction" unicode="&#x2044;" horiz-adv-x="804" 
d="M55 0l547 1434h148l-547 -1434h-148z" />
    <glyph glyph-name="Euro" unicode="&#x20ac;" horiz-adv-x="696" 
d="M45 793v118h78v299q0 109 71 171q72 63 180 63t180 -62t71 -172v-186h-146v186q0 51 -30 82q-31 31 -76 31t-75 -31t-30 -82v-299h357v-118h-357v-138h357v-118h-357v-316q0 -51 30 -81t76 -30t76 30t29 81v189h146v-189q0 -109 -72 -170q-73 -61 -181 -61t-178 61
t-71 170v316h-78v118h78v138h-78z" />
    <glyph glyph-name="uni20B4" unicode="&#x20b4;" 
d="M61 786v119h345q31 57 30 119v184q0 53 -30 84q-31 31 -78 31t-78 -31t-31 -84v-184h-145v184q0 111 72 173q73 63 183 63q109 0 181 -62t72 -174v-184q0 -63 -23 -119h35v-119h-113q-20 -25 -135 -133h248v-118h-344q-33 -59 -33 -125v-185q0 -53 32 -84t79 -31t79 32
q32 30 31 83v185h146v-185q0 -111 -73 -173t-183 -62t-184 62q-73 62 -72 173v185q0 70 24 125h-35v118h115q25 27 74 73t63 60h-252z" />
    <glyph glyph-name="afii61352" unicode="&#x2116;" horiz-adv-x="1171" 
d="M799 1247v-143q-1 -47 27 -75t69 -28t69 28t27 75v143q0 47 -27 76q-28 29 -69 29t-69 -29t-27 -76zM700 1104v143q0 89 56 143t138 54q83 0 139 -53t57 -144v-143q0 -88 -56 -140t-140 -52q-82 0 -138 50q-56 52 -56 142zM86 0v1434h121l252 -969h4v969h141v-1434h-121
l-252 969h-4v-969h-141z" />
    <glyph glyph-name="trademark" unicode="&#x2122;" horiz-adv-x="536" 
d="M350 922v532h121l86 -428h2l88 428h123v-532h-76v438h-2l-86 -438h-92l-86 438h-2v-438h-76zM37 1389v65h266v-65h-92v-467h-82v467h-92z" />
    <glyph glyph-name="arrowleft" unicode="&#x2190;" horiz-adv-x="2236" 
d="M2081 791v-146h-1700l551 -549l-103 -102l-725 725l725 723l101 -103l-549 -548h1700z" />
    <glyph glyph-name="arrowup" unicode="&#x2191;" horiz-adv-x="1656" 
d="M756 -432v1700l-549 -551l-103 104l725 725l723 -725l-102 -102l-549 549v-1700h-145z" />
    <glyph glyph-name="arrowright" unicode="&#x2192;" horiz-adv-x="2236" 
d="M156 645v146h1699l-550 548l102 103l725 -723l-725 -725l-102 102l550 549h-1699z" />
    <glyph glyph-name="arrowdown" unicode="&#x2193;" horiz-adv-x="1656" 
d="M756 1536h145v-1700l549 549l102 -102l-723 -725l-725 725l103 104l549 -551v1700z" />
    <glyph glyph-name="uni2196" unicode="&#x2196;" horiz-adv-x="1708" 
d="M156 410v1024h1024v-146h-779l1203 -1200l-103 -104l-1200 1202v-776h-145z" />
    <glyph glyph-name="uni2197" unicode="&#x2197;" horiz-adv-x="1708" 
d="M528 1288v146h1024v-1024h-145v776l-1200 -1202l-103 104l1201 1200h-777z" />
    <glyph glyph-name="uni2198" unicode="&#x2198;" horiz-adv-x="1708" 
d="M528 0v145h777l-1201 1201l103 104l1200 -1202v776h145v-1024h-1024z" />
    <glyph glyph-name="uni2199" unicode="&#x2199;" horiz-adv-x="1708" 
d="M156 0v1024h145v-776l1200 1202l103 -104l-1203 -1201h779v-145h-1024z" />
    <glyph glyph-name="minus" unicode="&#x2212;" horiz-adv-x="686" 
d="M55 578v118h576v-118h-576z" />
    <glyph glyph-name="commaaccent" unicode="&#xf6c3;" horiz-adv-x="270" 
d="M201 -215q0 -86 -58 -211h-102q41 123 41 211v154h119v-154z" />
    <glyph glyph-name="dollaroldstyle" unicode="&#xf724;" horiz-adv-x="645" 
d="M248 -205v207q-80 16 -128 72t-48 147v113h145v-113q0 -51 30 -81t76 -30q45 0 75 30t30 81v129q0 80 -126 119q-52 16 -103 39t-88 71t-37 121v105q0 86 48 142t126 73v209h145v-207q78 -16 128 -72t50 -145v-115h-145v115q0 51 -30 80t-74 29t-74 -30q-29 -28 -29 -79
v-105q0 -79 125 -118q51 -16 103 -39q51 -23 89 -71t37 -122v-129q0 -88 -50 -145t-130 -74v-207h-145z" />
    <glyph glyph-name="zerooldstyle" unicode="&#xf730;" 
d="M217 797v-572q0 -53 31 -84t79 -31t80 32q32 30 31 83v572q0 53 -31 85q-32 32 -80 32t-79 -32t-31 -85zM326 1034q110 0 184 -63t74 -174v-572q0 -111 -73 -173t-185 -62t-183 62q-72 62 -71 173v572q0 111 71 174q72 63 183 63z" />
    <glyph glyph-name="oneoldstyle" unicode="&#xf731;" horiz-adv-x="456" 
d="M371 1024v-1024h-146v887l-184 -113v137l184 113h146z" />
    <glyph glyph-name="twooldstyle" unicode="&#xf732;" horiz-adv-x="647" 
d="M72 0v186q0 84 37 142t89 92t105 62q127 68 127 175v140q0 53 -32 85t-79 32t-77 -30t-31 -81v-113h-145v113q0 109 71 170t181 61t184 -63t73 -174v-140q-1 -84 -37 -142t-88 -91t-106 -62q-128 -69 -127 -176v-67h358v-119h-503z" />
    <glyph glyph-name="threeoldstyle" unicode="&#xf733;" horiz-adv-x="647" 
d="M217 -111q0 -53 31 -83t77 -29q47 0 79 32t32 85v317q0 53 -33 84t-79 31h-105v120h98q49 0 81 31t32 84v236q0 53 -32 85t-79 32t-77 -30t-31 -81v-113h-145v113q0 109 71 170t181 61t184 -63t73 -174v-199q0 -156 -137 -211q143 -55 144 -213v-280q0 -108 -74 -172
t-184 -64t-181 62q-72 62 -71 169v111h145v-111z" />
    <glyph glyph-name="fouroldstyle" unicode="&#xf734;" horiz-adv-x="647" 
d="M414 119v749h-4l-236 -749h240zM41 0v119l291 905h223v-905h49v-119h-49v-307h-141v307h-373z" />
    <glyph glyph-name="fiveoldstyle" unicode="&#xf735;" 
d="M217 299h-145v725h501v-119h-356v-467q76 106 201 107q70 0 118 -46t48 -126v-482q0 -109 -74 -171t-184 -62t-183 62q-72 62 -71 171v109h145v-109q0 -51 31 -83t79 -31t80 31t31 83v445q0 42 -24 66t-70 24q-45 0 -86 -39t-41 -88z" />
    <glyph glyph-name="sixoldstyle" unicode="&#xf736;" 
d="M217 573v-348q0 -53 31 -84t79 -31t80 32q32 30 31 83v406q0 41 -24 65t-72 23q-47 0 -86 -39t-39 -107zM434 1159q0 53 -30 83t-77 30q-46 0 -78 -32t-32 -85v-422q78 106 201 107q70 0 118 -47t48 -125v-443q0 -111 -73 -173t-185 -62t-183 62q-72 62 -71 173v930
q0 111 72 174q73 63 183 63q109 0 181 -62t72 -171v-110h-146v110z" />
    <glyph glyph-name="sevenoldstyle" unicode="&#xf737;" horiz-adv-x="614" 
d="M55 905v119h504v-72l-270 -1259h-148l262 1212h-348z" />
    <glyph glyph-name="eightoldstyle" unicode="&#xf738;" 
d="M217 528v-303q0 -53 31 -84t79 -31t80 32q32 30 31 83v303q0 53 -31 85q-32 32 -80 32t-79 -32t-31 -85zM217 1155v-274q0 -53 31 -85t79 -32t80 32t31 85v274q0 53 -31 85q-32 32 -80 32t-79 -32t-31 -85zM326 1393q110 1 184 -63t74 -175v-244q0 -145 -125 -204
q125 -63 125 -207v-275q0 -111 -73 -173t-185 -62t-183 62q-72 62 -71 173v275q0 145 123 207q-123 57 -123 204v244q0 111 72 175t182 63z" />
    <glyph glyph-name="nineoldstyle" unicode="&#xf739;" 
d="M438 449v350q0 53 -31 84q-32 31 -79 31t-79 -32q-32 -30 -32 -83v-406q0 -41 24 -65q23 -24 71 -25q48 0 87 40t39 106zM217 -109q0 -53 31 -83t78 -31q47 0 80 33t32 86v395q-76 -106 -200 -107q-70 0 -118 46t-48 126v443q0 111 72 173q73 62 184 62q112 0 184 -62
t72 -173v-903q0 -110 -74 -174t-184 -64t-183 62q-72 62 -71 171v109h145v-109z" />
    <glyph glyph-name="afii10019.smcp" horiz-adv-x="659" 
d="M231 614h101q47 0 80 32t32 85v96q0 55 -32 87q-33 32 -80 32h-101v-332zM338 496h-107v-377h107q47 0 79 32t32 87v143q0 53 -32 84t-79 31zM86 0v1065h246q110 1 184 -63t74 -175v-61q0 -154 -137 -209q141 -55 141 -213v-106q0 -110 -73 -174t-183 -64h-252z" />
    <glyph glyph-name="afii10020.smcp" horiz-adv-x="573" 
d="M86 0v1065h446v-119h-301v-946h-145z" />
    <glyph glyph-name="afii10021.smcp" horiz-adv-x="784" 
d="M309 281q0 -100 -45 -162h236v827h-191v-665zM41 -258v377h25q42 0 70 43t28 119v784h481v-946h98v-377h-145v258h-412v-258h-145z" />
    <glyph glyph-name="afii10022.smcp" horiz-adv-x="624" 
d="M86 0v1065h467v-119h-322v-336h281v-118h-281v-373h322v-119h-467z" />
    <glyph glyph-name="afii10023.smcp" horiz-adv-x="624" 
d="M86 0v1065h467v-119h-322v-336h281v-118h-281v-373h322v-119h-467zM408 1202v207h124v-207h-124zM111 1202v207h125v-207h-125z" />
    <glyph glyph-name="afii10024.smcp" horiz-adv-x="993" 
d="M424 604v461h145v-461h76l160 461h151l-204 -518l213 -547h-152l-168 489h-76v-489h-145v489h-76l-168 -489h-151l211 547l-205 518h151l162 -461h76z" />
    <glyph glyph-name="afii10025.smcp" horiz-adv-x="647" 
d="M217 223q0 -51 31 -81t77 -31q47 -1 79 31t32 85v154q0 51 -33 83t-79 32h-111v118h104q49 0 81 32t32 85v107q0 53 -32 85q-32 31 -79 31t-77 -30t-31 -80v-113h-145v113q0 109 71 170t181 61t184 -63t73 -174v-72q0 -154 -137 -209q143 -55 144 -213v-117
q0 -111 -74 -174t-184 -63t-181 62q-72 62 -71 171v111h145v-111z" />
    <glyph glyph-name="afii10026.smcp" horiz-adv-x="690" 
d="M86 0v1065h141v-692h2l234 641v51h141v-1065h-141v692h-2l-234 -641v-51h-141z" />
    <glyph glyph-name="afii10027.smcp" horiz-adv-x="690" 
d="M86 0v1065h141v-692h2l234 641v51h141v-1065h-141v692h-2l-234 -641v-51h-141zM143 1335h103q0 -49 28 -77t72 -28q43 0 72 28t28 77h103q-1 -90 -59 -142t-145 -52t-145 52t-57 142z" />
    <glyph glyph-name="afii10028.smcp" 
d="M86 0v1065h145v-461h76l162 461h152l-205 -518l211 -547h-152l-168 489h-76v-489h-145z" />
    <glyph glyph-name="afii10029.smcp" horiz-adv-x="706" 
d="M137 270v795h484v-1065h-146v946h-192v-676q0 -128 -69 -204t-173 -76v121q41 1 69 43t27 116z" />
    <glyph glyph-name="afii10030.smcp" horiz-adv-x="978" 
d="M86 0v1065h215l184 -881h4l189 881h215v-1065h-135v895h-4l-185 -895h-161l-183 895h-4v-895h-135z" />
    <glyph glyph-name="afii10031.smcp" horiz-adv-x="686" 
d="M86 0v1065h145v-455h224v455h145v-1065h-145v492h-224v-492h-145z" />
    <glyph glyph-name="afii10032.smcp" 
d="M217 838v-613q0 -53 31 -84t79 -31t80 32q32 30 31 83v613q0 53 -31 85q-32 31 -80 31t-79 -32t-31 -84zM326 1075q110 0 184 -63t74 -174v-613q0 -111 -73 -173t-185 -62t-183 62q-72 62 -71 173v613q0 111 71 174q72 63 183 63z" />
    <glyph glyph-name="afii10033.smcp" horiz-adv-x="686" 
d="M86 0v1065h514v-1065h-145v946h-224v-946h-145z" />
    <glyph glyph-name="afii10034.smcp" horiz-adv-x="659" 
d="M231 512h101q47 0 80 32t32 85v198q0 55 -32 87q-33 32 -80 32h-101v-434zM86 0v1065h246q110 1 184 -63t74 -175v-198q0 -111 -74 -173t-184 -63h-101v-393h-145z" />
    <glyph glyph-name="afii10018.smcp" horiz-adv-x="659" 
d="M332 563h-101v-444h101q47 0 80 32t32 87v208q0 53 -32 85q-33 32 -80 32zM86 0v1065h477v-119h-332v-264h101q110 0 184 -62t74 -174v-208q0 -110 -74 -174t-184 -64h-246z" />
    <glyph glyph-name="afii10036.smcp" horiz-adv-x="593" 
d="M35 946v119h524v-119h-188v-946h-146v946h-190z" />
    <glyph glyph-name="afii10037.smcp" horiz-adv-x="616" 
d="M80 0v119h72q68 0 88 84l16 73h-43l-186 789h149l129 -662h4l131 662h150l-203 -864q-45 -201 -235 -201h-72z" />
    <glyph glyph-name="afii10038.smcp" horiz-adv-x="952" 
d="M625 772h-76v-479h76q47 0 79 33t31 86v243q1 53 -31 85t-79 32zM403 772h-75q-47 0 -79 -32t-32 -85v-243q0 -53 32 -86t79 -33h75v479zM549 1065v-174h76q111 -1 183 -63t73 -173v-243q0 -111 -73 -174t-183 -64h-76v-174h-146v174h-75q-111 0 -184 64t-72 174v243
q0 111 72 173q73 62 184 63h75v174h146z" />
    <glyph glyph-name="afii10039.smcp" 
d="M29 0l202 547l-196 518h151l138 -438h4l141 438h152l-197 -518l203 -547h-152l-147 471h-4l-144 -471h-151z" />
    <glyph glyph-name="afii10040.smcp" horiz-adv-x="737" 
d="M551 -258v258h-465v1065h145v-946h224v946h145v-946h96v-377h-145z" />
    <glyph glyph-name="afii10041.smcp" horiz-adv-x="669" 
d="M438 659v406h146v-1065h-146v500q-76 -104 -200 -105q-70 0 -118 46t-48 126v498h145v-463q0 -40 24 -64q23 -24 71 -24t87 40t39 105z" />
    <glyph glyph-name="afii10042.smcp" horiz-adv-x="1032" 
d="M86 0v1065h145v-946h213v946h146v-946h211v946h145v-1065h-860z" />
    <glyph glyph-name="afii10043.smcp" horiz-adv-x="1085" 
d="M86 0v1065h145v-946h213v946h146v-946h211v946h145v-946h98v-375h-145v256h-813z" />
    <glyph glyph-name="afii10044.smcp" horiz-adv-x="798" 
d="M371 119h98q49 0 81 32t32 87v208q0 53 -32 85t-81 32h-98v-444zM225 0v946h-184v119h330v-383h98q113 0 185 -62t73 -174v-208q0 -110 -74 -174t-184 -64h-244z" />
    <glyph glyph-name="afii10045.smcp" horiz-adv-x="927" 
d="M696 0v1065h146v-1065h-146zM332 563h-101v-444h101q47 0 80 32t32 87v208q0 53 -32 85q-33 32 -80 32zM86 0v1065h145v-383h101q110 0 184 -62t74 -174v-208q0 -110 -74 -174t-184 -64h-246z" />
    <glyph glyph-name="afii10046.smcp" horiz-adv-x="659" 
d="M332 563h-101v-444h101q47 0 80 32t32 87v208q0 53 -32 85q-33 32 -80 32zM86 0v1065h145v-383h101q110 0 184 -62t74 -174v-208q0 -110 -74 -174t-184 -64h-246z" />
    <glyph glyph-name="afii10047.smcp" 
d="M438 485h-239v119h239v234q0 57 -30 87q-31 29 -80 29t-80 -30t-31 -86v-107h-145v107q0 111 72 174q73 63 184 63q112 0 184 -63t72 -174v-613q0 -111 -73 -173t-183 -62t-184 62q-73 62 -72 173v109h145v-109q0 -53 32 -84t79 -31t79 32q32 30 31 83v260z" />
    <glyph glyph-name="afii10048.smcp" horiz-adv-x="948" 
d="M510 838v-613q0 -53 31 -84t77 -31t80 32q33 30 33 83v613q0 53 -33 85q-33 31 -80 31q-48 0 -78 -32t-30 -84zM86 0v1065h145v-461h134v234q0 111 71 174q72 63 182 63t185 -63q74 -63 74 -174v-613q0 -111 -74 -173t-185 -62q-110 0 -182 62t-71 173v260h-134v-485
h-145z" />
    <glyph glyph-name="afii10049.smcp" horiz-adv-x="659" 
d="M328 543h100v403h-100q-47 0 -79 -32t-32 -87v-168q0 -53 32 -85t79 -31zM72 659v168q0 111 72 174q73 63 184 64h245v-1065h-145v424h-96l-133 -424h-148l166 449q-65 20 -105 75t-40 135z" />
    <glyph glyph-name="afii10050.smcp" horiz-adv-x="571" 
d="M86 0v1065h328v207h118v-326h-301v-946h-145z" />
    <glyph glyph-name="afii10051.smcp" horiz-adv-x="808" 
d="M592 -260v747q0 41 -25 65t-71 24t-86 -40q-39 -38 -39 -106v-430h-146v946h-190v119h524v-119h-188v-356q78 106 200 106q70 0 118 -47t48 -125v-784q0 -96 -65 -154q-66 -57 -164 -57t-165 57t-67 154v113h146v-113q0 -41 24 -66q24 -24 62 -24q36 0 60 24t24 66z" />
    <glyph glyph-name="afii10052.smcp" horiz-adv-x="573" 
d="M86 0v1065h446v-119h-301v-946h-145zM221 1143l-84 86l266 225l84 -84z" />
    <glyph glyph-name="afii10017.smcp" horiz-adv-x="645" 
d="M319 938l-86 -532h177l-86 532h-5zM418 1065l200 -1065h-149l-47 285h-203l-45 -285h-149l200 1065h193z" />
    <glyph glyph-name="six.fitted.smcp" 
d="M217 379v-154q0 -53 31 -84t79 -31t80 32q32 30 31 83v211q0 41 -24 65q-25 23 -72 23t-86 -38t-39 -107zM434 842q0 52 -30 82t-77 30q-46 0 -78 -32t-32 -84v-299q78 106 201 106q70 0 118 -47t48 -125v-248q0 -111 -73 -173t-185 -62t-183 62q-72 62 -71 173v613
q0 111 72 174q73 63 183 63q109 0 181 -62t72 -171v-111h-146v111z" />
    <glyph glyph-name="IJ.smcp" horiz-adv-x="659" 
d="M86 502v563h145v-563h-145zM86 358h145v-135q0 -51 31 -82t77 -31t76 32q30 30 29 81v842h146v-842q0 -109 -72 -171t-179 -62t-180 62t-73 171v135z" />
    <glyph glyph-name="J.smcp" horiz-adv-x="645" 
d="M72 358h145v-135q0 -51 31 -82t76 -31q44 0 74 32q30 30 30 81v842h145v-842q-1 -109 -71 -171t-178 -62t-181 62q-72 62 -71 171v135z" />
    <glyph glyph-name="K.smcp" 
d="M86 0v1065h145v-461h76l162 461h152l-205 -518l211 -547h-152l-168 489h-76v-489h-145z" />
    <glyph glyph-name="L.smcp" horiz-adv-x="583" 
d="M86 0v1065h145v-946h312v-119h-457z" />
    <glyph glyph-name="afii10035.smcp" horiz-adv-x="645" 
d="M217 842v-621q0 -51 30 -81t76 -30q45 0 75 30t30 81v113h145v-113q1 -109 -71 -170t-180 -61t-180 61q-71 61 -70 170v621q0 109 70 171q71 62 180 62q108 0 180 -62t71 -171v-111h-145v111q0 51 -30 82q-30 30 -76 30t-75 -30q-30 -30 -30 -82z" />
    <glyph glyph-name="afii10062.smcp" horiz-adv-x="616" 
d="M80 0v119h72q68 0 88 84l16 73h-43l-186 789h149l129 -662h4l131 662h150l-203 -864q-45 -201 -235 -201h-72zM106 1335h103q0 -49 29 -77q30 -28 72 -28t71 28t29 77h102q0 -90 -58 -142t-146 -52t-144 52q-58 52 -58 142z" />
    <glyph glyph-name="afii10145.smcp" horiz-adv-x="686" 
d="M86 0v1065h145v-946h224v946h145v-1065h-184v-256h-146v256h-184z" />
    <glyph glyph-name="uni0400.smcp" horiz-adv-x="624" 
d="M86 0v1065h467v-119h-322v-336h281v-118h-281v-373h322v-119h-467zM412 1143l-267 225l84 86l269 -225z" />
    <glyph glyph-name="uni040D.smcp" horiz-adv-x="690" 
d="M86 0v1065h141v-692h2l234 641v51h141v-1065h-141v692h-2l-234 -641v-51h-141zM438 1143l-266 225l84 86l268 -225z" />
    <glyph glyph-name="uni04D8.smcp" horiz-adv-x="645" 
d="M217 221q0 -51 30 -81t76 -29q45 -1 75 29t30 81v254h-211v-254zM72 221v373h356v248q0 51 -30 82q-30 30 -74 30t-76 -30q-31 -30 -31 -82v-111h-145v111q0 109 71 171q72 62 181 62q110 0 180 -62t69 -171v-621q-1 -109 -71 -170t-178 -61t-181 61q-71 61 -71 170z" />
    <glyph glyph-name="quoteright_afii10056.smcp" horiz-adv-x="518" 
d="M449 1202v207h124v-207h-124zM287 0v1065h145v-1065h-145zM82 1278v207h139v-207q0 -52 -19 -114t-38 -99l-21 -37h-118q57 133 57 250z" />
    <glyph glyph-name="afii10056_afii10056.smcp" horiz-adv-x="647" 
d="M578 1202v207h124v-207h-124zM416 0v1065h145v-1065h-145zM262 1202v207h125v-207h-125zM-51 1202v207h125v-207h-125zM86 0v1065h145v-1065h-145z" />
    <glyph glyph-name="five.fitted.smcp" 
d="M217 492h-145v573h501v-119h-356v-315q78 106 201 106q70 0 118 -47t48 -125v-340q0 -111 -73 -173t-185 -62t-183 62q-72 62 -71 173v109h145v-109q0 -53 31 -84t79 -31t80 32q32 30 31 83v303q0 41 -24 65q-25 23 -70 23t-86 -38t-41 -86z" />
    <glyph glyph-name="four.fitted.smcp" 
d="M424 319v590h-4l-246 -590h250zM41 199v120l301 746h223v-746h49v-120h-49v-199h-141v199h-383z" />
    <glyph glyph-name="three.fitted.smcp" 
d="M326 111q47 -1 80 31t32 85v144q0 51 -32 83q-33 32 -80 31h-105v119h98q47 0 80 39t33 92v103q0 53 -32 85q-32 31 -79 31t-77 -30t-31 -80v-113h-145v113q0 109 71 170t181 61t184 -63t74 -174v-82q0 -154 -138 -209q143 -55 144 -213v-107q0 -111 -74 -174t-184 -63
t-181 62q-72 62 -71 171v111h145v-111q0 -51 30 -81t77 -31z" />
    <glyph glyph-name="two.fitted.smcp" 
d="M74 0v207q0 84 37 142t90 91t106 62q127 69 127 176v160q0 53 -32 85q-32 31 -78 31t-78 -30q-31 -30 -31 -80v-113h-145v113q0 109 71 170q72 61 182 61q109 0 183 -63t74 -174v-160q0 -153 -127 -234q-53 -34 -107 -62q-128 -68 -127 -175v-88h361v-119h-506z" />
    <glyph glyph-name="M.smcp" horiz-adv-x="978" 
d="M86 0v1065h215l184 -881h4l189 881h215v-1065h-135v895h-4l-185 -895h-161l-183 895h-4v-895h-135z" />
    <glyph glyph-name="zero.fitted.smcp" 
d="M217 838v-613q0 -53 31 -84t79 -31t80 32q32 30 31 83v613q0 53 -31 85q-32 31 -80 31t-79 -32t-31 -84zM326 1075q110 0 184 -63t74 -174v-613q0 -111 -73 -173t-185 -62t-183 62q-72 62 -71 173v613q0 111 71 174q72 63 183 63z" />
    <glyph glyph-name="nine.smcp" 
d="M438 684v156q0 53 -31 84q-32 30 -79 30t-79 -30t-32 -84v-211q0 -41 24 -66q23 -25 71 -25t87 40t39 106zM217 225q0 -53 30 -83t78 -31t81 31t32 87v297q-76 -106 -200 -106q-70 0 -118 46t-48 126v248q0 111 72 173q73 62 184 62q112 0 184 -62t72 -173v-611
q0 -111 -75 -175t-185 -64t-181 63q-72 63 -71 172v109h145v-109z" />
    <glyph glyph-name="eight.smcp" 
d="M217 369v-144q0 -53 31 -84t79 -31t80 32q32 30 31 83v144q0 53 -31 86q-32 33 -79 33t-79 -34q-32 -32 -32 -85zM217 838v-117q0 -53 31 -84t79 -31t80 31t31 84v117q0 53 -31 85q-32 31 -80 31t-79 -32t-31 -84zM326 1075q110 0 184 -63t74 -174v-84q0 -143 -125 -207
q125 -63 125 -205v-117q0 -111 -73 -173t-185 -62t-183 62q-72 62 -71 173v117q0 143 123 205q-123 61 -123 207v84q0 111 71 174q72 63 183 63z" />
    <glyph glyph-name="seven.smcp" horiz-adv-x="614" 
d="M55 946v119h504v-72l-270 -993h-144l258 946h-348z" />
    <glyph glyph-name="six.smcp" 
d="M217 379v-154q0 -53 31 -84t79 -31t80 32q32 30 31 83v211q0 41 -24 65q-25 23 -72 23t-86 -38t-39 -107zM434 842q0 52 -30 82t-77 30q-46 0 -78 -32t-32 -84v-299q78 106 201 106q70 0 118 -47t48 -125v-248q0 -111 -73 -173t-185 -62t-183 62q-72 62 -71 173v613
q0 111 72 174q73 63 183 63q109 0 181 -62t72 -171v-111h-146v111z" />
    <glyph glyph-name="five.smcp" 
d="M217 492h-145v573h501v-119h-356v-315q78 106 201 106q70 0 118 -47t48 -125v-340q0 -111 -73 -173t-185 -62t-183 62q-72 62 -71 173v109h145v-109q0 -53 31 -84t79 -31t80 32q32 30 31 83v303q0 41 -24 65q-25 23 -70 23t-86 -38t-41 -86z" />
    <glyph glyph-name="four.smcp" horiz-adv-x="647" 
d="M414 319v590h-4l-236 -590h240zM41 199v120l291 746h223v-746h49v-120h-49v-199h-141v199h-373z" />
    <glyph glyph-name="three.smcp" horiz-adv-x="647" 
d="M217 223q0 -51 31 -81t77 -31q47 -1 79 31t32 85v144q0 51 -33 83t-79 31h-105v119h98q49 0 81 32t32 85v117q0 53 -32 85q-32 31 -79 31t-77 -30t-31 -80v-113h-145v113q0 109 71 170t181 61t184 -63t73 -174v-82q0 -154 -137 -209q143 -55 144 -213v-107
q0 -111 -74 -174t-184 -63t-181 62q-72 62 -71 171v111h145v-111z" />
    <glyph glyph-name="two.smcp" horiz-adv-x="647" 
d="M72 0v207q0 84 37 142t89 91t105 62q127 69 127 176v160q0 53 -32 85q-32 31 -79 31t-77 -30t-31 -80v-113h-145v113q0 109 71 170t181 61t184 -63t73 -174v-160q0 -152 -125 -234q-52 -34 -106 -62q-128 -68 -127 -175v-88h358v-119h-503z" />
    <glyph glyph-name="one.smcp" horiz-adv-x="456" 
d="M371 1065v-1065h-146v928l-184 -113v137l184 113h146z" />
    <glyph glyph-name="zero.smcp" 
d="M217 838v-613q0 -53 31 -84t79 -31t80 32q32 30 31 83v613q0 53 -31 85q-32 31 -80 31t-79 -32t-31 -84zM326 1075q110 0 184 -63t74 -174v-613q0 -111 -73 -173t-185 -62t-183 62q-72 62 -71 173v613q0 111 71 174q72 63 183 63z" />
    <glyph glyph-name="N.smcp" horiz-adv-x="690" 
d="M86 0v1065h119l254 -705h4v705h141v-1065h-119l-254 705h-4v-705h-141z" />
    <glyph glyph-name="afii10061.smcp" 
d="M86 0v1065h145v-461h76l162 461h152l-205 -518l211 -547h-152l-168 489h-76v-489h-145zM244 1143l-84 86l266 225l84 -84z" />
    <glyph glyph-name="afii10060.smcp" horiz-adv-x="808" 
d="M371 430v-430h-146v946h-190v119h524v-119h-188v-356q78 106 200 106q70 0 118 -47t48 -125v-524h-145v487q0 41 -25 65t-71 24t-86 -40q-39 -38 -39 -106z" />
    <glyph glyph-name="afii10059.smcp" horiz-adv-x="1028" 
d="M600 119h98q49 0 81 32t32 87v137q0 53 -32 85t-81 32h-98v-373zM86 0v1065h145v-455h224v455h145v-455h98q113 0 186 -62t72 -173v-137q0 -111 -73 -175q-74 -63 -185 -63h-243v492h-224v-492h-145z" />
    <glyph glyph-name="afii10058.smcp" horiz-adv-x="1048" 
d="M621 119h100q47 0 79 32t31 87v137q0 53 -31 85q-32 32 -79 32h-100v-373zM41 -10v121q41 0 69 43t27 116v795h484v-455h100q111 0 183 -62t73 -173v-137q0 -110 -73 -174t-183 -64h-246v946h-192v-676q0 -128 -69 -204t-173 -76z" />
    <glyph glyph-name="afii10057.smcp" horiz-adv-x="645" 
d="M72 358h145v-135q0 -51 31 -82t76 -31q44 0 74 32q30 30 30 81v842h145v-842q-1 -109 -71 -171t-178 -62t-181 62q-72 62 -71 171v135z" />
    <glyph glyph-name="afii10056.smcp" horiz-adv-x="317" 
d="M86 0v1065h145v-1065h-145zM248 1202v207h125v-207h-125zM-49 1202v207h125v-207h-125z" />
    <glyph glyph-name="afii10055.smcp" horiz-adv-x="317" 
d="M86 0v1065h145v-1065h-145z" />
    <glyph glyph-name="afii10054.smcp" horiz-adv-x="645" 
d="M72 334h145v-113q0 -51 30 -81t76 -30q45 0 75 30t30 81v150q0 79 -126 118q-52 16 -103 39t-88 71t-37 122v125q0 106 70 168q72 61 178 61t178 -61t71 -168v-115h-145v115q0 51 -30 80q-30 28 -74 28t-74 -28q-29 -28 -29 -80v-125q0 -80 125 -119q51 -16 103 -39
t90 -70q37 -48 36 -122v-150q1 -109 -71 -170t-180 -61t-180 61q-71 61 -70 170v113z" />
    <glyph glyph-name="afii10053.smcp" 
d="M502 485h-285v-260q0 -53 31 -84t79 -31t80 32q32 30 31 83v109h146v-109q0 -111 -73 -173t-185 -62t-183 62q-72 62 -71 173v613q0 111 71 174q72 63 183 63q110 0 184 -63t74 -174v-107h-146v107q0 57 -30 87q-31 29 -80 29t-80 -30t-31 -86v-234h285v-119z" />
    <glyph glyph-name="Lslash.smcp" horiz-adv-x="583" 
d="M86 1065h145v-459l177 176v-149l-177 -176v-338h312v-119h-457v311l-45 -45v150l45 45v604z" />
    <glyph glyph-name="Q.smcp" 
d="M217 838v-613q0 -53 31 -84t79 -31t80 32q32 30 31 83v613q0 53 -31 85q-32 31 -80 31t-79 -32t-31 -84zM252 -31v33q-82 18 -131 76t-49 147v613q0 111 71 174q72 63 183 63q110 0 184 -63t74 -174v-613q0 -90 -52 -148t-135 -75v-33q0 -53 33 -84t80 -30h74v-121h-74
q-114 0 -186 62t-72 173z" />
    <glyph glyph-name="P.smcp" horiz-adv-x="659" 
d="M231 512h101q47 0 80 32t32 85v198q0 55 -32 87q-33 32 -80 32h-101v-434zM86 0v1065h246q110 1 184 -63t74 -175v-198q0 -111 -74 -173t-184 -63h-101v-393h-145z" />
    <glyph glyph-name="R.smcp" horiz-adv-x="659" 
d="M231 549h101q47 0 80 32t32 83v163q0 55 -32 87q-33 32 -80 32h-101v-397zM231 430v-430h-145v1065h246q110 1 184 -63t74 -175v-163q0 -76 -38 -128t-101 -75l170 -461h-148l-143 430h-99z" />
    <glyph glyph-name="S.smcp" horiz-adv-x="645" 
d="M72 334h145v-113q0 -51 30 -81t76 -30q45 0 75 30t30 81v150q0 79 -126 118q-52 16 -103 39t-88 71t-37 122v125q0 106 70 168q72 61 178 61t178 -61t71 -168v-115h-145v115q0 51 -30 80q-30 28 -74 28t-74 -28q-29 -28 -29 -80v-125q0 -80 125 -119q51 -16 103 -39
t90 -70q37 -48 36 -122v-150q1 -109 -71 -170t-180 -61t-180 61q-71 61 -70 170v113z" />
    <glyph glyph-name="O.smcp" 
d="M217 838v-613q0 -53 31 -84t79 -31t80 32q32 30 31 83v613q0 53 -31 85q-32 31 -80 31t-79 -32t-31 -84zM326 1075q110 0 184 -63t74 -174v-613q0 -111 -73 -173t-185 -62t-183 62q-72 62 -71 173v613q0 111 71 174q72 63 183 63z" />
    <glyph glyph-name="Eng.smcp" horiz-adv-x="690" 
d="M463 -260v315l-232 650h-4v-705h-141v1065h119l254 -705h4v705h141v-1325q0 -96 -64 -154q-65 -57 -162 -57t-164 57t-67 154v113h146v-113q1 -41 25 -66q24 -24 61 -24t61 24t23 66z" />
    <glyph glyph-name="nine.fitted" 
d="M438 807v350q0 53 -31 84q-32 31 -79 31t-79 -31t-32 -84v-405q0 -41 24 -66q23 -24 71 -24t87 40t39 105zM217 225q0 -53 30 -83t78 -31t81 31t32 87v420q-76 -106 -200 -106q-70 0 -118 46t-48 126v442q0 111 72 173q73 62 184 62q112 0 184 -62t72 -173v-928
q0 -111 -75 -175t-185 -64t-181 63q-72 63 -71 172v150h145v-150z" />
    <glyph glyph-name="eight.fitted" 
d="M217 528v-303q0 -53 31 -84t79 -31t80 32q32 30 31 83v303q0 53 -31 85q-32 32 -80 32t-79 -32t-31 -85zM217 1155v-274q0 -53 31 -85t79 -32t80 32t31 85v274q0 53 -31 85q-32 32 -80 32t-79 -32t-31 -85zM326 1393q110 1 184 -63t74 -175v-244q0 -145 -125 -204
q125 -63 125 -207v-275q0 -111 -73 -173t-185 -62t-183 62q-72 62 -71 173v275q0 145 123 207q-123 57 -123 204v244q0 111 72 175t182 63z" />
    <glyph glyph-name="seven.fitted" 
d="M55 1264v118h545v-71l-301 -1311h-147l292 1264h-389z" />
    <glyph glyph-name="six.fitted" 
d="M217 573v-348q0 -53 31 -84t79 -31t80 32q32 30 31 83v406q0 41 -24 65t-72 23q-47 0 -86 -39t-39 -107zM434 1159q0 53 -30 83t-77 30q-46 0 -78 -32t-32 -85v-422q78 106 201 107q70 0 118 -47t48 -125v-443q0 -111 -73 -173t-185 -62t-183 62q-72 62 -71 173v930
q0 111 72 174q73 63 183 63q109 0 181 -62t72 -171v-151h-146v151z" />
    <glyph glyph-name="five.fitted" 
d="M217 645h-145v737h501v-118h-356v-480q78 106 201 107q70 0 118 -47t48 -125v-494q0 -111 -73 -173t-185 -62t-183 62q-72 62 -71 173v150h145v-150q0 -53 31 -84t79 -31t80 32q32 30 31 83v457q0 40 -24 64t-70 24q-45 0 -86 -39t-41 -86z" />
    <glyph glyph-name="four.fitted" 
d="M424 391v836h-4l-246 -836h250zM41 270v121l301 991h223v-991h49v-121h-49v-270h-141v270h-383z" />
    <glyph glyph-name="three.fitted" 
d="M326 111q47 -1 80 31t32 85v318q0 51 -32 83q-33 32 -80 31h-105v119h98q49 0 81 32t32 85v260q0 53 -32 85t-79 32t-77 -30t-31 -81v-153h-145v153q0 109 71 170t181 61t184 -62q74 -64 74 -175v-225q0 -154 -138 -209q143 -55 144 -213v-281q0 -111 -74 -174t-184 -63
t-181 62q-72 62 -71 171v152h145v-152q0 -51 30 -81t77 -31z" />
    <glyph glyph-name="zero.taboldstyle" 
d="M217 797v-572q0 -53 31 -84t79 -31t80 32q32 30 31 83v572q0 53 -31 85q-32 32 -80 32t-79 -32t-31 -85zM326 1034q110 0 184 -63t74 -174v-572q0 -111 -73 -173t-185 -62t-183 62q-72 62 -71 173v572q0 111 71 174q72 63 183 63z" />
    <glyph glyph-name="one.taboldstyle" 
d="M61 0v119h195v768l-184 -113v137l184 113h145v-905h193v-119h-533z" />
    <glyph glyph-name="T.smcp" horiz-adv-x="593" 
d="M35 946v119h524v-119h-188v-946h-146v946h-190z" />
    <glyph glyph-name="Tbar.smcp" horiz-adv-x="593" 
d="M35 571v119h190v256h-190v119h524v-119h-188v-256h188v-119h-188v-571h-146v571h-190z" />
    <glyph glyph-name="two.taboldstyle" 
d="M74 0v186q0 84 37 142t90 92t106 62q127 68 127 175v140q0 53 -32 85t-78 32t-78 -30q-31 -30 -31 -81v-113h-145v113q0 109 71 170q72 61 182 61q109 0 183 -63t74 -174v-140q0 -84 -37 -142t-90 -91t-107 -62q-128 -69 -127 -176v-67h361v-119h-506z" />
    <glyph glyph-name="three.taboldstyle" 
d="M221 -111q0 -53 31 -83t77 -29q46 0 79 32t32 85v317q0 53 -32 84q-33 31 -80 31h-105v120h99q48 0 80 31t32 84v236q0 53 -32 85t-78 32t-78 -30q-31 -30 -31 -81v-113h-145v113q0 109 71 170q72 61 182 61q109 0 183 -63t74 -174v-199q0 -156 -138 -211
q143 -55 144 -213v-280q0 -108 -74 -172t-184 -64t-181 62q-72 62 -71 169v111h145v-111z" />
    <glyph glyph-name="four.taboldstyle" 
d="M424 119v749h-4l-246 -749h250zM41 0v119l301 905h223v-905h49v-119h-49v-307h-141v307h-383z" />
    <glyph glyph-name="five.taboldstyle" 
d="M217 299h-145v725h501v-119h-356v-467q76 106 201 107q70 0 118 -46t48 -126v-482q0 -109 -74 -171t-184 -62t-183 62q-72 62 -71 171v109h145v-109q0 -51 31 -83t79 -31t80 31t31 83v445q0 42 -24 66t-70 24q-45 0 -86 -39t-41 -88z" />
    <glyph glyph-name="six.taboldstyle" 
d="M217 573v-348q0 -53 31 -84t79 -31t80 32q32 30 31 83v406q0 41 -24 65t-72 23q-47 0 -86 -39t-39 -107zM434 1159q0 53 -30 83t-77 30q-46 0 -78 -32t-32 -85v-422q78 106 201 107q70 0 118 -47t48 -125v-443q0 -111 -73 -173t-185 -62t-183 62q-72 62 -71 173v930
q0 111 72 174q73 63 183 63q109 0 181 -62t72 -171v-110h-146v110z" />
    <glyph glyph-name="seven.taboldstyle" 
d="M55 905v119h545v-72l-305 -1259h-150l299 1212h-389z" />
    <glyph glyph-name="I.smcp" horiz-adv-x="317" 
d="M86 0v1065h145v-1065h-145z" />
    <glyph glyph-name="Aacute.smcp" horiz-adv-x="645" 
d="M319 938l-86 -532h177l-86 532h-5zM418 1065l200 -1065h-149l-47 285h-203l-45 -285h-149l200 1065h193zM231 1143l-84 86l267 225l84 -84z" />
    <glyph glyph-name="Abreve.smcp" horiz-adv-x="645" 
d="M319 938l-86 -532h177l-86 532h-5zM418 1065l200 -1065h-149l-47 285h-203l-45 -285h-149l200 1065h193zM121 1335h102q0 -49 29 -77t72 -28q44 0 72 28t28 77h102q0 -90 -58 -142t-145 -52t-145 52q-57 52 -57 142z" />
    <glyph glyph-name="Acircumflex.smcp" horiz-adv-x="645" 
d="M150 1149l-84 84l256 205l256 -205l-84 -84l-172 139zM319 938l-86 -532h177l-86 532h-5zM418 1065l200 -1065h-149l-47 285h-203l-45 -285h-149l200 1065h193z" />
    <glyph glyph-name="Agrave.smcp" horiz-adv-x="645" 
d="M319 938l-86 -532h177l-86 532h-5zM418 1065l200 -1065h-149l-47 285h-203l-45 -285h-149l200 1065h193zM414 1143l-267 225l84 86l269 -225z" />
    <glyph glyph-name="Adieresis.smcp" horiz-adv-x="645" 
d="M410 1202v207h125v-207h-125zM113 1202v207h125v-207h-125zM319 938l-86 -532h177l-86 532h-5zM418 1065l200 -1065h-149l-47 285h-203l-45 -285h-149l200 1065h193z" />
    <glyph glyph-name="Amacron.smcp" horiz-adv-x="645" 
d="M119 1223v118h405v-118h-405zM319 938l-86 -532h177l-86 532h-5zM418 1065l200 -1065h-149l-47 285h-203l-45 -285h-149l200 1065h193z" />
    <glyph glyph-name="Aogonek.smcp" horiz-adv-x="645" 
d="M319 938l-86 -532h177l-86 532h-5zM469 -61v61l-47 285h-203l-45 -285h-149l200 1065h193l200 -1065h-47v-61q0 -51 28 -85t77 -34v-86q-96 0 -152 58q-55 59 -55 147z" />
    <glyph glyph-name="Aring.smcp" horiz-adv-x="645" 
d="M319 938l-86 -532h177l-86 532h-5zM418 1065l200 -1065h-149l-47 285h-203l-45 -285h-149l200 1065h193zM242 1290q0 -40 24 -64t57 -24q35 0 59 24t24 64t-25 66q-25 24 -59 24t-57 -24q-23 -25 -23 -66zM323 1464q75 0 125 -47t50 -128t-50 -127t-126 -46t-124 46
t-48 127t49 128t124 47z" />
    <glyph glyph-name="Atilde.smcp" horiz-adv-x="645" 
d="M319 938l-86 -532h177l-86 532h-5zM418 1065l200 -1065h-149l-47 285h-203l-45 -285h-149l200 1065h193zM70 1163q0 78 45 123t107 45t110 -42t80 -42q30 1 52 21t21 53h93q0 -78 -46 -123t-109 -45t-111 42t-79 42t-51 -19t-20 -55h-92z" />
    <glyph glyph-name="AEacute.smcp" horiz-adv-x="811" 
d="M324 406v532h-5l-86 -532h91zM324 0v285h-105l-45 -285h-149l200 1065h514v-119h-270v-336h229v-118h-229v-373h270v-119h-415zM346 1143l-84 86l266 225l84 -84z" />
    <glyph glyph-name="Cacute.smcp" horiz-adv-x="645" 
d="M217 842v-621q0 -51 30 -81t76 -30q45 0 75 30t30 81v113h145v-113q1 -109 -71 -170t-180 -61t-180 61q-71 61 -70 170v621q0 109 70 171q71 62 180 62q108 0 180 -62t71 -171v-111h-145v111q0 51 -30 82q-30 30 -76 30t-75 -30q-30 -30 -30 -82zM231 1143l-84 86
l267 225l84 -84z" />
    <glyph glyph-name="Ccaron.smcp" horiz-adv-x="645" 
d="M217 842v-621q0 -51 30 -81t76 -30q45 0 75 30t30 81v113h145v-113q1 -109 -71 -170t-180 -61t-180 61q-71 61 -70 170v621q0 109 70 171q71 62 180 62q108 0 180 -62t71 -171v-111h-145v111q0 51 -30 82q-30 30 -76 30t-75 -30q-30 -30 -30 -82zM322 1147l-256 207
l84 84l172 -142l172 142l84 -84z" />
    <glyph glyph-name="Ccedilla.smcp" horiz-adv-x="645" 
d="M268 -283v277q-88 14 -142 74t-54 153v621q0 109 70 171q71 62 180 62q108 0 180 -62t71 -171v-111h-145v111q0 51 -30 82q-30 30 -76 30t-75 -30q-30 -30 -30 -82v-621q0 -51 30 -81t76 -30q45 0 75 30t30 81v113h145v-113q0 -94 -54 -153t-142 -74v-277h-109z" />
    <glyph glyph-name="Ccircumflex.smcp" horiz-adv-x="645" 
d="M147 1149l-84 84l256 205l256 -205l-83 -84l-173 139zM217 842v-621q0 -51 30 -81t76 -30q45 0 75 30t30 81v113h145v-113q1 -109 -71 -170t-180 -61t-180 61q-71 61 -70 170v621q0 109 70 171q71 62 180 62q108 0 180 -62t71 -171v-111h-145v111q0 51 -30 82
q-30 30 -76 30t-75 -30q-30 -30 -30 -82z" />
    <glyph glyph-name="Cdotaccent.smcp" horiz-adv-x="645" 
d="M250 1227v207h145v-207h-145zM217 842v-621q0 -51 30 -81t76 -30q45 0 75 30t30 81v113h145v-113q1 -109 -71 -170t-180 -61t-180 61q-71 61 -70 170v621q0 109 70 171q71 62 180 62q108 0 180 -62t71 -171v-111h-145v111q0 51 -30 82q-30 30 -76 30t-75 -30
q-30 -30 -30 -82z" />
    <glyph glyph-name="Dcaron.smcp" horiz-adv-x="665" 
d="M231 119h105q49 0 81 32t32 85v591q0 55 -32 87t-81 32h-105v-827zM86 0v1065h250q110 1 184 -63t74 -175v-591q0 -112 -73 -174t-185 -62h-250zM332 1147l-256 207l84 84l172 -142l172 142l84 -84z" />
    <glyph glyph-name="Eacute.smcp" horiz-adv-x="624" 
d="M86 0v1065h467v-119h-322v-336h281v-118h-281v-373h322v-119h-467zM229 1143l-84 86l267 225l84 -84z" />
    <glyph glyph-name="Ebreve.smcp" horiz-adv-x="624" 
d="M86 0v1065h467v-119h-322v-336h281v-118h-281v-373h322v-119h-467zM117 1335h102q0 -49 29 -77q30 -28 72 -28t71 28t29 77h102q0 -90 -58 -142t-146 -52t-144 52q-57 52 -57 142z" />
    <glyph glyph-name="Ecaron.smcp" horiz-adv-x="624" 
d="M86 0v1065h467v-119h-322v-336h281v-118h-281v-373h322v-119h-467zM319 1147l-256 207l84 84l172 -142l173 142l83 -84z" />
    <glyph glyph-name="Ecircumflex.smcp" horiz-adv-x="624" 
d="M147 1149l-84 84l256 205l256 -205l-83 -84l-173 139zM86 0v1065h467v-119h-322v-336h281v-118h-281v-373h322v-119h-467z" />
    <glyph glyph-name="Edieresis.smcp" horiz-adv-x="624" 
d="M406 1202v207h124v-207h-124zM109 1202v207h124v-207h-124zM86 0v1065h467v-119h-322v-336h281v-118h-281v-373h322v-119h-467z" />
    <glyph glyph-name="Edotaccent.smcp" horiz-adv-x="624" 
d="M250 1227v207h145v-207h-145zM86 0v1065h467v-119h-322v-336h281v-118h-281v-373h322v-119h-467z" />
    <glyph glyph-name="Egrave.smcp" horiz-adv-x="624" 
d="M86 0v1065h467v-119h-322v-336h281v-118h-281v-373h322v-119h-467zM412 1143l-267 225l84 86l269 -225z" />
    <glyph glyph-name="Emacron.smcp" horiz-adv-x="624" 
d="M119 1223v118h405v-118h-405zM86 0v1065h467v-119h-322v-336h281v-118h-281v-373h322v-119h-467z" />
    <glyph glyph-name="Eogonek.smcp" horiz-adv-x="624" 
d="M86 0v1065h467v-119h-322v-336h281v-118h-281v-373h322v-119h-104v-61q-1 -51 27 -85t77 -34v-86q-96 0 -152 58q-55 58 -55 147v61h-260z" />
    <glyph glyph-name="Gbreve.smcp" horiz-adv-x="645" 
d="M326 475v119h247v-373q1 -109 -71 -170t-180 -61t-180 61q-71 61 -70 170v621q0 109 70 171q71 62 180 62q108 0 180 -62t71 -171v-111h-145v111q0 51 -30 82q-30 30 -76 30t-75 -30q-30 -30 -30 -82v-621q0 -51 30 -81t76 -30q45 0 75 30t30 81v254h-102zM121 1335h102
q0 -49 29 -77t72 -28q44 0 72 28t28 77h102q0 -90 -58 -142t-145 -52t-145 52q-57 52 -57 142z" />
    <glyph glyph-name="Gcircumflex.smcp" horiz-adv-x="645" 
d="M150 1149l-84 84l256 205l256 -205l-84 -84l-172 139zM326 475v119h247v-373q1 -109 -71 -170t-180 -61t-180 61q-71 61 -70 170v621q0 109 70 171q71 62 180 62q108 0 180 -62t71 -171v-111h-145v111q0 51 -30 82q-30 30 -76 30t-75 -30q-30 -30 -30 -82v-621
q0 -51 30 -81t76 -30q45 0 75 30t30 81v254h-102z" />
    <glyph glyph-name="seven.fitted.smcp" 
d="M55 946v119h545v-72l-301 -993h-143l288 946h-389z" />
    <glyph glyph-name="eight.fitted.smcp" 
d="M217 369v-144q0 -53 31 -84t79 -31t80 32q32 30 31 83v144q0 53 -31 86q-32 33 -79 33t-79 -34q-32 -32 -32 -85zM217 838v-117q0 -53 31 -84t79 -31t80 31t31 84v117q0 53 -31 85q-32 31 -80 31t-79 -32t-31 -84zM326 1075q110 0 184 -63t74 -174v-84q0 -143 -125 -207
q125 -63 125 -205v-117q0 -111 -73 -173t-185 -62t-183 62q-72 62 -71 173v117q0 143 123 205q-123 61 -123 207v84q0 111 71 174q72 63 183 63z" />
    <glyph glyph-name="nine.fitted.smcp" 
d="M438 684v156q0 53 -31 84q-32 30 -79 30t-79 -30t-32 -84v-211q0 -41 24 -66q23 -25 71 -25t87 40t39 106zM217 225q0 -53 30 -83t78 -31t81 31t32 87v297q-76 -106 -200 -106q-70 0 -118 46t-48 126v248q0 111 72 173q73 62 184 62q112 0 184 -62t72 -173v-611
q0 -111 -75 -175t-185 -64t-181 63q-72 63 -71 172v109h145v-109z" />
    <glyph glyph-name="two.fitted" 
d="M76 0v274q0 82 37 152t90 117t106 91q127 105 127 212v309q0 53 -32 85t-78 32t-78 -30q-31 -30 -31 -81v-153h-143v153q0 109 71 170q72 61 181 61q108 0 182 -62q74 -64 74 -175v-309q0 -135 -91 -226q-91 -92 -181 -169q-91 -77 -91 -177v-155h363v-119h-506z" />
    <glyph glyph-name="one.fitted" 
d="M61 0v119h195v1126l-184 -112v137l184 112h145v-1263h193v-119h-533z" />
    <glyph glyph-name="zero.fitted" 
d="M217 1155v-930q0 -53 31 -84t79 -31t80 32q32 30 31 83v930q0 53 -31 85q-32 32 -80 32t-79 -32t-31 -85zM326 1393q110 1 184 -63t74 -175v-930q0 -111 -73 -173t-185 -62t-183 62q-72 62 -71 173v930q0 111 72 175t182 63z" />
    <glyph glyph-name="uni018F.smcp" horiz-adv-x="645" 
d="M217 221q0 -51 30 -81t76 -29q45 -1 75 29t30 81v254h-211v-254zM72 221v373h356v248q0 51 -30 82q-30 30 -74 30t-76 -30q-31 -30 -31 -82v-111h-145v111q0 109 71 171q72 62 181 62q110 0 180 -62t69 -171v-621q-1 -109 -71 -170t-178 -61t-181 61q-71 61 -71 170z" />
    <glyph glyph-name="Z.smcp" horiz-adv-x="645" 
d="M72 0v72l340 874h-340v119h501v-72l-335 -874h335v-119h-501z" />
    <glyph glyph-name="Y.smcp" horiz-adv-x="645" 
d="M248 0v346l-221 719h145l147 -510h5l149 510h145l-225 -719v-346h-145z" />
    <glyph glyph-name="X.smcp" 
d="M29 0l202 547l-196 518h151l138 -438h4l141 438h152l-197 -518l203 -547h-152l-147 471h-4l-144 -471h-151z" />
    <glyph glyph-name="W.smcp" horiz-adv-x="1048" 
d="M213 0l-186 1065h149l131 -936h4l121 936h184l119 -936h4l131 936h150l-186 -1065h-191l-117 922h-4l-119 -922h-190z" />
    <glyph glyph-name="V.smcp" horiz-adv-x="645" 
d="M227 0l-200 1065h149l143 -938h5l145 938h149l-200 -1065h-191z" />
    <glyph glyph-name="one.fitted.smcp" 
d="M61 0v119h195v809l-184 -113v137l184 113h145v-946h193v-119h-533z" />
    <glyph glyph-name="Kcommaaccent.smcp" 
d="M408 -215q0 -86 -58 -211h-102q41 123 41 211v154h119v-154zM86 0v1065h145v-461h76l162 461h152l-205 -518l211 -547h-152l-168 489h-76v-489h-145z" />
    <glyph glyph-name="Lacute.smcp" horiz-adv-x="583" 
d="M86 0v1065h145v-946h312v-119h-457zM233 1143l-83 86l266 225l84 -84z" />
    <glyph glyph-name="Lcaron.smcp" horiz-adv-x="583" 
d="M86 0v1065h145v-946h312v-119h-457zM326 1147l-256 207l84 84l172 -142l172 142l84 -84z" />
    <glyph glyph-name="Lcommaaccent.smcp" horiz-adv-x="583" 
d="M387 -215q0 -86 -57 -211h-103q41 123 41 211v154h119v-154zM86 0v1065h145v-946h312v-119h-457z" />
    <glyph glyph-name="Ldot.smcp" horiz-adv-x="583" 
d="M424 457v186h125v-186h-125zM86 0v1065h145v-946h312v-119h-457z" />
    <glyph glyph-name="Nacute.smcp" horiz-adv-x="690" 
d="M86 0v1065h119l254 -705h4v705h141v-1065h-119l-254 705h-4v-705h-141zM256 1143l-84 86l266 225l84 -84z" />
    <glyph glyph-name="Ncaron.smcp" horiz-adv-x="690" 
d="M86 0v1065h119l254 -705h4v705h141v-1065h-119l-254 705h-4v-705h-141zM346 1147l-256 207l84 84l172 -142l172 142l84 -84z" />
    <glyph glyph-name="Ncommaaccent.smcp" horiz-adv-x="690" 
d="M414 -215q0 -86 -58 -211h-102q41 123 41 211v154h119v-154zM86 0v1065h119l254 -705h4v705h141v-1065h-119l-254 705h-4v-705h-141z" />
    <glyph glyph-name="Ntilde.smcp" horiz-adv-x="690" 
d="M86 0v1065h119l254 -705h4v705h141v-1065h-119l-254 705h-4v-705h-141zM90 1163q0 78 45 123t107 45t111 -42q48 -42 79 -42q30 1 52 21t22 53h92q0 -78 -46 -123t-108 -45t-111 42q-48 42 -79 42t-51 -19t-21 -55h-92z" />
    <glyph glyph-name="Oacute.smcp" 
d="M217 838v-613q0 -53 31 -84t79 -31t80 32q32 30 31 83v613q0 53 -31 85q-32 31 -80 31t-79 -32t-31 -84zM326 1075q110 0 184 -63t74 -174v-613q0 -111 -73 -173t-185 -62t-183 62q-72 62 -71 173v613q0 111 71 174q72 63 183 63zM236 1143l-84 86l266 225l84 -84z" />
    <glyph glyph-name="Obreve.smcp" 
d="M217 838v-613q0 -53 31 -84t79 -31t80 32q32 30 31 83v613q0 53 -31 85q-32 31 -80 31t-79 -32t-31 -84zM326 1075q110 0 184 -63t74 -174v-613q0 -111 -73 -173t-185 -62t-183 62q-72 62 -71 173v613q0 111 71 174q72 63 183 63zM125 1335h102q0 -49 29 -77t72 -28
q44 0 72 28t28 77h102q0 -90 -58 -142t-145 -52t-145 52q-57 52 -57 142z" />
    <glyph glyph-name="Ocircumflex.smcp" 
d="M156 1149l-84 84l256 205l256 -205l-84 -84l-172 139zM217 838v-613q0 -53 31 -84t79 -31t80 32q32 30 31 83v613q0 53 -31 85q-32 31 -80 31t-79 -32t-31 -84zM326 1075q110 0 184 -63t74 -174v-613q0 -111 -73 -173t-185 -62t-183 62q-72 62 -71 173v613q0 111 71 174
q72 63 183 63z" />
    <glyph glyph-name="Odieresis.smcp" 
d="M414 1202v207h125v-207h-125zM117 1202v207h125v-207h-125zM217 838v-613q0 -53 31 -84t79 -31t80 32q32 30 31 83v613q0 53 -31 85q-32 31 -80 31t-79 -32t-31 -84zM326 1075q110 0 184 -63t74 -174v-613q0 -111 -73 -173t-185 -62t-183 62q-72 62 -71 173v613
q0 111 71 174q72 63 183 63z" />
    <glyph glyph-name="Ograve.smcp" 
d="M217 838v-613q0 -53 31 -84t79 -31t80 32q32 30 31 83v613q0 53 -31 85q-32 31 -80 31t-79 -32t-31 -84zM326 1075q110 0 184 -63t74 -174v-613q0 -111 -73 -173t-185 -62t-183 62q-72 62 -71 173v613q0 111 71 174q72 63 183 63zM418 1143l-266 225l84 86l268 -225z" />
    <glyph glyph-name="Ohungarumlaut.smcp" 
d="M391 1133l-86 86l246 245l84 -86zM102 1133l-84 86l244 245l86 -86zM217 838v-613q0 -53 31 -84t79 -31t80 32q32 30 31 83v613q0 53 -31 85q-32 31 -80 31t-79 -32t-31 -84zM326 1075q110 0 184 -63t74 -174v-613q0 -111 -73 -173t-185 -62t-183 62q-72 62 -71 173v613
q0 111 71 174q72 63 183 63z" />
    <glyph glyph-name="Omacron.smcp" 
d="M123 1223v118h405v-118h-405zM217 838v-613q0 -53 31 -84t79 -31t80 32q32 30 31 83v613q0 53 -31 85q-32 31 -80 31t-79 -32t-31 -84zM326 1075q110 0 184 -63t74 -174v-613q0 -111 -73 -173t-185 -62t-183 62q-72 62 -71 173v613q0 111 71 174q72 63 183 63z" />
    <glyph glyph-name="Otilde.smcp" 
d="M217 838v-613q0 -53 31 -84t79 -31t80 32q32 30 31 83v613q0 53 -31 85q-32 31 -80 31t-79 -32t-31 -84zM326 1075q110 0 184 -63t74 -174v-613q0 -111 -73 -173t-185 -62t-183 62q-72 62 -71 173v613q0 111 71 174q72 63 183 63zM74 1163q0 78 45 123t107 45t110 -42
t80 -42q30 1 52 21t21 53h93q0 -78 -46 -123t-108 -45t-112 42q-48 42 -78 42t-52 -19q-20 -19 -20 -55h-92z" />
    <glyph glyph-name="Racute.smcp" horiz-adv-x="659" 
d="M231 549h101q47 0 80 32t32 83v163q0 55 -32 87q-33 32 -80 32h-101v-397zM231 430v-430h-145v1065h246q110 1 184 -63t74 -175v-163q0 -76 -38 -128t-101 -75l170 -461h-148l-143 430h-99zM240 1143l-84 86l266 225l84 -84z" />
    <glyph glyph-name="Rcaron.smcp" horiz-adv-x="659" 
d="M231 549h101q47 0 80 32t32 83v163q0 55 -32 87q-33 32 -80 32h-101v-397zM231 430v-430h-145v1065h246q110 1 184 -63t74 -175v-163q0 -76 -38 -128t-101 -75l170 -461h-148l-143 430h-99zM332 1147l-256 207l84 84l172 -142l172 142l84 -84z" />
    <glyph glyph-name="Rcommaaccent.smcp" horiz-adv-x="659" 
d="M387 -215q0 -86 -57 -211h-103q41 123 41 211v154h119v-154zM231 549h101q47 0 80 32t32 83v163q0 55 -32 87q-33 32 -80 32h-101v-397zM231 430v-430h-145v1065h246q110 1 184 -63t74 -175v-163q0 -76 -38 -128t-101 -75l170 -461h-148l-143 430h-99z" />
    <glyph glyph-name="Sacute.smcp" horiz-adv-x="645" 
d="M72 334h145v-113q0 -51 30 -81t76 -30q45 0 75 30t30 81v150q0 79 -126 118q-52 16 -103 39t-88 71t-37 122v125q0 106 70 168q72 61 178 61t178 -61t71 -168v-115h-145v115q0 51 -30 80q-30 28 -74 28t-74 -28q-29 -28 -29 -80v-125q0 -80 125 -119q51 -16 103 -39
t90 -70q37 -48 36 -122v-150q1 -109 -71 -170t-180 -61t-180 61q-71 61 -70 170v113zM231 1143l-84 86l267 225l84 -84z" />
    <glyph glyph-name="Scaron.smcp" horiz-adv-x="645" 
d="M72 334h145v-113q0 -51 30 -81t76 -30q45 0 75 30t30 81v150q0 79 -126 118q-52 16 -103 39t-88 71t-37 122v125q0 106 70 168q72 61 178 61t178 -61t71 -168v-115h-145v115q0 51 -30 80q-30 28 -74 28t-74 -28q-29 -28 -29 -80v-125q0 -80 125 -119q51 -16 103 -39
t90 -70q37 -48 36 -122v-150q1 -109 -71 -170t-180 -61t-180 61q-71 61 -70 170v113zM322 1147l-256 207l84 84l172 -142l172 142l84 -84z" />
    <glyph glyph-name="Scedilla.smcp" horiz-adv-x="645" 
d="M270 -283v277q-88 12 -143 72t-55 155v113h145v-113q0 -51 30 -81t76 -30q45 0 75 30t30 81v150q0 79 -126 118q-52 16 -103 39t-88 71t-37 122v125q0 106 70 168q72 61 178 61t178 -61t71 -168v-115h-145v115q0 51 -30 80q-30 28 -74 28t-74 -28q-29 -28 -29 -80v-125
q0 -80 125 -119q51 -16 103 -39t90 -70q37 -48 36 -122v-150q0 -94 -54 -152t-140 -73v-279h-109z" />
    <glyph glyph-name="Scircumflex.smcp" horiz-adv-x="645" 
d="M150 1149l-84 84l256 205l256 -205l-84 -84l-172 139zM72 334h145v-113q0 -51 30 -81t76 -30q45 0 75 30t30 81v150q0 79 -126 118q-52 16 -103 39t-88 71t-37 122v125q0 106 70 168q72 61 178 61t178 -61t71 -168v-115h-145v115q0 51 -30 80q-30 28 -74 28t-74 -28
q-29 -28 -29 -80v-125q0 -80 125 -119q51 -16 103 -39t90 -70q37 -48 36 -122v-150q1 -109 -71 -170t-180 -61t-180 61q-71 61 -70 170v113z" />
    <glyph glyph-name="Scommaaccent.smcp" horiz-adv-x="645" 
d="M379 -215q0 -86 -57 -211h-103q41 123 41 211v154h119v-154zM72 334h145v-113q0 -51 30 -81t76 -30q45 0 75 30t30 81v150q0 79 -126 118q-52 16 -103 39t-88 71t-37 122v125q0 106 70 168q72 61 178 61t178 -61t71 -168v-115h-145v115q0 51 -30 80q-30 28 -74 28
t-74 -28q-29 -28 -29 -80v-125q0 -80 125 -119q51 -16 103 -39t90 -70q37 -48 36 -122v-150q1 -109 -71 -170t-180 -61t-180 61q-71 61 -70 170v113z" />
    <glyph glyph-name="Tcaron.smcp" horiz-adv-x="593" 
d="M35 946v119h524v-119h-188v-946h-146v946h-190zM295 1147l-256 207l84 84l172 -142l172 142l84 -84z" />
    <glyph glyph-name="Tcommaaccent.smcp" horiz-adv-x="593" 
d="M358 -215q0 -86 -57 -211h-102q41 123 41 211v154h118v-154zM35 946v119h524v-119h-188v-946h-146v946h-190z" />
    <glyph glyph-name="uni021A.smcp" horiz-adv-x="593" 
d="M358 -215q0 -86 -57 -211h-102q41 123 41 211v154h118v-154zM35 946v119h524v-119h-188v-946h-146v946h-190z" />
    <glyph glyph-name="Uacute.smcp" 
d="M72 1065h145v-840q0 -53 31 -84t79 -31t80 32q32 30 31 83v840h146v-840q0 -111 -73 -173t-185 -62t-183 62q-72 62 -71 173v840zM236 1143l-84 86l266 225l84 -84z" />
    <glyph glyph-name="Ubreve.smcp" 
d="M72 1065h145v-840q0 -53 31 -84t79 -31t80 32q32 30 31 83v840h146v-840q0 -111 -73 -173t-185 -62t-183 62q-72 62 -71 173v840zM125 1335h102q0 -49 29 -77t72 -28q44 0 72 28t28 77h102q0 -90 -58 -142t-145 -52t-145 52q-57 52 -57 142z" />
    <glyph glyph-name="Ucircumflex.smcp" 
d="M156 1149l-84 84l256 205l256 -205l-84 -84l-172 139zM72 1065h145v-840q0 -53 31 -84t79 -31t80 32q32 30 31 83v840h146v-840q0 -111 -73 -173t-185 -62t-183 62q-72 62 -71 173v840z" />
    <glyph glyph-name="Udieresis.smcp" 
d="M414 1202v207h125v-207h-125zM117 1202v207h125v-207h-125zM72 1065h145v-840q0 -53 31 -84t79 -31t80 32q32 30 31 83v840h146v-840q0 -111 -73 -173t-185 -62t-183 62q-72 62 -71 173v840z" />
    <glyph glyph-name="Ugrave.smcp" 
d="M72 1065h145v-840q0 -53 31 -84t79 -31t80 32q32 30 31 83v840h146v-840q0 -111 -73 -173t-185 -62t-183 62q-72 62 -71 173v840zM418 1143l-266 225l84 86l268 -225z" />
    <glyph glyph-name="Uhungarumlaut.smcp" 
d="M391 1133l-86 86l246 245l84 -86zM102 1133l-84 86l244 245l86 -86zM72 1065h145v-840q0 -53 31 -84t79 -31t80 32q32 30 31 83v840h146v-840q0 -111 -73 -173t-185 -62t-183 62q-72 62 -71 173v840z" />
    <glyph glyph-name="Umacron.smcp" 
d="M123 1223v118h405v-118h-405zM72 1065h145v-840q0 -53 31 -84t79 -31t80 32q32 30 31 83v840h146v-840q0 -111 -73 -173t-185 -62t-183 62q-72 62 -71 173v840z" />
    <glyph glyph-name="Uogonek.smcp" 
d="M301 -61v53q-102 6 -166 67q-63 61 -63 166v840h145v-840q0 -53 31 -84t79 -31t80 32q32 30 31 83v840h146v-840q0 -90 -49 -148t-132 -77v-61q0 -51 28 -85t77 -34v-86q-96 0 -152 58q-55 59 -55 147z" />
    <glyph glyph-name="Uring.smcp" 
d="M72 1065h145v-840q0 -53 31 -84t79 -31t80 32q32 30 31 83v840h146v-840q0 -111 -73 -173t-185 -62t-183 62q-72 62 -71 173v840zM246 1290q0 -40 24 -64t57 -24q35 0 59 24t24 64t-25 66q-25 24 -59 24t-57 -24q-23 -25 -23 -66zM327 1464q75 0 125 -47t50 -128
t-50 -127t-126 -46t-124 46t-48 127t49 128t124 47z" />
    <glyph glyph-name="Utilde.smcp" 
d="M72 1065h145v-840q0 -53 31 -84t79 -31t80 32q32 30 31 83v840h146v-840q0 -111 -73 -173t-185 -62t-183 62q-72 62 -71 173v840zM74 1163q0 78 45 123t107 45t110 -42t80 -42q30 1 52 21t21 53h93q0 -78 -46 -123t-108 -45t-112 42q-48 42 -78 42t-52 -19
q-20 -19 -20 -55h-92z" />
    <glyph glyph-name="Wacute.smcp" horiz-adv-x="1048" 
d="M213 0l-186 1065h149l131 -936h4l121 936h184l119 -936h4l131 936h150l-186 -1065h-191l-117 922h-4l-119 -922h-190zM432 1143l-84 86l266 225l84 -84z" />
    <glyph glyph-name="Wcircumflex.smcp" horiz-adv-x="1048" 
d="M350 1149l-84 84l256 205l256 -205l-84 -84l-172 139zM213 0l-186 1065h149l131 -936h4l121 936h184l119 -936h4l131 936h150l-186 -1065h-191l-117 922h-4l-119 -922h-190z" />
    <glyph glyph-name="Wdieresis.smcp" horiz-adv-x="1048" 
d="M610 1202v207h125v-207h-125zM313 1202v207h125v-207h-125zM213 0l-186 1065h149l131 -936h4l121 936h184l119 -936h4l131 936h150l-186 -1065h-191l-117 922h-4l-119 -922h-190z" />
    <glyph glyph-name="Wgrave.smcp" horiz-adv-x="1048" 
d="M213 0l-186 1065h149l131 -936h4l121 936h184l119 -936h4l131 936h150l-186 -1065h-191l-117 922h-4l-119 -922h-190zM614 1143l-266 225l84 86l268 -225z" />
    <glyph glyph-name="Yacute.smcp" horiz-adv-x="645" 
d="M248 0v346l-221 719h145l147 -510h5l149 510h145l-225 -719v-346h-145zM231 1143l-84 86l267 225l84 -84z" />
    <glyph glyph-name="Ycircumflex.smcp" horiz-adv-x="645" 
d="M150 1149l-84 84l256 205l256 -205l-84 -84l-172 139zM248 0v346l-221 719h145l147 -510h5l149 510h145l-225 -719v-346h-145z" />
    <glyph glyph-name="Ydieresis.smcp" horiz-adv-x="645" 
d="M408 1202v207h124v-207h-124zM111 1202v207h125v-207h-125zM248 0v346l-221 719h145l147 -510h5l149 510h145l-225 -719v-346h-145z" />
    <glyph glyph-name="Ygrave.smcp" horiz-adv-x="645" 
d="M248 0v346l-221 719h145l147 -510h5l149 510h145l-225 -719v-346h-145zM414 1143l-267 225l84 86l269 -225z" />
    <glyph glyph-name="Zacute.smcp" horiz-adv-x="645" 
d="M72 0v72l340 874h-340v119h501v-72l-335 -874h335v-119h-501zM229 1143l-84 86l267 225l84 -84z" />
    <glyph glyph-name="Zcaron.smcp" horiz-adv-x="645" 
d="M72 0v72l340 874h-340v119h501v-72l-335 -874h335v-119h-501zM324 1147l-256 207l84 84l172 -142l172 142l84 -84z" />
    <glyph glyph-name="Zdotaccent.smcp" horiz-adv-x="645" 
d="M252 1227v207h145v-207h-145zM72 0v72l340 874h-340v119h501v-72l-335 -874h335v-119h-501z" />
    <glyph glyph-name="exclam.smcp" horiz-adv-x="317" 
d="M86 0v205h145v-205h-145zM86 328v737h145v-737h-145z" />
    <glyph glyph-name="slash.smcp" horiz-adv-x="466" 
d="M55 0l211 1065h146l-211 -1065h-146z" />
    <glyph glyph-name="backslash.smcp" horiz-adv-x="466" 
d="M266 0l-211 1065h146l211 -1065h-146z" />
    <glyph glyph-name="parenleft.smcp" horiz-adv-x="387" 
d="M326 1110q-47 0 -78 -32t-31 -87v-971q0 -54 31 -84t78 -30h20v-121h-20q-111 0 -183 62t-71 173v971q0 111 71 174q72 63 183 64h20v-119h-20z" />
    <glyph glyph-name="parenright.smcp" horiz-adv-x="387" 
d="M61 -94q47 0 79 32t32 85v970q0 53 -32 85t-79 32h-20v119h20q111 -1 184 -63t72 -173v-970q0 -111 -72 -175q-73 -63 -184 -63h-20v121h20z" />
    <glyph glyph-name="bracketleft.smcp" horiz-adv-x="387" 
d="M72 -207v1426h274v-119h-129v-1186h129v-121h-274z" />
    <glyph glyph-name="bracketright.smcp" horiz-adv-x="387" 
d="M41 -207v119h131v1186h-131v121h276v-1426h-276z" />
    <glyph glyph-name="braceleft.smcp" horiz-adv-x="493" 
d="M453 -215h-21q-106 0 -181 63t-75 168v320q0 53 -32 84t-78 31h-21v122h21q46 0 78 32t32 85v301q0 111 73 174t183 64h21v-119h-21q-47 0 -79 -32t-31 -87v-301q0 -119 -91 -178q90 -59 91 -176v-320q2 -51 34 -81t76 -29h21v-121z" />
    <glyph glyph-name="braceright.smcp" horiz-adv-x="493" 
d="M45 -215v121h21q46 0 78 32t32 85v301q0 119 90 180q-90 59 -90 176v319q0 51 -32 81t-78 30h-21v119h21q106 -1 181 -63t75 -167v-319q0 -53 32 -84t78 -31h21v-125h-21q-47 0 -79 -32t-31 -84v-301q0 -111 -73 -175t-183 -63h-21z" />
    <glyph glyph-name="exclamdown.smcp" horiz-adv-x="317" 
d="M86 858v207h145v-207h-145zM86 -205v920h145v-920h-145z" />
    <glyph glyph-name="questiondown.smcp" horiz-adv-x="647" 
d="M252 868v207h145v-207h-145zM252 725h145v-125q0 -149 -66 -210q-28 -26 -55 -50q-65 -57 -65 -168v-149q0 -53 33 -85t80 -32q46 0 76 30t30 80v131h145v-131q1 -109 -71 -170t-182 -61t-183 63q-74 63 -73 175v149q0 147 65 210q27 26 55 50q65 55 66 168v125z" />
    <glyph glyph-name="question.smcp" horiz-adv-x="647" 
d="M244 0v205h145v-205h-145zM244 328v59q0 132 65 190q27 24 55 44q66 47 66 149v68q0 53 -32 85q-32 31 -79 31t-77 -30t-31 -80v-70h-145v70q0 109 71 170t181 61t184 -63t73 -174v-68q0 -134 -65 -189q-26 -23 -54 -45q-65 -51 -67 -149v-59h-145z" />
    <glyph glyph-name="bar.smcp" horiz-adv-x="317" 
d="M86 -205v1374h145v-1374h-145z" />
    <glyph glyph-name="brokenbar.smcp" horiz-adv-x="317" 
d="M86 575v594h145v-594h-145zM86 -205v594h145v-594h-145z" />
    <glyph glyph-name="percent.smcp" horiz-adv-x="1179" 
d="M807 428v-244q0 -50 28 -76q29 -26 69 -26t69 27t28 75v244q0 47 -28 76q-29 28 -70 28t-69 -28t-27 -76zM709 184v244q0 90 55 143t138 53t140 -52q57 -54 58 -144v-244q0 -90 -58 -142t-140 -52q-83 0 -138 52t-55 142zM180 879v-244q0 -49 27 -76t69 -27t69 27
q28 27 28 76v244q0 47 -29 75t-69 29q-39 -1 -67 -29t-28 -75zM82 635v244q0 90 54 143t137 53t141 -53t57 -143v-244q0 -90 -56 -142q-57 -53 -141 -53t-138 52t-54 143zM334 0l405 1065h111l-406 -1065h-110z" />
    <glyph glyph-name="perthousand.smcp" horiz-adv-x="1656" 
d="M1284 428v-244q0 -50 28 -76t68 -26t69 27q28 27 28 75v244q0 47 -28 76q-28 28 -69 28q-40 0 -68 -28t-28 -76zM1186 184v244q0 90 55 143t138 53t139 -52q56 -54 57 -144v-244q0 -90 -56 -142q-55 -52 -139 -52t-139 52t-55 142zM807 428v-244q0 -50 28 -76
q29 -26 69 -26t69 27t28 75v244q0 47 -28 76q-29 28 -70 28t-69 -28t-27 -76zM709 184v244q0 90 55 143t138 53t140 -52q57 -54 58 -144v-244q0 -90 -58 -142t-140 -52q-83 0 -138 52t-55 142zM180 879v-244q0 -49 27 -76t69 -27t69 27q28 27 28 76v244q0 47 -29 75t-69 29
q-39 -1 -67 -29t-28 -75zM82 635v244q0 90 54 143t137 53t141 -53t57 -143v-244q0 -90 -56 -142q-57 -53 -141 -53t-138 52t-54 143zM334 0l403 1065h113l-406 -1065h-110z" />
    <glyph glyph-name="dagger.smcp" horiz-adv-x="593" 
d="M35 676v119h190v270h146v-270h188v-119h-188v-676h-146v676h-190z" />
    <glyph glyph-name="daggerdbl.smcp" horiz-adv-x="593" 
d="M559 379v-119h-188v-260h-146v260h-190v119h190v307h-190v119h190v260h146v-260h188v-119h-188v-307h188z" />
    <glyph glyph-name="section.smcp" 
d="M438 303q0 67 -40 97t-97 60q-57 29 -78 40q-4 -12 -4 -39v-139q0 -71 46 -104q46 -34 98 -59q53 -25 73 -36q2 6 2 20v160zM584 143q0 -72 -35 -123q35 -51 35 -137v-119q0 -111 -73 -173t-185 -62t-183 62q-72 62 -71 173v93h145v-93q0 -54 31 -84t79 -30t80 31t31 83
v119q0 97 -129 155q-53 24 -106 52t-91 87q-38 58 -38 145v139q0 78 39 133q-39 57 -39 147v99q0 111 71 173q72 62 182 62q111 0 183 -62t72 -173v-92h-146v92q0 53 -32 84q-32 30 -78 30t-77 -30q-30 -30 -30 -84v-99q0 -97 129 -155q52 -25 106 -54t92 -86t38 -143v-160z
" />
    <glyph glyph-name="paragraph.smcp" horiz-adv-x="927" 
d="M842 1065v-1270h-146v1270h146zM573 1065v-1270h-145v598h-100q-111 1 -184 63t-72 173v198q0 111 72 174q73 63 184 64h245z" />
    <glyph glyph-name="afii61352.smcp" horiz-adv-x="1171" 
d="M799 879v-144q-1 -47 27 -75t69 -28t69 28t27 75v144q1 47 -27 75t-69 29q-41 -1 -69 -29t-27 -75zM700 735v144q0 90 56 143t138 53q83 0 139 -53t57 -143v-144q0 -88 -56 -140t-140 -52q-82 0 -138 51t-56 141zM86 0v1065h119l254 -698h4v698h141v-1065h-119l-254 698
h-4v-698h-141z" />
    <glyph glyph-name="Euro.smcp" horiz-adv-x="696" 
d="M45 588v108h78v146q0 109 71 171q72 62 180 62t180 -62t71 -171v-64h-146v64q0 51 -30 82q-31 30 -76 30t-75 -30t-30 -82v-146h357v-108h-357v-107h357v-108h-357v-152q0 -51 30 -81t76 -30t76 30t29 81v66h146v-66q0 -109 -72 -170q-73 -61 -181 -61t-178 61t-71 170
v152h-78v108h78v107h-78z" />
    <glyph glyph-name="sterling.smcp" horiz-adv-x="696" 
d="M45 424v119h78v299q0 109 71 171q72 62 180 62t180 -62t71 -171v-111h-146v111q0 51 -30 82q-31 30 -76 30t-75 -30t-30 -82v-299h357v-119h-357v-305h357v-119h-580v119h78v305h-78z" />
    <glyph glyph-name="yen.smcp" horiz-adv-x="645" 
d="M66 322v118h153l-192 625h145l147 -510h5l149 510h145l-196 -625h158v-118h-187v-93h187v-118h-187v-111h-145v111h-182v118h182v93h-182z" />
    <glyph glyph-name="numbersign.smcp" horiz-adv-x="741" 
d="M293 385h166v295h-166v-295zM147 0v266h-81v119h81v295h-81v119h81v266h146v-266h166v266h145v-266h82v-119h-82v-295h82v-119h-82v-266h-145v266h-166v-266h-146z" />
    <glyph glyph-name="Hbar.smcp" horiz-adv-x="686" 
d="M231 610h224v172h-224v-172zM35 782v119h51v164h145v-164h224v164h145v-164h51v-119h-51v-782h-145v492h-224v-492h-145v782h-51z" />
    <glyph glyph-name="ampersand.smcp" 
d="M326 461q-47 0 -78 -32t-31 -85v-119q0 -53 31 -84t79 -31t80 32q32 30 31 83v236h-112zM326 580h112v71h146v-426q0 -111 -73 -173t-185 -62t-183 62q-72 62 -71 173v90q0 145 123 207q-123 57 -123 205v59q0 111 71 175q72 63 183 63q110 0 184 -63t74 -175v-49h-146
v49q0 53 -31 85q-32 32 -80 32t-79 -32t-31 -85v-90q0 -52 31 -84t78 -32z" />
    <glyph glyph-name="H.smcp" horiz-adv-x="686" 
d="M86 0v1065h145v-455h224v455h145v-1065h-145v492h-224v-492h-145z" />
    <glyph glyph-name="G.smcp" horiz-adv-x="645" 
d="M326 475v119h247v-373q1 -109 -71 -170t-180 -61t-180 61q-71 61 -70 170v621q0 109 70 171q71 62 180 62q108 0 180 -62t71 -171v-111h-145v111q0 51 -30 82q-30 30 -76 30t-75 -30q-30 -30 -30 -82v-621q0 -51 30 -81t76 -30q45 0 75 30t30 81v254h-102z" />
    <glyph glyph-name="F.smcp" horiz-adv-x="624" 
d="M86 0v1065h467v-119h-322v-336h281v-118h-281v-492h-145z" />
    <glyph glyph-name="OE.smcp" horiz-adv-x="905" 
d="M227 225q0 -53 31 -83t80 -31q49 0 80 30v781q-33 32 -81 32t-79 -32t-31 -84v-613zM418 0v27q-57 -37 -136 -37t-140 62q-60 62 -60 173v613q0 111 60 174t140 63t136 -39v29h416v-119h-271v-336h230v-118h-230v-373h271v-119h-416z" />
    <glyph glyph-name="Oslash.smcp" 
d="M217 838v-463l215 502q-23 78 -106 77q-47 0 -78 -32t-31 -84zM326 111q49 1 81 31t31 83v463l-217 -502q23 -75 105 -75zM72 838q0 111 71 174t177 63t176 -53l18 43h86l-47 -109q31 -49 31 -118v-613q0 -111 -73 -173t-179 -62t-174 49l-17 -39h-86l45 104
q-29 51 -28 121v613z" />
    <glyph glyph-name="Oslashacute.smcp" 
d="M236 1143l-84 86l266 225l84 -84zM217 838v-463l215 502q-23 78 -106 77q-47 0 -78 -32t-31 -84zM326 111q49 1 81 31t31 83v463l-217 -502q23 -75 105 -75zM72 838q0 111 71 174t177 63t176 -53l18 43h86l-47 -109q31 -49 31 -118v-613q0 -111 -73 -173t-179 -62
t-174 49l-17 -39h-86l45 104q-29 51 -28 121v613z" />
    <glyph glyph-name="zero.slash" 
d="M217 1155v-668l221 666v2q0 53 -31 85q-32 32 -80 32t-79 -32t-31 -85zM217 225q0 -53 31 -83t79 -31q48 1 80 31t31 83v670l-221 -668v-2zM72 1155q0 111 71 174t179 63t178 -55l14 45h86l-41 -120q25 -45 25 -107v-930q0 -111 -73 -173t-179 -62t-176 53l-15 -43h-86
l39 117q-23 49 -22 108v930z" />
    <glyph glyph-name="zero.fitted.slash" 
d="M217 1155v-668l221 666v2q0 53 -31 85q-32 32 -80 32t-79 -32t-31 -85zM217 225q0 -53 31 -83t79 -31q48 1 80 31t31 83v670l-221 -668v-2zM72 1155q0 111 71 174t179 63t178 -55l14 45h86l-41 -120q25 -45 25 -107v-930q0 -111 -73 -173t-179 -62t-176 53l-15 -43h-86
l39 117q-23 49 -22 108v930z" />
    <glyph glyph-name="zerooldstyle.slash" 
d="M217 797v-437l215 480q-27 74 -106 73q-47 1 -78 -31t-31 -85zM326 111q49 1 81 31t31 83v439l-215 -482q23 -71 103 -71zM72 797q0 111 71 174t177 63t176 -51l18 41h86l-47 -106q31 -55 31 -121v-572q0 -111 -73 -173t-179 -62t-174 49l-17 -39h-86l45 102
q-29 53 -28 123v572z" />
    <glyph glyph-name="zero.taboldstyle.slash" 
d="M217 797v-437l215 480q-27 74 -106 73q-47 1 -78 -31t-31 -85zM326 111q49 1 81 31t31 83v439l-215 -482q23 -71 103 -71zM72 797q0 111 71 174t177 63t176 -51l18 41h86l-47 -106q31 -55 31 -121v-572q0 -111 -73 -173t-179 -62t-174 49l-17 -39h-86l45 102
q-29 53 -28 123v572z" />
    <glyph glyph-name="zero.slash.smcp" 
d="M217 838v-463l215 502q-23 78 -106 77q-47 0 -78 -32t-31 -84zM326 111q49 1 81 31t31 83v463l-217 -502q23 -75 105 -75zM72 838q0 111 71 174t177 63t176 -53l18 43h86l-47 -109q31 -49 31 -118v-613q0 -111 -73 -173t-179 -62t-174 49l-17 -39h-86l45 104
q-29 51 -28 121v613z" />
    <glyph glyph-name="zero.fitted.slash.smcp" 
d="M217 838v-463l215 502q-23 78 -106 77q-47 0 -78 -32t-31 -84zM326 111q49 1 81 31t31 83v463l-217 -502q23 -75 105 -75zM72 838q0 111 71 174t177 63t176 -53l18 43h86l-47 -109q31 -49 31 -118v-613q0 -111 -73 -173t-179 -62t-174 49l-17 -39h-86l45 104
q-29 51 -28 121v613z" />
    <glyph glyph-name="Jcircumflex.smcp" horiz-adv-x="645" 
d="M330 1149l-84 84l256 205l256 -205l-84 -84l-172 139zM72 358h145v-135q0 -51 31 -82t76 -31q44 0 74 32q30 30 30 81v842h145v-842q-1 -109 -71 -171t-178 -62t-181 62q-72 62 -71 171v135z" />
    <glyph glyph-name="Itilde.smcp" horiz-adv-x="317" 
d="M86 0v1065h145v-1065h-145zM-92 1163q0 78 45 123t107 45t111 -42q48 -42 79 -42q30 1 52 21t22 53h92q0 -78 -46 -123t-108 -45t-111 42q-48 42 -79 42q-32 0 -52 -19t-20 -55h-92z" />
    <glyph glyph-name="uni20B4.smcp" horiz-adv-x="645" 
d="M61 588v88h334q31 41 31 86v84q0 51 -30 80q-30 28 -74 28t-73 -28q-30 -28 -30 -80v-88h-145v88q0 106 70 168q71 61 179 61q109 0 179 -61t69 -168v-84q0 -41 -18 -86h31v-88h-97q-20 -20 -147 -111h244v-88h-340q-27 -41 -27 -82v-86q0 -51 30 -81t76 -30q45 0 75 30
t30 81v86h145v-86q0 -106 -71 -169q-72 -62 -179 -62t-180 62q-72 62 -71 169v86q0 47 14 82h-25v88h89q31 29 145 111h-234z" />
    <glyph glyph-name="E.smcp" horiz-adv-x="624" 
d="M86 0v1065h467v-119h-322v-336h281v-118h-281v-373h322v-119h-467z" />
    <glyph glyph-name="Thorn.smcp" horiz-adv-x="634" 
d="M231 279h76q47 -1 79 31t32 85v277q0 53 -32 84t-79 30h-76v-507zM86 0v1065h145v-160h76q111 0 183 -62t73 -171v-277q0 -109 -73 -172t-183 -63h-76v-160h-145z" />
    <glyph glyph-name="germandbls.smcp" horiz-adv-x="720" 
d="M313 307h146v-86q-1 -51 29 -81t76 -30t77 30t31 81v60q0 55 -178 95q-68 15 -123 59t-56 114v59q0 39 23 65q24 26 52 37q74 28 73 85v34q0 57 -36 91t-88 34t-87 -34t-35 -91v-829h-145v829q0 115 75 181q76 66 192 66q117 0 193 -66t76 -181v-55q0 -40 -24 -66
t-50 -37t-50 -33t-23 -52v-37q0 -56 178 -95q68 -16 123 -60t55 -113v-60q0 -109 -73 -170t-180 -61t-179 61t-72 170v86z" />
    <glyph glyph-name="Eth.smcp" horiz-adv-x="665" 
d="M231 119h105q49 0 81 32t32 85v591q0 55 -32 87t-81 32h-105v-336h115v-118h-115v-373zM35 492v118h51v455h250q110 1 184 -63t74 -175v-591q0 -112 -73 -174t-185 -62h-250v492h-51z" />
    <glyph glyph-name="Dcroat.smcp" horiz-adv-x="665" 
d="M231 119h105q49 0 81 32t32 85v591q0 55 -32 87t-81 32h-105v-336h115v-118h-115v-373zM35 492v118h51v455h250q110 1 184 -63t74 -175v-591q0 -112 -73 -174t-185 -62h-250v492h-51z" />
    <glyph glyph-name="Iogonek.smcp" horiz-adv-x="317" 
d="M86 0v1065h145v-1065h-41v-61q0 -51 28 -85t77 -34v-86q-96 0 -152 58q-55 58 -55 147v61h-2z" />
    <glyph glyph-name="at.smcp" horiz-adv-x="1411" 
d="M716 545q-56 0 -89 -31t-33 -84v-231q0 -41 24 -65t72 -24q47 0 87 40q40 39 40 106v256q-45 33 -101 33zM702 -299v-121q-268 0 -444 164t-176 449v266q0 285 177 451t444 165q267 0 447 -166t179 -450v-459h-512v96q-78 -106 -203 -106q-70 0 -118 47t-47 125v268
q0 111 73 173q74 63 166 63q157 1 246 -58l29 -18v-471h221v340q0 225 -138 360t-342 135t-340 -135t-137 -360v-266q0 -227 136 -359t339 -133z" />
    <glyph glyph-name="D.smcp" horiz-adv-x="665" 
d="M231 119h105q49 0 81 32t32 85v591q0 55 -32 87t-81 32h-105v-827zM86 0v1065h250q110 1 184 -63t74 -175v-591q0 -112 -73 -174t-185 -62h-250z" />
    <glyph glyph-name="Imacron.smcp" horiz-adv-x="317" 
d="M-45 1223v118h405v-118h-405zM86 0v1065h145v-1065h-145z" />
    <glyph glyph-name="Igrave.smcp" horiz-adv-x="317" 
d="M86 0v1065h145v-1065h-145zM250 1143l-266 225l84 86l268 -225z" />
    <glyph glyph-name="Idotaccent.smcp" horiz-adv-x="317" 
d="M88 1227v207h145v-207h-145zM86 0v1065h145v-1065h-145z" />
    <glyph glyph-name="Idieresis.smcp" horiz-adv-x="317" 
d="M248 1202v207h125v-207h-125zM-49 1202v207h125v-207h-125zM86 0v1065h145v-1065h-145z" />
    <glyph glyph-name="Icircumflex.smcp" horiz-adv-x="317" 
d="M-14 1149l-84 84l256 205l256 -205l-84 -84l-172 139zM86 0v1065h145v-1065h-145z" />
    <glyph glyph-name="Ibreve.smcp" horiz-adv-x="317" 
d="M86 0v1065h145v-1065h-145zM-41 1335h102q0 -49 29 -77t72 -28q44 0 72 28t28 77h103q-1 -90 -59 -142t-145 -52t-145 52q-57 52 -57 142z" />
    <glyph glyph-name="Iacute.smcp" horiz-adv-x="317" 
d="M86 0v1065h145v-1065h-145zM68 1143l-84 86l266 225l84 -84z" />
    <glyph glyph-name="zero.sup" 
d="M217 1155v-930q0 -53 31 -84t79 -31t80 32q32 30 31 83v930q0 53 -31 85q-32 32 -80 32t-79 -32t-31 -85zM326 1393q110 1 184 -63t74 -175v-930q0 -111 -73 -173t-185 -62t-183 62q-72 62 -71 173v930q0 111 72 175t182 63z" />
    <glyph glyph-name="one.sup" horiz-adv-x="245" 
d="M193 1430v-611h-78v537l-80 -47v71l80 50h78z" />
    <glyph glyph-name="two.sup" horiz-adv-x="325" 
d="M47 819v127q0 43 24 80q23 36 53 58q76 56 77 106v139q-1 17 -13 29t-28 12q-37 0 -37 -39v-69h-78v69q0 47 33 75t83 28t84 -28t34 -77v-139q0 -43 -24 -80q-23 -37 -53 -57q-78 -53 -77 -107v-65h154v-62h-232z" />
    <glyph glyph-name="three.sup" horiz-adv-x="323" 
d="M164 877q16 0 27 12t12 31v143q1 17 -11 29t-28 12h-49v63h45q41 0 41 41v121q-1 17 -13 29t-28 12q-37 0 -37 -39v-69h-78v69q0 47 33 75t83 28t84 -28t34 -77v-102q0 -66 -60 -90q61 -27 62 -95v-122q0 -49 -34 -77t-83 -28t-83 28t-34 75v69h78v-69q0 -18 11 -30
q12 -11 28 -11z" />
    <glyph glyph-name="four.sup" horiz-adv-x="325" 
d="M195 999v349h-2l-87 -349h89zM35 936v63l117 431h118v-431h21v-63h-21v-117h-75v117h-160z" />
    <glyph glyph-name="five.sup" horiz-adv-x="327" 
d="M125 1106h-78v324h229v-64h-151v-195q37 43 76 43q78 0 80 -73v-221q0 -51 -33 -78t-84 -27t-84 27t-33 78v67h78v-67q0 -18 11 -30q12 -12 28 -13q16 0 27 12t12 31v198q0 33 -29 33q-20 0 -35 -14q-14 -15 -14 -31z" />
    <glyph glyph-name="six.sup" horiz-adv-x="327" 
d="M125 1075v-155q0 -18 11 -30q12 -12 28 -13q16 0 27 12t12 31v176q0 33 -29 32q-20 0 -34 -14t-15 -39zM164 1370q-16 0 -28 -11t-11 -30v-180q37 43 76 43q78 0 80 -74v-198q0 -51 -33 -78t-84 -27t-84 27t-33 78v409q0 49 34 77t84 28t82 -28t32 -77v-67h-78v67
q0 41 -37 41z" />
    <glyph glyph-name="seven.sup" horiz-adv-x="311" 
d="M41 1366v64h229v-37l-116 -574h-80l112 547h-145z" />
    <glyph glyph-name="eight.sup" horiz-adv-x="327" 
d="M125 1057v-137q0 -18 11 -30q12 -12 28 -13q16 0 27 12t12 31v137q1 18 -11 30q-12 13 -28 13t-28 -12t-11 -31zM125 1329v-127q0 -18 11 -30q12 -12 28 -11q37 0 39 41v127q1 17 -11 29t-28 12t-28 -11q-11 -12 -11 -30zM164 1434q51 0 84 -28t33 -77v-108
q0 -59 -54 -88q53 -33 54 -91v-122q0 -51 -33 -78t-84 -27t-84 27t-33 78v122q0 57 53 91q-53 29 -53 88v108q0 49 33 77t84 28z" />
    <glyph glyph-name="nine.sup" horiz-adv-x="327" 
d="M203 1171v158q0 41 -39 41t-39 -41v-176q0 -33 31 -33q47 0 47 51zM164 877q39 0 39 43v180q-35 -45 -75 -45q-79 0 -81 75v199q0 49 34 77t84 28t83 -28t33 -77v-409q0 -49 -33 -77t-84 -28t-84 28t-33 77v67h78v-67q0 -43 39 -43z" />
    <glyph glyph-name="comma.sup" horiz-adv-x="176" 
d="M125 819q0 -51 -37 -110h-61q25 57 24 110v99h74v-99z" />
    <glyph glyph-name="period.sup" horiz-adv-x="176" 
d="M51 819v99h74v-99h-74z" />
    <glyph glyph-name="parenleft.sup" horiz-adv-x="208" 
d="M164 1438q-39 0 -39 -41v-570q0 -18 11 -29t28 -12h8v-63h-8q-51 0 -84 28t-33 76v570q0 49 33 77t84 27h8v-63h-8z" />
    <glyph glyph-name="parenright.sup" horiz-adv-x="208" 
d="M43 786q41 0 41 43v568q0 41 -41 41h-8v63h8q51 1 85 -27t34 -77v-568q0 -49 -34 -77t-85 -29h-8v63h8z" />
    <glyph glyph-name="hyphen.sup" horiz-adv-x="233" 
d="M41 1038v64h152v-64h-152z" />
    <glyph glyph-name="zero.slash.sup" horiz-adv-x="329" 
d="M164 877q39 0 39 43v254l-78 -234v-20q0 -18 11 -31q12 -12 28 -12zM125 1329v-258l78 234v24q0 41 -39 41q-16 0 -28 -11q-11 -12 -11 -30zM47 920v409q0 49 33 77t78 28t80 -21l6 17h45l-19 -56q10 -20 11 -45v-409q0 -51 -33 -78t-81 -27t-79 19l-4 -15h-43l16 51
q-10 20 -10 50z" />
    <glyph glyph-name="C.smcp" horiz-adv-x="645" 
d="M217 842v-621q0 -51 30 -81t76 -30q45 0 75 30t30 81v113h145v-113q1 -109 -71 -170t-180 -61t-180 61q-71 61 -70 170v621q0 109 70 171q71 62 180 62q108 0 180 -62t71 -171v-111h-145v111q0 51 -30 82q-30 30 -76 30t-75 -30q-30 -30 -30 -82z" />
    <glyph glyph-name="B.smcp" horiz-adv-x="659" 
d="M231 614h101q47 0 80 32t32 85v96q0 55 -32 87q-33 32 -80 32h-101v-332zM338 496h-107v-377h107q47 0 79 32t32 87v143q0 53 -32 84t-79 31zM86 0v1065h246q110 1 184 -63t74 -175v-61q0 -154 -137 -209q141 -55 141 -213v-106q0 -110 -73 -174t-183 -64h-252z" />
    <glyph glyph-name="AE.smcp" horiz-adv-x="811" 
d="M324 406v532h-5l-86 -532h91zM324 0v285h-105l-45 -285h-149l200 1065h514v-119h-270v-336h229v-118h-229v-373h270v-119h-415z" />
    <glyph glyph-name="zero.sub" horiz-adv-x="327" 
d="M125 408v-410q0 -18 11 -30q12 -12 28 -13q16 0 27 12t12 31v410q1 18 -11 29t-28 11t-28 -10q-12 -12 -11 -30zM164 512q51 0 84 -28t33 -76v-410q0 -51 -33 -78q-33 -26 -84 -26t-84 26t-33 78v410q0 48 33 76t84 28z" />
    <glyph glyph-name="one.sub" horiz-adv-x="245" 
d="M193 508v-610h-78v536l-80 -47v72l80 49h78z" />
    <glyph glyph-name="two.sub" horiz-adv-x="325" 
d="M47 -102v127q0 80 77 137t77 106v140q-1 18 -13 29t-28 12q-37 0 -37 -39v-70h-78v70q0 46 33 74t83 28t84 -28t34 -76v-140q0 -43 -24 -80q-23 -37 -53 -57q-78 -53 -77 -106v-66h154v-61h-232z" />
    <glyph glyph-name="three.sub" horiz-adv-x="323" 
d="M164 -45q16 0 27 12t12 31v143q1 17 -11 29t-28 12h-49v64h45q41 0 41 41v121q-1 18 -13 29t-28 12q-37 0 -37 -39v-70h-78v70q0 46 33 74t83 28t84 -28t34 -76v-103q0 -66 -60 -90q61 -27 62 -94v-123q0 -49 -34 -77q-34 -27 -83 -27t-83 28t-34 74v70h78v-70
q0 -18 11 -30q12 -11 28 -11z" />
    <glyph glyph-name="four.sub" horiz-adv-x="325" 
d="M195 78v348h-2l-87 -348h89zM35 14v64l117 430h118v-430h21v-64h-21v-116h-75v116h-160z" />
    <glyph glyph-name="five.sub" horiz-adv-x="327" 
d="M125 184h-78v324h229v-64h-151v-194q37 43 76 43q78 0 80 -74v-221q0 -51 -33 -78q-33 -26 -84 -26t-84 26t-33 78v68h78v-68q0 -18 11 -30q12 -12 28 -13q16 0 27 12t12 31v199q0 33 -29 32q-20 0 -35 -14q-14 -15 -14 -31z" />
    <glyph glyph-name="six.sub" horiz-adv-x="327" 
d="M125 154v-156q0 -18 11 -30q12 -12 28 -13q16 0 27 12t12 31v176q0 33 -29 33q-20 0 -34 -14t-15 -39zM164 449q-16 1 -28 -11t-11 -30v-181q37 43 76 43q78 0 80 -73v-199q0 -51 -33 -78q-33 -26 -84 -26t-84 26t-33 78v410q0 48 34 76t84 28t82 -28t32 -76v-68h-78v68
q0 41 -37 41z" />
    <glyph glyph-name="seven.sub" horiz-adv-x="311" 
d="M41 444v64h229v-37l-116 -573h-80l112 546h-145z" />
    <glyph glyph-name="eight.sub" horiz-adv-x="327" 
d="M125 135v-137q0 -18 11 -30q12 -12 28 -13q16 0 27 12t12 31v137q1 19 -11 31t-28 12t-28 -12q-11 -13 -11 -31zM125 408v-127q0 -17 11 -29q12 -12 28 -12q37 0 39 41v127q1 18 -11 29t-28 11t-28 -10q-12 -12 -11 -30zM164 512q51 0 84 -28t33 -76v-109q0 -59 -54 -88
q53 -33 54 -90v-123q0 -51 -33 -78q-33 -26 -84 -26t-84 26t-33 78v123q0 57 53 90q-53 29 -53 88v109q0 48 33 76t84 28z" />
    <glyph glyph-name="nine.sub" horiz-adv-x="327" 
d="M203 250v158q0 41 -39 41t-39 -41v-177q0 -33 31 -32q47 0 47 51zM164 -45q39 0 39 43v180q-35 -45 -75 -45q-79 0 -81 76v199q0 48 34 76t84 28t83 -28t33 -76v-410q0 -49 -33 -77q-33 -27 -84 -27t-84 28t-33 76v68h78v-68q0 -43 39 -43z" />
    <glyph glyph-name="comma.sub" horiz-adv-x="176" 
d="M125 -102q0 -52 -37 -111h-61q25 57 24 111v98h74v-98z" />
    <glyph glyph-name="period.sub" horiz-adv-x="176" 
d="M51 -102v98h74v-98h-74z" />
    <glyph glyph-name="parenleft.sub" horiz-adv-x="208" 
d="M164 516q-39 0 -39 -41v-569q0 -18 11 -30t28 -11h8v-64h-8q-51 0 -84 28t-33 77v569q0 49 33 77t84 28h8v-64h-8z" />
    <glyph glyph-name="parenright.sub" horiz-adv-x="208" 
d="M43 -135q41 0 41 43v567q0 41 -41 41h-8v64h8q51 0 85 -28t34 -77v-567q0 -49 -34 -78t-85 -29h-8v64h8z" />
    <glyph glyph-name="hyphen.sub" horiz-adv-x="233" 
d="M41 117v63h152v-63h-152z" />
    <glyph glyph-name="zero.slash.sub" horiz-adv-x="329" 
d="M164 -45q39 0 39 43v254l-78 -234v-20q0 -18 11 -31q12 -12 28 -12zM125 408v-258l78 233v25q0 41 -39 41q-16 1 -28 -11t-11 -30zM47 -2v410q0 48 33 76t78 28t80 -20l6 16h45l-19 -55q10 -20 11 -45v-410q0 -51 -33 -78q-33 -26 -82 -26t-78 20l-4 -16h-43l16 51
q-10 25 -10 49z" />
    <glyph glyph-name="A.smcp" horiz-adv-x="645" 
d="M319 938l-86 -532h177l-86 532h-5zM418 1065l200 -1065h-149l-47 285h-203l-45 -285h-149l200 1065h193z" />
    <glyph glyph-name="eight.taboldstyle" 
d="M217 528v-303q0 -53 31 -84t79 -31t80 32q32 30 31 83v303q0 53 -31 85q-32 32 -80 32t-79 -32t-31 -85zM217 1155v-274q0 -53 31 -85t79 -32t80 32t31 85v274q0 53 -31 85q-32 32 -80 32t-79 -32t-31 -85zM326 1393q110 1 184 -63t74 -175v-244q0 -145 -125 -204
q125 -63 125 -207v-275q0 -111 -73 -173t-185 -62t-183 62q-72 62 -71 173v275q0 145 123 207q-123 57 -123 204v244q0 111 72 175t182 63z" />
    <glyph glyph-name="Hcircumflex.smcp" horiz-adv-x="686" 
d="M170 1149l-84 84l256 205l256 -205l-84 -84l-172 139zM86 0v1065h145v-455h224v455h145v-1065h-145v492h-224v-492h-145z" />
    <glyph glyph-name="nine.taboldstyle" 
d="M438 449v350q0 53 -31 84q-32 31 -79 31t-79 -32q-32 -30 -32 -83v-406q0 -41 24 -65q23 -24 71 -25q48 0 87 40t39 106zM217 -109q0 -53 31 -83t78 -31q47 0 80 33t32 86v395q-76 -106 -200 -107q-70 0 -118 46t-48 126v443q0 111 72 173q73 62 184 62q112 0 184 -62
t72 -173v-903q0 -110 -74 -174t-184 -64t-183 62q-72 62 -71 171v109h145v-109z" />
    <glyph glyph-name="Gdotaccent.smcp" horiz-adv-x="645" 
d="M250 1227v207h145v-207h-145zM326 475v119h247v-373q1 -109 -71 -170t-180 -61t-180 61q-71 61 -70 170v621q0 109 70 171q71 62 180 62q108 0 180 -62t71 -171v-111h-145v111q0 51 -30 82q-30 30 -76 30t-75 -30q-30 -30 -30 -82v-621q0 -51 30 -81t76 -30q45 0 75 30
t30 81v254h-102z" />
    <glyph glyph-name="Gcommaaccent.smcp" horiz-adv-x="645" 
d="M383 -215q0 -86 -57 -211h-103q41 123 41 211v154h119v-154zM326 475v119h247v-373q1 -109 -71 -170t-180 -61t-180 61q-71 61 -70 170v621q0 109 70 171q71 62 180 62q108 0 180 -62t71 -171v-111h-145v111q0 51 -30 82q-30 30 -76 30t-75 -30q-30 -30 -30 -82v-621
q0 -51 30 -81t76 -30q45 0 75 30t30 81v254h-102z" />
    <glyph glyph-name="U.smcp" 
d="M72 1065h145v-840q0 -53 31 -84t79 -31t80 32q32 30 31 83v840h146v-840q0 -111 -73 -173t-185 -62t-183 62q-72 62 -71 173v840z" />
    </font>
</defs>
</svg>
